<svg width="40" height="40" viewBox="0 0 40 40" fill="none" xmlns="http://www.w3.org/2000/svg">
<g clip-path="url(#clip0_3219_16865)">
<path d="M20 40C31.0457 40 40 31.0457 40 20C40 8.95431 31.0457 0 20 0C8.95431 0 0 8.95431 0 20C0 31.0457 8.95431 40 20 40Z" fill="#16254C"/>
<path fill-rule="evenodd" clip-rule="evenodd" d="M17.0505 9.37114C16.5417 9.37114 16.1292 9.78361 16.1292 10.2924V10.6637C16.1292 11.0124 16.323 11.3158 16.6087 11.4723C16.6658 11.4881 16.7216 11.5116 16.7745 11.5429C16.8616 11.5702 16.9544 11.585 17.0505 11.585H23.527C23.6232 11.585 23.7159 11.5702 23.803 11.5429C23.8559 11.5116 23.9117 11.4881 23.9688 11.4723C24.2545 11.3158 24.4483 11.0124 24.4483 10.6637V10.2924C24.4483 9.78361 24.0358 9.37114 23.527 9.37114H17.0505ZM15.2168 12.8294H13.1317C12.752 12.8294 12.4441 12.5216 12.4441 12.1418C12.4441 11.7621 12.752 11.4543 13.1317 11.4543H14.8939C14.8035 11.2078 14.7542 10.9415 14.7542 10.6637V10.2924C14.7542 9.02419 15.7823 7.99609 17.0505 7.99609H23.527C24.7952 7.99609 25.8233 9.02419 25.8233 10.2924V10.6637C25.8233 11.3199 25.5481 11.9117 25.1068 12.3302C25.4971 13.0103 25.7405 13.7679 25.8175 14.5539C25.9185 15.5855 25.7289 16.6248 25.2702 17.5542C24.9417 18.2196 24.4847 18.8097 23.9286 19.2921H24.7603C25.8571 19.3072 26.9038 19.7536 27.674 20.5346C28.4442 21.3156 28.876 22.3684 28.8759 23.4653V29.4124C28.8759 29.7921 28.5681 30.0999 28.1884 30.0999H12.3754C11.9957 30.0999 11.6879 29.7921 11.6879 29.4124V23.4653C11.6879 22.3585 12.1275 21.297 12.9102 20.5144C13.6928 19.7317 14.7543 19.2921 15.8611 19.2921H16.6489C16.0928 18.8097 15.6358 18.2196 15.3073 17.5542C14.8486 16.6248 14.659 15.5855 14.76 14.5539C14.8187 13.9554 14.9738 13.3733 15.2168 12.8294ZM16.1285 14.688C16.1895 14.0656 16.3891 13.4669 16.7102 12.935C16.8213 12.9515 16.9349 12.96 17.0505 12.96H23.527C23.6426 12.96 23.7562 12.9515 23.8673 12.935C24.1884 13.4669 24.388 14.0656 24.449 14.688C24.525 15.4642 24.3824 16.2462 24.0371 16.9456C23.6919 17.645 23.1579 18.2339 22.4955 18.6456C21.8331 19.0574 21.0687 19.2756 20.2888 19.2756C19.5088 19.2756 18.7444 19.0574 18.082 18.6456C17.4196 18.2339 16.8856 17.645 16.5404 16.9456C16.1952 16.2462 16.0525 15.4642 16.1285 14.688ZM13.8825 21.4867C14.4073 20.9619 15.119 20.6671 15.8611 20.6671H24.7458C25.4796 20.6784 26.1796 20.9776 26.695 21.5002C27.2114 22.0238 27.5009 22.7298 27.5009 23.4653V28.7249H13.0629V23.4653C13.0629 22.7232 13.3577 22.0115 13.8825 21.4867Z" fill="white"/>
</g>
<defs>
<clipPath id="clip0_3219_16865">
<rect width="40" height="40" fill="white"/>
</clipPath>
</defs>
</svg>
