<svg width="40" height="40" viewBox="0 0 40 40" fill="none" xmlns="http://www.w3.org/2000/svg">
<g clip-path="url(#clip0_3219_16864)">
<path d="M20 40C31.0457 40 40 31.0457 40 20C40 8.9543 31.0457 0 20 0C8.9543 0 0 8.9543 0 20C0 31.0457 8.9543 40 20 40Z" fill="#16254C"/>
<path fill-rule="evenodd" clip-rule="evenodd" d="M20.3969 10.2083C20.1817 10.0816 19.9148 10.0816 19.6995 10.2082L10.8511 15.4127C10.6411 15.5363 10.5122 15.7617 10.5122 16.0053V27.8307C10.5122 28.2104 10.82 28.5182 11.1997 28.5182H15.1287C15.1299 28.5182 15.1311 28.5182 15.1324 28.5182C15.1336 28.5182 15.1348 28.5182 15.136 28.5182H19.0407C19.0419 28.5182 19.0431 28.5182 19.0444 28.5182C19.0456 28.5182 19.0468 28.5182 19.048 28.5182H28.8896C29.2693 28.5182 29.5772 28.2104 29.5772 27.8307V16.0053C29.5772 15.7618 29.4483 15.5364 29.2384 15.4128L20.3969 10.2083ZM19.7319 27.1432H28.2021V16.3984L20.048 11.5985L11.8872 16.3986V27.1432H14.4448V20.3711C14.4448 19.9914 14.7526 19.6836 15.1324 19.6836H19.0444C19.4241 19.6836 19.7319 19.9914 19.7319 20.3711V27.1432ZM15.8199 27.1432H18.3568V21.0586H15.8199V27.1432Z" fill="white"/>
</g>
<defs>
<clipPath id="clip0_3219_16864">
<rect width="40" height="40" fill="white"/>
</clipPath>
</defs>
</svg>
