<svg width="56" height="98" viewBox="0 0 56 98" fill="none" xmlns="http://www.w3.org/2000/svg">
<path fill-rule="evenodd" clip-rule="evenodd" d="M7.33928 23.1018C2.78108 28.0824 0 34.7164 0 42.0001C0 57.464 28 78.0001 28 78.0001C28 78.0001 56 57.464 56 42.0001C56 34.7164 53.2189 28.0824 48.6607 23.1018C45.7726 27.2701 40.9551 30.0001 35.5 30.0001H20.5C15.0449 30.0001 10.2274 27.2701 7.33928 23.1018Z" fill="#16254C"/>
<path fill-rule="evenodd" clip-rule="evenodd" d="M7.33928 23.1018C2.78108 28.0824 0 34.7164 0 42.0001C0 57.464 28 78.0001 28 78.0001C28 78.0001 56 57.464 56 42.0001C56 34.7164 53.2189 28.0824 48.6607 23.1018C45.7726 27.2701 40.9551 30.0001 35.5 30.0001H20.5C15.0449 30.0001 10.2274 27.2701 7.33928 23.1018Z" fill="#16254C"/>
<rect x="27" y="76" width="2" height="15" fill="#16254C"/>
<circle cx="28" cy="94" r="4" fill="#16254C"/>
<path d="M22.0625 51.0909V36.5454H28.3409C29.4205 36.5454 30.3651 36.7585 31.1747 37.1846C31.9844 37.6108 32.6141 38.2097 33.0639 38.9815C33.5137 39.7533 33.7386 40.6553 33.7386 41.6875C33.7386 42.7291 33.5066 43.6311 33.0426 44.3934C32.5833 45.1557 31.937 45.7429 31.1037 46.1548C30.2751 46.5667 29.3068 46.7727 28.1989 46.7727H24.4489V43.7045H27.4034C27.8674 43.7045 28.2628 43.624 28.5895 43.463C28.9209 43.2973 29.1742 43.0629 29.3494 42.7599C29.5294 42.4569 29.6193 42.0994 29.6193 41.6875C29.6193 41.2708 29.5294 40.9157 29.3494 40.6221C29.1742 40.3238 28.9209 40.0965 28.5895 39.9403C28.2628 39.7793 27.8674 39.6988 27.4034 39.6988H26.0114V51.0909H22.0625Z" fill="white"/>
<rect x="6.5" width="43" height="28" rx="14" fill="#579636"/>
</svg>
