<svg width="40" height="40" viewBox="0 0 40 40" fill="none" xmlns="http://www.w3.org/2000/svg">
<g clip-path="url(#clip0_3219_16862)">
<path d="M20 40C31.0457 40 40 31.0457 40 20C40 8.9543 31.0457 0 20 0C8.9543 0 0 8.9543 0 20C0 31.0457 8.9543 40 20 40Z" fill="#16254C"/>
<path fill-rule="evenodd" clip-rule="evenodd" d="M8.36712 13.9979C8.36712 13.3068 8.92734 12.7466 9.61841 12.7466H30.3816C31.0726 12.7466 31.6328 13.3068 31.6328 13.9979V26.002C31.6328 26.6931 31.0726 27.2533 30.3816 27.2533H9.61841C8.92734 27.2533 8.36712 26.6931 8.36712 26.002V13.9979ZM9.61841 11.3716C8.16793 11.3716 6.99208 12.5474 6.99208 13.9979V26.002C6.99208 27.4525 8.16793 28.6284 9.61841 28.6284H30.3816C31.832 28.6284 33.0079 27.4525 33.0079 26.002V13.9979C33.0079 12.5474 31.832 11.3716 30.3816 11.3716H9.61841ZM12.726 19.3124V16.7136H14.5205C15.2355 16.7136 15.8199 17.2943 15.8199 18.013C15.8199 18.728 15.2392 19.3124 14.5205 19.3124H12.726ZM14.5205 20.6875H12.726V23.9738C12.726 24.3536 12.4182 24.6614 12.0385 24.6614C11.6588 24.6614 11.351 24.3536 11.351 23.9738V20V16.0261C11.351 15.6464 11.6588 15.3386 12.0385 15.3386H14.5205C15.9918 15.3386 17.1949 16.5317 17.1949 18.013C17.1949 19.4843 16.0017 20.6875 14.5205 20.6875ZM24.7508 19.3124V16.7136H26.5452C27.2602 16.7136 27.8446 17.2943 27.8446 18.013C27.8446 18.7229 27.2723 19.304 26.5607 19.3124C26.5529 19.3123 26.545 19.3123 26.5371 19.3124H24.7508ZM26.1265 20.6875H24.7508V23.9738C24.7508 24.3536 24.443 24.6614 24.0632 24.6614C23.6835 24.6614 23.3757 24.3536 23.3757 23.9738V20V16.0261C23.3757 15.6464 23.6835 15.3386 24.0632 15.3386H26.5452C28.0165 15.3386 29.2197 16.5317 29.2197 18.013C29.2197 19.1261 28.5368 20.0857 27.5629 20.487L29.1475 23.6672C29.3168 24.0071 29.1786 24.4199 28.8388 24.5892C28.4989 24.7585 28.0861 24.6203 27.9168 24.2805L26.1265 20.6875ZM20 17.793C20.3797 17.793 20.6875 18.1008 20.6875 18.4806V19.2437H21.4575C21.8372 19.2437 22.145 19.5515 22.145 19.9312C22.145 20.3109 21.8372 20.6187 21.4575 20.6187H20.6875V21.3888C20.6875 21.7685 20.3797 22.0763 20 22.0763C19.6203 22.0763 19.3125 21.7685 19.3125 21.3888V20.6187H18.5424C18.1627 20.6187 17.8549 20.3109 17.8549 19.9312C17.8549 19.5515 18.1627 19.2437 18.5424 19.2437H19.3125V18.4806C19.3125 18.1008 19.6203 17.793 20 17.793Z" fill="white"/>
</g>
<defs>
<clipPath id="clip0_3219_16862">
<rect width="40" height="40" fill="white"/>
</clipPath>
</defs>
</svg>
