<svg width="40" height="40" viewBox="0 0 40 40" fill="none" xmlns="http://www.w3.org/2000/svg">
<g clip-path="url(#clip0_3219_16863)">
<path d="M20 40C31.0457 40 40 31.0457 40 20C40 8.9543 31.0457 0 20 0C8.9543 0 0 8.9543 0 20C0 31.0457 8.9543 40 20 40Z" fill="#16254C"/>
<path fill-rule="evenodd" clip-rule="evenodd" d="M9.52216 19.9998C9.52216 14.2131 14.2132 9.52202 20 9.52202C25.7867 9.52202 30.4778 14.2131 30.4778 19.9998C30.4778 25.7866 25.7867 30.4777 20 30.4777C14.2132 30.4777 9.52216 25.7866 9.52216 19.9998ZM20 8.14697C13.4538 8.14697 8.14711 13.4537 8.14711 19.9998C8.14711 26.546 13.4538 31.8527 20 31.8527C26.5461 31.8527 31.8529 26.546 31.8529 19.9998C31.8529 13.4537 26.5461 8.14697 20 8.14697ZM17.98 13.874C17.9482 13.8695 17.9156 13.8671 17.8824 13.8671C17.5027 13.8671 17.1949 14.175 17.1949 14.5547V14.5615V19.993V25.4381C17.1949 25.8178 17.5027 26.1257 17.8824 26.1257C18.2621 26.1257 18.57 25.8178 18.57 25.4381V20.6805H21.2788C23.1573 20.6805 24.682 19.1558 24.682 17.2773C24.682 15.3987 23.1573 13.874 21.2788 13.874H17.98ZM18.57 19.3054V15.2491H21.2788C22.3979 15.2491 23.307 16.1582 23.307 17.2773C23.307 18.3963 22.3979 19.3054 21.2788 19.3054H18.57Z" fill="white"/>
</g>
<defs>
<clipPath id="clip0_3219_16863">
<rect width="40" height="40" fill="white"/>
</clipPath>
</defs>
</svg>
