<svg width="40" height="40" viewBox="0 0 40 40" fill="none" xmlns="http://www.w3.org/2000/svg">
<g clip-path="url(#clip0_3219_16867)">
<path d="M20 40C31.0457 40 40 31.0457 40 20C40 8.9543 31.0457 0 20 0C8.9543 0 0 8.9543 0 20C0 31.0457 8.9543 40 20 40Z" fill="#16254C"/>
<path fill-rule="evenodd" clip-rule="evenodd" d="M13.3517 8.53906C12.972 8.53906 12.6642 8.84688 12.6642 9.22658V26.5453C12.6642 26.925 12.972 27.2328 13.3517 27.2328H16.088V32.9255C16.088 33.3052 16.3958 33.613 16.7755 33.613H23.2245C23.6042 33.613 23.912 33.3052 23.912 32.9255V27.2328H26.6415C27.0212 27.2328 27.329 26.925 27.329 26.5453V9.22658C27.329 8.84688 27.0212 8.53906 26.6415 8.53906H13.3517ZM14.0392 25.8577V9.91411H25.9539V25.8577H14.0392ZM17.463 32.2379V27.274H22.537V32.2379H17.463ZM16.088 12.4648C16.088 12.0851 16.3958 11.7773 16.7755 11.7773H23.2245C23.6042 11.7773 23.912 12.0851 23.912 12.4648V19.8694C23.912 20.2491 23.6042 20.5569 23.2245 20.5569H16.7755C16.3958 20.5569 16.088 20.2491 16.088 19.8694V12.4648ZM17.463 13.1523V19.1819H22.537V13.1523H17.463ZM16.7755 22.537C16.3958 22.537 16.088 22.8448 16.088 23.2245C16.088 23.6042 16.3958 23.912 16.7755 23.912H19.2781C19.6578 23.912 19.9656 23.6042 19.9656 23.2245C19.9656 22.8448 19.6578 22.537 19.2781 22.537H16.7755Z" fill="white"/>
</g>
<defs>
<clipPath id="clip0_3219_16867">
<rect width="40" height="40" fill="white"/>
</clipPath>
</defs>
</svg>
