<svg width="40" height="40" viewBox="0 0 40 40" fill="none" xmlns="http://www.w3.org/2000/svg">
<g clip-path="url(#clip0_3219_16866)">
<path d="M20 40C31.0457 40 40 31.0457 40 20C40 8.9543 31.0457 0 20 0C8.9543 0 0 8.9543 0 20C0 31.0457 8.9543 40 20 40Z" fill="#16254C"/>
<path fill-rule="evenodd" clip-rule="evenodd" d="M13.3035 19.9999C13.3035 19.6127 13.3298 19.2317 13.3808 18.8586H11.3922C11.0125 18.8586 10.7047 18.5508 10.7047 18.1711C10.7047 17.7913 11.0125 17.4835 11.3922 17.4835H13.6889C14.7561 14.0991 17.919 11.6465 21.6569 11.6465C22.7433 11.6465 23.7773 11.8564 24.7276 12.2305C25.0809 12.3696 25.2546 12.7688 25.1155 13.1221C24.9764 13.4754 24.5772 13.6491 24.2239 13.51C23.4278 13.1966 22.5643 13.0215 21.6569 13.0215C18.6888 13.0215 16.1548 14.8724 15.1456 17.4835H21.7257C22.1054 17.4835 22.4132 17.7913 22.4132 18.1711C22.4132 18.5508 22.1054 18.8586 21.7257 18.8586H14.7713C14.7103 19.2299 14.6786 19.6112 14.6786 19.9999C14.6786 20.3742 14.708 20.7416 14.7647 21.0999H21.1757C21.5554 21.0999 21.8632 21.4077 21.8632 21.7874C21.8632 22.1671 21.5554 22.4749 21.1757 22.4749H15.1298C16.1281 25.1078 18.6732 26.9782 21.6569 26.9782C22.5643 26.9782 23.4278 26.8031 24.2239 26.4897C24.5772 26.3506 24.9764 26.5243 25.1155 26.8776C25.2546 27.2309 25.0809 27.6301 24.7276 27.7692C23.7773 28.1433 22.7433 28.3533 21.6569 28.3533C17.9039 28.3533 14.7304 25.8806 13.676 22.4749H11.3922C11.0125 22.4749 10.7047 22.1671 10.7047 21.7874C10.7047 21.4077 11.0125 21.0999 11.3922 21.0999H13.3752C13.3279 20.74 13.3035 20.3728 13.3035 19.9999Z" fill="white"/>
</g>
<defs>
<clipPath id="clip0_3219_16866">
<rect width="40" height="40" fill="white"/>
</clipPath>
</defs>
</svg>
