<svg width="56" height="98" viewBox="0 0 56 98" fill="none" xmlns="http://www.w3.org/2000/svg">
<mask id="path-1-inside-1_4516_12097" fill="white">
<path d="M56 42C56 57.464 28 78 28 78C28 78 0 57.464 0 42C0 26.536 12.536 14 28 14C43.464 14 56 26.536 56 42Z"/>
</mask>
<path d="M56 42C56 57.464 28 78 28 78C28 78 0 57.464 0 42C0 26.536 12.536 14 28 14C43.464 14 56 26.536 56 42Z"/>
<path d="M28 78L26.8172 79.6127L28 80.4803L29.1828 79.6127L28 78ZM54 42C54 45.3042 52.4844 49.0975 49.9407 53.0704C47.4204 57.0067 44.0264 60.9112 40.5791 64.3915C37.1395 67.864 33.6926 70.8686 31.1018 73.0072C29.8079 74.0754 28.731 74.9246 27.9801 75.5049C27.6047 75.7951 27.311 76.0178 27.1126 76.167C27.0134 76.2416 26.938 76.2978 26.8882 76.3347C26.8633 76.3532 26.8448 76.3669 26.8329 76.3757C26.8269 76.3801 26.8226 76.3833 26.82 76.3852C26.8187 76.3862 26.8178 76.3868 26.8173 76.3872C26.8171 76.3873 26.817 76.3874 26.8169 76.3874C26.817 76.3874 26.8172 76.3873 28 78C29.1828 79.6127 29.1832 79.6124 29.1837 79.6121C29.184 79.6119 29.1846 79.6114 29.1852 79.611C29.1865 79.6101 29.1881 79.6088 29.1902 79.6073C29.1944 79.6043 29.2002 79.6 29.2077 79.5944C29.2227 79.5834 29.2444 79.5673 29.2724 79.5465C29.3286 79.5048 29.4105 79.4438 29.5163 79.3642C29.7281 79.205 30.0359 78.9715 30.4262 78.6698C31.2065 78.0668 32.3172 77.1908 33.6482 76.092C36.3074 73.8969 39.8605 70.801 43.4209 67.2065C46.9736 63.6197 50.5796 59.4908 53.3093 55.2273C56.0156 51.0005 58 46.4278 58 42H54ZM28 78C29.1828 76.3873 29.183 76.3874 29.1831 76.3874C29.183 76.3874 29.1829 76.3873 29.1827 76.3872C29.1822 76.3868 29.1813 76.3862 29.18 76.3852C29.1774 76.3833 29.1731 76.3801 29.1671 76.3757C29.1552 76.3669 29.1367 76.3532 29.1118 76.3347C29.062 76.2978 28.9866 76.2416 28.8874 76.167C28.689 76.0178 28.3953 75.7951 28.0199 75.5049C27.269 74.9246 26.1921 74.0754 24.8982 73.0072C22.3074 70.8686 18.8605 67.864 15.4209 64.3915C11.9736 60.9112 8.57955 57.0067 6.05934 53.0704C3.51559 49.0975 2 45.3042 2 42H-2C-2 46.4278 -0.0155864 51.0005 2.69066 55.2273C5.42045 59.4908 9.02637 63.6197 12.5791 67.2065C16.1395 70.801 19.6926 73.8969 22.3518 76.092C23.6829 77.1908 24.7935 78.0668 25.5738 78.6698C25.9641 78.9715 26.2719 79.205 26.4837 79.3642C26.5895 79.4438 26.6714 79.5048 26.7276 79.5465C26.7556 79.5673 26.7773 79.5834 26.7923 79.5944C26.7998 79.6 26.8056 79.6043 26.8098 79.6073C26.8119 79.6088 26.8135 79.6101 26.8148 79.611C26.8154 79.6114 26.816 79.6119 26.8163 79.6121C26.8168 79.6124 26.8172 79.6127 28 78ZM2 42C2 27.6406 13.6406 16 28 16V12C11.4315 12 -2 25.4315 -2 42H2ZM28 16C42.3594 16 54 27.6406 54 42H58C58 25.4315 44.5685 12 28 12V16Z" fill="#16254C" mask="url(#path-1-inside-1_4516_12097)"/>
<rect x="27" y="76" width="2" height="15" fill="#16254C"/>
<circle cx="28" cy="94" r="4" fill="#16254C"/>
<path d="M22.0625 51.0909V36.5454H28.3409C29.4205 36.5454 30.3651 36.7585 31.1747 37.1846C31.9844 37.6108 32.6141 38.2097 33.0639 38.9815C33.5137 39.7533 33.7386 40.6553 33.7386 41.6875C33.7386 42.7291 33.5066 43.6311 33.0426 44.3934C32.5833 45.1557 31.937 45.7429 31.1037 46.1548C30.2751 46.5667 29.3068 46.7727 28.1989 46.7727H24.4489V43.7045H27.4034C27.8674 43.7045 28.2628 43.624 28.5895 43.463C28.9209 43.2973 29.1742 43.0629 29.3494 42.7599C29.5294 42.4569 29.6193 42.0994 29.6193 41.6875C29.6193 41.2708 29.5294 40.9157 29.3494 40.6221C29.1742 40.3238 28.9209 40.0965 28.5895 39.9403C28.2628 39.7793 27.8674 39.6988 27.4034 39.6988H26.0114V51.0909H22.0625Z" fill="#16254C"/>
</svg>
