<svg width="18" height="20" viewBox="0 0 18 20" fill="none" xmlns="http://www.w3.org/2000/svg">
  <path id="&#239;&#163;&#191;Pay"
        d="M11.9226 3.25241C11.2574 4.05828 10.1318 4.65949 9.23635 4.65949C9.13402 4.65949 9.03168 4.6467 8.96772 4.6339C8.95493 4.58274 8.92935 4.42924 8.92935 4.27574C8.92935 3.25241 9.45381 2.22907 10.0166 1.58949C10.733 0.745244 11.9354 0.118453 12.9331 0.0800781C12.9587 0.195203 12.9715 0.335911 12.9715 0.476619C12.9715 1.49995 12.5366 2.51049 11.9226 3.25241ZM12.6261 4.87695C13.189 4.87695 15.2228 4.92811 16.5532 6.84686C16.438 6.9364 14.417 8.07486 14.417 10.6204C14.417 13.5625 16.9881 14.6114 17.0648 14.637C17.052 14.7009 16.6555 16.0568 15.7089 17.4511C14.8647 18.6663 13.9693 19.8943 12.6261 19.8943C11.2702 19.8943 10.9248 19.1013 9.37706 19.1013C7.85485 19.1013 7.3176 19.9199 6.0896 19.9199C4.84881 19.9199 3.99177 18.7815 3.00682 17.4C1.85557 15.7626 0.93457 13.2299 0.93457 10.8251C0.93457 6.97478 3.44173 4.92811 5.91052 4.92811C7.21527 4.92811 8.30256 5.78515 9.13402 5.78515C9.91431 5.78515 11.1295 4.87695 12.6261 4.87695Z"
        fill="white"/>
</svg>
