<svg width="20" height="22" viewBox="0 0 20 22" fill="none" xmlns="http://www.w3.org/2000/svg">
  <g id="G Mark 1">
    <path id="Blue 500"
          d="M20.0001 11.2307C20.0001 10.4893 19.9334 9.77986 19.8093 9.09766H10.2129V13.0061L15.7397 13.0073C15.5155 14.3078 14.7941 15.4163 13.6887 16.1554V18.6912H16.9786C18.8995 16.9253 20.0001 14.3149 20.0001 11.2307Z"
          fill="#4285F4"/>
    <path id="Green 500 1"
          d="M13.6896 16.1551C12.7739 16.7686 11.5946 17.1274 10.215 17.1274C7.54995 17.1274 5.28916 15.3438 4.47951 12.9395H1.08594V15.5546C2.76723 18.8685 6.22281 21.1425 10.215 21.1425C12.9742 21.1425 15.2922 20.2412 16.9795 18.6896L13.6896 16.1551Z"
          fill="#34A853"/>
    <path id="Yellow 500 1"
          d="M4.16029 11.0016C4.16029 10.3265 4.27357 9.67395 4.47985 9.06044V6.44531H1.08628C0.391106 7.81565 0 9.36245 0 11.0016C0 12.6408 0.392299 14.1876 1.08628 15.558L4.47985 12.9429C4.27357 12.3293 4.16029 11.6767 4.16029 11.0016Z"
          fill="#FABB05"/>
    <path id="Red 500"
          d="M10.215 4.87053C11.721 4.87053 13.0696 5.38574 14.1344 6.39247L17.0498 3.49902C15.2791 1.86101 12.9706 0.855469 10.215 0.855469C6.224 0.855469 2.76723 3.12949 1.08594 6.4434L4.47952 9.05852C5.28916 6.65422 7.54995 4.87053 10.215 4.87053Z"
          fill="#E94235"/>
  </g>
</svg>
