<svg width="40" height="40" viewBox="0 0 40 40" fill="none" xmlns="http://www.w3.org/2000/svg">
<rect width="40" height="40" rx="8" fill="white"/>
<path d="M16.4312 14.168H23.5718V25.8307H16.4312V14.168Z" fill="#FF5F00"/>
<path d="M17.1667 20.0004C17.1658 18.8773 17.4204 17.7688 17.9112 16.7587C18.4019 15.7486 19.1161 14.8634 19.9995 14.17C18.9053 13.3102 17.5913 12.7755 16.2077 12.627C14.824 12.4786 13.4265 12.7224 12.1749 13.3307C10.9233 13.9389 9.86805 14.887 9.12978 16.0667C8.39151 17.2463 8 18.6098 8 20.0014C8 21.393 8.39151 22.7565 9.12978 23.9361C9.86805 25.1157 10.9233 26.0638 12.1749 26.672C13.4265 27.2803 14.824 27.5241 16.2077 27.3757C17.5913 27.2273 18.9053 26.6926 19.9995 25.8327C19.1158 25.1391 18.4015 24.2536 17.9107 23.2431C17.4199 22.2326 17.1655 21.1237 17.1667 20.0003V20.0004Z" fill="#EB001B"/>
<path d="M31.2913 24.5965V24.3576H31.3943V24.3081H31.1492V24.3576H31.246V24.5966L31.2913 24.5965ZM31.7672 24.5965V24.3081H31.693L31.6065 24.5141L31.52 24.3081H31.4458V24.5965H31.4994V24.3782L31.5797 24.5657H31.6354L31.7157 24.3782V24.5965H31.7672Z" fill="#F79E1B"/>
<path d="M32 20.0004C32 21.3921 31.6084 22.7557 30.87 23.9353C30.1316 25.115 29.0761 26.0631 27.8244 26.6712C26.5726 27.2794 25.1749 27.5231 23.7912 27.3744C22.4075 27.2258 21.0935 26.6908 19.9994 25.8306C20.8825 25.1367 21.5964 24.2512 22.0873 23.241C22.5782 22.2309 22.8332 21.1224 22.8332 19.9993C22.8332 18.8762 22.5782 17.7677 22.0873 16.7576C21.5964 15.7474 20.8825 14.862 19.9994 14.168C21.0935 13.3078 22.4075 12.7729 23.7912 12.6242C25.1749 12.4756 26.5726 12.7193 27.8244 13.3274C29.0762 13.9356 30.1316 14.8837 30.87 16.0633C31.6084 17.243 32 18.6066 32 19.9983V20.0004Z" fill="#F79E1B"/>
</svg>
