<svg width="40" height="40" viewBox="0 0 40 40" fill="none" xmlns="http://www.w3.org/2000/svg">
<rect width="40" height="40" rx="8" fill="white"/>
<mask id="mask0_9654_361" style="mask-type:luminance" maskUnits="userSpaceOnUse" x="8" y="16" width="24" height="8">
<path d="M20.4122 18.6025C20.3985 19.6821 21.3743 20.2846 22.1094 20.6428C22.8647 21.0103 23.1184 21.246 23.1155 21.5746C23.1097 22.0776 22.513 22.2996 21.9545 22.3082C20.9801 22.3234 20.4137 22.0452 19.9632 21.8348L19.6123 23.4772C20.0641 23.6855 20.9008 23.8671 21.7685 23.875C23.8052 23.875 25.1377 22.8697 25.1449 21.3108C25.1528 19.3326 22.4085 19.223 22.4272 18.3388C22.4337 18.0707 22.6896 17.7846 23.2503 17.7118C23.5277 17.675 24.2938 17.6469 25.1622 18.0469L25.5031 16.4578C25.0361 16.2877 24.4358 16.1248 23.6884 16.1248C21.7714 16.1248 20.423 17.1439 20.4122 18.6025ZM28.7786 16.2618C28.4067 16.2618 28.0932 16.4787 27.9534 16.8116L25.044 23.7583H27.0792L27.4842 22.639H29.9713L30.2062 23.7583H32L30.4347 16.2618H28.7786ZM29.0632 18.2869L29.6506 21.1018H28.042L29.0632 18.2869ZM17.9446 16.2618L16.3404 23.7583H18.2797L19.8833 16.2618H17.9446ZM15.0756 16.2618L13.057 21.3642L12.2405 17.0257C12.1446 16.5414 11.7663 16.2618 11.3461 16.2618H8.04613L8 16.4794C8.67744 16.6264 9.44712 16.8635 9.9134 17.1172C10.1988 17.2722 10.2802 17.4076 10.3739 17.7759L11.9205 23.7583H13.9701L17.1122 16.2618H15.0756Z" fill="white"/>
</mask>
<g mask="url(#mask0_9654_361)">
<path d="M5.48676 17.0503L29.1339 8.34165L34.5135 22.9495L10.8666 31.6582" fill="url(#paint0_linear_9654_361)"/>
</g>
<defs>
<linearGradient id="paint0_linear_9654_361" x1="10.174" y1="23.6393" x2="30.4009" y2="16.1901" gradientUnits="userSpaceOnUse">
<stop stop-color="#222357"/>
<stop offset="1" stop-color="#254AA5"/>
</linearGradient>
</defs>
</svg>
