<svg width="375" height="440" viewBox="0 0 375 440" fill="none" xmlns="http://www.w3.org/2000/svg">
<path d="M375 0H0V440H375V0Z" fill="#89C764"/>
<path d="M100.16 426.84L227.35 407.07C299.13 395.91 348.45 328.43 337.29 256.65L325.98 183.86C321.18 152.97 305.35 124.66 281.41 104.15C257.47 83.64 227.07 72.35 195.8 72.35C189.07 72.35 182.26 72.88 175.57 73.91L48.38 93.68C30.96 96.39 14.6 102.41 0 111.32V112.5C14.62 103.49 31.04 97.39 48.52 94.67L175.71 74.9C182.35 73.87 189.11 73.35 195.79 73.35C226.82 73.35 256.99 84.56 280.75 104.91C304.51 125.26 320.22 153.36 324.98 184.02L336.29 256.81C347.36 328.04 298.42 395.01 227.19 406.08L100 425.85C93.36 426.88 86.61 427.4 79.92 427.4C51.05 427.4 22.92 417.69 0 399.94V401.2C22.98 418.79 51.08 428.41 79.93 428.41C86.67 428.41 93.47 427.88 100.16 426.85V426.84Z" fill="white"/>
<path d="M2.46004 233.78L13.89 307.29C18.86 339.26 47 363.37 79.36 363.37C82.75 363.37 86.17 363.11 89.53 362.58L217.97 342.62C254.07 337.01 278.87 303.07 273.26 266.98L261.83 193.47C256.86 161.5 228.72 137.39 196.36 137.39C192.97 137.39 189.55 137.65 186.19 138.18L57.75 158.14C40.27 160.86 24.89 170.23 14.45 184.52C4.01004 198.81 -0.249957 216.31 2.47004 233.78H2.46004ZM15.25 185.11C25.54 171.03 40.69 161.81 57.9 159.13L186.34 139.17C189.65 138.66 193.03 138.4 196.36 138.4C228.23 138.4 255.95 162.15 260.84 193.63L272.27 267.14C277.8 302.69 253.37 336.11 217.82 341.64L89.38 361.6C86.07 362.11 82.7 362.37 79.36 362.37C47.49 362.37 19.77 338.62 14.88 307.14L3.45004 233.62C0.770043 216.41 4.97004 199.17 15.25 185.1V185.11Z" fill="white"/>
<path d="M49.27 300.8C51.67 316.25 65.27 327.89 80.9 327.89C82.54 327.89 84.19 327.76 85.81 327.51L210.86 308.07C228.3 305.36 240.28 288.96 237.57 271.52L226.44 199.94C224.04 184.49 210.44 172.85 194.81 172.85C193.17 172.85 191.52 172.98 189.9 173.23L64.84 192.67C56.4 193.98 48.97 198.51 43.92 205.42C38.87 212.33 36.82 220.78 38.13 229.22L49.26 300.8H49.27ZM44.74 206.01C49.63 199.32 56.83 194.93 65 193.66L190.06 174.22C191.63 173.98 193.23 173.85 194.82 173.85C209.97 173.85 223.14 185.13 225.46 200.1L236.59 271.68C239.22 288.58 227.61 304.46 210.71 307.09L85.66 326.53C84.09 326.77 82.48 326.9 80.9 326.9C65.75 326.9 52.58 315.62 50.26 300.65L39.13 229.07C37.86 220.89 39.85 212.71 44.74 206.01Z" fill="white"/>
<path d="M64.1 299.12C65.3 306.85 72.1 312.67 79.93 312.67C80.75 312.67 81.58 312.61 82.39 312.48L209.58 292.71C218.3 291.35 224.3 283.15 222.94 274.43L211.62 201.63C210.42 193.9 203.62 188.08 195.79 188.08C194.97 188.08 194.14 188.14 193.33 188.27L66.14 208.04C61.92 208.7 58.2 210.96 55.68 214.42C53.15 217.88 52.12 222.1 52.78 226.32L64.1 299.12ZM56.49 215.01C58.86 211.77 62.34 209.64 66.3 209.03L193.49 189.26C194.25 189.14 195.02 189.08 195.79 189.08C203.12 189.08 209.5 194.54 210.63 201.79L221.95 274.59C223.22 282.77 217.6 290.46 209.42 291.73L82.23 311.5C81.47 311.62 80.7 311.68 79.93 311.68C72.6 311.68 66.22 306.22 65.09 298.97L53.77 226.17C53.16 222.21 54.12 218.25 56.49 215.01Z" fill="white"/>
<path d="M375 26.68C374.44 26.74 373.88 26.81 373.31 26.9C359.64 29.23 350.42 42.23 352.74 55.92C352.87 56.67 365.39 131.56 356.04 187.06C355.92 187.76 355.96 188.45 355.9 189.14L354.96 189.16C354.8 115.5 317.16 22.99 315.48 18.9C310.2 6.06003 295.48 -0.149974 282.67 5.20003C269.82 10.47 263.69 25.17 268.96 38.01C269.34 38.92 305.14 127.01 304.69 190.43L303.79 190.45C285.41 108.04 240.91 37.89 239.21 34.55C232.91 22.17 217.78 17.25 205.39 23.54C193.01 29.84 188.08 44.98 194.38 57.36C194.58 57.76 245.09 147.47 262.81 203.71C263.01 204.34 262.15 204.88 261.75 204.36C246.3 184.61 212.93 147.77 159.51 163.91L119.93 175.94C106.59 179.82 98.91 193.77 102.79 207.11C106.63 220.35 120.4 228 133.64 224.34L133.96 224.25L173.91 212.26C173.98 212.24 174.05 212.22 174.12 212.2C194.86 206.46 220.58 217.84 233.89 240.43C239.93 250.68 244.63 286.34 207.9 288.43C172.13 290.47 145.27 292.1 138.97 291.64C125.13 290.45 112.95 300.7 111.76 314.55C110.57 328.39 120.82 340.57 134.67 341.76C140.35 342.25 169.96 341.98 188.12 340.03C218.37 337.55 251.34 353.08 287.8 361.96C288.9 383.72 289.95 412.55 289.63 439.97H375.02V26.68H375Z" fill="white"/>
<path d="M285.88 61.61L285.82 60.61C285.92 60.61 296.41 59.93 308.85 53.6L309.3 54.49C296.66 60.93 285.98 61.61 285.88 61.61Z" fill="#89C764"/>
<path d="M301.06 119.16C300.82 119.16 300.7 119.16 300.68 119.16L300.71 118.16C300.81 118.17 311.32 118.45 324.28 113.27L324.65 114.2C312.87 118.91 303.06 119.17 301.05 119.17L301.06 119.16Z" fill="#89C764"/>
<path d="M218.1 88.09L217.87 87.12C217.97 87.1 228.18 84.59 239.31 76.17L239.91 76.97C228.6 85.52 218.2 88.07 218.1 88.09Z" fill="#89C764"/>
<path d="M243.07 144.17L242.84 143.2C242.94 143.18 253.15 140.67 264.28 132.25L264.88 133.05C253.57 141.6 243.17 144.15 243.07 144.17Z" fill="#89C764"/>
<path d="M310.5 365.53C297.35 365.53 284.96 362.71 284.79 362.67L285.02 361.7C285.24 361.75 307.13 366.73 323.45 363.37L323.65 364.35C319.47 365.21 314.94 365.53 310.5 365.53Z" fill="#89C764"/>
<path d="M345.97 414.74L344.97 414.7C345.51 400.44 343.63 379 343.61 378.78L344.61 378.69C344.63 378.9 346.52 400.41 345.98 414.73L345.97 414.74Z" fill="#89C764"/>
<path d="M294.92 194.22C257.65 202.84 238.14 229.35 237.94 229.61L238.75 230.2C238.94 229.94 258.25 203.72 295.14 195.2C334.11 186.19 366.86 192.76 374.99 194.7V193.67C366.39 191.65 333.72 185.25 294.91 194.22H294.92Z" fill="#89C764"/>
<path d="M280.1 248.51L280.39 249.47C280.9 249.32 326.65 236.08 375 252.02V250.97C326.45 235.08 280.61 248.36 280.1 248.51Z" fill="#89C764"/>
<path d="M363.38 76.58L363.18 77.56C363.24 77.57 366.89 78.3 372.7 78.3C373.43 78.3 374.21 78.28 375.01 78.26V77.26C367.99 77.49 363.45 76.59 363.39 76.58H363.38Z" fill="#89C764"/>
<path d="M365.93 127.85C365.99 127.86 369.44 128.67 375 128.89V127.89C369.58 127.68 366.22 126.89 366.16 126.88L365.93 127.85Z" fill="#89C764"/>
<path d="M207.16 284.88L79.97 304.65C76.31 305.22 72.86 302.69 72.29 299.04L60.97 226.24C60.7 224.53 61.36 222.21 63.17 219.91C64.3 218.47 64.64 218.86 66.59 218.56L193.78 198.79C197.44 198.22 200.89 200.75 201.46 204.4L212.78 277.2C213.06 279.03 213.28 279.54 212.41 281.03C211.63 282.36 209.76 284.48 207.17 284.88H207.16Z" fill="#8A9AA7"/>
<path d="M194.78 197.427L67.5984 217.207C63.9257 217.778 61.4114 221.218 61.9826 224.891L73.3039 297.686C73.8751 301.359 77.3155 303.873 80.9882 303.302L208.169 283.522C211.842 282.951 214.356 279.511 213.785 275.838L202.464 203.043C201.893 199.37 198.452 196.856 194.78 197.427Z" fill="#CDCECF"/>
<path d="M204.12 260.94L201.26 261.38L199.31 248.89L198.79 248.97L200.73 261.47L191.65 262.88L189.71 250.38L189.18 250.47L191.13 262.96L182.05 264.37L180.11 251.88L179.58 251.96L181.52 264.45L172.45 265.86L170.51 253.37L169.98 253.45L171.92 265.94L169.05 266.39L169.14 266.92L172 266.47L173.95 278.96L174.47 278.88L172.53 266.39L181.61 264.98L183.55 277.47L184.08 277.39L182.13 264.9L191.21 263.49L193.15 275.98L193.68 275.9L191.73 263.4L200.81 261.99L202.75 274.49L203.28 274.4L201.34 261.91L204.2 261.46L204.12 260.94Z" fill="#758089"/>
<path d="M187.42 268.01L185.47 268.31L186.4 274.29L186.93 274.21L186.58 271.96L188.01 271.74C189.04 271.58 189.74 270.61 189.58 269.59C189.42 268.57 188.45 267.85 187.43 268.01H187.42ZM187.92 271.21L186.49 271.43L186.07 268.75L187.5 268.53C188.24 268.42 188.93 268.92 189.04 269.66C189.15 270.4 188.65 271.09 187.91 271.21H187.92Z" fill="#758089"/>
<path d="M194 256.19L195.43 255.97C196.46 255.81 197.16 254.84 197 253.82C196.84 252.8 195.87 252.08 194.85 252.24L192.9 252.54L193.83 258.52L194.36 258.44L194.01 256.19H194ZM193.5 252.99L194.93 252.77C195.67 252.66 196.36 253.16 196.47 253.9C196.58 254.64 196.08 255.33 195.34 255.45L193.91 255.67L193.49 252.99H193.5Z" fill="#758089"/>
<path d="M176.21 263.3L177.16 263.15C178.56 262.93 179.32 262.08 179.14 260.93L178.25 255.19C178.03 253.8 176.73 252.85 175.34 253.06L174.88 253.13C173.49 253.35 172.54 254.65 172.76 256.04L173.65 261.78C173.83 262.93 174.81 263.51 176.21 263.3ZM173.28 255.96C173.11 254.86 173.86 253.83 174.96 253.66L175.42 253.59C176.52 253.42 177.55 254.18 177.72 255.27L178.61 261.01C178.8 262.22 177.6 262.54 177.07 262.62L176.12 262.77C175.6 262.85 174.36 262.91 174.17 261.7L173.28 255.96Z" fill="#758089"/>
<path d="M175.61 256.32C176.35 256.2 176.72 256.37 176.72 256.38L176.84 256.14L176.96 255.9C176.91 255.87 176.44 255.65 175.53 255.79C174.73 255.91 174.24 256.33 174.22 256.35L174.57 256.75C174.57 256.75 174.97 256.41 175.62 256.31L175.61 256.32Z" fill="#758089"/>
<path d="M177.206 259.933L175.229 260.24L175.311 260.764L177.287 260.457L177.206 259.933Z" fill="#758089"/>
<path d="M186.06 261.77L186.52 261.7C187.91 261.48 188.86 260.18 188.64 258.79L187.75 253.05C187.57 251.9 186.59 251.32 185.19 251.53L184.24 251.68C182.84 251.9 182.08 252.75 182.26 253.9L183.15 259.64C183.37 261.03 184.67 261.98 186.06 261.77ZM182.79 253.82C182.6 252.61 183.8 252.29 184.33 252.21L185.28 252.06C185.8 251.98 187.04 251.92 187.23 253.13L188.12 258.87C188.29 259.97 187.54 261 186.44 261.17L185.98 261.24C184.88 261.41 183.85 260.65 183.68 259.56L182.79 253.82Z" fill="#758089"/>
<path d="M187.18 258.48L186.83 258.08C186.83 258.08 186.43 258.42 185.78 258.52C185.04 258.64 184.67 258.46 184.67 258.46L184.43 258.93C184.48 258.96 184.95 259.18 185.86 259.04C186.66 258.92 187.15 258.5 187.17 258.48H187.18Z" fill="#758089"/>
<path d="M186.123 254.032L184.147 254.339L184.228 254.863L186.204 254.556L186.123 254.032Z" fill="#758089"/>
<path d="M196.8 264.56L196.34 264.63C194.95 264.85 194 266.15 194.22 267.54L195.11 273.28C195.29 274.43 196.27 275.01 197.67 274.8L198.62 274.65C200.02 274.43 200.78 273.58 200.6 272.43L199.71 266.69C199.49 265.3 198.19 264.35 196.8 264.56ZM200.07 272.51C200.26 273.72 199.06 274.04 198.53 274.12L197.58 274.27C197.06 274.35 195.82 274.41 195.63 273.2L194.74 267.46C194.57 266.36 195.32 265.33 196.42 265.16L196.88 265.09C197.98 264.92 199.01 265.68 199.18 266.77L200.07 272.51Z" fill="#758089"/>
<path d="M195.68 267.86L196.03 268.26C196.03 268.26 196.43 267.92 197.08 267.82C197.82 267.7 198.19 267.88 198.19 267.88L198.43 267.41C198.38 267.38 197.91 267.16 197 267.3C196.2 267.42 195.71 267.84 195.69 267.86H195.68Z" fill="#758089"/>
<path d="M198.668 271.428L196.692 271.736L196.773 272.259L198.749 271.952L198.668 271.428Z" fill="#758089"/>
<path d="M177.84 267.51L176.89 267.66C175.49 267.88 174.73 268.73 174.91 269.88L175.8 275.62C176.02 277.01 177.32 277.96 178.71 277.75L179.17 277.68C180.56 277.46 181.51 276.16 181.29 274.77L180.4 269.03C180.22 267.88 179.24 267.3 177.84 267.51ZM180.77 274.85C180.94 275.95 180.19 276.98 179.09 277.15L178.63 277.22C177.53 277.39 176.5 276.63 176.33 275.54L175.44 269.8C175.25 268.59 176.45 268.27 176.98 268.19L177.93 268.04C178.45 267.96 179.69 267.9 179.88 269.11L180.77 274.85Z" fill="#758089"/>
<path d="M178.44 274.49C177.7 274.61 177.33 274.43 177.33 274.43L177.09 274.9C177.14 274.93 177.61 275.15 178.52 275.01C179.32 274.89 179.81 274.47 179.83 274.45L179.48 274.05C179.48 274.05 179.08 274.39 178.43 274.49H178.44Z" fill="#758089"/>
<path d="M178.776 270.012L176.8 270.319L176.881 270.843L178.857 270.536L178.776 270.012Z" fill="#758089"/>
<g opacity="0.6">
<path d="M131.71 295.42L96.74 300.85L122.35 208.7L157.32 203.27L131.71 295.42Z" fill="#DFDFDF"/>
</g>
<g opacity="0.6">
<path d="M150.71 292.47L138.16 294.42L163.77 202.26L176.31 200.31L150.71 292.47Z" fill="#DFDFDF"/>
</g>
<path d="M78.23 228.92C79.51 228.77 80.45 229.35 80.61 230.33C80.82 231.71 80.01 232.7 78.58 232.92L73.62 233.69L72.4 225.85L76.87 225.15C78.49 224.9 79.53 225.53 79.73 226.77C79.88 227.72 79.32 228.59 78.23 228.88V228.91V228.92ZM74.89 228.61L77.15 228.26C77.59 228.19 77.77 227.92 77.7 227.46C77.64 227.07 77.29 226.92 76.85 226.99L74.69 227.33L74.89 228.62V228.61ZM78.43 230.39C78.37 229.97 78.05 229.81 77.5 229.89L75.15 230.26L75.36 231.58L77.77 231.2C78.29 231.12 78.51 230.84 78.44 230.39H78.43Z" fill="#192548"/>
<path d="M80.9199 228.56C80.5299 226.06 82.2299 224.2 84.8599 223.79C87.5199 223.38 89.6699 224.66 90.0499 227.14C90.4399 229.62 88.7399 231.45 86.1099 231.86C83.4499 232.27 81.2999 231.01 80.9199 228.56ZM87.9199 227.45C87.6499 225.73 86.8499 225.39 85.1499 225.66C83.4499 225.92 82.7799 226.49 83.0499 228.21C83.3299 230 84.1299 230.27 85.8299 230C87.5299 229.74 88.1599 228.98 87.9199 227.45Z" fill="#192548"/>
<path d="M90.64 223.01L93.38 222.58L96.94 226.35L97.66 227.14H97.7L97.55 226.27L96.89 222.02L98.93 221.7L100.15 229.54L97.52 229.95L93.87 226.04L93.09 225.19H93.05L93.21 226.15L93.89 230.52L91.85 230.84L90.63 223L90.64 223.01Z" fill="#192548"/>
<path d="M108.66 220.21L109.36 224.71C109.71 226.95 108.38 228.4 105.84 228.79C103.27 229.19 101.58 228.23 101.23 225.97L100.53 221.47L102.58 221.15L103.3 225.81C103.49 227.03 104.15 227.15 105.55 226.93C106.98 226.71 107.53 226.38 107.34 225.18L106.62 220.52L108.66 220.2V220.21Z" fill="#192548"/>
<path d="M110.59 225.54L112.55 224.71C112.84 225.64 113.55 225.83 114.63 225.66C115.6 225.51 116.1 225.28 116.02 224.8C115.95 224.43 115.66 224.39 114.68 224.38L113.03 224.36C111.65 224.34 110.5 223.66 110.26 222.32C109.99 220.72 111.46 219.65 113.29 219.37C115.53 219.02 116.82 219.61 117.28 221.14L115.47 221.96C115.22 221.01 114.6 220.97 113.57 221.13C112.66 221.27 112.25 221.54 112.31 221.95C112.39 222.39 112.73 222.41 113.79 222.41H115.23C116.64 222.41 117.8 223.04 118 224.22C118.31 225.96 116.85 227.08 114.88 227.39C112.72 227.73 111.15 227.16 110.59 225.54Z" fill="#192548"/>
<path d="M118.41 222.73C118.02 220.23 119.72 218.37 122.35 217.96C125.01 217.55 127.16 218.83 127.54 221.31C127.93 223.79 126.23 225.62 123.6 226.03C120.94 226.44 118.79 225.18 118.41 222.73ZM125.41 221.62C125.14 219.9 124.34 219.56 122.64 219.83C120.94 220.09 120.27 220.66 120.54 222.38C120.82 224.17 121.62 224.44 123.32 224.17C125.02 223.91 125.65 223.15 125.41 221.62Z" fill="#192548"/>
<path d="M135.7 216.01L133.77 224.34L131.18 224.74L126.78 217.39L129.13 217.02L131.31 220.88L132.07 222.29H132.14L132.44 220.72L133.35 216.37L135.7 216V216.01Z" fill="#192548"/>
<path d="M137.99 215.65L140.82 215.21L145.15 222.57L143.01 222.9L142.19 221.44L138.56 222L138.21 223.64L136.07 223.97L137.99 215.64V215.65ZM139.66 214.77L138.67 214.92L138.9 212.76L141.59 212.34L139.66 214.76V214.77ZM141.24 219.76L140.47 218.4L139.69 217H139.62L139.3 218.59L138.98 220.12L141.24 219.77V219.76Z" fill="#192548"/>
<path d="M83.85 249.12C84.12 250.87 83.34 252.02 81.52 252.3C80.43 252.47 79.5 252.03 78.97 251.08H78.95L79.49 254.46L78.62 254.6L77.5 247.41L78.23 247.3L78.6 248.73H78.62C78.83 247.67 79.62 246.97 80.73 246.79C82.52 246.51 83.58 247.37 83.86 249.13L83.85 249.12ZM82.98 249.26C82.78 247.96 82 247.42 80.56 247.64C79.23 247.85 78.56 248.66 78.76 249.92C78.96 251.19 79.86 251.75 81.17 251.54C82.61 251.32 83.19 250.56 82.98 249.26Z" fill="#192548"/>
<path d="M89.85 247.35L90.39 250.81L89.65 250.92L89.32 249.52H89.3C89.12 250.55 88.32 251.25 87.21 251.42C85.98 251.61 85.13 251.18 84.99 250.3C84.8 249.09 85.69 248.74 88.04 247.99L89.04 247.67L89 247.45C88.85 246.65 88.21 246.35 87.19 246.5C86.09 246.67 85.69 247.16 85.72 248.04L84.95 247.97C84.87 246.73 85.73 246 87.09 245.79C88.52 245.57 89.65 246.05 89.86 247.35H89.85ZM89.11 248.19L88.11 248.51C86.69 248.97 85.71 249.25 85.84 250.09C85.93 250.65 86.46 250.89 87.34 250.75C88.47 250.57 89.34 249.52 89.1 248.19H89.11Z" fill="#192548"/>
<path d="M96.14 246.37L96.68 249.83L95.94 249.95L95.61 248.55H95.59C95.41 249.58 94.61 250.28 93.5 250.45C92.27 250.64 91.42 250.21 91.28 249.33C91.09 248.12 91.98 247.77 94.33 247.02L95.33 246.7L95.3 246.48C95.15 245.68 94.51 245.38 93.49 245.53C92.39 245.7 91.99 246.19 92.02 247.07L91.25 247.01C91.17 245.77 92.03 245.04 93.39 244.83C94.82 244.61 95.95 245.08 96.16 246.38L96.14 246.37ZM95.4 247.21L94.4 247.53C92.98 247.99 92 248.27 92.13 249.11C92.22 249.67 92.75 249.91 93.63 249.77C94.76 249.59 95.63 248.54 95.39 247.21H95.4Z" fill="#192548"/>
<path d="M97.53 248.17L98.32 247.84C98.59 248.59 99.22 248.87 100.28 248.71C101.21 248.57 101.68 248.19 101.59 247.62C101.51 247.15 101.09 246.97 100.15 246.95L98.99 246.92C97.99 246.92 97.43 246.5 97.29 245.74C97.13 244.79 97.85 244.13 99.28 243.91C100.69 243.69 101.57 244.16 102 245.22L101.21 245.53C100.94 244.72 100.31 244.4 99.41 244.53C98.53 244.67 98.08 245.04 98.16 245.57C98.23 245.97 98.54 246.19 99.21 246.2L100.51 246.22C101.67 246.23 102.3 246.6 102.45 247.4C102.62 248.44 101.84 249.16 100.33 249.39C98.97 249.6 97.89 249.18 97.54 248.17H97.53Z" fill="#192548"/>
<path d="M111.38 244.84L110.47 244.98L110.88 247.62L110.03 247.75L108.81 239.91L109.66 239.78L110.35 244.2L111.26 244.06L113.08 241.86L114.23 241.68L112.01 244.39L115.21 246.94L114.21 247.09L111.38 244.82V244.84Z" fill="#192548"/>
<path d="M120.55 242.58L121.09 246.04L120.35 246.16L120.02 244.76H120C119.82 245.79 119.02 246.49 117.91 246.66C116.68 246.85 115.83 246.42 115.69 245.54C115.5 244.33 116.39 243.97 118.74 243.23L119.74 242.91L119.7 242.69C119.55 241.89 118.91 241.59 117.89 241.74C116.79 241.91 116.39 242.4 116.42 243.28L115.65 243.22C115.57 241.98 116.43 241.25 117.79 241.04C119.22 240.82 120.35 241.29 120.56 242.59L120.55 242.58ZM119.81 243.42L118.81 243.74C117.39 244.2 116.41 244.48 116.54 245.32C116.63 245.88 117.16 246.12 118.04 245.98C119.17 245.8 120.04 244.75 119.8 243.42H119.81Z" fill="#192548"/>
<path d="M121.89 240.5L122.62 240.39L122.99 241.8H123C123.2 240.48 124.2 239.95 125.51 239.91V240.76C124.16 240.76 122.98 241.72 123.23 243.34L123.59 245.66L122.72 245.8L121.9 240.51L121.89 240.5Z" fill="#192548"/>
<path d="M129.28 240.15L128.61 240.24L129.19 243.95L129.23 243.97L130.98 243.7L131.1 244.48L129.5 244.73C128.82 244.84 128.39 244.5 128.28 243.84L127.74 240.38L127.07 240.5L126.33 240.62L126.21 239.83L126.95 239.71L127.62 239.62L127.55 237.86L128.22 237.76L128.49 239.49L129.16 239.37L130.43 239.17L130.55 239.96L129.28 240.16V240.15Z" fill="#192548"/>
<path d="M136.74 240.06L137.28 243.52L136.54 243.64L136.21 242.24H136.19C136.01 243.27 135.21 243.97 134.1 244.14C132.87 244.33 132.02 243.9 131.88 243.02C131.69 241.81 132.58 241.45 134.93 240.71L135.93 240.39L135.9 240.17C135.75 239.37 135.11 239.07 134.09 239.22C132.99 239.39 132.59 239.88 132.62 240.76L131.85 240.7C131.77 239.46 132.63 238.73 133.99 238.52C135.42 238.3 136.55 238.77 136.76 240.07L136.74 240.06ZM136 240.9L135 241.22C133.58 241.68 132.6 241.96 132.73 242.8C132.82 243.36 133.35 243.6 134.23 243.46C135.36 243.28 136.23 242.23 135.99 240.9H136Z" fill="#192548"/>
<path d="M102.333 238.718L75.0806 242.957L75.2404 243.984L102.493 239.746L102.333 238.718Z" fill="#192548"/>
<path d="M104.654 253.674L77.402 257.912L77.5618 258.94L104.814 254.702L104.654 253.674Z" fill="#192548"/>
<path d="M49.59 222.84H48.84C48.84 213.12 40.93 205.22 31.22 205.22V204.47C40.94 204.47 48.84 196.56 48.84 186.85H49.59C49.59 196.57 57.5 204.47 67.21 204.47V205.22C57.49 205.22 49.59 213.13 49.59 222.84ZM34.92 204.84C42.09 206.31 47.74 211.97 49.22 219.14C50.69 211.97 56.35 206.32 63.52 204.84C56.35 203.37 50.7 197.71 49.22 190.54C47.75 197.71 42.09 203.36 34.92 204.84Z" fill="#192548"/>
<path d="M208.63 306.04C201.93 299 190.75 298.72 183.71 305.42L183.19 304.88C186.6 301.63 188.55 297.25 188.67 292.55C188.79 287.85 187.06 283.38 183.82 279.96L184.36 279.44C191.06 286.48 202.24 286.76 209.28 280.06L209.8 280.6C202.76 287.3 202.48 298.48 209.18 305.52L208.64 306.04H208.63ZM195.86 299.82C199.54 299.82 203.22 300.92 206.35 303.1C202.48 296.9 202.68 288.9 206.85 282.9C203.83 284.79 200.31 285.77 196.68 285.67C193.04 285.58 189.59 284.44 186.67 282.4C188.56 285.42 189.52 288.93 189.43 292.57C189.34 296.21 188.2 299.67 186.16 302.59C189.13 300.74 192.5 299.82 195.87 299.82H195.86Z" fill="#192548"/>
<path d="M214.06 241.18C212.23 239.35 209.8 238.34 207.21 238.34C204.62 238.34 202.19 239.35 200.36 241.18L199.83 240.65C201.66 238.82 202.67 236.39 202.67 233.8C202.67 231.21 201.66 228.78 199.83 226.95L200.36 226.42C204.14 230.2 210.28 230.2 214.06 226.42L214.59 226.95C212.76 228.78 211.75 231.21 211.75 233.8C211.75 236.39 212.76 238.82 214.59 240.65L214.06 241.18ZM207.21 237.59C209.04 237.59 210.8 238.06 212.35 238.94C211.47 237.39 211 235.63 211 233.8C211 231.97 211.47 230.21 212.35 228.65C209.17 230.45 205.24 230.45 202.06 228.65C202.94 230.2 203.41 231.96 203.41 233.8C203.41 235.64 202.94 237.39 202.06 238.94C203.61 238.06 205.37 237.59 207.2 237.59H207.21Z" fill="#192548"/>
<path d="M41.83 238.89C40 237.06 37.57 236.05 34.98 236.05C32.39 236.05 29.96 237.06 28.13 238.89L27.6 238.36C29.43 236.53 30.44 234.1 30.44 231.51C30.44 228.92 29.43 226.49 27.6 224.66L28.13 224.13C31.91 227.91 38.05 227.91 41.83 224.13L42.36 224.66C40.53 226.49 39.52 228.92 39.52 231.51C39.52 234.1 40.53 236.53 42.36 238.36L41.83 238.89ZM34.98 235.3C36.81 235.3 38.57 235.77 40.12 236.65C39.24 235.1 38.77 233.34 38.77 231.51C38.77 229.68 39.24 227.92 40.12 226.36C36.94 228.16 33.01 228.16 29.83 226.36C30.71 227.91 31.18 229.67 31.18 231.51C31.18 233.35 30.71 235.1 29.83 236.65C31.38 235.77 33.14 235.3 34.97 235.3H34.98Z" fill="#192548"/>
<path d="M89.14 322.8H88.39C88.39 319.58 85.77 316.96 82.55 316.96V316.21C85.77 316.21 88.39 313.59 88.39 310.37H89.14C89.14 313.59 91.76 316.21 94.98 316.21V316.96C91.76 316.96 89.14 319.58 89.14 322.8ZM84.74 316.58C86.61 317.24 88.1 318.73 88.76 320.6C89.42 318.73 90.91 317.24 92.78 316.58C90.91 315.92 89.42 314.43 88.76 312.56C88.1 314.43 86.61 315.92 84.74 316.58Z" fill="#192548"/>
<path d="M163.83 318.89H163.08C163.08 315.67 160.46 313.05 157.24 313.05V312.3C160.46 312.3 163.08 309.68 163.08 306.46H163.83C163.83 309.68 166.45 312.3 169.67 312.3V313.05C166.45 313.05 163.83 315.67 163.83 318.89ZM159.43 312.67C161.3 313.33 162.79 314.82 163.45 316.69C164.11 314.82 165.6 313.33 167.47 312.67C165.6 312.01 164.11 310.52 163.45 308.65C162.79 310.52 161.3 312.01 159.43 312.67Z" fill="#192548"/>
<path d="M102.16 156.94H101.41C101.41 153.72 98.7899 151.1 95.5699 151.1V150.35C98.7899 150.35 101.41 147.73 101.41 144.51H102.16C102.16 147.73 104.78 150.35 108 150.35V151.1C104.78 151.1 102.16 153.72 102.16 156.94ZM97.7599 150.72C99.6299 151.38 101.12 152.87 101.78 154.74C102.44 152.87 103.93 151.38 105.8 150.72C103.93 150.06 102.44 148.57 101.78 146.7C101.12 148.57 99.6299 150.06 97.7599 150.72Z" fill="#192548"/>
</svg>
