<svg width="375" height="375" viewBox="0 0 375 375" fill="none" xmlns="http://www.w3.org/2000/svg">
<g clip-path="url(#clip0_8503_14571)">
<path d="M64.2246 51.0934L167.279 30.8189C178.426 28.626 189.264 35.9007 191.457 47.047L243.074 309.418C245.267 320.564 237.992 331.402 226.846 333.595L123.792 353.87C112.312 356.128 101.156 348.641 98.898 337.161L47.5176 75.9969C45.2591 64.5169 52.7466 53.3618 64.2265 51.1032L64.2246 51.0934Z" fill="#16254C"/>
<path d="M179.415 28.4355L79.8046 48.0325C66.501 50.6497 57.838 63.5562 60.4553 76.8597L110.544 331.459C113.162 344.763 126.068 353.426 139.372 350.809L238.982 331.212C252.286 328.594 260.949 315.688 258.331 302.384L208.242 47.7847C205.625 34.4811 192.719 25.8182 179.415 28.4355Z" fill="#3472AF"/>
<path d="M137.8 342.65C129.01 344.38 120.46 338.64 118.73 329.85L68.6202 75.2499C66.8902 66.4599 72.6302 57.9099 81.4202 56.1799L110.05 50.5399L110.21 51.3599C110.93 55.0299 114.5 57.4199 118.17 56.6999L152.05 50.0299C155.72 49.3099 158.11 45.7399 157.39 42.0699L157.23 41.2499L181.02 36.5699C189.81 34.8399 198.36 40.5799 200.09 49.3699L250.2 303.97C251.93 312.76 246.19 321.31 237.4 323.04L137.79 342.65H137.8Z" fill="white"/>
<path d="M134.64 343.45C131.35 343.45 128.14 342.48 125.34 340.6C121.62 338.11 119.1 334.32 118.24 329.94L68.1302 75.3401C67.2702 70.9601 68.1702 66.5001 70.6602 62.7901C73.1502 59.0701 76.9402 56.5501 81.3202 55.6901L110.44 49.9601L110.7 51.2601C111.02 52.9001 111.97 54.3201 113.36 55.2601C114.76 56.2001 116.43 56.5301 118.07 56.2101L151.95 49.5401C153.59 49.2201 155.01 48.2701 155.95 46.8701C156.89 45.4701 157.22 43.8001 156.9 42.1601L156.64 40.8601L180.92 36.0801C189.97 34.2901 198.79 40.2201 200.57 49.2701L250.68 303.87C252.46 312.93 246.55 321.74 237.49 323.52L137.88 343.13C136.8 343.34 135.7 343.45 134.62 343.45H134.64ZM109.66 51.1301L81.5202 56.6701C77.4002 57.4801 73.8402 59.8501 71.4902 63.3501C69.1402 66.8501 68.3002 71.0401 69.1102 75.1601L119.22 329.76C120.03 333.88 122.4 337.44 125.9 339.79C129.4 342.14 133.59 342.98 137.71 342.17L237.32 322.56C245.84 320.88 251.4 312.59 249.73 304.07L199.62 49.4701C197.94 40.9501 189.65 35.3901 181.13 37.0601L157.82 41.6501L157.88 41.9801C158.25 43.8801 157.86 45.8201 156.78 47.4401C155.7 49.0601 154.05 50.1501 152.15 50.5301L118.27 57.2001C116.37 57.5801 114.43 57.1801 112.81 56.1001C111.19 55.0201 110.1 53.3701 109.72 51.4701L109.66 51.1401V51.1301Z" fill="#393B56"/>
<path d="M148.424 42.4751L119.757 48.1306L119.948 49.1019L148.616 43.4464L148.424 42.4751Z" fill="#393B56"/>
<path d="M130.8 84.0699C130.52 82.6299 129.59 81.8799 128.5 82.0899C127.41 82.2999 126.82 83.3799 127.1 84.7999C127.38 86.2199 128.29 86.9999 129.42 86.7699C130.55 86.5399 131.08 85.4999 130.8 84.0699ZM124.33 81.2999L126.33 80.9099L126.41 81.3199L126.48 82.3099L126.7 82.2699C126.96 81.3599 127.66 80.5599 128.85 80.3199C130.66 79.9599 132.34 81.1899 132.83 83.6799C133.31 86.1099 132.23 87.9499 130.42 88.2999C129.23 88.5299 128.27 88.0099 127.7 87.3099L127.48 87.3499L127.81 88.3599L128.61 92.4499L126.61 92.8399L124.34 81.2899L124.33 81.2999Z" fill="#89C764"/>
<path d="M139.19 83.28L139.15 83.06C137.59 83.37 135.91 83.71 136.12 84.79C136.23 85.34 136.74 85.57 137.51 85.42C138.71 85.18 139.4 84.32 139.19 83.27M134.17 85.36C133.68 82.86 136.64 82.36 138.92 81.91L138.8 81.3C138.63 80.43 138.06 80.1 137.16 80.28C136.26 80.46 135.77 80.97 135.89 82.05L133.95 82.33C133.65 80.15 135.02 79.02 136.84 78.67C138.77 78.29 140.37 78.83 140.81 81.06L141.77 85.96L140.21 86.27L139.8 84.99L139.63 85.02C139.41 86.07 138.59 86.75 137.25 87.01C135.67 87.32 134.43 86.7 134.17 85.35" fill="#89C764"/>
<path d="M147.55 81.6399L147.51 81.4199C145.95 81.7299 144.27 82.0699 144.48 83.1499C144.59 83.6999 145.1 83.9299 145.87 83.7799C147.07 83.5399 147.76 82.6799 147.55 81.6299M142.53 83.7099C142.04 81.2099 145 80.7099 147.28 80.2599L147.16 79.6499C146.99 78.7799 146.42 78.4499 145.52 78.6299C144.61 78.8099 144.13 79.3199 144.25 80.3999L142.31 80.6799C142.01 78.4999 143.38 77.3699 145.2 77.0199C147.13 76.6399 148.73 77.1799 149.17 79.4099L150.13 84.3099L148.57 84.6199L148.16 83.3399L147.99 83.3699C147.77 84.4199 146.95 85.0999 145.61 85.3599C144.03 85.6699 142.79 85.0499 142.53 83.6999" fill="#89C764"/>
<path d="M150.87 81.7899L152.72 81.2299C153.04 81.9299 153.62 82.1899 154.64 81.9899C155.58 81.8099 156.06 81.3699 155.94 80.7799C155.87 80.4099 155.59 80.1399 154.69 80.1999L153.29 80.3099C152 80.4199 150.65 80.1299 150.36 78.6799C150.05 77.0899 151.13 75.8499 153.1 75.4699C155.13 75.0699 156.4 75.7899 156.83 77.3899L155.11 77.8599C154.89 77.1399 154.34 76.8299 153.39 77.0199C152.48 77.1999 152.11 77.6899 152.22 78.2499C152.3 78.6599 152.64 78.8299 153.36 78.7899L154.81 78.6699C156.25 78.5799 157.54 78.8599 157.83 80.3399C158.14 81.9199 157.17 83.0899 154.94 83.5299C152.76 83.9599 151.39 83.2999 150.87 81.7899Z" fill="#89C764"/>
<path d="M160.455 66.7713L117.822 75.1587L118.148 76.8169L160.781 68.4295L160.455 66.7713Z" fill="#89C764"/>
<path d="M164.71 88.461L122.077 96.8484L122.403 98.5066L165.036 90.1192L164.71 88.461Z" fill="#89C764"/>
<path d="M182.76 315.35C191.232 315.35 198.1 308.482 198.1 300.01C198.1 291.538 191.232 284.67 182.76 284.67C174.288 284.67 167.42 291.538 167.42 300.01C167.42 308.482 174.288 315.35 182.76 315.35Z" fill="#89C764"/>
<path d="M181.76 306.2L175.64 301.51L176.65 300.19L181.2 303.66L186.97 292.52L188.45 293.28L181.76 306.2Z" fill="white"/>
<path d="M283.267 109.739L136.275 138.658C132.032 139.493 129.269 143.609 130.104 147.852L146.657 231.989C147.491 236.232 151.608 238.995 155.851 238.161L302.843 209.242C307.086 208.407 309.849 204.291 309.014 200.048L292.462 115.911C291.627 111.667 287.51 108.905 283.267 109.739Z" fill="#393B56"/>
<path d="M284.346 108.131L137.354 137.05C133.111 137.885 130.348 142.001 131.183 146.244L147.736 230.381C148.57 234.624 152.687 237.387 156.93 236.552L303.922 207.634C308.165 206.799 310.928 202.683 310.093 198.44L293.541 114.302C292.706 110.059 288.589 107.296 284.346 108.131Z" fill="#3472AF"/>
<path d="M143.41 146.97L146.58 146.35L150.9 150.57L151.78 151.46H151.83L151.62 150.46L150.65 145.55L153.01 145.09L154.79 154.16L151.75 154.76L147.32 150.38L146.38 149.42H146.33L146.56 150.53L147.55 155.58L145.19 156.04L143.4 146.97H143.41Z" fill="white"/>
<path d="M157.72 144.16L161 143.51L166.39 151.87L163.92 152.36L162.89 150.7L158.69 151.53L158.36 153.45L155.89 153.94L157.73 144.16H157.72ZM159.62 143.06L158.48 143.28L158.64 140.76L161.75 140.15L159.62 143.06ZM161.69 148.79L160.73 147.24L159.76 145.64H159.68L159.38 147.5L159.07 149.3L161.69 148.78V148.79Z" fill="white"/>
<path d="M173.93 140.97L172.07 150.76L169.08 151.35L163.62 143.01L166.34 142.47L169.06 146.86L170.01 148.46L170.09 148.44L170.36 146.61L171.21 141.5L173.93 140.96V140.97Z" fill="white"/>
<path d="M175.48 147.27L177.72 146.21C178.11 147.28 178.94 147.46 180.18 147.22C181.31 147 181.87 146.71 181.76 146.15C181.66 145.73 181.32 145.69 180.18 145.72L178.25 145.78C176.64 145.83 175.27 145.09 174.93 143.54C174.54 141.69 176.21 140.38 178.32 139.97C180.91 139.46 182.43 140.09 183.05 141.84L180.98 142.88C180.64 141.79 179.93 141.77 178.74 142C177.69 142.21 177.22 142.54 177.31 143.01C177.42 143.51 177.82 143.53 179.06 143.47L180.74 143.4C182.38 143.33 183.75 144.02 184.05 145.39C184.49 147.4 182.85 148.78 180.57 149.22C178.07 149.71 176.22 149.12 175.49 147.27H175.48ZM180.63 136.43L179.37 139.17L177.39 139.56L175.18 137.5L176.53 137.24L177.91 137.84L178.09 137.94H178.13L178.26 137.77L179.29 136.69L180.64 136.43H180.63Z" fill="white"/>
<path d="M192.42 139.51L190.72 139.84L189.42 140.07L190.8 147.07L188.43 147.54L187.05 140.54L185.76 140.82L184.06 141.15L183.65 139.05L192.01 137.41L192.42 139.51Z" fill="white"/>
<path d="M196.23 138.83L196.47 140.05L200.81 139.2L201.22 141.3L196.88 142.15L197.16 143.58L201.93 142.64L202.36 144.8L195.26 146.2L193.48 137.13L200.58 135.73L201.01 137.89L196.24 138.83H196.23Z" fill="white"/>
<path d="M211.6 133.55L209.74 143.34L206.75 143.93L201.29 135.58L204.01 135.04L206.73 139.43L207.68 141.03L207.76 141.01L208.03 139.18L208.88 134.07L211.6 133.53V133.55Z" fill="white"/>
<path d="M212.52 133.37L215.69 132.75L220.01 136.97L220.89 137.86H220.94L220.73 136.85L219.76 131.94L222.12 131.48L223.9 140.55L220.86 141.15L216.43 136.77L215.49 135.81H215.44L215.67 136.92L216.66 141.97L214.3 142.43L212.52 133.36V133.37Z" fill="white"/>
<path d="M224.09 131.09L226.53 130.61L228.31 139.68L225.87 140.16L224.09 131.09ZM225.53 130.08L224.39 130.3L224.55 127.78L227.66 127.17L225.53 130.08Z" fill="white"/>
<path d="M228.8 134.9C228.23 132.01 229.92 129.81 233.19 129.16C235.86 128.64 237.91 129.58 238.8 132.07L236.52 132.99H236.49C235.87 131.33 235.44 130.95 233.62 131.31C231.44 131.74 230.87 132.4 231.26 134.39C231.66 136.41 232.47 136.76 234.6 136.34C236.45 135.98 236.68 135.43 236.63 133.72L236.65 133.7H239.11C239.23 136.34 237.65 137.97 235.02 138.49C231.95 139.09 229.36 137.75 228.8 134.9Z" fill="white"/>
<path d="M244.42 133.04L243.12 133.29L243.78 136.63L241.45 137.09L239.67 128.02L242 127.56L242.72 131.23L244.02 130.98L245.93 126.79L248.73 126.24L246.13 131.62L250.68 135.27L247.73 135.85L244.43 133.03L244.42 133.04Z" fill="white"/>
<path d="M252.6 125.48L255.88 124.83L261.27 133.19L258.8 133.68L257.77 132.02L253.57 132.85L253.23 134.77L250.76 135.26L252.6 125.48ZM256.57 130.11L255.61 128.56L254.64 126.96L254.56 126.98L254.26 128.83L253.95 130.63L256.57 130.11Z" fill="white"/>
<path d="M157.82 173.51C158.22 175.53 157.36 176.91 155.26 177.32C154 177.57 152.9 177.1 152.23 176.02H152.2L152.98 179.92L151.97 180.12L150.33 171.8L151.17 171.63L151.67 173.28H151.7C151.9 172.04 152.78 171.18 154.06 170.93C156.13 170.52 157.41 171.47 157.81 173.5L157.82 173.51ZM156.81 173.71C156.51 172.21 155.59 171.61 153.92 171.94C152.38 172.24 151.64 173.22 151.93 174.67C152.22 176.13 153.29 176.74 154.81 176.45C156.48 176.12 157.11 175.22 156.81 173.71Z" fill="white"/>
<path d="M164.72 171.18L165.51 175.18L164.66 175.35L164.21 173.73H164.18C164.01 174.94 163.12 175.79 161.83 176.04C160.41 176.32 159.4 175.86 159.2 174.84C158.92 173.44 159.94 172.99 162.64 172.01L163.78 171.59L163.73 171.33C163.52 170.4 162.76 170.08 161.58 170.31C160.31 170.56 159.86 171.15 159.94 172.17L159.04 172.13C158.89 170.69 159.86 169.8 161.43 169.49C163.09 169.16 164.43 169.67 164.72 171.17V171.18ZM163.9 172.18L162.76 172.59C161.13 173.19 160 173.56 160.2 174.53C160.33 175.18 160.96 175.43 161.98 175.23C163.29 174.97 164.25 173.71 163.91 172.17L163.9 172.18Z" fill="white"/>
<path d="M171.99 169.75L172.78 173.75L171.92 173.92L171.47 172.3H171.44C171.27 173.51 170.38 174.36 169.09 174.61C167.66 174.89 166.66 174.43 166.46 173.4C166.18 172 167.2 171.55 169.9 170.57L171.04 170.16L170.99 169.9C170.78 168.97 170.02 168.65 168.84 168.88C167.57 169.13 167.12 169.72 167.2 170.74L166.3 170.7C166.15 169.26 167.12 168.37 168.69 168.06C170.35 167.73 171.69 168.24 171.98 169.74L171.99 169.75ZM171.16 170.76L170.02 171.17C168.39 171.77 167.26 172.14 167.46 173.11C167.59 173.76 168.22 174.01 169.24 173.81C170.55 173.55 171.51 172.29 171.17 170.75L171.16 170.76Z" fill="white"/>
<path d="M173.68 171.77L174.58 171.35C174.92 172.21 175.67 172.51 176.9 172.27C177.98 172.06 178.5 171.6 178.37 170.94C178.25 170.4 177.76 170.21 176.67 170.22L175.32 170.24C174.16 170.28 173.49 169.82 173.29 168.94C173.06 167.84 173.87 167.04 175.52 166.71C177.15 166.39 178.19 166.9 178.74 168.11L177.83 168.5C177.47 167.57 176.73 167.22 175.69 167.43C174.67 167.63 174.16 168.08 174.29 168.7C174.39 169.16 174.76 169.4 175.54 169.38L177.05 169.34C178.4 169.3 179.15 169.69 179.36 170.62C179.61 171.82 178.73 172.69 176.98 173.04C175.41 173.35 174.13 172.91 173.67 171.75L173.68 171.77Z" fill="white"/>
<path d="M189.64 167.25L188.59 167.46L189.19 170.52L188.21 170.71L186.42 161.64L187.4 161.45L188.41 166.57L189.46 166.36L191.47 163.72L192.8 163.46L190.35 166.72L194.19 169.54L193.04 169.77L189.64 167.26V167.25Z" fill="white"/>
<path d="M200.2 164.19L200.99 168.19L200.14 168.36L199.69 166.74H199.66C199.49 167.95 198.6 168.8 197.31 169.05C195.89 169.33 194.88 168.87 194.68 167.85C194.4 166.45 195.42 166 198.12 165.02L199.26 164.6L199.21 164.34C199 163.41 198.24 163.09 197.06 163.32C195.79 163.57 195.34 164.16 195.42 165.18L194.52 165.14C194.37 163.7 195.34 162.81 196.91 162.5C198.57 162.17 199.91 162.68 200.2 164.18V164.19ZM199.38 165.2L198.24 165.61C196.61 166.21 195.48 166.58 195.68 167.55C195.81 168.2 196.44 168.45 197.46 168.25C198.77 167.99 199.73 166.73 199.39 165.19L199.38 165.2Z" fill="white"/>
<path d="M201.66 161.71L202.5 161.55L202.99 163.17H203C203.17 161.63 204.31 160.96 205.83 160.85L205.88 161.84C204.31 161.91 202.97 163.07 203.34 164.95L203.87 167.63L202.86 167.83L201.66 161.71Z" fill="white"/>
<path d="M210.24 160.96L209.46 161.1L210.3 165.39L210.34 165.41L212.36 165.01L212.54 165.92L210.69 166.28C209.9 166.44 209.38 166.07 209.23 165.3L208.44 161.3L207.66 161.47L206.81 161.64L206.63 160.73L207.48 160.56L208.26 160.42L208.1 158.38L208.88 158.23L209.27 160.22L210.04 160.05L211.5 159.76L211.68 160.67L210.22 160.96H210.24Z" fill="white"/>
<path d="M218.91 160.51L219.7 164.51L218.84 164.68L218.39 163.06H218.36C218.19 164.27 217.3 165.12 216.01 165.37C214.58 165.65 213.58 165.19 213.38 164.16C213.1 162.76 214.12 162.31 216.82 161.33L217.96 160.92L217.91 160.66C217.7 159.73 216.94 159.41 215.76 159.64C214.49 159.89 214.04 160.48 214.12 161.5L213.22 161.46C213.07 160.02 214.04 159.13 215.61 158.82C217.27 158.49 218.61 159 218.9 160.5L218.91 160.51ZM218.09 161.52L216.95 161.93C215.32 162.53 214.19 162.9 214.39 163.87C214.52 164.52 215.15 164.77 216.17 164.57C217.48 164.31 218.44 163.05 218.1 161.51L218.09 161.52Z" fill="white"/>
<path d="M178.755 160.446L147.259 166.643L147.492 167.83L178.989 161.634L178.755 160.446Z" fill="white"/>
<path d="M182.149 177.745L150.652 183.941L150.886 185.128L182.382 178.932L182.149 177.745Z" fill="white"/>
<path d="M298.21 181.5L294.89 182.15L292.05 167.71L291.44 167.83L294.28 182.27L283.79 184.34L280.95 169.9L280.34 170.02L283.19 184.46L272.7 186.52L269.86 172.08L269.25 172.2L272.09 186.64L261.6 188.71L258.76 174.27L258.15 174.39L260.99 188.83L257.68 189.48L257.8 190.09L261.11 189.43L263.95 203.87L264.56 203.75L261.72 189.31L272.21 187.25L275.05 201.69L275.66 201.57L272.82 187.13L283.31 185.07L286.15 199.5L286.76 199.38L283.91 184.95L294.4 182.88L297.25 197.32L297.85 197.2L295.01 182.76L298.33 182.11L298.21 181.5Z" fill="#CDCECF"/>
<path d="M279.12 190.51L276.86 190.95L278.22 197.86L278.83 197.74L278.32 195.14L279.97 194.82C281.16 194.59 281.93 193.43 281.7 192.24C281.47 191.05 280.31 190.27 279.12 190.51ZM279.84 194.21L278.19 194.53L277.58 191.44L279.23 191.12C280.08 190.95 280.91 191.51 281.08 192.36C281.25 193.21 280.69 194.04 279.84 194.21Z" fill="#CDCECF"/>
<path d="M286.22 176.45L287.87 176.13C289.06 175.9 289.83 174.74 289.6 173.55C289.37 172.36 288.21 171.58 287.02 171.82L284.76 172.26L286.12 179.17L286.73 179.05L286.22 176.45ZM285.49 172.75L287.14 172.43C287.99 172.26 288.82 172.82 288.99 173.67C289.16 174.52 288.6 175.35 287.75 175.52L286.1 175.84L285.49 172.75Z" fill="#CDCECF"/>
<path d="M265.85 185.55L266.95 185.33C268.57 185.01 269.41 183.99 269.15 182.65L267.84 176.01C267.52 174.4 265.96 173.35 264.36 173.67L263.83 173.78C262.23 174.1 261.18 175.66 261.5 177.26L262.81 183.9C263.07 185.23 264.24 185.86 265.86 185.54L265.85 185.55ZM262.11 177.15C261.86 175.88 262.69 174.64 263.96 174.39L264.49 174.28C265.76 174.03 266.99 174.86 267.24 176.13L268.55 182.77C268.82 184.17 267.45 184.6 266.84 184.72L265.74 184.94C265.13 185.06 263.7 185.19 263.42 183.78L262.11 177.14V177.15Z" fill="#CDCECF"/>
<path d="M264.83 177.46C265.69 177.29 266.12 177.47 266.12 177.47L266.38 176.91C266.32 176.88 265.77 176.64 264.71 176.85C263.78 177.03 263.23 177.54 263.21 177.56L263.63 178.01C263.63 178.01 264.08 177.6 264.83 177.45V177.46Z" fill="#CDCECF"/>
<path d="M266.819 181.637L264.543 182.085L264.663 182.693L266.939 182.245L266.819 181.637Z" fill="#CDCECF"/>
<path d="M277.23 183.31L277.76 183.2C279.36 182.88 280.41 181.32 280.09 179.72L278.78 173.08C278.52 171.75 277.35 171.12 275.73 171.44L274.63 171.66C273.01 171.98 272.17 173 272.43 174.34L273.74 180.98C274.06 182.59 275.62 183.64 277.22 183.32L277.23 183.31ZM273.06 174.21C272.79 172.81 274.16 172.38 274.77 172.26L275.87 172.04C276.48 171.92 277.91 171.79 278.19 173.2L279.5 179.84C279.75 181.11 278.92 182.35 277.65 182.6L277.12 182.71C275.85 182.96 274.62 182.13 274.37 180.86L273.06 174.22V174.21Z" fill="#CDCECF"/>
<path d="M278.39 179.43L277.97 178.98C277.97 178.98 277.52 179.39 276.77 179.54C275.91 179.71 275.48 179.53 275.48 179.53L275.22 180.09C275.28 180.12 275.83 180.36 276.89 180.15C277.82 179.97 278.37 179.46 278.39 179.44V179.43Z" fill="#CDCECF"/>
<path d="M276.914 174.354L274.638 174.802L274.757 175.41L277.034 174.962L276.914 174.354Z" fill="#CDCECF"/>
<path d="M289.86 186.06L289.33 186.17C287.73 186.49 286.68 188.05 287 189.65L288.31 196.29C288.57 197.62 289.74 198.25 291.36 197.94L292.46 197.72C294.08 197.4 294.92 196.38 294.66 195.04L293.35 188.4C293.03 186.79 291.47 185.74 289.87 186.06H289.86ZM294.04 195.16C294.31 196.56 292.94 196.99 292.33 197.11L291.23 197.33C290.62 197.45 289.19 197.58 288.91 196.17L287.6 189.53C287.35 188.26 288.18 187.02 289.45 186.77L289.98 186.66C291.25 186.41 292.48 187.24 292.73 188.51L294.04 195.15V195.16Z" fill="#CDCECF"/>
<path d="M288.71 189.94L289.13 190.39C289.13 190.39 289.58 189.98 290.33 189.83C291.19 189.66 291.62 189.84 291.62 189.84L291.88 189.28C291.82 189.25 291.27 189.01 290.21 189.22C289.28 189.4 288.73 189.91 288.71 189.93V189.94Z" fill="#CDCECF"/>
<path d="M292.31 194.024L290.034 194.471L290.153 195.08L292.43 194.632L292.31 194.024Z" fill="#CDCECF"/>
<path d="M267.95 190.37L266.85 190.59C265.23 190.91 264.39 191.93 264.65 193.27L265.96 199.91C266.28 201.52 267.84 202.57 269.44 202.25L269.97 202.14C271.57 201.82 272.62 200.26 272.3 198.66L270.99 192.02C270.73 190.69 269.56 190.06 267.94 190.38L267.95 190.37ZM271.69 198.78C271.94 200.05 271.11 201.29 269.84 201.54L269.31 201.65C268.04 201.9 266.81 201.07 266.56 199.8L265.25 193.16C264.97 191.76 266.35 191.33 266.96 191.21L268.06 190.99C268.67 190.87 270.1 190.74 270.38 192.15L271.69 198.79V198.78Z" fill="#CDCECF"/>
<path d="M268.97 198.47C268.11 198.64 267.68 198.46 267.68 198.46L267.55 198.74L267.42 199.02C267.48 199.05 268.03 199.29 269.09 199.08C270.02 198.9 270.57 198.39 270.59 198.37L270.17 197.92C270.17 197.92 269.72 198.33 268.97 198.48V198.47Z" fill="#CDCECF"/>
<path d="M269.115 193.284L266.839 193.732L266.959 194.34L269.235 193.892L269.115 193.284Z" fill="#CDCECF"/>
<g opacity="0.15">
<path d="M217.14 224.68L176.72 232.64L202.2 124.26L242.62 116.31L217.14 224.68Z" fill="#DFDFDF"/>
</g>
<g opacity="0.15">
<path d="M239.1 220.36L224.6 223.21L250.07 114.84L264.57 111.99L239.1 220.36Z" fill="#DFDFDF"/>
</g>
<path d="M322.98 246.12L173.75 259.39C169.46 259.77 165.64 256.57 165.26 252.29L157.66 166.87C157.48 164.86 158.43 162.22 160.69 159.69C162.12 158.1 162.48 158.59 164.76 158.38L313.99 145.11C318.28 144.73 322.1 147.93 322.48 152.21L330.08 237.63C330.27 239.77 330.48 240.38 329.36 242.05C328.35 243.54 326.02 245.85 322.98 246.13V246.12Z" fill="#8A9AA7"/>
<path d="M315.23 143.634L166.009 156.899C161.701 157.282 158.52 161.084 158.903 165.392L166.496 250.805C166.879 255.112 170.681 258.294 174.988 257.911L324.21 244.645C328.517 244.263 331.699 240.46 331.316 236.153L323.723 150.74C323.34 146.432 319.538 143.251 315.23 143.634Z" fill="#CDCECF"/>
<path d="M321.27 218.08L317.91 218.38L316.61 203.72L315.99 203.78L317.29 218.43L306.64 219.38L305.34 204.72L304.72 204.78L306.03 219.43L295.38 220.38L294.07 205.72L293.46 205.78L294.76 220.44L284.11 221.38L282.81 206.73L282.19 206.78L283.49 221.44L280.13 221.74L280.18 222.36L283.55 222.06L284.85 236.71L285.47 236.66L284.17 222L294.81 221.05L296.12 235.71L296.74 235.66L295.43 221L306.08 220.05L307.38 234.71L308 234.66L306.7 220L317.35 219.05L318.65 233.71L319.27 233.65L317.96 219L321.33 218.7L321.27 218.08Z" fill="#758089"/>
<path d="M301.34 225.02L299.05 225.22L299.67 232.24L300.29 232.19L300.06 229.55L301.73 229.4C302.94 229.29 303.83 228.22 303.72 227.02C303.61 225.82 302.55 224.92 301.34 225.03V225.02ZM301.67 228.78L300 228.93L299.72 225.79L301.39 225.64C302.25 225.56 303.02 226.21 303.1 227.07C303.18 227.94 302.54 228.7 301.67 228.78Z" fill="#758089"/>
<path d="M309.88 211.8L311.55 211.65C312.76 211.54 313.65 210.47 313.54 209.27C313.43 208.06 312.37 207.17 311.16 207.28L308.87 207.48L309.49 214.5L310.11 214.45L309.88 211.81V211.8ZM309.55 208.04L311.22 207.89C312.08 207.81 312.85 208.46 312.93 209.32C313.01 210.18 312.37 210.95 311.5 211.03L309.83 211.18L309.55 208.04Z" fill="#758089"/>
<path d="M288.67 218.7L289.79 218.6C291.43 218.45 292.38 217.52 292.26 216.17L291.66 209.43C291.52 207.8 290.07 206.59 288.44 206.74L287.9 206.79C286.27 206.93 285.07 208.38 285.21 210.01L285.81 216.75C285.93 218.1 287.03 218.85 288.67 218.71V218.7ZM285.84 209.95C285.73 208.66 286.68 207.52 287.97 207.4L288.51 207.35C289.8 207.24 290.94 208.19 291.05 209.48L291.65 216.22C291.77 217.64 290.36 217.92 289.74 217.98L288.62 218.08C288.01 218.13 286.56 218.11 286.44 216.69L285.84 209.95Z" fill="#758089"/>
<path d="M288.51 210.54C289.38 210.46 289.79 210.69 289.79 210.69L289.95 210.42L290.11 210.15C290.05 210.12 289.53 209.82 288.45 209.92C287.51 210 286.91 210.45 286.88 210.47L287.25 210.96C287.25 210.96 287.75 210.6 288.5 210.53L288.51 210.54Z" fill="#758089"/>
<path d="M290.056 214.889L287.746 215.094L287.801 215.712L290.111 215.507L290.056 214.889Z" fill="#758089"/>
<path d="M300.23 217.67L300.77 217.62C302.4 217.48 303.6 216.03 303.46 214.4L302.86 207.66C302.74 206.31 301.64 205.56 300 205.7L298.88 205.8C297.24 205.95 296.29 206.88 296.41 208.23L297.01 214.97C297.15 216.6 298.6 217.81 300.23 217.66V217.67ZM297.03 208.18C296.91 206.76 298.32 206.48 298.94 206.42L300.06 206.32C300.67 206.27 302.12 206.29 302.25 207.71L302.85 214.45C302.96 215.74 302.01 216.88 300.72 217L300.18 217.05C298.89 217.16 297.75 216.21 297.64 214.92L297.04 208.18H297.03Z" fill="#758089"/>
<path d="M301.79 213.93L301.42 213.44C301.42 213.44 300.92 213.8 300.17 213.87C299.3 213.95 298.89 213.72 298.89 213.72L298.57 214.25C298.63 214.28 299.15 214.58 300.23 214.49C301.17 214.41 301.77 213.96 301.8 213.94L301.79 213.93Z" fill="#758089"/>
<path d="M300.857 208.706L298.546 208.912L298.601 209.529L300.912 209.324L300.857 208.706Z" fill="#758089"/>
<path d="M312.49 221.73L311.95 221.78C310.32 221.92 309.12 223.37 309.26 225L309.86 231.74C309.98 233.09 311.08 233.84 312.72 233.7L313.84 233.6C315.48 233.45 316.43 232.52 316.31 231.17L315.71 224.43C315.57 222.8 314.12 221.59 312.49 221.74V221.73ZM315.69 231.22C315.81 232.64 314.4 232.92 313.78 232.98L312.66 233.08C312.05 233.13 310.6 233.11 310.47 231.69L309.87 224.95C309.76 223.66 310.71 222.52 312 222.4L312.54 222.35C313.83 222.24 314.97 223.19 315.08 224.48L315.68 231.22H315.69Z" fill="#758089"/>
<path d="M310.94 225.47L311.31 225.96C311.31 225.96 311.81 225.6 312.56 225.53C313.43 225.45 313.84 225.68 313.84 225.68L314.16 225.15C314.1 225.12 313.58 224.82 312.5 224.91C311.56 224.99 310.96 225.44 310.93 225.46L310.94 225.47Z" fill="#758089"/>
<path d="M314.1 229.891L311.789 230.096L311.844 230.714L314.155 230.508L314.1 229.891Z" fill="#758089"/>
<path d="M290.25 223.71L289.13 223.81C287.49 223.96 286.54 224.89 286.66 226.24L287.26 232.98C287.4 234.61 288.85 235.82 290.48 235.67L291.02 235.62C292.65 235.48 293.85 234.03 293.71 232.4L293.11 225.66C292.99 224.31 291.89 223.56 290.25 223.7V223.71ZM293.09 232.46C293.2 233.75 292.25 234.89 290.96 235.01L290.42 235.06C289.13 235.17 287.99 234.22 287.88 232.93L287.28 226.19C287.15 224.77 288.57 224.49 289.19 224.43L290.31 224.33C290.92 224.28 292.37 224.3 292.5 225.72L293.1 232.46H293.09Z" fill="#758089"/>
<path d="M290.41 231.87C289.54 231.95 289.13 231.72 289.13 231.72L288.81 232.25C288.87 232.28 289.39 232.58 290.47 232.49C291.41 232.41 292.01 231.96 292.04 231.94L291.67 231.45C291.67 231.45 291.17 231.81 290.42 231.88L290.41 231.87Z" fill="#758089"/>
<path d="M291.11 226.719L288.799 226.924L288.854 227.542L291.165 227.336L291.11 226.719Z" fill="#758089"/>
<g opacity="0.6">
<path d="M234.54 252.61L193.51 256.26L230.27 151.18L271.3 147.53L234.54 252.61Z" fill="#DFDFDF"/>
</g>
<g opacity="0.6">
<path d="M256.83 250.63L242.11 251.94L278.87 146.85L293.59 145.55L256.83 250.63Z" fill="#DFDFDF"/>
</g>
<path d="M177.54 171.44C179.04 171.36 180.09 172.11 180.19 173.26C180.33 174.88 179.32 175.96 177.63 176.11L171.8 176.63L170.98 167.42L176.23 166.95C178.14 166.78 179.3 167.59 179.43 169.05C179.53 170.17 178.82 171.13 177.53 171.39V171.43L177.54 171.44ZM173.68 170.83L176.34 170.59C176.85 170.54 177.09 170.24 177.04 169.71C177 169.25 176.61 169.05 176.08 169.09L173.54 169.32L173.67 170.83H173.68ZM177.65 173.16C177.61 172.67 177.26 172.45 176.61 172.51L173.85 172.76L173.99 174.31L176.82 174.06C177.43 174.01 177.7 173.7 177.65 173.16Z" fill="#192548"/>
<path d="M180.69 171.22C180.43 168.29 182.54 166.26 185.63 165.98C188.75 165.7 191.15 167.36 191.41 170.27C191.67 173.18 189.55 175.18 186.48 175.45C183.36 175.73 180.95 174.1 180.7 171.22H180.69ZM188.9 170.47C188.72 168.44 187.82 167.99 185.82 168.17C183.82 168.35 183 168.95 183.18 170.98C183.37 173.08 184.27 173.46 186.27 173.28C188.27 173.1 189.06 172.28 188.9 170.47Z" fill="#192548"/>
<path d="M192.39 165.52L195.61 165.23L199.46 169.89L200.24 170.87H200.29L200.19 169.85L199.75 164.87L202.14 164.66L202.96 173.87L199.87 174.14L195.93 169.32L195.09 168.27H195.04L195.15 169.39L195.61 174.52L193.22 174.73L192.4 165.52H192.39Z" fill="#192548"/>
<path d="M213.55 163.63L214.02 168.92C214.25 171.55 212.6 173.13 209.62 173.4C206.61 173.67 204.71 172.42 204.47 169.77L204 164.48L206.41 164.27L206.9 169.74C207.03 171.17 207.79 171.36 209.43 171.21C211.11 171.06 211.77 170.72 211.65 169.32L211.16 163.85L213.55 163.64V163.63Z" fill="#192548"/>
<path d="M215.37 169.98L217.71 169.16C217.98 170.26 218.79 170.54 220.05 170.42C221.19 170.32 221.78 170.09 221.73 169.53C221.68 169.1 221.34 169.02 220.21 168.94L218.29 168.79C216.69 168.67 215.4 167.79 215.22 166.21C215.03 164.33 216.82 163.2 218.97 163.01C221.6 162.78 223.05 163.56 223.47 165.37L221.3 166.19C221.08 165.07 220.37 164.97 219.16 165.08C218.09 165.17 217.59 165.46 217.63 165.93C217.69 166.44 218.08 166.5 219.32 166.57L221 166.67C222.64 166.78 223.93 167.6 224.08 168.99C224.3 171.04 222.53 172.23 220.21 172.44C217.67 172.67 215.89 171.88 215.36 169.97L215.37 169.98Z" fill="#192548"/>
<path d="M224.67 167.31C224.41 164.38 226.52 162.35 229.61 162.07C232.73 161.79 235.13 163.45 235.39 166.36C235.65 169.27 233.53 171.27 230.46 171.54C227.34 171.82 224.93 170.19 224.68 167.31H224.67ZM232.89 166.55C232.71 164.52 231.81 164.07 229.81 164.25C227.81 164.43 226.99 165.03 227.17 167.06C227.36 169.16 228.26 169.54 230.26 169.36C232.26 169.18 233.05 168.36 232.89 166.55Z" fill="#192548"/>
<path d="M245.27 160.81L242.39 170.35L239.35 170.62L234.8 161.75L237.56 161.5L239.8 166.15L240.57 167.84H240.65L241.11 166.04L242.5 161.05L245.26 160.8L245.27 160.81Z" fill="#192548"/>
<path d="M247.95 160.58L251.28 160.28L255.76 169.16L253.25 169.38L252.4 167.63L248.14 168.01L247.6 169.89L245.09 170.11L247.95 160.58ZM249.95 159.68L248.79 159.78L249.22 157.29L252.38 157.01L249.95 159.68ZM251.41 165.6L250.61 163.96L249.81 162.27H249.73L249.24 164.08L248.75 165.83L251.41 165.59V165.6Z" fill="#192548"/>
<path d="M182.52 195.33C182.7 197.38 181.7 198.67 179.57 198.85C178.29 198.96 177.25 198.38 176.7 197.24H176.67L177.04 201.2L176.01 201.29L175.26 192.85L176.12 192.77L176.44 194.46H176.47C176.8 193.25 177.77 192.49 179.07 192.37C181.17 192.18 182.34 193.26 182.53 195.32L182.52 195.33ZM181.5 195.42C181.36 193.9 180.51 193.2 178.81 193.35C177.24 193.49 176.41 194.39 176.54 195.86C176.67 197.35 177.68 198.07 179.22 197.93C180.92 197.78 181.64 196.95 181.5 195.42Z" fill="#192548"/>
<path d="M189.63 193.73L189.99 197.79L189.12 197.87L188.84 196.21H188.81C188.52 197.39 187.54 198.14 186.23 198.26C184.78 198.39 183.83 197.82 183.74 196.78C183.61 195.36 184.67 195.01 187.46 194.33L188.64 194.04L188.62 193.78C188.51 192.84 187.78 192.44 186.59 192.54C185.3 192.65 184.79 193.19 184.76 194.21L183.87 194.08C183.87 192.64 184.93 191.85 186.52 191.71C188.2 191.56 189.48 192.2 189.62 193.73H189.63ZM188.7 194.65L187.52 194.94C185.83 195.37 184.68 195.62 184.77 196.6C184.83 197.26 185.43 197.58 186.47 197.48C187.8 197.36 188.89 196.2 188.71 194.64L188.7 194.65Z" fill="#192548"/>
<path d="M197 193.08L197.36 197.14L196.49 197.22L196.21 195.56H196.18C195.89 196.74 194.91 197.49 193.6 197.61C192.15 197.74 191.2 197.17 191.11 196.13C190.98 194.71 192.04 194.36 194.83 193.68L196.01 193.39L195.99 193.13C195.88 192.19 195.15 191.79 193.96 191.89C192.67 192 192.16 192.54 192.13 193.56L191.24 193.43C191.24 191.99 192.3 191.2 193.89 191.06C195.57 190.91 196.85 191.55 196.99 193.08H197ZM196.08 193.99L194.9 194.28C193.21 194.71 192.06 194.96 192.14 195.94C192.2 196.6 192.8 196.92 193.84 196.82C195.17 196.7 196.26 195.54 196.08 193.98V193.99Z" fill="#192548"/>
<path d="M198.48 195.26L199.42 194.94C199.67 195.83 200.38 196.21 201.63 196.1C202.72 196 203.3 195.61 203.24 194.94C203.18 194.39 202.71 194.15 201.62 194.05L200.27 193.93C199.11 193.85 198.49 193.32 198.39 192.43C198.28 191.31 199.17 190.6 200.84 190.45C202.5 190.3 203.48 190.92 203.9 192.18L202.96 192.48C202.7 191.52 202 191.09 200.95 191.19C199.91 191.28 199.36 191.68 199.42 192.31C199.48 192.78 199.82 193.06 200.59 193.12L202.1 193.24C203.45 193.34 204.15 193.81 204.26 194.76C204.38 195.98 203.42 196.76 201.64 196.92C200.05 197.06 198.82 196.49 198.49 195.29L198.48 195.26Z" fill="#192548"/>
<path d="M214.82 192.46L213.75 192.55L214.03 195.65L213.03 195.74L212.21 186.53L213.21 186.44L213.67 191.64L214.74 191.55L217.02 189.13L218.37 189.01L215.59 191.99L219.11 195.2L217.94 195.3L214.82 192.45V192.46Z" fill="#192548"/>
<path d="M225.65 190.53L226.01 194.59L225.14 194.67L224.86 193.01H224.83C224.54 194.19 223.56 194.94 222.25 195.06C220.8 195.19 219.85 194.62 219.76 193.58C219.63 192.16 220.69 191.81 223.48 191.13L224.66 190.84L224.64 190.58C224.53 189.64 223.8 189.24 222.61 189.34C221.32 189.45 220.81 189.99 220.78 191.01L219.89 190.88C219.89 189.43 220.95 188.65 222.54 188.51C224.22 188.36 225.5 189 225.64 190.53H225.65ZM224.72 191.44L223.54 191.73C221.85 192.16 220.7 192.41 220.78 193.39C220.84 194.05 221.44 194.36 222.48 194.27C223.81 194.15 224.9 192.99 224.72 191.43V191.44Z" fill="#192548"/>
<path d="M227.36 188.21L228.21 188.13L228.53 189.8H228.54C228.87 188.28 230.08 187.74 231.6 187.79L231.54 188.78C229.97 188.68 228.52 189.7 228.69 191.6L228.93 194.32L227.9 194.41L227.35 188.2L227.36 188.21Z" fill="#192548"/>
<path d="M235.98 188.38L235.19 188.44L235.58 192.79L235.62 192.81L237.67 192.63L237.75 193.55L235.87 193.72C235.07 193.79 234.59 193.37 234.52 192.59L234.16 188.52L233.37 188.6L232.5 188.68L232.42 187.76L233.29 187.68L234.08 187.62L234.14 185.57L234.93 185.5L235.11 187.53L235.9 187.45L237.39 187.32L237.47 188.24L235.98 188.37V188.38Z" fill="#192548"/>
<path d="M244.64 188.84L245 192.9L244.13 192.98L243.85 191.32H243.82C243.53 192.5 242.55 193.25 241.24 193.37C239.79 193.5 238.84 192.93 238.75 191.89C238.62 190.47 239.68 190.12 242.47 189.44L243.65 189.15L243.63 188.89C243.52 187.95 242.8 187.55 241.6 187.65C240.31 187.76 239.8 188.3 239.77 189.32L238.88 189.19C238.88 187.75 239.94 186.96 241.53 186.82C243.21 186.67 244.49 187.31 244.63 188.84H244.64ZM243.72 189.75L242.54 190.04C240.85 190.47 239.7 190.72 239.78 191.7C239.84 192.36 240.44 192.68 241.48 192.58C242.81 192.46 243.9 191.3 243.72 189.74V189.75Z" fill="#192548"/>
<path d="M204.72 184.542L172.747 187.384L172.854 188.589L204.828 185.747L204.72 184.542Z" fill="#192548"/>
<path d="M206.279 202.085L174.305 204.927L174.412 206.132L206.386 203.29L206.279 202.085Z" fill="#192548"/>
<path d="M163.56 51.66C161.6 51.84 159.67 50.97 158.5 49.39C155.96 45.92 151.73 44.12 147.47 44.69L145.12 45L145.93 51.08L148.28 50.77C150.32 50.5 152.34 51.36 153.56 53.02C155.99 56.33 160.03 58.15 164.12 57.77L167.17 57.49L166.6 51.39L163.55 51.67L163.56 51.66Z" fill="#89C764"/>
<path d="M370.22 195.06L367.87 195.37L368.68 201.45L371.03 201.14C372.45 200.95 373.86 201.32 375 202.12V195.41C373.47 194.97 371.85 194.84 370.22 195.06Z" fill="#89C764"/>
<path d="M340.54 313.05C338.58 313.23 336.65 312.36 335.48 310.78C332.94 307.31 328.71 305.51 324.45 306.08L322.1 306.39L322.91 312.47L325.26 312.16C327.3 311.89 329.32 312.75 330.54 314.41C332.97 317.72 337.01 319.54 341.1 319.16L344.15 318.88L343.58 312.78L340.53 313.06L340.54 313.05Z" fill="white"/>
<path d="M18.44 196.84C16.48 197.02 14.55 196.15 13.38 194.57C10.84 191.1 6.61 189.3 2.35 189.87L0 190.18L0.81 196.26L3.16 195.95C5.2 195.68 7.22 196.54 8.44 198.2C10.87 201.51 14.91 203.33 19 202.95L22.05 202.67L21.48 196.57L18.43 196.85L18.44 196.84Z" fill="#89C764"/>
<path d="M229.21 19.72C230.14 15.52 228.7 11.16 225.46 8.33002L223.67 6.77002L219.64 11.39L221.43 12.95C222.98 14.3 223.67 16.39 223.23 18.4C222.35 22.41 223.65 26.65 226.63 29.47L228.86 31.57L233.07 27.12L230.84 25.02C229.41 23.67 228.79 21.64 229.21 19.72Z" fill="#89C764"/>
<path d="M38.4802 341C39.4102 336.8 37.9702 332.44 34.7302 329.61L32.9402 328.05L28.9102 332.67L30.7002 334.23C32.2502 335.58 32.9402 337.67 32.5002 339.68C31.6202 343.69 32.9202 347.93 35.9002 350.75L38.1302 352.85L42.3402 348.4L40.1102 346.3C38.6802 344.95 38.0602 342.92 38.4802 341Z" fill="#89C764"/>
<path d="M256.42 356.49C257.35 352.29 255.91 347.93 252.67 345.1L250.88 343.54L246.85 348.16L248.64 349.72C250.19 351.07 250.88 353.16 250.44 355.17C249.56 359.18 250.86 363.42 253.84 366.24L256.07 368.34L260.28 363.89L258.05 361.79C256.62 360.44 256 358.41 256.42 356.49Z" fill="#89C764"/>
<path d="M51.1098 43.1699C54.7598 40.8999 56.8698 36.8199 56.6298 32.5199L56.4898 30.1499L50.3698 30.4999L50.5098 32.8699C50.6298 34.9199 49.6198 36.8799 47.8698 37.9699C44.3898 40.1399 42.2598 44.0399 42.3298 48.1499L42.3798 51.2099L48.5098 51.1099L48.4598 48.0499C48.4298 46.0799 49.4398 44.2199 51.1098 43.1799V43.1699Z" fill="#89C764"/>
<path d="M325.06 86.64C325.03 84.67 326.04 82.81 327.71 81.77C331.36 79.5 333.47 75.42 333.23 71.12L333.09 68.75L326.97 69.1L327.11 71.47C327.23 73.52 326.22 75.48 324.47 76.57C320.99 78.74 318.86 82.64 318.93 86.75L318.98 89.81L325.11 89.71L325.06 86.65V86.64Z" fill="white"/>
<path d="M60.1402 134.29C59.9702 136.34 58.6902 138.13 56.8002 138.96C53.0402 140.61 50.3902 144.17 49.8702 148.25L49.4902 151.29L55.5702 152.06L55.9502 149.02C56.2002 147.07 57.4702 145.37 59.2602 144.58C63.2002 142.85 65.8702 139.11 66.2402 134.82L66.4402 132.46L60.3302 131.94L60.1302 134.3L60.1402 134.29Z" fill="white"/>
<path d="M111.97 281.05C111.08 282.8 109.32 283.98 107.36 284.12C103.07 284.43 99.2998 287.06 97.5098 290.97L96.5298 293.13L102.11 295.67L103.09 293.51C103.94 291.64 105.75 290.38 107.8 290.23C111.89 289.93 115.59 287.47 117.44 283.81L118.82 281.08L113.35 278.32L111.97 281.05Z" fill="#89C764"/>
<path d="M295.264 39.8541L278.125 48.8142L278.468 49.47L295.607 40.5099L295.264 39.8541Z" fill="#A7AEB7"/>
<path d="M272.718 51.6283L258.193 59.2217L258.536 59.8775L273.061 52.284L272.718 51.6283Z" fill="#A7AEB7"/>
<path d="M246.994 65.0407L200.628 89.2388L200.971 89.8948L247.336 65.6968L246.994 65.0407Z" fill="#A7AEB7"/>
<path d="M194.933 92.2043L187.212 96.2356L187.554 96.8916L195.275 92.8603L194.933 92.2043Z" fill="#A7AEB7"/>
<path d="M171.671 104.34L145.875 117.808L146.218 118.464L172.014 104.996L171.671 104.34Z" fill="#A7AEB7"/>
<path d="M240.444 44.7248L231.26 51.1885L231.692 51.8018L240.875 45.3381L240.444 44.7248Z" fill="#A7AEB7"/>
<path d="M221.202 58.2497L180.787 86.6748L181.219 87.2883L221.633 58.8631L221.202 58.2497Z" fill="#A7AEB7"/>
<path d="M284.746 305.322L284.524 306.038L310.737 314.152L310.959 313.436L284.746 305.322Z" fill="#A7AEB7"/>
<path d="M271.089 301.048L270.867 301.765L280.211 304.653L280.432 303.937L271.089 301.048Z" fill="#A7AEB7"/>
<path d="M232.374 289.114L232.152 289.83L265.663 300.204L265.885 299.487L232.374 289.114Z" fill="#A7AEB7"/>
<path d="M220.809 285.507L220.587 286.224L228.506 288.675L228.728 287.959L220.809 285.507Z" fill="#A7AEB7"/>
<path d="M299.565 337.313L299.266 337.99L304.296 340.214L304.595 339.538L299.565 337.313Z" fill="#A7AEB7"/>
<path d="M270.849 324.601L270.549 325.278L295.152 336.155L295.451 335.478L270.849 324.601Z" fill="#A7AEB7"/>
<path d="M374.984 194.221L366.004 194.235L366.006 194.985L374.986 194.971L374.984 194.221Z" fill="#A7AEB7"/>
<path d="M352.495 194.256L328.825 194.293L328.826 195.043L352.496 195.006L352.495 194.256Z" fill="#A7AEB7"/>
<path d="M322.383 194.291L309.623 194.315L309.624 195.065L322.384 195.041L322.383 194.291Z" fill="#A7AEB7"/>
<path d="M314.324 91.0455L306.969 93.644L307.219 94.3512L314.574 91.7526L314.324 91.0455Z" fill="#A7AEB7"/>
<path d="M302.886 95.0807L288.631 100.12L288.881 100.827L303.136 95.7878L302.886 95.0807Z" fill="#A7AEB7"/>
<path d="M280.294 103.069L258.796 110.665L259.046 111.372L280.544 103.776L280.294 103.069Z" fill="#A7AEB7"/>
<path d="M349.483 92.8028L325.451 99.1658L325.64 99.8811L349.672 93.5182L349.483 92.8028Z" fill="#A7AEB7"/>
<path d="M318.743 100.941L291.627 108.12L291.817 108.835L318.932 101.656L318.743 100.941Z" fill="#A7AEB7"/>
<path d="M145.358 263.005L145.097 263.708L150.814 265.834L151.076 265.131L145.358 263.005Z" fill="#A7AEB7"/>
<path d="M130.325 257.437L130.063 258.14L141.565 262.415L141.826 261.712L130.325 257.437Z" fill="#A7AEB7"/>
<path d="M118.827 253.139L118.566 253.842L125.409 256.384L125.67 255.681L118.827 253.139Z" fill="#A7AEB7"/>
<path d="M140.393 189.75L132.808 190.479L132.879 191.216L140.464 190.487L140.393 189.75Z" fill="#A7AEB7"/>
<path d="M123.257 191.375L98.6504 193.74L98.7212 194.477L123.328 192.112L123.257 191.375Z" fill="#A7AEB7"/>
<path d="M135.587 174.453L117.266 178.625L117.43 179.347L135.751 175.174L135.587 174.453Z" fill="#A7AEB7"/>
<path d="M111.857 179.857L102.428 182.004L102.593 182.726L112.021 180.578L111.857 179.857Z" fill="#A7AEB7"/>
<path d="M124.087 111.124L119.665 114.999L120.159 115.563L124.582 111.688L124.087 111.124Z" fill="#A7AEB7"/>
<path d="M117.58 116.834L107.661 125.527L108.155 126.091L118.075 117.398L117.58 116.834Z" fill="#A7AEB7"/>
<path d="M105.251 127.642L101.062 131.313L101.556 131.878L105.745 128.206L105.251 127.642Z" fill="#A7AEB7"/>
<path d="M358.71 147.76L375 146.56V145.82L358.65 147.02L358.71 147.76Z" fill="#A7AEB7"/>
<path d="M372.73 284.76L375 285.35V284.58L372.92 284.04L372.73 284.76Z" fill="#A7AEB7"/>
<path d="M348.135 277.606L347.946 278.332L366.062 283.048L366.251 282.322L348.135 277.606Z" fill="#A7AEB7"/>
<path d="M197.521 342.649L197.081 343.256L206.852 350.342L207.292 349.735L197.521 342.649Z" fill="#A7AEB7"/>
<path d="M174.774 326.147L174.333 326.755L188.848 337.281L189.289 336.674L174.774 326.147Z" fill="#A7AEB7"/>
<path d="M197.414 19.9032L174.305 41.9089L174.822 42.4521L197.931 20.4463L197.414 19.9032Z" fill="#A7AEB7"/>
<path d="M312.75 4.69667L300.87 12.5659L301.278 13.1829L313.158 5.3136L312.75 4.69667Z" fill="#A7AEB7"/>
</g>
<defs>
<clipPath id="clip0_8503_14571">
<rect width="375" height="375" fill="white"/>
</clipPath>
</defs>
</svg>
