<svg width="375" height="375" viewBox="0 0 375 375" fill="none" xmlns="http://www.w3.org/2000/svg">
<path d="M110.046 353.27C85.9971 353.27 62.6174 343.888 44.2059 326.844C25.7943 309.8 13.62 286.274 9.92842 260.605L1.22255 200.116C-2.93043 171.23 3.5759 142.32 19.5418 118.711C35.5154 95.0941 59.0335 79.6209 85.7741 75.1252L183.592 58.6963C188.737 57.832 193.975 57.3999 199.15 57.3999C223.199 57.3999 246.579 66.7819 264.99 83.8257C283.402 100.87 295.576 124.395 299.268 150.065L307.966 210.553C316.549 270.203 278.618 326.279 223.415 335.553L125.597 351.981C120.451 352.846 115.214 353.278 110.038 353.278L110.046 353.27ZM199.15 58.2226C194.013 58.2226 188.814 58.6547 183.707 59.5106L85.8895 75.9395C59.3566 80.402 36.0153 95.7589 20.1647 119.193C4.31421 142.627 -2.13828 171.322 1.98393 199.983L10.6821 260.472C14.3429 285.95 26.425 309.293 44.6981 326.212C62.9712 343.123 86.174 352.439 110.038 352.439C115.183 352.439 120.375 352.006 125.481 351.15L223.299 334.722C278.08 325.514 315.726 269.87 307.212 210.678L298.514 150.189C294.853 124.711 282.771 101.368 264.498 84.449C246.225 67.5381 223.022 58.2226 199.158 58.2226H199.15Z" fill="#89C764"/>
<path d="M109.608 299.229C84.7205 299.229 63.0789 279.194 59.2566 252.627L50.4661 191.54C48.3742 177.014 51.6505 162.48 59.6796 150.605C67.7163 138.73 79.5446 130.943 92.9803 128.683L191.76 112.096C194.344 111.664 196.982 111.44 199.581 111.44C224.468 111.44 246.11 131.475 249.932 158.042L258.723 219.129C263.037 249.128 243.964 277.324 216.201 281.986L117.421 298.573C114.837 299.005 112.199 299.229 109.6 299.229H109.608ZM199.589 112.271C197.028 112.271 194.428 112.487 191.883 112.911L93.1033 129.497C79.8676 131.724 68.2162 139.386 60.3025 151.087C52.3888 162.787 49.1664 177.105 51.2275 191.407L60.018 252.494C63.7787 278.662 85.0973 298.39 109.608 298.39C112.176 298.39 114.768 298.174 117.314 297.75L216.093 281.163C243.433 276.568 262.222 248.796 257.969 219.254L249.178 158.167C245.418 131.999 224.099 112.271 199.589 112.271Z" fill="#89C764"/>
<path d="M110.792 269.745C98.7717 269.745 88.3123 260.064 86.4666 247.234L77.9068 187.751C76.8993 180.737 78.4836 173.715 82.3597 167.973C86.2435 162.23 91.9577 158.474 98.4487 157.377L194.629 141.223C195.874 141.015 197.151 140.907 198.405 140.907C210.425 140.907 220.885 150.588 222.73 163.419L231.29 222.902C233.374 237.395 224.161 251.023 210.748 253.275L114.568 269.43C113.322 269.637 112.046 269.745 110.792 269.745ZM198.405 141.746C197.19 141.746 195.951 141.846 194.744 142.054L98.564 158.208C92.273 159.264 86.7434 162.912 82.9827 168.471C79.2219 174.031 77.6915 180.837 78.6682 187.634L87.2279 247.117C89.0199 259.549 99.1485 268.931 110.792 268.931C112.015 268.931 113.246 268.831 114.453 268.624L210.633 252.469C223.622 250.283 232.551 237.087 230.536 223.043L221.977 163.56C220.192 151.128 210.056 141.746 198.412 141.746H198.405Z" fill="#89C764"/>
<path d="M110.046 257.106C104.032 257.106 98.8021 252.261 97.8715 245.846L89.1657 185.349C88.6581 181.842 89.4579 178.327 91.396 175.46C93.3417 172.585 96.195 170.707 99.4404 170.158L197.258 153.729C197.881 153.621 198.512 153.572 199.15 153.572C205.164 153.572 210.394 158.416 211.325 164.832L220.031 225.328C220.538 228.835 219.746 232.35 217.8 235.226C215.855 238.101 213.001 239.979 209.756 240.527L111.938 256.956C111.315 257.064 110.677 257.114 110.046 257.114V257.106ZM199.15 154.394C198.558 154.394 197.958 154.444 197.381 154.544L99.5635 170.973C96.518 171.488 93.8416 173.25 92.0189 175.942C90.1962 178.635 89.4502 181.934 89.927 185.216L98.6329 245.713C99.502 251.738 104.401 256.275 110.046 256.275C110.638 256.275 111.23 256.225 111.815 256.125L209.633 239.697C212.678 239.19 215.355 237.42 217.177 234.727C219 232.035 219.746 228.736 219.269 225.453L210.563 164.956C209.702 158.931 204.795 154.394 199.15 154.394Z" fill="#89C764"/>
<path d="M361.424 153.372C368.031 101.335 358.425 39.417 357.994 36.7079C356.195 25.3315 346.205 17.6946 335.676 19.6308C325.163 21.5671 318.072 32.3701 319.856 43.7465C319.956 44.3697 329.585 106.603 322.394 152.724C322.302 153.306 322.333 153.879 322.286 154.452L321.564 154.469C321.44 93.2575 292.493 16.3816 291.201 12.9828C287.14 2.31277 275.819 -2.84775 265.967 1.59811C256.085 5.97748 251.371 18.1932 255.424 28.8716C255.716 29.6278 283.248 102.831 282.902 155.533L282.21 155.549C268.075 87.0666 233.851 28.7718 232.544 25.9963C227.699 15.7085 216.062 11.62 206.534 16.847C197.013 22.0823 193.221 34.6636 198.066 44.9514C198.22 45.2838 237.066 119.833 250.694 166.568C250.848 167.092 250.194 167.541 249.879 167.109C237.996 150.696 212.333 120.082 171.249 133.495L140.809 143.492C130.55 146.716 124.643 158.308 127.627 169.394C130.58 180.396 141.17 186.753 151.353 183.712L151.599 183.637L182.323 173.673L182.485 173.624C198.435 168.854 218.216 178.31 228.452 197.083C233.097 205.601 236.712 235.234 208.464 236.971C180.954 238.666 160.297 240.021 155.452 239.638C144.808 238.649 135.441 247.167 134.526 258.677C133.611 270.178 141.493 280.299 152.145 281.288C156.513 281.695 179.286 281.471 193.252 279.851C230.652 276.543 273.451 311.894 324.101 300.825C375.706 289.548 378.106 239.572 373.33 207.42C368.554 175.269 361.471 153.356 361.471 153.356H361.432L361.424 153.372Z" fill="#192548"/>
<path d="M232.198 188.565L231.575 188.075C231.721 187.851 246.725 165.821 275.396 158.666C310.074 150.007 338.414 158.583 338.691 158.666L338.475 159.464C338.199 159.38 310.035 150.854 275.566 159.464C247.195 166.552 232.344 188.333 232.198 188.549V188.565Z" fill="white"/>
<path d="M349.396 212.049C308.035 190.858 264.644 204.429 264.214 204.57L263.991 203.772C264.429 203.631 308.089 189.969 349.719 211.293L349.388 212.041L349.396 212.049Z" fill="white"/>
<path d="M268.436 48.4664L268.39 47.6354C268.467 47.6354 276.534 47.0703 286.101 41.8101L286.447 42.5496C276.726 47.893 268.513 48.4664 268.436 48.4664Z" fill="white"/>
<path d="M280.11 96.2906C279.926 96.2906 279.833 96.2906 279.818 96.2906L279.841 95.4596C279.918 95.4596 288.001 95.7006 297.968 91.396L298.252 92.1688C289.193 96.0828 281.648 96.2989 280.102 96.2989L280.11 96.2906Z" fill="white"/>
<path d="M216.309 70.4717L216.132 69.6656C216.209 69.649 224.061 67.5632 232.621 60.5662L233.082 61.231C224.384 68.336 216.386 70.4551 216.309 70.4717Z" fill="white"/>
<path d="M235.512 117.082L235.335 116.276C235.412 116.259 243.264 114.174 251.824 107.177L252.285 107.841C243.587 114.946 235.589 117.065 235.512 117.082Z" fill="white"/>
<path d="M335.199 62.3444C330.731 62.3444 327.924 61.7378 327.878 61.7295L328.032 60.9151C328.109 60.9317 336.038 62.6436 346.536 60.217L346.697 61.0314C342.298 62.0452 338.337 62.3444 335.199 62.3444Z" fill="white"/>
<path d="M339.067 104.418C333.576 104.418 330.054 103.529 330 103.512L330.177 102.706C330.254 102.731 338.121 104.709 348.688 102.665L348.827 103.479C345.197 104.185 341.874 104.418 339.067 104.418Z" fill="white"/>
<path d="M358.578 375C359.101 346.887 357.54 302.944 348.204 262.931C316.672 265.723 268.197 268.482 268.197 268.482C268.197 268.482 272.466 327.384 271.058 375H358.571H358.578Z" fill="#192548"/>
<path d="M287.37 301.032C277.257 301.032 267.897 298.398 267.774 298.373L267.951 297.567C268.121 297.609 284.786 302.038 297.337 299.246L297.491 300.06C294.277 300.775 290.793 301.041 287.378 301.041L287.37 301.032Z" fill="white"/>
<path d="M337.767 293.355C337.606 293.355 337.452 293.355 337.298 293.355L337.314 292.524C355.148 292.898 365.946 270.843 366.069 270.618L366.731 271.051C366.608 271.275 355.81 293.355 337.775 293.355H337.767Z" fill="white"/>
<path d="M314.649 341.918L313.88 341.885C314.295 330.034 312.849 312.218 312.834 312.035L313.603 311.96C313.618 312.135 315.072 330.01 314.657 341.909L314.649 341.918Z" fill="white"/>
<path d="M207.894 234.004L110.076 250.433C107.262 250.907 104.608 248.804 104.17 245.771L95.4641 185.274C95.2565 183.853 95.7641 181.925 97.1561 180.014C98.0251 178.817 98.2866 179.142 99.7863 178.892L197.604 162.463C200.419 161.99 203.072 164.092 203.511 167.125L212.217 227.622C212.432 229.143 212.601 229.567 211.932 230.805C211.332 231.91 209.894 233.672 207.902 234.004H207.894Z" fill="#8A9AA7"/>
<path d="M198.409 161.442L100.598 177.879C97.7737 178.353 95.84 181.212 96.2793 184.264L104.986 244.757C105.425 247.809 108.071 249.898 110.896 249.424L208.707 232.987C211.532 232.512 213.465 229.653 213.026 226.601L204.319 166.108C203.88 163.056 201.234 160.967 198.409 161.442Z" fill="#CDCECF"/>
<path d="M205.603 214.226L203.395 214.592L201.903 204.213L201.496 204.279L202.995 214.659L196.012 215.83L194.52 205.451L194.113 205.518L195.605 215.905L188.629 217.077L187.137 206.689L186.73 206.764L188.222 217.143L181.246 218.315L179.746 207.936L179.347 208.002L180.839 218.381L178.631 218.755L178.693 219.188L180.9 218.822L182.392 229.201L182.8 229.135L181.308 218.755L188.283 217.584L189.783 227.963L190.183 227.896L188.691 217.509L195.666 216.337L197.166 226.725L197.566 226.65L196.074 216.271L203.057 215.099L204.549 225.478L204.957 225.412L203.457 215.033L205.664 214.659L205.603 214.226Z" fill="#758089"/>
<path d="M192.759 220.101L191.26 220.351L191.975 225.32L192.383 225.253L192.113 223.384L193.213 223.201C194.005 223.068 194.544 222.262 194.421 221.414C194.298 220.567 193.552 219.968 192.767 220.101H192.759ZM193.144 222.76L192.044 222.943L191.721 220.716L192.821 220.533C193.39 220.442 193.921 220.857 194.005 221.472C194.09 222.087 193.705 222.661 193.136 222.76H193.144Z" fill="#758089"/>
<path d="M197.82 210.279L198.92 210.096C199.712 209.963 200.25 209.157 200.127 208.31C200.004 207.462 199.258 206.864 198.474 206.997L196.974 207.246L197.689 212.215L198.097 212.149L197.828 210.279H197.82ZM197.436 207.62L198.535 207.437C199.104 207.346 199.635 207.761 199.72 208.376C199.804 208.991 199.42 209.564 198.851 209.664L197.751 209.847L197.428 207.62H197.436Z" fill="#758089"/>
<path d="M184.138 216.188L184.869 216.063C185.945 215.88 186.53 215.174 186.391 214.218L185.707 209.448C185.538 208.293 184.538 207.504 183.469 207.678L183.115 207.736C182.046 207.919 181.316 208.999 181.485 210.155L182.169 214.925C182.308 215.88 183.061 216.362 184.138 216.188ZM181.885 210.088C181.754 209.174 182.331 208.318 183.177 208.177L183.531 208.119C184.377 207.977 185.169 208.609 185.299 209.515L185.984 214.285C186.13 215.29 185.207 215.556 184.799 215.623L184.069 215.747C183.669 215.814 182.715 215.864 182.569 214.858L181.885 210.088Z" fill="#758089"/>
<path d="M183.676 210.387C184.246 210.288 184.53 210.429 184.53 210.437L184.622 210.238L184.715 210.038C184.676 210.013 184.315 209.83 183.615 209.947C183 210.047 182.623 210.396 182.607 210.412L182.877 210.745C182.877 210.745 183.184 210.462 183.684 210.379L183.676 210.387Z" fill="#758089"/>
<path d="M184.901 213.383L183.381 213.638L183.444 214.073L184.964 213.818L184.901 213.383Z" fill="#758089"/>
<path d="M191.705 214.916L192.059 214.858C193.128 214.675 193.859 213.595 193.689 212.44L193.005 207.67C192.867 206.714 192.113 206.232 191.036 206.407L190.306 206.531C189.229 206.714 188.644 207.421 188.783 208.376L189.467 213.146C189.636 214.301 190.636 215.091 191.705 214.916ZM189.19 208.301C189.044 207.296 189.967 207.03 190.375 206.964L191.105 206.839C191.505 206.772 192.459 206.723 192.605 207.728L193.29 212.498C193.42 213.412 192.843 214.268 191.997 214.409L191.644 214.468C190.798 214.609 190.006 213.977 189.875 213.071L189.19 208.301Z" fill="#758089"/>
<path d="M192.574 212.174L192.305 211.841C192.305 211.841 191.998 212.124 191.498 212.207C190.929 212.307 190.644 212.157 190.644 212.157L190.459 212.548C190.498 212.573 190.859 212.755 191.559 212.639C192.175 212.539 192.551 212.19 192.567 212.174H192.574Z" fill="#758089"/>
<path d="M191.758 208.471L190.238 208.727L190.301 209.162L191.821 208.906L191.758 208.471Z" fill="#758089"/>
<path d="M199.974 217.235L199.62 217.293C198.551 217.476 197.82 218.556 197.99 219.711L198.674 224.481C198.813 225.437 199.566 225.919 200.643 225.744L201.374 225.619C202.45 225.437 203.035 224.73 202.896 223.775L202.212 219.005C202.043 217.85 201.043 217.06 199.974 217.235ZM202.489 223.849C202.635 224.855 201.712 225.121 201.304 225.187L200.574 225.312C200.174 225.378 199.22 225.428 199.074 224.423L198.39 219.653C198.259 218.739 198.836 217.883 199.682 217.742L200.035 217.683C200.881 217.542 201.674 218.174 201.804 219.079L202.489 223.849Z" fill="#758089"/>
<path d="M199.104 219.977L199.373 220.309C199.373 220.309 199.681 220.027 200.181 219.943C200.75 219.844 201.034 219.993 201.034 219.993L201.219 219.603C201.18 219.578 200.819 219.395 200.119 219.511C199.504 219.611 199.127 219.96 199.112 219.977H199.104Z" fill="#758089"/>
<path d="M201.407 222.944L199.887 223.199L199.95 223.635L201.47 223.379L201.407 222.944Z" fill="#758089"/>
<path d="M185.392 219.686L184.661 219.811C183.584 219.994 183 220.7 183.138 221.656L183.823 226.426C183.992 227.581 184.992 228.37 186.061 228.196L186.414 228.137C187.483 227.955 188.214 226.874 188.045 225.719L187.36 220.949C187.222 219.994 186.468 219.512 185.392 219.686ZM187.637 225.786C187.768 226.7 187.191 227.556 186.345 227.697L185.991 227.755C185.146 227.896 184.353 227.265 184.223 226.359L183.538 221.589C183.392 220.584 184.315 220.318 184.723 220.251L185.453 220.127C185.853 220.06 186.807 220.01 186.953 221.016L187.637 225.786Z" fill="#758089"/>
<path d="M185.846 225.486C185.277 225.586 184.992 225.437 184.992 225.437L184.808 225.827C184.846 225.852 185.208 226.035 185.907 225.919C186.523 225.819 186.899 225.47 186.915 225.453L186.646 225.121C186.646 225.121 186.338 225.403 185.838 225.486H185.846Z" fill="#758089"/>
<path d="M186.109 221.759L184.589 222.014L184.652 222.449L186.172 222.194L186.109 221.759Z" fill="#758089"/>
<g opacity="0.6">
<path d="M149.914 242.879L123.02 247.392L142.708 170.815L169.602 166.294L149.914 242.879Z" fill="#DFDFDF"/>
</g>
<g opacity="0.6">
<path d="M164.52 240.42L154.875 242.04L174.564 165.463L184.216 163.843L164.52 240.42Z" fill="#DFDFDF"/>
</g>
<path d="M110.615 188.789C110.499 187.983 109.776 187.493 108.784 187.618V187.593C109.615 187.344 110.046 186.629 109.93 185.839C109.784 184.809 108.984 184.285 107.731 184.493L104.293 185.075L105.231 191.59L109.046 190.95C110.146 190.767 110.769 189.945 110.607 188.798L110.615 188.789ZM106.062 186.296L107.723 186.014C108.069 185.956 108.331 186.08 108.377 186.404C108.431 186.787 108.284 187.011 107.954 187.069L106.216 187.36L106.062 186.288V186.296ZM108.423 189.521L106.569 189.837L106.408 188.74L108.215 188.432C108.638 188.366 108.877 188.499 108.93 188.848C108.984 189.23 108.815 189.454 108.415 189.521H108.423Z" fill="#192548"/>
<path d="M114.845 190.061C116.86 189.72 118.167 188.199 117.875 186.138C117.583 184.077 115.929 183.014 113.883 183.354C111.861 183.695 110.553 185.241 110.853 187.318C111.146 189.354 112.807 190.401 114.845 190.061ZM114.106 184.9C115.414 184.684 116.029 184.958 116.237 186.388C116.421 187.659 115.937 188.291 114.629 188.507C113.322 188.723 112.707 188.507 112.491 187.019C112.284 185.59 112.799 185.116 114.106 184.9Z" fill="#192548"/>
<path d="M120.829 188.964L120.306 185.332L120.183 184.543L120.221 184.534L120.813 185.241L123.62 188.49L125.651 188.149L124.712 181.634L123.143 181.9L123.651 185.424L123.759 186.138L123.728 186.147L123.174 185.49L120.436 182.349L118.329 182.706L119.26 189.221L120.829 188.964Z" fill="#192548"/>
<path d="M132.726 184.119L132.188 180.38L130.619 180.646L131.172 184.518C131.319 185.515 130.896 185.781 129.796 185.972C128.719 186.155 128.212 186.055 128.065 185.042L127.512 181.169L125.935 181.435L126.473 185.175C126.743 187.044 128.05 187.85 130.019 187.518C131.972 187.186 132.995 185.989 132.726 184.127V184.119Z" fill="#192548"/>
<path d="M135.533 183.828L136.802 183.845C137.556 183.845 137.779 183.887 137.833 184.194C137.887 184.593 137.51 184.784 136.764 184.909C135.933 185.05 135.395 184.892 135.164 184.119L133.657 184.809C134.088 186.147 135.295 186.621 136.956 186.346C138.471 186.089 139.594 185.158 139.356 183.712C139.194 182.731 138.31 182.2 137.225 182.2H136.118C135.295 182.208 135.041 182.191 134.98 181.826C134.934 181.493 135.249 181.269 135.949 181.144C136.741 181.011 137.218 181.045 137.41 181.834L138.802 181.153C138.441 179.889 137.456 179.399 135.733 179.682C134.326 179.914 133.195 180.804 133.403 182.133C133.588 183.247 134.472 183.812 135.533 183.828Z" fill="#192548"/>
<path d="M111.315 207.046C112.707 206.814 113.315 205.85 113.107 204.404C112.899 202.941 112.077 202.235 110.7 202.459C109.846 202.601 109.246 203.191 109.077 204.063H109.062L108.777 202.875L108.216 202.966L109.077 208.941L109.746 208.825L109.331 206.024H109.346C109.762 206.814 110.477 207.179 111.307 207.038L111.315 207.046ZM109.185 205.06C109.039 204.022 109.546 203.34 110.569 203.166C111.677 202.983 112.277 203.432 112.43 204.512C112.584 205.592 112.146 206.215 111.038 206.407C110.031 206.573 109.339 206.107 109.185 205.06Z" fill="#192548"/>
<path d="M113.976 205.385C114.084 206.124 114.73 206.481 115.683 206.315C116.537 206.174 117.152 205.592 117.291 204.736H117.306L117.56 205.9L118.129 205.808L117.714 202.933C117.56 201.853 116.691 201.454 115.583 201.637C114.537 201.811 113.876 202.418 113.938 203.448L114.53 203.506C114.507 202.775 114.814 202.368 115.66 202.227C116.445 202.094 116.937 202.343 117.052 203.016L117.083 203.199L116.314 203.465C114.507 204.08 113.822 204.379 113.968 205.385H113.976ZM117.152 203.631C117.337 204.736 116.668 205.609 115.799 205.758C115.114 205.875 114.707 205.675 114.645 205.21C114.545 204.512 115.299 204.279 116.391 203.897L117.16 203.631H117.152Z" fill="#192548"/>
<path d="M118.814 204.57C118.922 205.31 119.568 205.667 120.521 205.501C121.375 205.36 121.99 204.778 122.129 203.922H122.144L122.398 205.085L122.967 204.986L122.552 202.11C122.398 201.03 121.529 200.631 120.421 200.822C119.375 200.997 118.714 201.604 118.775 202.634L119.368 202.684C119.345 201.953 119.652 201.545 120.498 201.404C121.283 201.271 121.775 201.52 121.89 202.194L121.913 202.376L121.144 202.642C119.337 203.266 118.652 203.556 118.799 204.562L118.814 204.57ZM121.982 202.817C122.167 203.922 121.498 204.795 120.629 204.944C119.944 205.061 119.537 204.861 119.475 204.396C119.375 203.698 120.129 203.465 121.221 203.083L121.99 202.817H121.982Z" fill="#192548"/>
<path d="M125.735 204.055C124.919 204.196 124.435 203.955 124.227 203.332L123.62 203.606C123.889 204.446 124.727 204.795 125.765 204.62C126.927 204.429 127.534 203.831 127.396 202.966C127.28 202.302 126.796 201.994 125.904 201.986L124.904 201.969C124.389 201.961 124.15 201.778 124.096 201.446C124.035 200.997 124.373 200.69 125.058 200.582C125.75 200.465 126.227 200.739 126.442 201.413L127.05 201.155C126.719 200.274 126.042 199.883 124.958 200.066C123.866 200.249 123.304 200.798 123.427 201.587C123.535 202.219 123.966 202.568 124.735 202.568L125.627 202.593C126.342 202.617 126.665 202.759 126.734 203.149C126.804 203.623 126.442 203.93 125.727 204.055H125.735Z" fill="#192548"/>
<path d="M135.171 202.359C134.026 202.551 133.403 202.085 133.249 201.021C133.095 199.958 133.556 199.31 134.702 199.118C135.656 198.961 136.125 199.268 136.356 200.041L136.986 199.775C136.617 198.686 135.879 198.238 134.61 198.445C133.118 198.695 132.364 199.659 132.58 201.129C132.787 202.584 133.779 203.273 135.271 203.024C136.54 202.808 137.117 202.127 137.156 200.922L136.479 200.872C136.479 201.711 136.164 202.185 135.171 202.351V202.359Z" fill="#192548"/>
<path d="M139.563 197.615C138.517 197.789 137.856 198.396 137.918 199.426L138.51 199.476C138.487 198.745 138.794 198.338 139.64 198.197C140.425 198.064 140.917 198.313 141.032 198.986L141.055 199.169L140.286 199.435C138.479 200.058 137.794 200.349 137.941 201.354C138.048 202.094 138.694 202.451 139.648 202.285C140.502 202.144 141.117 201.562 141.255 200.706H141.271L141.524 201.87L142.094 201.77L141.678 198.895C141.524 197.814 140.655 197.415 139.548 197.607L139.563 197.615ZM139.771 201.728C139.094 201.845 138.679 201.645 138.617 201.18C138.517 200.482 139.271 200.249 140.363 199.867L141.132 199.601C141.317 200.706 140.648 201.579 139.779 201.728H139.771Z" fill="#192548"/>
<path d="M143.578 198.254H143.57L143.286 197.083L142.724 197.174L143.355 201.57L144.024 201.454L143.747 199.526C143.555 198.18 144.462 197.382 145.5 197.382V196.676C144.493 196.709 143.724 197.158 143.57 198.246L143.578 198.254Z" fill="#192548"/>
<path d="M150.261 193.742L149.592 193.859L150.069 197.191H150.061C149.646 196.41 148.907 196.052 148.054 196.194C146.677 196.426 146.1 197.374 146.308 198.836C146.515 200.29 147.361 201.005 148.753 200.772C149.584 200.631 150.169 200.058 150.345 199.177H150.353L150.638 200.357L151.199 200.266L150.261 193.751V193.742ZM148.838 200.058C147.723 200.241 147.131 199.792 146.977 198.712C146.823 197.631 147.261 197.008 148.369 196.817C149.392 196.642 150.084 197.124 150.23 198.163C150.384 199.218 149.846 199.883 148.838 200.058Z" fill="#192548"/>
<path d="M127.312 195.755L106.353 199.277L106.475 200.131L127.434 196.608L127.312 195.755Z" fill="#192548"/>
<path d="M129.082 208.215L108.123 211.737L108.245 212.591L129.204 209.069L129.082 208.215Z" fill="#192548"/>
<path d="M86.7123 182.449H86.1355C86.1355 174.372 80.0521 167.807 72.5845 167.807V167.183C80.0598 167.183 86.1355 160.61 86.1355 152.541H86.7123C86.7123 160.619 92.7956 167.183 100.263 167.183V167.807C92.7879 167.807 86.7123 174.38 86.7123 182.449ZM75.4223 167.491C80.9366 168.713 85.2818 173.416 86.42 179.374C87.5506 173.416 91.9035 168.721 97.4177 167.491C91.9035 166.269 87.5583 161.566 86.42 155.608C85.2895 161.566 80.9366 166.261 75.4223 167.491Z" fill="#192548"/>
<path d="M209.026 251.588C203.873 245.738 195.275 245.505 189.86 251.073L189.46 250.624C194.875 245.056 195.09 235.766 189.937 229.916L190.353 229.483C195.505 235.334 204.104 235.566 209.518 229.999L209.918 230.447C204.503 236.015 204.288 245.306 209.441 251.156L209.026 251.588ZM199.197 246.411C199.32 246.411 199.435 246.411 199.558 246.411C202.358 246.486 205.019 247.433 207.264 249.128C204.288 243.968 204.45 237.328 207.657 232.342C202.881 235.558 196.728 235.392 192.114 231.927C195.09 237.079 194.936 243.727 191.729 248.713C193.952 247.209 196.521 246.403 199.197 246.403V246.411Z" fill="#192548"/>
<path d="M213.202 197.689C210.295 194.548 205.573 194.548 202.665 197.689L202.258 197.249C203.665 195.728 204.442 193.709 204.442 191.557C204.442 189.404 203.665 187.385 202.258 185.864L202.665 185.424C204.073 186.945 205.942 187.784 207.934 187.784C209.925 187.784 211.794 186.945 213.202 185.424L213.609 185.864C212.202 187.385 211.425 189.404 211.425 191.557C211.425 193.709 212.202 195.728 213.609 197.249L213.202 197.689ZM207.934 194.714C209.302 194.714 210.671 195.088 211.894 195.836C211.217 194.548 210.856 193.086 210.856 191.557C210.856 190.028 211.217 188.573 211.894 187.285C209.51 188.748 206.372 188.748 203.988 187.285C204.665 188.573 205.026 190.036 205.026 191.557C205.026 193.077 204.665 194.54 203.988 195.836C205.211 195.088 206.58 194.714 207.949 194.714H207.934Z" fill="#192548"/>
<path d="M80.7442 195.786C79.3368 194.266 77.4679 193.426 75.476 193.426C73.4841 193.426 71.6153 194.266 70.2079 195.786L69.8003 195.346C71.2077 193.825 71.9844 191.806 71.9844 189.654C71.9844 187.501 71.2077 185.482 69.8003 183.961L70.2079 183.521C73.115 186.662 77.8371 186.662 80.7442 183.521L81.1518 183.961C79.7444 185.482 78.9676 187.501 78.9676 189.654C78.9676 191.806 79.7444 193.825 81.1518 195.346L80.7442 195.786ZM75.476 192.803C76.8834 192.803 78.237 193.194 79.429 193.925C78.7523 192.637 78.3908 191.174 78.3908 189.654C78.3908 188.133 78.7523 186.67 79.429 185.374C76.9834 186.87 73.961 186.87 71.5153 185.374C72.1921 186.662 72.5536 188.124 72.5536 189.654C72.5536 191.183 72.1921 192.637 71.5153 193.925C72.7074 193.194 74.0609 192.803 75.4683 192.803H75.476Z" fill="#192548"/>
<path d="M117.129 265.516H116.552C116.552 262.84 114.537 260.663 112.061 260.663V260.039C114.537 260.039 116.552 257.862 116.552 255.186H117.129C117.129 257.862 119.144 260.039 121.621 260.039V260.663C119.144 260.663 117.129 262.84 117.129 265.516ZM113.745 260.347C115.183 260.895 116.329 262.133 116.837 263.687C117.345 262.133 118.49 260.895 119.929 260.347C118.49 259.798 117.345 258.56 116.837 257.006C116.329 258.56 115.183 259.798 113.745 260.347Z" fill="#192548"/>
<path d="M127.142 127.686H126.565C126.565 125.01 124.55 122.833 122.074 122.833V122.21C124.55 122.21 126.565 120.033 126.565 117.357H127.142C127.142 120.033 129.157 122.21 131.633 122.21V122.833C129.157 122.833 127.142 125.01 127.142 127.686ZM123.758 122.517C125.196 123.066 126.342 124.304 126.85 125.858C127.357 124.304 128.503 123.066 129.941 122.517C128.503 121.969 127.357 120.731 126.85 119.177C126.342 120.731 125.196 121.969 123.758 122.517Z" fill="#192548"/>
<path d="M174.571 262.267H173.994C173.994 259.591 171.979 257.414 169.502 257.414V256.79C171.979 256.79 173.994 254.613 173.994 251.937H174.571C174.571 254.613 176.586 256.79 179.062 256.79V257.414C176.586 257.414 174.571 259.591 174.571 262.267ZM171.187 257.106C172.625 257.655 173.771 258.893 174.278 260.447C174.786 258.893 175.932 257.655 177.37 257.106C175.932 256.558 174.786 255.319 174.278 253.765C173.771 255.319 172.625 256.558 171.187 257.106Z" fill="#192548"/>
</svg>
