<svg width="376" height="440" viewBox="0 0 376 440" fill="none" xmlns="http://www.w3.org/2000/svg">
<path d="M375.25 0H0.25V440H375.25V0Z" fill="#D9D9D9"/>
<path d="M53.7922 83.7867L157.524 63.379C168.749 61.1707 179.657 68.4926 181.866 79.7175L233.821 343.805C236.029 355.03 228.707 365.939 217.483 368.147L113.751 388.555C102.193 390.829 90.967 383.294 88.6931 371.735L36.9749 108.855C34.701 97.2961 42.2357 86.0705 53.7942 83.7966L53.7922 83.7867Z" fill="#16254C"/>
<path d="M169.734 60.9824L69.4763 80.7068C56.086 83.3411 47.3666 96.3317 50.0009 109.722L100.418 365.99C103.052 379.38 116.043 388.099 129.433 385.465L229.691 365.741C243.082 363.106 251.801 350.116 249.167 336.725L198.75 80.4577C196.115 67.0674 183.125 58.348 169.734 60.9824Z" fill="#3472AF"/>
<path d="M127.85 377.25C119.01 378.99 110.4 373.21 108.65 364.37L58.22 108.1C56.48 99.26 62.26 90.65 71.1 88.91L99.92 83.24L100.08 84.06C100.81 87.75 104.4 90.16 108.09 89.44L142.19 82.73C145.88 82 148.29 78.41 147.57 74.72L147.41 73.9L171.36 69.19C180.2 67.45 188.82 73.23 190.56 82.07L241 338.33C242.74 347.17 236.96 355.78 228.12 357.53L127.86 377.26L127.85 377.25Z" fill="white"/>
<path d="M124.69 378.06C116.81 378.06 109.75 372.49 108.17 364.47L57.73 108.2C56.86 103.79 57.77 99.3 60.28 95.56C62.79 91.82 66.6 89.28 71.01 88.41L100.32 82.64L100.58 83.95C101.25 87.37 104.58 89.6 108 88.93L142.1 82.22C145.52 81.55 147.76 78.22 147.08 74.8L146.82 73.49L171.26 68.68C175.67 67.81 180.16 68.72 183.9 71.23C187.64 73.74 190.18 77.55 191.05 81.96L241.49 338.22C243.28 347.34 237.33 356.21 228.21 358L127.95 377.73C126.86 377.95 125.77 378.05 124.69 378.05V378.06ZM99.52 83.82L71.19 89.4C67.04 90.22 63.46 92.6 61.1 96.12C58.74 99.64 57.89 103.86 58.7 108.01L109.14 364.27C110.83 372.84 119.18 378.44 127.75 376.76L228.01 357.03C236.58 355.34 242.18 346.99 240.5 338.42L190.06 82.16C189.24 78.01 186.86 74.43 183.34 72.07C179.82 69.71 175.6 68.86 171.45 69.67L147.99 74.29L148.05 74.62C148.83 78.58 146.24 82.44 142.28 83.22L108.18 89.93C104.22 90.71 100.36 88.12 99.58 84.16L99.52 83.83V83.82Z" fill="#393B56"/>
<path d="M138.56 75.1062L109.696 80.8004L109.89 81.7815L138.754 76.0873L138.56 75.1062Z" fill="#393B56"/>
<path d="M120.81 116.98C120.53 115.54 119.59 114.77 118.49 114.99C117.39 115.21 116.8 116.28 117.08 117.71C117.36 119.14 118.28 119.92 119.41 119.7C120.54 119.48 121.08 118.42 120.8 116.98M114.28 114.19L116.29 113.79L116.37 114.2L116.44 115.2L116.66 115.16C116.92 114.24 117.63 113.44 118.82 113.2C120.64 112.84 122.34 114.07 122.83 116.59C123.31 119.04 122.22 120.89 120.4 121.24C119.21 121.47 118.24 120.95 117.66 120.25L117.44 120.29L117.77 121.3L118.58 125.41L116.57 125.81L114.28 114.19Z" fill="#89C764"/>
<path d="M129.25 116.19L129.21 115.97C127.64 116.28 125.95 116.63 126.16 117.71C126.27 118.26 126.79 118.5 127.56 118.35C128.77 118.11 129.46 117.24 129.26 116.19M124.21 118.28C123.72 115.77 126.7 115.26 128.99 114.81L128.87 114.2C128.7 113.32 128.13 112.99 127.22 113.17C126.31 113.35 125.82 113.87 125.94 114.96L123.99 115.25C123.69 113.06 125.06 111.92 126.9 111.56C128.85 111.18 130.46 111.72 130.9 113.97L131.87 118.9L130.3 119.21L129.88 117.92L129.71 117.95C129.49 119 128.67 119.69 127.32 119.96C125.73 120.27 124.49 119.65 124.22 118.29" fill="#89C764"/>
<path d="M137.67 114.53L137.63 114.31C136.06 114.62 134.37 114.97 134.58 116.05C134.69 116.6 135.21 116.84 135.98 116.69C137.19 116.45 137.88 115.58 137.68 114.53M132.63 116.62C132.14 114.11 135.12 113.6 137.41 113.15L137.29 112.54C137.12 111.66 136.55 111.33 135.64 111.51C134.73 111.69 134.24 112.21 134.36 113.3L132.41 113.59C132.11 111.4 133.48 110.26 135.32 109.9C137.27 109.52 138.88 110.06 139.32 112.31L140.29 117.24L138.72 117.55L138.3 116.26L138.13 116.29C137.91 117.34 137.09 118.03 135.74 118.3C134.15 118.61 132.91 117.99 132.64 116.63" fill="#89C764"/>
<path d="M141.01 114.69L142.87 114.13C143.19 114.83 143.78 115.09 144.8 114.89C145.74 114.7 146.23 114.27 146.11 113.67C146.04 113.29 145.75 113.02 144.85 113.09L143.44 113.2C142.14 113.31 140.78 113.02 140.49 111.56C140.17 109.96 141.27 108.72 143.25 108.33C145.23 107.94 146.58 108.65 147.01 110.27L145.28 110.74C145.06 110.02 144.5 109.7 143.55 109.89C142.64 110.07 142.26 110.57 142.38 111.13C142.46 111.54 142.81 111.72 143.53 111.67L144.99 111.55C146.44 111.46 147.74 111.74 148.03 113.24C148.34 114.83 147.37 116.01 145.12 116.46C142.92 116.89 141.55 116.23 141.02 114.71" fill="#89C764"/>
<path d="M150.655 99.5637L107.738 108.007L108.066 109.675L150.983 101.232L150.655 99.5637Z" fill="#89C764"/>
<path d="M154.948 121.395L112.031 129.838L112.359 131.506L155.276 123.063L154.948 121.395Z" fill="#89C764"/>
<path d="M173.1 349.78C181.627 349.78 188.54 342.867 188.54 334.34C188.54 325.813 181.627 318.9 173.1 318.9C164.573 318.9 157.66 325.813 157.66 334.34C157.66 342.867 164.573 349.78 173.1 349.78Z" fill="#89C764"/>
<path d="M172.1 340.56L165.94 335.85L166.96 334.51L171.53 338.01L177.34 326.79L178.84 327.56L172.1 340.56Z" fill="white"/>
<path d="M0.250013 266.64V250.19C-0.0899872 255.75 -0.0799872 261.23 0.250013 266.64Z" fill="#A7AEB7"/>
<path d="M23.87 43.35C14.83 55.94 6.96 69.47 0.25 83.83V85.62C7.08 70.75 15.16 56.77 24.47 43.79L23.86 43.35H23.87Z" fill="#A7AEB7"/>
<path d="M8.46 149.1C16.27 113.77 30.35 82.42 50.34 55.92L49.74 55.47C29.69 82.06 15.56 113.51 7.73 148.94L6.15 156.09C4.09 158.71 2.14 161.41 0.25 164.15V165.46C2.33 162.4 4.5 159.39 6.79 156.48L8.46 149.1Z" fill="#A7AEB7"/>
<path d="M46.32 357.7L46.81 357.13C18.26 332.58 2.38 301.3 0.25 266.64V274.78C4.21 306.42 19.84 334.94 46.32 357.7Z" fill="#A7AEB7"/>
<path d="M3.49 227.36C8.25 205.79 18.35 185.65 32.67 169.1L35.8 155.13C43.2 121.63 56.83 92.35 76.31 68.12L75.73 67.65C56.18 91.97 42.5 121.35 35.07 154.97L32.04 168.68C17.67 185.3 7.54 205.54 2.75 227.19C1.66 232.14 0.83 237.05 0.25 241.92V250.18C0.71 242.69 1.78 235.07 3.49 227.35V227.36Z" fill="#A7AEB7"/>
<path d="M368.02 69.92L367.43 70.38C370.16 73.85 372.76 77.47 375.25 81.2V79.85C372.94 76.44 370.53 73.12 368.02 69.92Z" fill="#A7AEB7"/>
<path d="M24 231.89C28.4 211.95 38.08 193.69 51.97 179.09L52.04 179.01L56.31 159.66C63.42 127.46 76.75 99.77 95.93 77.34L95.36 76.85C76.1 99.37 62.71 127.18 55.57 159.49L51.34 178.63C37.39 193.32 27.68 211.67 23.25 231.71C13.05 277.92 29.27 319.49 68.92 348.78L69.37 348.18C29.97 319.08 13.86 277.78 23.99 231.88L24 231.89Z" fill="#A7AEB7"/>
<path d="M355.87 359.54L356.44 360.03C364.43 350.66 370.72 339.91 375.25 327.96V325.76C370.71 338.41 364.22 349.73 355.87 359.54Z" fill="#A7AEB7"/>
<path d="M347.41 78.04L346.84 78.53C356.57 89.82 364.81 102.86 371.31 117.31C372.73 120.45 374.04 123.64 375.24 126.88V124.79C374.22 122.16 373.14 119.56 371.99 117C365.45 102.49 357.18 89.38 347.4 78.04H347.41Z" fill="#A7AEB7"/>
<path d="M44.5 236.41C48.5 218.28 57.71 202.12 71.12 189.66L71.21 189.58L76.82 164.19C83.56 133.67 96.39 107.88 114.94 87.53C115.09 87.36 115.24 87.2 115.39 87.04L115.75 86.65L115.2 86.14L114.84 86.52C114.69 86.68 114.53 86.85 114.38 87.02C95.74 107.47 82.86 133.37 76.08 164.02L70.52 189.19C57.04 201.74 47.79 218.01 43.76 236.24C34.6 277.72 52.45 315.32 92.72 339.41L93.1 338.77C53.12 314.85 35.4 277.54 44.48 236.4L44.5 236.41Z" fill="#A7AEB7"/>
<path d="M325.86 86.84C336.6 97.86 345.45 111.02 352.17 125.94C365.5 155.54 368.31 190.42 360.27 226.8L354.68 252.1L354.72 252.21C361.77 269.25 363.26 287.31 359.16 305.9C355.3 323.38 347.41 338.24 335.72 350.07L336.25 350.6C348.04 338.67 355.99 323.69 359.88 306.07C364.01 287.36 362.52 269.18 355.45 252.04L360.99 226.97C369.06 190.43 366.24 155.39 352.84 125.64C346.08 110.64 337.18 97.42 326.38 86.33L325.84 86.85L325.86 86.84Z" fill="#A7AEB7"/>
<path d="M65.01 240.94C68.56 224.88 77.23 211.09 90.09 201.08L90.2 201L97.33 168.73C103.27 141.85 114.41 119.29 130.46 101.69C132.15 99.84 133.97 97.97 135.87 96.12L135.35 95.58C133.44 97.43 131.61 99.32 129.91 101.18C113.78 118.88 102.57 141.55 96.6 168.56L89.53 200.57C76.59 210.69 67.86 224.59 64.29 240.78C57 273.81 72.25 303.76 106.14 322.94C109.3 324.73 113.52 327.08 118.17 329.42L118.51 328.75C113.87 326.42 109.66 324.07 106.51 322.29C72.93 303.29 57.81 273.64 65.03 240.95L65.01 240.94Z" fill="#A7AEB7"/>
<path d="M333.44 254.38L340.5 222.42C347.58 190.33 345.24 159.84 333.71 134.25C326.7 118.68 316.94 105.42 304.7 94.85L304.21 95.42C316.36 105.92 326.06 119.09 333.03 134.56C344.49 160.01 346.82 190.34 339.77 222.26L332.65 254.48L332.71 254.6C340.27 269.24 342.27 284.98 338.66 301.36C335.12 317.41 327.12 330.49 314.9 340.23L315.37 340.82C327.73 330.96 335.81 317.74 339.39 301.52C343.04 285 341.03 269.14 333.44 254.37V254.38Z" fill="#A7AEB7"/>
<path d="M78.68 243.96C81.88 229.49 90.14 217.52 102.58 209.34L102.71 209.26L110.99 171.75C116.39 147.29 126.42 126.89 140.79 111.13C143.54 108.11 146.48 105.23 149.53 102.57L149.04 102.01C145.97 104.69 143.01 107.59 140.24 110.63C125.78 126.49 115.69 147.01 110.26 171.6L102.04 208.82C89.5 217.11 81.17 229.2 77.95 243.82C72.07 270.43 84.86 294.84 113.02 310.77C120.62 315.07 127.48 318.68 136.25 322.31L136.54 321.62C127.8 318.01 120.97 314.41 113.39 310.12C85.53 294.36 72.88 270.25 78.68 243.98V243.96Z" fill="#A7AEB7"/>
<path d="M318.62 256.58L326.83 219.41C333.26 190.29 331.22 162.83 320.94 140C313.73 123.99 303.18 110.8 289.58 100.79L289.14 101.39C302.63 111.32 313.1 124.41 320.26 140.3C330.47 162.98 332.49 190.27 326.1 219.24L317.83 256.71L317.91 256.84C325.85 269.71 328.24 283.67 325 298.35C321.7 313.28 313.12 325.36 300.19 333.29L300.58 333.93C313.69 325.9 322.38 313.65 325.73 298.51C329 283.69 326.61 269.58 318.63 256.57L318.62 256.58Z" fill="#A7AEB7"/>
<path d="M312.05 295.5C314.53 284.26 312.68 273.56 306.56 263.69C305.66 262.24 304.7 260.86 303.64 259.5L313.16 216.39C318.93 190.23 317.21 165.81 308.18 145.75C300.73 129.22 289.1 116.2 273.6 107.07L273.22 107.72C288.59 116.77 300.12 129.67 307.5 146.06C316.47 165.97 318.17 190.23 312.43 216.23L302.83 259.68L302.94 259.82C304.03 261.21 305 262.61 305.92 264.09C311.94 273.79 313.76 284.3 311.32 295.34C308.11 309.88 298.91 320.07 283.98 325.63L284.24 326.33C299.42 320.67 308.78 310.3 312.05 295.5Z" fill="#A7AEB7"/>
<path d="M92.35 246.98C95.13 234.4 102.93 224.5 114.9 218.35L115.06 218.27L124.67 174.77C129.54 152.73 138.45 134.49 151.15 120.56C154.97 116.37 159.17 112.55 163.63 109.2L163.18 108.6C158.69 111.97 154.45 115.83 150.6 120.05C137.81 134.08 128.84 152.44 123.94 174.6L114.41 217.76C102.32 224.02 94.45 234.06 91.63 246.82C85.53 274.46 106.74 291.11 119.93 298.57C128.93 303.66 139.12 309.09 155.88 314.56L156.11 313.85C139.41 308.4 129.26 302.99 120.29 297.92C107.28 290.56 86.36 274.15 92.36 246.98H92.35Z" fill="#A7AEB7"/>
<path d="M298.38 292.48C300.05 284.94 298.79 277.73 294.66 271.07C293.03 268.44 290.99 265.96 288.41 263.49L299.48 213.37C304.6 190.18 303.19 168.78 295.41 151.5C287.68 134.33 274.42 121.7 256 113.98L255.71 114.67C273.94 122.32 287.07 134.82 294.73 151.81C302.45 168.95 303.84 190.18 298.76 213.21L287.64 263.54L287.59 263.75L287.74 263.9C290.34 266.37 292.39 268.85 294.02 271.48C298.05 277.97 299.27 284.98 297.64 292.33C294.54 306.34 283.03 314.25 263.4 315.83H263.24L263.32 316.59H263.46C283.45 314.97 295.19 306.86 298.37 292.49L298.38 292.48Z" fill="#A7AEB7"/>
<path d="M106.02 250C108.3 239.66 115.35 232.39 126.97 228.4L127.17 228.33L138.33 177.78C142.66 158.16 150.45 142.08 161.48 129.98C166.54 124.43 172.23 119.78 178.4 116.17L178.02 115.52C171.79 119.18 166.04 123.87 160.93 129.48C149.81 141.68 141.96 157.87 137.6 177.62L126.53 227.76C114.93 231.8 107.59 239.43 105.29 249.84C102.12 264.21 109.36 276.51 126.81 286.39C138.35 292.92 150.88 299.35 177.17 306.17L177.36 305.44C151.16 298.64 138.68 292.24 127.18 285.73C110.05 276.03 102.93 264.01 106.02 250Z" fill="#A7AEB7"/>
<path d="M291.55 290.97C294.46 277.79 284.9 269.55 280.7 265.98L292.65 211.86C297.44 190.15 296.19 170.28 289.03 154.37C281.11 136.79 266.71 124.48 246.24 117.81L246.01 118.52C266.27 125.13 280.52 137.3 288.35 154.68C295.44 170.43 296.68 190.15 291.92 211.7L279.87 266.26L280.14 266.49C284.18 269.93 293.65 277.99 290.82 290.81C287.27 306.87 268.89 308.35 262.85 308.84C259.23 309.13 254.85 309.44 249.79 309.5V310.25C254.88 310.19 259.28 309.88 262.91 309.59C269.09 309.09 287.88 307.58 291.55 290.97Z" fill="#A7AEB7"/>
<path d="M112.86 251.51C115.69 238.69 127.67 235.37 132.78 233.95L132.68 233.59L132.9 233.92L133.12 233.86L145.17 179.3C149.24 160.89 156.47 145.89 166.66 134.71C172.41 128.4 179.02 123.43 186.31 119.92L185.98 119.24C178.61 122.79 171.92 127.83 166.1 134.2C155.82 145.48 148.52 160.6 144.43 179.13L132.48 233.25C127.18 234.72 115.03 238.16 112.12 251.34C108.45 267.95 124.86 277.23 130.25 280.29C143.12 287.58 156.39 294.22 188.41 301.72L188.58 300.99C156.65 293.51 143.44 286.89 130.62 279.63C125.35 276.65 109.3 267.56 112.85 251.5L112.86 251.51Z" fill="#A7AEB7"/>
<path d="M284.71 289.46C286.73 280.31 280.07 274.64 276.09 271.25C275.13 270.43 274.25 269.77 273.47 269.19C273.3 269.06 273.11 268.92 272.91 268.77L285.81 210.35C290.28 190.13 289.18 171.77 282.64 157.25C274.5 139.18 258.6 127.35 235.37 122.08L235.2 122.81C258.19 128.03 273.92 139.72 281.96 157.56C288.43 171.93 289.51 190.13 285.08 210.19L272.13 268.84L272.08 269.07L272.27 269.22C272.52 269.41 272.79 269.61 273.02 269.79C273.79 270.37 274.66 271.02 275.6 271.82C279.45 275.1 285.9 280.58 283.98 289.3C281.55 300.31 268.05 301.4 262.29 301.86C258.28 302.18 253.44 302.51 247.9 302.51C243.3 302.51 238.56 302.28 233.43 301.8L233.36 302.55C238.52 303.03 243.27 303.26 247.9 303.26C253.46 303.26 258.33 302.93 262.35 302.61C268.28 302.13 282.16 301.01 284.71 289.46Z" fill="#A7AEB7"/>
<path d="M134.08 273.55C129.05 270.7 117.26 264.03 119.7 253.02C121.62 244.31 129.78 242.05 134.66 240.7C135.84 240.37 136.91 240.15 137.86 239.95C138.14 239.89 138.47 239.82 138.78 239.75L139.01 239.7L152.01 180.81C155.81 163.61 162.48 149.69 171.84 139.43C178.38 132.26 186.12 127.05 194.85 123.96L194.6 123.25C185.75 126.38 177.91 131.65 171.28 138.92C161.83 149.28 155.1 163.32 151.27 180.65L138.37 239.07C138.14 239.12 137.9 239.17 137.68 239.22C136.73 239.42 135.65 239.65 134.45 239.98C129.41 241.38 120.98 243.71 118.96 252.86C116.41 264.41 128.53 271.28 133.71 274.2C146.89 281.66 160.7 288.48 196.28 296.33C197.55 296.61 198.8 296.88 200.03 297.14L200.19 296.41C198.96 296.15 197.71 295.88 196.44 295.6C160.97 287.77 147.21 280.98 134.08 273.55Z" fill="#A7AEB7"/>
<path d="M271.31 276.87C267.76 273.85 264.5 272.68 265.36 268.81L278.62 208.77C285.97 175.48 279.23 139.31 233.2 129.15C187.17 118.98 165.83 148.96 158.47 182.24L145.21 242.28C144.35 246.16 140.9 245.84 136.42 247.09C131.74 248.39 127.21 249.72 126.16 254.46C125.11 259.21 129.17 263.17 137.34 267.8C149.98 274.95 163.36 281.53 197.87 289.15C232.38 296.77 247.29 296.44 261.76 295.27C271.12 294.52 276.47 292.63 277.51 287.88C278.56 283.14 275.01 280.02 271.31 276.88V276.87Z" fill="#89C764"/>
<path d="M264.804 232.489L259.406 256.879L260.138 257.041L265.536 232.651L264.804 232.489Z" fill="white"/>
<path d="M267.195 221.632L266.031 226.894L266.763 227.056L267.928 221.794L267.195 221.632Z" fill="white"/>
<path d="M269.85 213.1L269.12 212.94L270.44 206.95C270.87 205.02 271.24 203.07 271.56 201.15L272.3 201.27C271.98 203.2 271.61 205.16 271.18 207.11L269.86 213.1H269.85Z" fill="white"/>
<path d="M273.42 190.85L272.67 190.81C273.19 180.44 271.71 171.32 268.29 163.72C265.69 157.95 261.87 152.96 256.94 148.89L257.42 148.31C262.44 152.45 266.32 157.53 268.97 163.41C272.44 171.12 273.94 180.36 273.42 190.85Z" fill="white"/>
<path d="M273.69 284.62C273.39 281.7 270.01 278.35 263.64 274.66L264.02 274.01C270.61 277.82 274.12 281.37 274.44 284.54L273.69 284.62Z" fill="white"/>
<path d="M255.71 270.62C252.85 269.31 249.64 267.97 246.16 266.63L246.43 265.93C249.92 267.28 253.15 268.63 256.03 269.94L255.72 270.62H255.71Z" fill="white"/>
<path d="M242.6 265.28C236.17 262.92 228.86 260.54 220.87 258.2L221.08 257.48C229.09 259.82 236.42 262.21 242.86 264.57L242.6 265.28Z" fill="white"/>
<path d="M250.68 291.29C237.91 291.29 219.44 288.97 198.9 284.43C161.38 276.14 133.22 264.05 134.8 256.91C136.38 249.76 167.01 250.66 204.53 258.94C242.05 267.23 270.21 279.32 268.63 286.46C267.92 289.69 261.25 291.28 250.68 291.28V291.29ZM152.34 252.87C142.46 252.87 136.16 254.25 135.54 257.07C134.1 263.58 163.19 275.78 199.07 283.7C234.94 291.62 266.47 292.81 267.9 286.3C269.34 279.79 240.25 267.59 204.37 259.67C184.09 255.19 165.19 252.86 152.34 252.86V252.87Z" fill="#192548"/>
<path d="M179.28 254.7C176.72 254.33 174.23 254.01 171.82 253.74L165.48 265.2C163.33 265.34 161.29 266.52 160.17 268.55C158.43 271.7 159.57 275.67 162.72 277.41C165.87 279.15 169.84 278.01 171.58 274.86C172.7 272.84 172.62 270.48 171.59 268.59L179.27 254.71L179.28 254.7Z" fill="#89C764"/>
<path d="M165.87 278.6C164.72 278.6 163.58 278.31 162.54 277.74C160.93 276.85 159.76 275.38 159.25 273.61C158.74 271.84 158.95 269.98 159.84 268.36C160.95 266.35 162.96 265.05 165.24 264.83L171.6 253.33L171.85 253.36C174.25 253.63 176.76 253.96 179.33 254.33L179.84 254.4L179.61 254.87C179.61 254.87 179.61 254.87 172.03 268.59C173.07 270.64 173.03 273.03 171.92 275.04C171.03 276.65 169.56 277.82 167.79 278.33C167.16 278.51 166.51 278.6 165.87 278.6ZM172.02 254.13L165.71 265.55H165.5C163.39 265.7 161.52 266.88 160.5 268.72C159.71 270.16 159.52 271.82 159.97 273.39C160.42 274.97 161.47 276.27 162.9 277.07C164.34 277.87 166 278.05 167.58 277.6C169.16 277.14 170.46 276.1 171.26 274.67C172.28 272.83 172.28 270.62 171.27 268.76L171.17 268.58L171.27 268.4C171.27 268.4 177.33 257.43 178.68 254.99C176.4 254.67 174.16 254.38 172.01 254.13H172.02Z" fill="#192548"/>
<path d="M262.38 269.96C248.56 262.79 229.95 256.31 208.55 251.22C186.68 246.02 164.97 243.56 147.41 244.28L147.38 243.53C165.01 242.8 186.8 245.27 208.73 250.49C230.19 255.59 248.86 262.1 262.73 269.29L262.38 269.96Z" fill="#192548"/>
<path d="M165.72 276.65V275.9C168.04 275.9 169.93 274.01 169.93 271.69H170.68C170.68 274.43 168.45 276.65 165.72 276.65Z" fill="white"/>
<path d="M233.2 118.59C227.37 118.59 222.65 123.31 222.65 129.14C222.65 134.97 227.37 139.69 233.2 139.69C239.03 139.69 243.75 134.97 243.75 129.14C243.75 123.31 239.03 118.59 233.2 118.59ZM233.2 134.33C230.34 134.33 228.01 132.01 228.01 129.14C228.01 126.27 230.33 123.95 233.2 123.95C236.07 123.95 238.39 126.27 238.39 129.14C238.39 132.01 236.07 134.33 233.2 134.33Z" fill="#89C764"/>
<path d="M228.11 128.19C225.05 127.64 222.85 127.5 222.83 127.5L222.87 126.75C222.87 126.75 225.14 126.89 228.24 127.45L228.11 128.19Z" fill="#192548"/>
<path d="M243.3 132.02C240.22 130.86 238.25 130.43 238.23 130.42L238.39 129.69C238.47 129.71 240.43 130.14 243.57 131.32L243.31 132.02H243.3Z" fill="#192548"/>
</svg>
