<svg width="375" height="375" viewBox="0 0 375 375" fill="none" xmlns="http://www.w3.org/2000/svg">
<g clip-path="url(#clip0_8489_15489)">
<path d="M221.171 83.6901L220.752 84.217L310.638 155.411L311.056 154.884L221.171 83.6901Z" fill="#A7AEB7"/>
<path d="M160.717 83.7168L70.7817 154.848L71.2002 155.375L161.135 84.2441L160.717 83.7168Z" fill="#A7AEB7"/>
<path d="M71.227 247.031L70.8081 247.558L160.693 318.751L161.112 318.224L71.227 247.031Z" fill="#A7AEB7"/>
<path d="M310.653 247.063L220.718 318.194L221.136 318.721L311.071 247.59L310.653 247.063Z" fill="#A7AEB7"/>
<path d="M76.2686 157.553H75.5947V252.827H76.2686V157.553Z" fill="#A7AEB7"/>
<path d="M311.179 157.553H310.505V252.827H311.179V157.553Z" fill="#A7AEB7"/>
<path d="M190.876 90.1382H189.977V295.343H190.876V90.1382Z" fill="#A7AEB7"/>
<path d="M79.3183 149.957L79.041 150.571L188.555 199.931L188.832 199.318L79.3183 149.957Z" fill="#A7AEB7"/>
<path d="M299.571 149.934L190.057 199.295L190.334 199.908L299.849 150.547L299.571 149.934Z" fill="#A7AEB7"/>
<path d="M190.333 199.33L190.056 199.943L299.57 249.304L299.848 248.691L190.333 199.33Z" fill="#A7AEB7"/>
<path d="M188.572 199.313L79.0576 248.674L79.3349 249.287L188.849 199.927L188.572 199.313Z" fill="#A7AEB7"/>
<path d="M191.181 365.009C219.695 365.009 242.81 341.934 242.81 313.47C242.81 285.006 219.695 261.931 191.181 261.931C162.667 261.931 139.552 285.006 139.552 313.47C139.552 341.934 162.667 365.009 191.181 365.009Z" fill="#89C764"/>
<path d="M257.16 28.5623H123.755V94.9098H257.16V28.5623Z" fill="#D9D9D9"/>
<path d="M272.39 28.5623H257.16V94.9098H272.39V28.5623Z" fill="#214082"/>
<path d="M253.071 20.9919H190.453H127.844L120.269 28.5622H122.92H190.453H257.995H260.646L253.071 20.9919Z" fill="#214082"/>
<path d="M164.468 28.948H216.448L190.453 16.7764L164.468 28.948Z" fill="#D9D9D9"/>
<path d="M170.73 66.4675L177.577 53.085V66.4675H170.73Z" fill="white"/>
<path d="M178.027 66.9159H170.281V52.6365H178.027V66.9159ZM171.18 66.019H177.128V53.5334H171.18V66.019Z" fill="#192548"/>
<path d="M181.594 66.4675L188.45 53.085V66.4675H181.594Z" fill="white"/>
<path d="M188.899 66.9159H181.153V52.6365H188.899V66.9159ZM182.052 66.019H188V53.5334H182.052V66.019Z" fill="#192548"/>
<path d="M192.466 66.4675L199.313 53.085V66.4675H192.466Z" fill="white"/>
<path d="M199.762 66.9159H192.017V52.6365H199.762V66.9159ZM192.915 66.019H198.863V53.5334H192.915V66.019Z" fill="#192548"/>
<path d="M132.453 66.4675L139.309 53.085V66.4675H132.453Z" fill="white"/>
<path d="M139.758 66.9159H132.013V52.6365H139.758V66.9159ZM132.912 66.019H138.86V53.5334H132.912V66.019Z" fill="#192548"/>
<path d="M143.325 66.4675L150.172 53.085V66.4675H143.325Z" fill="white"/>
<path d="M150.621 66.9159H142.876V52.6365H150.621V66.9159ZM143.775 66.019H149.723V53.5334H143.775V66.019Z" fill="#192548"/>
<path d="M154.188 66.4675L161.044 53.085V66.4675H154.188Z" fill="white"/>
<path d="M161.494 66.9159H153.749V52.6365H161.494V66.9159ZM154.647 66.019H160.595V53.5334H154.647V66.019Z" fill="#192548"/>
<path d="M219.862 66.4675L226.709 53.085V66.4675H219.862Z" fill="white"/>
<path d="M227.158 66.9159H219.413V52.6365H227.158V66.9159ZM220.311 66.019H226.259V53.5334H220.311V66.019Z" fill="#192548"/>
<path d="M230.725 66.4675L237.581 53.085V66.4675H230.725Z" fill="white"/>
<path d="M238.03 66.9159H230.285V52.6365H238.03V66.9159ZM231.183 66.019H237.131V53.5334H231.183V66.019Z" fill="#192548"/>
<path d="M241.597 66.4675L248.444 53.085V66.4675H241.597Z" fill="white"/>
<path d="M248.893 66.9159H241.148V52.6365H248.893V66.9159ZM242.046 66.019H247.995V53.5334H242.046V66.019Z" fill="#192548"/>
<path d="M203.329 66.4675L210.185 53.085V66.4675H203.329Z" fill="white"/>
<path d="M210.634 66.9159H202.889V52.6365H210.634V66.9159ZM203.787 66.019H209.735V53.5334H203.787V66.019Z" fill="#192548"/>
<path d="M170.73 46.5371L177.577 37.9443V46.5371H170.73Z" fill="white"/>
<path d="M178.027 46.9856H170.281V37.4958H178.027V46.9856ZM171.18 46.0886H177.128V38.3928H171.18V46.0886Z" fill="#192548"/>
<path d="M181.594 46.5371L188.45 37.9443V46.5371H181.594Z" fill="white"/>
<path d="M188.899 46.9856H181.153V37.4958H188.899V46.9856ZM182.052 46.0886H188V38.3928H182.052V46.0886Z" fill="#192548"/>
<path d="M192.466 46.5371L199.313 37.9443V46.5371H192.466Z" fill="white"/>
<path d="M199.762 46.9856H192.017V37.4958H199.762V46.9856ZM192.915 46.0886H198.863V38.3928H192.915V46.0886Z" fill="#192548"/>
<path d="M132.453 46.5371L139.309 37.9443V46.5371H132.453Z" fill="white"/>
<path d="M139.758 46.9856H132.013V37.4958H139.758V46.9856ZM132.912 46.0886H138.86V38.3928H132.912V46.0886Z" fill="#192548"/>
<path d="M143.325 46.5371L150.172 37.9443V46.5371H143.325Z" fill="white"/>
<path d="M150.621 46.9856H142.876V37.4958H150.621V46.9856ZM143.775 46.0886H149.723V38.3928H143.775V46.0886Z" fill="#192548"/>
<path d="M154.188 46.5371L161.044 37.9443V46.5371H154.188Z" fill="white"/>
<path d="M161.494 46.9856H153.749V37.4958H161.494V46.9856ZM154.647 46.0886H160.595V38.3928H154.647V46.0886Z" fill="#192548"/>
<path d="M219.862 46.5371L226.709 37.9443V46.5371H219.862Z" fill="white"/>
<path d="M227.158 46.9856H219.413V37.4958H227.158V46.9856ZM220.311 46.0886H226.259V38.3928H220.311V46.0886Z" fill="#192548"/>
<path d="M230.725 46.5371L237.581 37.9443V46.5371H230.725Z" fill="white"/>
<path d="M238.03 46.9856H230.285V37.4958H238.03V46.9856ZM231.183 46.0886H237.131V38.3928H231.183V46.0886Z" fill="#192548"/>
<path d="M241.597 46.5371L248.444 37.9443V46.5371H241.597Z" fill="white"/>
<path d="M248.893 46.9856H241.148V37.4958H248.893V46.9856ZM242.046 46.0886H247.995V38.3928H242.046V46.0886Z" fill="#192548"/>
<path d="M203.329 46.5371L210.185 37.9443V46.5371H203.329Z" fill="white"/>
<path d="M210.634 46.9856H202.889V37.4958H210.634V46.9856ZM203.787 46.0886H209.735V38.3928H203.787V46.0886Z" fill="#192548"/>
<path d="M132.453 92.0128L139.309 83.429V92.0128H132.453Z" fill="white"/>
<path d="M139.758 92.4612H132.013V82.9714H139.758V92.4612ZM132.912 91.5642H138.86V83.8684H132.912V91.5642Z" fill="#192548"/>
<path d="M143.325 92.0128L150.172 83.429V92.0128H143.325Z" fill="white"/>
<path d="M150.621 92.4612H142.876V82.9714H150.621V92.4612ZM143.775 91.5642H149.723V83.8684H143.775V91.5642Z" fill="#192548"/>
<path d="M154.188 92.0128L161.044 83.429V92.0128H154.188Z" fill="white"/>
<path d="M161.494 92.4612H153.749V82.9714H161.494V92.4612ZM154.647 91.5642H160.595V83.8684H154.647V91.5642Z" fill="#192548"/>
<path d="M219.862 92.0128L226.709 83.429V92.0128H219.862Z" fill="white"/>
<path d="M227.158 92.4612H219.413V82.9714H227.158V92.4612ZM220.311 91.5642H226.259V83.8684H220.311V91.5642Z" fill="#192548"/>
<path d="M230.725 92.0128L237.581 83.429V92.0128H230.725Z" fill="white"/>
<path d="M238.03 92.4612H230.285V82.9714H238.03V92.4612ZM231.183 91.5642H237.131V83.8684H231.183V91.5642Z" fill="#192548"/>
<path d="M241.597 92.0128L248.444 83.429V92.0128H241.597Z" fill="white"/>
<path d="M248.893 92.4612H241.148V82.9714H248.893V92.4612ZM242.046 91.5642H247.995V83.8684H242.046V91.5642Z" fill="#192548"/>
<path d="M219.862 80.5318L226.709 75.2129V80.5318H219.862Z" fill="white"/>
<path d="M227.158 80.9801H219.413V74.7732H227.158V80.9801ZM220.311 80.0831H226.259V75.6701H220.311V80.0831Z" fill="#192548"/>
<path d="M230.725 80.5318L237.581 75.2129V80.5318H230.725Z" fill="white"/>
<path d="M238.03 80.9801H230.285V74.7732H238.03V80.9801ZM231.183 80.0831H237.131V75.6701H231.183V80.0831Z" fill="#192548"/>
<path d="M241.597 80.5318L248.444 75.2129V80.5318H241.597Z" fill="white"/>
<path d="M248.893 80.9801H241.148V74.7732H248.893V80.9801ZM242.046 80.0831H247.995V75.6701H242.046V80.0831Z" fill="#192548"/>
<path d="M154.188 80.5318L161.044 75.2129V80.5318H154.188Z" fill="white"/>
<path d="M161.494 80.9801H153.749V74.7732H161.494V80.9801ZM154.647 80.0831H160.595V75.6701H154.647V80.0831Z" fill="#192548"/>
<path d="M143.325 80.7828L150.172 75.4639V80.7828H143.325Z" fill="white"/>
<path d="M150.621 81.2313H142.876V75.0244H150.621V81.2313ZM143.775 80.3344H149.723V75.9214H143.775V80.3344Z" fill="#192548"/>
<path d="M132.453 81.025L139.309 75.7151V81.025H132.453Z" fill="white"/>
<path d="M139.758 81.4735H132.013V75.2666H139.758V81.4735ZM132.912 80.5766H138.86V76.1636H132.912V80.5766Z" fill="#192548"/>
<path d="M190.453 73.1409C195.341 73.1409 199.313 77.1054 199.313 81.9848V94.9009H181.594V81.9848C181.594 77.1054 185.565 73.1409 190.453 73.1409Z" fill="#16254C"/>
<path d="M257.16 30.4729H123.755V31.3699H257.16V30.4729Z" fill="#19A3DD"/>
<path d="M257.16 70.8447H215.414V71.7417H257.16V70.8447Z" fill="#19A3DD"/>
<path d="M165.896 70.8447H123.755V71.7417H165.896V70.8447Z" fill="#19A3DD"/>
<path d="M166.346 30.9214H165.447V94.901H166.346V30.9214Z" fill="#19A3DD"/>
<path d="M215.863 30.9214H214.965V94.901H215.863V30.9214Z" fill="#19A3DD"/>
<path d="M211.919 94.901H211.02V70.2617H169.895V94.901H168.996V69.3647H211.919V94.901Z" fill="#19A3DD"/>
<path d="M209.43 94.901H208.531V73.2217H202.017V94.901H201.119V72.3247H209.43V94.901Z" fill="#19A3DD"/>
<path d="M199.537 94.901H198.639V73.2217H182.276V94.901H181.378V72.3247H199.537V94.901Z" fill="#19A3DD"/>
<path d="M179.787 94.901H178.889V73.2217H172.375V94.901H171.476V72.3247H179.787V94.901Z" fill="#19A3DD"/>
<path d="M266.963 20.9919H251.454L259.298 28.5622H272.066H274.816L266.963 20.9919Z" fill="#16254C"/>
<path d="M272.39 30.4729H257.16V31.3699H272.39V30.4729Z" fill="#192548"/>
<path d="M198.019 15.5117H182.896V18.0501H198.019V15.5117Z" fill="#16254C"/>
<path d="M194.955 11H185.96V16.9558H194.955V11Z" fill="#16254C"/>
<path d="M283.684 136.25H334.819C336.58 136.25 338.009 137.676 338.009 139.434V170.864C338.009 172.622 336.58 174.048 334.819 174.048H286.874C285.113 174.048 283.684 172.622 283.684 170.864V136.25Z" fill="#89C764"/>
<path d="M287.476 130.241H307.414C311.341 130.241 314.531 133.425 314.531 137.345V138.044C314.531 140.726 312.347 142.906 309.661 142.906H288.545C285.859 142.906 283.675 140.726 283.675 138.044V134.017C283.675 131.927 285.374 130.232 287.467 130.232L287.476 130.241Z" fill="#89C764"/>
<path d="M331.216 133.927H287.045V136.25H331.216V133.927Z" fill="white"/>
<path d="M88.8835 121.809H60.2295V173.294H96.9433V129.855L88.8835 121.809Z" fill="white"/>
<path d="M88.8838 129.855H96.9436L88.8838 121.809V129.855Z" fill="#D9D9D9"/>
<path d="M85.2085 133.784H64.2998V134.681H85.2085V133.784Z" fill="#192548"/>
<path d="M91.2017 138.161H64.2998V139.058H91.2017V138.161Z" fill="#192548"/>
<path d="M91.193 167.976H79.1797V168.873H91.193V167.976Z" fill="#192548"/>
<path d="M85.2085 154.046H64.2998V154.943H85.2085V154.046Z" fill="#192548"/>
<path d="M91.2017 158.423H64.2998V159.32H91.2017V158.423Z" fill="#192548"/>
<path d="M82.0996 162.737H64.2998V163.634H82.0996V162.737Z" fill="#192548"/>
<path d="M67.5974 150.261C69.4186 150.261 70.895 148.787 70.895 146.969C70.895 145.151 69.4186 143.677 67.5974 143.677C65.7762 143.677 64.2998 145.151 64.2998 146.969C64.2998 148.787 65.7762 150.261 67.5974 150.261Z" fill="#89C764"/>
<path d="M69.7628 124.922H64.2998V130.375H69.7628V124.922Z" fill="#3472AF"/>
<path d="M70.3921 161.831C75.4598 156.773 75.4598 148.583 70.3921 143.525C65.3244 138.466 57.1209 138.466 52.0532 143.525C46.9855 148.583 46.9855 156.773 52.0532 161.831C57.1209 166.89 65.3244 166.89 70.3921 161.831ZM54.2905 145.758C58.1183 141.937 64.3271 141.937 68.1548 145.758C71.9825 149.579 71.9825 155.777 68.1548 159.598C64.3271 163.419 58.1183 163.419 54.2905 159.598C50.4628 155.777 50.4628 149.579 54.2905 145.758Z" fill="#16254C"/>
<path d="M67.0945 158.549L66.4565 157.912C69.3498 155.024 69.3498 150.332 66.4565 147.453L67.0945 146.816C70.3382 150.054 70.3382 155.311 67.0945 158.549Z" fill="white"/>
<path d="M65.4863 146.628C64.4709 145.91 63.2849 145.462 62.0449 145.327L62.1438 144.439C63.5365 144.592 64.8663 145.103 66.0074 145.901L65.4863 146.637V146.628Z" fill="white"/>
<path d="M41.2671 175.304L54.1775 162.416C54.9249 161.67 54.9249 160.461 54.1775 159.714C53.43 158.968 52.2183 158.968 51.4709 159.715L38.5605 172.602C37.813 173.348 37.813 174.558 38.5605 175.304C39.3079 176.05 40.5197 176.05 41.2671 175.304Z" fill="#16254C"/>
<path d="M76.3223 273.009C66.9956 273.009 59.4211 265.447 59.4211 256.137L59.4211 241.463H93.2236V256.137C93.2236 265.447 85.6491 273.009 76.3223 273.009Z" fill="#16254C"/>
<path d="M73.1773 273.009C63.8506 273.009 56.276 265.447 56.276 256.137L56.276 241.463H90.0786V256.137C90.0786 265.447 82.504 273.009 73.1773 273.009Z" fill="#89C764"/>
<path d="M90.0695 241.463H93.2144V235.148C93.2144 225.856 85.6398 218.294 76.3311 218.294C67.0223 218.294 59.4478 225.856 59.4478 235.148H62.5926C62.5926 227.587 68.7565 221.425 76.34 221.425C83.9146 221.425 90.0875 227.578 90.0875 235.148V241.463H90.0695Z" fill="#16254C"/>
<path d="M86.925 241.463H90.0698V235.148C90.0698 225.856 82.4953 218.294 73.1865 218.294C63.8778 218.294 56.3032 225.856 56.3032 235.148H59.4481C59.4481 227.587 65.612 221.425 73.1955 221.425C80.7701 221.425 86.943 227.578 86.943 235.148V241.463H86.925Z" fill="#89C764"/>
<path d="M73.1865 252.827C74.705 252.827 75.936 251.598 75.936 250.083C75.936 248.567 74.705 247.338 73.1865 247.338C71.668 247.338 70.437 248.567 70.437 250.083C70.437 251.598 71.668 252.827 73.1865 252.827Z" fill="#16254C"/>
<path d="M69.8799 261.546H76.493L73.1865 250.083L69.8799 261.546Z" fill="#16254C"/>
<path d="M332.187 239.427V225.354H329.276H327.55H317.936H313.3V239.436H316.211V241.588H313.3V255.662H316.211V257.823H313.3V271.896H316.211H317.936H327.55H332.187V257.823H328.233V255.662H332.187V241.588H328.233V239.427H332.187Z" fill="#D9D9D9"/>
<path d="M327.622 228.879H317.864V229.776H327.622V228.879Z" fill="#192548"/>
<path d="M327.622 230.906H317.864V231.803H327.622V230.906Z" fill="#192548"/>
<path d="M327.622 232.933H317.864V233.83H327.622V232.933Z" fill="#192548"/>
<path d="M327.622 234.96H317.864V235.857H327.622V234.96Z" fill="#192548"/>
<path d="M327.622 245.131H317.864V246.028H327.622V245.131Z" fill="#192548"/>
<path d="M327.622 247.158H317.864V248.055H327.622V247.158Z" fill="#192548"/>
<path d="M327.622 249.195H317.864V250.092H327.622V249.195Z" fill="#192548"/>
<path d="M327.622 251.222H317.864V252.119H327.622V251.222Z" fill="#192548"/>
<path d="M327.622 261.393H317.864V262.29H327.622V261.393Z" fill="#192548"/>
<path d="M327.622 263.42H317.864V264.317H327.622V263.42Z" fill="#192548"/>
<path d="M327.622 265.447H317.864V266.344H327.622V265.447Z" fill="#192548"/>
<path d="M327.622 267.474H317.864V268.371H327.622V267.474Z" fill="#192548"/>
<path d="M328.233 241.588V239.427H313.533V225.354H285.742H282.04V239.427H285.742V241.588H282.04V255.662H285.742V257.823H282.04V271.896H313.533V257.823H328.233V255.662H313.533V241.588H328.233Z" fill="#16254C"/>
<path d="M288.455 230.995H285.652V233.794H288.455V230.995Z" fill="#89C764"/>
<path d="M293.784 230.995H290.98V233.794H293.784V230.995Z" fill="#89C764"/>
<path d="M299.121 230.995H296.317V233.794H299.121V230.995Z" fill="#89C764"/>
<path d="M308.879 230.995H306.076V233.794H308.879V230.995Z" fill="#3472AF"/>
<path d="M288.455 247.284H285.652V250.082H288.455V247.284Z" fill="#89C764"/>
<path d="M293.784 247.284H290.98V250.082H293.784V247.284Z" fill="#89C764"/>
<path d="M299.121 247.284H296.317V250.082H299.121V247.284Z" fill="#89C764"/>
<path d="M308.879 247.284H306.076V250.082H308.879V247.284Z" fill="#3472AF"/>
<path d="M288.455 263.582H285.652V266.38H288.455V263.582Z" fill="#89C764"/>
<path d="M293.784 263.582H290.98V266.38H293.784V263.582Z" fill="#89C764"/>
<path d="M299.121 263.582H296.317V266.38H299.121V263.582Z" fill="#89C764"/>
<path d="M308.879 263.582H306.076V266.38H308.879V263.582Z" fill="#3472AF"/>
<path d="M313.533 239.427H285.742V241.588H313.533V239.427Z" fill="#D9D9D9"/>
<path d="M313.533 255.662H285.742V257.823H313.533V255.662Z" fill="#D9D9D9"/>
<path d="M200.912 282.812H176.625C174.903 282.812 173.507 284.206 173.507 285.925V339.222C173.507 340.94 174.903 342.334 176.625 342.334H200.912C202.634 342.334 204.03 340.94 204.03 339.222V285.925C204.03 284.206 202.634 282.812 200.912 282.812Z" fill="#16254C"/>
<path d="M204.345 282.812H180.057C178.335 282.812 176.939 284.206 176.939 285.925V339.222C176.939 340.94 178.335 342.334 180.057 342.334H204.345C206.066 342.334 207.462 340.94 207.462 339.222V285.925C207.462 284.206 206.066 282.812 204.345 282.812Z" fill="#214082"/>
<path d="M204.345 284.696H180.048C179.369 284.696 178.817 285.246 178.817 285.925V339.239C178.817 339.918 179.369 340.468 180.048 340.468H204.345C205.024 340.468 205.575 339.918 205.575 339.239V285.925C205.575 285.246 205.024 284.696 204.345 284.696Z" fill="white"/>
<path d="M197.246 283.386H187.488C186.997 283.386 186.599 283.784 186.599 284.274V285.413C186.599 285.904 186.997 286.301 187.488 286.301H197.246C197.737 286.301 198.136 285.904 198.136 285.413V284.274C198.136 283.784 197.737 283.386 197.246 283.386Z" fill="#214082"/>
<path d="M188.243 310.223C188.243 309.613 187.928 309.227 187.461 309.227C186.994 309.227 186.671 309.622 186.671 310.223C186.671 310.824 186.985 311.219 187.461 311.219C187.937 311.219 188.243 310.833 188.243 310.223ZM185.817 308.564H186.671V308.734L186.617 309.147H186.706C186.886 308.797 187.237 308.528 187.74 308.528C188.512 308.528 189.097 309.165 189.097 310.223C189.097 311.281 188.503 311.918 187.74 311.918C187.237 311.918 186.886 311.622 186.706 311.299H186.617L186.671 311.739V313.479H185.817V308.573V308.564Z" fill="#89C764"/>
<path d="M191.738 310.573V310.483C191.073 310.483 190.354 310.483 190.354 310.95C190.354 311.183 190.543 311.317 190.875 311.317C191.387 311.317 191.738 311.021 191.738 310.573ZM189.519 311.012C189.519 309.954 190.776 309.99 191.738 309.99V309.73C191.738 309.362 191.531 309.183 191.145 309.183C190.759 309.183 190.525 309.353 190.48 309.802L189.662 309.766C189.716 308.851 190.363 308.501 191.145 308.501C191.972 308.501 192.583 308.851 192.583 309.802V311.883H191.918L191.855 311.326H191.783C191.612 311.739 191.217 311.945 190.651 311.945C189.977 311.945 189.519 311.595 189.519 311.021" fill="#89C764"/>
<path d="M195.296 310.573V310.483C194.631 310.483 193.912 310.483 193.912 310.95C193.912 311.183 194.101 311.317 194.433 311.317C194.946 311.317 195.296 311.021 195.296 310.573ZM193.077 311.012C193.077 309.954 194.335 309.99 195.296 309.99V309.73C195.296 309.362 195.089 309.183 194.703 309.183C194.317 309.183 194.083 309.353 194.038 309.802L193.22 309.766C193.274 308.851 193.921 308.501 194.703 308.501C195.53 308.501 196.141 308.851 196.141 309.802V311.883H195.476L195.413 311.326H195.341C195.17 311.739 194.775 311.945 194.209 311.945C193.535 311.945 193.077 311.595 193.077 311.021" fill="#89C764"/>
<path d="M196.644 310.905L197.444 310.824C197.516 311.138 197.74 311.291 198.172 311.291C198.567 311.291 198.801 311.147 198.801 310.896C198.801 310.734 198.711 310.609 198.333 310.555L197.749 310.492C197.21 310.429 196.68 310.205 196.68 309.595C196.68 308.923 197.228 308.501 198.064 308.501C198.899 308.501 199.394 308.896 199.438 309.586L198.693 309.64C198.657 309.326 198.459 309.156 198.055 309.156C197.65 309.156 197.48 309.326 197.48 309.568C197.48 309.739 197.605 309.837 197.902 309.882L198.504 309.945C199.097 310.026 199.609 310.241 199.609 310.869C199.609 311.542 199.115 311.945 198.172 311.945C197.228 311.945 196.734 311.569 196.644 310.905Z" fill="#89C764"/>
<path d="M201.774 305.532H183.642V306.232H201.774V305.532Z" fill="#89C764"/>
<path d="M201.774 314.735H183.642V315.434H201.774V314.735Z" fill="#89C764"/>
<path d="M181.638 197.449C180.947 198.005 180.488 198.714 180.362 199.53C179.994 201.853 182.42 204.159 185.772 204.688C187.533 204.966 189.195 204.697 190.435 204.042C193.068 206.688 197.479 208.419 202.475 208.419C210.535 208.419 217.076 203.907 217.076 198.346C217.076 198.266 217.076 198.194 217.076 198.113C222.27 197.234 226.133 193.924 226.133 189.987C226.133 185.367 220.841 181.627 214.309 181.627C213.797 181.627 213.293 181.654 212.799 181.699C211.577 177.994 207.723 175.286 203.149 175.286C198.98 175.286 195.395 177.537 193.876 180.748C191.98 180.066 189.815 179.681 187.524 179.681C179.967 179.681 173.848 183.861 173.848 189.009C173.848 192.731 177.038 195.942 181.656 197.44L181.638 197.449Z" fill="white"/>
<path d="M197.542 191.027C198.674 191.027 199.591 190.112 199.591 188.982C199.591 187.853 198.674 186.937 197.542 186.937C196.411 186.937 195.494 187.853 195.494 188.982C195.494 190.112 196.411 191.027 197.542 191.027Z" fill="#89C764"/>
<path d="M210.993 201.665C212.125 201.665 213.042 200.749 213.042 199.62C213.042 198.491 212.125 197.575 210.993 197.575C209.862 197.575 208.945 198.491 208.945 199.62C208.945 200.749 209.862 201.665 210.993 201.665Z" fill="#89C764"/>
<path d="M219.125 189.467C220.257 189.467 221.174 188.551 221.174 187.422C221.174 186.292 220.257 185.376 219.125 185.376C217.994 185.376 217.077 186.292 217.077 187.422C217.077 188.551 217.994 189.467 219.125 189.467Z" fill="#89C764"/>
<path d="M231.094 204.329C232.225 204.329 233.142 203.413 233.142 202.284C233.142 201.154 232.225 200.239 231.094 200.239C229.962 200.239 229.045 201.154 229.045 202.284C229.045 203.413 229.962 204.329 231.094 204.329Z" fill="#89C764"/>
<path d="M199.978 214.626C199.978 215.756 199.061 216.671 197.929 216.671C196.797 216.671 195.88 215.756 195.88 214.626C195.88 213.496 196.797 212.581 197.929 212.581C199.061 212.581 199.978 213.496 199.978 214.626Z" fill="#89C764"/>
<path d="M186.652 201.665C187.784 201.665 188.701 200.749 188.701 199.62C188.701 198.491 187.784 197.575 186.652 197.575C185.521 197.575 184.604 198.491 184.604 199.62C184.604 200.749 185.521 201.665 186.652 201.665Z" fill="#89C764"/>
<path d="M197.561 214.895L186.06 199.575L197.507 188.39L210.895 198.965L219.089 186.659L231.444 201.997L230.743 202.562L219.161 188.175L211.101 200.275L197.57 189.583L187.246 199.665L198.28 214.357L197.561 214.895Z" fill="#89C764"/>
<path d="M210.658 199.308L197.589 214.316L198.267 214.904L211.336 199.896L210.658 199.308Z" fill="#89C764"/>
<path d="M211.06 199.183L210.942 200.073L231.046 202.732L231.164 201.843L211.06 199.183Z" fill="#89C764"/>
<path d="M175.25 190.238C170.245 190.238 166.031 193.673 164.845 198.301H148.016C146.542 198.301 145.329 199.494 145.329 200.956V207.02H147.989V205.253H150.253V207.02H153.335V205.253H155.599V207.02H157.908V203.611H164.845C166.031 208.24 170.245 211.675 175.25 211.675C181.171 211.675 185.987 206.867 185.987 200.956C185.987 195.045 181.171 190.238 175.25 190.238ZM175.25 204.051C173.543 204.051 172.15 202.661 172.15 200.956C172.15 199.252 173.543 197.862 175.25 197.862C176.957 197.862 178.35 199.252 178.35 200.956C178.35 202.661 176.957 204.051 175.25 204.051Z" fill="#16254C"/>
<path d="M172.986 190.238C167.981 190.238 163.767 193.673 162.581 198.301H145.751C144.278 198.301 143.092 199.494 143.092 200.956V207.02H145.338V205.253H147.989V207.02H150.684V205.253H153.335V207.02H155.644V203.611H162.581C163.767 208.24 167.981 211.675 172.986 211.675C178.907 211.675 183.723 206.867 183.723 200.956C183.723 195.045 178.907 190.238 172.986 190.238ZM172.986 204.051C171.279 204.051 169.886 202.661 169.886 200.956C169.886 199.252 171.279 197.862 172.986 197.862C174.693 197.862 176.086 199.252 176.086 200.956C176.086 202.661 174.693 204.051 172.986 204.051Z" fill="#D9D9D9"/>
<path d="M210.993 199.172H186.652V200.069H210.993V199.172Z" fill="#89C764"/>
</g>
<defs>
<clipPath id="clip0_8489_15489">
<rect width="300" height="354" fill="white" transform="translate(38 11)"/>
</clipPath>
</defs>
</svg>
