<svg width="375" height="375" viewBox="0 0 375 375" fill="none" xmlns="http://www.w3.org/2000/svg">
<g clip-path="url(#clip0_8503_15284)">
<path d="M350.44 15.5C350.57 16.24 362.85 89.72 353.68 144.17C353.56 144.86 353.6 145.53 353.54 146.21L352.62 146.23C352.51 93.84 333.07 31.74 321.75 0H269.05C274.37 13.51 303.68 90.6 303.29 147.49L302.4 147.51C286.99 78.44 252.89 18.15 242.24 0H193.05C191.73 5.51 192.28 11.49 195.05 16.93C195.25 17.32 244.81 105.34 262.19 160.52C262.38 161.14 261.55 161.66 261.15 161.15C245.99 141.77 213.25 105.62 160.83 121.47L122 133.27C108.91 137.07 101.38 150.76 105.18 163.85C108.95 176.84 122.46 184.35 135.45 180.76C135.55 180.73 135.66 180.7 135.76 180.67L174.96 168.9C175.03 168.88 175.1 168.86 175.17 168.84C195.52 163.21 220.76 174.37 233.82 196.54C239.75 206.6 244.36 241.58 208.31 243.64C173.21 245.64 146.86 247.24 140.68 246.79C127.1 245.62 115.15 255.68 113.98 269.26C112.81 282.84 122.87 294.79 136.45 295.96C142.03 296.44 171.08 296.17 188.9 294.26C218.58 291.83 250.93 307.06 286.7 315.78C287.55 332.57 288.36 353.66 288.52 374.98H375V0H352.86C350.47 4.6 349.5 9.99 350.43 15.5H350.44Z" fill="#192548"/>
<path d="M238.59 186.49L237.79 185.92C237.98 185.66 257.12 159.65 293.69 151.19C337.93 140.96 374.09 151.09 374.45 151.19L374.18 152.13C373.82 152.03 337.9 141.97 293.92 152.13C257.72 160.5 238.78 186.22 238.59 186.48V186.49Z" fill="white"/>
<path d="M284.83 21.08L284.77 20.1C284.87 20.1 295.16 19.43 307.36 13.22L307.81 14.09C295.41 20.4 284.93 21.07 284.83 21.08Z" fill="white"/>
<path d="M299.72 77.55C299.49 77.55 299.36 77.55 299.35 77.55L299.38 76.57C299.48 76.57 309.79 76.85 322.51 71.77L322.87 72.68C311.31 77.3 301.69 77.55 299.72 77.55Z" fill="white"/>
<path d="M218.32 47.0601L218.09 46.1101C218.19 46.0901 228.2 43.6301 239.12 35.3701L239.71 36.1501C228.61 44.5401 218.41 47.0401 218.31 47.0601H218.32Z" fill="white"/>
<path d="M242.82 102.09L242.59 101.14C242.69 101.12 252.7 98.6599 263.62 90.3999L264.21 91.1799C253.11 99.5699 242.91 102.07 242.81 102.09H242.82Z" fill="white"/>
<path d="M308.98 319.28C296.08 319.28 284.14 316.17 283.98 316.14L284.2 315.18C284.42 315.23 305.68 320.45 321.69 317.16L321.89 318.12C317.79 318.97 313.35 319.28 308.99 319.28H308.98Z" fill="#89C764"/>
<path d="M343.79 367.56L342.81 367.52C343.34 353.53 341.49 332.49 341.47 332.28L342.45 332.19C342.47 332.4 344.32 353.5 343.79 367.55V367.56Z" fill="white"/>
<path d="M6.74012 190L17.9501 262.13C22.8201 293.5 50.4401 317.15 82.1901 317.15C85.5101 317.15 88.8701 316.89 92.1701 316.38L218.19 296.79C253.61 291.28 277.94 257.99 272.44 222.57L261.23 150.44C256.36 119.07 228.74 95.4199 196.99 95.4199C193.67 95.4199 190.31 95.6799 187.01 96.1899L60.9901 115.78C43.8401 118.45 28.7501 127.64 18.5001 141.66C8.25012 155.68 4.08012 172.85 6.74012 190ZM19.2901 142.25C29.3901 128.44 44.2501 119.39 61.1401 116.76L187.16 97.1699C190.41 96.6699 193.72 96.4099 196.99 96.4099C228.26 96.4099 255.46 119.71 260.26 150.61L271.47 222.74C276.89 257.62 252.92 290.42 218.04 295.84L92.0201 315.43C88.7701 315.93 85.4601 316.19 82.1901 316.19C50.9201 316.19 23.7201 292.89 18.9201 262L7.71012 189.87C5.09012 172.98 9.20012 156.07 19.2901 142.26V142.25Z" fill="#89C764"/>
<path d="M52.6698 255.77C55.0298 270.93 68.3698 282.35 83.7098 282.35C85.3198 282.35 86.9398 282.22 88.5298 281.98L211.23 262.91C228.34 260.25 240.1 244.16 237.44 227.05L226.52 156.82C224.17 141.66 210.82 130.24 195.48 130.24C193.88 130.24 192.25 130.37 190.66 130.61L67.9598 149.68C59.6798 150.97 52.3898 155.41 47.4398 162.19C42.4898 168.97 40.4698 177.26 41.7598 185.54L52.6798 255.77H52.6698ZM48.2298 162.76C53.0298 156.2 60.0898 151.89 68.1098 150.65L190.81 131.58C192.35 131.34 193.93 131.22 195.48 131.22C210.34 131.22 223.27 142.29 225.55 156.98L236.47 227.21C239.05 243.79 227.66 259.37 211.08 261.95L88.3798 281.02C86.8398 281.26 85.2598 281.38 83.7098 281.38C68.8498 281.38 55.9198 270.31 53.6398 255.62L42.7198 185.39C41.4698 177.37 43.4298 169.33 48.2298 162.77V162.76Z" fill="#89C764"/>
<path d="M67.2201 254.12C68.4001 261.7 75.0701 267.42 82.7501 267.42C83.5501 267.42 84.3701 267.36 85.1601 267.23L209.95 247.83C214.09 247.19 217.74 244.96 220.22 241.57C222.7 238.18 223.71 234.03 223.07 229.89L211.97 158.46C210.79 150.88 204.12 145.16 196.44 145.16C195.63 145.16 194.82 145.22 194.03 145.35L69.2401 164.75C65.1001 165.39 61.4501 167.62 58.9701 171.01C56.4901 174.4 55.4801 178.55 56.1201 182.69L67.2201 254.12ZM59.7601 171.59C62.0801 168.41 65.5001 166.33 69.3801 165.72L194.17 146.32C194.91 146.2 195.67 146.14 196.43 146.14C203.63 146.14 209.88 151.5 210.99 158.61L222.09 230.04C222.69 233.92 221.75 237.81 219.42 240.99C217.09 244.17 213.68 246.25 209.8 246.86L85.0101 266.26C84.2701 266.38 83.5001 266.43 82.7501 266.43C75.5501 266.43 69.3001 261.07 68.1901 253.96L57.0901 182.53C56.4901 178.65 57.4301 174.76 59.7601 171.58V171.59Z" fill="#89C764"/>
<path d="M0 349.53V350.81C13.12 361.76 28.14 369.94 44.15 375H47.56C30.25 370.01 14.01 361.38 0 349.53Z" fill="white"/>
<path d="M335.27 212.45L324.17 141.03C319.46 110.72 303.93 82.9401 280.44 62.8201C256.95 42.7001 227.12 31.6201 196.44 31.6201C189.83 31.6201 183.15 32.1401 176.59 33.1501L51.79 52.5501C32.96 55.4701 15.4 62.3601 0 72.6201V73.8001C15.41 63.4201 33.04 56.4601 51.93 53.5201L176.73 34.1201C183.25 33.1101 189.88 32.6001 196.43 32.6001C226.87 32.6001 256.48 43.6001 279.79 63.5701C303.1 83.5401 318.52 111.11 323.19 141.19L334.29 212.61C345.15 282.5 297.13 348.21 227.24 359.08L124.74 375.01H131.13L227.4 360.05C297.83 349.1 346.22 282.89 335.27 212.46V212.45Z" fill="#89C764"/>
<path d="M279.16 204.46L279.44 205.4C279.95 205.25 326.57 191.76 375 208.84V207.8C326.37 190.79 279.67 204.31 279.16 204.46Z" fill="white"/>
<path d="M360.86 35.77L360.66 36.73C360.72 36.74 364.3 37.46 370 37.46C371.52 37.46 373.2 37.41 374.99 37.28V36.3C366.57 36.91 360.93 35.79 360.85 35.77H360.86Z" fill="white"/>
<path d="M363.6 85.1101L363.37 86.0601C363.44 86.0801 367.94 87.1301 374.94 87.1301C374.96 87.1301 374.98 87.1301 375 87.1301V86.1501C368.1 86.1501 363.66 85.1201 363.6 85.1101Z" fill="white"/>
<path d="M372.7 309.23L372.68 310.21C372.88 310.21 373.08 310.21 373.28 310.21C373.86 310.21 374.43 310.18 375 310.15V309.17C374.24 309.21 373.48 309.24 372.7 309.22V309.23Z" fill="#89C764"/>
<path d="M52.9802 179.28H52.2402C52.2402 169.75 44.4802 161.99 34.9502 161.99V161.25C44.4902 161.25 52.2402 153.49 52.2402 143.96H52.9802C52.9802 153.5 60.7402 161.25 70.2702 161.25V161.99C60.7402 161.99 52.9802 169.75 52.9802 179.28ZM38.5802 161.61C45.6102 163.05 51.1602 168.61 52.6102 175.64C54.0502 168.61 59.6102 163.06 66.6402 161.61C59.6102 160.17 54.0602 154.61 52.6102 147.58C51.1702 154.61 45.6102 160.16 38.5802 161.61Z" fill="#192548"/>
<path d="M209.03 260.9C202.46 253.99 191.49 253.72 184.58 260.29L184.07 259.76C190.98 253.19 191.25 242.22 184.68 235.31L185.21 234.8C191.78 241.71 202.75 241.98 209.66 235.41L210.17 235.94C203.26 242.51 202.99 253.48 209.56 260.39L209.03 260.9ZM196.49 254.79C196.64 254.79 196.8 254.79 196.95 254.79C200.52 254.88 203.92 256 206.79 258C203 251.91 203.19 244.07 207.29 238.18C201.2 241.98 193.35 241.78 187.46 237.69C191.26 243.78 191.06 251.62 186.97 257.51C189.81 255.73 193.08 254.79 196.49 254.79Z" fill="#192548"/>
<path d="M214.36 197.27C210.65 193.56 204.62 193.56 200.92 197.27L200.4 196.75C202.2 194.95 203.19 192.57 203.19 190.03C203.19 187.49 202.2 185.1 200.4 183.31L200.92 182.79C202.72 184.59 205.1 185.58 207.64 185.58C210.18 185.58 212.56 184.59 214.36 182.79L214.88 183.31C213.08 185.11 212.09 187.49 212.09 190.03C212.09 192.57 213.08 194.95 214.88 196.75L214.36 197.27ZM207.64 193.75C209.38 193.75 211.13 194.19 212.69 195.07C211.82 193.55 211.36 191.82 211.36 190.02C211.36 188.22 211.82 186.5 212.68 184.98C209.64 186.71 205.64 186.71 202.59 184.98C203.45 186.5 203.91 188.23 203.91 190.02C203.91 191.81 203.45 193.55 202.58 195.07C204.14 194.19 205.88 193.75 207.63 193.75H207.64Z" fill="#192548"/>
<path d="M45.3702 195.02C43.5702 193.22 41.1902 192.23 38.6502 192.23C36.1102 192.23 33.7302 193.22 31.9302 195.02L31.4102 194.5C33.2102 192.7 34.2002 190.32 34.2002 187.78C34.2002 185.24 33.2102 182.86 31.4102 181.06L31.9302 180.54C35.6402 184.25 41.6702 184.25 45.3702 180.54L45.8902 181.06C44.0902 182.86 43.1002 185.24 43.1002 187.78C43.1002 190.32 44.0902 192.71 45.8902 194.5L45.3702 195.02ZM38.6502 191.5C40.4502 191.5 42.1702 191.96 43.6902 192.83C42.8302 191.31 42.3702 189.58 42.3702 187.79C42.3702 186 42.8302 184.26 43.7002 182.74C40.5802 184.5 36.7202 184.5 33.6002 182.74C34.4702 184.26 34.9302 185.99 34.9302 187.79C34.9302 189.59 34.4702 191.31 33.6102 192.83C35.1302 191.96 36.8602 191.5 38.6502 191.5Z" fill="#192548"/>
<path d="M91.7898 277.35H91.0498C91.0498 274.19 88.4798 271.62 85.3198 271.62V270.88C88.4798 270.88 91.0498 268.31 91.0498 265.15H91.7898C91.7898 268.31 94.3598 270.88 97.5198 270.88V271.62C94.3598 271.62 91.7898 274.19 91.7898 277.35ZM87.4698 271.25C89.3098 271.9 90.7698 273.36 91.4198 275.2C92.0698 273.36 93.5298 271.9 95.3698 271.25C93.5298 270.6 92.0698 269.14 91.4198 267.3C90.7698 269.14 89.3098 270.6 87.4698 271.25Z" fill="#192548"/>
<path d="M104.56 114.61H103.82C103.82 111.45 101.25 108.88 98.0898 108.88V108.14C101.25 108.14 103.82 105.57 103.82 102.41H104.56C104.56 105.57 107.13 108.14 110.29 108.14V108.88C107.13 108.88 104.56 111.45 104.56 114.61ZM100.25 108.51C102.09 109.16 103.55 110.62 104.2 112.46C104.85 110.62 106.31 109.16 108.15 108.51C106.31 107.86 104.85 106.4 104.2 104.56C103.55 106.4 102.09 107.86 100.25 108.51Z" fill="#192548"/>
<path d="M165.07 273.52H164.33C164.33 270.36 161.76 267.79 158.6 267.79V267.05C161.76 267.05 164.33 264.48 164.33 261.32H165.07C165.07 264.48 167.64 267.05 170.8 267.05V267.79C167.64 267.79 165.07 270.36 165.07 273.52ZM160.76 267.42C162.6 268.07 164.06 269.53 164.71 271.37C165.36 269.53 166.82 268.07 168.66 267.42C166.82 266.77 165.36 265.31 164.71 263.47C164.06 265.31 162.6 266.77 160.76 267.42Z" fill="#192548"/>
<path d="M210.5 240.26L83.3101 260.03C79.6501 260.6 76.2001 258.07 75.6301 254.42L64.3101 181.62C64.0401 179.91 64.7001 177.59 66.5101 175.29C67.6401 173.85 67.9801 174.24 69.9301 173.94L197.12 154.17C200.78 153.6 204.23 156.13 204.8 159.78L216.12 232.58C216.4 234.41 216.62 234.92 215.75 236.41C214.97 237.74 213.1 239.86 210.51 240.26H210.5Z" fill="#8A9AA7"/>
<path d="M198.113 152.804L70.9318 172.583C67.2591 173.155 64.7448 176.595 65.316 180.268L76.6373 253.063C77.2085 256.735 80.6488 259.25 84.3216 258.678L211.503 238.899C215.175 238.328 217.69 234.887 217.118 231.215L205.797 158.42C205.226 154.747 201.786 152.233 198.113 152.804Z" fill="#CDCECF"/>
<path d="M207.47 216.31L204.6 216.76L202.66 204.27L202.13 204.35L204.07 216.84L195 218.25L193.05 205.76L192.53 205.84L194.47 218.33L185.39 219.75L183.45 207.25L182.93 207.33L184.87 219.83L175.79 221.24L173.85 208.75L173.32 208.83L175.27 221.32L172.4 221.77L172.48 222.29L175.35 221.85L177.29 234.34L177.82 234.26L175.87 221.76L184.95 220.35L186.89 232.85L187.42 232.76L185.48 220.27L194.55 218.86L196.49 231.35L197.02 231.27L195.08 218.78L204.15 217.37L206.09 229.86L206.62 229.78L204.68 217.29L207.55 216.84L207.47 216.31Z" fill="#758089"/>
<path d="M190.77 223.39L188.82 223.69L189.75 229.67L190.28 229.59L189.93 227.34L191.36 227.12C192.39 226.96 193.09 225.99 192.93 224.97C192.77 223.95 191.8 223.23 190.78 223.39H190.77ZM191.26 226.59L189.83 226.81L189.41 224.13L190.84 223.91C191.58 223.8 192.27 224.3 192.38 225.04C192.49 225.78 191.99 226.47 191.25 226.59H191.26Z" fill="#758089"/>
<path d="M197.35 211.57L198.78 211.35C199.81 211.19 200.51 210.22 200.35 209.2C200.19 208.17 199.22 207.46 198.2 207.62L196.25 207.92L197.18 213.9L197.71 213.82L197.36 211.57H197.35ZM196.85 208.36L198.28 208.14C199.02 208.03 199.71 208.53 199.82 209.27C199.93 210.01 199.43 210.7 198.69 210.82L197.26 211.04L196.84 208.36H196.85Z" fill="#758089"/>
<path d="M179.55 218.68L180.5 218.53C181.9 218.31 182.66 217.46 182.48 216.31L181.59 210.57C181.37 209.18 180.07 208.23 178.68 208.44L178.22 208.51C176.83 208.73 175.88 210.03 176.1 211.42L176.99 217.16C177.17 218.31 178.15 218.89 179.55 218.68ZM176.63 211.33C176.46 210.23 177.21 209.2 178.31 209.03L178.77 208.96C179.87 208.79 180.9 209.55 181.07 210.64L181.96 216.38C182.15 217.59 180.95 217.91 180.42 217.99L179.47 218.14C178.95 218.22 177.71 218.28 177.52 217.07L176.63 211.33Z" fill="#758089"/>
<path d="M178.96 211.69C179.7 211.57 180.07 211.74 180.07 211.75L180.19 211.51L180.31 211.27C180.26 211.24 179.79 211.02 178.88 211.16C178.08 211.28 177.59 211.7 177.57 211.72L177.92 212.12C177.92 212.12 178.32 211.78 178.97 211.68L178.96 211.69Z" fill="#758089"/>
<path d="M180.548 215.298L178.571 215.605L178.653 216.129L180.629 215.822L180.548 215.298Z" fill="#758089"/>
<path d="M189.4 217.15L189.86 217.08C191.25 216.86 192.2 215.56 191.98 214.17L191.09 208.43C190.91 207.28 189.93 206.7 188.53 206.91L187.58 207.06C186.18 207.28 185.42 208.13 185.6 209.28L186.49 215.02C186.71 216.41 188.01 217.36 189.4 217.15ZM186.13 209.19C185.94 207.98 187.14 207.66 187.67 207.58L188.62 207.43C189.14 207.35 190.38 207.29 190.57 208.5L191.46 214.24C191.63 215.34 190.88 216.37 189.78 216.54L189.32 216.61C188.22 216.78 187.19 216.02 187.02 214.93L186.13 209.19Z" fill="#758089"/>
<path d="M190.53 213.85L190.18 213.45C190.18 213.45 189.78 213.79 189.13 213.89C188.39 214.01 188.02 213.83 188.02 213.83L187.78 214.3C187.83 214.33 188.3 214.55 189.21 214.41C190.01 214.29 190.5 213.87 190.52 213.85H190.53Z" fill="#758089"/>
<path d="M189.465 209.399L187.489 209.706L187.57 210.23L189.546 209.923L189.465 209.399Z" fill="#758089"/>
<path d="M200.14 219.94L199.68 220.01C198.29 220.23 197.34 221.53 197.56 222.92L198.45 228.66C198.63 229.81 199.61 230.39 201.01 230.18L201.96 230.03C203.36 229.81 204.12 228.96 203.94 227.81L203.05 222.07C202.83 220.68 201.53 219.73 200.14 219.94ZM203.42 227.89C203.61 229.1 202.41 229.42 201.88 229.5L200.93 229.65C200.41 229.73 199.17 229.79 198.98 228.58L198.09 222.84C197.92 221.74 198.67 220.71 199.77 220.54L200.23 220.47C201.33 220.3 202.36 221.06 202.53 222.15L203.42 227.89Z" fill="#758089"/>
<path d="M199.02 223.23L199.37 223.63C199.37 223.63 199.77 223.29 200.42 223.19C201.16 223.07 201.53 223.25 201.53 223.25L201.77 222.78C201.72 222.75 201.25 222.53 200.34 222.67C199.54 222.79 199.05 223.21 199.03 223.23H199.02Z" fill="#758089"/>
<path d="M202.001 226.815L200.025 227.123L200.106 227.646L202.083 227.339L202.001 226.815Z" fill="#758089"/>
<path d="M181.18 222.89L180.23 223.04C178.83 223.26 178.07 224.11 178.25 225.26L179.14 231C179.36 232.39 180.66 233.34 182.05 233.13L182.51 233.06C183.9 232.84 184.85 231.54 184.63 230.15L183.74 224.41C183.56 223.26 182.58 222.68 181.18 222.89ZM184.11 230.23C184.28 231.33 183.53 232.36 182.43 232.53L181.97 232.6C180.87 232.77 179.84 232.01 179.67 230.92L178.78 225.18C178.59 223.97 179.79 223.65 180.32 223.57L181.27 223.42C181.79 223.34 183.03 223.28 183.22 224.49L184.11 230.23Z" fill="#758089"/>
<path d="M181.78 229.87C181.04 229.99 180.67 229.81 180.67 229.81L180.43 230.28C180.48 230.31 180.95 230.53 181.86 230.39C182.66 230.27 183.15 229.85 183.17 229.83L182.82 229.43C182.82 229.43 182.42 229.77 181.77 229.87H181.78Z" fill="#758089"/>
<path d="M182.11 225.389L180.133 225.696L180.215 226.22L182.191 225.912L182.11 225.389Z" fill="#758089"/>
<g opacity="0.6">
<path d="M135.05 250.79L100.08 256.23L125.69 164.08L160.66 158.64L135.05 250.79Z" fill="#DFDFDF"/>
</g>
<g opacity="0.6">
<path d="M154.05 247.84L141.5 249.79L167.11 157.64L179.66 155.69L154.05 247.84Z" fill="#DFDFDF"/>
</g>
<path d="M81.58 184.3C82.86 184.15 83.8 184.73 83.96 185.71C84.17 187.09 83.36 188.08 81.93 188.3L76.97 189.07L75.75 181.23L80.22 180.53C81.84 180.28 82.88 180.91 83.08 182.15C83.23 183.1 82.67 183.97 81.58 184.26V184.29V184.3ZM78.24 183.99L80.5 183.64C80.94 183.57 81.12 183.3 81.05 182.84C80.99 182.45 80.64 182.3 80.2 182.37L78.04 182.71L78.24 184V183.99ZM81.77 185.77C81.71 185.35 81.39 185.19 80.84 185.27L78.49 185.64L78.7 186.96L81.11 186.58C81.63 186.5 81.85 186.22 81.78 185.77H81.77Z" fill="#192548"/>
<path d="M84.2602 183.94C83.8702 181.44 85.5701 179.58 88.2001 179.17C90.8601 178.76 93.0101 180.04 93.3901 182.52C93.7701 185 92.0701 186.83 89.4501 187.24C86.7901 187.65 84.6402 186.39 84.2602 183.94ZM91.2602 182.83C90.9902 181.11 90.1901 180.77 88.4901 181.04C86.7901 181.3 86.1201 181.87 86.3901 183.59C86.6701 185.38 87.4701 185.65 89.1701 185.38C90.8701 185.12 91.5002 184.36 91.2602 182.83Z" fill="#192548"/>
<path d="M93.9802 178.39L96.7202 177.96L100.28 181.73L101 182.52H101.04L100.89 181.65L100.23 177.4L102.27 177.08L103.49 184.92L100.86 185.33L97.2102 181.42L96.4302 180.57H96.3902L96.5502 181.53L97.2302 185.9L95.1902 186.22L93.9702 178.38L93.9802 178.39Z" fill="#192548"/>
<path d="M112.01 175.59L112.71 180.09C113.06 182.33 111.73 183.78 109.19 184.17C106.62 184.57 104.93 183.61 104.58 181.35L103.88 176.85L105.93 176.53L106.65 181.19C106.84 182.41 107.5 182.53 108.9 182.31C110.33 182.09 110.88 181.76 110.69 180.56L109.97 175.9L112.01 175.58V175.59Z" fill="#192548"/>
<path d="M113.93 180.92L115.89 180.09C116.18 181.02 116.89 181.21 117.97 181.04C118.94 180.89 119.44 180.66 119.36 180.18C119.29 179.81 119 179.77 118.02 179.76L116.37 179.74C114.99 179.72 113.84 179.04 113.6 177.7C113.33 176.1 114.8 175.03 116.63 174.75C118.87 174.4 120.16 174.99 120.62 176.52L118.81 177.34C118.56 176.39 117.94 176.35 116.91 176.51C116 176.65 115.59 176.92 115.65 177.33C115.73 177.77 116.07 177.79 117.13 177.79H118.58C119.99 177.79 121.15 178.42 121.35 179.6C121.66 181.34 120.2 182.46 118.23 182.77C116.07 183.11 114.5 182.54 113.94 180.92H113.93Z" fill="#192548"/>
<path d="M121.75 178.11C121.36 175.61 123.06 173.75 125.69 173.34C128.35 172.93 130.5 174.21 130.88 176.69C131.26 179.17 129.57 181 126.94 181.41C124.28 181.82 122.13 180.56 121.75 178.11ZM128.75 177C128.48 175.28 127.68 174.94 125.98 175.21C124.28 175.47 123.61 176.04 123.88 177.76C124.16 179.55 124.96 179.82 126.66 179.55C128.36 179.29 128.99 178.53 128.75 177Z" fill="#192548"/>
<path d="M139.04 171.38L137.11 179.71L134.52 180.11L130.12 172.76L132.47 172.39L134.65 176.25L135.41 177.66H135.48L135.78 176.09L136.69 171.74L139.04 171.37V171.38Z" fill="#192548"/>
<path d="M141.33 171.03L144.16 170.59L148.49 177.95L146.35 178.28L145.53 176.82L141.9 177.38L141.55 179.02L139.41 179.35L141.33 171.02V171.03ZM142.99 170.15L142 170.3L142.23 168.14L144.92 167.72L142.99 170.14V170.15ZM144.57 175.14L143.8 173.78L143.02 172.38H142.95L142.63 173.97L142.31 175.5L144.57 175.15V175.14Z" fill="#192548"/>
<path d="M87.1898 204.5C87.4598 206.25 86.6798 207.4 84.8598 207.68C83.7698 207.85 82.8398 207.41 82.3098 206.46H82.2898L82.8298 209.84L81.9598 209.98L80.8398 202.79L81.5698 202.68L81.9398 204.11H81.9598C82.1698 203.05 82.9598 202.35 84.0698 202.17C85.8598 201.89 86.9198 202.75 87.1998 204.51L87.1898 204.5ZM86.3198 204.63C86.1198 203.33 85.3498 202.79 83.8998 203.01C82.5698 203.22 81.8998 204.03 82.0998 205.29C82.2998 206.56 83.1998 207.12 84.5098 206.91C85.9498 206.69 86.5298 205.93 86.3198 204.63Z" fill="#192548"/>
<path d="M93.1898 202.73L93.7298 206.19L92.9898 206.3L92.6598 204.9H92.6398C92.4598 205.93 91.6598 206.63 90.5498 206.8C89.3198 206.99 88.4698 206.56 88.3298 205.68C88.1398 204.47 89.0298 204.12 91.3798 203.37L92.3798 203.05L92.3398 202.83C92.1898 202.03 91.5498 201.73 90.5298 201.88C89.4298 202.05 89.0298 202.54 89.0598 203.42L88.2898 203.35C88.2098 202.11 89.0698 201.38 90.4298 201.17C91.8598 200.95 92.9898 201.43 93.1998 202.73H93.1898ZM92.4498 203.57L91.4498 203.89C90.0298 204.35 89.0498 204.63 89.1798 205.47C89.2698 206.03 89.7998 206.27 90.6798 206.13C91.8098 205.95 92.6798 204.9 92.4398 203.57H92.4498Z" fill="#192548"/>
<path d="M99.4798 201.75L100.02 205.21L99.2798 205.33L98.9498 203.93H98.9298C98.7498 204.96 97.9498 205.66 96.8398 205.83C95.6098 206.02 94.7598 205.59 94.6198 204.71C94.4298 203.5 95.3198 203.15 97.6698 202.4L98.6698 202.08L98.6298 201.86C98.4798 201.06 97.8398 200.76 96.8198 200.91C95.7198 201.08 95.3198 201.57 95.3498 202.45L94.5798 202.39C94.4998 201.15 95.3598 200.42 96.7198 200.21C98.1498 199.99 99.2798 200.46 99.4898 201.76L99.4798 201.75ZM98.7398 202.59L97.7398 202.91C96.3198 203.37 95.3398 203.65 95.4698 204.49C95.5598 205.05 96.0898 205.29 96.9698 205.15C98.0998 204.97 98.9698 203.92 98.7298 202.59H98.7398Z" fill="#192548"/>
<path d="M100.87 203.54L101.66 203.21C101.93 203.96 102.55 204.24 103.62 204.08C104.55 203.94 105.02 203.56 104.93 202.99C104.85 202.52 104.43 202.34 103.49 202.32L102.33 202.29C101.33 202.29 100.77 201.87 100.63 201.11C100.47 200.16 101.19 199.5 102.62 199.28C104.03 199.06 104.91 199.53 105.34 200.59L104.55 200.9C104.28 200.09 103.65 199.77 102.75 199.9C101.87 200.04 101.42 200.41 101.5 200.94C101.57 201.34 101.88 201.56 102.55 201.57L103.85 201.59C105.01 201.6 105.64 201.97 105.79 202.77C105.96 203.81 105.18 204.53 103.67 204.76C102.31 204.97 101.23 204.55 100.88 203.54H100.87Z" fill="#192548"/>
<path d="M114.72 200.22L113.81 200.36L114.22 203L113.37 203.13L112.15 195.29L113 195.16L113.69 199.58L114.6 199.44L116.42 197.24L117.57 197.06L115.35 199.77L118.55 202.32L117.55 202.47L114.72 200.2V200.22Z" fill="#192548"/>
<path d="M123.89 197.96L124.43 201.42L123.69 201.54L123.36 200.14H123.34C123.16 201.17 122.36 201.87 121.25 202.04C120.02 202.23 119.17 201.8 119.03 200.92C118.84 199.71 119.73 199.35 122.08 198.61L123.08 198.29L123.04 198.07C122.89 197.27 122.25 196.97 121.23 197.12C120.13 197.29 119.73 197.78 119.76 198.66L118.99 198.6C118.91 197.36 119.77 196.63 121.13 196.42C122.56 196.2 123.69 196.67 123.9 197.97L123.89 197.96ZM123.15 198.79L122.15 199.11C120.73 199.57 119.75 199.85 119.88 200.69C119.97 201.25 120.5 201.49 121.38 201.35C122.51 201.17 123.38 200.12 123.14 198.79H123.15Z" fill="#192548"/>
<path d="M125.23 195.88L125.96 195.77L126.33 197.18H126.34C126.54 195.86 127.54 195.33 128.85 195.29V196.14C127.5 196.14 126.32 197.1 126.57 198.72L126.93 201.04L126.06 201.18L125.24 195.89L125.23 195.88Z" fill="#192548"/>
<path d="M132.63 195.53L131.96 195.62L132.54 199.33L132.58 199.35L134.33 199.08L134.45 199.86L132.85 200.11C132.17 200.22 131.74 199.88 131.63 199.22L131.09 195.76L130.42 195.88L129.68 196L129.56 195.21L130.3 195.09L130.97 195L130.9 193.24L131.57 193.14L131.84 194.87L132.51 194.75L133.78 194.55L133.9 195.34L132.63 195.54V195.53Z" fill="#192548"/>
<path d="M140.08 195.44L140.62 198.9L139.88 199.02L139.55 197.62H139.53C139.35 198.65 138.55 199.35 137.44 199.52C136.21 199.71 135.36 199.28 135.22 198.4C135.03 197.19 135.92 196.83 138.27 196.09L139.27 195.77L139.23 195.55C139.08 194.75 138.44 194.45 137.42 194.6C136.32 194.77 135.92 195.26 135.95 196.14L135.18 196.08C135.1 194.84 135.96 194.11 137.32 193.9C138.75 193.68 139.88 194.15 140.09 195.45L140.08 195.44ZM139.34 196.28L138.34 196.6C136.92 197.06 135.94 197.34 136.07 198.18C136.16 198.74 136.69 198.98 137.57 198.84C138.7 198.66 139.57 197.61 139.33 196.28H139.34Z" fill="#192548"/>
<path d="M105.666 194.095L78.4141 198.333L78.5739 199.361L105.826 195.123L105.666 194.095Z" fill="#192548"/>
<path d="M107.998 209.059L80.7451 213.298L80.9049 214.325L108.157 210.087L107.998 209.059Z" fill="#192548"/>
</g>
<defs>
<clipPath id="clip0_8503_15284">
<rect width="375" height="375" fill="white"/>
</clipPath>
</defs>
</svg>
