<svg width="375" height="440" viewBox="0 0 375 440" fill="none" xmlns="http://www.w3.org/2000/svg">
<path d="M375 0H0V440H375V0Z" fill="#3472AF"/>
<path d="M220.872 109.457L220.405 110.044L320.441 189.417L320.908 188.83L220.872 109.457Z" fill="#A7AEB7"/>
<path d="M153.598 109.489L53.5067 188.792L53.9725 189.38L154.064 110.077L153.598 109.489Z" fill="#A7AEB7"/>
<path d="M53.9956 291.547L53.5295 292.134L153.566 371.507L154.032 370.92L53.9956 291.547Z" fill="#A7AEB7"/>
<path d="M320.467 291.592L220.376 370.895L220.842 371.483L320.933 292.179L320.467 291.592Z" fill="#A7AEB7"/>
<path d="M59.61 191.8H58.86V298.02H59.61V191.8Z" fill="#A7AEB7"/>
<path d="M321.05 191.8H320.3V298.02H321.05V191.8Z" fill="#A7AEB7"/>
<path d="M187.16 116.64H186.16V345.42H187.16V116.64Z" fill="#A7AEB7"/>
<path d="M63.0115 183.331L62.7028 184.014L184.585 239.046L184.893 238.363L63.0115 183.331Z" fill="#A7AEB7"/>
<path d="M308.134 183.305L186.252 238.337L186.561 239.02L308.443 183.989L308.134 183.305Z" fill="#A7AEB7"/>
<path d="M186.544 238.372L186.236 239.055L308.118 294.087L308.426 293.403L186.544 238.372Z" fill="#A7AEB7"/>
<path d="M184.595 238.338L62.7132 293.37L63.0218 294.053L184.904 239.022L184.595 238.338Z" fill="#A7AEB7"/>
<path d="M187.5 423.08C219.234 423.08 244.96 397.354 244.96 365.62C244.96 333.886 219.234 308.16 187.5 308.16C155.766 308.16 130.04 333.886 130.04 365.62C130.04 397.354 155.766 423.08 187.5 423.08Z" fill="#89C764"/>
<path d="M260.93 47.98H112.46V121.95H260.93V47.98Z" fill="#D9D9D9"/>
<path d="M277.88 47.98H260.93V121.95H277.88V47.98Z" fill="#214082"/>
<path d="M256.38 39.55H186.69H117.01L108.58 47.98H111.53H186.69H261.86H264.81L256.38 39.55Z" fill="#214082"/>
<path d="M157.77 48.42H215.62L186.69 34.85L157.77 48.42Z" fill="#D9D9D9"/>
<path d="M164.74 90.25L172.36 75.33V90.25H164.74Z" fill="white"/>
<path d="M172.86 90.7399H164.24V74.8199H172.86V90.7399ZM165.24 89.7399H171.86V75.8199H165.24V89.7399Z" fill="#192548"/>
<path d="M176.83 90.25L184.46 75.33V90.25H176.83Z" fill="white"/>
<path d="M184.96 90.7399H176.34V74.8199H184.96V90.7399ZM177.34 89.7399H183.96V75.8199H177.34V89.7399Z" fill="#192548"/>
<path d="M188.93 90.25L196.55 75.33V90.25H188.93Z" fill="white"/>
<path d="M197.05 90.7399H188.43V74.8199H197.05V90.7399ZM189.43 89.7399H196.05V75.8199H189.43V89.7399Z" fill="#192548"/>
<path d="M122.14 90.25L129.77 75.33V90.25H122.14Z" fill="white"/>
<path d="M130.27 90.7399H121.65V74.8199H130.27V90.7399ZM122.65 89.7399H129.27V75.8199H122.65V89.7399Z" fill="#192548"/>
<path d="M134.24 90.25L141.86 75.33V90.25H134.24Z" fill="white"/>
<path d="M142.36 90.7399H133.74V74.8199H142.36V90.7399ZM134.74 89.7399H141.36V75.8199H134.74V89.7399Z" fill="#192548"/>
<path d="M146.33 90.25L153.96 75.33V90.25H146.33Z" fill="white"/>
<path d="M154.46 90.7399H145.84V74.8199H154.46V90.7399ZM146.84 89.7399H153.46V75.8199H146.84V89.7399Z" fill="#192548"/>
<path d="M219.42 90.25L227.04 75.33V90.25H219.42Z" fill="white"/>
<path d="M227.54 90.7399H218.92V74.8199H227.54V90.7399ZM219.92 89.7399H226.54V75.8199H219.92V89.7399Z" fill="#192548"/>
<path d="M231.51 90.25L239.14 75.33V90.25H231.51Z" fill="white"/>
<path d="M239.64 90.7399H231.02V74.8199H239.64V90.7399ZM232.02 89.7399H238.64V75.8199H232.02V89.7399Z" fill="#192548"/>
<path d="M243.61 90.25L251.23 75.33V90.25H243.61Z" fill="white"/>
<path d="M251.73 90.7399H243.11V74.8199H251.73V90.7399ZM244.11 89.7399H250.73V75.8199H244.11V89.7399Z" fill="#192548"/>
<path d="M201.02 90.25L208.65 75.33V90.25H201.02Z" fill="white"/>
<path d="M209.15 90.7399H200.53V74.8199H209.15V90.7399ZM201.53 89.7399H208.15V75.8199H201.53V89.7399Z" fill="#192548"/>
<path d="M164.74 68.0299L172.36 58.45V68.0299H164.74Z" fill="white"/>
<path d="M172.86 68.5299H164.24V57.95H172.86V68.5299ZM165.24 67.5299H171.86V58.95H165.24V67.5299Z" fill="#192548"/>
<path d="M176.83 68.0299L184.46 58.45V68.0299H176.83Z" fill="white"/>
<path d="M184.96 68.5299H176.34V57.95H184.96V68.5299ZM177.34 67.5299H183.96V58.95H177.34V67.5299Z" fill="#192548"/>
<path d="M188.93 68.0299L196.55 58.45V68.0299H188.93Z" fill="white"/>
<path d="M197.05 68.5299H188.43V57.95H197.05V68.5299ZM189.43 67.5299H196.05V58.95H189.43V67.5299Z" fill="#192548"/>
<path d="M122.14 68.0299L129.77 58.45V68.0299H122.14Z" fill="white"/>
<path d="M130.27 68.5299H121.65V57.95H130.27V68.5299ZM122.65 67.5299H129.27V58.95H122.65V67.5299Z" fill="#192548"/>
<path d="M134.24 68.0299L141.86 58.45V68.0299H134.24Z" fill="white"/>
<path d="M142.36 68.5299H133.74V57.95H142.36V68.5299ZM134.74 67.5299H141.36V58.95H134.74V67.5299Z" fill="#192548"/>
<path d="M146.33 68.0299L153.96 58.45V68.0299H146.33Z" fill="white"/>
<path d="M154.46 68.5299H145.84V57.95H154.46V68.5299ZM146.84 67.5299H153.46V58.95H146.84V67.5299Z" fill="#192548"/>
<path d="M219.42 68.0299L227.04 58.45V68.0299H219.42Z" fill="white"/>
<path d="M227.54 68.5299H218.92V57.95H227.54V68.5299ZM219.92 67.5299H226.54V58.95H219.92V67.5299Z" fill="#192548"/>
<path d="M231.51 68.0299L239.14 58.45V68.0299H231.51Z" fill="white"/>
<path d="M239.64 68.5299H231.02V57.95H239.64V68.5299ZM232.02 67.5299H238.64V58.95H232.02V67.5299Z" fill="#192548"/>
<path d="M243.61 68.0299L251.23 58.45V68.0299H243.61Z" fill="white"/>
<path d="M251.73 68.5299H243.11V57.95H251.73V68.5299ZM244.11 67.5299H250.73V58.95H244.11V67.5299Z" fill="#192548"/>
<path d="M201.02 68.0299L208.65 58.45V68.0299H201.02Z" fill="white"/>
<path d="M209.15 68.5299H200.53V57.95H209.15V68.5299ZM201.53 67.5299H208.15V58.95H201.53V67.5299Z" fill="#192548"/>
<path d="M122.14 118.73L129.77 109.15V118.73H122.14Z" fill="white"/>
<path d="M130.27 119.23H121.65V108.65H130.27V119.23ZM122.65 118.23H129.27V109.65H122.65V118.23Z" fill="#192548"/>
<path d="M134.24 118.73L141.86 109.15V118.73H134.24Z" fill="white"/>
<path d="M142.36 119.23H133.74V108.65H142.36V119.23ZM134.74 118.23H141.36V109.65H134.74V118.23Z" fill="#192548"/>
<path d="M146.33 118.73L153.96 109.15V118.73H146.33Z" fill="white"/>
<path d="M154.46 119.23H145.84V108.65H154.46V119.23ZM146.84 118.23H153.46V109.65H146.84V118.23Z" fill="#192548"/>
<path d="M219.42 118.73L227.04 109.15V118.73H219.42Z" fill="white"/>
<path d="M227.54 119.23H218.92V108.65H227.54V119.23ZM219.92 118.23H226.54V109.65H219.92V118.23Z" fill="#192548"/>
<path d="M231.51 118.73L239.14 109.15V118.73H231.51Z" fill="white"/>
<path d="M239.64 119.23H231.02V108.65H239.64V119.23ZM232.02 118.23H238.64V109.65H232.02V118.23Z" fill="#192548"/>
<path d="M243.61 118.73L251.23 109.15V118.73H243.61Z" fill="white"/>
<path d="M251.73 119.23H243.11V108.65H251.73V119.23ZM244.11 118.23H250.73V109.65H244.11V118.23Z" fill="#192548"/>
<path d="M219.42 105.92L227.04 100V105.92H219.42Z" fill="white"/>
<path d="M227.54 106.42H218.92V99.5H227.54V106.42ZM219.92 105.42H226.54V100.5H219.92V105.42Z" fill="#192548"/>
<path d="M231.51 105.92L239.14 100V105.92H231.51Z" fill="white"/>
<path d="M239.64 106.42H231.02V99.5H239.64V106.42ZM232.02 105.42H238.64V100.5H232.02V105.42Z" fill="#192548"/>
<path d="M243.61 105.92L251.23 100V105.92H243.61Z" fill="white"/>
<path d="M251.73 106.42H243.11V99.5H251.73V106.42ZM244.11 105.42H250.73V100.5H244.11V105.42Z" fill="#192548"/>
<path d="M146.33 105.92L153.96 100V105.92H146.33Z" fill="white"/>
<path d="M154.46 106.42H145.84V99.5H154.46V106.42ZM146.84 105.42H153.46V100.5H146.84V105.42Z" fill="#192548"/>
<path d="M134.24 106.2L141.86 100.28V106.2H134.24Z" fill="white"/>
<path d="M142.36 106.7H133.74V99.78H142.36V106.7ZM134.74 105.7H141.36V100.78H134.74V105.7Z" fill="#192548"/>
<path d="M122.14 106.48L129.77 100.56V106.48H122.14Z" fill="white"/>
<path d="M130.27 106.98H121.65V100.06H130.27V106.98ZM122.65 105.98H129.27V101.06H122.65V105.98Z" fill="#192548"/>
<path d="M186.69 97.6801C192.13 97.6801 196.55 102.1 196.55 107.54V121.94H176.83V107.54C176.83 102.1 181.25 97.6801 186.69 97.6801Z" fill="#16254C"/>
<path d="M260.93 50.11H112.46V51.11H260.93V50.11Z" fill="#19A3DD"/>
<path d="M260.93 95.12H214.47V96.12H260.93V95.12Z" fill="#19A3DD"/>
<path d="M159.36 95.12H112.46V96.12H159.36V95.12Z" fill="#19A3DD"/>
<path d="M159.86 50.61H158.86V121.94H159.86V50.61Z" fill="#19A3DD"/>
<path d="M214.97 50.61H213.97V121.94H214.97V50.61Z" fill="#19A3DD"/>
<path d="M210.58 121.95H209.58V94.48H163.8V121.95H162.8V93.48H210.58V121.95Z" fill="#19A3DD"/>
<path d="M207.81 121.95H206.81V97.77H199.56V121.95H198.56V96.77H207.81V121.95Z" fill="#19A3DD"/>
<path d="M196.8 121.95H195.8V97.77H177.59V121.95H176.59V96.77H196.8V121.95Z" fill="#19A3DD"/>
<path d="M174.82 121.95H173.82V97.77H166.57V121.95H165.57V96.77H174.82V121.95Z" fill="#19A3DD"/>
<path d="M271.84 39.55H254.58L263.31 47.98H277.52H280.58L271.84 39.55Z" fill="#16254C"/>
<path d="M277.88 50.11H260.93V51.11H277.88V50.11Z" fill="#192548"/>
<path d="M195.11 33.4301H178.28V36.2601H195.11V33.4301Z" fill="#16254C"/>
<path d="M191.7 28.41H181.69V35.05H191.7V28.41Z" fill="#16254C"/>
<path d="M290.45 168.04H347.36C349.32 168.04 350.91 169.63 350.91 171.59V206.63C350.91 208.59 349.32 210.18 347.36 210.18H294C292.04 210.18 290.45 208.59 290.45 206.63V168.04Z" fill="#89C764"/>
<path d="M294.66 161.35H316.85C321.22 161.35 324.77 164.9 324.77 169.27V170.05C324.77 173.04 322.34 175.47 319.35 175.47H295.85C292.86 175.47 290.43 173.04 290.43 170.05V165.56C290.43 163.23 292.32 161.34 294.65 161.34L294.66 161.35Z" fill="#89C764"/>
<path d="M343.35 165.46H294.19V168.05H343.35V165.46Z" fill="white"/>
<path d="M73.65 151.95H41.76V209.34H82.62V160.92L73.65 151.95Z" fill="white"/>
<path d="M73.65 160.92H82.62L73.65 151.95V160.92Z" fill="#D9D9D9"/>
<path d="M69.56 165.29H46.29V166.29H69.56V165.29Z" fill="#192548"/>
<path d="M76.23 170.17H46.29V171.17H76.23V170.17Z" fill="#192548"/>
<path d="M76.22 203.42H62.85V204.42H76.22V203.42Z" fill="#192548"/>
<path d="M69.56 187.88H46.29V188.88H69.56V187.88Z" fill="#192548"/>
<path d="M76.23 192.76H46.29V193.76H76.23V192.76Z" fill="#192548"/>
<path d="M66.1 197.58H46.29V198.58H66.1V197.58Z" fill="#192548"/>
<path d="M49.96 183.66C51.9869 183.66 53.63 182.017 53.63 179.99C53.63 177.963 51.9869 176.32 49.96 176.32C47.9331 176.32 46.29 177.963 46.29 179.99C46.29 182.017 47.9331 183.66 49.96 183.66Z" fill="#89C764"/>
<path d="M52.37 155.41H46.29V161.49H52.37V155.41Z" fill="#3472AF"/>
<path d="M53.07 196.57C58.71 190.93 58.71 181.8 53.07 176.16C47.43 170.52 38.3 170.52 32.66 176.16C27.02 181.8 27.02 190.93 32.66 196.57C38.3 202.21 47.43 202.21 53.07 196.57ZM35.15 178.65C39.41 174.39 46.32 174.39 50.58 178.65C54.84 182.91 54.84 189.82 50.58 194.08C46.32 198.34 39.41 198.34 35.15 194.08C30.89 189.82 30.89 182.91 35.15 178.65Z" fill="#16254C"/>
<path d="M49.4 192.9L48.69 192.19C51.91 188.97 51.91 183.74 48.69 180.53L49.4 179.82C53.01 183.43 53.01 189.29 49.4 192.9Z" fill="white"/>
<path d="M47.61 179.62C46.48 178.82 45.16 178.32 43.78 178.17L43.89 177.18C45.44 177.35 46.92 177.92 48.19 178.81L47.61 179.63V179.62Z" fill="white"/>
<path d="M20.6589 211.594L35.0273 197.225C35.8591 196.393 35.8591 195.045 35.0273 194.213C34.1955 193.381 32.8469 193.381 32.015 194.213L17.6466 208.581C16.8148 209.413 16.8148 210.762 17.6466 211.594C18.4785 212.425 19.8271 212.425 20.6589 211.594Z" fill="#16254C"/>
<path d="M59.67 320.52C49.29 320.52 40.86 312.09 40.86 301.71L40.86 285.35H78.48V301.71C78.48 312.09 70.05 320.52 59.67 320.52Z" fill="#16254C"/>
<path d="M56.17 320.52C45.79 320.52 37.36 312.09 37.36 301.71L37.36 285.35H74.98V301.71C74.98 312.09 66.55 320.52 56.17 320.52Z" fill="#89C764"/>
<path d="M74.97 285.35H78.47V278.31C78.47 267.95 70.04 259.52 59.68 259.52C49.32 259.52 40.89 267.95 40.89 278.31H44.39C44.39 269.88 51.25 263.01 59.69 263.01C68.12 263.01 74.99 269.87 74.99 278.31V285.35H74.97Z" fill="#16254C"/>
<path d="M71.47 285.35H74.97V278.31C74.97 267.95 66.54 259.52 56.18 259.52C45.82 259.52 37.39 267.95 37.39 278.31H40.89C40.89 269.88 47.75 263.01 56.19 263.01C64.62 263.01 71.49 269.87 71.49 278.31V285.35H71.47Z" fill="#89C764"/>
<path d="M56.18 298.02C57.87 298.02 59.24 296.65 59.24 294.96C59.24 293.27 57.87 291.9 56.18 291.9C54.49 291.9 53.12 293.27 53.12 294.96C53.12 296.65 54.49 298.02 56.18 298.02Z" fill="#16254C"/>
<path d="M52.5 307.74H59.86L56.18 294.96L52.5 307.74Z" fill="#16254C"/>
<path d="M344.43 283.07V267.39H341.19H339.27H328.57H323.41V283.09H326.65V285.49H323.41V301.17H326.65V303.59H323.41V319.28H326.65H328.57H339.27H344.43V303.59H340.03V301.17H344.43V285.49H340.03V283.07H344.43Z" fill="#D9D9D9"/>
<path d="M339.35 271.31H328.49V272.31H339.35V271.31Z" fill="#192548"/>
<path d="M339.35 273.57H328.49V274.57H339.35V273.57Z" fill="#192548"/>
<path d="M339.35 275.84H328.49V276.84H339.35V275.84Z" fill="#192548"/>
<path d="M339.35 278.1H328.49V279.1H339.35V278.1Z" fill="#192548"/>
<path d="M339.35 289.44H328.49V290.44H339.35V289.44Z" fill="#192548"/>
<path d="M339.35 291.7H328.49V292.7H339.35V291.7Z" fill="#192548"/>
<path d="M339.35 293.96H328.49V294.96H339.35V293.96Z" fill="#192548"/>
<path d="M339.35 296.23H328.49V297.23H339.35V296.23Z" fill="#192548"/>
<path d="M339.35 307.56H328.49V308.56H339.35V307.56Z" fill="#192548"/>
<path d="M339.35 309.83H328.49V310.83H339.35V309.83Z" fill="#192548"/>
<path d="M339.35 312.09H328.49V313.09H339.35V312.09Z" fill="#192548"/>
<path d="M339.35 314.35H328.49V315.35H339.35V314.35Z" fill="#192548"/>
<path d="M340.03 285.49V283.07H323.67V267.39H292.74H288.62V283.07H292.74V285.49H288.62V301.17H292.74V303.59H288.62V319.28H323.67V303.59H340.03V301.17H323.67V285.49H340.03Z" fill="#16254C"/>
<path d="M295.76 273.67H292.64V276.79H295.76V273.67Z" fill="#89C764"/>
<path d="M301.69 273.67H298.57V276.79H301.69V273.67Z" fill="#89C764"/>
<path d="M307.63 273.67H304.51V276.79H307.63V273.67Z" fill="#89C764"/>
<path d="M318.49 273.67H315.37V276.79H318.49V273.67Z" fill="#3472AF"/>
<path d="M295.76 291.84H292.64V294.96H295.76V291.84Z" fill="#89C764"/>
<path d="M301.69 291.84H298.57V294.96H301.69V291.84Z" fill="#89C764"/>
<path d="M307.63 291.84H304.51V294.96H307.63V291.84Z" fill="#89C764"/>
<path d="M318.49 291.84H315.37V294.96H318.49V291.84Z" fill="#3472AF"/>
<path d="M295.76 310H292.64V313.12H295.76V310Z" fill="#89C764"/>
<path d="M301.69 310H298.57V313.12H301.69V310Z" fill="#89C764"/>
<path d="M307.63 310H304.51V313.12H307.63V310Z" fill="#89C764"/>
<path d="M318.49 310H315.37V313.12H318.49V310Z" fill="#3472AF"/>
<path d="M323.67 283.07H292.74V285.48H323.67V283.07Z" fill="#D9D9D9"/>
<path d="M323.67 301.17H292.74V303.58H323.67V301.17Z" fill="#D9D9D9"/>
<path d="M198.33 331.45H171.3C169.384 331.45 167.83 333.004 167.83 334.92V394.34C167.83 396.256 169.384 397.81 171.3 397.81H198.33C200.246 397.81 201.8 396.256 201.8 394.34V334.92C201.8 333.004 200.246 331.45 198.33 331.45Z" fill="#16254C"/>
<path d="M202.15 331.45H175.12C173.204 331.45 171.65 333.004 171.65 334.92V394.34C171.65 396.256 173.204 397.81 175.12 397.81H202.15C204.066 397.81 205.62 396.256 205.62 394.34V334.92C205.62 333.004 204.066 331.45 202.15 331.45Z" fill="#214082"/>
<path d="M202.15 333.54H175.11C174.353 333.54 173.74 334.153 173.74 334.91V394.35C173.74 395.107 174.353 395.72 175.11 395.72H202.15C202.907 395.72 203.52 395.107 203.52 394.35V334.91C203.52 334.153 202.907 333.54 202.15 333.54Z" fill="white"/>
<path d="M194.25 332.08H183.39C182.843 332.08 182.4 332.523 182.4 333.07V334.34C182.4 334.887 182.843 335.33 183.39 335.33H194.25C194.797 335.33 195.24 334.887 195.24 334.34V333.07C195.24 332.523 194.797 332.08 194.25 332.08Z" fill="#214082"/>
<path d="M184.23 362C184.23 361.32 183.88 360.89 183.36 360.89C182.84 360.89 182.48 361.33 182.48 362C182.48 362.67 182.83 363.11 183.36 363.11C183.89 363.11 184.23 362.68 184.23 362ZM181.53 360.15H182.48V360.34L182.42 360.8H182.52C182.72 360.41 183.11 360.11 183.67 360.11C184.53 360.11 185.18 360.82 185.18 362C185.18 363.18 184.52 363.89 183.67 363.89C183.11 363.89 182.72 363.56 182.52 363.2H182.42L182.48 363.69V365.63H181.53V360.16V360.15Z" fill="#89C764"/>
<path d="M188.12 362.39V362.29C187.38 362.29 186.58 362.29 186.58 362.81C186.58 363.07 186.79 363.22 187.16 363.22C187.73 363.22 188.12 362.89 188.12 362.39ZM185.65 362.88C185.65 361.7 187.05 361.74 188.12 361.74V361.45C188.12 361.04 187.89 360.84 187.46 360.84C187.03 360.84 186.77 361.03 186.72 361.53L185.81 361.49C185.87 360.47 186.59 360.08 187.46 360.08C188.38 360.08 189.06 360.47 189.06 361.53V363.85H188.32L188.25 363.23H188.17C187.98 363.69 187.54 363.92 186.91 363.92C186.16 363.92 185.65 363.53 185.65 362.89" fill="#89C764"/>
<path d="M192.08 362.39V362.29C191.34 362.29 190.54 362.29 190.54 362.81C190.54 363.07 190.75 363.22 191.12 363.22C191.69 363.22 192.08 362.89 192.08 362.39ZM189.61 362.88C189.61 361.7 191.01 361.74 192.08 361.74V361.45C192.08 361.04 191.85 360.84 191.42 360.84C190.99 360.84 190.73 361.03 190.68 361.53L189.77 361.49C189.83 360.47 190.55 360.08 191.42 360.08C192.34 360.08 193.02 360.47 193.02 361.53V363.85H192.28L192.21 363.23H192.13C191.94 363.69 191.5 363.92 190.87 363.92C190.12 363.92 189.61 363.53 189.61 362.89" fill="#89C764"/>
<path d="M193.58 362.76L194.47 362.67C194.55 363.02 194.8 363.19 195.28 363.19C195.72 363.19 195.98 363.03 195.98 362.75C195.98 362.57 195.88 362.43 195.46 362.37L194.81 362.3C194.21 362.23 193.62 361.98 193.62 361.3C193.62 360.55 194.23 360.08 195.16 360.08C196.09 360.08 196.64 360.52 196.69 361.29L195.86 361.35C195.82 361 195.6 360.81 195.15 360.81C194.7 360.81 194.51 361 194.51 361.27C194.51 361.46 194.65 361.57 194.98 361.62L195.65 361.69C196.31 361.78 196.88 362.02 196.88 362.72C196.88 363.47 196.33 363.92 195.28 363.92C194.23 363.92 193.68 363.5 193.58 362.76Z" fill="#89C764"/>
<path d="M199.29 356.77H179.11V357.55H199.29V356.77Z" fill="#89C764"/>
<path d="M199.29 367.04H179.11V367.82H199.29V367.04Z" fill="#89C764"/>
<path d="M176.88 236.28C176.11 236.9 175.6 237.69 175.46 238.6C175.05 241.19 177.75 243.76 181.48 244.35C183.44 244.66 185.29 244.36 186.67 243.63C189.6 246.58 194.51 248.51 200.07 248.51C209.04 248.51 216.32 243.48 216.32 237.28C216.32 237.19 216.32 237.11 216.32 237.02C222.1 236.04 226.4 232.35 226.4 227.96C226.4 222.81 220.51 218.64 213.24 218.64C212.67 218.64 212.11 218.67 211.56 218.72C210.2 214.59 205.91 211.57 200.82 211.57C196.18 211.57 192.19 214.08 190.5 217.66C188.39 216.9 185.98 216.47 183.43 216.47C175.02 216.47 168.21 221.13 168.21 226.87C168.21 231.02 171.76 234.6 176.9 236.27L176.88 236.28Z" fill="white"/>
<path d="M194.58 229.12C195.839 229.12 196.86 228.099 196.86 226.84C196.86 225.581 195.839 224.56 194.58 224.56C193.321 224.56 192.3 225.581 192.3 226.84C192.3 228.099 193.321 229.12 194.58 229.12Z" fill="#89C764"/>
<path d="M209.55 240.98C210.809 240.98 211.83 239.959 211.83 238.7C211.83 237.441 210.809 236.42 209.55 236.42C208.291 236.42 207.27 237.441 207.27 238.7C207.27 239.959 208.291 240.98 209.55 240.98Z" fill="#89C764"/>
<path d="M218.6 227.37C219.859 227.37 220.88 226.349 220.88 225.09C220.88 223.831 219.859 222.81 218.6 222.81C217.341 222.81 216.32 223.831 216.32 225.09C216.32 226.349 217.341 227.37 218.6 227.37Z" fill="#89C764"/>
<path d="M231.92 243.94C233.179 243.94 234.2 242.919 234.2 241.66C234.2 240.401 233.179 239.38 231.92 239.38C230.661 239.38 229.64 240.401 229.64 241.66C229.64 242.919 230.661 243.94 231.92 243.94Z" fill="#89C764"/>
<path d="M197.28 255.42C197.28 256.68 196.26 257.7 195 257.7C193.74 257.7 192.72 256.68 192.72 255.42C192.72 254.16 193.74 253.14 195 253.14C196.26 253.14 197.28 254.16 197.28 255.42Z" fill="#89C764"/>
<path d="M182.46 240.98C183.719 240.98 184.74 239.959 184.74 238.7C184.74 237.441 183.719 236.42 182.46 236.42C181.201 236.42 180.18 237.441 180.18 238.7C180.18 239.959 181.201 240.98 182.46 240.98Z" fill="#89C764"/>
<path d="M194.6 255.72L181.8 238.65L194.54 226.17L209.44 237.97L218.56 224.25L232.31 241.35L231.53 241.98L218.64 225.94L209.67 239.43L194.61 227.5L183.12 238.75L195.4 255.12L194.6 255.72Z" fill="#89C764"/>
<path d="M209.168 238.363L194.623 255.095L195.378 255.751L209.923 239.019L209.168 238.363Z" fill="#89C764"/>
<path d="M209.625 238.203L209.493 239.195L231.868 242.16L231.999 241.169L209.625 238.203Z" fill="#89C764"/>
<path d="M169.77 228.24C164.2 228.24 159.51 232.07 158.19 237.23H139.46C137.82 237.23 136.47 238.56 136.47 240.19V246.95H139.43V244.98H141.95V246.95H145.38V244.98H147.9V246.95H150.47V243.15H158.19C159.51 248.31 164.2 252.14 169.77 252.14C176.36 252.14 181.72 246.78 181.72 240.19C181.72 233.6 176.36 228.24 169.77 228.24ZM169.77 243.64C167.87 243.64 166.32 242.09 166.32 240.19C166.32 238.29 167.87 236.74 169.77 236.74C171.67 236.74 173.22 238.29 173.22 240.19C173.22 242.09 171.67 243.64 169.77 243.64Z" fill="#16254C"/>
<path d="M167.25 228.24C161.68 228.24 156.99 232.07 155.67 237.23H136.94C135.3 237.23 133.98 238.56 133.98 240.19V246.95H136.48V244.98H139.43V246.95H142.43V244.98H145.38V246.95H147.95V243.15H155.67C156.99 248.31 161.68 252.14 167.25 252.14C173.84 252.14 179.2 246.78 179.2 240.19C179.2 233.6 173.84 228.24 167.25 228.24ZM167.25 243.64C165.35 243.64 163.8 242.09 163.8 240.19C163.8 238.29 165.35 236.74 167.25 236.74C169.15 236.74 170.7 238.29 170.7 240.19C170.7 242.09 169.15 243.64 167.25 243.64Z" fill="#D9D9D9"/>
<path d="M209.55 238.2H182.46V239.2H209.55V238.2Z" fill="#89C764"/>
</svg>
