<svg width="375" height="440" viewBox="0 0 375 440" fill="none" xmlns="http://www.w3.org/2000/svg">
<path d="M375 0H0V440H375V0Z" fill="#D9D9D9"/>
<path d="M53.5469 83.795L157.279 63.3872C168.503 61.1789 179.412 68.5009 181.62 79.7257L233.576 343.813C235.784 355.038 228.462 365.947 217.237 368.155L113.506 388.563C101.947 390.837 90.7217 383.302 88.4478 371.744L36.7296 108.863C34.4557 97.3044 41.9904 86.0788 53.5489 83.8048L53.5469 83.795Z" fill="#16254C"/>
<path d="M169.489 60.9807L69.231 80.7051C55.8407 83.3394 47.1213 96.3299 49.7556 109.72L100.173 365.988C102.807 379.378 115.798 388.098 129.188 385.463L229.446 365.739C242.836 363.104 251.556 350.114 248.921 336.724L198.504 80.456C195.87 67.0657 182.879 58.3463 169.489 60.9807Z" fill="#3472AF"/>
<path d="M127.6 377.25C118.76 378.99 110.15 373.21 108.4 364.37L57.97 108.1C56.23 99.26 62.01 90.65 70.85 88.91L99.67 83.24L99.83 84.06C100.56 87.75 104.15 90.16 107.84 89.44L141.94 82.73C145.63 82 148.04 78.41 147.32 74.72L147.16 73.9L171.11 69.19C179.95 67.45 188.57 73.23 190.31 82.07L240.75 338.33C242.49 347.17 236.71 355.78 227.87 357.53L127.61 377.26L127.6 377.25Z" fill="white"/>
<path d="M124.44 378.06C116.56 378.06 109.5 372.49 107.92 364.47L57.47 108.2C56.6 103.79 57.51 99.3 60.02 95.56C62.53 91.82 66.34 89.28 70.75 88.41L100.06 82.64L100.32 83.95C100.65 85.6 101.6 87.03 103 87.98C104.4 88.92 106.09 89.26 107.74 88.94L141.84 82.23C145.26 81.56 147.5 78.23 146.82 74.81L146.56 73.5L171 68.69C175.41 67.82 179.9 68.73 183.64 71.24C187.38 73.75 189.92 77.56 190.79 81.97L241.23 338.23C242.1 342.64 241.19 347.13 238.68 350.87C236.17 354.61 232.36 357.15 227.95 358.01L127.69 377.74C126.6 377.96 125.51 378.06 124.43 378.06H124.44ZM99.27 83.82L70.94 89.4C66.79 90.22 63.21 92.6 60.85 96.12C58.49 99.64 57.64 103.86 58.45 108.01L108.89 364.27C110.58 372.84 118.93 378.45 127.5 376.76L227.76 357.03C231.91 356.21 235.49 353.83 237.85 350.31C240.21 346.79 241.06 342.57 240.25 338.42L189.81 82.16C188.99 78.01 186.61 74.43 183.09 72.07C179.57 69.71 175.35 68.86 171.2 69.67L147.74 74.29L147.8 74.62C148.58 78.58 145.99 82.44 142.03 83.22L107.93 89.93C106.01 90.31 104.06 89.91 102.44 88.82C100.81 87.73 99.71 86.07 99.33 84.16L99.27 83.83V83.82Z" fill="#393B56"/>
<path d="M138.295 75.1065L109.431 80.8007L109.625 81.7818L138.489 76.0876L138.295 75.1065Z" fill="#393B56"/>
<path d="M120.56 116.98C120.28 115.54 119.34 114.77 118.24 114.99C117.14 115.21 116.55 116.28 116.83 117.71C117.11 119.14 118.03 119.92 119.16 119.7C120.29 119.48 120.83 118.42 120.55 116.98M114.03 114.19L116.04 113.79L116.12 114.2L116.19 115.2L116.41 115.16C116.67 114.24 117.38 113.44 118.57 113.2C120.39 112.84 122.09 114.07 122.58 116.59C123.06 119.04 121.97 120.89 120.15 121.24C118.96 121.47 117.99 120.95 117.41 120.25L117.19 120.29L117.52 121.3L118.33 125.41L116.32 125.81L114.03 114.19Z" fill="#89C764"/>
<path d="M129 116.19L128.96 115.97C127.39 116.28 125.7 116.63 125.91 117.71C126.02 118.26 126.54 118.5 127.31 118.35C128.52 118.11 129.21 117.24 129.01 116.19M123.96 118.28C123.47 115.77 126.45 115.26 128.74 114.81L128.62 114.2C128.45 113.32 127.88 112.99 126.97 113.17C126.06 113.35 125.57 113.87 125.69 114.96L123.74 115.25C123.44 113.06 124.81 111.92 126.65 111.56C128.6 111.18 130.21 111.72 130.65 113.97L131.62 118.9L130.05 119.21L129.63 117.92L129.46 117.95C129.24 119 128.42 119.69 127.07 119.96C125.48 120.27 124.24 119.65 123.97 118.29" fill="#89C764"/>
<path d="M137.42 114.53L137.38 114.31C135.81 114.62 134.12 114.97 134.33 116.05C134.44 116.6 134.96 116.84 135.73 116.69C136.94 116.45 137.63 115.58 137.43 114.53M132.38 116.62C131.89 114.11 134.87 113.6 137.16 113.15L137.04 112.54C136.87 111.66 136.3 111.33 135.39 111.51C134.48 111.69 133.99 112.21 134.11 113.3L132.16 113.59C131.86 111.4 133.23 110.26 135.07 109.9C137.02 109.52 138.63 110.06 139.07 112.31L140.04 117.24L138.47 117.55L138.05 116.26L137.88 116.29C137.66 117.34 136.84 118.03 135.49 118.3C133.9 118.61 132.66 117.99 132.39 116.63" fill="#89C764"/>
<path d="M140.76 114.69L142.62 114.13C142.94 114.83 143.53 115.09 144.55 114.89C145.49 114.7 145.98 114.27 145.86 113.67C145.79 113.29 145.5 113.02 144.6 113.09L143.19 113.2C141.89 113.31 140.53 113.02 140.24 111.56C139.92 109.96 141.02 108.72 143 108.33C144.98 107.94 146.33 108.65 146.76 110.27L145.03 110.74C144.81 110.02 144.25 109.7 143.3 109.89C142.39 110.07 142.01 110.57 142.13 111.13C142.21 111.54 142.56 111.72 143.28 111.67L144.74 111.55C146.19 111.46 147.49 111.74 147.78 113.24C148.09 114.83 147.12 116.01 144.87 116.46C142.67 116.89 141.3 116.23 140.77 114.71" fill="#89C764"/>
<path d="M150.4 99.5639L107.482 108.007L107.811 109.675L150.728 101.232L150.4 99.5639Z" fill="#89C764"/>
<path d="M154.693 121.393L111.775 129.837L112.104 131.505L155.021 123.061L154.693 121.393Z" fill="#89C764"/>
<path d="M172.85 349.78C181.377 349.78 188.29 342.867 188.29 334.34C188.29 325.813 181.377 318.9 172.85 318.9C164.323 318.9 157.41 325.813 157.41 334.34C157.41 342.867 164.323 349.78 172.85 349.78Z" fill="#89C764"/>
<path d="M171.85 340.56L165.68 335.85L166.7 334.51L171.28 338.01L177.09 326.79L178.58 327.56L171.85 340.56Z" fill="white"/>
<path d="M282.48 220.48L140.24 270.55C136.15 271.99 131.63 269.82 130.19 265.73L101.53 184.31C100.86 182.4 101.12 179.58 102.7 176.55C103.69 174.64 104.17 175.03 106.35 174.26L248.59 124.19C252.68 122.75 257.2 124.92 258.64 129.01L287.3 210.43C288.02 212.47 288.38 213.02 287.69 214.92C287.08 216.62 285.38 219.46 282.48 220.48Z" fill="#8A9AA7"/>
<path d="M249.429 122.455L107.182 172.52C103.077 173.965 100.92 178.464 102.365 182.569L131.02 263.983C132.465 268.089 136.964 270.245 141.069 268.8L283.316 218.735C287.421 217.29 289.578 212.791 288.133 208.686L259.478 127.272C258.033 123.166 253.534 121.01 249.429 122.455Z" fill="#CDCECF"/>
<path d="M273.84 193.56L270.63 194.68L265.71 180.71L265.12 180.92L270.04 194.89L259.89 198.46L254.97 184.49L254.38 184.7L259.3 198.67L249.15 202.24L244.23 188.27L243.65 188.48L248.56 202.45L238.41 206.02L233.5 192.05L232.91 192.26L237.83 206.23L234.62 207.36L234.83 207.95L238.03 206.82L242.95 220.79L243.54 220.59L238.62 206.61L248.77 203.04L253.69 217.01L254.28 216.81L249.36 202.83L259.51 199.26L264.43 213.23L265.02 213.03L260.1 199.05L270.25 195.48L275.17 209.45L275.76 209.25L270.84 195.27L274.04 194.14L273.84 193.56Z" fill="#758089"/>
<path d="M256.12 205.29L253.93 206.06L256.29 212.75L256.88 212.54L255.99 210.02L257.59 209.46C258.74 209.06 259.34 207.79 258.94 206.64C258.54 205.49 257.27 204.88 256.12 205.29ZM257.38 208.87L255.78 209.43L254.73 206.44L256.33 205.88C257.15 205.59 258.06 206.03 258.35 206.85C258.64 207.67 258.21 208.58 257.38 208.87Z" fill="#758089"/>
<path d="M261.16 190.26L262.76 189.7C263.91 189.3 264.51 188.03 264.11 186.88C263.71 185.73 262.44 185.12 261.29 185.53L259.11 186.3L261.47 192.99L262.06 192.78L261.17 190.26H261.16ZM259.9 186.68L261.5 186.12C262.32 185.83 263.23 186.27 263.52 187.09C263.81 187.91 263.38 188.82 262.55 189.11L260.95 189.67L259.9 186.68Z" fill="#758089"/>
<path d="M242.2 202.27L243.27 201.89C244.83 201.34 245.53 200.2 245.07 198.9L242.81 192.48C242.26 190.93 240.56 190.11 239 190.65L238.48 190.83C236.93 191.38 236.11 193.08 236.66 194.64L238.92 201.06C239.37 202.35 240.63 202.81 242.19 202.26L242.2 202.27ZM237.25 194.44C236.82 193.21 237.46 191.86 238.69 191.43L239.21 191.25C240.44 190.82 241.79 191.47 242.22 192.7L244.48 199.12C244.96 200.48 243.64 201.1 243.06 201.31L241.99 201.69C241.4 201.9 239.99 202.23 239.51 200.87L237.25 194.45V194.44Z" fill="#758089"/>
<path d="M240.01 194.35C240.84 194.06 241.3 194.18 241.3 194.18L241.39 193.88L241.48 193.58C241.42 193.56 240.83 193.4 239.81 193.76C238.91 194.08 238.44 194.66 238.42 194.69L238.91 195.08C238.91 195.08 239.3 194.61 240.02 194.35H240.01Z" fill="#758089"/>
<path d="M242.595 198.208L240.387 198.985L240.593 199.57L242.801 198.793L242.595 198.208Z" fill="#758089"/>
<path d="M253.21 198.39L253.73 198.21C255.28 197.66 256.1 195.96 255.55 194.4L253.29 187.98C252.84 186.69 251.58 186.23 250.02 186.78L248.95 187.16C247.39 187.71 246.69 188.85 247.15 190.15L249.41 196.57C249.96 198.12 251.66 198.94 253.22 198.4L253.21 198.39ZM247.73 189.93C247.25 188.57 248.57 187.95 249.15 187.74L250.22 187.36C250.81 187.15 252.22 186.82 252.7 188.18L254.96 194.6C255.39 195.83 254.75 197.18 253.52 197.61L253 197.79C251.77 198.22 250.42 197.57 249.99 196.34L247.73 189.92V189.93Z" fill="#758089"/>
<path d="M253.8 194.36L253.31 193.97C253.31 193.97 252.92 194.44 252.2 194.7C251.37 194.99 250.91 194.87 250.91 194.87L250.73 195.47C250.79 195.49 251.38 195.65 252.4 195.29C253.3 194.97 253.77 194.39 253.79 194.36H253.8Z" fill="#758089"/>
<path d="M251.602 189.501L249.395 190.278L249.601 190.863L251.808 190.086L251.602 189.501Z" fill="#758089"/>
<path d="M266.18 199.3L265.66 199.48C264.11 200.03 263.29 201.73 263.84 203.29L266.1 209.71C266.55 211 267.81 211.46 269.37 210.91L270.44 210.53C272 209.98 272.7 208.84 272.24 207.54L269.98 201.12C269.43 199.57 267.73 198.75 266.17 199.29L266.18 199.3ZM271.66 207.76C272.14 209.12 270.82 209.74 270.24 209.95L269.17 210.33C268.58 210.54 267.17 210.87 266.69 209.51L264.43 203.09C264 201.86 264.64 200.51 265.87 200.08L266.39 199.9C267.62 199.47 268.97 200.12 269.4 201.35L271.66 207.77V207.76Z" fill="#758089"/>
<path d="M265.59 203.34L266.08 203.73C266.08 203.73 266.47 203.26 267.19 203C268.02 202.71 268.48 202.83 268.48 202.83L268.66 202.23C268.6 202.21 268.01 202.05 266.99 202.41C266.09 202.73 265.62 203.31 265.6 203.34H265.59Z" fill="#758089"/>
<path d="M269.781 206.851L267.574 207.628L267.78 208.213L269.987 207.436L269.781 206.851Z" fill="#758089"/>
<path d="M244.98 206.77L243.91 207.15C242.34 207.7 241.65 208.84 242.11 210.14L244.37 216.56C244.92 218.11 246.62 218.93 248.18 218.39L248.7 218.21C250.25 217.66 251.07 215.96 250.52 214.4L248.26 207.98C247.81 206.69 246.55 206.23 244.99 206.78L244.98 206.77ZM249.93 214.6C250.36 215.83 249.72 217.18 248.49 217.61L247.97 217.79C246.74 218.22 245.39 217.57 244.96 216.34L242.7 209.92C242.22 208.56 243.54 207.94 244.12 207.73L245.19 207.35C245.78 207.14 247.19 206.81 247.67 208.17L249.93 214.59V214.6Z" fill="#758089"/>
<path d="M247.16 214.68C246.33 214.97 245.87 214.85 245.87 214.85L245.69 215.45C245.75 215.47 246.34 215.63 247.36 215.27C248.26 214.95 248.73 214.37 248.75 214.34L248.26 213.95C248.26 213.95 247.87 214.42 247.15 214.68H247.16Z" fill="#758089"/>
<path d="M246.561 209.481L244.354 210.258L244.56 210.843L246.767 210.066L246.561 209.481Z" fill="#758089"/>
<g opacity="0.6">
<path d="M197.84 248.81L158.73 262.58L168.44 150.95L207.55 137.18L197.84 248.81Z" fill="#DFDFDF"/>
</g>
<g opacity="0.6">
<path d="M219.08 241.33L205.05 246.27L214.76 134.64L228.79 129.7L219.08 241.33Z" fill="#DFDFDF"/>
</g>
<path d="M122.05 183.83C123.5 183.38 124.71 183.85 125.09 184.94C125.63 186.48 124.91 187.79 123.31 188.36L117.76 190.32L114.67 181.54L119.67 179.78C121.49 179.14 122.82 179.64 123.31 181.03C123.69 182.1 123.23 183.21 122.04 183.79V183.83H122.05ZM118.13 184.19L120.66 183.3C121.15 183.13 121.31 182.78 121.13 182.26C120.98 181.82 120.55 181.72 120.04 181.9L117.62 182.75L118.13 184.19ZM122.59 185.48C122.43 185.02 122.03 184.89 121.42 185.1L118.79 186.03L119.31 187.51L122.01 186.56C122.59 186.36 122.78 185.99 122.6 185.48H122.59Z" fill="#192548"/>
<path d="M125.06 182.83C124.08 180.03 125.63 177.53 128.58 176.49C131.55 175.44 134.3 176.46 135.28 179.23C136.26 182 134.69 184.48 131.76 185.51C128.79 186.56 126.03 185.57 125.07 182.82L125.06 182.83ZM132.89 180.05C132.21 178.12 131.22 177.9 129.31 178.58C127.4 179.25 126.75 180.04 127.43 181.97C128.14 183.98 129.11 184.11 131.02 183.44C132.93 182.77 133.49 181.77 132.88 180.05H132.89Z" fill="#192548"/>
<path d="M135.06 174.36L138.13 173.28L143.04 176.86L144.04 177.62L144.09 177.6L143.74 176.64L142.07 171.89L144.35 171.09L147.44 179.87L144.49 180.91L139.45 177.19L138.37 176.37L138.32 176.39L138.71 177.45L140.43 182.34L138.15 183.14L135.06 174.36Z" fill="#192548"/>
<path d="M155.23 167.26L157 172.3C157.88 174.81 156.67 176.76 153.82 177.76C150.95 178.77 148.78 178.02 147.9 175.5L146.13 170.46L148.42 169.65L150.26 174.87C150.74 176.24 151.53 176.23 153.09 175.68C154.69 175.11 155.25 174.62 154.78 173.28L152.94 168.06L155.22 167.26H155.23Z" fill="#192548"/>
<path d="M158.58 173L160.66 171.62C161.2 172.63 162.05 172.69 163.26 172.27C164.35 171.89 164.87 171.52 164.68 170.98C164.52 170.57 164.17 170.58 163.05 170.78L161.14 171.11C159.55 171.39 158.08 170.85 157.51 169.36C156.85 167.58 158.32 166.03 160.37 165.31C162.88 164.43 164.49 164.83 165.35 166.49L163.44 167.82C162.95 166.78 162.23 166.86 161.08 167.27C160.06 167.63 159.64 168.03 159.8 168.48C159.98 168.96 160.38 168.92 161.61 168.69L163.27 168.37C164.9 168.07 166.36 168.55 166.86 169.87C167.59 171.81 166.15 173.42 163.94 174.19C161.52 175.04 159.59 174.72 158.6 172.98L158.58 173Z" fill="#192548"/>
<path d="M166.99 168.08C166.01 165.28 167.56 162.78 170.51 161.74C173.48 160.69 176.23 161.71 177.21 164.48C178.19 167.25 176.62 169.73 173.69 170.76C170.72 171.81 167.96 170.82 167 168.07L166.99 168.08ZM174.82 165.3C174.14 163.37 173.15 163.15 171.24 163.83C169.33 164.51 168.68 165.29 169.36 167.22C170.07 169.23 171.04 169.36 172.95 168.69C174.86 168.02 175.42 167.02 174.81 165.3H174.82Z" fill="#192548"/>
<path d="M185.46 156.61L185.03 166.63L182.13 167.65L175.48 160.13L178.11 159.2L181.46 163.18L182.64 164.64L182.72 164.61V162.75L182.84 157.54L185.47 156.61H185.46Z" fill="#192548"/>
<path d="M188.02 155.71L191.19 154.59L197.76 162.14L195.37 162.98L194.11 161.48L190.05 162.91L189.99 164.87L187.6 165.71L188.02 155.7V155.71ZM189.75 154.34L188.65 154.73L188.45 152.19L191.46 151.13L189.76 154.34H189.75ZM192.64 159.75L191.46 158.35L190.26 156.9L190.18 156.93L190.15 158.81L190.1 160.64L192.63 159.75H192.64Z" fill="#192548"/>
<path d="M132.85 205.89C133.54 207.85 132.88 209.35 130.85 210.06C129.63 210.49 128.47 210.18 127.65 209.2H127.62L128.96 212.98L127.98 213.32L125.15 205.27L125.96 204.98L126.7 206.55H126.73C126.75 205.28 127.5 204.3 128.74 203.86C130.75 203.15 132.15 203.91 132.85 205.88V205.89ZM131.87 206.23C131.36 204.78 130.35 204.31 128.73 204.88C127.24 205.41 126.65 206.49 127.14 207.89C127.64 209.31 128.8 209.76 130.26 209.24C131.88 208.67 132.37 207.68 131.86 206.22L131.87 206.23Z" fill="#192548"/>
<path d="M139.38 202.56L140.74 206.43L139.91 206.72L139.22 205.17H139.19C139.19 206.4 138.43 207.38 137.19 207.81C135.81 208.3 134.74 207.98 134.39 206.99C133.91 205.64 134.86 205.04 137.41 203.67L138.49 203.09L138.4 202.84C138.06 201.95 137.25 201.74 136.11 202.14C134.88 202.57 134.52 203.22 134.74 204.23L133.84 204.32C133.48 202.91 134.32 201.88 135.84 201.35C137.44 200.79 138.85 201.09 139.36 202.55L139.38 202.56ZM138.71 203.68L137.63 204.26C136.09 205.1 135.03 205.63 135.36 206.57C135.58 207.2 136.24 207.36 137.23 207.01C138.5 206.56 139.27 205.16 138.71 203.68Z" fill="#192548"/>
<path d="M146.41 200.09L147.77 203.96L146.94 204.25L146.25 202.7H146.23C146.23 203.93 145.47 204.91 144.23 205.34C142.85 205.83 141.78 205.51 141.43 204.52C140.95 203.17 141.9 202.57 144.45 201.2L145.53 200.62L145.44 200.37C145.1 199.48 144.29 199.27 143.15 199.67C141.92 200.1 141.56 200.75 141.79 201.76L140.89 201.85C140.53 200.44 141.37 199.41 142.89 198.88C144.49 198.32 145.9 198.62 146.41 200.08V200.09ZM145.74 201.21L144.66 201.79C143.12 202.63 142.06 203.16 142.39 204.1C142.61 204.73 143.27 204.89 144.26 204.54C145.53 204.09 146.3 202.69 145.74 201.22V201.21Z" fill="#192548"/>
<path d="M148.4 201.85L149.24 201.3C149.71 202.11 150.49 202.3 151.68 201.88C152.72 201.51 153.18 200.98 152.96 200.34C152.76 199.82 152.24 199.7 151.16 199.87L149.81 200.09C148.66 200.3 147.92 199.94 147.6 199.09C147.21 198.03 147.9 197.11 149.5 196.55C151.08 195.99 152.19 196.35 152.91 197.48L152.07 198C151.58 197.13 150.79 196.89 149.79 197.24C148.8 197.59 148.36 198.11 148.57 198.71C148.74 199.16 149.14 199.34 149.92 199.21L151.42 198.95C152.76 198.72 153.56 199 153.91 199.89C154.33 201.05 153.58 202.05 151.89 202.64C150.37 203.17 149.03 202.93 148.41 201.84L148.4 201.85Z" fill="#192548"/>
<path d="M163.64 195.05L162.62 195.41L163.66 198.37L162.71 198.7L159.62 189.92L160.57 189.59L162.31 194.54L163.33 194.18L164.95 191.26L166.24 190.81L164.27 194.41L168.5 196.67L167.38 197.06L163.63 195.05H163.64Z" fill="#192548"/>
<path d="M173.72 190.48L175.08 194.35L174.25 194.64L173.56 193.09H173.54C173.54 194.32 172.78 195.3 171.54 195.73C170.16 196.22 169.09 195.9 168.74 194.91C168.26 193.56 169.21 192.96 171.76 191.59L172.84 191.01L172.75 190.76C172.41 189.87 171.6 189.66 170.46 190.06C169.23 190.49 168.87 191.14 169.1 192.15L168.2 192.24C167.84 190.83 168.68 189.8 170.2 189.27C171.8 188.7 173.21 189.01 173.72 190.47V190.48ZM173.05 191.6L171.97 192.18C170.43 193.02 169.37 193.55 169.7 194.49C169.92 195.12 170.58 195.28 171.57 194.93C172.84 194.48 173.61 193.08 173.05 191.61V191.6Z" fill="#192548"/>
<path d="M174.81 187.79L175.62 187.5L176.35 189.05H176.36C176.3 187.49 177.35 186.65 178.84 186.33L179.03 187.31C177.47 187.6 176.31 188.96 176.95 190.77L177.86 193.36L176.88 193.7L174.8 187.78L174.81 187.79Z" fill="#192548"/>
<path d="M183.25 185.81L182.49 186.06L183.95 190.21H184L185.96 189.53L186.27 190.41L184.48 191.04C183.71 191.31 183.15 191.02 182.89 190.28L181.53 186.4L180.78 186.68L179.95 186.97L179.64 186.09L180.47 185.8L181.23 185.55L180.78 183.54L181.53 183.28L182.21 185.21L182.96 184.93L184.38 184.43L184.69 185.31L183.27 185.81H183.25Z" fill="#192548"/>
<path d="M191.82 184.1L193.18 187.97L192.35 188.26L191.66 186.71H191.64C191.64 187.94 190.88 188.92 189.64 189.35C188.26 189.84 187.19 189.52 186.84 188.53C186.36 187.18 187.31 186.58 189.86 185.21L190.94 184.63L190.85 184.38C190.51 183.49 189.7 183.28 188.56 183.68C187.33 184.11 186.97 184.76 187.2 185.77L186.3 185.86C185.94 184.45 186.78 183.42 188.3 182.89C189.9 182.33 191.31 182.63 191.82 184.09V184.1ZM191.14 185.22L190.06 185.8C188.52 186.64 187.46 187.17 187.79 188.11C188.01 188.74 188.67 188.9 189.66 188.55C190.93 188.1 191.7 186.7 191.14 185.22Z" fill="#192548"/>
<path d="M151.808 189.838L121.331 200.565L121.733 201.707L152.21 190.98L151.808 189.838Z" fill="#192548"/>
<path d="M157.699 206.574L127.221 217.301L127.623 218.442L158.1 207.715L157.699 206.574Z" fill="#192548"/>
<path d="M285.516 156.076L137.553 185.186C133.282 186.026 130.502 190.169 131.342 194.439L148.003 279.125C148.843 283.396 152.986 286.176 157.256 285.336L305.219 256.226C309.49 255.386 312.27 251.244 311.43 246.973L294.769 162.287C293.929 158.017 289.786 155.236 285.516 156.076Z" fill="#393B56"/>
<path d="M286.601 154.446L138.637 183.556C134.367 184.396 131.587 188.539 132.427 192.809L149.088 277.496C149.928 281.766 154.07 284.547 158.341 283.707L306.304 254.597C310.574 253.757 313.355 249.614 312.515 245.344L295.854 160.657C295.014 156.387 290.871 153.606 286.601 154.446Z" fill="#3472AF"/>
<path d="M144.75 193.56L147.95 192.93L152.29 197.18L153.17 198.08H153.22L153.01 197.07L152.04 192.13L154.41 191.66L156.21 200.79L153.15 201.39L148.69 196.98L147.74 196.02H147.69L147.92 197.13L148.92 202.22L146.55 202.69L144.75 193.56Z" fill="white"/>
<path d="M159.16 190.72L162.46 190.07L167.88 198.49L165.39 198.98L164.36 197.31L160.13 198.14L159.79 200.08L157.3 200.57L159.15 190.72H159.16ZM161.07 189.61L159.92 189.84L160.08 187.3L163.21 186.68L161.06 189.61H161.07ZM163.15 195.38L162.18 193.82L161.2 192.21H161.12L160.82 194.09L160.51 195.9L163.14 195.38H163.15Z" fill="white"/>
<path d="M175.46 187.51L173.59 197.36L170.58 197.95L165.08 189.55L167.82 189.01L170.56 193.43L171.51 195.04L171.59 195.02L171.86 193.18L172.72 188.04L175.46 187.5V187.51Z" fill="white"/>
<path d="M177.03 193.86L179.28 192.79C179.67 193.87 180.5 194.05 181.76 193.81C182.89 193.59 183.46 193.3 183.35 192.74C183.25 192.31 182.91 192.27 181.76 192.31L179.82 192.37C178.2 192.42 176.82 191.67 176.48 190.12C176.09 188.26 177.76 186.94 179.89 186.52C182.5 186.01 184.03 186.64 184.65 188.4L182.57 189.45C182.23 188.35 181.51 188.33 180.31 188.57C179.25 188.78 178.78 189.11 178.87 189.58C178.98 190.09 179.38 190.1 180.63 190.05L182.32 189.98C183.97 189.91 185.35 190.6 185.65 191.98C186.09 194.01 184.44 195.39 182.14 195.84C179.62 196.34 177.76 195.74 177.03 193.88V193.86ZM182.21 182.95L180.94 185.71L178.94 186.1L176.72 184.03L178.08 183.76L179.47 184.37L179.65 184.47H179.69L179.82 184.3L180.85 183.22L182.21 182.95Z" fill="white"/>
<path d="M194.07 186.04L192.36 186.38L191.05 186.61L192.44 193.65L190.05 194.12L188.66 187.08L187.36 187.36L185.65 187.7L185.23 185.59L193.64 183.93L194.06 186.04H194.07Z" fill="white"/>
<path d="M197.92 185.36L198.16 186.58L202.53 185.72L202.95 187.83L198.58 188.69L198.86 190.12L203.66 189.18L204.09 191.36L196.94 192.77L195.14 183.64L202.29 182.23L202.72 184.41L197.92 185.35V185.36Z" fill="white"/>
<path d="M213.38 180.05L211.51 189.9L208.5 190.49L203 182.09L205.74 181.55L208.48 185.97L209.44 187.58L209.52 187.56L209.79 185.72L210.65 180.58L213.39 180.04L213.38 180.05Z" fill="white"/>
<path d="M214.31 179.86L217.5 179.23L221.85 183.48L222.73 184.38H222.78L222.57 183.37L221.6 178.43L223.97 177.96L225.77 187.09L222.71 187.69L218.25 183.28L217.3 182.32H217.25L217.48 183.44L218.48 188.53L216.11 189L214.31 179.87V179.86Z" fill="white"/>
<path d="M225.95 177.57L228.4 177.09L230.2 186.22L227.75 186.7L225.95 177.57ZM227.4 176.55L226.25 176.78L226.41 174.24L229.54 173.62L227.39 176.55H227.4Z" fill="white"/>
<path d="M230.7 181.41C230.13 178.5 231.83 176.28 235.12 175.64C237.81 175.11 239.88 176.06 240.76 178.57L238.46 179.5H238.43C237.8 177.83 237.38 177.45 235.54 177.81C233.35 178.24 232.78 178.91 233.17 180.91C233.57 182.95 234.39 183.3 236.54 182.87C238.41 182.5 238.64 181.96 238.58 180.23L238.6 180.21H241.08C241.2 182.87 239.61 184.51 236.97 185.03C233.88 185.64 231.27 184.28 230.7 181.41Z" fill="white"/>
<path d="M246.42 179.53L245.12 179.79L245.78 183.15L243.43 183.61L241.63 174.48L243.98 174.02L244.71 177.71L246.01 177.45L247.93 173.24L250.75 172.69L248.13 178.11L252.71 181.79L249.74 182.37L246.42 179.53Z" fill="white"/>
<path d="M254.65 171.92L257.95 171.27L263.37 179.69L260.88 180.18L259.85 178.51L255.63 179.34L255.29 181.28L252.8 181.77L254.65 171.92ZM258.64 176.58L257.67 175.02L256.69 173.41L256.61 173.43L256.31 175.29L256 177.1L258.63 176.58H258.64Z" fill="white"/>
<path d="M159.26 220.27C159.66 222.3 158.8 223.69 156.68 224.11C155.42 224.36 154.31 223.89 153.63 222.8H153.6L154.39 226.73L153.37 226.93L151.72 218.56L152.57 218.39L153.07 220.05H153.1C153.3 218.8 154.19 217.93 155.48 217.68C157.57 217.27 158.85 218.22 159.25 220.27H159.26ZM158.24 220.47C157.94 218.96 157.01 218.36 155.33 218.69C153.78 219 153.04 219.98 153.33 221.44C153.62 222.91 154.7 223.53 156.23 223.23C157.91 222.9 158.55 221.99 158.25 220.48L158.24 220.47Z" fill="white"/>
<path d="M166.2 217.92L166.99 221.95L166.13 222.12L165.67 220.49H165.64C165.47 221.71 164.57 222.56 163.28 222.82C161.85 223.1 160.83 222.64 160.63 221.61C160.35 220.2 161.37 219.74 164.09 218.76L165.24 218.34L165.19 218.08C164.98 217.15 164.21 216.82 163.02 217.06C161.74 217.31 161.29 217.9 161.37 218.93L160.47 218.89C160.32 217.44 161.3 216.55 162.87 216.24C164.54 215.91 165.89 216.42 166.18 217.93L166.2 217.92ZM165.37 218.94L164.22 219.36C162.58 219.97 161.45 220.34 161.64 221.32C161.77 221.97 162.4 222.23 163.43 222.02C164.75 221.76 165.72 220.49 165.37 218.94Z" fill="white"/>
<path d="M173.51 216.48L174.3 220.51L173.44 220.68L172.98 219.05H172.95C172.78 220.27 171.88 221.12 170.59 221.38C169.16 221.66 168.14 221.2 167.94 220.17C167.66 218.76 168.68 218.3 171.4 217.32L172.55 216.9L172.5 216.64C172.29 215.71 171.52 215.38 170.33 215.62C169.05 215.87 168.6 216.46 168.68 217.49L167.78 217.45C167.63 216 168.61 215.11 170.18 214.8C171.85 214.47 173.2 214.98 173.49 216.49L173.51 216.48ZM172.68 217.5L171.53 217.92C169.89 218.53 168.76 218.9 168.95 219.88C169.08 220.53 169.71 220.79 170.74 220.58C172.06 220.32 173.03 219.05 172.68 217.5Z" fill="white"/>
<path d="M175.22 218.51L176.13 218.09C176.48 218.96 177.23 219.26 178.46 219.01C179.54 218.8 180.08 218.34 179.94 217.67C179.82 217.13 179.32 216.94 178.23 216.95L176.87 216.97C175.7 217.01 175.03 216.55 174.83 215.67C174.6 214.57 175.41 213.75 177.07 213.43C178.71 213.11 179.76 213.62 180.31 214.84L179.4 215.24C179.04 214.31 178.29 213.95 177.25 214.16C176.22 214.36 175.71 214.81 175.84 215.44C175.95 215.91 176.32 216.14 177.1 216.13L178.62 216.09C179.98 216.05 180.74 216.45 180.95 217.38C181.2 218.59 180.32 219.47 178.56 219.81C176.98 220.12 175.69 219.68 175.23 218.52L175.22 218.51Z" fill="white"/>
<path d="M191.28 213.97L190.22 214.18L190.83 217.26L189.84 217.46L188.04 208.33L189.03 208.13L190.04 213.28L191.1 213.07L193.12 210.41L194.46 210.15L191.99 213.43L195.85 216.27L194.69 216.5L191.27 213.98L191.28 213.97Z" fill="white"/>
<path d="M201.91 210.89L202.7 214.92L201.84 215.09L201.38 213.46H201.35C201.18 214.68 200.28 215.53 198.99 215.79C197.56 216.07 196.54 215.61 196.34 214.58C196.06 213.17 197.08 212.71 199.8 211.73L200.95 211.31L200.9 211.05C200.69 210.12 199.92 209.79 198.73 210.03C197.45 210.28 197 210.87 197.08 211.9L196.18 211.86C196.03 210.41 197.01 209.52 198.58 209.21C200.25 208.88 201.6 209.39 201.89 210.9L201.91 210.89ZM201.08 211.91L199.93 212.33C198.29 212.94 197.16 213.31 197.35 214.29C197.48 214.94 198.11 215.2 199.14 214.99C200.46 214.73 201.43 213.46 201.08 211.91Z" fill="white"/>
<path d="M203.38 208.39L204.23 208.22L204.73 209.85H204.74C204.91 208.3 206.06 207.62 207.59 207.51L207.64 208.5C206.06 208.57 204.71 209.74 205.09 211.63L205.62 214.33L204.6 214.53L203.39 208.37L203.38 208.39Z" fill="white"/>
<path d="M212.02 207.64L211.23 207.78L212.08 212.1L212.12 212.12L214.15 211.72L214.33 212.63L212.46 213C211.67 213.16 211.14 212.79 210.99 212.02L210.2 207.99L209.42 208.16L208.56 208.33L208.38 207.42L209.24 207.25L210.03 207.11L209.87 205.06L210.65 204.91L211.05 206.92L211.83 206.75L213.3 206.46L213.48 207.37L212.01 207.66L212.02 207.64Z" fill="white"/>
<path d="M220.74 207.18L221.53 211.21L220.67 211.38L220.21 209.75H220.18C220.01 210.97 219.11 211.82 217.82 212.08C216.39 212.36 215.37 211.9 215.17 210.87C214.89 209.46 215.91 209 218.63 208.02L219.78 207.6L219.73 207.34C219.52 206.41 218.75 206.08 217.56 206.32C216.28 206.57 215.83 207.16 215.91 208.19L215.01 208.15C214.86 206.7 215.84 205.81 217.41 205.5C219.08 205.17 220.43 205.68 220.72 207.19L220.74 207.18ZM219.91 208.2L218.76 208.62C217.12 209.23 215.99 209.6 216.18 210.58C216.31 211.23 216.94 211.49 217.97 211.28C219.29 211.02 220.26 209.75 219.91 208.2Z" fill="white"/>
<path d="M180.318 207.125L148.616 213.362L148.85 214.549L180.552 208.312L180.318 207.125Z" fill="white"/>
<path d="M183.743 224.516L152.04 230.753L152.274 231.94L183.976 225.703L183.743 224.516Z" fill="white"/>
<path d="M300.56 228.31L297.22 228.97L294.36 214.43L293.75 214.55L296.61 229.09L286.05 231.17L283.19 216.63L282.58 216.75L285.44 231.29L274.88 233.36L272.02 218.83L271.41 218.95L274.27 233.48L263.71 235.56L260.85 221.03L260.24 221.15L263.1 235.68L259.76 236.34L259.88 236.95L263.22 236.3L266.08 250.83L266.69 250.71L263.83 236.17L274.39 234.1L277.25 248.63L277.86 248.51L275 233.98L285.56 231.9L288.42 246.43L289.03 246.31L286.17 231.78L296.73 229.7L299.59 244.23L300.2 244.11L297.34 229.58L300.68 228.92L300.56 228.31Z" fill="#CDCECF"/>
<path d="M281.34 237.37L279.07 237.82L280.44 244.78L281.05 244.66L280.53 242.04L282.19 241.71C283.38 241.47 284.17 240.31 283.93 239.11C283.69 237.91 282.53 237.13 281.34 237.37ZM282.07 241.1L280.41 241.43L279.8 238.32L281.46 237.99C282.32 237.82 283.15 238.38 283.32 239.24C283.49 240.1 282.93 240.93 282.07 241.1Z" fill="#CDCECF"/>
<path d="M288.49 223.23L290.15 222.9C291.34 222.66 292.13 221.5 291.89 220.3C291.65 219.1 290.49 218.32 289.3 218.56L287.03 219.01L288.4 225.97L289.01 225.85L288.49 223.23ZM287.76 219.5L289.42 219.17C290.28 219 291.11 219.56 291.28 220.42C291.45 221.28 290.89 222.11 290.03 222.28L288.37 222.61L287.76 219.5Z" fill="#CDCECF"/>
<path d="M267.99 232.39L269.1 232.17C270.73 231.85 271.58 230.82 271.31 229.47L269.99 222.79C269.67 221.17 268.1 220.12 266.49 220.43L265.95 220.54C264.34 220.86 263.28 222.43 263.6 224.05L264.92 230.73C265.18 232.07 266.36 232.71 267.99 232.39ZM264.22 223.93C263.97 222.65 264.8 221.41 266.08 221.16L266.62 221.05C267.9 220.8 269.14 221.63 269.39 222.91L270.71 229.59C270.99 231 269.6 231.43 268.99 231.55L267.88 231.77C267.27 231.89 265.82 232.02 265.54 230.61L264.22 223.93Z" fill="#CDCECF"/>
<path d="M266.97 224.24C267.83 224.07 268.27 224.25 268.27 224.25L268.53 223.68C268.47 223.65 267.91 223.41 266.85 223.62C265.92 223.8 265.36 224.32 265.34 224.34L265.77 224.8C265.77 224.8 266.23 224.39 266.97 224.24Z" fill="#CDCECF"/>
<path d="M268.965 228.441L266.669 228.893L266.789 229.502L269.085 229.05L268.965 228.441Z" fill="#CDCECF"/>
<path d="M279.45 230.13L279.99 230.02C281.6 229.7 282.66 228.13 282.34 226.51L281.02 219.83C280.76 218.49 279.58 217.85 277.95 218.17L276.84 218.39C275.21 218.71 274.36 219.74 274.63 221.09L275.95 227.77C276.27 229.39 277.84 230.44 279.45 230.13ZM275.24 220.97C274.96 219.56 276.35 219.13 276.96 219.01L278.07 218.79C278.68 218.67 280.13 218.54 280.4 219.95L281.72 226.63C281.97 227.91 281.14 229.15 279.86 229.4L279.32 229.51C278.04 229.76 276.8 228.93 276.55 227.65L275.23 220.97H275.24Z" fill="#CDCECF"/>
<path d="M280.61 226.22L280.18 225.76C280.18 225.76 279.72 226.17 278.98 226.32C278.12 226.49 277.68 226.31 277.68 226.31L277.42 226.88C277.48 226.91 278.04 227.15 279.1 226.94C280.03 226.76 280.59 226.24 280.61 226.22Z" fill="#CDCECF"/>
<path d="M279.119 221.118L276.823 221.57L276.943 222.178L279.239 221.726L279.119 221.118Z" fill="#CDCECF"/>
<path d="M292.16 232.9L291.62 233.01C290.01 233.33 288.95 234.9 289.27 236.52L290.59 243.2C290.85 244.54 292.03 245.18 293.66 244.86L294.77 244.64C296.4 244.32 297.25 243.29 296.98 241.94L295.66 235.26C295.34 233.64 293.77 232.59 292.16 232.9ZM296.37 242.06C296.65 243.47 295.26 243.9 294.65 244.02L293.54 244.24C292.93 244.36 291.48 244.49 291.21 243.08L289.89 236.4C289.64 235.12 290.47 233.88 291.75 233.63L292.29 233.52C293.57 233.27 294.81 234.1 295.06 235.38L296.38 242.06H296.37Z" fill="#CDCECF"/>
<path d="M290.99 236.81L291.42 237.27C291.42 237.27 291.88 236.86 292.62 236.71C293.48 236.54 293.92 236.72 293.92 236.72L294.18 236.15C294.12 236.12 293.56 235.88 292.5 236.09C291.57 236.27 291.01 236.79 290.99 236.81Z" fill="#CDCECF"/>
<path d="M294.628 240.904L292.332 241.356L292.451 241.964L294.747 241.512L294.628 240.904Z" fill="#CDCECF"/>
<path d="M270.1 237.24L268.99 237.46C267.36 237.78 266.51 238.81 266.78 240.16L268.1 246.84C268.42 248.46 269.99 249.51 271.6 249.2L272.14 249.09C273.75 248.77 274.81 247.2 274.49 245.58L273.17 238.9C272.91 237.56 271.73 236.92 270.1 237.24ZM273.87 245.7C274.12 246.98 273.29 248.22 272.01 248.47L271.47 248.58C270.19 248.83 268.95 248 268.7 246.72L267.38 240.04C267.1 238.63 268.49 238.2 269.1 238.08L270.21 237.86C270.82 237.74 272.27 237.61 272.54 239.02L273.86 245.7H273.87Z" fill="#CDCECF"/>
<path d="M271.13 245.39C270.27 245.56 269.83 245.38 269.83 245.38L269.7 245.66L269.57 245.94C269.63 245.97 270.19 246.21 271.25 246C272.18 245.82 272.74 245.3 272.76 245.28L272.33 244.82C272.33 244.82 271.87 245.23 271.13 245.38V245.39Z" fill="#CDCECF"/>
<path d="M271.276 240.175L268.98 240.627L269.1 241.235L271.396 240.783L271.276 240.175Z" fill="#CDCECF"/>
<g opacity="0.15">
<path d="M218.96 271.77L178.28 279.78L203.92 170.7L244.6 162.69L218.96 271.77Z" fill="#DFDFDF"/>
</g>
<g opacity="0.15">
<path d="M241.06 267.42L226.46 270.29L252.11 161.21L266.7 158.34L241.06 267.42Z" fill="#DFDFDF"/>
</g>
<path d="M315.631 190.402L165.6 205.615C161.271 206.054 158.117 209.92 158.556 214.249L167.263 300.119C167.702 304.449 171.568 307.603 175.898 307.164L325.928 291.951C330.258 291.512 333.412 287.646 332.973 283.316L324.266 197.446C323.827 193.117 319.961 189.963 315.631 190.402Z" fill="#0B152D"/>
<path d="M316.872 188.894L166.842 204.107C162.512 204.546 159.358 208.412 159.797 212.742L168.504 298.612C168.943 302.942 172.809 306.096 177.139 305.657L327.17 290.444C331.499 290.005 334.653 286.139 334.214 281.809L325.507 195.939C325.068 191.609 321.202 188.455 316.872 188.894Z" fill="#192548"/>
<path d="M176.93 220.11L174.93 220.31L175.27 223.63L172.85 223.88L171.91 214.62L177.05 214.1C179.17 213.89 180.57 214.85 180.76 216.72C180.9 218.08 180.31 219.38 179.01 219.51V219.56L181.8 222.96L179.38 223.21L176.91 220.11H176.93ZM174.73 218.3L177.15 218.05C178.04 217.96 178.35 217.77 178.27 216.99C178.19 216.22 177.82 216.11 176.96 216.2L174.54 216.45L174.73 218.3Z" fill="white"/>
<path d="M184.6 215.56L184.73 216.8L189.16 216.35L189.38 218.49L184.95 218.94L185.1 220.4L189.97 219.91L190.19 222.12L182.94 222.86L182 213.6L189.25 212.86L189.47 215.07L184.6 215.56Z" fill="white"/>
<path d="M191.13 219.69L195.59 214.36L190.82 214.84L190.6 212.71L198.64 211.89L198.88 214.27L194.38 219.52L199.52 219L199.74 221.13L191.37 221.98L191.14 219.68L191.13 219.69Z" fill="white"/>
<path d="M200.21 211.75L202.7 211.5L203.64 220.76L201.15 221.01L200.21 211.75Z" fill="white"/>
<path d="M204.7 211.29L209.7 210.78C212.77 210.47 214.7 212.13 214.98 214.92C215.27 217.74 213.68 219.73 210.64 220.04L205.64 220.55L204.7 211.29ZM210.35 217.82C212.23 217.63 212.68 217.06 212.49 215.17C212.3 213.28 211.74 212.82 209.87 213L207.36 213.25L207.85 218.06L210.36 217.81L210.35 217.82Z" fill="white"/>
<path d="M218.52 212.12L218.65 213.36L223.08 212.91L223.3 215.05L218.87 215.5L219.02 216.96L223.89 216.47L224.11 218.68L216.86 219.42L215.92 210.16L223.17 209.42L223.39 211.63L218.52 212.12Z" fill="white"/>
<path d="M224.95 209.24L228.19 208.91L232.12 213.55L232.91 214.52H232.96L232.84 213.5L232.33 208.49L234.74 208.25L235.68 217.51L232.57 217.83L228.54 213.03L227.69 211.98H227.64L227.77 213.11L228.29 218.27L225.88 218.51L224.94 209.25L224.95 209.24Z" fill="white"/>
<path d="M244.99 209.37L243.26 209.55L241.94 209.66L242.66 216.8L240.24 217.05L239.52 209.91L238.2 210.07L236.47 210.25L236.25 208.11L244.78 207.25L245 209.39L244.99 209.37Z" fill="white"/>
<path d="M246.3 213.63L248.65 212.78C248.94 213.89 249.75 214.15 251.02 214.02C252.17 213.9 252.76 213.67 252.7 213.1C252.64 212.66 252.3 212.59 251.16 212.52L249.22 212.4C247.61 212.3 246.3 211.43 246.1 209.84C245.88 207.95 247.68 206.79 249.83 206.58C252.47 206.31 253.94 207.08 254.39 208.9L252.22 209.75C251.99 208.63 251.27 208.54 250.05 208.66C248.98 208.77 248.47 209.06 248.52 209.54C248.59 210.05 248.98 210.11 250.23 210.17L251.92 210.25C253.57 210.34 254.88 211.15 255.05 212.55C255.3 214.61 253.53 215.83 251.2 216.07C248.65 216.33 246.85 215.56 246.29 213.64L246.3 213.63Z" fill="white"/>
<path d="M260.05 211.59L258.73 211.72L259.08 215.13L256.7 215.37L255.76 206.11L258.14 205.87L258.52 209.61L259.84 209.48L262.15 205.47L265.01 205.18L261.9 210.33L266.12 214.42L263.11 214.73L260.07 211.59H260.05Z" fill="white"/>
<path d="M268.96 204.78L272.31 204.44L276.92 213.32L274.39 213.58L273.52 211.83L269.24 212.26L268.72 214.15L266.19 214.41L268.95 204.78H268.96ZM270.96 203.86L269.8 203.98L270.2 201.47L273.37 201.15L270.96 203.87V203.86ZM272.5 209.8L271.68 208.16L270.85 206.47H270.77L270.3 208.3L269.83 210.07L272.5 209.8Z" fill="white"/>
<path d="M183.86 242.56C184.07 244.62 183.08 245.93 180.94 246.14C179.66 246.27 178.6 245.7 178.03 244.55H178L178.42 248.53L177.39 248.63L176.53 240.14L177.39 240.05L177.74 241.75H177.77C178.09 240.53 179.05 239.75 180.36 239.61C182.48 239.4 183.67 240.47 183.88 242.54L183.86 242.56ZM182.83 242.66C182.67 241.13 181.8 240.44 180.1 240.61C178.53 240.77 177.7 241.68 177.85 243.16C178 244.65 179.02 245.37 180.57 245.21C182.28 245.04 182.99 244.19 182.84 242.66H182.83Z" fill="white"/>
<path d="M190.99 240.87L191.4 244.96L190.53 245.05L190.23 243.38H190.2C189.92 244.57 188.94 245.34 187.63 245.47C186.18 245.62 185.21 245.06 185.1 244.02C184.96 242.59 186.01 242.23 188.81 241.51L189.99 241.2L189.96 240.94C189.84 239.99 189.1 239.6 187.9 239.72C186.6 239.85 186.1 240.4 186.08 241.43L185.19 241.31C185.18 239.86 186.23 239.05 187.83 238.89C189.52 238.72 190.82 239.35 190.97 240.88L190.99 240.87ZM190.07 241.8L188.89 242.11C187.2 242.56 186.04 242.83 186.14 243.82C186.21 244.48 186.81 244.79 187.86 244.69C189.2 244.56 190.28 243.38 190.08 241.81L190.07 241.8Z" fill="white"/>
<path d="M198.41 240.11L198.82 244.2L197.95 244.29L197.65 242.62H197.62C197.34 243.81 196.36 244.58 195.05 244.71C193.6 244.86 192.63 244.3 192.52 243.26C192.38 241.83 193.43 241.47 196.23 240.75L197.41 240.44L197.38 240.18C197.26 239.23 196.52 238.84 195.32 238.96C194.02 239.09 193.52 239.64 193.5 240.67L192.61 240.55C192.6 239.1 193.65 238.29 195.25 238.13C196.94 237.96 198.24 238.59 198.39 240.12L198.41 240.11ZM197.49 241.05L196.31 241.36C194.62 241.81 193.46 242.08 193.56 243.07C193.63 243.73 194.23 244.04 195.28 243.94C196.62 243.8 197.7 242.63 197.5 241.06L197.49 241.05Z" fill="white"/>
<path d="M199.92 242.3L200.86 241.96C201.12 242.85 201.84 243.22 203.1 243.1C204.2 242.99 204.77 242.58 204.7 241.91C204.63 241.35 204.15 241.12 203.06 241.03L201.7 240.93C200.53 240.86 199.9 240.34 199.79 239.44C199.66 238.32 200.55 237.59 202.23 237.42C203.9 237.25 204.89 237.86 205.33 239.12L204.39 239.43C204.12 238.47 203.41 238.05 202.35 238.15C201.31 238.26 200.76 238.66 200.82 239.29C200.88 239.77 201.23 240.04 202.01 240.09L203.53 240.19C204.89 240.28 205.6 240.74 205.73 241.69C205.87 242.92 204.91 243.71 203.12 243.89C201.52 244.05 200.28 243.5 199.93 242.29L199.92 242.3Z" fill="white"/>
<path d="M216.33 239.27L215.26 239.38L215.58 242.5L214.58 242.6L213.64 233.34L214.64 233.24L215.17 238.46L216.24 238.35L218.5 235.89L219.86 235.75L217.09 238.78L220.67 241.97L219.49 242.09L216.32 239.26L216.33 239.27Z" fill="white"/>
<path d="M227.21 237.2L227.62 241.29L226.75 241.38L226.45 239.71H226.42C226.14 240.9 225.16 241.67 223.85 241.8C222.4 241.95 221.43 241.39 221.33 240.35C221.18 238.92 222.24 238.56 225.04 237.84L226.22 237.53L226.19 237.27C226.07 236.32 225.33 235.93 224.13 236.05C222.83 236.18 222.33 236.73 222.31 237.76L221.42 237.64C221.41 236.19 222.46 235.38 224.06 235.22C225.75 235.05 227.05 235.68 227.2 237.21L227.21 237.2ZM226.29 238.13L225.11 238.44C223.42 238.89 222.26 239.16 222.36 240.15C222.43 240.81 223.03 241.12 224.08 241.02C225.42 240.88 226.5 239.71 226.3 238.14L226.29 238.13Z" fill="white"/>
<path d="M228.9 234.84L229.76 234.75L230.1 236.43H230.11C230.42 234.9 231.63 234.34 233.16 234.37L233.11 235.36C231.53 235.28 230.08 236.32 230.28 238.24L230.56 240.98L229.53 241.08L228.9 234.84Z" fill="white"/>
<path d="M237.57 234.9L236.78 234.97L237.22 239.35L237.26 239.37L239.32 239.16L239.41 240.09L237.52 240.28C236.71 240.36 236.23 239.94 236.15 239.16L235.74 235.07L234.95 235.16L234.08 235.25L233.99 234.32L234.86 234.23L235.65 234.16L235.68 232.1L236.47 232.02L236.68 234.06L237.47 233.97L238.96 233.82L239.05 234.75L237.56 234.9H237.57Z" fill="white"/>
<path d="M246.3 235.26L246.71 239.35L245.84 239.44L245.54 237.77H245.51C245.23 238.96 244.25 239.73 242.94 239.86C241.49 240.01 240.52 239.45 240.41 238.41C240.27 236.98 241.32 236.62 244.12 235.9L245.3 235.59L245.27 235.33C245.15 234.38 244.41 233.99 243.21 234.11C241.91 234.24 241.41 234.79 241.39 235.82L240.5 235.7C240.49 234.25 241.54 233.44 243.14 233.28C244.83 233.11 246.13 233.74 246.28 235.27L246.3 235.26ZM245.38 236.19L244.2 236.5C242.51 236.95 241.35 237.22 241.45 238.21C241.52 238.87 242.12 239.18 243.17 239.08C244.51 238.95 245.59 237.77 245.39 236.2L245.38 236.19Z" fill="white"/>
<path d="M206.14 231.441L173.995 234.7L174.117 235.904L206.262 232.645L206.14 231.441Z" fill="white"/>
<path d="M207.931 249.08L175.786 252.34L175.908 253.544L208.053 250.284L207.931 249.08Z" fill="white"/>
<path d="M323.86 263.76L320.48 264.1L318.98 249.36L318.36 249.43L319.86 264.16L309.15 265.25L307.66 250.51L307.04 250.57L308.53 265.31L297.82 266.4L296.33 251.66L295.71 251.72L297.2 266.46L286.5 267.54L285 252.81L284.38 252.87L285.88 267.61L282.49 267.95L282.56 268.57L285.94 268.23L287.43 282.96L288.06 282.9L286.56 268.17L297.27 267.08L298.76 281.82L299.38 281.75L297.89 267.02L308.59 265.93L310.09 280.67L310.71 280.6L309.21 265.87L319.92 264.78L321.41 279.52L322.03 279.46L320.54 264.72L323.92 264.38L323.86 263.76Z" fill="#758089"/>
<path d="M303.88 270.99L301.57 271.22L302.29 278.28L302.91 278.22L302.64 275.56L304.32 275.39C305.53 275.27 306.42 274.18 306.29 272.97C306.16 271.76 305.08 270.87 303.87 270.99H303.88ZM304.26 274.77L302.58 274.94L302.26 271.78L303.94 271.61C304.81 271.52 305.59 272.16 305.68 273.03C305.77 273.9 305.13 274.68 304.26 274.77Z" fill="#758089"/>
<path d="M312.32 257.57L314 257.4C315.21 257.28 316.1 256.19 315.97 254.98C315.84 253.77 314.76 252.88 313.55 253L311.25 253.23L311.97 260.29L312.59 260.23L312.32 257.57ZM311.94 253.79L313.62 253.62C314.49 253.53 315.27 254.17 315.36 255.04C315.45 255.91 314.81 256.69 313.94 256.78L312.26 256.95L311.94 253.79Z" fill="#758089"/>
<path d="M291.06 264.78L292.19 264.67C293.84 264.5 294.78 263.55 294.65 262.19L293.96 255.41C293.79 253.77 292.33 252.57 290.69 252.74L290.14 252.8C288.5 252.97 287.31 254.43 287.47 256.07L288.16 262.85C288.3 264.21 289.41 264.95 291.06 264.78ZM288.09 256.01C287.96 254.71 288.9 253.55 290.2 253.42L290.75 253.36C292.04 253.23 293.2 254.18 293.34 255.47L294.03 262.24C294.17 263.67 292.75 263.97 292.13 264.03L291 264.14C290.38 264.2 288.93 264.19 288.78 262.76L288.09 255.98V256.01Z" fill="#758089"/>
<path d="M290.79 256.58C291.66 256.49 292.08 256.71 292.08 256.72L292.39 256.18C292.33 256.15 291.8 255.85 290.72 255.96C289.77 256.06 289.17 256.51 289.15 256.53L289.53 257.02C289.53 257.02 290.02 256.65 290.78 256.57L290.79 256.58Z" fill="#758089"/>
<path d="M292.412 260.925L290.084 261.161L290.147 261.778L292.475 261.542L292.412 260.925Z" fill="#758089"/>
<path d="M302.67 263.61L303.22 263.55C304.86 263.38 306.05 261.92 305.89 260.28L305.2 253.5C305.06 252.14 303.95 251.4 302.3 251.57L301.17 251.68C299.52 251.85 298.58 252.8 298.72 254.16L299.41 260.94C299.58 262.58 301.04 263.78 302.68 263.61H302.67ZM299.33 254.1C299.19 252.67 300.61 252.37 301.23 252.31L302.36 252.2C302.98 252.14 304.43 252.15 304.58 253.58L305.27 260.36C305.4 261.66 304.46 262.82 303.16 262.95L302.61 263.01C301.32 263.14 300.16 262.19 300.02 260.9L299.33 254.12V254.1Z" fill="#758089"/>
<path d="M304.19 259.82L303.81 259.33C303.81 259.33 303.32 259.7 302.56 259.78C301.69 259.87 301.27 259.65 301.27 259.64L300.96 260.18C301.02 260.21 301.55 260.51 302.63 260.4C303.58 260.3 304.18 259.85 304.2 259.83L304.19 259.82Z" fill="#758089"/>
<path d="M303.217 254.568L300.889 254.804L300.951 255.421L303.279 255.185L303.217 254.568Z" fill="#758089"/>
<path d="M315.07 267.54L314.52 267.6C312.88 267.77 311.69 269.23 311.85 270.87L312.54 277.65C312.68 279.01 313.79 279.75 315.44 279.58L316.57 279.47C318.22 279.3 319.16 278.35 319.02 276.99L318.33 270.21C318.16 268.57 316.7 267.37 315.06 267.54H315.07ZM318.4 277.05C318.54 278.48 317.12 278.78 316.5 278.84L315.37 278.95C314.75 279.01 313.3 279 313.15 277.57L312.46 270.79C312.33 269.49 313.27 268.33 314.57 268.2L315.12 268.14C316.41 268.01 317.57 268.96 317.71 270.25L318.4 277.03V277.05Z" fill="#758089"/>
<path d="M313.55 271.33L313.93 271.82C313.93 271.82 314.42 271.45 315.18 271.37C316.05 271.28 316.47 271.5 316.47 271.51L316.78 270.97C316.72 270.94 316.19 270.64 315.11 270.75C314.16 270.85 313.56 271.3 313.54 271.32L313.55 271.33Z" fill="#758089"/>
<path d="M316.79 275.71L314.462 275.946L314.525 276.563L316.853 276.327L316.79 275.71Z" fill="#758089"/>
<path d="M292.7 269.81L291.57 269.92C289.92 270.09 288.98 271.04 289.11 272.4L289.8 279.18C289.97 280.82 291.43 282.02 293.07 281.85L293.62 281.79C295.26 281.62 296.45 280.16 296.29 278.52L295.6 271.74C295.46 270.38 294.35 269.64 292.7 269.81ZM295.67 278.58C295.8 279.88 294.86 281.04 293.56 281.17L293.01 281.23C291.72 281.36 290.56 280.41 290.42 279.12L289.73 272.34C289.59 270.91 291.01 270.61 291.63 270.55L292.76 270.44C293.38 270.38 294.83 270.39 294.98 271.82L295.67 278.6V278.58Z" fill="#758089"/>
<path d="M292.97 278.02C292.1 278.11 291.68 277.89 291.68 277.88L291.37 278.42C291.43 278.45 291.96 278.75 293.04 278.64C293.99 278.54 294.59 278.09 294.61 278.07L294.23 277.58C294.23 277.58 293.74 277.95 292.98 278.03L292.97 278.02Z" fill="#758089"/>
<path d="M293.616 272.813L291.288 273.049L291.35 273.666L293.678 273.43L293.616 272.813Z" fill="#758089"/>
<g opacity="0.15">
<path d="M238.57 299.43L197.32 303.61L233.01 197.39L274.26 193.21L238.57 299.43Z" fill="#DFDFDF"/>
</g>
<g opacity="0.15">
<path d="M260.98 297.16L246.18 298.66L281.87 192.44L296.67 190.94L260.98 297.16Z" fill="#DFDFDF"/>
</g>
<path d="M286.097 72.4645L268.838 81.4758L269.185 82.1407L286.444 73.1293L286.097 72.4645Z" fill="#A7AEB7"/>
<path d="M263.408 84.3076L248.782 91.9443L249.129 92.6092L263.755 84.9725L263.408 84.3076Z" fill="#A7AEB7"/>
<path d="M237.509 97.8127L190.846 122.176L191.193 122.841L237.856 98.4775L237.509 97.8127Z" fill="#A7AEB7"/>
<path d="M185.103 125.179L177.338 129.233L177.685 129.898L185.451 125.844L185.103 125.179Z" fill="#A7AEB7"/>
<path d="M161.707 137.382L135.743 150.938L136.09 151.603L162.054 138.047L161.707 137.382Z" fill="#A7AEB7"/>
<path d="M230.913 77.3802L221.664 83.89L222.096 84.5033L231.344 77.9935L230.913 77.3802Z" fill="#A7AEB7"/>
<path d="M211.561 90.9869L170.886 119.616L171.318 120.229L211.992 91.6002L211.561 90.9869Z" fill="#A7AEB7"/>
<path d="M275.494 339.672L275.272 340.388L301.657 348.556L301.879 347.839L275.494 339.672Z" fill="#A7AEB7"/>
<path d="M261.776 335.406L261.554 336.122L270.954 339.032L271.176 338.316L261.776 335.406Z" fill="#A7AEB7"/>
<path d="M222.805 323.368L222.584 324.084L256.305 334.523L256.527 333.806L222.805 323.368Z" fill="#A7AEB7"/>
<path d="M211.161 319.773L210.939 320.489L218.906 322.955L219.128 322.239L211.161 319.773Z" fill="#A7AEB7"/>
<path d="M290.422 371.869L290.119 372.555L295.186 374.795L295.489 374.109L290.422 371.869Z" fill="#A7AEB7"/>
<path d="M261.531 359.078L261.228 359.764L285.987 370.709L286.29 370.023L261.531 359.078Z" fill="#A7AEB7"/>
<path d="M375.058 227.852L357.298 227.873L357.299 228.623L375.059 228.602L375.058 227.852Z" fill="#A7AEB7"/>
<path d="M343.688 227.89L319.868 227.919L319.869 228.669L343.689 228.64L343.688 227.89Z" fill="#A7AEB7"/>
<path d="M313.388 227.937L300.538 227.953L300.539 228.703L313.389 228.687L313.388 227.937Z" fill="#A7AEB7"/>
<path d="M305.274 123.987L297.873 126.603L298.123 127.31L305.524 124.694L305.274 123.987Z" fill="#A7AEB7"/>
<path d="M293.766 128.06L279.417 133.133L279.667 133.84L294.016 128.767L293.766 128.06Z" fill="#A7AEB7"/>
<path d="M271.021 136.093L249.383 143.743L249.633 144.45L271.271 136.8L271.021 136.093Z" fill="#A7AEB7"/>
<path d="M340.666 125.746L316.474 132.169L316.667 132.894L340.859 126.47L340.666 125.746Z" fill="#A7AEB7"/>
<path d="M309.727 133.932L282.443 141.177L282.635 141.902L309.92 134.657L309.727 133.932Z" fill="#A7AEB7"/>
<path d="M135.206 297.074L134.945 297.777L140.7 299.915L140.961 299.212L135.206 297.074Z" fill="#A7AEB7"/>
<path d="M120.076 291.49L119.814 292.193L131.391 296.496L131.652 295.793L120.076 291.49Z" fill="#A7AEB7"/>
<path d="M108.503 287.168L108.242 287.871L115.131 290.432L115.393 289.729L108.503 287.168Z" fill="#A7AEB7"/>
<path d="M130.234 223.329L122.599 224.059L122.67 224.805L130.305 224.075L130.234 223.329Z" fill="#A7AEB7"/>
<path d="M112.968 224.997L88.2012 227.364L88.2725 228.111L113.04 225.744L112.968 224.997Z" fill="#A7AEB7"/>
<path d="M125.378 207.938L106.943 212.153L107.11 212.884L125.545 208.669L125.378 207.938Z" fill="#A7AEB7"/>
<path d="M101.516 213.372L92.0212 215.543L92.1884 216.274L101.683 214.103L101.516 213.372Z" fill="#A7AEB7"/>
<path d="M113.804 144.218L109.349 148.118L109.843 148.682L114.298 144.783L113.804 144.218Z" fill="#A7AEB7"/>
<path d="M107.251 149.971L97.2669 158.711L97.7609 159.276L107.745 150.535L107.251 149.971Z" fill="#A7AEB7"/>
<path d="M94.8317 160.85L90.6182 164.539L91.1122 165.103L95.3257 161.414L94.8317 160.85Z" fill="#A7AEB7"/>
<path d="M373.846 178.598L349.89 180.349L349.945 181.097L373.901 179.346L373.846 178.598Z" fill="#A7AEB7"/>
<path d="M364.25 318.257L364.061 318.983L374.504 321.699L374.692 320.973L364.25 318.257Z" fill="#A7AEB7"/>
<path d="M339.315 311.794L339.126 312.519L357.358 317.265L357.547 316.539L339.315 311.794Z" fill="#A7AEB7"/>
<path d="M187.711 377.253L187.271 377.86L197.107 384.993L197.547 384.386L187.711 377.253Z" fill="#A7AEB7"/>
<path d="M164.82 360.667L164.38 361.274L178.992 371.87L179.432 371.263L164.82 360.667Z" fill="#A7AEB7"/>
<path d="M187.603 52.4193L164.339 74.5508L164.856 75.0942L188.12 52.9627L187.603 52.4193Z" fill="#A7AEB7"/>
<path d="M303.688 37.0927L291.733 45.0117L292.147 45.6369L304.102 37.718L303.688 37.0927Z" fill="#A7AEB7"/>
<path d="M153.53 84.36C151.56 84.54 149.61 83.66 148.44 82.07C145.88 78.58 141.62 76.77 137.33 77.34L134.96 77.66L135.78 83.78L138.15 83.46C140.2 83.18 142.24 84.05 143.47 85.72C145.91 89.05 149.99 90.89 154.1 90.5L157.17 90.22L156.6 84.08L153.53 84.36Z" fill="#89C764"/>
<path d="M145.93 410.24C143.96 410.42 142.01 409.54 140.84 407.95C138.28 404.46 134.02 402.65 129.73 403.22L127.36 403.54L128.18 409.66L130.55 409.34C132.6 409.06 134.64 409.93 135.87 411.6C138.31 414.93 142.39 416.77 146.5 416.38L149.57 416.1L149 409.96L145.93 410.24Z" fill="white"/>
<path d="M372.64 233.42C370.08 229.93 365.82 228.12 361.53 228.69L359.16 229.01L359.98 235.13L362.35 234.81C364.4 234.53 366.44 235.4 367.67 237.07C369.45 239.5 372.1 241.12 375 241.68V235.28C374.07 234.89 373.25 234.26 372.64 233.43V233.42Z" fill="#89C764"/>
<path d="M3.58 25.12C7.66 24.45 11.14 21.65 12.66 17.8L13.8 14.93L8.06 12.66L6.92 15.53C6.19 17.37 4.53 18.71 2.58 19.03C1.68 19.18 0.82 19.45 0 19.79V27.29C0.86 26.15 2.13 25.36 3.58 25.12Z" fill="#89C764"/>
<path d="M331.66 347.46C329.69 347.64 327.74 346.76 326.57 345.17C324.01 341.68 319.75 339.87 315.46 340.44L313.09 340.76L313.91 346.88L316.28 346.56C318.33 346.28 320.37 347.15 321.59 348.82C324.03 352.15 328.11 353.99 332.22 353.6L335.29 353.32L334.72 347.18L331.65 347.46H331.66Z" fill="white"/>
<path d="M8.03 236.63L11.1 236.35L10.53 230.21L7.46 230.49C5.49 230.67 3.54 229.79 2.37 228.2C1.69 227.27 0.88 226.47 0 225.8V234.4C2.3 236.06 5.15 236.9 8.03 236.63Z" fill="#89C764"/>
<path d="M366.27 49.54L363.9 49.86L364.72 55.98L367.09 55.66C369.14 55.38 371.18 56.25 372.4 57.92C373.13 58.92 374.02 59.76 375 60.47V51.87C372.54 50 369.42 49.12 366.27 49.54Z" fill="#89C764"/>
<path d="M219.61 52.21C220.54 47.98 219.09 43.59 215.83 40.74L214.03 39.17L209.98 43.82L211.78 45.39C213.34 46.75 214.03 48.85 213.59 50.88C212.7 54.91 214.01 59.19 217.02 62.03L219.26 64.15L223.5 59.67L221.26 57.55C219.82 56.19 219.19 54.15 219.62 52.22L219.61 52.21Z" fill="#89C764"/>
<path d="M27.63 375.59C28.56 371.36 27.11 366.97 23.85 364.12L22.05 362.55L18 367.2L19.8 368.77C21.36 370.13 22.05 372.23 21.61 374.26C20.72 378.29 22.03 382.57 25.04 385.41L27.28 387.53L31.52 383.05L29.28 380.93C27.84 379.57 27.21 377.53 27.64 375.6L27.63 375.59Z" fill="#89C764"/>
<path d="M306.76 5.30001C305.87 9.33001 307.18 13.61 310.19 16.45L312.43 18.57L316.67 14.09L314.43 11.97C312.99 10.61 312.36 8.57001 312.79 6.64001C313.29 4.39001 313.09 2.10001 312.32 0.0100098H305.14C306.56 1.37001 307.19 3.37001 306.76 5.31001V5.30001Z" fill="white"/>
<path d="M109.76 5.30001C108.87 9.33001 110.18 13.61 113.19 16.45L115.43 18.57L119.67 14.09L117.43 11.97C115.99 10.61 115.36 8.57001 115.79 6.64001C116.29 4.39001 116.09 2.10001 115.32 0.0100098H108.14C109.56 1.37001 110.19 3.37001 109.76 5.31001V5.30001Z" fill="white"/>
<path d="M247 391.18C247.93 386.95 246.48 382.56 243.22 379.71L241.42 378.14L237.37 382.79L239.17 384.36C240.73 385.72 241.42 387.82 240.98 389.85C240.09 393.88 241.4 398.16 244.41 401L246.65 403.12L250.89 398.64L248.65 396.52C247.21 395.16 246.58 393.12 247.01 391.19L247 391.18Z" fill="#89C764"/>
<path d="M40.34 75.81C44.01 73.52 46.14 69.41 45.89 65.09L45.75 62.71L39.59 63.06L39.73 65.44C39.85 67.51 38.83 69.47 37.07 70.57C33.56 72.75 31.43 76.68 31.5 80.81L31.55 83.89L37.72 83.79L37.67 80.71C37.64 78.73 38.66 76.85 40.34 75.81Z" fill="#89C764"/>
<path d="M316.96 429.4L310.8 429.75L310.94 432.14C311.06 434.21 310.04 436.17 308.28 437.27C307.11 438 306.11 438.94 305.27 440H314.38C316.26 437.73 317.27 434.82 317.1 431.79L316.96 429.41V429.4Z" fill="#89C764"/>
<path d="M316.08 119.56C316.05 117.58 317.07 115.7 318.75 114.66C322.42 112.37 324.55 108.26 324.31 103.94L324.17 101.56L318.01 101.91L318.15 104.3C318.27 106.37 317.25 108.33 315.49 109.43C311.98 111.61 309.85 115.54 309.92 119.67L309.97 122.75L316.14 122.65L316.09 119.57L316.08 119.56Z" fill="white"/>
<path d="M49.43 167.53C49.26 169.59 47.97 171.39 46.07 172.23C42.29 173.89 39.62 177.48 39.1 181.58L38.71 184.64L44.83 185.41L45.22 182.35C45.47 180.39 46.75 178.67 48.56 177.88C52.52 176.14 55.21 172.37 55.58 168.06L55.78 165.68L49.63 165.15L49.43 167.53Z" fill="white"/>
<path d="M101.6 315.25C100.71 317.02 98.93 318.2 96.96 318.34C92.64 318.65 88.85 321.29 87.05 325.23L86.06 327.4L91.67 329.96L92.66 327.79C93.52 325.9 95.34 324.64 97.4 324.49C101.52 324.19 105.24 321.71 107.1 318.03L108.49 315.28L102.98 312.5L101.59 315.25H101.6Z" fill="#89C764"/>
</svg>
