<svg width="375" height="375" viewBox="0 0 375 375" fill="none" xmlns="http://www.w3.org/2000/svg">
<g clip-path="url(#clip0_8503_16478)">
<path d="M83.7167 72.2171L170.817 55.0813C180.246 53.2262 189.396 59.3758 191.249 68.7952L234.875 290.545C236.73 299.974 230.58 309.123 221.161 310.976L134.06 328.112C124.356 330.021 114.927 323.692 113.018 313.988L69.593 93.2592C67.6839 83.5552 74.0128 74.1262 83.7167 72.2171Z" fill="#16254C"/>
<path d="M181.081 53.0707L96.8949 69.6332C85.6505 71.8454 78.3285 82.754 80.5406 93.9984L122.875 309.184C125.087 320.428 135.996 327.75 147.241 325.538L231.427 308.975C242.671 306.763 249.993 295.854 247.781 284.61L205.446 69.4249C203.234 58.1806 192.326 50.8585 181.081 53.0707Z" fill="#3472AF"/>
<path d="M145.9 318.63C138.47 320.09 131.24 315.24 129.78 307.81L87.4299 92.6301C85.9699 85.2001 90.8199 77.9701 98.2499 76.5101L122.45 71.7501L122.59 72.4401C123.2 75.5401 126.22 77.5601 129.32 76.9501L157.96 71.3101C161.06 70.7001 163.08 67.6801 162.47 64.5801L162.33 63.8901L182.44 59.9301C189.87 58.4701 197.1 63.3201 198.56 70.7501L240.91 285.93C242.37 293.36 237.52 300.59 230.09 302.05L145.9 318.62V318.63Z" fill="white"/>
<path d="M143.23 319.31C140.45 319.31 137.73 318.49 135.37 316.9C132.23 314.79 130.1 311.59 129.37 307.89L87.0198 92.71C86.2898 89.01 87.0499 85.24 89.1599 82.1C91.2699 78.96 94.4698 76.83 98.1698 76.1L122.78 71.26L123 72.36C123.27 73.75 124.07 74.95 125.25 75.74C126.43 76.53 127.84 76.82 129.23 76.54L157.87 70.9C159.26 70.63 160.46 69.83 161.25 68.65C162.04 67.47 162.33 66.06 162.05 64.67L161.83 63.57L182.35 59.53C190 58.02 197.46 63.02 198.96 70.68L241.31 285.86C242.82 293.51 237.82 300.96 230.16 302.47L145.97 319.04C145.05 319.22 144.13 319.31 143.22 319.31H143.23ZM122.12 72.24L98.3298 76.92C94.8498 77.61 91.8398 79.61 89.8598 82.56C87.8798 85.52 87.1598 89.06 87.8498 92.54L130.2 307.72C130.89 311.2 132.89 314.21 135.84 316.19C138.79 318.17 142.34 318.89 145.82 318.2L230.01 301.63C237.21 300.21 241.91 293.2 240.5 286L198.15 70.82C196.73 63.62 189.72 58.92 182.52 60.33L162.82 64.21L162.87 64.49C163.19 66.1 162.86 67.74 161.94 69.1C161.02 70.47 159.63 71.39 158.02 71.71L129.38 77.35C127.77 77.67 126.13 77.34 124.77 76.42C123.41 75.5 122.48 74.11 122.16 72.5L122.11 72.22L122.12 72.24Z" fill="#393B56"/>
<path d="M154.883 64.9183L130.65 69.699L130.812 70.5231L155.045 65.7424L154.883 64.9183Z" fill="#393B56"/>
<path d="M139.99 100.08C139.75 98.87 138.97 98.23 138.04 98.41C137.11 98.59 136.62 99.5 136.86 100.7C137.1 101.9 137.87 102.56 138.82 102.37C139.77 102.18 140.23 101.3 139.99 100.09M134.52 97.74L136.21 97.41L136.28 97.75L136.34 98.59L136.52 98.55C136.74 97.78 137.33 97.1 138.33 96.91C139.86 96.61 141.28 97.64 141.7 99.75C142.1 101.81 141.19 103.36 139.66 103.66C138.66 103.86 137.84 103.41 137.36 102.83L137.18 102.87L137.46 103.72L138.14 107.17L136.45 107.5L134.53 97.74H134.52Z" fill="#89C764"/>
<path d="M147.08 99.4201L147.04 99.2401C145.72 99.5001 144.3 99.7901 144.48 100.7C144.57 101.16 145.01 101.36 145.65 101.24C146.67 101.04 147.25 100.31 147.07 99.4301M142.83 101.17C142.41 99.0601 144.92 98.6401 146.85 98.2601L146.75 97.7501C146.6 97.0101 146.13 96.7401 145.36 96.8901C144.6 97.0401 144.19 97.4801 144.29 98.3901L142.65 98.6301C142.4 96.7901 143.55 95.8401 145.09 95.5301C146.73 95.2101 148.08 95.6701 148.45 97.5501L149.27 101.69L147.95 101.95L147.6 100.87L147.45 100.9C147.27 101.79 146.57 102.36 145.44 102.58C144.11 102.84 143.06 102.32 142.83 101.17Z" fill="#89C764"/>
<path d="M154.15 98.0199L154.11 97.8399C152.79 98.0999 151.37 98.3899 151.55 99.2999C151.64 99.7599 152.08 99.9599 152.72 99.8399C153.74 99.6399 154.32 98.9099 154.14 98.0299M149.9 99.7799C149.48 97.6699 151.99 97.2499 153.92 96.8699L153.82 96.3599C153.67 95.6199 153.2 95.3499 152.43 95.4999C151.66 95.6499 151.26 96.0899 151.36 96.9999L149.72 97.2399C149.47 95.3999 150.62 94.4499 152.17 94.1399C153.81 93.8199 155.16 94.2799 155.53 96.1599L156.35 100.3L155.03 100.56L154.68 99.4799L154.53 99.5099C154.35 100.4 153.65 100.97 152.52 101.19C151.19 101.45 150.14 100.93 149.91 99.7799" fill="#89C764"/>
<path d="M156.95 98.16L158.51 97.69C158.78 98.28 159.27 98.5 160.13 98.33C160.92 98.17 161.33 97.81 161.23 97.31C161.17 96.99 160.93 96.77 160.17 96.82L158.98 96.92C157.89 97.01 156.75 96.77 156.5 95.54C156.24 94.19 157.15 93.15 158.81 92.82C160.52 92.48 161.6 93.09 161.97 94.45L160.51 94.85C160.32 94.24 159.86 93.98 159.05 94.14C158.24 94.3 157.97 94.71 158.06 95.18C158.13 95.52 158.42 95.67 159.03 95.63L160.26 95.53C161.48 95.45 162.57 95.69 162.81 96.95C163.07 98.28 162.25 99.28 160.37 99.65C158.49 100.02 157.37 99.46 156.93 98.18" fill="#89C764"/>
<path d="M165.043 85.4632L129.014 92.5515L129.288 93.9448L165.317 86.8565L165.043 85.4632Z" fill="#89C764"/>
<path d="M168.653 103.792L132.624 110.88L132.898 112.273L168.927 105.185L168.653 103.792Z" fill="#89C764"/>
<path d="M183.9 295.56C191.063 295.56 196.87 289.753 196.87 282.59C196.87 275.427 191.063 269.62 183.9 269.62C176.737 269.62 170.93 275.427 170.93 282.59C170.93 289.753 176.737 295.56 183.9 295.56Z" fill="#89C764"/>
<path d="M183.06 287.82L177.88 283.86L178.74 282.74L182.58 285.68L187.46 276.26L188.71 276.91L183.06 287.82Z" fill="white"/>
<path d="M278.99 62.7117L264.5 70.2866L264.792 70.8449L279.282 63.27L278.99 62.7117Z" fill="#A7AEB7"/>
<path d="M259.936 72.6607L247.662 79.0774L247.953 79.6357L260.227 73.2191L259.936 72.6607Z" fill="#A7AEB7"/>
<path d="M238.176 84.0001L199.005 104.478L199.297 105.036L238.467 84.5584L238.176 84.0001Z" fill="#A7AEB7"/>
<path d="M194.197 106.984L187.674 110.391L187.966 110.95L194.489 107.542L194.197 106.984Z" fill="#A7AEB7"/>
<path d="M174.533 117.22L152.732 128.617L153.024 129.175L174.824 117.778L174.533 117.22Z" fill="#A7AEB7"/>
<path d="M232.646 66.8295L224.886 72.2917L225.248 72.8069L233.009 67.3447L232.646 66.8295Z" fill="#A7AEB7"/>
<path d="M216.394 78.2618L182.245 102.298L182.607 102.813L216.756 78.777L216.394 78.2618Z" fill="#A7AEB7"/>
<path d="M270.103 287.086L269.917 287.688L292.069 294.545L292.256 293.943L270.103 287.086Z" fill="#A7AEB7"/>
<path d="M258.553 283.471L258.367 284.073L266.258 286.514L266.444 285.912L258.553 283.471Z" fill="#A7AEB7"/>
<path d="M225.843 273.382L225.657 273.984L253.981 282.752L254.167 282.15L225.843 273.382Z" fill="#A7AEB7"/>
<path d="M216.053 270.325L215.867 270.927L222.554 272.997L222.74 272.395L216.053 270.325Z" fill="#A7AEB7"/>
<path d="M282.627 314.11L282.373 314.686L286.625 316.567L286.88 315.991L282.627 314.11Z" fill="#A7AEB7"/>
<path d="M258.355 303.366L258.101 303.942L278.89 313.133L279.144 312.557L258.355 303.366Z" fill="#A7AEB7"/>
<path d="M327.351 193.201L307.351 193.24L307.352 193.869L327.352 193.831L327.351 193.201Z" fill="#A7AEB7"/>
<path d="M301.911 193.24L291.121 193.261L291.122 193.891L301.912 193.87L301.911 193.24Z" fill="#A7AEB7"/>
<path d="M295.106 105.978L288.883 108.178L289.093 108.772L295.316 106.572L295.106 105.978Z" fill="#A7AEB7"/>
<path d="M285.432 109.39L273.383 113.65L273.593 114.244L285.642 109.984L285.432 109.39Z" fill="#A7AEB7"/>
<path d="M266.334 116.145L248.166 122.568L248.376 123.162L266.544 116.739L266.334 116.145Z" fill="#A7AEB7"/>
<path d="M324.804 107.466L304.494 112.843L304.655 113.452L324.966 108.075L324.804 107.466Z" fill="#A7AEB7"/>
<path d="M298.848 114.349L275.928 120.418L276.089 121.027L299.009 114.958L298.848 114.349Z" fill="#A7AEB7"/>
<path d="M152.282 251.314L152.062 251.905L156.899 253.702L157.119 253.112L152.282 251.314Z" fill="#A7AEB7"/>
<path d="M139.59 246.614L139.37 247.205L149.09 250.818L149.31 250.227L139.59 246.614Z" fill="#A7AEB7"/>
<path d="M129.86 242.984L129.641 243.574L135.424 245.723L135.644 245.133L129.86 242.984Z" fill="#A7AEB7"/>
<path d="M148.12 189.377L141.709 189.994L141.77 190.621L148.18 190.004L148.12 189.377Z" fill="#A7AEB7"/>
<path d="M133.616 190.764L112.822 192.767L112.883 193.394L133.676 191.391L133.616 190.764Z" fill="#A7AEB7"/>
<path d="M144.03 176.476L128.547 180.005L128.687 180.619L144.17 177.09L144.03 176.476Z" fill="#A7AEB7"/>
<path d="M123.978 181.041L116.012 182.856L116.152 183.471L124.118 181.655L123.978 181.041Z" fill="#A7AEB7"/>
<path d="M134.306 122.956L130.568 126.231L130.984 126.705L134.721 123.43L134.306 122.956Z" fill="#A7AEB7"/>
<path d="M128.811 127.768L120.426 135.117L120.841 135.591L129.227 128.242L128.811 127.768Z" fill="#A7AEB7"/>
<path d="M118.4 136.903L114.857 140.007L115.273 140.481L118.815 137.377L118.4 136.903Z" fill="#A7AEB7"/>
<path d="M323.674 263.669L323.516 264.279L338.825 268.264L338.984 267.654L323.674 263.669Z" fill="#A7AEB7"/>
<path d="M196.368 318.629L195.999 319.139L204.256 325.127L204.626 324.617L196.368 318.629Z" fill="#A7AEB7"/>
<path d="M177.154 304.688L176.784 305.198L189.049 314.092L189.418 313.582L177.154 304.688Z" fill="#A7AEB7"/>
<path d="M196.284 45.8573L176.753 64.4563L177.188 64.9125L196.719 46.3135L196.284 45.8573Z" fill="#A7AEB7"/>
<path d="M293.765 33.0111L283.727 39.6599L284.075 40.1851L294.113 33.5363L293.765 33.0111Z" fill="#A7AEB7"/>
<path d="M264.729 117.525L140.491 141.967C136.903 142.673 134.567 146.153 135.273 149.74L149.262 220.847C149.968 224.435 153.448 226.771 157.036 226.065L281.274 201.623C284.862 200.917 287.198 197.437 286.492 193.849L272.502 122.742C271.797 119.155 268.316 116.819 264.729 117.525Z" fill="#393B56"/>
<path d="M265.647 116.153L141.409 140.595C137.821 141.301 135.485 144.781 136.191 148.369L150.18 219.475C150.886 223.063 154.366 225.399 157.954 224.693L282.192 200.251C285.78 199.545 288.116 196.065 287.41 192.478L273.42 121.371C272.715 117.783 269.234 115.447 265.647 116.153Z" fill="#3472AF"/>
<path d="M152.8 155.72L154.36 147.45L152.07 147.9L151.35 152.22L151.12 153.77L151.05 153.78L150.25 152.42L147.95 148.71L145.65 149.17L150.27 156.22L152.8 155.72Z" fill="white"/>
<path d="M157.219 146.877L155.158 147.283L156.667 154.946L158.728 154.54L157.219 146.877Z" fill="white"/>
<path d="M161.75 150.79L163.38 150.74C164.34 150.71 164.63 150.74 164.71 151.1C164.8 151.57 164.33 151.81 163.37 152C162.32 152.21 161.62 152.05 161.29 151.15L159.4 152.05C160.01 153.61 161.58 154.11 163.69 153.69C165.62 153.31 167 152.15 166.63 150.45C166.38 149.29 165.22 148.71 163.83 148.77L162.41 148.83C161.36 148.88 161.03 148.86 160.93 148.44C160.85 148.05 161.25 147.76 162.14 147.59C163.15 147.39 163.75 147.41 164.04 148.33L165.79 147.45C165.27 145.97 163.98 145.44 161.79 145.87C160.01 146.22 158.6 147.33 158.93 148.89C159.22 150.2 160.38 150.82 161.74 150.78L161.75 150.79Z" fill="white"/>
<path d="M168.771 144.619L166.71 145.024L168.218 152.687L170.279 152.282L168.771 144.619Z" fill="white"/>
<path d="M171.81 145.86L172.9 145.62L174.06 151.54L176.06 151.14L174.9 145.23L176 145.04L177.43 144.75L177.08 142.98L170.02 144.37L170.37 146.14L171.81 145.86Z" fill="white"/>
<path d="M187.3 144.97C186.82 142.55 184.66 141.37 182.06 141.88C179.49 142.39 177.89 144.28 178.37 146.72C178.84 149.12 181.01 150.27 183.61 149.76C186.17 149.26 187.77 147.38 187.3 144.96V144.97ZM180.45 146.3C180.12 144.61 180.75 144.03 182.42 143.7C184.08 143.37 184.88 143.67 185.21 145.36C185.51 146.86 184.92 147.62 183.25 147.95C181.59 148.28 180.79 148.05 180.44 146.3H180.45Z" fill="white"/>
<path d="M191.22 148.16L190.68 145.41L192.33 145.08L194.63 147.48L196.63 147.08L194.03 144.45V144.41C195.09 144.2 195.49 143.07 195.26 141.94C194.96 140.4 193.7 139.7 191.95 140.04L187.69 140.88L189.2 148.55L191.2 148.16H191.22ZM192.06 141.82C192.77 141.68 193.09 141.74 193.22 142.38C193.35 143.03 193.1 143.21 192.37 143.36L190.37 143.75L190.07 142.22L192.07 141.83L192.06 141.82Z" fill="white"/>
<path d="M154.62 176.85L153.96 173.56H153.98C154.55 174.47 155.48 174.86 156.54 174.66C158.31 174.31 159.04 173.14 158.7 171.44C158.36 169.72 157.28 168.92 155.53 169.27C154.45 169.48 153.7 170.21 153.53 171.26H153.51L153.09 169.87L152.38 170.01L153.76 177.04L154.61 176.87L154.62 176.85ZM155.41 170.1C156.82 169.82 157.6 170.33 157.85 171.6C158.1 172.87 157.57 173.64 156.16 173.91C154.88 174.16 153.97 173.65 153.73 172.41C153.49 171.18 154.11 170.36 155.41 170.1Z" fill="white"/>
<path d="M159.86 172.54C160.03 173.41 160.88 173.79 162.08 173.56C163.16 173.35 163.92 172.63 164.06 171.61H164.08L164.46 172.97L165.18 172.83L164.51 169.45C164.26 168.18 163.13 167.75 161.73 168.03C160.41 168.29 159.59 169.04 159.71 170.26L160.47 170.29C160.4 169.43 160.78 168.93 161.86 168.72C162.86 168.52 163.5 168.8 163.68 169.58L163.72 169.8L162.75 170.15C160.47 170.97 159.61 171.36 159.84 172.54H159.86ZM163.84 170.3C164.13 171.6 163.32 172.67 162.21 172.88C161.34 173.05 160.81 172.84 160.71 172.29C160.55 171.47 161.5 171.16 162.88 170.65L163.85 170.3H163.84Z" fill="white"/>
<path d="M166 171.33C166.17 172.2 167.02 172.59 168.23 172.35C169.31 172.14 170.07 171.42 170.21 170.4H170.23L170.61 171.76L171.33 171.62L170.66 168.24C170.41 166.97 169.28 166.54 167.88 166.82C166.55 167.08 165.74 167.83 165.86 169.05L166.62 169.08C166.55 168.22 166.93 167.72 168.01 167.51C169.01 167.31 169.65 167.58 169.83 168.37L169.87 168.59L168.9 168.94C166.62 169.76 165.76 170.15 165.99 171.33H166ZM169.98 169.09C170.27 170.39 169.46 171.46 168.35 171.67C167.48 171.84 166.95 171.63 166.85 171.08C166.69 170.26 167.64 169.95 169.02 169.44L169.99 169.09H169.98Z" fill="white"/>
<path d="M174.83 170.37C173.79 170.58 173.16 170.32 172.87 169.6L172.11 169.95C172.5 170.93 173.58 171.3 174.91 171.04C176.39 170.75 177.13 170.01 176.92 169C176.74 168.22 176.11 167.88 174.97 167.92L173.69 167.96C173.03 167.97 172.72 167.78 172.63 167.38C172.53 166.85 172.95 166.47 173.82 166.3C174.7 166.13 175.32 166.42 175.62 167.21L176.39 166.88C175.93 165.86 175.05 165.43 173.67 165.7C172.28 165.97 171.59 166.66 171.79 167.58C171.96 168.32 172.52 168.71 173.51 168.68L174.65 168.66C175.57 168.65 175.99 168.81 176.09 169.26C176.2 169.82 175.75 170.2 174.84 170.38L174.83 170.37Z" fill="white"/>
<path d="M188.27 162.92L187.14 163.14L185.44 165.38L184.56 165.55L183.71 161.23L182.87 161.39L184.38 169.06L185.22 168.89L184.71 166.31L185.59 166.13L188.47 168.25L189.44 168.06L186.2 165.67L188.27 162.92Z" fill="white"/>
<path d="M191.74 162.13C190.42 162.39 189.6 163.14 189.72 164.36L190.48 164.39C190.41 163.53 190.79 163.03 191.87 162.82C192.87 162.62 193.51 162.89 193.69 163.68L193.73 163.9L192.76 164.25C190.48 165.07 189.62 165.46 189.85 166.64C190.02 167.51 190.87 167.9 192.07 167.66C193.15 167.45 193.91 166.73 194.05 165.71H194.07L194.45 167.07L195.17 166.93L194.5 163.55C194.25 162.28 193.12 161.85 191.72 162.13H191.74ZM192.2 166.98C191.33 167.15 190.8 166.94 190.7 166.39C190.54 165.57 191.49 165.26 192.87 164.75L193.84 164.4C194.13 165.7 193.32 166.77 192.21 166.98H192.2Z" fill="white"/>
<path d="M196.89 162.68L196.47 161.31L195.76 161.45L196.78 166.62L197.63 166.45L197.18 164.18C196.87 162.59 197.99 161.61 199.32 161.55L199.28 160.72C198 160.81 197.03 161.38 196.89 162.68Z" fill="white"/>
<path d="M203.1 164.58L203.06 164.56L202.35 160.94L203.01 160.82L204.25 160.58L204.1 159.81L202.86 160.05L202.21 160.19L201.88 158.5L201.22 158.63L201.35 160.35L200.69 160.47L199.97 160.61L200.12 161.38L200.84 161.24L201.5 161.1L202.17 164.48C202.3 165.13 202.73 165.44 203.4 165.31L204.97 165L204.82 164.23L203.11 164.57L203.1 164.58Z" fill="white"/>
<path d="M210.34 160.43C210.09 159.16 208.96 158.73 207.56 159.01C206.24 159.27 205.42 160.02 205.54 161.24L206.3 161.27C206.23 160.41 206.61 159.91 207.69 159.7C208.69 159.5 209.33 159.77 209.51 160.56L209.55 160.78L208.58 161.13C206.3 161.95 205.44 162.34 205.67 163.52C205.84 164.39 206.69 164.78 207.89 164.54C208.97 164.33 209.73 163.61 209.87 162.59H209.89L210.27 163.95L210.99 163.81L210.32 160.43H210.34ZM208.01 163.87C207.14 164.04 206.61 163.83 206.51 163.28C206.35 162.46 207.3 162.15 208.68 161.64L209.65 161.29C209.94 162.59 209.13 163.66 208.02 163.87H208.01Z" fill="white"/>
<path d="M176.397 160.384L149.777 165.621L149.974 166.621L176.593 161.384L176.397 160.384Z" fill="white"/>
<path d="M179.283 174.975L152.663 180.212L152.86 181.213L179.48 175.976L179.283 174.975Z" fill="white"/>
<path d="M277.35 178.18L274.55 178.73L272.15 166.52L271.64 166.63L274.04 178.83L265.17 180.57L262.77 168.37L262.26 168.47L264.66 180.68L255.79 182.42L253.39 170.22L252.88 170.32L255.28 182.52L246.41 184.27L244.01 172.06L243.5 172.16L245.9 184.37L243.1 184.92L243.2 185.43L246 184.88L248.4 197.09L248.92 196.98L246.52 184.78L255.38 183.04L257.78 195.24L258.3 195.14L255.9 182.93L264.76 181.19L267.16 193.39L267.68 193.29L265.27 181.09L274.14 179.34L276.54 191.55L277.06 191.45L274.65 179.24L277.46 178.69L277.35 178.18Z" fill="#CDCECF"/>
<path d="M261.22 185.79L259.31 186.17L260.46 192.01L260.97 191.91L260.54 189.71L261.93 189.44C262.93 189.24 263.59 188.26 263.39 187.26C263.19 186.26 262.22 185.6 261.21 185.8L261.22 185.79ZM261.83 188.92L260.44 189.19L259.93 186.57L261.32 186.3C262.04 186.16 262.74 186.63 262.88 187.35C263.02 188.07 262.55 188.77 261.83 188.91V188.92Z" fill="#CDCECF"/>
<path d="M267.22 173.91L268.61 173.64C269.61 173.44 270.27 172.46 270.07 171.46C269.87 170.46 268.9 169.8 267.89 170L265.98 170.38L267.13 176.22L267.64 176.12L267.21 173.92L267.22 173.91ZM266.6 170.78L267.99 170.51C268.71 170.37 269.41 170.84 269.55 171.56C269.69 172.28 269.22 172.98 268.5 173.12L267.11 173.39L266.6 170.77V170.78Z" fill="#CDCECF"/>
<path d="M250.01 181.6L250.94 181.42C252.31 181.15 253.02 180.28 252.8 179.16L251.7 173.55C251.43 172.19 250.11 171.31 248.76 171.57L248.31 171.66C246.95 171.93 246.07 173.25 246.34 174.61L247.44 180.22C247.66 181.35 248.65 181.88 250.02 181.61L250.01 181.6ZM246.84 174.5C246.63 173.43 247.33 172.38 248.4 172.17L248.85 172.08C249.92 171.87 250.97 172.57 251.18 173.64L252.28 179.25C252.51 180.43 251.35 180.8 250.83 180.9L249.9 181.08C249.39 181.18 248.17 181.29 247.94 180.1L246.84 174.49V174.5Z" fill="#CDCECF"/>
<path d="M249.15 174.76C249.87 174.62 250.24 174.77 250.24 174.77L250.46 174.29C250.41 174.27 249.94 174.06 249.05 174.24C248.27 174.39 247.8 174.82 247.78 174.84L248.14 175.22C248.14 175.22 248.52 174.87 249.15 174.75V174.76Z" fill="#CDCECF"/>
<path d="M250.818 178.291L248.895 178.669L248.995 179.18L250.919 178.801L250.818 178.291Z" fill="#CDCECF"/>
<path d="M259.63 179.71L260.08 179.62C261.44 179.35 262.32 178.03 262.05 176.67L260.95 171.06C260.73 169.93 259.74 169.4 258.37 169.67L257.44 169.85C256.07 170.12 255.36 170.99 255.58 172.11L256.68 177.72C256.95 179.08 258.27 179.96 259.62 179.7L259.63 179.71ZM256.1 172.02C255.87 170.84 257.03 170.47 257.55 170.37L258.48 170.19C258.99 170.09 260.21 169.98 260.44 171.17L261.54 176.78C261.75 177.85 261.05 178.9 259.98 179.11L259.53 179.2C258.46 179.41 257.41 178.71 257.2 177.64L256.1 172.03V172.02Z" fill="#CDCECF"/>
<path d="M260.61 176.42L260.25 176.04C260.25 176.04 259.87 176.39 259.24 176.51C258.52 176.65 258.15 176.5 258.15 176.5L257.93 176.98C257.98 177 258.45 177.21 259.34 177.03C260.12 176.88 260.59 176.45 260.61 176.43V176.42Z" fill="#CDCECF"/>
<path d="M259.361 172.138L257.438 172.517L257.538 173.027L259.461 172.648L259.361 172.138Z" fill="#CDCECF"/>
<path d="M270.3 182.03L269.85 182.12C268.49 182.39 267.61 183.71 267.88 185.07L268.98 190.68C269.2 191.81 270.19 192.34 271.56 192.07L272.49 191.89C273.86 191.62 274.57 190.75 274.35 189.63L273.25 184.02C272.98 182.66 271.66 181.78 270.31 182.04L270.3 182.03ZM273.83 189.72C274.06 190.91 272.9 191.27 272.38 191.37L271.45 191.55C270.94 191.65 269.72 191.76 269.49 190.57L268.39 184.96C268.18 183.89 268.88 182.84 269.95 182.63L270.4 182.54C271.47 182.33 272.52 183.03 272.73 184.1L273.83 189.71V189.72Z" fill="#CDCECF"/>
<path d="M269.32 185.31L269.68 185.69C269.68 185.69 270.06 185.34 270.69 185.22C271.41 185.08 271.78 185.23 271.78 185.23L272 184.75C271.95 184.73 271.48 184.52 270.59 184.7C269.81 184.85 269.34 185.28 269.32 185.3V185.31Z" fill="#CDCECF"/>
<path d="M272.372 188.754L270.449 189.133L270.549 189.643L272.472 189.265L272.372 188.754Z" fill="#CDCECF"/>
<path d="M251.78 185.67L250.85 185.85C249.48 186.12 248.77 186.99 248.99 188.11L250.09 193.72C250.36 195.08 251.68 195.96 253.03 195.7L253.48 195.61C254.84 195.34 255.72 194.02 255.45 192.66L254.35 187.05C254.13 185.92 253.14 185.39 251.77 185.66L251.78 185.67ZM254.95 192.78C255.16 193.85 254.46 194.9 253.39 195.11L252.94 195.2C251.87 195.41 250.82 194.71 250.61 193.64L249.51 188.03C249.28 186.85 250.44 186.48 250.96 186.38L251.89 186.2C252.4 186.1 253.62 185.99 253.85 187.18L254.95 192.79V192.78Z" fill="#CDCECF"/>
<path d="M252.64 192.52C251.92 192.66 251.55 192.51 251.55 192.51L251.44 192.75L251.33 192.99C251.38 193.01 251.85 193.22 252.74 193.04C253.52 192.89 253.99 192.46 254.01 192.44L253.65 192.06C253.65 192.06 253.27 192.41 252.64 192.53V192.52Z" fill="#CDCECF"/>
<path d="M252.763 188.141L250.84 188.52L250.94 189.03L252.863 188.651L252.763 188.141Z" fill="#CDCECF"/>
<path opacity="0.15" d="M208.84 214.67L174.68 221.39L196.21 129.8L230.37 123.08L208.84 214.67Z" fill="#DFDFDF"/>
<path opacity="0.15" d="M227.4 211.02L215.14 213.43L236.67 121.84L248.93 119.42L227.4 211.02Z" fill="#DFDFDF"/>
<path d="M299.35 229.99L173.37 242.76C169.75 243.13 166.49 240.47 166.12 236.84L158.81 164.73C158.64 163.04 159.41 160.79 161.3 158.63C162.49 157.27 162.8 157.68 164.73 157.48L290.71 144.71C294.33 144.34 297.59 147 297.96 150.63L305.27 222.74C305.45 224.55 305.64 225.06 304.7 226.48C303.87 227.75 301.92 229.73 299.35 229.99Z" fill="#8A9AA7"/>
<path d="M291.731 143.437L165.757 156.211C162.12 156.58 159.47 159.827 159.839 163.465L167.15 235.565C167.519 239.203 170.766 241.852 174.404 241.484L300.378 228.71C304.015 228.341 306.665 225.093 306.296 221.456L298.985 149.355C298.616 145.718 295.369 143.068 291.731 143.437Z" fill="#CDCECF"/>
<path d="M297.61 206.31L294.77 206.59L293.52 194.22L293 194.27L294.25 206.65L285.26 207.56L284.01 195.18L283.49 195.24L284.74 207.61L275.75 208.52L274.5 196.15L273.98 196.2L275.23 208.57L266.24 209.49L264.99 197.11L264.47 197.16L265.72 209.54L262.88 209.83L262.93 210.35L265.77 210.06L267.03 222.43L267.55 222.38L266.29 210.01L275.28 209.1L276.54 221.47L277.06 221.42L275.81 209.04L284.79 208.13L286.05 220.51L286.57 220.45L285.32 208.08L294.31 207.17L295.56 219.54L296.08 219.49L294.83 207.11L297.67 206.83L297.61 206.31Z" fill="#758089"/>
<path d="M280.84 212.38L278.9 212.58L279.5 218.51L280.02 218.46L279.79 216.23L281.2 216.09C282.22 215.99 282.96 215.07 282.86 214.06C282.76 213.05 281.85 212.3 280.83 212.4L280.84 212.38ZM281.16 215.55L279.75 215.69L279.48 213.04L280.89 212.9C281.62 212.83 282.27 213.36 282.35 214.09C282.43 214.82 281.89 215.48 281.16 215.55Z" fill="#758089"/>
<path d="M287.92 201.11L289.33 200.97C290.35 200.87 291.09 199.95 290.99 198.94C290.89 197.93 289.98 197.18 288.96 197.28L287.03 197.48L287.63 203.41L288.15 203.36L287.92 201.13V201.11ZM287.6 197.94L289.01 197.8C289.74 197.73 290.39 198.26 290.47 198.99C290.55 199.72 290.01 200.38 289.28 200.45L287.87 200.59L287.6 197.94Z" fill="#758089"/>
<path d="M270.07 207.17L271.02 207.07C272.41 206.93 273.2 206.13 273.08 204.99L272.5 199.3C272.36 197.92 271.13 196.92 269.75 197.06L269.29 197.11C267.92 197.25 266.91 198.48 267.05 199.86L267.63 205.55C267.75 206.69 268.68 207.31 270.07 207.17ZM267.58 199.8C267.47 198.71 268.26 197.74 269.35 197.63L269.81 197.58C270.9 197.47 271.87 198.27 271.98 199.35L272.56 205.04C272.68 206.24 271.49 206.49 270.97 206.55L270.02 206.65C269.5 206.7 268.28 206.7 268.16 205.49L267.58 199.8Z" fill="#758089"/>
<path d="M269.85 200.28C270.58 200.21 270.93 200.39 270.94 200.39L271.07 200.16L271.2 199.93C271.2 199.93 270.7 199.66 269.8 199.75C269.01 199.83 268.5 200.22 268.48 200.23L268.8 200.64C268.8 200.64 269.21 200.33 269.85 200.27V200.28Z" fill="#758089"/>
<path d="M271.199 203.917L269.249 204.115L269.301 204.632L271.251 204.434L271.199 203.917Z" fill="#758089"/>
<path d="M279.82 206.18L280.28 206.13C281.65 205.99 282.66 204.76 282.52 203.38L281.94 197.69C281.82 196.55 280.89 195.93 279.5 196.07L278.55 196.17C277.16 196.31 276.37 197.11 276.49 198.25L277.07 203.94C277.21 205.32 278.44 206.32 279.82 206.18ZM277.02 198.19C276.9 196.99 278.09 196.74 278.61 196.68L279.56 196.58C280.08 196.53 281.3 196.53 281.42 197.74L282 203.43C282.11 204.52 281.32 205.49 280.23 205.6L279.77 205.65C278.68 205.76 277.71 204.96 277.6 203.88L277.02 198.19Z" fill="#758089"/>
<path d="M281.1 203L280.78 202.59C280.78 202.59 280.37 202.9 279.73 202.96C279 203.03 278.65 202.85 278.64 202.85L278.38 203.3C278.38 203.3 278.88 203.57 279.78 203.48C280.57 203.4 281.08 203.01 281.1 203Z" fill="#758089"/>
<path d="M280.274 198.589L278.324 198.787L278.377 199.304L280.327 199.106L280.274 198.589Z" fill="#758089"/>
<path d="M290.23 209.48L289.77 209.53C288.4 209.67 287.39 210.9 287.53 212.28L288.11 217.97C288.23 219.11 289.16 219.73 290.55 219.59L291.5 219.49C292.89 219.35 293.68 218.55 293.56 217.41L292.98 211.72C292.84 210.34 291.61 209.34 290.23 209.48ZM293.03 217.47C293.15 218.67 291.96 218.92 291.44 218.98L290.49 219.08C289.97 219.13 288.75 219.13 288.63 217.92L288.05 212.23C287.94 211.14 288.73 210.17 289.82 210.06L290.28 210.01C291.37 209.9 292.34 210.7 292.45 211.78L293.03 217.47Z" fill="#758089"/>
<path d="M288.95 212.66L289.27 213.07C289.27 213.07 289.68 212.76 290.32 212.7C291.05 212.63 291.4 212.81 291.41 212.81L291.67 212.36C291.67 212.36 291.17 212.09 290.27 212.18C289.48 212.26 288.97 212.65 288.95 212.66Z" fill="#758089"/>
<path d="M291.678 216.347L289.728 216.545L289.78 217.062L291.73 216.865L291.678 216.347Z" fill="#758089"/>
<path d="M271.45 211.39L270.5 211.49C269.11 211.63 268.32 212.43 268.44 213.57L269.02 219.26C269.16 220.64 270.39 221.64 271.77 221.5L272.23 221.45C273.6 221.31 274.61 220.08 274.47 218.7L273.89 213.01C273.77 211.87 272.84 211.25 271.45 211.39ZM273.94 218.75C274.05 219.84 273.26 220.81 272.17 220.92L271.71 220.97C270.62 221.08 269.65 220.28 269.54 219.2L268.96 213.51C268.84 212.31 270.03 212.06 270.55 212L271.5 211.9C272.02 211.85 273.24 211.85 273.36 213.06L273.94 218.75Z" fill="#758089"/>
<path d="M271.67 218.28C270.94 218.35 270.59 218.17 270.58 218.17L270.32 218.62C270.32 218.62 270.82 218.89 271.72 218.8C272.51 218.72 273.02 218.33 273.04 218.32L272.72 217.91C272.72 217.91 272.31 218.22 271.67 218.28Z" fill="#758089"/>
<path d="M272.221 213.913L270.271 214.111L270.323 214.628L272.273 214.43L272.221 213.913Z" fill="#758089"/>
<path opacity="0.6" d="M224.68 236.39L190.04 239.9L220.01 150.71L254.65 147.2L224.68 236.39Z" fill="#DFDFDF"/>
<path opacity="0.6" d="M243.49 234.48L231.06 235.74L261.04 146.55L273.46 145.29L243.49 234.48Z" fill="#DFDFDF"/>
<path d="M175.66 168.39C176.93 168.31 177.82 168.93 177.92 169.9C178.06 171.27 177.21 172.19 175.79 172.34L170.87 172.84L170.08 165.07L174.51 164.62C176.12 164.46 177.11 165.13 177.23 166.36C177.33 167.3 176.74 168.13 175.65 168.36V168.39H175.66ZM172.39 167.91L174.63 167.68C175.06 167.64 175.26 167.38 175.22 166.92C175.18 166.53 174.85 166.36 174.41 166.41L172.27 166.63L172.4 167.91H172.39ZM175.77 169.85C175.73 169.44 175.43 169.26 174.89 169.31L172.56 169.55L172.69 170.86L175.08 170.62C175.59 170.57 175.82 170.31 175.78 169.85H175.77Z" fill="#192548"/>
<path d="M178.31 168.17C178.06 165.69 179.82 163.96 182.43 163.69C185.06 163.42 187.11 164.8 187.36 167.25C187.61 169.7 185.84 171.42 183.24 171.68C180.61 171.95 178.55 170.6 178.31 168.16V168.17ZM185.25 167.45C185.08 165.74 184.31 165.37 182.62 165.54C180.93 165.71 180.24 166.23 180.42 167.94C180.6 169.72 181.37 170.02 183.06 169.85C184.75 169.68 185.41 168.97 185.25 167.45Z" fill="#192548"/>
<path d="M188.15 163.23L190.87 162.95L194.17 166.84L194.84 167.66H194.88L194.78 166.8L194.35 162.59L196.37 162.38L197.16 170.15L194.55 170.41L191.17 166.38L190.45 165.5H190.41L190.52 166.45L190.96 170.78L188.94 170.99L188.15 163.22V163.23Z" fill="#192548"/>
<path d="M206.01 161.42L206.46 165.88C206.69 168.1 205.31 169.45 202.79 169.71C200.25 169.97 198.63 168.93 198.4 166.7L197.95 162.24L199.98 162.03L200.45 166.65C200.57 167.86 201.22 168.01 202.6 167.87C204.02 167.73 204.57 167.43 204.45 166.25L203.98 161.63L206 161.42H206.01Z" fill="#192548"/>
<path d="M207.61 166.76L209.58 166.04C209.82 166.97 210.5 167.19 211.57 167.08C212.54 166.98 213.03 166.79 212.98 166.31C212.93 165.95 212.64 165.88 211.69 165.82L210.06 165.72C208.71 165.63 207.61 164.9 207.44 163.57C207.26 161.98 208.76 161.01 210.57 160.83C212.79 160.61 214.02 161.25 214.4 162.78L212.58 163.49C212.38 162.54 211.78 162.47 210.76 162.57C209.86 162.66 209.44 162.91 209.48 163.31C209.53 163.74 209.86 163.79 210.91 163.84L212.33 163.91C213.72 163.98 214.82 164.67 214.96 165.84C215.17 167.57 213.68 168.59 211.73 168.79C209.59 169.01 208.07 168.36 207.61 166.75V166.76Z" fill="#192548"/>
<path d="M180.12 188.53C180.3 190.26 179.46 191.36 177.67 191.54C176.59 191.65 175.7 191.17 175.22 190.21H175.2L175.55 193.55L174.68 193.64L173.96 186.51L174.68 186.44L174.97 187.87H174.99C175.26 186.84 176.06 186.19 177.16 186.08C178.94 185.9 179.94 186.8 180.11 188.54L180.12 188.53ZM179.25 188.62C179.12 187.33 178.39 186.76 176.96 186.9C175.64 187.03 174.94 187.8 175.07 189.04C175.2 190.29 176.05 190.89 177.35 190.76C178.78 190.61 179.38 189.9 179.25 188.61V188.62Z" fill="#192548"/>
<path d="M186.1 187.1L186.45 190.53L185.72 190.6L185.47 189.2H185.45C185.22 190.2 184.39 190.85 183.3 190.96C182.08 191.08 181.27 190.62 181.18 189.74C181.06 188.54 181.95 188.24 184.3 187.63L185.29 187.37L185.27 187.15C185.17 186.35 184.55 186.02 183.54 186.12C182.45 186.23 182.03 186.69 182.01 187.55L181.26 187.45C181.25 186.23 182.13 185.56 183.48 185.42C184.9 185.28 185.99 185.81 186.12 187.09L186.1 187.1ZM185.33 187.89L184.34 188.15C182.92 188.53 181.94 188.75 182.03 189.58C182.09 190.13 182.59 190.4 183.47 190.31C184.59 190.2 185.5 189.21 185.33 187.89Z" fill="#192548"/>
<path d="M192.33 186.47L192.68 189.9L191.95 189.97L191.7 188.57H191.68C191.44 189.57 190.62 190.22 189.52 190.33C188.3 190.45 187.49 189.99 187.4 189.11C187.28 187.91 188.17 187.61 190.52 187L191.51 186.74L191.49 186.52C191.39 185.72 190.77 185.39 189.76 185.49C188.67 185.6 188.25 186.06 188.23 186.92L187.48 186.82C187.47 185.6 188.35 184.93 189.7 184.79C191.12 184.65 192.21 185.18 192.34 186.46L192.33 186.47ZM191.56 187.26L190.57 187.52C189.15 187.9 188.17 188.12 188.26 188.96C188.32 189.51 188.82 189.78 189.7 189.69C190.82 189.58 191.73 188.59 191.56 187.27V187.26Z" fill="#192548"/>
<path d="M193.6 188.31L194.39 188.03C194.61 188.78 195.22 189.09 196.27 188.98C197.19 188.89 197.67 188.55 197.61 187.98C197.55 187.52 197.15 187.32 196.23 187.24L195.09 187.15C194.11 187.09 193.58 186.65 193.48 185.9C193.37 184.96 194.12 184.34 195.53 184.2C196.93 184.06 197.77 184.57 198.13 185.63L197.34 185.89C197.11 185.08 196.52 184.73 195.63 184.82C194.75 184.91 194.29 185.25 194.35 185.78C194.4 186.18 194.69 186.41 195.35 186.45L196.63 186.53C197.77 186.6 198.37 186.99 198.47 187.79C198.59 188.82 197.78 189.49 196.28 189.64C194.94 189.78 193.89 189.31 193.6 188.3V188.31Z" fill="#192548"/>
<path d="M205.19 185.99C205.01 184.24 206.03 183.15 207.96 182.95C209.6 182.78 210.51 183.36 210.92 184.68L210.1 184.95C209.86 184.02 209.28 183.62 208.05 183.74C206.57 183.89 205.94 184.63 206.07 185.89C206.2 187.15 206.97 187.75 208.44 187.6C209.72 187.47 210.14 186.93 210.2 185.94L211.06 186.04C210.93 187.45 210.15 188.23 208.52 188.4C206.6 188.6 205.38 187.71 205.2 185.98L205.19 185.99Z" fill="#192548"/>
<path d="M216.98 183.97L217.33 187.4L216.6 187.47L216.35 186.07H216.33C216.09 187.07 215.27 187.72 214.18 187.83C212.96 187.95 212.15 187.49 212.06 186.61C211.94 185.41 212.83 185.11 215.18 184.5L216.17 184.24L216.15 184.02C216.05 183.22 215.43 182.89 214.42 182.99C213.33 183.1 212.91 183.56 212.89 184.42L212.14 184.32C212.13 183.1 213.01 182.43 214.36 182.29C215.78 182.15 216.87 182.68 217 183.96L216.98 183.97ZM216.2 184.76L215.21 185.02C213.79 185.4 212.81 185.62 212.9 186.46C212.96 187.01 213.46 187.28 214.34 187.19C215.46 187.08 216.37 186.09 216.2 184.77V184.76Z" fill="#192548"/>
<path d="M218.4 182L219.12 181.93L219.41 183.34H219.42C219.68 182.06 220.7 181.58 221.98 181.61L221.94 182.44C220.61 182.37 219.4 183.25 219.56 184.86L219.79 187.16L218.92 187.25L218.39 182.01L218.4 182Z" fill="#192548"/>
<path d="M227.77 182.51H227.78L227.38 178.53L228.25 178.44L229.04 186.21L228.32 186.28L228.03 184.86H228.02C227.74 185.89 226.95 186.53 225.89 186.64C224.09 186.82 223.06 185.92 222.88 184.18C222.7 182.44 223.5 181.36 225.28 181.18C226.38 181.07 227.3 181.55 227.78 182.5L227.77 182.51ZM227.93 183.68C227.8 182.44 226.96 181.83 225.64 181.96C224.21 182.11 223.61 182.82 223.74 184.1C223.87 185.39 224.6 185.96 226.03 185.82C227.33 185.69 228.06 184.93 227.93 183.67V183.68Z" fill="#192548"/>
<path d="M198.758 179.165L171.766 181.902L171.869 182.917L198.861 180.18L198.758 179.165Z" fill="#192548"/>
<path d="M200.265 193.979L173.273 196.716L173.376 197.73L200.368 194.993L200.265 193.979Z" fill="#192548"/>
<path d="M167.67 72.6901C166.01 72.8401 164.38 72.1101 163.4 70.7701C161.25 67.8401 157.68 66.3201 154.07 66.8001L152.08 67.0701L152.77 72.2101L154.76 71.9401C156.48 71.7101 158.19 72.4401 159.22 73.8401C161.27 76.6401 164.69 78.1801 168.15 77.8601L170.73 77.6201L170.25 72.4601L167.67 72.7001V72.6901Z" fill="#89C764"/>
<path d="M139.93 355.19C138.28 355.34 136.64 354.61 135.66 353.27C133.51 350.34 129.94 348.82 126.33 349.3L124.34 349.57L125.03 354.71L127.02 354.44C128.74 354.21 130.45 354.94 131.48 356.34C133.53 359.14 136.95 360.68 140.41 360.36L142.99 360.12L142.51 354.96L139.93 355.2V355.19Z" fill="white"/>
<path d="M369.17 195.85L367.18 196.12L367.87 201.26L369.86 200.99C371.58 200.76 373.29 201.49 374.32 202.89C374.53 203.18 374.77 203.44 375 203.71V196.88C373.23 195.97 371.21 195.58 369.17 195.86V195.85Z" fill="#89C764"/>
<path d="M26.3298 31.2401C25.7198 32.7801 24.3198 33.9101 22.6798 34.1801C19.0898 34.7701 16.1198 37.2701 14.9198 40.7001L14.2598 42.5901L19.1498 44.3001L19.8098 42.4101C20.3798 40.7701 21.8098 39.5701 23.5198 39.2901C26.9398 38.7301 29.8598 36.3701 31.1398 33.1501L32.0898 30.7401L27.2698 28.8301L26.3198 31.2401H26.3298Z" fill="#89C764"/>
<path d="M317.25 293.62C315.6 293.77 313.96 293.04 312.98 291.7C310.83 288.77 307.26 287.25 303.65 287.73L301.66 288L302.35 293.14L304.34 292.87C306.06 292.64 307.77 293.37 308.8 294.77C310.85 297.57 314.27 299.11 317.73 298.79L320.31 298.55L319.83 293.39L317.25 293.63V293.62Z" fill="white"/>
<path d="M29.4401 190.06C27.7901 190.21 26.1501 189.48 25.1701 188.14C23.0201 185.21 19.4501 183.69 15.8401 184.17L13.8501 184.44L14.5401 189.58L16.5301 189.31C18.2501 189.08 19.9601 189.81 20.9901 191.21C23.0401 194.01 26.4601 195.55 29.9201 195.23L32.5001 194.99L32.0201 189.83L29.4401 190.07V190.06Z" fill="#89C764"/>
<path d="M373.08 39.8299L371.09 40.0999L371.78 45.2399L373.77 44.9699C374.17 44.9199 374.56 44.9199 374.95 44.9699V39.7899C374.33 39.7599 373.71 39.7599 373.09 39.8399L373.08 39.8299Z" fill="#89C764"/>
<path d="M223.16 45.69C223.94 42.14 222.73 38.45 219.99 36.06L218.48 34.74L215.08 38.64L216.59 39.96C217.9 41.1 218.48 42.87 218.11 44.57C217.36 47.96 218.46 51.54 220.99 53.93L222.87 55.71L226.43 51.95L224.55 50.17C223.34 49.03 222.82 47.31 223.17 45.69H223.16Z" fill="#89C764"/>
<path d="M34.9098 332.83C35.6898 329.28 34.4798 325.59 31.7398 323.2L30.2298 321.88L26.8198 325.78L28.3298 327.1C29.6398 328.24 30.2198 330.01 29.8498 331.71C29.0998 335.1 30.1998 338.68 32.7298 341.07L34.6098 342.85L38.1698 339.09L36.2898 337.31C35.0798 336.17 34.5598 334.45 34.9098 332.83Z" fill="#89C764"/>
<path d="M294.83 1.70001C296.14 2.84001 296.72 4.61001 296.35 6.31001C295.6 9.70001 296.7 13.28 299.23 15.67L301.11 17.45L304.67 13.69L302.79 11.91C301.58 10.77 301.06 9.05001 301.41 7.43001C301.98 4.84001 301.48 2.19001 300.11 0.0100098H293.65L293.32 0.39001L294.83 1.71001V1.70001Z" fill="white"/>
<path d="M129.41 1.70001C130.72 2.84001 131.3 4.61001 130.93 6.31001C130.18 9.70001 131.28 13.28 133.81 15.67L135.69 17.45L139.25 13.69L137.37 11.91C136.16 10.77 135.64 9.05001 135.99 7.43001C136.56 4.84001 136.06 2.19001 134.69 0.0100098H128.23L127.9 0.39001L129.41 1.71001V1.70001Z" fill="white"/>
<path d="M246.16 330.33C246.94 326.78 245.73 323.09 242.99 320.7L241.48 319.38L238.07 323.28L239.58 324.6C240.89 325.74 241.47 327.51 241.1 329.21C240.35 332.6 241.45 336.18 243.98 338.57L245.86 340.35L249.42 336.59L247.54 334.81C246.33 333.67 245.81 331.95 246.16 330.33Z" fill="#89C764"/>
<path d="M72.6299 65.51C75.7199 63.59 77.5 60.14 77.29 56.51L77.18 54.51L72.01 54.81L72.12 56.81C72.22 58.55 71.36 60.2 69.89 61.12C66.95 62.95 65.15 66.25 65.21 69.72L65.25 72.31L70.43 72.22L70.39 69.63C70.36 67.97 71.2199 66.39 72.6299 65.51Z" fill="#89C764"/>
<path d="M300.36 373.43C303.45 371.51 305.23 368.06 305.02 364.43L304.91 362.43L299.74 362.73L299.85 364.73C299.95 366.47 299.09 368.12 297.62 369.04C295.44 370.4 293.89 372.57 293.26 375.01H298.82C299.2 374.38 299.72 373.83 300.36 373.44V373.43Z" fill="#89C764"/>
<path d="M322.63 90.2301C322.6 88.5701 323.46 86.9901 324.87 86.1101C327.96 84.1901 329.74 80.7401 329.53 77.1101L329.42 75.1101L324.25 75.4101L324.36 77.4101C324.46 79.1501 323.6 80.8001 322.13 81.7201C319.19 83.5501 317.39 86.8501 317.45 90.3201L317.49 92.9101L322.67 92.8201L322.63 90.2301Z" fill="white"/>
<path d="M80.26 142.53C80.11 144.26 79.03 145.78 77.44 146.48C74.27 147.88 72.02 150.88 71.59 154.33L71.27 156.9L76.41 157.55L76.73 154.98C76.94 153.33 78.01 151.89 79.53 151.22C82.86 149.76 85.12 146.6 85.43 142.97L85.6 140.97L80.44 140.53L80.27 142.53H80.26Z" fill="white"/>
<path d="M105.22 259.23C104.47 260.71 102.98 261.71 101.32 261.83C97.6899 262.09 94.5099 264.31 92.9999 267.62L92.1699 269.45L96.8799 271.6L97.7099 269.77C98.4299 268.19 99.9599 267.13 101.69 267C105.15 266.75 108.27 264.67 109.84 261.57L111.01 259.26L106.39 256.92L105.22 259.23Z" fill="#89C764"/>
</g>
<defs>
<clipPath id="clip0_8503_16478">
<rect width="375" height="375" fill="white"/>
</clipPath>
</defs>
</svg>
