<svg width="375" height="375" viewBox="0 0 375 375" fill="none" xmlns="http://www.w3.org/2000/svg">
<g clip-path="url(#clip0_8503_14428)">
<path d="M289.55 215.33L259.27 308.35L375 346.01V243.14L289.55 215.33Z" fill="#192548"/>
<path d="M258.66 308.66L289.23 214.71L375 242.62V242.11L289.38 214.24L288.92 214.09L258.19 308.51L258.04 308.98L375 347.04V346.53L258.66 308.66Z" fill="#89C764"/>
<path d="M258.66 308.66L375 346.53V346.01L259.27 308.35L289.55 215.33L375 243.14V242.62L289.23 214.71L258.66 308.66Z" fill="#89C764"/>
<path d="M290.6 315.58C285.79 317.73 278.4 319.37 271.93 320.51C264.01 321.9 255.93 322.04 247.96 320.97L245.35 320.62L258.66 163.8L300.25 183.09" fill="#192548"/>
<path d="M96.0299 156.46C103.281 156.46 109.16 151.164 109.16 144.63C109.16 138.097 103.281 132.8 96.0299 132.8C88.7784 132.8 82.8999 138.097 82.8999 144.63C82.8999 151.164 88.7784 156.46 96.0299 156.46Z" fill="#192548"/>
<path d="M96.0302 156.95C88.5202 156.95 82.4102 151.42 82.4102 144.63C82.4102 137.84 88.5202 132.31 96.0302 132.31C103.54 132.31 109.65 137.84 109.65 144.63C109.65 151.42 103.54 156.95 96.0302 156.95ZM96.0302 133.29C89.0602 133.29 83.3902 138.38 83.3902 144.63C83.3902 150.88 89.0602 155.97 96.0302 155.97C103 155.97 108.67 150.88 108.67 144.63C108.67 138.38 103 133.29 96.0302 133.29Z" fill="#89C764"/>
<path d="M118.7 24.0701H222.43C233.65 24.0701 242.77 33.1801 242.77 44.4101V308.49C242.77 319.71 233.66 328.83 222.43 328.83H118.7C107.14 328.83 97.7598 319.45 97.7598 307.89V45.0101C97.7598 33.4501 107.14 24.0701 118.7 24.0701Z" fill="#16254C"/>
<path d="M234.64 24.0701H134.39C120.997 24.0701 110.14 34.9272 110.14 48.3201V304.58C110.14 317.973 120.997 328.83 134.39 328.83H234.64C248.033 328.83 258.89 317.973 258.89 304.58V48.3201C258.89 34.9272 248.033 24.0701 234.64 24.0701Z" fill="#3472AF"/>
<path d="M134.38 320.62C125.54 320.62 118.34 313.43 118.34 304.58V48.31C118.34 39.47 125.53 32.27 134.38 32.27H163.2V33.09C163.2 36.78 166.2 39.78 169.89 39.78H203.99C207.68 39.78 210.68 36.78 210.68 33.09V32.27H234.63C243.47 32.27 250.67 39.46 250.67 48.31V304.58C250.67 313.42 243.48 320.62 234.63 320.62H134.37H134.38Z" fill="white"/>
<path d="M234.65 321.11H134.39C125.28 321.11 117.86 313.7 117.86 304.58V48.31C117.86 39.2 125.27 31.78 134.39 31.78H163.7V33.09C163.7 36.51 166.48 39.29 169.9 39.29H204C207.42 39.29 210.2 36.51 210.2 33.09V31.78H234.64C243.75 31.78 251.17 39.2 251.17 48.31V304.58C251.17 313.69 243.76 321.11 234.64 321.11H234.65ZM134.38 32.77C125.81 32.77 118.83 39.74 118.83 48.32V304.59C118.83 313.16 125.8 320.14 134.38 320.14H234.64C243.21 320.14 250.19 313.17 250.19 304.59V48.32C250.19 39.75 243.21 32.77 234.64 32.77H211.18V33.1C211.18 37.06 207.96 40.28 204 40.28H169.9C165.94 40.28 162.72 37.06 162.72 33.1V32.77H134.39H134.38Z" fill="#393B56"/>
<path d="M201.93 31.79H173.07V32.77H201.93V31.79Z" fill="#393B56"/>
<mask id="mask0_8503_14428" style="mask-type:luminance" maskUnits="userSpaceOnUse" x="172" y="259" width="24" height="14">
<path d="M182.43 269.42H179.25V272.6H182.43V269.42ZM195.14 272.6V259.89H191.96V263.07H188.78V259.89H185.6V263.07H176.07V259.89H172.89V272.6H176.07V266.24H185.6V272.6H188.78V266.24H191.96V272.6H195.14Z" fill="white"/>
</mask>
<g mask="url(#mask0_8503_14428)">
<path d="M236.11 180.8H114.71V288.6H236.11V180.8Z" fill="#E36054"/>
<path d="M236.11 180.8H114.71V288.6H236.11V180.8Z" fill="#E36054"/>
</g>
<mask id="mask1_8503_14428" style="mask-type:luminance" maskUnits="userSpaceOnUse" x="172" y="275" width="24" height="4">
<path d="M172.9 278.96H176.08V275.78H172.9V278.96ZM179.26 278.96H182.44V275.78H179.26V278.96ZM185.61 278.96H188.79V275.78H185.61V278.96ZM195.14 275.78H191.96V278.96H195.14V275.78Z" fill="white"/>
</mask>
<g mask="url(#mask1_8503_14428)">
<path d="M236.11 180.8H114.71V288.6H236.11V180.8Z" fill="#E36054"/>
<path d="M236.11 180.8H114.71V288.6H236.11V180.8Z" fill="#E36054"/>
<path d="M236.11 180.8H114.71V288.6H236.11V180.8Z" fill="#E36054"/>
<path d="M236.11 180.8H114.71V288.6H236.11V180.8Z" fill="#E36054"/>
</g>
<path d="M167.47 86.3899C167.47 84.0599 166.26 82.5899 164.48 82.5899C162.7 82.5899 161.47 84.0799 161.47 86.3899C161.47 88.6999 162.66 90.1899 164.48 90.1899C166.3 90.1899 167.47 88.7199 167.47 86.3899ZM158.21 80.0599H161.45V80.7199L161.25 82.2899H161.6C162.28 80.9499 163.62 79.9099 165.55 79.9099C168.49 79.9099 170.74 82.3399 170.74 86.3899C170.74 90.4399 168.49 92.8699 165.55 92.8699C163.63 92.8699 162.29 91.7599 161.6 90.4899H161.25L161.45 92.1599V98.7899H158.21V80.0599Z" fill="#89C764"/>
<path d="M180.81 87.7301V87.3801C178.28 87.3801 175.55 87.4101 175.55 89.1501C175.55 90.0401 176.28 90.5701 177.52 90.5701C179.47 90.5701 180.81 89.4301 180.81 87.7401M172.33 89.4301C172.33 85.3801 177.11 85.5101 180.81 85.5101V84.5201C180.81 83.1001 180.03 82.4201 178.56 82.4201C177.09 82.4201 176.18 83.0801 176.03 84.8001L172.92 84.6501C173.12 81.1601 175.6 79.8201 178.56 79.8201C181.7 79.8201 184.03 81.1601 184.03 84.7801V92.7301H181.5L181.25 90.6001H180.97C180.31 92.1701 178.82 92.9801 176.64 92.9801C174.08 92.9801 172.34 91.6401 172.34 89.4401" fill="#89C764"/>
<path d="M194.37 87.7301V87.3801C191.84 87.3801 189.11 87.4101 189.11 89.1501C189.11 90.0401 189.84 90.5701 191.08 90.5701C193.03 90.5701 194.37 89.4301 194.37 87.7401M185.89 89.4301C185.89 85.3801 190.67 85.5101 194.37 85.5101V84.5201C194.37 83.1001 193.59 82.4201 192.12 82.4201C190.65 82.4201 189.74 83.0801 189.59 84.8001L186.48 84.6501C186.68 81.1601 189.16 79.8201 192.12 79.8201C195.26 79.8201 197.59 81.1601 197.59 84.7801V92.7301H195.06L194.81 90.6001H194.53C193.87 92.1701 192.38 92.9801 190.2 92.9801C187.64 92.9801 185.9 91.6401 185.9 89.4401" fill="#89C764"/>
<path d="M199.51 89.0001L202.57 88.7001C202.85 89.8901 203.68 90.4701 205.33 90.4701C206.85 90.4701 207.73 89.9401 207.73 88.9801C207.73 88.3701 207.38 87.8701 205.96 87.6901L203.73 87.4401C201.68 87.2101 199.66 86.3501 199.66 84.0001C199.66 81.4201 201.74 79.8201 204.92 79.8201C208.1 79.8201 209.98 81.3401 210.16 83.9701L207.33 84.1701C207.2 82.9801 206.44 82.3201 204.9 82.3201C203.36 82.3201 202.7 82.9801 202.7 83.8901C202.7 84.5501 203.18 84.9301 204.32 85.0801L206.62 85.3301C208.9 85.6301 210.82 86.4701 210.82 88.8701C210.82 91.4301 208.95 92.9701 205.33 92.9701C201.71 92.9701 199.86 91.5301 199.51 89.0001Z" fill="#89C764"/>
<path d="M219.09 68.47H149.94V71.15H219.09V68.47Z" fill="#89C764"/>
<path d="M219.09 103.64H149.94V106.32H219.09V103.64Z" fill="#89C764"/>
<path d="M184.52 206.27C199.321 206.27 211.32 194.271 211.32 179.47C211.32 164.669 199.321 152.67 184.52 152.67C169.719 152.67 157.72 164.669 157.72 179.47C157.72 194.271 169.719 206.27 184.52 206.27Z" fill="#89C764"/>
<path d="M169.66 177.97L184.52 194.09L199.37 177.97L196.48 175.31L186.48 186.17V165.14H182.55V186.17L172.55 175.31L169.66 177.97Z" fill="white"/>
<path d="M93.216 99.8008L97.2647 101.524C107.58 105.913 112.39 117.849 108.001 128.164C103.612 138.479 91.6756 143.29 81.3606 138.901L77.3119 137.178C68.055 133.239 63.7361 122.522 67.675 113.266L69.2998 109.447C73.2387 100.19 83.9552 95.8711 93.2121 99.81L93.216 99.8008Z" fill="#192548"/>
<path d="M89.2499 141C86.4999 141 83.7599 140.45 81.1599 139.34L77.1199 137.62C72.5399 135.67 68.9799 132.03 67.1099 127.38C65.2399 122.73 65.2799 117.64 67.2299 113.06L68.8599 109.24C72.8999 99.74 83.9199 95.31 93.4099 99.35L97.4499 101.07C102.54 103.24 106.49 107.28 108.57 112.44C110.65 117.61 110.61 123.26 108.44 128.35C106.27 133.44 102.24 137.39 97.0699 139.47C94.5399 140.49 91.8899 141 89.2599 141H89.2499ZM81.5399 138.44C86.3899 140.5 91.7699 140.55 96.6999 138.56C101.62 136.58 105.47 132.81 107.54 127.96C109.61 123.11 109.65 117.73 107.66 112.8C105.68 107.88 101.91 104.03 97.0599 101.96L93.0199 100.24C84.0199 96.41 73.5799 100.62 69.7499 109.62L68.1199 113.44C66.2699 117.78 66.2299 122.6 68.0099 127.01C69.7899 131.42 73.1499 134.86 77.4999 136.71L81.5399 138.43V138.44Z" fill="#89C764"/>
<path d="M83.6844 139.505L107.645 149.7C117.96 154.09 122.771 166.026 118.382 176.341C113.993 186.656 102.056 191.467 91.7413 187.077L67.7802 176.882C58.7902 173.057 54.5982 162.655 58.4235 153.665L60.4634 148.871C64.2887 139.881 74.6904 135.689 83.6804 139.514L83.6844 139.505Z" fill="#192548"/>
<path d="M99.66 189.18C96.95 189.18 94.19 188.65 91.54 187.52L67.58 177.32C58.35 173.39 54.04 162.69 57.97 153.46L60.01 148.67C63.94 139.44 74.64 135.13 83.87 139.06L107.83 149.26C112.92 151.43 116.87 155.47 118.95 160.63C121.03 165.8 120.99 171.45 118.82 176.54C115.46 184.44 107.75 189.19 99.66 189.19V189.18ZM76.76 138.58C70.06 138.58 63.68 142.51 60.9 149.05L58.86 153.84C55.14 162.57 59.22 172.7 67.96 176.41L91.92 186.61C101.97 190.89 113.63 186.19 117.91 176.14C119.97 171.29 120.02 165.91 118.03 160.98C116.04 156.05 112.28 152.21 107.43 150.14L83.47 139.94C81.28 139.01 79 138.57 76.75 138.57L76.76 138.58Z" fill="#89C764"/>
<path d="M84.8811 183.96L105.677 192.809C115.992 197.198 120.802 209.134 116.413 219.449C112.024 229.764 100.088 234.575 89.7726 230.186L68.9769 221.337C59.3336 217.234 54.8258 206.067 58.933 196.415L59.9588 194.004C64.0621 184.361 75.2285 179.853 84.8811 183.96Z" fill="#192548"/>
<path d="M97.6801 232.29C94.9701 232.29 92.2101 231.76 89.5601 230.63L68.7701 221.78C64.0001 219.75 60.3001 215.97 58.3501 211.12C56.4001 206.28 56.4401 200.99 58.4701 196.21L59.4901 193.8C63.7001 183.91 75.1601 179.29 85.0501 183.5L105.84 192.35C110.93 194.52 114.88 198.56 116.96 203.72C119.04 208.89 119 214.54 116.83 219.63C113.47 227.53 105.76 232.28 97.6701 232.28L97.6801 232.29ZM89.9501 229.73C100 234.01 111.66 229.31 115.94 219.26C118 214.41 118.05 209.03 116.06 204.11C114.07 199.19 110.31 195.34 105.46 193.27L84.6701 184.42C75.2801 180.42 64.3901 184.81 60.3901 194.2L59.3701 196.61C57.4401 201.14 57.4001 206.17 59.2501 210.77C61.1001 215.37 64.6201 218.96 69.1501 220.89L89.9401 229.74L89.9501 229.73Z" fill="#89C764"/>
<path d="M104.066 236.079L86.086 228.429C75.7646 224.037 63.8381 228.842 59.4474 239.16C55.0566 249.479 59.8644 261.405 70.1858 265.796L88.1658 273.447C98.4872 277.839 110.414 273.034 114.804 262.715C119.195 252.396 114.387 240.471 104.066 236.079Z" fill="#192548"/>
<path d="M96.0802 275.55C93.3702 275.55 90.6102 275.02 87.9602 273.89L69.9702 266.24C64.8802 264.07 60.9302 260.03 58.8502 254.87C56.7702 249.7 56.8102 244.05 58.9802 238.96C61.1502 233.87 65.1902 229.92 70.3502 227.84C75.5202 225.76 81.1702 225.8 86.2602 227.97L104.25 235.62C109.34 237.79 113.29 241.83 115.37 246.99C117.45 252.16 117.41 257.81 115.24 262.9C111.88 270.8 104.17 275.55 96.0802 275.55ZM78.1702 227.29C75.6602 227.29 73.1402 227.77 70.7202 228.75C65.8002 230.73 61.9502 234.5 59.8802 239.35C57.8202 244.2 57.7702 249.58 59.7602 254.5C61.7402 259.42 65.5102 263.27 70.3602 265.34L88.3502 272.99C98.4002 277.27 110.06 272.57 114.34 262.52C116.4 257.67 116.45 252.29 114.46 247.36C112.48 242.44 108.71 238.59 103.86 236.52L85.8702 228.87C83.4002 227.82 80.7802 227.29 78.1602 227.29H78.1702Z" fill="#89C764"/>
<path d="M281.27 198.11V169.41L267.69 161.07C254.7 153.1 250.91 135.95 259.31 123.24C263.03 117.61 270.53 115.93 276.3 119.42L310.01 139.83C317.98 144.66 322.85 153.3 322.85 162.62V210.09C322.85 210.09 322.89 216.12 322.85 225.8C322.81 235.98 319.58 271.41 297.22 280.47" fill="#192548"/>
<path d="M297.41 280.92L297.04 280.01C321.89 269.94 322.36 227.59 322.36 225.79C322.4 216.22 322.36 210.14 322.36 210.08V162.61C322.36 153.52 317.53 144.95 309.76 140.24L276.05 119.83C270.48 116.46 263.31 118.07 259.72 123.5C255.73 129.54 254.39 136.75 255.96 143.82C257.52 150.88 261.78 156.86 267.95 160.65L281.77 169.13V198.11H280.79V169.68L267.44 161.48C261.05 157.55 256.63 151.35 255.01 144.03C253.39 136.71 254.77 129.22 258.91 122.96C262.79 117.09 270.55 115.34 276.57 118.99L310.28 139.4C318.35 144.28 323.36 153.18 323.36 162.61V210.08C323.36 210.14 323.4 216.22 323.36 225.8C323.36 227.62 322.88 270.61 297.42 280.92H297.41Z" fill="#89C764"/>
<path d="M301.872 302.516L301.568 303.448L317.828 308.744L318.131 307.812L301.872 302.516Z" fill="#89C764"/>
<path d="M92.08 181.07C90.86 181.07 89.65 180.83 88.5 180.34L88.88 179.44C90.89 180.3 93.12 180.31 95.16 179.49C97.2 178.67 98.8 177.11 99.65 175.1L104.44 163.85C105.3 161.84 105.31 159.61 104.49 157.57C103.67 155.53 102.11 153.93 100.1 153.08L100.48 152.18C105.14 154.16 107.32 159.58 105.34 164.24L100.55 175.49C99.59 177.74 97.81 179.49 95.52 180.41C94.4 180.86 93.23 181.09 92.07 181.09L92.08 181.07Z" fill="#89C764"/>
<path d="M91.0702 104.66C94.2602 106.02 95.7602 109.73 94.4002 112.92L87.7302 128.59C86.3702 131.78 82.6602 133.28 79.4702 131.92" fill="#192548"/>
<path d="M81.9298 132.91C81.0398 132.91 80.1498 132.74 79.2798 132.37L79.6598 131.47C81.0798 132.07 82.6598 132.09 84.0998 131.51C85.5398 130.93 86.6698 129.83 87.2798 128.4L93.9498 112.73C95.1998 109.78 93.8298 106.36 90.8798 105.11L91.2598 104.21C94.6998 105.68 96.3098 109.67 94.8498 113.12L88.1798 128.79C87.0798 131.37 84.5698 132.92 81.9198 132.92L81.9298 132.91Z" fill="#89C764"/>
<path d="M92.08 225.08C90.86 225.08 89.65 224.84 88.5 224.35L88.88 223.45C90.89 224.31 93.12 224.32 95.16 223.5C97.2 222.68 98.8 221.12 99.65 219.11L104.44 207.86C105.3 205.85 105.31 203.62 104.49 201.58C103.67 199.54 102.11 197.94 100.1 197.09L100.48 196.19C105.14 198.17 107.32 203.59 105.34 208.25L100.55 219.5C99.59 221.75 97.81 223.5 95.52 224.42C94.4 224.87 93.23 225.1 92.07 225.1L92.08 225.08Z" fill="#89C764"/>
<path d="M92.08 269.09C90.86 269.09 89.65 268.84 88.5 268.36L88.88 267.46C90.89 268.31 93.12 268.33 95.16 267.51C97.2 266.69 98.8 265.13 99.65 263.12L104.44 251.87C105.3 249.86 105.31 247.63 104.49 245.59C103.67 243.55 102.11 241.95 100.1 241.1L100.48 240.2C105.14 242.18 107.32 247.6 105.34 252.26L100.55 263.51C99.59 265.76 97.81 267.51 95.52 268.43C94.4 268.88 93.23 269.11 92.07 269.11L92.08 269.09Z" fill="#89C764"/>
<path d="M285.58 139.28C283.01 139.28 280.51 138.03 279 135.83L275.65 130.95C273.22 127.42 273.13 122.79 275.41 119.17L276.24 119.69C274.17 122.98 274.26 127.18 276.46 130.39L279.81 135.27C281.58 137.84 284.87 138.93 287.82 137.92L288.14 138.85C287.3 139.14 286.43 139.28 285.58 139.28Z" fill="#89C764"/>
<path d="M290.6 315.58C285.79 317.73 278.4 319.37 271.93 320.51C264.01 321.9 257.83 313.52 258.2 310.33C258.2 310.33 258.89 307.53 258.89 304.58C258.89 269.38 258.65 163.8 258.65 163.8L300.24 183.09" fill="#192548"/>
<path d="M340.62 269.6H319.58V270.58H340.62V269.6Z" fill="#A7AEB7"/>
<path d="M307.8 269.6H297V270.58H307.8V269.6Z" fill="#A7AEB7"/>
<path d="M293 269.6H246.08V270.58H293V269.6Z" fill="#A7AEB7"/>
<path d="M232.9 269.6H215.05V270.58H232.9V269.6Z" fill="white"/>
<path d="M254.581 238.059L217.553 253.838L217.937 254.74L254.965 238.961L254.581 238.059Z" fill="white"/>
<path d="M325.192 170.624L266.138 211.99L266.7 212.792L325.754 171.427L325.192 170.624Z" fill="#A7AEB7"/>
<path d="M259.945 216.324L245.8 226.232L246.362 227.035L260.507 217.126L259.945 216.324Z" fill="white"/>
<path d="M241.706 229.117L222.709 242.418L223.272 243.221L242.268 229.92L241.706 229.117Z" fill="white"/>
<path d="M256.364 351.46L255.624 352.101L270.683 369.486L271.423 368.844L256.364 351.46Z" fill="#A7AEB7"/>
<path d="M220.807 310.413L220.066 311.055L248.679 344.085L249.419 343.444L220.807 310.413Z" fill="#A7AEB7"/>
<path d="M208.103 295.757L207.362 296.398L216.672 307.147L217.413 306.505L208.103 295.757Z" fill="white"/>
<path d="M218.865 358.368L217.953 358.727L221.911 368.776L222.823 368.416L218.865 358.368Z" fill="#A7AEB7"/>
<path d="M206.64 327.315L205.729 327.674L215.554 352.619L216.466 352.26L206.64 327.315Z" fill="#A7AEB7"/>
<path d="M200.486 311.761L199.574 312.12L203.547 322.206L204.459 321.846L200.486 311.761Z" fill="white"/>
<path d="M149.992 339.086L134.648 374.44L135.547 374.831L150.891 339.476L149.992 339.086Z" fill="#A7AEB7"/>
<path d="M164.428 305.75L159.802 316.409L160.701 316.8L165.327 306.14L164.428 305.75Z" fill="white"/>
<path d="M168.7 295.864L166.399 301.166L167.298 301.556L169.599 296.254L168.7 295.864Z" fill="white"/>
<path d="M114.929 327.474L86.0122 355.644L86.696 356.346L115.613 328.176L114.929 327.474Z" fill="#A7AEB7"/>
<path d="M134.378 308.499L119.035 323.446L119.719 324.148L135.062 309.201L134.378 308.499Z" fill="#A7AEB7"/>
<path d="M118.212 299.457L109.238 303.663L109.654 304.55L118.628 300.345L118.212 299.457Z" fill="#A7AEB7"/>
<path d="M147.518 285.697L122.668 297.359L123.085 298.246L147.935 286.584L147.518 285.697Z" fill="white"/>
<path d="M17.54 291.9L0 293.96V294.95L17.65 292.87L17.54 291.9Z" fill="#A7AEB7"/>
<path d="M65.8103 286.219L25.1011 291.009L25.2156 291.982L65.9248 287.192L65.8103 286.219Z" fill="#A7AEB7"/>
<path d="M128.521 278.846L81.4956 284.379L81.6101 285.352L128.636 279.82L128.521 278.846Z" fill="#A7AEB7"/>
<path d="M116.321 252.258L116.071 253.205L134.353 258.036L134.604 257.088L116.321 252.258Z" fill="white"/>
<path d="M139.783 258.464L139.533 259.411L148.611 261.81L148.862 260.862L139.783 258.464Z" fill="white"/>
<path d="M153.301 262.026L153.051 262.973L158.446 264.399L158.696 263.451L153.301 262.026Z" fill="white"/>
<path d="M53.6021 197.179L53.1353 198.04L62.1914 202.947L62.6582 202.085L53.6021 197.179Z" fill="#A7AEB7"/>
<path d="M67.96 204.956L67.4932 205.818L80.7344 212.992L81.2013 212.13L67.96 204.956Z" fill="#A7AEB7"/>
<path d="M86.1671 214.818L85.7002 215.68L114.609 231.343L115.076 230.482L86.1671 214.818Z" fill="#A7AEB7"/>
<path d="M123.41 234.996L122.943 235.858L147.5 249.164L147.967 248.302L123.41 234.996Z" fill="white"/>
<path d="M148.174 190.342L147.289 190.763L158.38 214.09L159.265 213.669L148.174 190.342Z" fill="white"/>
<path d="M161.753 218.887L160.868 219.307L165.514 229.079L166.399 228.658L161.753 218.887Z" fill="white"/>
<path d="M168.255 232.587L167.37 233.007L172.162 243.086L173.047 242.665L168.255 232.587Z" fill="white"/>
<path d="M154.824 125.575L153.87 125.798L160.087 152.35L161.042 152.126L154.824 125.575Z" fill="white"/>
<path d="M201.615 200.214L200.555 205.59L201.517 205.78L202.576 200.403L201.615 200.214Z" fill="white"/>
<path d="M199.893 208.889L196.976 223.623L197.937 223.813L200.854 209.079L199.893 208.889Z" fill="white"/>
<path d="M195.856 229.291L193.818 239.622L194.78 239.812L196.818 229.481L195.856 229.291Z" fill="white"/>
<path d="M241.446 170.761L238.497 175.975L239.35 176.458L242.299 171.244L241.446 170.761Z" fill="white"/>
<path d="M236.454 179.559L228.897 192.92L229.75 193.402L237.307 180.041L236.454 179.559Z" fill="white"/>
<path d="M225.917 198.152L207.309 231.055L208.162 231.538L226.77 198.635L225.917 198.152Z" fill="white"/>
<path d="M314.706 340.657L314.214 341.505L331.258 351.385L331.749 350.537L314.706 340.657Z" fill="#A7AEB7"/>
<path d="M294.716 329.022L294.225 329.87L309.306 338.609L309.798 337.761L294.716 329.022Z" fill="#A7AEB7"/>
<path d="M348.173 209.533L327.56 216.283L327.865 217.214L348.478 210.465L348.173 209.533Z" fill="white"/>
<path d="M58.0852 145.839L57.4097 146.549L79.2579 167.34L79.9335 166.63L58.0852 145.839Z" fill="#A7AEB7"/>
<path d="M13.8466 252.245L13.7808 253.223L36.4994 254.752L36.5652 253.774L13.8466 252.245Z" fill="#A7AEB7"/>
<path d="M35.04 344.5L0 362.47V363.58L35.48 345.37L35.04 344.5Z" fill="#A7AEB7"/>
<path d="M27.04 164.73L0 146.62V147.8L26.5 165.55L27.04 164.73Z" fill="#A7AEB7"/>
<path d="M13.8253 213.423L13.519 214.354L48.02 225.704L48.3263 224.773L13.8253 213.423Z" fill="#A7AEB7"/>
<path d="M340.24 56.7954L321.32 82.3174L322.108 82.901L341.027 57.379L340.24 56.7954Z" fill="#A7AEB7"/>
<path d="M315.405 90.2677L295.376 117.295L296.164 117.879L316.193 90.8511L315.405 90.2677Z" fill="#A7AEB7"/>
<path d="M276.527 142.779L253.302 174.109L254.089 174.693L277.314 143.363L276.527 142.779Z" fill="#A7AEB7"/>
<path d="M74.7993 5.66426L73.8926 6.03613L83.4397 29.3144L84.3464 28.9425L74.7993 5.66426Z" fill="#A7AEB7"/>
<path d="M50.9648 59.8264L50.1553 60.3787L60.141 75.0171L60.9505 74.4649L50.9648 59.8264Z" fill="#A7AEB7"/>
<path d="M298.42 9.99843L290.181 23.8191L291.023 24.3209L299.262 10.5002L298.42 9.99843Z" fill="#A7AEB7"/>
<path d="M250.68 269.72H246.08V270.46H250.68V269.72Z" fill="#A7AEB7"/>
<path d="M232.9 269.72H215.05V270.46H232.9V269.72Z" fill="#A7AEB7"/>
<path d="M250.537 239.906L217.605 253.946L217.895 254.627L250.827 240.587L250.537 239.906Z" fill="#A7AEB7"/>
<path d="M250.478 223.109L245.874 226.331L246.298 226.938L250.902 223.715L250.478 223.109Z" fill="#A7AEB7"/>
<path d="M241.786 229.204L222.787 242.502L223.211 243.108L242.21 229.81L241.786 229.204Z" fill="#A7AEB7"/>
<path d="M220.721 310.479L220.162 310.963L228.726 320.85L229.285 320.365L220.721 310.479Z" fill="#A7AEB7"/>
<path d="M208.012 295.845L207.453 296.33L216.763 307.078L217.322 306.594L208.012 295.845Z" fill="#A7AEB7"/>
<path d="M200.395 311.79L199.707 312.061L203.126 320.742L203.815 320.47L200.395 311.79Z" fill="#A7AEB7"/>
<path d="M164.538 305.798L159.912 316.457L160.591 316.752L165.217 306.092L164.538 305.798Z" fill="#A7AEB7"/>
<path d="M168.82 295.916L166.519 301.218L167.197 301.513L169.498 296.21L168.82 295.916Z" fill="#A7AEB7"/>
<path d="M134.466 308.604L125.191 317.642L125.708 318.172L134.982 309.134L134.466 308.604Z" fill="#A7AEB7"/>
<path d="M147.583 285.805L122.726 297.45L123.039 298.12L147.897 286.476L147.583 285.805Z" fill="#A7AEB7"/>
<path d="M128.57 278.931L118.321 280.143L118.408 280.877L128.657 279.666L128.57 278.931Z" fill="#A7AEB7"/>
<path d="M118.44 252.937L118.251 253.653L134.397 257.919L134.586 257.203L118.44 252.937Z" fill="#A7AEB7"/>
<path d="M139.755 258.57L139.566 259.285L148.644 261.684L148.833 260.969L139.755 258.57Z" fill="#A7AEB7"/>
<path d="M153.27 262.142L153.081 262.857L158.476 264.283L158.665 263.567L153.27 262.142Z" fill="#A7AEB7"/>
<path d="M123.353 235.102L123 235.752L147.557 249.058L147.91 248.407L123.353 235.102Z" fill="#A7AEB7"/>
<path d="M148.074 190.389L147.406 190.707L158.497 214.034L159.166 213.717L148.074 190.389Z" fill="#A7AEB7"/>
<path d="M161.644 218.938L160.976 219.256L165.622 229.028L166.291 228.71L161.644 218.938Z" fill="#A7AEB7"/>
<path d="M168.147 232.638L167.479 232.956L172.271 243.035L172.939 242.717L168.147 232.638Z" fill="#A7AEB7"/>
<path d="M197.82 223.79L197.09 223.64L200.01 208.9L200.73 209.05L197.82 223.79Z" fill="#A7AEB7"/>
<path d="M194.65 239.77L193.93 239.63L195.97 229.3L196.7 229.44L194.65 239.77Z" fill="#A7AEB7"/>
<path d="M241.553 170.828L238.603 176.041L239.247 176.405L242.197 171.192L241.553 170.828Z" fill="#A7AEB7"/>
<path d="M236.568 179.627L229.01 192.987L229.654 193.351L237.213 179.991L236.568 179.627Z" fill="#A7AEB7"/>
<path d="M226.027 198.219L207.414 231.119L208.058 231.483L226.671 198.584L226.027 198.219Z" fill="#A7AEB7"/>
<path d="M158.575 117.549L157.843 117.657L159.547 129.181L160.279 129.073L158.575 117.549Z" fill="#A7AEB7"/>
<path d="M207.684 129.044L204.616 148.463L205.347 148.579L208.415 129.16L207.684 129.044Z" fill="#A7AEB7"/>
</g>
<defs>
<clipPath id="clip0_8503_14428">
<rect width="375" height="375" fill="white"/>
</clipPath>
</defs>
</svg>
