<svg width="375" height="440" viewBox="0 0 375 440" fill="none" xmlns="http://www.w3.org/2000/svg">
<path d="M375 0H0V440H375V0Z" fill="#16254C"/>
<path d="M127.54 340.61H0V339.61H127.54C133.03 339.61 138.52 338.99 143.87 337.75L152.55 335.75L152.77 336.72L144.09 338.72C138.67 339.97 133.1 340.6 127.53 340.6L127.54 340.61Z" fill="#19A3DD"/>
<path d="M240.31 336.74H159.12V229.41H240.31V336.74ZM160.12 335.74H239.31V230.41H160.12V335.74Z" fill="#19A3DD"/>
<path d="M235.42 336.74H164.02V233.96H235.42V336.74ZM165.02 335.74H234.42V234.96H165.02V335.74Z" fill="#19A3DD"/>
<path d="M200.22 234.46H199.22V336.24H200.22V234.46Z" fill="#19A3DD"/>
<path d="M231.06 288.08H203.96V238.64H231.06V288.08ZM204.96 287.08H230.06V239.64H204.96V287.08Z" fill="#19A3DD"/>
<path d="M169.38 287.08V239.63H194.48V283.31L195.48 283.17V238.63H168.38V288.08H192.14V287.08H169.38Z" fill="#19A3DD"/>
<path d="M194.48 283.81V283.31L192.14 283.64V287.08H192.64V284.07L194.48 283.81Z" fill="#19A3DD"/>
<path d="M195.48 283.17V283.67L199.72 283.07V295.82L192.64 294.81V288.08H192.14V295.25L200.22 296.39V282.5L195.48 283.17Z" fill="#19A3DD"/>
<path d="M192.64 287.08H192.14V288.08H192.64V287.08Z" fill="#19A3DD"/>
<path d="M194.48 283.81L195.48 283.67V283.17L194.48 283.31V283.81Z" fill="#19A3DD"/>
<path d="M199.22 283.65V295.24L193.14 294.38V288.08H192.64V294.81L199.72 295.82V283.07L195.48 283.67V284.18L199.22 283.65Z" fill="#19A3DD"/>
<path d="M193.14 284.51L194.48 284.32V283.81L192.64 284.07V287.08H193.14V284.51Z" fill="#19A3DD"/>
<path d="M194.48 284.32L195.48 284.18V283.67L194.48 283.81V284.32Z" fill="#19A3DD"/>
<path d="M193.14 287.08H192.64V288.08H193.14V287.08Z" fill="#19A3DD"/>
<path d="M155.15 288.08H141.76V261.17H155.15V288.08ZM142.76 287.08H154.15V262.17H142.76V287.08Z" fill="#19A3DD"/>
<path d="M147.41 265.05H144.41V266.05H147.41V265.05Z" fill="#19A3DD"/>
<path d="M147.41 269.59H144.41V270.59H147.41V269.59Z" fill="#19A3DD"/>
<path d="M147.41 274.12H144.41V275.12H147.41V274.12Z" fill="#19A3DD"/>
<path d="M147.41 278.66H144.41V279.66H147.41V278.66Z" fill="#19A3DD"/>
<path d="M147.41 283.19H144.41V284.19H147.41V283.19Z" fill="#19A3DD"/>
<path d="M152.51 265.05H149.51V266.05H152.51V265.05Z" fill="#19A3DD"/>
<path d="M152.51 269.59H149.51V270.59H152.51V269.59Z" fill="#19A3DD"/>
<path d="M152.51 274.12H149.51V275.12H152.51V274.12Z" fill="#19A3DD"/>
<path d="M152.51 278.66H149.51V279.66H152.51V278.66Z" fill="#19A3DD"/>
<path d="M152.51 283.19H149.51V284.19H152.51V283.19Z" fill="#19A3DD"/>
<path d="M260.99 215.94H84.03V205.03H260.99V215.94ZM85.03 214.94H259.99V206.03H85.03V214.94Z" fill="#19A3DD"/>
<path d="M302.49 215.94H259.98V205.03H302.49V215.94ZM260.98 214.94H301.49V206.03H260.98V214.94Z" fill="#19A3DD"/>
<path d="M174.03 223.85H168.82C164.19 223.85 160.42 220.08 160.42 215.45V214.95H182.43V215.45C182.43 220.08 178.66 223.85 174.03 223.85ZM161.43 215.95C161.69 219.8 164.9 222.85 168.82 222.85H174.03C177.94 222.85 181.16 219.8 181.42 215.95H161.44H161.43Z" fill="#19A3DD"/>
<path d="M98.3 147.03H11.64V73.3H98.3V147.03ZM12.64 146.03H97.3V74.3H12.64V146.03Z" fill="#19A3DD"/>
<path d="M98.3 302.79H11.64V229.06H98.3V302.79ZM12.64 301.79H97.3V230.06H12.64V301.79Z" fill="#19A3DD"/>
<path d="M199.72 78.85H162.04V141.47H199.72V78.85Z" fill="#3472AF"/>
<path d="M157.57 83.98H156.57V136.34H157.57V83.98Z" fill="#19A3DD"/>
<path d="M243.23 147.03H156.57V141.47H157.57V146.03H242.23V74.3H157.57V78.85H156.57V73.3H243.23V147.03Z" fill="#19A3DD"/>
<path d="M238.26 141.97H161.55V78.35H238.26V141.97ZM162.55 140.97H237.26V79.35H162.55V140.97Z" fill="#19A3DD"/>
<path d="M162.54 141.97H134.59V78.35H162.54V141.97ZM135.59 140.97H161.54V79.35H135.59V140.97Z" fill="#19A3DD"/>
<path d="M200.22 78.85H199.22V141.47H200.22V78.85Z" fill="#19A3DD"/>
<path d="M157.57 136.84H139.06V83.48H157.57V136.84ZM140.06 135.84H156.57V84.48H140.06V135.84Z" fill="#19A3DD"/>
<path d="M232.83 83.98H204.42V136.34H232.83V83.98Z" fill="#3472AF"/>
<path d="M233.33 136.84H203.92V83.48H233.33V136.84ZM204.92 135.84H232.33V84.48H204.92V135.84Z" fill="#19A3DD"/>
<path d="M340.8 136.84H311.39V83.48H340.8V136.84ZM312.39 135.84H339.8V84.48H312.39V135.84Z" fill="#19A3DD"/>
<path d="M135.59 141.97H131.15V78.35H135.59V141.97ZM132.15 140.97H134.59V79.35H132.15V140.97Z" fill="#19A3DD"/>
<path d="M210.993 88.4155L210.039 88.7169L218.004 113.918L218.958 113.617L210.993 88.4155Z" fill="#19A3DD"/>
<path d="M147.162 110.983L146.209 111.284L154.174 136.485L155.127 136.184L147.162 110.983Z" fill="#19A3DD"/>
<path d="M219.102 96.0271L218.148 96.3285L226.114 121.53L227.067 121.228L219.102 96.0271Z" fill="#19A3DD"/>
<path d="M149.592 94.7389L148.639 95.0403L156.604 120.241L157.558 119.94L149.592 94.7389Z" fill="#19A3DD"/>
<path d="M22.2674 92.1691L21.3139 92.4705L29.2792 117.672L30.2327 117.37L22.2674 92.1691Z" fill="#19A3DD"/>
<path d="M73.0096 106.941L72.0561 107.242L80.0213 132.443L80.9748 132.142L73.0096 106.941Z" fill="#19A3DD"/>
<path d="M32.4868 103.664L31.5333 103.965L41.8161 136.499L42.7696 136.197L32.4868 103.664Z" fill="#19A3DD"/>
<path d="M71.8507 83.8236L70.8972 84.125L81.1769 116.649L82.1304 116.348L71.8507 83.8236Z" fill="#19A3DD"/>
<path d="M211.971 239.364L211.018 239.665L221.301 272.199L222.254 271.898L211.971 239.364Z" fill="#19A3DD"/>
<path d="M185.189 245.244L184.235 245.546L194.518 278.079L195.472 277.778L185.189 245.244Z" fill="#19A3DD"/>
<path d="M176.522 238.976L175.568 239.277L185.851 271.811L186.805 271.509L176.522 238.976Z" fill="#19A3DD"/>
<path d="M210.487 254.878L209.534 255.18L219.817 287.713L220.77 287.412L210.487 254.878Z" fill="#19A3DD"/>
<path d="M345.68 79.02H344.68V141.64H345.68V79.02Z" fill="#19A3DD"/>
<path d="M93.43 141.97H16.72V78.35H93.43V141.97ZM17.72 140.97H92.43V79.35H17.72V140.97Z" fill="#19A3DD"/>
<path d="M50.7 136.84H21.29V83.48H50.7V136.84ZM22.29 135.84H49.7V84.48H22.29V135.84Z" fill="#19A3DD"/>
<path d="M88.83 136.84H59.42V83.48H88.83V136.84ZM60.42 135.84H87.83V84.48H60.42V135.84Z" fill="#19A3DD"/>
<path d="M312.35 92.1642L311.397 92.4656L319.362 117.667L320.315 117.365L312.35 92.1642Z" fill="#19A3DD"/>
<path d="M362.433 106.925L361.48 107.226L369.445 132.427L370.398 132.126L362.433 106.925Z" fill="#19A3DD"/>
<path d="M322.245 103.648L321.291 103.95L331.574 136.483L332.528 136.182L322.245 103.648Z" fill="#19A3DD"/>
<path d="M361.274 83.8176L360.321 84.119L370.6 116.643L371.554 116.342L361.274 83.8176Z" fill="#19A3DD"/>
<path d="M93.33 297.65H16.62V234.03H93.33V297.65ZM17.62 296.65H92.33V235.03H17.62V296.65Z" fill="#19A3DD"/>
<path d="M50.59 292.52H21.18V239.16H50.59V292.52ZM22.18 291.52H49.59V240.16H22.18V291.52Z" fill="#19A3DD"/>
<path d="M88.73 292.52H59.32V239.16H88.73V292.52ZM60.32 291.52H87.73V240.16H60.32V291.52Z" fill="#19A3DD"/>
<path d="M55.47 234.7H54.47V297.32H55.47V234.7Z" fill="#19A3DD"/>
<path d="M22.1505 247.847L21.197 248.149L29.1623 273.35L30.1158 273.048L22.1505 247.847Z" fill="#19A3DD"/>
<path d="M72.2334 262.618L71.2799 262.919L79.2452 288.12L80.1987 287.819L72.2334 262.618Z" fill="#19A3DD"/>
<path d="M32.0452 259.341L31.0917 259.643L41.3715 292.167L42.325 291.865L32.0452 259.341Z" fill="#19A3DD"/>
<path d="M71.0744 239.501L70.1209 239.802L80.4037 272.336L81.3572 272.034L71.0744 239.501Z" fill="#19A3DD"/>
<path d="M55.57 79.02H54.57V141.64H55.57V79.02Z" fill="#19A3DD"/>
<path d="M312.387 246.273L311.433 246.574L319.398 271.775L320.352 271.474L312.387 246.273Z" fill="#19A3DD"/>
<path d="M363.119 261.044L362.165 261.346L370.131 286.547L371.084 286.246L363.119 261.044Z" fill="#19A3DD"/>
<path d="M322.606 257.767L321.653 258.069L331.935 290.602L332.889 290.301L322.606 257.767Z" fill="#19A3DD"/>
<path d="M361.96 237.927L361.006 238.229L371.286 270.753L372.24 270.451L361.96 237.927Z" fill="#19A3DD"/>
<path d="M340.81 290.96H311.4V237.6H340.81V290.96ZM312.4 289.96H339.81V238.6H312.4V289.96Z" fill="#19A3DD"/>
<path d="M345.68 233.14H344.68V295.76H345.68V233.14Z" fill="#19A3DD"/>
<path d="M181.5 375.1H168.98L208.46 354.92H220.98L181.5 375.1ZM173.14 374.1H181.26L216.83 355.92H208.71L173.14 374.1Z" fill="#19A3DD"/>
<path d="M375 354.92H0V355.92H375V354.92Z" fill="#19A3DD"/>
<path d="M375 350.89H0V351.89H375V350.89Z" fill="#19A3DD"/>
<path d="M65.04 336.74H375V335.74H67.02C66.38 336.09 65.72 336.43 65.04 336.74Z" fill="#19A3DD"/>
<path d="M375 194.28H0V195.28H375V194.28Z" fill="#19A3DD"/>
<path d="M375 46.08H0V47.08H375V46.08Z" fill="#19A3DD"/>
<path d="M301.85 147.03H375V146.03H302.85V74.3H375V73.3H301.85V147.03Z" fill="#19A3DD"/>
<path d="M301.49 301.23H375V300.23H302.49V228.5H375V227.5H301.49V301.23Z" fill="#19A3DD"/>
<path d="M306.82 141.97H375V140.97H307.82V79.35H375V78.35H306.82V141.97Z" fill="#19A3DD"/>
<path d="M349.53 136.84H375V135.84H350.53V84.48H375V83.48H349.53V136.84Z" fill="#19A3DD"/>
<path d="M306.82 296.09H375V295.09H307.82V233.47H375V232.47H306.82V296.09Z" fill="#19A3DD"/>
<path d="M349.53 290.96H375V289.96H350.53V238.6H375V237.6H349.53V290.96Z" fill="#19A3DD"/>
<path d="M60.4 302.69L59.77 302.5L60.12 301.94C63.34 296.85 63.51 291.18 60.53 287.49C58.53 285 55.37 283.69 51.64 283.77C47.86 283.86 43.96 285.37 40.65 288.04C40.22 288.39 39.8 288.76 39.36 289.17L38.85 289.66L38.56 289.02C34.54 280.1 23.15 274.11 10.22 274.11C6.62999 274.11 3.18999 274.57 -0.0100098 275.42V339.38C1.54999 339.39 3.13999 339.38 4.74999 339.38H7.32999C13.46 339.38 24.23 339.26 33.73 339.15C40.79 339.07 46.89 339 49.48 339C54.17 339 58.59 338.18 62.46 336.74C63.28 336.43 64.08 336.1 64.85 335.74C72.13 332.33 76.92 326.58 76.92 320.06C76.92 312.52 70.44 305.71 60.4 302.69Z" fill="#16254C"/>
<path d="M10.23 273.6C23.67 273.6 35.05 279.98 39.03 288.81C39.45 288.41 39.89 288.02 40.35 287.65C47.37 281.99 56.59 281.78 60.94 287.18C64.15 291.17 63.8 297.11 60.56 302.22C70.48 305.2 77.43 312.07 77.43 320.07C77.43 326.51 72.93 332.21 66 335.75H67.03C73.66 332.1 77.93 326.43 77.93 320.07C77.93 312.24 71.43 305.18 61.32 301.94C64.44 296.63 64.47 290.77 61.32 286.88C59.12 284.15 55.7 282.73 51.63 282.78C47.63 282.87 43.51 284.47 40.03 287.27C39.75 287.5 39.47 287.74 39.19 287.99C34.78 279.06 23.25 273.11 10.23 273.11C6.65 273.11 3.21 273.57 0 274.39V274.9C3.2 274.07 6.64 273.61 10.23 273.61V273.6Z" fill="#19A3DD"/>
<path d="M4.76 340.37H7.33C13.46 340.37 24.24 340.25 33.74 340.14C40.8 340.06 46.9 339.99 49.48 339.99C55.22 339.99 60.56 338.79 65.03 336.73H63.82C59.63 338.48 54.72 339.49 49.48 339.49C43.45 339.49 18.06 339.86 7.33 339.86C4.84 339.86 2.38 339.88 0 339.86V340.36C0.75 340.36 1.5 340.37 2.26 340.37C3.09 340.37 3.92 340.37 4.76 340.37Z" fill="#19A3DD"/>
<path d="M63.83 336.74H65.04C65.72 336.43 66.38 336.09 67.02 335.74H65.99C65.29 336.1 64.57 336.43 63.83 336.74Z" fill="#19A3DD"/>
<path d="M10.23 274.1C23.16 274.1 34.55 280.09 38.57 289.01L38.86 289.65L39.37 289.16C39.81 288.75 40.23 288.38 40.66 288.03C43.97 285.36 47.88 283.85 51.65 283.76C55.37 283.68 58.54 285 60.54 287.48C63.51 291.17 63.35 296.85 60.13 301.93L59.78 302.49L60.41 302.68C70.44 305.69 76.93 312.51 76.93 320.05C76.93 326.56 72.14 332.32 64.86 335.73H66C72.93 332.19 77.43 326.49 77.43 320.05C77.43 312.05 70.48 305.19 60.56 302.2C63.8 297.09 64.15 291.15 60.94 287.16C56.59 281.76 47.38 281.97 40.35 287.63C39.89 288 39.45 288.39 39.03 288.79C35.05 279.96 23.67 273.58 10.23 273.58C6.64 273.58 3.2 274.04 0 274.87V275.39C3.19 274.54 6.64 274.08 10.23 274.08V274.1Z" fill="#19A3DD"/>
<path d="M49.49 339C46.9 339 40.8 339.07 33.74 339.15C24.24 339.26 13.47 339.37 7.34 339.37H4.76C3.15 339.38 1.56 339.39 0 339.37V339.87C2.38 339.89 4.84 339.87 7.33 339.87C18.06 339.87 43.45 339.5 49.48 339.5C54.73 339.5 59.63 338.49 63.82 336.74H62.45C58.58 338.18 54.16 339 49.47 339H49.49Z" fill="#19A3DD"/>
<path d="M64.85 335.74C64.08 336.1 63.28 336.43 62.46 336.74H63.83C64.57 336.43 65.29 336.1 65.99 335.74H64.85Z" fill="#19A3DD"/>
<path d="M134.64 295.19H114.52L114.23 325.33L100.09 355.78L103.67 357.92L120.36 327.55L122.51 300.87C122.6 299.79 123.5 298.96 124.58 298.96C125.66 298.96 126.56 299.78 126.65 300.85L132.68 367.86H136.85L134.63 295.18L134.64 295.19Z" fill="#D9D9D9"/>
<path d="M125.35 260.57C120.89 260.57 117.17 263.99 116.79 268.43L114.52 295.19H134.64L133.89 268.21C133.41 263.86 129.73 260.56 125.35 260.56V260.57Z" fill="#89C764"/>
<path d="M130.02 265.76C129.62 265.76 129.22 265.6 128.93 265.29C128.36 264.69 128.39 263.74 128.99 263.17L141.82 251.05L141.92 228.89C141.92 228.06 142.59 227.4 143.42 227.4C144.25 227.4 144.92 228.08 144.91 228.91L144.8 251.71C144.8 252.12 144.63 252.51 144.33 252.79L131.03 265.35C130.74 265.62 130.37 265.76 130 265.76H130.02Z" fill="#3472AF"/>
<path d="M102.82 308.09C101.99 308.09 101.32 307.42 101.32 306.59V285.9C101.32 285.56 101.44 285.23 101.65 284.96L115.63 267.49C116.15 266.84 117.09 266.74 117.74 267.26C118.39 267.78 118.49 268.72 117.97 269.37L104.32 286.43V306.59C104.32 307.42 103.65 308.09 102.82 308.09Z" fill="#3472AF"/>
<path d="M127.06 263.91L129.6 267.33L136.19 261.89L132.6 258.09L127.06 263.91Z" fill="#89C764"/>
<path d="M110.21 270.42L114.52 275.24L118.88 270.91L114.87 266.85L110.21 270.42Z" fill="#89C764"/>
<path d="M128.55 253.37L129 256.01C129.19 257.14 128.37 258.18 127.23 258.29C123.45 258.67 120.56 258.02 120.01 254.83C119.36 251.07 120.75 247.69 123.11 247.28C125.47 246.87 127.9 249.6 128.54 253.36L128.55 253.37Z" fill="#3472AF"/>
<path d="M126.68 257.81L127.3 260.45C127.41 260.94 127.12 261.42 126.63 261.54C126.12 261.67 125.61 261.34 125.51 260.83L124.97 258L126.68 257.81Z" fill="#3472AF"/>
<path d="M125.86 246.37C124.79 244.94 122.83 244.2 120.53 244.18C117.15 244.16 114.41 246 112.67 248.47C106.88 256.68 118.64 267.13 112.67 276.1C117.27 276.19 121.86 276.29 126.46 276.38C132.22 267.73 121.83 258.75 126.43 250.08C127.15 248.94 126.79 247.59 125.88 246.37H125.86Z" fill="#214082"/>
<path d="M141.92 229.35L140.23 225.31L140.95 221.24C141.05 220.67 141.51 220.23 142.09 220.16C142.79 220.07 143.43 220.55 143.55 221.24L144.93 228.92L141.93 229.36L141.92 229.35Z" fill="#3472AF"/>
<path d="M104.87 314.07L103.03 307.41C102.99 307.26 102.87 307.24 102.8 307.24C102.73 307.24 102.61 307.26 102.57 307.41L100.73 314.07L99.77 313.8L101.61 307.14C101.76 306.6 102.24 306.23 102.8 306.23C103.36 306.23 103.84 306.6 103.99 307.14L105.83 313.8L104.87 314.07Z" fill="#19A3DD"/>
<path d="M110.21 328.31H95.38L96.38 313.12H109.21L110.21 328.31Z" fill="#D9D9D9"/>
<path d="M132.7 367.87V371.49H142.16V370.32L136.87 367.87H132.7Z" fill="#214082"/>
<path d="M100.09 355.78L98.24 358.88L106.35 363.74L106.95 362.75L103.67 357.92L100.09 355.78Z" fill="#214082"/>
<path d="M164.94 142.47C164.56 142.47 164.17 142.32 163.88 142.03C163.29 141.45 163.29 140.49 163.88 139.91L171.83 131.94L178.4 118.32C178.76 117.57 179.66 117.26 180.4 117.62C181.15 117.98 181.46 118.88 181.1 119.62L174.42 133.47C174.35 133.62 174.25 133.76 174.13 133.88L166 142.03C165.71 142.32 165.32 142.47 164.94 142.47Z" fill="#214082"/>
<path d="M177.49 121.61L177.19 140.98H194.41L191.32 120.68C190.8 117.26 187.84 114.74 184.39 114.77C180.62 114.8 177.56 117.84 177.5 121.61H177.49Z" fill="#D9D9D9"/>
<path d="M182.31 112.53C188.584 112.53 193.67 107.444 193.67 101.17C193.67 94.896 188.584 89.81 182.31 89.81C176.036 89.81 170.95 94.896 170.95 101.17C170.95 107.444 176.036 112.53 182.31 112.53Z" fill="#16254C"/>
<path d="M185.29 114.39L184.06 111.36C184.06 108.98 184.67 106.86 183.98 104.95C182.49 100.83 180.23 99.9 177.65 100.83C175.07 101.76 173.14 101.48 174.62 105.6L177.34 113.25C177.79 114.49 178.56 114.68 179.76 114.15C180.55 113.8 181.27 113.43 181.93 113.04L182.87 115.37C183.14 116.04 183.9 116.36 184.56 116.09C185.23 115.82 185.55 115.06 185.28 114.4L185.29 114.39Z" fill="#214082"/>
<path d="M176.09 102.56C176.09 102.56 176.03 105.15 174.85 106.22C173.18 106.81 172.69 101.95 172.69 101.95L174.76 98.42L184.76 98.59V103.57C184.76 103.57 178.23 106.08 176.09 102.55V102.56Z" fill="#16254C"/>
<path d="M188.82 118.56C188.49 118.56 188.16 118.45 187.89 118.23C187.24 117.72 187.13 116.77 187.65 116.12L198.79 102.08L192.27 84.5C191.98 83.72 192.38 82.86 193.15 82.57C193.93 82.29 194.79 82.68 195.08 83.45L201.9 101.83C202.08 102.32 201.99 102.87 201.67 103.28L190 117.98C189.7 118.35 189.27 118.55 188.82 118.55V118.56Z" fill="#214082"/>
<path d="M195.15 83.72L195.44 79.35L193.44 75.73C193.16 75.22 192.58 74.96 192.01 75.07C191.32 75.21 190.87 75.87 190.97 76.56L192.15 84.27L195.13 83.71L195.15 83.72Z" fill="#214082"/>
<path d="M368.47 259.22L368.12 258.87H314.82C309.3 258.87 303.94 260.73 299.61 264.16L256.98 297.86H375.01V258.87H368.83L368.48 259.22H368.47Z" fill="#D9D9D9"/>
<path d="M256.97 297.85H236.86C221.77 297.85 209.53 310.09 209.53 325.18V348.05H375V297.85H256.97Z" fill="#3472AF"/>
<path d="M368.12 258.86H368.82L375 252.69V251.27L367.76 258.51L368.12 258.86Z" fill="#16254C"/>
<path d="M368.82 258.86H368.12L368.47 259.22L368.82 258.86Z" fill="#16254C"/>
<path d="M324.67 258.86H323.67V297.85H324.67V258.86Z" fill="#19A3DD"/>
<path d="M324.67 297.85H323.67V348.05H324.67V297.85Z" fill="#214082"/>
<path d="M258.2 326.02C253.83 326.02 249.55 327.3 245.91 329.72C242.27 332.14 239.43 335.58 237.76 339.61C236.08 343.64 235.64 348.07 236.49 352.35C237.34 356.63 239.45 360.56 242.54 363.64C245.63 366.72 249.57 368.82 253.86 369.67C258.15 370.52 262.6 370.08 266.64 368.41C270.68 366.74 274.13 363.91 276.56 360.28C278.99 356.65 280.28 352.39 280.27 348.03C280.27 342.19 277.94 336.6 273.8 332.47C269.66 328.34 264.04 326.02 258.19 326.02H258.2Z" fill="#214082"/>
<path d="M258.17 357.28C253.08 357.28 248.94 353.14 248.94 348.05C248.94 342.96 253.08 338.82 258.17 338.82C263.26 338.82 267.4 342.96 267.4 348.05C267.4 353.14 263.26 357.28 258.17 357.28ZM258.17 339.82C253.63 339.82 249.94 343.51 249.94 348.05C249.94 352.59 253.63 356.28 258.17 356.28C262.71 356.28 266.4 352.59 266.4 348.05C266.4 343.51 262.71 339.82 258.17 339.82Z" fill="#19A3DD"/>
<path d="M303.44 314.95H312.82C314.079 314.95 315.1 313.929 315.1 312.67V312.66C315.1 311.401 314.079 310.38 312.82 310.38H303.44C302.181 310.38 301.16 311.401 301.16 312.66V312.67C301.16 313.929 302.181 314.95 303.44 314.95Z" fill="#214082"/>
<path d="M312.82 315.45H303.45C301.92 315.45 300.67 314.2 300.67 312.67C300.67 311.14 301.92 309.89 303.45 309.89H312.82C314.35 309.89 315.6 311.14 315.6 312.67C315.6 314.2 314.35 315.45 312.82 315.45ZM303.45 310.88C302.47 310.88 301.67 311.68 301.67 312.66C301.67 313.64 302.47 314.44 303.45 314.44H312.82C313.8 314.44 314.6 313.64 314.6 312.66C314.6 311.68 313.8 310.88 312.82 310.88H303.45Z" fill="#214082"/>
<path d="M353.87 314.95H363.25C364.509 314.95 365.53 313.929 365.53 312.67V312.66C365.53 311.401 364.509 310.38 363.25 310.38H353.87C352.611 310.38 351.59 311.401 351.59 312.66V312.67C351.59 313.929 352.611 314.95 353.87 314.95Z" fill="#214082"/>
<path d="M363.24 315.45H353.87C352.33 315.45 351.09 314.2 351.09 312.67C351.09 311.14 352.34 309.89 353.87 309.89H363.24C364.78 309.89 366.02 311.14 366.02 312.67C366.02 314.2 364.77 315.45 363.24 315.45ZM353.87 310.88C352.89 310.88 352.09 311.68 352.09 312.66C352.09 313.64 352.89 314.44 353.87 314.44H363.24C364.22 314.44 365.02 313.64 365.02 312.66C365.02 311.68 364.22 310.88 363.24 310.88H353.87Z" fill="#214082"/>
<path d="M221.55 311.37H214.43V310.37H221.55C228.45 310.37 234.07 304.75 234.07 297.85H235.07C235.07 305.3 229.01 311.37 221.55 311.37Z" fill="#214082"/>
<path d="M217.77 338.76H209.53V337.76H217.77C221.48 337.76 224.5 334.74 224.5 331.03C224.5 327.32 221.48 324.3 217.77 324.3H209.53V323.3H217.77C222.03 323.3 225.5 326.77 225.5 331.03C225.5 335.29 222.03 338.76 217.77 338.76Z" fill="#214082"/>
<path d="M225 328.05H209.53V329.05H225V328.05Z" fill="#214082"/>
<path d="M225 333.02H209.53V334.02H225V333.02Z" fill="#214082"/>
</svg>
