<svg width="375" height="440" viewBox="0 0 375 440" fill="none" xmlns="http://www.w3.org/2000/svg">
<path d="M375 0H0V440H375V0Z" fill="#89C764"/>
<path d="M31.55 326.52L31.55 257.82C31.55 246.38 40.84 237.09 52.28 237.09H321.43C332.87 237.09 342.16 246.38 342.16 257.82V326.52C342.16 338.3 332.6 347.86 320.82 347.86H52.89C41.11 347.86 31.55 338.3 31.55 326.52Z" fill="#16254C"/>
<path d="M317.43 220.66H56.25C42.6031 220.66 31.54 231.723 31.54 245.37V307.53C31.54 321.177 42.6031 332.24 56.25 332.24H317.43C331.077 332.24 342.14 321.177 342.14 307.53V245.37C342.14 231.723 331.077 220.66 317.43 220.66Z" fill="#3472AF"/>
<path d="M333.78 307.53C333.78 316.54 326.45 323.88 317.43 323.88H56.25C47.24 323.88 39.9 316.55 39.9 307.53V288.17H40.74C44.5 288.17 47.56 285.11 47.56 281.35V266.6C47.56 262.84 44.5 259.78 40.74 259.78H39.9V245.38C39.9 236.37 47.23 229.03 56.25 229.03H317.43C326.44 229.03 333.78 236.36 333.78 245.38V307.54V307.53Z" fill="white"/>
<path d="M317.43 324.38H56.25C46.96 324.38 39.4 316.82 39.4 307.53V287.66H40.74C44.23 287.66 47.06 284.82 47.06 281.34V266.59C47.06 263.1 44.22 260.27 40.74 260.27H39.4V245.37C39.4 236.08 46.96 228.52 56.25 228.52H317.43C326.72 228.52 334.28 236.08 334.28 245.37V307.53C334.28 316.82 326.72 324.38 317.43 324.38ZM40.4 288.67V307.54C40.4 316.28 47.51 323.39 56.25 323.39H317.43C326.17 323.39 333.28 316.28 333.28 307.54V245.38C333.28 236.64 326.17 229.53 317.43 229.53H56.25C47.51 229.53 40.4 236.64 40.4 245.38V259.28H40.74C44.78 259.28 48.06 262.57 48.06 266.6V281.35C48.06 285.39 44.77 288.67 40.74 288.67H40.4Z" fill="#393B56"/>
<path d="M40.41 268.71H39.41V278.11H40.41V268.71Z" fill="#192548"/>
<path d="M351.48 287.25H320.85V288H351.48V287.25Z" fill="white"/>
<path d="M308.85 287.25H297.84V288H308.85V287.25Z" fill="white"/>
<path d="M293.76 287.25H245.94V288H293.76V287.25Z" fill="white"/>
<path d="M232.51 287.25H214.31V288H232.51V287.25Z" fill="white"/>
<path d="M254.654 255.08L216.92 271.167L217.214 271.857L254.948 255.77L254.654 255.08Z" fill="white"/>
<path d="M326.64 186.39L266.448 228.536L266.879 229.151L327.07 187.004L326.64 186.39Z" fill="white"/>
<path d="M260.149 232.947L245.73 243.04L246.16 243.654L260.579 233.562L260.149 232.947Z" fill="white"/>
<path d="M241.557 245.966L222.19 259.522L222.62 260.137L241.988 246.581L241.557 245.966Z" fill="white"/>
<path d="M255.76 371.13L271.11 388.85L271.67 388.36L256.33 370.64L255.76 371.13Z" fill="white"/>
<path d="M220.085 328.795L219.518 329.286L248.68 362.952L249.247 362.461L220.085 328.795Z" fill="white"/>
<path d="M206.58 314.35L216.07 325.31L216.64 324.82L207.14 313.86L206.58 314.35Z" fill="white"/>
<path d="M218.095 377.635L217.397 377.91L221.432 388.153L222.13 387.879L218.095 377.635Z" fill="white"/>
<path d="M205.629 345.997L204.931 346.271L214.944 371.69L215.641 371.416L205.629 345.997Z" fill="white"/>
<path d="M199.383 330.134L198.686 330.409L202.735 340.69L203.433 340.415L199.383 330.134Z" fill="white"/>
<path d="M134.41 389.64L112.59 440H113.41L135.1 389.94L134.41 389.64Z" fill="white"/>
<path d="M154.428 343.455L138.79 379.488L139.478 379.787L155.116 343.754L154.428 343.455Z" fill="white"/>
<path d="M162.839 324.007L158.121 334.878L158.809 335.176L163.527 324.306L162.839 324.007Z" fill="white"/>
<path d="M167.196 313.943L164.851 319.346L165.539 319.645L167.884 314.242L167.196 313.943Z" fill="white"/>
<path d="M77.459 380.241L51.5476 405.491L52.071 406.028L77.9824 380.778L77.459 380.241Z" fill="white"/>
<path d="M112.342 346.226L82.8785 374.938L83.4019 375.476L112.866 346.763L112.342 346.226Z" fill="white"/>
<path d="M132.17 326.881L116.536 342.116L117.059 342.653L132.693 327.418L132.17 326.881Z" fill="white"/>
<path d="M115.703 317.638L106.556 321.923L106.874 322.602L116.021 318.318L115.703 317.638Z" fill="white"/>
<path d="M145.549 303.644L120.219 315.531L120.538 316.21L145.867 304.323L145.549 303.644Z" fill="white"/>
<path d="M13.03 309.98L0 311.51V312.27L13.12 310.72L13.03 309.98Z" fill="white"/>
<path d="M62.2302 304.194L20.7364 309.076L20.824 309.821L62.3178 304.939L62.2302 304.194Z" fill="white"/>
<path d="M126.147 296.673L78.2174 302.312L78.3051 303.057L126.235 297.418L126.147 296.673Z" fill="white"/>
<path d="M113.661 269.563L113.469 270.288L132.11 275.213L132.301 274.488L113.661 269.563Z" fill="white"/>
<path d="M137.578 275.89L137.387 276.615L146.639 279.059L146.831 278.334L137.578 275.89Z" fill="white"/>
<path d="M151.35 279.532L151.158 280.257L156.659 281.711L156.851 280.986L151.35 279.532Z" fill="white"/>
<path d="M49.7099 213.428L49.3526 214.087L58.5757 219.084L58.933 218.425L49.7099 213.428Z" fill="white"/>
<path d="M64.3399 221.344L63.9826 222.004L77.4788 229.317L77.8361 228.657L64.3399 221.344Z" fill="white"/>
<path d="M82.898 231.396L82.5407 232.055L112.004 248.019L112.361 247.36L82.898 231.396Z" fill="white"/>
<path d="M120.856 251.969L120.499 252.628L145.522 266.186L145.879 265.527L120.856 251.969Z" fill="white"/>
<path d="M152.811 140.37L152.08 140.541L158.419 167.609L159.149 167.438L152.811 140.37Z" fill="white"/>
<path d="M201.48 216.57L200.74 216.42L199.66 221.9L200.39 222.05L201.48 216.57Z" fill="white"/>
<path d="M198.99 225.27L196.02 240.29L196.75 240.44L199.72 225.42L198.99 225.27Z" fill="white"/>
<path d="M192.79 256.58L193.53 256.73L195.61 246.2L194.87 246.05L192.79 256.58Z" fill="white"/>
<path d="M315.831 359.665L315.455 360.314L332.827 370.384L333.203 369.736L315.831 359.665Z" fill="white"/>
<path d="M295.442 347.793L295.066 348.442L310.442 357.351L310.818 356.702L295.442 347.793Z" fill="white"/>
<path d="M190.281 392.137L189.532 392.174L190.974 421.769L191.723 421.732L190.281 392.137Z" fill="white"/>
<path d="M350.038 225.991L329.026 232.871L329.259 233.584L350.272 226.704L350.038 225.991Z" fill="white"/>
<path d="M54.2662 161.082L53.7491 161.625L76.0176 182.816L76.5346 182.273L54.2662 161.082Z" fill="white"/>
<path d="M9.23667 269.566L9.18631 270.315L32.3439 271.873L32.3943 271.125L9.23667 269.566Z" fill="white"/>
<path d="M254.53 412.23L269.55 440H270.41L255.19 411.88L254.53 412.23Z" fill="white"/>
<path d="M329.849 408.519L329.301 409.031L342.011 422.637L342.559 422.125L329.849 408.519Z" fill="white"/>
<path d="M30.91 363.57L0 379.43V380.28L31.25 364.24L30.91 363.57Z" fill="white"/>
<path d="M22.63 180.35L0 165.19V166.09L22.22 180.98L22.63 180.35Z" fill="white"/>
<path d="M9.19434 229.983L8.95996 230.695L44.1259 242.264L44.3603 241.552L9.19434 229.983Z" fill="white"/>
<path d="M343.63 69.36L375 27.02V25.76L343.02 68.91L343.63 69.36Z" fill="white"/>
<path d="M316.697 104.442L296.287 131.984L296.89 132.431L317.3 104.889L316.697 104.442Z" fill="white"/>
<path d="M277.072 157.95L253.378 189.866L253.98 190.313L277.674 158.397L277.072 157.95Z" fill="white"/>
<path d="M71.2521 18.176L70.5582 18.4606L80.2912 42.1923L80.9851 41.9077L71.2521 18.176Z" fill="white"/>
<path d="M46.9892 73.3899L46.3696 73.8125L56.5469 88.7318L57.1665 88.3092L46.9892 73.3899Z" fill="white"/>
<path d="M299.39 22.6128L290.975 36.6895L291.619 37.0743L300.034 22.9977L299.39 22.6128Z" fill="white"/>
<path d="M213.33 6.86L214.01 0H213.25L212.59 6.78L213.33 6.86Z" fill="white"/>
<path d="M334.02 150.61L375 115.88V114.89L333.54 150.04L334.02 150.61Z" fill="white"/>
<path d="M322.71 316.45L322.51 317.17L375 331.99V331.21L322.71 316.45Z" fill="white"/>
<path d="M130.823 205.215L130.183 205.607L141.786 224.557L142.426 224.165L130.823 205.215Z" fill="white"/>
<path d="M333.78 287.25H320.85V288H333.78V287.25Z" fill="#A7AEB7"/>
<path d="M308.85 287.25H297.84V288H308.85V287.25Z" fill="#A7AEB7"/>
<path d="M293.76 287.25H245.94V288H293.76V287.25Z" fill="#A7AEB7"/>
<path d="M232.5 287.25H220.58V288H232.5V287.25Z" fill="#A7AEB7"/>
<path d="M254.654 255.08L216.92 271.167L217.214 271.857L254.948 255.77L254.654 255.08Z" fill="#A7AEB7"/>
<path d="M259.833 233.162L245.726 243.037L246.156 243.651L260.263 233.777L259.833 233.162Z" fill="#A7AEB7"/>
<path d="M241.557 245.966L222.19 259.522L222.62 260.137L241.988 246.581L241.557 245.966Z" fill="#A7AEB7"/>
<path d="M216.07 325.31L206.58 314.35L207.14 313.86L216.64 324.82L216.07 325.31Z" fill="#A7AEB7"/>
<path d="M167.196 313.943L164.851 319.346L165.539 319.645L167.884 314.242L167.196 313.943Z" fill="#A7AEB7"/>
<path d="M115.703 317.638L106.556 321.923L106.874 322.602L116.021 318.318L115.703 317.638Z" fill="#A7AEB7"/>
<path d="M145.557 303.639L120.219 315.508L120.537 316.187L145.875 304.318L145.557 303.639Z" fill="#A7AEB7"/>
<path d="M62.2737 304.169L39.8895 306.814L39.9775 307.559L62.3617 304.914L62.2737 304.169Z" fill="#A7AEB7"/>
<path d="M126.175 296.639L78.2484 302.303L78.3364 303.048L126.263 297.384L126.175 296.639Z" fill="#A7AEB7"/>
<path d="M113.661 269.563L113.469 270.288L132.11 275.213L132.301 274.488L113.661 269.563Z" fill="#A7AEB7"/>
<path d="M137.578 275.89L137.387 276.615L146.639 279.059L146.831 278.334L137.578 275.89Z" fill="#A7AEB7"/>
<path d="M86.0695 233.114L85.7122 233.773L112.01 248.022L112.367 247.363L86.0695 233.114Z" fill="#A7AEB7"/>
<path d="M120.856 251.969L120.499 252.628L145.522 266.186L145.879 265.527L120.856 251.969Z" fill="#A7AEB7"/>
<path d="M322.696 316.427L322.492 317.148L331.827 319.783L332.031 319.061L322.696 316.427Z" fill="#A7AEB7"/>
<path d="M142.414 224.179L141.77 224.564L157.043 250.083L157.686 249.698L142.414 224.179Z" fill="#A7AEB7"/>
<path d="M186.84 290.79C180.41 290.79 175.18 287.86 175.18 284.26C175.18 280.66 180.41 277.73 186.84 277.73C193.27 277.73 198.5 280.66 198.5 284.26C198.5 287.86 193.27 290.79 186.84 290.79ZM186.84 278.49C180.83 278.49 175.93 281.08 175.93 284.27C175.93 287.46 180.82 290.05 186.84 290.05C192.86 290.05 197.75 287.46 197.75 284.27C197.75 281.08 192.86 278.49 186.84 278.49Z" fill="#A7AEB7"/>
<path d="M186.84 297.41C173.71 297.41 163.04 291.51 163.04 284.26C163.04 277.01 173.72 271.11 186.84 271.11C199.96 271.11 210.64 277.01 210.64 284.26C210.64 291.51 199.96 297.41 186.84 297.41ZM186.84 271.86C174.13 271.86 163.79 277.42 163.79 284.26C163.79 291.1 174.13 296.66 186.84 296.66C199.55 296.66 209.89 291.1 209.89 284.26C209.89 277.42 199.55 271.86 186.84 271.86Z" fill="#A7AEB7"/>
<path d="M186.84 54.09C142.86 54.09 112.77 98.48 129.06 139.33L186.84 284.25L244.62 139.33C260.91 98.48 230.82 54.09 186.84 54.09ZM186.84 132.29C176.99 132.29 169.01 124.31 169.01 114.46C169.01 104.61 176.99 96.63 186.84 96.63C196.69 96.63 204.67 104.61 204.67 114.46C204.67 124.31 196.69 132.29 186.84 132.29Z" fill="#3472AF"/>
<path d="M248.92 7.99L249.29 7.34C244.43 4.55 239.4 2.1 234.23 0H232.17C237.93 2.24 243.53 4.9 248.92 7.99Z" fill="#3472AF"/>
<path d="M124.76 7.99C130.15 4.9 135.75 2.24 141.51 0H139.45C134.28 2.1 129.24 4.55 124.38 7.34L124.75 7.99H124.76Z" fill="#3472AF"/>
<path d="M186.84 5.46997C209.05 5.46997 230.51 12.04 248.9 24.47L249.32 23.85C230.81 11.34 209.2 4.71997 186.84 4.71997C164.48 4.71997 142.88 11.34 124.36 23.85L124.78 24.47C143.17 12.04 164.63 5.46997 186.84 5.46997Z" fill="#3472AF"/>
<path d="M186.84 19.47C209.48 19.47 231.51 27.45 248.87 41.94L249.35 41.36C231.86 26.76 209.66 18.72 186.84 18.72C164.02 18.72 141.83 26.76 124.33 41.36L124.81 41.94C142.17 27.45 164.2 19.47 186.84 19.47Z" fill="#3472AF"/>
<path d="M186.84 33.47C210.54 33.47 233.13 43.64 248.83 61.36L249.39 60.86C233.55 42.97 210.75 32.71 186.84 32.71C162.93 32.71 140.13 42.97 124.29 60.85L124.85 61.35C140.55 43.62 163.14 33.46 186.84 33.46V33.47Z" fill="#3472AF"/>
<path d="M186.84 40.47C211.45 40.47 234.61 52.48 248.8 72.6L249.41 72.17C235.08 51.85 211.69 39.72 186.84 39.72C161.99 39.72 138.59 51.85 124.27 72.17L124.88 72.6C139.07 52.48 162.23 40.47 186.84 40.47Z" fill="#3472AF"/>
<path d="M186.84 46.72C163.74 46.72 142.21 58.14 129.24 77.26C127.39 79.99 125.7 82.92 124.23 85.94L124.9 86.27C126.35 83.28 128.02 80.39 129.85 77.68C142.67 58.76 163.97 47.47 186.83 47.47C209.69 47.47 230.98 58.76 243.8 77.68C245.64 80.39 247.3 83.28 248.76 86.27L249.43 85.94C247.96 82.92 246.28 80 244.42 77.26C231.46 58.14 209.93 46.72 186.82 46.72H186.84Z" fill="#3472AF"/>
</svg>
