<svg width="375" height="440" viewBox="0 0 375 440" fill="none" xmlns="http://www.w3.org/2000/svg">
<path d="M375 0H0V440H375V0Z" fill="#89C764"/>
<path d="M301.92 335.7C297.02 337.89 289.48 339.56 282.89 340.72C274.82 342.14 266.58 342.28 258.46 341.19L255.8 340.83L269.36 181L311.75 200.66" fill="#192548"/>
<path d="M300.86 233.53L270 328.34L375 362.51V257.66L300.86 233.53Z" fill="#192548"/>
<path d="M269.37 328.66L300.53 232.9L375 257.13V256.61L300.69 232.42L300.21 232.27L268.9 328.5L268.74 328.98L375 363.56V363.03L269.37 328.66Z" fill="#89C764"/>
<path d="M269.37 328.66L375 363.03V362.51L270 328.34L300.86 233.53L375 257.66V257.13L300.53 232.9L269.37 328.66Z" fill="#89C764"/>
<path d="M103.63 173.54C111.02 173.54 117.01 168.141 117.01 161.48C117.01 154.819 111.02 149.42 103.63 149.42C96.2404 149.42 90.25 154.819 90.25 161.48C90.25 168.141 96.2404 173.54 103.63 173.54Z" fill="#192548"/>
<path d="M103.63 174.03C95.98 174.03 89.75 168.4 89.75 161.48C89.75 154.56 95.98 148.92 103.63 148.92C111.28 148.92 117.51 154.55 117.51 161.48C117.51 168.41 111.28 174.03 103.63 174.03ZM103.63 149.92C96.53 149.92 90.75 155.1 90.75 161.48C90.75 167.86 96.53 173.03 103.63 173.03C110.73 173.03 116.51 167.85 116.51 161.48C116.51 155.11 110.73 149.92 103.63 149.92Z" fill="#89C764"/>
<path d="M126.73 38.6H232.45C243.89 38.6 253.18 47.89 253.18 59.33V328.48C253.18 339.92 243.89 349.21 232.45 349.21H126.73C114.95 349.21 105.39 339.65 105.39 327.87V59.95C105.39 48.17 114.95 38.61 126.73 38.61V38.6Z" fill="#16254C"/>
<path d="M244.9 38.6H142.72C129.073 38.6 118.01 49.663 118.01 63.31V324.49C118.01 338.137 129.073 349.2 142.72 349.2H244.9C258.547 349.2 269.61 338.137 269.61 324.49V63.31C269.61 49.663 258.547 38.6 244.9 38.6Z" fill="#3472AF"/>
<path d="M142.72 340.84C133.71 340.84 126.37 333.51 126.37 324.49V63.31C126.37 54.3 133.7 46.96 142.72 46.96H172.09V47.8C172.09 51.56 175.15 54.62 178.91 54.62H213.67C217.43 54.62 220.49 51.56 220.49 47.8V46.96H244.9C253.91 46.96 261.25 54.29 261.25 63.31V324.49C261.25 333.5 253.92 340.84 244.9 340.84H142.72Z" fill="white"/>
<path d="M244.9 341.34H142.72C133.43 341.34 125.87 333.78 125.87 324.49V63.31C125.87 54.02 133.43 46.46 142.72 46.46H172.59V47.8C172.59 51.29 175.43 54.12 178.91 54.12H213.67C217.16 54.12 219.99 51.28 219.99 47.8V46.46H244.9C254.19 46.46 261.75 54.02 261.75 63.31V324.49C261.75 333.78 254.19 341.34 244.9 341.34ZM142.72 47.47C133.98 47.47 126.87 54.58 126.87 63.32V324.5C126.87 333.24 133.98 340.35 142.72 340.35H244.9C253.64 340.35 260.75 333.24 260.75 324.5V63.32C260.75 54.58 253.64 47.47 244.9 47.47H220.99V47.81C220.99 51.85 217.7 55.13 213.67 55.13H178.91C174.87 55.13 171.59 51.84 171.59 47.81V47.47H142.72Z" fill="#393B56"/>
<path d="M211.56 46.47H182.14V47.47H211.56V46.47Z" fill="#393B56"/>
<mask id="mask0_7531_8750" style="mask-type:luminance" maskUnits="userSpaceOnUse" x="181" y="278" width="24" height="14">
<path d="M191.69 288.66H188.45V291.9H191.69V288.66ZM204.65 291.9V278.94H201.41V282.18H198.17V278.94H194.93V282.18H185.21V278.94H181.97V291.9H185.21V285.42H194.93V291.9H198.17V285.42H201.41V291.9H204.65Z" fill="white"/>
</mask>
<g mask="url(#mask0_7531_8750)">
<path d="M246.39 198.34H122.66V308.21H246.39V198.34Z" fill="#E36054"/>
<path d="M246.39 198.34H122.66V308.21H246.39V198.34Z" fill="#E36054"/>
</g>
<mask id="mask1_7531_8750" style="mask-type:luminance" maskUnits="userSpaceOnUse" x="181" y="295" width="24" height="4">
<path d="M181.97 298.38H185.21V295.14H181.97V298.38ZM188.45 298.38H191.69V295.14H188.45V298.38ZM194.93 298.38H198.17V295.14H194.93V298.38ZM204.65 295.14H201.41V298.38H204.65V295.14Z" fill="white"/>
</mask>
<g mask="url(#mask1_7531_8750)">
<path d="M246.39 198.34H122.66V308.21H246.39V198.34Z" fill="#E36054"/>
<path d="M246.39 198.34H122.66V308.21H246.39V198.34Z" fill="#E36054"/>
<path d="M246.39 198.34H122.66V308.21H246.39V198.34Z" fill="#E36054"/>
<path d="M246.39 198.34H122.66V308.21H246.39V198.34Z" fill="#E36054"/>
</g>
<path d="M176.44 102.12C176.44 99.75 175.2 98.25 173.4 98.25C171.6 98.25 170.33 99.77 170.33 102.12C170.33 104.47 171.54 105.99 173.4 105.99C175.26 105.99 176.44 104.49 176.44 102.12ZM167 95.67H170.3V96.34L170.09 97.94H170.45C171.15 96.57 172.51 95.52 174.47 95.52C177.46 95.52 179.76 98 179.76 102.12C179.76 106.24 177.46 108.72 174.47 108.72C172.51 108.72 171.14 107.58 170.45 106.3H170.09L170.3 108V114.76H167V95.67Z" fill="#89C764"/>
<path d="M190.03 103.49V103.13C187.45 103.13 184.66 103.16 184.66 104.94C184.66 105.84 185.41 106.38 186.67 106.38C188.66 106.38 190.02 105.22 190.02 103.49M181.38 105.22C181.38 101.09 186.26 101.22 190.02 101.22V100.21C190.02 98.77 189.22 98.07 187.72 98.07C186.22 98.07 185.3 98.74 185.14 100.49L181.97 100.33C182.18 96.77 184.7 95.4 187.72 95.4C190.92 95.4 193.29 96.77 193.29 100.46V108.56H190.71L190.45 106.39H190.17C189.5 107.99 187.98 108.81 185.76 108.81C183.15 108.81 181.38 107.44 181.38 105.2" fill="#89C764"/>
<path d="M203.86 103.49V103.13C201.28 103.13 198.49 103.16 198.49 104.94C198.49 105.84 199.24 106.38 200.5 106.38C202.49 106.38 203.85 105.22 203.85 103.49M195.21 105.22C195.21 101.09 200.09 101.22 203.85 101.22V100.21C203.85 98.77 203.05 98.07 201.55 98.07C200.05 98.07 199.13 98.74 198.97 100.49L195.8 100.33C196.01 96.77 198.53 95.4 201.55 95.4C204.75 95.4 207.12 96.77 207.12 100.46V108.56H204.54L204.28 106.39H204C203.33 107.99 201.81 108.81 199.59 108.81C196.98 108.81 195.21 107.44 195.21 105.2" fill="#89C764"/>
<path d="M209.09 104.78L212.21 104.47C212.49 105.68 213.35 106.28 215.02 106.28C216.57 106.28 217.47 105.74 217.47 104.76C217.47 104.14 217.11 103.63 215.66 103.44L213.39 103.18C211.3 102.95 209.24 102.07 209.24 99.67C209.24 97.04 211.35 95.41 214.61 95.41C217.87 95.41 219.77 96.96 219.95 99.64L217.06 99.85C216.93 98.64 216.16 97.97 214.58 97.97C213 97.97 212.34 98.64 212.34 99.57C212.34 100.24 212.83 100.63 213.99 100.78L216.34 101.04C218.66 101.35 220.62 102.2 220.62 104.65C220.62 107.25 218.71 108.83 215.02 108.83C211.33 108.83 209.45 107.36 209.09 104.78Z" fill="#89C764"/>
<path d="M229.05 83.85H158.57V86.58H229.05V83.85Z" fill="#89C764"/>
<path d="M229.05 119.7H158.57V122.43H229.05V119.7Z" fill="#89C764"/>
<path d="M193.81 224.3C208.893 224.3 221.12 212.073 221.12 196.99C221.12 181.907 208.893 169.68 193.81 169.68C178.727 169.68 166.5 181.907 166.5 196.99C166.5 212.073 178.727 224.3 193.81 224.3Z" fill="#89C764"/>
<path d="M178.67 195.46L193.81 211.89L208.95 195.46L206.01 192.75L195.81 203.82V182.38H191.81V203.82L181.61 192.75L178.67 195.46Z" fill="white"/>
<path d="M100.76 115.784L104.882 117.538C115.39 122.01 120.291 134.169 115.82 144.677C111.348 155.186 99.1888 160.086 88.6805 155.615L84.5582 153.861C75.1265 149.848 70.7191 138.93 74.7363 129.489L76.3925 125.597C80.4057 116.165 91.3229 111.758 100.764 115.775L100.76 115.784Z" fill="#192548"/>
<path d="M96.72 157.78C93.92 157.78 91.12 157.22 88.47 156.09L84.35 154.34C74.67 150.22 70.15 138.99 74.27 129.31L75.93 125.42C80.05 115.74 91.28 111.22 100.96 115.34L105.08 117.09C110.27 119.3 114.29 123.41 116.42 128.68C118.54 133.95 118.49 139.7 116.29 144.89C114.08 150.08 109.97 154.1 104.7 156.23C102.12 157.27 99.43 157.79 96.74 157.79L96.72 157.78ZM88.86 155.17C93.8 157.27 99.29 157.32 104.31 155.3C109.33 153.28 113.25 149.44 115.35 144.5C117.45 139.56 117.5 134.07 115.48 129.05C113.46 124.03 109.62 120.11 104.68 118.01L100.56 116.26C91.39 112.36 80.75 116.64 76.85 125.82L75.19 129.71C71.29 138.88 75.57 149.52 84.75 153.42L88.87 155.17H88.86Z" fill="#89C764"/>
<path d="M91.0418 156.252L115.463 166.644C125.971 171.115 130.872 183.274 126.4 193.783C121.929 204.291 109.77 209.191 99.2613 204.72L74.8401 194.329C65.6753 190.429 61.404 179.831 65.3037 170.666L67.3827 165.78C71.2824 156.615 81.8809 152.344 91.0457 156.243L91.0418 156.252Z" fill="#192548"/>
<path d="M107.32 206.88C104.56 206.88 101.75 206.34 99.05 205.19L74.63 194.8C65.22 190.8 60.83 179.89 64.83 170.48L66.91 165.59C70.91 156.18 81.82 151.79 91.23 155.79L115.65 166.19C126.4 170.77 131.43 183.24 126.85 193.99C123.42 202.04 115.57 206.88 107.32 206.88ZM99.44 204.27C109.69 208.63 121.57 203.84 125.93 193.6C130.29 183.35 125.5 171.47 115.26 167.11L90.84 156.71C81.94 152.92 71.62 157.08 67.83 165.98L65.75 170.87C61.96 179.77 66.12 190.09 75.02 193.88L99.44 204.27Z" fill="#89C764"/>
<path d="M92.2608 201.563L113.452 210.58C123.96 215.051 128.861 227.211 124.389 237.719C119.918 248.227 107.759 253.128 97.2504 248.656L76.0591 239.639C66.2225 235.454 61.6432 224.072 65.8248 214.245L66.8702 211.788C71.0557 201.951 82.4373 197.372 92.2647 201.554L92.2608 201.563Z" fill="#192548"/>
<path d="M105.3 250.82C102.54 250.82 99.73 250.28 97.03 249.13L75.84 240.11C70.98 238.04 67.21 234.18 65.22 229.25C63.23 224.32 63.28 218.92 65.35 214.06L66.39 211.61C70.68 201.53 82.36 196.83 92.44 201.11L113.63 210.13C124.38 214.71 129.41 227.18 124.83 237.93C121.4 245.98 113.55 250.82 105.3 250.82ZM84.69 200.52C77.35 200.52 70.36 204.83 67.31 211.99L66.27 214.44C64.31 219.06 64.26 224.18 66.15 228.87C68.04 233.56 71.62 237.22 76.24 239.18L97.43 248.2C107.68 252.56 119.56 247.77 123.92 237.53C128.28 227.28 123.49 215.4 113.25 211.04L92.06 202.02C89.66 201 87.16 200.51 84.7 200.51L84.69 200.52Z" fill="#89C764"/>
<path d="M111.828 254.676L93.4892 246.873C82.9747 242.399 70.8242 247.296 66.3502 257.811L66.3463 257.82C61.8723 268.334 66.7691 280.485 77.2836 284.959L95.6225 292.762C106.137 297.236 118.288 292.339 122.762 281.825L122.765 281.815C127.239 271.301 122.343 259.15 111.828 254.676Z" fill="#192548"/>
<path d="M103.67 294.91C100.91 294.91 98.1 294.37 95.4 293.22L77.07 285.42C71.88 283.21 67.86 279.1 65.73 273.83C63.61 268.56 63.66 262.81 65.86 257.62C68.07 252.43 72.18 248.41 77.45 246.28C82.72 244.16 88.47 244.21 93.66 246.41L111.99 254.21C117.18 256.42 121.2 260.53 123.33 265.8C125.45 271.07 125.4 276.82 123.2 282.01C119.77 290.06 111.92 294.9 103.67 294.9V294.91ZM85.42 245.72C82.86 245.72 80.29 246.21 77.83 247.2C72.81 249.22 68.89 253.06 66.79 258C64.69 262.94 64.64 268.43 66.66 273.45C68.68 278.47 72.52 282.39 77.46 284.49L95.79 292.29C106.04 296.65 117.92 291.86 122.28 281.62C124.38 276.68 124.43 271.19 122.41 266.17C120.39 261.15 116.55 257.23 111.61 255.13L93.28 247.33C90.76 246.26 88.09 245.72 85.42 245.72Z" fill="#89C764"/>
<path d="M292.42 215.98V186.72L278.58 178.22C265.35 170.09 261.48 152.62 270.04 139.66C273.83 133.92 281.48 132.21 287.36 135.77L321.72 156.58C329.84 161.5 334.81 170.31 334.81 179.81V228.19C334.81 228.19 334.85 234.33 334.81 244.2C334.77 254.57 331.48 290.68 308.69 299.92" fill="#192548"/>
<path d="M308.86 300.38L308.48 299.45C333.81 289.19 334.28 246.03 334.29 244.19C334.33 234.44 334.29 228.24 334.29 228.18V179.8C334.29 170.54 329.37 161.8 321.44 157L287.08 136.2C281.41 132.76 274.1 134.41 270.44 139.94C266.37 146.09 265.01 153.45 266.61 160.65C268.2 167.85 272.54 173.94 278.83 177.8L292.91 186.45V215.98H291.91V187L278.31 178.64C271.79 174.64 267.29 168.32 265.64 160.85C263.99 153.38 265.4 145.76 269.62 139.38C273.58 133.4 281.48 131.62 287.61 135.34L321.97 156.14C330.19 161.12 335.3 170.18 335.3 179.79V228.17C335.3 228.23 335.34 234.43 335.3 244.19C335.3 246.05 334.81 289.86 308.87 300.37L308.86 300.38Z" fill="#89C764"/>
<path d="M313.417 322.394L313.107 323.345L329.68 328.743L329.99 327.792L313.417 322.394Z" fill="#89C764"/>
<path d="M99.61 198.62C98.39 198.62 97.15 198.38 95.95 197.87L96.34 196.95C100.59 198.75 105.51 196.77 107.32 192.53L112.2 181.07C113.07 179.02 113.09 176.75 112.25 174.67C111.41 172.59 109.82 170.96 107.77 170.09L108.16 169.17C112.91 171.19 115.14 176.71 113.11 181.46L108.23 192.92C106.71 196.48 103.24 198.62 99.59 198.62H99.61Z" fill="#89C764"/>
<path d="M98.57 120.74C101.82 122.12 103.35 125.91 101.96 129.16L95.16 145.13C93.78 148.38 89.99 149.91 86.74 148.52" fill="#192548"/>
<path d="M89.25 149.53C88.33 149.53 87.42 149.35 86.56 148.98L86.95 148.06C88.4 148.68 90.01 148.69 91.48 148.1C92.95 147.51 94.1 146.38 94.72 144.93L101.52 128.96C102.8 125.96 101.39 122.47 98.39 121.19L98.78 120.27C102.29 121.76 103.93 125.84 102.44 129.35L95.64 145.32C94.92 147.01 93.58 148.33 91.86 149.02C91.02 149.36 90.14 149.53 89.26 149.53H89.25Z" fill="#89C764"/>
<path d="M99.61 243.47C98.39 243.47 97.15 243.23 95.95 242.72L96.34 241.8C100.59 243.6 105.51 241.62 107.32 237.38L112.2 225.92C113.07 223.87 113.09 221.6 112.25 219.52C111.41 217.44 109.82 215.81 107.77 214.94L108.16 214.02C112.91 216.04 115.14 221.56 113.11 226.31L108.23 237.77C106.71 241.33 103.24 243.47 99.59 243.47H99.61Z" fill="#89C764"/>
<path d="M99.61 288.32C98.39 288.32 97.15 288.08 95.95 287.57L96.34 286.65C100.59 288.45 105.51 286.47 107.32 282.23L112.2 270.77C113.07 268.72 113.09 266.45 112.25 264.37C111.41 262.29 109.82 260.66 107.77 259.79L108.16 258.87C112.91 260.89 115.14 266.41 113.11 271.16L108.23 282.62C106.71 286.18 103.24 288.32 99.59 288.32H99.61Z" fill="#89C764"/>
<path d="M296.81 156.02C294.19 156.02 291.65 154.75 290.11 152.51L286.69 147.54C284.22 143.94 284.12 139.23 286.44 135.53L287.29 136.06C285.18 139.42 285.27 143.7 287.51 146.97L290.93 151.94C292.73 154.56 296.09 155.67 299.1 154.64L299.42 155.59C298.56 155.88 297.68 156.02 296.81 156.02Z" fill="#89C764"/>
<path d="M301.92 335.7C297.02 337.89 289.48 339.56 282.89 340.72C274.82 342.14 268.52 333.59 268.9 330.35C268.9 330.35 269.61 327.5 269.61 324.49C269.61 288.62 269.37 181.01 269.37 181.01L311.76 200.67" fill="#192548"/>
<path d="M352.9 288.84H331.46V289.84H352.9V288.84Z" fill="white"/>
<path d="M319.46 288.84H308.45V289.84H319.46V288.84Z" fill="white"/>
<path d="M304.38 288.84H256.56V289.84H304.38V288.84Z" fill="white"/>
<path d="M243.12 288.84H224.92V289.84H243.12V288.84Z" fill="white"/>
<path d="M265.213 256.703L227.476 272.783L227.868 273.703L265.605 257.623L265.213 256.703Z" fill="white"/>
<path d="M337.178 187.977L276.994 230.133L277.568 230.952L337.752 188.796L337.178 187.977Z" fill="white"/>
<path d="M270.695 234.544L256.279 244.642L256.853 245.461L271.269 235.363L270.695 234.544Z" fill="white"/>
<path d="M252.101 247.577L232.736 261.136L233.309 261.956L252.674 248.396L252.101 247.577Z" fill="white"/>
<path d="M267.035 372.267L266.279 372.922L281.626 390.639L282.382 389.984L267.035 372.267Z" fill="white"/>
<path d="M230.799 330.433L230.043 331.088L259.205 364.753L259.961 364.099L230.799 330.433Z" fill="white"/>
<path d="M217.845 315.502L217.089 316.157L226.583 327.116L227.339 326.462L217.845 315.502Z" fill="white"/>
<path d="M228.814 379.309L227.884 379.676L231.919 389.92L232.849 389.553L228.814 379.309Z" fill="white"/>
<path d="M216.349 347.665L215.418 348.032L225.431 373.451L226.362 373.084L216.349 347.665Z" fill="white"/>
<path d="M210.104 331.803L209.173 332.169L213.223 342.45L214.153 342.084L210.104 331.803Z" fill="white"/>
<path d="M144.91 391.3L123.81 440H124.9L145.82 391.7L144.91 391.3Z" fill="white"/>
<path d="M164.911 345.121L149.273 381.155L150.191 381.553L165.828 345.52L164.911 345.121Z" fill="white"/>
<path d="M173.332 325.677L168.614 336.548L169.531 336.946L174.249 326.075L173.332 325.677Z" fill="white"/>
<path d="M177.689 315.613L175.344 321.016L176.261 321.414L178.606 316.011L177.689 315.613Z" fill="white"/>
<path d="M87.9894 381.854L62.0736 407.1L62.7714 407.816L88.6872 382.57L87.9894 381.854Z" fill="white"/>
<path d="M122.888 347.833L93.4194 376.54L94.1172 377.257L123.586 348.55L122.888 347.833Z" fill="white"/>
<path d="M142.704 328.494L127.067 343.727L127.765 344.443L143.402 329.21L142.704 328.494Z" fill="white"/>
<path d="M126.236 319.26L117.09 323.546L117.514 324.451L126.66 320.165L126.236 319.26Z" fill="white"/>
<path d="M156.095 305.247L130.765 317.134L131.19 318.039L156.52 306.152L156.095 305.247Z" fill="white"/>
<path d="M23.6449 311.559L0.0689697 314.345L0.186334 315.338L23.7623 312.552L23.6449 311.559Z" fill="white"/>
<path d="M72.8321 305.773L31.3383 310.655L31.4552 311.648L72.949 306.767L72.8321 305.773Z" fill="white"/>
<path d="M136.74 298.261L88.8105 303.9L88.9273 304.893L136.857 299.254L136.74 298.261Z" fill="white"/>
<path d="M124.305 271.169L124.049 272.135L142.69 277.06L142.945 276.094L124.305 271.169Z" fill="white"/>
<path d="M148.215 277.483L147.96 278.45L157.212 280.894L157.468 279.927L148.215 277.483Z" fill="white"/>
<path d="M161.984 281.125L161.728 282.092L167.23 283.545L167.485 282.578L161.984 281.125Z" fill="white"/>
<path d="M60.3809 215.052L59.9044 215.931L69.1266 220.93L69.6032 220.051L60.3809 215.052Z" fill="white"/>
<path d="M75.0098 222.956L74.5334 223.835L88.0297 231.148L88.5061 230.269L75.0098 222.956Z" fill="white"/>
<path d="M93.572 233.011L93.0956 233.89L122.559 249.854L123.035 248.975L93.572 233.011Z" fill="white"/>
<path d="M131.526 253.58L131.049 254.46L156.072 268.018L156.549 267.139L131.526 253.58Z" fill="white"/>
<path d="M156.77 208.067L155.867 208.496L167.173 232.275L168.076 231.846L156.77 208.067Z" fill="white"/>
<path d="M170.616 237.165L169.713 237.594L174.449 247.555L175.352 247.126L170.616 237.165Z" fill="white"/>
<path d="M177.237 251.124L176.334 251.553L181.217 261.821L182.12 261.392L177.237 251.124Z" fill="white"/>
<path d="M163.548 142.057L162.574 142.285L168.913 169.352L169.886 169.124L163.548 142.057Z" fill="white"/>
<path d="M211.246 218.139L210.165 223.624L211.146 223.817L212.227 218.332L211.246 218.139Z" fill="white"/>
<path d="M209.484 226.961L206.51 241.979L207.491 242.173L210.465 227.155L209.484 226.961Z" fill="white"/>
<path d="M205.374 247.767L203.297 258.294L204.278 258.488L206.355 247.961L205.374 247.767Z" fill="white"/>
<path d="M251.817 188.121L248.815 193.43L249.685 193.923L252.688 188.613L251.817 188.121Z" fill="white"/>
<path d="M246.743 197.076L239.044 210.69L239.914 211.182L247.614 197.568L246.743 197.076Z" fill="white"/>
<path d="M236.006 216.037L217.043 249.567L217.914 250.059L236.876 216.53L236.006 216.037Z" fill="white"/>
<path d="M326.487 361.208L325.986 362.073L343.36 372.14L343.861 371.275L326.487 361.208Z" fill="white"/>
<path d="M306.125 349.403L305.624 350.268L320.999 359.177L321.5 358.312L306.125 349.403Z" fill="white"/>
<path d="M201.022 393.852L200.023 393.901L201.465 423.496L202.464 423.447L201.022 393.852Z" fill="white"/>
<path d="M360.612 227.61L339.594 234.472L339.904 235.422L360.923 228.561L360.612 227.61Z" fill="white"/>
<path d="M64.9591 162.714L64.2697 163.439L86.5382 184.63L87.2275 183.906L64.9591 162.714Z" fill="white"/>
<path d="M19.8665 271.152L19.7991 272.15L42.9565 273.712L43.0238 272.714L19.8665 271.152Z" fill="white"/>
<path d="M265.04 414.01L279.1 440H280.23L265.92 413.53L265.04 414.01Z" fill="white"/>
<path d="M340.554 410.117L339.824 410.799L352.534 424.406L353.265 423.723L340.554 410.117Z" fill="white"/>
<path d="M41.46 365.18L0 386.45V387.58L41.92 366.07L41.46 365.18Z" fill="white"/>
<path d="M33.32 181.96L0 159.65V160.85L32.76 182.79L33.32 181.96Z" fill="white"/>
<path d="M19.835 231.575L19.5225 232.525L54.6884 244.094L55.0009 243.144L19.835 231.575Z" fill="white"/>
<path d="M352.53 71.963L333.247 97.9751L334.05 98.5706L353.333 72.5586L352.53 71.963Z" fill="white"/>
<path d="M327.211 106.084L306.802 133.626L307.605 134.222L328.015 106.68L327.211 106.084Z" fill="white"/>
<path d="M287.58 159.597L263.908 191.53L264.712 192.126L288.384 160.193L287.58 159.597Z" fill="white"/>
<path d="M81.9915 19.8521L81.0663 20.2316L90.7993 43.9632L91.7245 43.5837L81.9915 19.8521Z" fill="white"/>
<path d="M57.6925 75.0441L56.8664 75.6077L67.0437 90.527L67.8698 89.9635L57.6925 75.0441Z" fill="white"/>
<path d="M6.32 85.93L0 79.46V80.89L5.61 86.63L6.32 85.93Z" fill="white"/>
<path d="M309.898 24.2723L301.501 38.3593L302.36 38.8713L310.757 24.7844L309.898 24.2723Z" fill="white"/>
<path d="M224.07 8.58L224.92 0H223.91L223.07 8.49L224.07 8.58Z" fill="white"/>
<path d="M261.25 288.97H256.56V289.72H261.25V288.97Z" fill="#A7AEB7"/>
<path d="M243.12 288.97H224.92V289.72H243.12V288.97Z" fill="#A7AEB7"/>
<path d="M261.106 258.576L227.539 272.887L227.833 273.577L261.4 259.266L261.106 258.576Z" fill="#A7AEB7"/>
<path d="M261.037 241.465L256.343 244.751L256.773 245.365L261.467 242.08L261.037 241.465Z" fill="#A7AEB7"/>
<path d="M252.179 247.667L232.811 261.223L233.241 261.838L252.609 248.282L252.179 247.667Z" fill="#A7AEB7"/>
<path d="M230.7 330.509L230.133 331L238.861 341.076L239.428 340.585L230.7 330.509Z" fill="#A7AEB7"/>
<path d="M217.747 315.587L217.18 316.078L226.674 327.038L227.241 326.547L217.747 315.587Z" fill="#A7AEB7"/>
<path d="M209.959 331.881L209.262 332.156L212.745 341.005L213.443 340.73L209.959 331.881Z" fill="#A7AEB7"/>
<path d="M173.442 325.725L168.724 336.595L169.412 336.894L174.13 326.024L173.442 325.725Z" fill="#A7AEB7"/>
<path d="M177.799 315.661L175.454 321.064L176.142 321.363L178.487 315.959L177.799 315.661Z" fill="#A7AEB7"/>
<path d="M142.788 328.586L133.341 337.792L133.865 338.329L143.311 329.124L142.788 328.586Z" fill="#A7AEB7"/>
<path d="M156.17 305.356L130.832 317.226L131.151 317.905L156.488 306.036L156.17 305.356Z" fill="#A7AEB7"/>
<path d="M136.785 298.362L126.338 299.597L126.426 300.342L136.873 299.107L136.785 298.362Z" fill="#A7AEB7"/>
<path d="M126.466 271.863L126.274 272.589L142.729 276.936L142.921 276.211L126.466 271.863Z" fill="#A7AEB7"/>
<path d="M148.182 277.608L147.99 278.333L157.243 280.778L157.434 280.053L148.182 277.608Z" fill="#A7AEB7"/>
<path d="M161.953 281.241L161.762 281.966L167.263 283.42L167.454 282.694L161.953 281.241Z" fill="#A7AEB7"/>
<path d="M131.469 253.686L131.111 254.345L156.134 267.904L156.492 267.244L131.469 253.686Z" fill="#A7AEB7"/>
<path d="M156.653 208.123L155.975 208.445L167.282 232.224L167.959 231.902L156.653 208.123Z" fill="#A7AEB7"/>
<path d="M170.507 237.216L169.83 237.538L174.566 247.5L175.244 247.177L170.507 237.216Z" fill="#A7AEB7"/>
<path d="M177.12 251.179L176.443 251.501L181.325 261.77L182.002 261.448L177.12 251.179Z" fill="#A7AEB7"/>
<path d="M207.36 242.15L206.63 242L209.6 226.98L210.34 227.13L207.36 242.15Z" fill="#A7AEB7"/>
<path d="M204.14 258.44L203.4 258.29L205.49 247.77L206.22 247.92L204.14 258.44Z" fill="#A7AEB7"/>
<path d="M251.933 188.185L248.929 193.495L249.582 193.864L252.586 188.555L251.933 188.185Z" fill="#A7AEB7"/>
<path d="M246.848 197.138L239.147 210.75L239.799 211.119L247.501 197.507L246.848 197.138Z" fill="#A7AEB7"/>
<path d="M236.108 216.103L217.139 249.629L217.792 249.998L236.76 216.472L236.108 216.103Z" fill="#A7AEB7"/>
<path d="M167.369 133.875L166.627 133.984L168.363 145.727L169.105 145.617L167.369 133.875Z" fill="#A7AEB7"/>
<path d="M217.425 145.597L214.297 165.391L215.037 165.508L218.165 145.714L217.425 145.597Z" fill="#A7AEB7"/>
</svg>
