<svg width="375" height="375" viewBox="0 0 375 375" fill="none" xmlns="http://www.w3.org/2000/svg">
<g clip-path="url(#clip0_8489_15670)">
<g clip-path="url(#clip1_8489_15670)">
<path d="M383.35 328.84H0.650391V329.84H383.35V328.84Z" fill="#19A3DD"/>
<path d="M383.35 324.81H0.650391V325.81H383.35V324.81Z" fill="#19A3DD"/>
<path d="M132.45 314.53H0.650391V313.53H132.45C137.94 313.53 143.43 312.91 148.78 311.67L157.46 309.67L157.68 310.64L149 312.64C143.58 313.89 138.01 314.52 132.45 314.52V314.53Z" fill="#19A3DD"/>
<path d="M383.35 309.66H0.650391V310.66H383.35V309.66Z" fill="#19A3DD"/>
<path d="M383.35 168.2H0.650391V169.2H383.35V168.2Z" fill="#19A3DD"/>
<path d="M383.35 20H0.650391V21H383.35V20Z" fill="#19A3DD"/>
<path d="M244.73 203.82H164.54V310.15H244.73V203.82Z" fill="#192548"/>
<path d="M245.22 310.66H164.03V203.33H245.22V310.66ZM165.03 309.66H244.22V204.33H165.03V309.66Z" fill="#19A3DD"/>
<path d="M239.83 208.38H169.43V310.16H239.83V208.38Z" fill="#192548"/>
<path d="M240.33 310.66H168.93V207.88H240.33V310.66ZM169.93 309.66H239.33V208.88H169.93V309.66Z" fill="#19A3DD"/>
<path d="M205.13 208.38H204.13V310.16H205.13V208.38Z" fill="#19A3DD"/>
<path d="M200.4 262H173.3V212.56H200.4V262ZM174.3 261H199.4V213.56H174.3V261Z" fill="#19A3DD"/>
<path d="M235.97 262H208.87V212.56H235.97V262ZM209.87 261H234.97V213.56H209.87V261Z" fill="#19A3DD"/>
<path d="M204.63 269.73L197.55 268.73V257.99L204.63 256.99V269.73Z" fill="#192548"/>
<path d="M205.13 270.31L197.05 269.17V257.56L205.13 256.42V270.31ZM198.05 268.3L204.13 269.16V257.57L198.05 258.43V268.3Z" fill="#19A3DD"/>
<path d="M159.57 235.59H147.18V261.5H159.57V235.59Z" fill="#192548"/>
<path d="M160.06 262H146.67V235.09H160.06V262ZM147.67 261H159.06V236.09H147.67V261Z" fill="#19A3DD"/>
<path d="M152.32 238.97H149.32V239.97H152.32V238.97Z" fill="#19A3DD"/>
<path d="M152.32 243.51H149.32V244.51H152.32V243.51Z" fill="#19A3DD"/>
<path d="M152.32 248.04H149.32V249.04H152.32V248.04Z" fill="#19A3DD"/>
<path d="M152.32 252.58H149.32V253.58H152.32V252.58Z" fill="#19A3DD"/>
<path d="M152.32 257.11H149.32V258.11H152.32V257.11Z" fill="#19A3DD"/>
<path d="M157.42 238.97H154.42V239.97H157.42V238.97Z" fill="#19A3DD"/>
<path d="M157.42 243.51H154.42V244.51H157.42V243.51Z" fill="#19A3DD"/>
<path d="M157.42 248.04H154.42V249.04H157.42V248.04Z" fill="#19A3DD"/>
<path d="M157.42 252.58H154.42V253.58H157.42V252.58Z" fill="#19A3DD"/>
<path d="M157.42 257.11H154.42V258.11H157.42V257.11Z" fill="#19A3DD"/>
<path d="M265.9 189.86H88.9404V178.95H265.9V189.86ZM89.9404 188.86H264.9V179.95H89.9404V188.86Z" fill="#19A3DD"/>
<path d="M307.41 189.86H264.9V178.95H307.41V189.86ZM265.9 188.86H306.41V179.95H265.9V188.86Z" fill="#19A3DD"/>
<path d="M139.55 269.11H119.43L119.14 299.25L105 329.7L108.58 331.84L125.27 301.47L127.42 274.79C127.51 273.71 128.41 272.88 129.49 272.88C130.57 272.88 131.47 273.7 131.56 274.77L137.59 341.78H141.76L139.54 269.1L139.55 269.11Z" fill="#D9D9D9"/>
<path d="M130.26 234.49C125.8 234.49 122.08 237.91 121.7 242.35L119.43 269.11H139.55L138.8 242.13C138.32 237.78 134.64 234.48 130.26 234.48V234.49Z" fill="#89C764"/>
<path d="M134.93 239.68C134.53 239.68 134.13 239.52 133.84 239.21C133.27 238.61 133.3 237.66 133.9 237.09L146.73 224.97L146.83 202.81C146.83 201.98 147.5 201.32 148.33 201.32C149.16 201.32 149.83 202 149.82 202.83L149.71 225.63C149.71 226.04 149.54 226.43 149.24 226.71L135.94 239.27C135.65 239.54 135.28 239.68 134.91 239.68H134.93Z" fill="#3472AF"/>
<path d="M107.73 282.01C106.9 282.01 106.23 281.34 106.23 280.51V259.82C106.23 259.48 106.35 259.15 106.56 258.88L120.54 241.41C121.06 240.76 122 240.66 122.65 241.18C123.3 241.7 123.4 242.64 122.88 243.29L109.23 260.35V280.51C109.23 281.34 108.56 282.01 107.73 282.01Z" fill="#3472AF"/>
<path d="M131.97 237.83L134.51 241.24L141.1 235.81L137.52 232.01L131.97 237.83Z" fill="#89C764"/>
<path d="M115.12 244.34L119.43 249.16L123.79 244.83L119.78 240.77L115.12 244.34Z" fill="#89C764"/>
<path d="M133.46 227.29L133.91 229.93C134.1 231.06 133.28 232.1 132.14 232.21C128.36 232.59 125.47 231.94 124.92 228.75C124.27 224.99 125.66 221.61 128.02 221.2C130.38 220.79 132.81 223.52 133.45 227.28L133.46 227.29Z" fill="#3472AF"/>
<path d="M131.59 231.73L132.21 234.37C132.32 234.86 132.03 235.34 131.54 235.46C131.03 235.59 130.52 235.26 130.42 234.75L129.88 231.92L131.59 231.73Z" fill="#3472AF"/>
<path d="M130.77 220.29C129.7 218.86 127.74 218.12 125.44 218.1C122.06 218.08 119.32 219.92 117.58 222.39C111.79 230.6 123.55 241.05 117.58 250.02C122.18 250.11 126.77 250.21 131.37 250.3C137.13 241.65 126.74 232.67 131.34 224C132.06 222.86 131.7 221.51 130.79 220.29H130.77Z" fill="#214082"/>
<path d="M146.83 203.27L145.14 199.23L145.86 195.16C145.96 194.59 146.42 194.15 147 194.08C147.7 193.99 148.34 194.47 148.46 195.16L149.84 202.84L146.84 203.28L146.83 203.27Z" fill="#3472AF"/>
<path d="M109.78 287.99L107.94 281.33C107.9 281.18 107.78 281.16 107.71 281.16C107.64 281.16 107.52 281.18 107.48 281.33L105.64 287.99L104.68 287.72L106.52 281.06C106.67 280.52 107.15 280.15 107.71 280.15C108.27 280.15 108.75 280.52 108.9 281.06L110.74 287.72L109.78 287.99Z" fill="#19A3DD"/>
<path d="M115.12 302.23H100.29L101.29 287.04H114.12L115.12 302.23Z" fill="#D9D9D9"/>
<path d="M137.61 341.79V345.4H147.07V344.24L141.78 341.79H137.61Z" fill="#214082"/>
<path d="M105.01 329.7L103.15 332.8L111.26 337.66L111.86 336.67L108.58 331.84L105.01 329.7Z" fill="#214082"/>
<path d="M178.94 197.77H173.73C169.1 197.77 165.33 194 165.33 189.37V188.87H187.34V189.37C187.34 194 183.57 197.77 178.94 197.77ZM166.34 189.87C166.6 193.72 169.81 196.77 173.73 196.77H178.94C182.85 196.77 186.07 193.72 186.33 189.87H166.35H166.34Z" fill="#19A3DD"/>
<path d="M393.42 120.95H306.76V47.22H393.42V120.95ZM307.76 119.95H392.42V48.22H307.76V119.95Z" fill="#19A3DD"/>
<path d="M393.07 275.15H306.41V201.42H393.07V275.15ZM307.41 274.15H392.07V202.42H307.41V274.15Z" fill="#19A3DD"/>
<path d="M103.21 120.95H16.5503V47.22H103.21V120.95ZM17.5503 119.95H102.21V48.22H17.5503V119.95Z" fill="#19A3DD"/>
<path d="M103.21 276.71H16.5503V202.98H103.21V276.71ZM17.5503 275.71H102.21V203.98H17.5503V275.71Z" fill="#19A3DD"/>
<path d="M204.63 52.77H166.95V115.39H204.63V52.77Z" fill="#3472AF"/>
<path d="M162.48 57.8999H161.48V110.26H162.48V57.8999Z" fill="#19A3DD"/>
<path d="M248.14 120.95H161.48V115.39H162.48V119.95H247.14V48.22H162.48V52.77H161.48V47.22H248.14V120.95Z" fill="#19A3DD"/>
<path d="M243.17 115.89H166.46V52.27H243.17V115.89ZM167.46 114.89H242.17V53.27H167.46V114.89Z" fill="#19A3DD"/>
<path d="M167.45 115.89H139.5V52.27H167.45V115.89ZM140.5 114.89H166.45V53.27H140.5V114.89Z" fill="#19A3DD"/>
<path d="M205.13 52.77H204.13V115.39H205.13V52.77Z" fill="#19A3DD"/>
<path d="M162.48 110.76H143.97V57.3999H162.48V110.76ZM144.97 109.76H161.48V58.3999H144.97V109.76Z" fill="#19A3DD"/>
<path d="M237.74 57.8999H209.33V110.26H237.74V57.8999Z" fill="#3472AF"/>
<path d="M238.24 110.76H208.83V57.3999H238.24V110.76ZM209.83 109.76H237.24V58.3999H209.83V109.76Z" fill="#19A3DD"/>
<path d="M388.45 115.89H311.74V52.27H388.45V115.89ZM312.74 114.89H387.45V53.27H312.74V114.89Z" fill="#19A3DD"/>
<path d="M345.71 110.76H316.3V57.3999H345.71V110.76ZM317.3 109.76H344.71V58.3999H317.3V109.76Z" fill="#19A3DD"/>
<path d="M383.85 110.76H354.44V57.3999H383.85V110.76ZM355.44 109.76H382.85V58.3999H355.44V109.76Z" fill="#19A3DD"/>
<path d="M140.5 115.89H136.06V52.27H140.5V115.89ZM137.06 114.89H139.5V53.27H137.06V114.89Z" fill="#19A3DD"/>
<path d="M215.9 62.3329L214.947 62.6343L222.912 87.8355L223.866 87.5341L215.9 62.3329Z" fill="#19A3DD"/>
<path d="M152.08 84.9101L151.126 85.2114L159.092 110.413L160.045 110.111L152.08 84.9101Z" fill="#19A3DD"/>
<path d="M224.01 69.9545L223.056 70.2559L231.021 95.457L231.975 95.1557L224.01 69.9545Z" fill="#19A3DD"/>
<path d="M154.497 68.6366L153.543 68.938L161.509 94.1392L162.462 93.8378L154.497 68.6366Z" fill="#19A3DD"/>
<path d="M27.1752 66.0863L26.2217 66.3877L34.1869 91.5889L35.1404 91.2875L27.1752 66.0863Z" fill="#19A3DD"/>
<path d="M77.9174 80.8581L76.9639 81.1594L84.9291 106.361L85.8826 106.059L77.9174 80.8581Z" fill="#19A3DD"/>
<path d="M37.3944 77.581L36.4409 77.8823L46.7207 110.406L47.6742 110.105L37.3944 77.581Z" fill="#19A3DD"/>
<path d="M76.7582 57.7509L75.8047 58.0522L86.0875 90.5859L87.041 90.2845L76.7582 57.7509Z" fill="#19A3DD"/>
<path d="M216.879 213.281L215.925 213.583L226.208 246.116L227.162 245.815L216.879 213.281Z" fill="#19A3DD"/>
<path d="M190.106 219.158L189.153 219.46L199.436 251.993L200.389 251.692L190.106 219.158Z" fill="#19A3DD"/>
<path d="M181.43 212.883L180.476 213.184L190.759 245.718L191.712 245.417L181.43 212.883Z" fill="#19A3DD"/>
<path d="M215.395 228.806L214.441 229.107L224.724 261.641L225.678 261.339L215.395 228.806Z" fill="#19A3DD"/>
<path d="M350.59 52.9399H349.59V115.56H350.59V52.9399Z" fill="#19A3DD"/>
<path d="M98.3404 115.89H21.6304V52.27H98.3404V115.89ZM22.6304 114.89H97.3404V53.27H22.6304V114.89Z" fill="#19A3DD"/>
<path d="M55.6102 110.76H26.2002V57.3999H55.6102V110.76ZM27.2002 109.76H54.6102V58.3999H27.2002V109.76Z" fill="#19A3DD"/>
<path d="M93.7401 110.76H64.3301V57.3999H93.7401V110.76ZM65.3301 109.76H92.7401V58.3999H65.3301V109.76Z" fill="#19A3DD"/>
<path d="M317.268 66.0814L316.314 66.3828L324.28 91.584L325.233 91.2826L317.268 66.0814Z" fill="#19A3DD"/>
<path d="M367.341 80.8519L366.387 81.1533L374.352 106.355L375.306 106.053L367.341 80.8519Z" fill="#19A3DD"/>
<path d="M327.153 77.5653L326.199 77.8667L336.479 110.391L337.433 110.089L327.153 77.5653Z" fill="#19A3DD"/>
<path d="M366.182 57.7348L365.229 58.0361L375.508 90.5602L376.462 90.2589L366.182 57.7348Z" fill="#19A3DD"/>
<path d="M98.2403 271.57H21.5303V207.95H98.2403V271.57ZM22.5303 270.57H97.2403V208.95H22.5303V270.57Z" fill="#19A3DD"/>
<path d="M55.5003 266.44H26.0903V213.08H55.5003V266.44ZM27.0903 265.44H54.5003V214.08H27.0903V265.44Z" fill="#19A3DD"/>
<path d="M93.6405 266.44H64.2305V213.08H93.6405V266.44ZM65.2305 265.44H92.6405V214.08H65.2305V265.44Z" fill="#19A3DD"/>
<path d="M60.3804 208.62H59.3804V271.24H60.3804V208.62Z" fill="#19A3DD"/>
<path d="M27.058 221.774L26.1045 222.076L34.0697 247.277L35.0233 246.976L27.058 221.774Z" fill="#19A3DD"/>
<path d="M77.141 236.535L76.1875 236.836L84.1527 262.038L85.1063 261.736L77.141 236.535Z" fill="#19A3DD"/>
<path d="M36.9623 233.256L36.0088 233.557L46.2916 266.091L47.2451 265.789L36.9623 233.256Z" fill="#19A3DD"/>
<path d="M75.9818 213.428L75.0283 213.729L85.3111 246.263L86.2646 245.962L75.9818 213.428Z" fill="#19A3DD"/>
<path d="M60.4805 52.9399H59.4805V115.56H60.4805V52.9399Z" fill="#19A3DD"/>
<path d="M317.284 220.2L316.331 220.501L324.296 245.702L325.249 245.401L317.284 220.2Z" fill="#19A3DD"/>
<path d="M368.026 234.962L367.073 235.263L375.038 260.464L375.992 260.163L368.026 234.962Z" fill="#19A3DD"/>
<path d="M327.514 231.684L326.56 231.986L336.843 264.519L337.796 264.218L327.514 231.684Z" fill="#19A3DD"/>
<path d="M366.868 211.854L365.914 212.156L376.194 244.68L377.147 244.379L366.868 211.854Z" fill="#19A3DD"/>
<path d="M388.45 270.01H311.74V206.39H388.45V270.01ZM312.74 269.01H387.45V207.39H312.74V269.01Z" fill="#19A3DD"/>
<path d="M345.72 264.88H316.31V211.52H345.72V264.88ZM317.31 263.88H344.72V212.52H317.31V263.88Z" fill="#19A3DD"/>
<path d="M383.85 264.88H354.44V211.52H383.85V264.88ZM355.44 263.88H382.85V212.52H355.44V263.88Z" fill="#19A3DD"/>
<path d="M350.59 207.06H349.59V269.68H350.59V207.06Z" fill="#19A3DD"/>
<path d="M65.46 276.13C68.7 271.02 69.05 265.08 65.84 261.09C61.49 255.69 52.28 255.9 45.25 261.56C44.79 261.93 44.35 262.32 43.93 262.72C39.95 253.89 28.57 247.51 15.13 247.51C-1.62 247.51 -15.19 257.41 -15.19 269.61C-15.19 270.12 -15.13 270.63 -15.08 271.13C-18.32 270.18 -21.83 269.65 -25.51 269.65C-41.52 269.65 -54.5 279.45 -54.5 291.53C-54.5 303.61 -41.52 313.41 -25.51 313.41C-20.8 313.41 -16.36 312.54 -12.43 311.04C-6.31 314.12 2.74 313.78 12.25 313.78C22.98 313.78 48.37 313.41 54.4 313.41C69.83 313.41 82.33 304.71 82.33 293.97C82.33 285.97 75.38 279.11 65.46 276.12V276.13Z" fill="#192548"/>
<path d="M7.17023 314.3C-0.359768 314.3 -7.35977 314.08 -12.4698 311.59C-16.5798 313.13 -20.9698 313.92 -25.5198 313.92C-41.7798 313.92 -55.0098 303.88 -55.0098 291.54C-55.0098 279.2 -41.7798 269.16 -25.5198 269.16C-22.1698 269.16 -18.8498 269.6 -15.6498 270.47C-15.6698 270.19 -15.6898 269.91 -15.6898 269.63C-15.6898 257.17 -1.85976 247.03 15.1302 247.03C28.1502 247.03 39.6702 252.98 44.0902 261.91C44.3702 261.66 44.6502 261.42 44.9302 261.19C52.1602 255.37 61.7002 255.19 66.2202 260.8C69.3602 264.69 69.3302 270.55 66.2202 275.86C76.3302 279.1 82.8302 286.16 82.8302 293.99C82.8302 304.98 70.0802 313.93 54.4002 313.93C51.8202 313.93 45.7202 314 38.6602 314.08C29.1502 314.19 18.3802 314.3 12.2502 314.3H9.68024C8.84024 314.3 8.01023 314.31 7.18023 314.31L7.17023 314.3ZM-12.4098 310.5L-12.2098 310.6C-6.74977 313.35 1.23024 313.32 9.67023 313.29H12.2502C18.3802 313.29 29.1502 313.17 38.6502 313.06C45.7102 312.98 51.8102 312.91 54.4002 312.91C69.5302 312.91 81.8302 304.42 81.8302 293.97C81.8302 286.43 75.3502 279.62 65.3102 276.6L64.6802 276.41L65.0302 275.85C68.2502 270.76 68.4202 265.09 65.4402 261.4C61.2702 256.23 52.3502 256.47 45.5602 261.95C45.1302 262.3 44.7102 262.67 44.2702 263.08L43.7602 263.57L43.4702 262.93C39.4502 254.01 28.0602 248.02 15.1302 248.02C-1.30977 248.02 -14.6898 257.71 -14.6898 269.62C-14.6898 270.04 -14.6498 270.45 -14.6098 270.86L-14.5198 271.83L-15.2298 271.62C-18.5598 270.65 -22.0198 270.16 -25.5198 270.16C-41.2298 270.16 -54.0098 279.75 -54.0098 291.54C-54.0098 303.33 -41.2298 312.92 -25.5198 312.92C-21.0198 312.92 -16.6798 312.13 -12.6198 310.58L-12.4098 310.5Z" fill="#19A3DD"/>
<path d="M427.02 271.77L394.61 235.96C393.2 233.97 390.91 232.78 388.47 232.78H316.91C311.39 232.78 306.03 234.64 301.7 238.07L259.07 271.77H427.02Z" fill="#D9D9D9"/>
<path d="M454.43 286.52V321.97H211.62V299.1C211.62 284.01 223.86 271.77 238.95 271.77H439.68C447.82 271.77 454.42 278.37 454.42 286.51L454.43 286.52Z" fill="#3472AF"/>
<path d="M326.76 232.78H325.76V271.77H326.76V232.78Z" fill="#19A3DD"/>
<path d="M326.76 271.77H325.76V321.97H326.76V271.77Z" fill="#214082"/>
<path d="M260.3 299.94C255.93 299.94 251.65 301.22 248.01 303.64C244.37 306.06 241.53 309.5 239.86 313.53C238.18 317.56 237.74 321.99 238.59 326.27C239.44 330.55 241.55 334.48 244.64 337.56C247.73 340.64 251.67 342.74 255.96 343.59C260.25 344.44 264.7 344 268.74 342.33C272.78 340.66 276.23 337.83 278.66 334.2C281.09 330.57 282.38 326.31 282.37 321.95C282.37 316.11 280.04 310.52 275.9 306.39C271.76 302.26 266.14 299.94 260.29 299.94H260.3Z" fill="#214082"/>
<path d="M260.27 331.2C255.18 331.2 251.04 327.06 251.04 321.97C251.04 316.88 255.18 312.74 260.27 312.74C265.36 312.74 269.5 316.88 269.5 321.97C269.5 327.06 265.36 331.2 260.27 331.2ZM260.27 313.74C255.73 313.74 252.04 317.43 252.04 321.97C252.04 326.51 255.73 330.2 260.27 330.2C264.81 330.2 268.5 326.51 268.5 321.97C268.5 317.43 264.81 313.74 260.27 313.74Z" fill="#19A3DD"/>
<path d="M305.55 288.87H314.93C316.19 288.87 317.21 287.849 317.21 286.59V286.58C317.21 285.321 316.19 284.3 314.93 284.3H305.55C304.291 284.3 303.27 285.321 303.27 286.58V286.59C303.27 287.849 304.291 288.87 305.55 288.87Z" fill="#214082"/>
<path d="M314.92 289.37H305.55C304.02 289.37 302.77 288.12 302.77 286.59C302.77 285.06 304.02 283.81 305.55 283.81H314.92C316.45 283.81 317.7 285.06 317.7 286.59C317.7 288.12 316.45 289.37 314.92 289.37ZM305.55 284.8C304.57 284.8 303.77 285.6 303.77 286.58C303.77 287.56 304.57 288.36 305.55 288.36H314.92C315.9 288.36 316.7 287.56 316.7 286.58C316.7 285.6 315.9 284.8 314.92 284.8H305.55Z" fill="#214082"/>
<path d="M355.96 288.87H365.34C366.599 288.87 367.62 287.849 367.62 286.59V286.58C367.62 285.321 366.599 284.3 365.34 284.3H355.96C354.701 284.3 353.68 285.321 353.68 286.58V286.59C353.68 287.849 354.701 288.87 355.96 288.87Z" fill="#214082"/>
<path d="M365.34 289.37H355.97C354.43 289.37 353.19 288.12 353.19 286.59C353.19 285.06 354.44 283.81 355.97 283.81H365.34C366.88 283.81 368.12 285.06 368.12 286.59C368.12 288.12 366.87 289.37 365.34 289.37ZM355.97 284.8C354.99 284.8 354.19 285.6 354.19 286.58C354.19 287.56 354.99 288.36 355.97 288.36H365.34C366.32 288.36 367.12 287.56 367.12 286.58C367.12 285.6 366.32 284.8 365.34 284.8H355.97Z" fill="#214082"/>
<path d="M223.65 285.29H216.53V284.29H223.65C230.55 284.29 236.17 278.67 236.17 271.77H237.17C237.17 279.22 231.11 285.29 223.65 285.29Z" fill="#214082"/>
<path d="M219.87 312.68H211.63V311.68H219.87C223.58 311.68 226.6 308.66 226.6 304.95C226.6 301.24 223.58 298.22 219.87 298.22H211.63V297.22H219.87C224.13 297.22 227.6 300.69 227.6 304.95C227.6 309.21 224.13 312.68 219.87 312.68Z" fill="#214082"/>
<path d="M227.1 301.97H211.63V302.97H227.1V301.97Z" fill="#214082"/>
<path d="M227.1 306.93H211.63V307.93H227.1V306.93Z" fill="#214082"/>
<path d="M385.683 216.6L369.858 232.425L370.566 233.132L386.391 217.307L385.683 216.6Z" fill="#214082"/>
<path d="M169.85 116.39C169.47 116.39 169.08 116.24 168.79 115.95C168.2 115.37 168.2 114.41 168.79 113.83L176.74 105.86L183.31 92.24C183.67 91.49 184.57 91.18 185.31 91.54C186.06 91.9 186.37 92.8 186.01 93.54L179.33 107.39C179.26 107.54 179.16 107.68 179.04 107.8L170.91 115.95C170.62 116.24 170.23 116.39 169.85 116.39Z" fill="#214082"/>
<path d="M182.4 95.53L182.1 114.9H199.32L196.23 94.6C195.71 91.18 192.75 88.66 189.3 88.69C185.53 88.72 182.47 91.76 182.41 95.53H182.4Z" fill="#D9D9D9"/>
<path d="M187.22 86.45C193.494 86.45 198.58 81.3639 198.58 75.09C198.58 68.816 193.494 63.73 187.22 63.73C180.946 63.73 175.86 68.816 175.86 75.09C175.86 81.3639 180.946 86.45 187.22 86.45Z" fill="#16254C"/>
<path d="M190.2 88.31L188.97 85.28C188.97 82.9 189.58 80.78 188.89 78.87C187.4 74.75 185.14 73.82 182.56 74.75C179.98 75.68 178.05 75.4 179.53 79.52L182.25 87.17C182.7 88.41 183.47 88.6 184.67 88.07C185.46 87.72 186.18 87.35 186.84 86.96L187.78 89.29C188.05 89.96 188.81 90.28 189.47 90.01C190.14 89.74 190.46 88.98 190.19 88.32L190.2 88.31Z" fill="#214082"/>
<path d="M181 76.4801C181 76.4801 180.94 79.0701 179.76 80.1401C178.09 80.7301 177.6 75.8701 177.6 75.8701L179.67 72.3401L189.67 72.5101V77.4901C189.67 77.4901 183.14 80.0001 181 76.4701V76.4801Z" fill="#16254C"/>
<path d="M193.73 92.48C193.4 92.48 193.07 92.37 192.8 92.15C192.15 91.64 192.04 90.69 192.56 90.04L203.7 76L197.18 58.42C196.89 57.64 197.29 56.78 198.06 56.49C198.84 56.21 199.7 56.6 199.99 57.37L206.81 75.75C206.99 76.24 206.9 76.79 206.58 77.2L194.91 91.9C194.61 92.27 194.18 92.47 193.73 92.47V92.48Z" fill="#214082"/>
<path d="M200.06 57.64L200.35 53.27L198.35 49.65C198.07 49.14 197.49 48.88 196.92 48.99C196.23 49.13 195.78 49.79 195.88 50.48L197.06 58.19L200.04 57.63L200.06 57.64Z" fill="#214082"/>
<path d="M186.29 348.52H175.97L213.5 329.34H223.82L186.29 348.52Z" fill="#192548"/>
<path d="M186.41 349.02H173.89L213.37 328.84H225.89L186.41 349.02ZM178.05 348.02H186.17L221.74 329.84H213.62L178.05 348.02Z" fill="#19A3DD"/>
</g>
</g>
<defs>
<clipPath id="clip0_8489_15670">
<rect width="375" height="375" fill="white"/>
</clipPath>
<clipPath id="clip1_8489_15670">
<rect width="509.43" height="329.02" fill="white" transform="translate(-55 20)"/>
</clipPath>
</defs>
</svg>
