<svg width="375" height="440" viewBox="0 0 375 440" fill="none" xmlns="http://www.w3.org/2000/svg">
<path d="M375 0H0V440H375V0Z" fill="#D9D9D9"/>
<path d="M32.29 322.53L32.29 253.83C32.29 242.39 41.58 233.1 53.02 233.1H322.17C333.61 233.1 342.9 242.39 342.9 253.83V322.53C342.9 334.31 333.34 343.87 321.56 343.87H53.63C41.85 343.87 32.29 334.31 32.29 322.53Z" fill="#16254C"/>
<path d="M318.18 216.67H57C43.3531 216.67 32.29 227.733 32.29 241.38V303.54C32.29 317.187 43.3531 328.25 57 328.25H318.18C331.827 328.25 342.89 317.187 342.89 303.54V241.38C342.89 227.733 331.827 216.67 318.18 216.67Z" fill="#3472AF"/>
<path d="M334.53 303.54C334.53 312.55 327.2 319.89 318.18 319.89H57C47.99 319.89 40.65 312.56 40.65 303.54V284.18H41.49C45.25 284.18 48.31 281.12 48.31 277.36V262.61C48.31 258.85 45.25 255.79 41.49 255.79H40.65V241.39C40.65 232.38 47.98 225.04 57 225.04H318.18C327.19 225.04 334.53 232.37 334.53 241.39V303.55V303.54Z" fill="white"/>
<path d="M318.18 320.39H57C47.71 320.39 40.15 312.83 40.15 303.54V283.68H41.49C44.98 283.68 47.81 280.84 47.81 277.36V262.61C47.81 259.12 44.97 256.29 41.49 256.29H40.15V241.39C40.15 232.1 47.71 224.54 57 224.54H318.18C327.47 224.54 335.03 232.1 335.03 241.39V303.55C335.03 312.84 327.47 320.4 318.18 320.4V320.39ZM41.15 284.68V303.54C41.15 312.28 48.26 319.39 57 319.39H318.18C326.92 319.39 334.03 312.28 334.03 303.54V241.38C334.03 232.64 326.92 225.53 318.18 225.53H57C48.26 225.53 41.15 232.64 41.15 241.38V255.28H41.49C45.53 255.28 48.81 258.57 48.81 262.6V277.35C48.81 281.39 45.53 284.67 41.49 284.67H41.15V284.68Z" fill="#393B56"/>
<path d="M41.16 264.72H40.16V274.12H41.16V264.72Z" fill="#192548"/>
<path d="M186.57 115.1C187.14 115.1 187.69 115.13 188.23 115.19C190.16 112.14 194.8 109.99 200.22 109.99C207.37 109.99 213.17 113.73 213.17 118.34C213.17 122.95 207.37 126.69 200.22 126.69C196.82 126.69 193.73 125.85 191.42 124.47C190.01 124.95 188.35 125.23 186.56 125.23C181.46 125.23 177.32 122.97 177.32 120.17C177.32 117.38 181.46 115.11 186.56 115.11L186.57 115.1Z" fill="#F1F1F1"/>
<path d="M245.77 126.41C244.64 127.32 243.88 128.49 243.67 129.84C243.07 133.67 247.05 137.47 252.57 138.34C255.46 138.8 258.2 138.36 260.24 137.28C264.57 141.64 271.83 144.49 280.05 144.49C293.32 144.49 304.08 137.05 304.08 127.88C304.08 127.75 304.08 127.62 304.07 127.5C312.62 126.05 318.97 120.6 318.97 114.1C318.97 106.49 310.26 100.32 299.51 100.32C298.67 100.32 297.84 100.36 297.03 100.44C295.01 94.33 288.67 89.87 281.15 89.87C274.29 89.87 268.4 93.59 265.89 98.88C262.77 97.76 259.21 97.12 255.44 97.12C243.01 97.12 232.93 104.01 232.93 112.5C232.93 118.63 238.18 123.93 245.78 126.4L245.77 126.41Z" fill="#F1F1F1"/>
<path d="M248.11 134.77H247.11C247.11 133.08 245.74 131.71 244.05 131.71C242.36 131.71 240.99 133.08 240.99 134.77H239.99C239.99 133.08 238.62 131.71 236.93 131.71C235.24 131.71 233.87 133.08 233.87 134.77H232.87C232.87 132.53 234.69 130.71 236.93 130.71C238.46 130.71 239.8 131.56 240.49 132.82C241.18 131.56 242.52 130.71 244.05 130.71C246.29 130.71 248.11 132.53 248.11 134.77Z" fill="#192548"/>
<path d="M257.38 143.34H256.38C256.38 141.65 255.01 140.28 253.32 140.28C251.63 140.28 250.26 141.66 250.26 143.34H249.26C249.26 141.65 247.89 140.28 246.2 140.28C244.51 140.28 243.14 141.66 243.14 143.34H242.14C242.14 141.1 243.96 139.28 246.2 139.28C247.73 139.28 249.07 140.13 249.76 141.39C250.45 140.13 251.79 139.28 253.32 139.28C255.56 139.28 257.38 141.1 257.38 143.34Z" fill="#192548"/>
<path d="M271.64 129.25H270.64C270.64 127.56 269.27 126.19 267.58 126.19C265.89 126.19 264.52 127.56 264.52 129.25H263.52C263.52 127.56 262.15 126.19 260.46 126.19C258.77 126.19 257.4 127.56 257.4 129.25H256.4C256.4 127.01 258.22 125.19 260.46 125.19C261.99 125.19 263.33 126.04 264.02 127.3C264.71 126.04 266.05 125.19 267.58 125.19C269.82 125.19 271.64 127.01 271.64 129.25Z" fill="#192548"/>
<path d="M91.3 131.31C91.85 130.17 92.15 128.92 92.15 127.61C92.15 122.21 87 117.83 80.64 117.83C75.18 117.83 70.61 121.06 69.43 125.4C65.26 126.03 62.14 128.64 62.14 131.77C62.14 135.37 66.28 138.29 71.39 138.29C72.96 138.29 74.43 138.01 75.73 137.53C75.73 141.43 80.46 144.59 86.3 144.59C92.14 144.59 96.87 141.43 96.87 137.53C96.87 134.84 94.61 132.5 91.29 131.31H91.3Z" fill="#F1F1F1"/>
<path d="M101.89 225.52C101.89 193.32 144.51 167.22 197.09 167.22C249.67 167.22 292.29 193.32 292.29 225.52H101.89Z" fill="#89C764"/>
<path d="M223.09 186.6H216.48L210.88 167.21L219.79 121.95L228.69 167.21L223.09 186.6Z" fill="#3472AF"/>
<path d="M219.79 186.6L221.43 167.22L219.79 121.95L228.69 167.21L223.09 186.6H219.79Z" fill="#16254C"/>
<path d="M220.34 138.63L219.29 124.14V101.91H220.29V124.11L221.34 138.56L220.34 138.63Z" fill="#192548"/>
<path d="M223.7 180.99H216.11V181.99H223.7V180.99Z" fill="#192548"/>
<path d="M226.06 169.53H213.75V170.53H226.06V169.53Z" fill="#192548"/>
<path d="M225.66 158.06H214.14V159.06H225.66V158.06Z" fill="#192548"/>
<path d="M223.7 146.6H216.11V147.6H223.7V146.6Z" fill="#192548"/>
<path d="M221.98 135.13H217.82V136.13H221.98V135.13Z" fill="#192548"/>
<path d="M227.18 185.7H212.4V190.55H227.18V185.7Z" fill="#3472AF"/>
<path d="M227.17 185.7H223.69V190.55H227.17V185.7Z" fill="#16254C"/>
<path d="M109.82 277.62C110.76 276.13 110.87 274.41 109.93 273.25C108.67 271.68 105.98 271.74 103.94 273.39C103.81 273.5 103.68 273.61 103.56 273.73C102.4 271.16 99.09 269.31 95.18 269.31C90.31 269.31 86.36 272.19 86.36 275.74C86.36 275.89 86.38 276.04 86.39 276.18C85.45 275.9 84.43 275.75 83.35 275.75C78.69 275.75 74.92 278.6 74.92 282.12C74.92 285.64 78.7 288.49 83.35 288.49C84.72 288.49 86.01 288.24 87.15 287.8C88.93 288.7 91.43 289.25 94.2 289.25C97.32 289.25 100.1 288.54 101.89 287.44C103.22 288.1 104.84 288.49 106.59 288.49C111.08 288.49 114.72 285.96 114.72 282.84C114.72 280.51 112.7 278.52 109.81 277.65L109.82 277.62Z" fill="#89C764"/>
<path d="M158.85 171.68V181.18H79.51V171.68H64.64V181.18V244.26H173.73V181.18V171.68H158.85Z" fill="#F1F1F1"/>
<path d="M179.83 171.68V181.18H173.73V171.68H166.29V244.26H173.73H194.71V181.18V171.68H179.83Z" fill="#D9D9D9"/>
<path d="M158.85 192.93H72.08L77.28 181.18H158.85V192.93Z" fill="#3472AF"/>
<path d="M64.64 171.68H79.51L72.08 159.16L64.64 171.68Z" fill="#3472AF"/>
<path d="M158.85 171.68H173.73L166.29 159.16L158.85 171.68Z" fill="#3472AF"/>
<path d="M100.49 181.18V171.68H85.62V181.18" fill="#E5E5E5"/>
<path d="M85.62 171.68H100.49L93.05 159.16L85.62 171.68Z" fill="#3472AF"/>
<path d="M179.83 171.68H194.71L187.27 159.16L179.83 171.68Z" fill="#3472AF"/>
<path d="M173.73 192.93H191.65L187.27 181.18H173.73V192.93Z" fill="#16254C"/>
<path d="M187.27 171.68H179.83V181.18H187.27V171.68Z" fill="#E5E5E5"/>
<path d="M77.6801 205.84H73.8101V199.21H77.6801V205.84ZM74.8101 204.84H76.6801V200.21H74.8101V204.84Z" fill="#192548"/>
<path d="M77.6801 216.85H73.8101V210.22H77.6801V216.85ZM74.8101 215.85H76.6801V211.22H74.8101V215.85Z" fill="#192548"/>
<path d="M77.6801 227.86H73.8101V221.23H77.6801V227.86ZM74.8101 226.86H76.6801V222.23H74.8101V226.86Z" fill="#192548"/>
<path d="M89.34 205.84H85.47V199.21H89.34V205.84ZM86.47 204.84H88.34V200.21H86.47V204.84Z" fill="#192548"/>
<path d="M89.34 216.85H85.47V210.22H89.34V216.85ZM86.47 215.85H88.34V211.22H86.47V215.85Z" fill="#192548"/>
<path d="M89.34 227.86H85.47V221.23H89.34V227.86ZM86.47 226.86H88.34V222.23H86.47V226.86Z" fill="#192548"/>
<path d="M101.01 205.84H97.14V199.21H101.01V205.84ZM98.14 204.84H100.01V200.21H98.14V204.84Z" fill="#192548"/>
<path d="M101.01 216.85H97.14V210.22H101.01V216.85ZM98.14 215.85H100.01V211.22H98.14V215.85Z" fill="#192548"/>
<path d="M101.01 227.86H97.14V221.23H101.01V227.86ZM98.14 226.86H100.01V222.23H98.14V226.86Z" fill="#192548"/>
<path d="M112.68 205.84H108.81V199.21H112.68V205.84ZM109.81 204.84H111.68V200.21H109.81V204.84Z" fill="#192548"/>
<path d="M112.68 216.85H108.81V210.22H112.68V216.85ZM109.81 215.85H111.68V211.22H109.81V215.85Z" fill="#192548"/>
<path d="M112.68 227.86H108.81V221.23H112.68V227.86ZM109.81 226.86H111.68V222.23H109.81V226.86Z" fill="#192548"/>
<path d="M124.35 205.84H120.48V199.21H124.35V205.84ZM121.48 204.84H123.35V200.21H121.48V204.84Z" fill="#192548"/>
<path d="M124.35 216.85H120.48V210.22H124.35V216.85ZM121.48 215.85H123.35V211.22H121.48V215.85Z" fill="#192548"/>
<path d="M124.35 227.86H120.48V221.23H124.35V227.86ZM121.48 226.86H123.35V222.23H121.48V226.86Z" fill="#192548"/>
<path d="M136.02 205.84H132.15V199.21H136.02V205.84ZM133.15 204.84H135.02V200.21H133.15V204.84Z" fill="#192548"/>
<path d="M136.02 216.85H132.15V210.22H136.02V216.85ZM133.15 215.85H135.02V211.22H133.15V215.85Z" fill="#192548"/>
<path d="M136.02 227.86H132.15V221.23H136.02V227.86ZM133.15 226.86H135.02V222.23H133.15V226.86Z" fill="#192548"/>
<path d="M147.68 205.84H143.81V199.21H147.68V205.84ZM144.81 204.84H146.68V200.21H144.81V204.84Z" fill="#192548"/>
<path d="M147.68 216.85H143.81V210.22H147.68V216.85ZM144.81 215.85H146.68V211.22H144.81V215.85Z" fill="#192548"/>
<path d="M147.68 227.86H143.81V221.23H147.68V227.86ZM144.81 226.86H146.68V222.23H144.81V226.86Z" fill="#192548"/>
<path d="M159.35 205.84H155.48V199.21H159.35V205.84ZM156.48 204.84H158.35V200.21H156.48V204.84Z" fill="#192548"/>
<path d="M159.35 216.85H155.48V210.22H159.35V216.85ZM156.48 215.85H158.35V211.22H156.48V215.85Z" fill="#192548"/>
<path d="M159.35 227.86H155.48V221.23H159.35V227.86ZM156.48 226.86H158.35V222.23H156.48V226.86Z" fill="#192548"/>
<path d="M177.33 205.84H173.46V199.21H177.33V205.84ZM174.46 204.84H176.33V200.21H174.46V204.84Z" fill="#192548"/>
<path d="M176.83 210.72H173.96V216.35H176.83V210.72Z" fill="#16254C"/>
<path d="M176.83 221.73H173.96V227.36H176.83V221.73Z" fill="#16254C"/>
<path d="M187.77 205.84H183.9V199.21H187.77V205.84ZM184.9 204.84H186.77V200.21H184.9V204.84Z" fill="#192548"/>
<path d="M187.27 210.72H184.4V216.35H187.27V210.72Z" fill="#16254C"/>
<path d="M187.27 221.73H184.4V227.36H187.27V221.73Z" fill="#16254C"/>
<path d="M100.49 171.68H93.05V181.18H100.49V171.68Z" fill="#B2B2B2"/>
<path d="M72.02 192.93L77.28 181.18H79.46V171.68H72.02V192.93Z" fill="#B2B2B2"/>
<path d="M187.27 159.16V171.68H194.71L187.27 159.16Z" fill="#16254C"/>
<path d="M166.29 159.16V171.68H173.73L166.29 159.16Z" fill="#16254C"/>
<path d="M93.05 159.16V171.68H100.49L93.05 159.16Z" fill="#16254C"/>
<path d="M72.08 159.16V171.68H79.51L72.08 159.16Z" fill="#16254C"/>
<path d="M297.01 216.25H171.34V278.86H297.01V216.25Z" fill="#D9D9D9"/>
<path d="M311.37 216.25H297.02V278.86H311.37V216.25Z" fill="#3472AF"/>
<path d="M293.16 209.11H234.18H175.2L168.06 216.25H170.56H234.18H297.8H300.3L293.16 209.11Z" fill="#3472AF"/>
<path d="M209.7 216.61H258.66L234.18 205.13L209.7 216.61Z" fill="#D9D9D9"/>
<path d="M215.6 252.02L222.05 239.39V252.02H215.6Z" fill="white"/>
<path d="M222.55 252.52H215.1V238.89H222.55V252.52ZM216.1 251.52H221.55V239.89H216.1V251.52Z" fill="#192548"/>
<path d="M225.83 252.02L232.29 239.39V252.02H225.83Z" fill="white"/>
<path d="M232.79 252.52H225.34V238.89H232.79V252.52ZM226.34 251.52H231.79V239.89H226.34V251.52Z" fill="#192548"/>
<path d="M236.07 252.02L242.52 239.39V252.02H236.07Z" fill="white"/>
<path d="M243.02 252.52H235.57V238.89H243.02V252.52ZM236.57 251.52H242.02V239.89H236.57V251.52Z" fill="#192548"/>
<path d="M179.54 252.02L186 239.39V252.02H179.54Z" fill="white"/>
<path d="M186.5 252.52H179.05V238.89H186.5V252.52ZM180.05 251.52H185.5V239.89H180.05V251.52Z" fill="#192548"/>
<path d="M189.78 252.02L196.23 239.39V252.02H189.78Z" fill="white"/>
<path d="M196.73 252.52H189.28V238.89H196.73V252.52ZM190.28 251.52H195.73V239.89H190.28V251.52Z" fill="#192548"/>
<path d="M200.02 252.02L206.47 239.39V252.02H200.02Z" fill="white"/>
<path d="M206.97 252.52H199.52V238.89H206.97V252.52ZM200.52 251.52H205.97V239.89H200.52V251.52Z" fill="#192548"/>
<path d="M261.88 252.02L268.33 239.39V252.02H261.88Z" fill="white"/>
<path d="M268.83 252.52H261.38V238.89H268.83V252.52ZM262.38 251.52H267.83V239.89H262.38V251.52Z" fill="#192548"/>
<path d="M272.12 252.02L278.57 239.39V252.02H272.12Z" fill="white"/>
<path d="M279.07 252.52H271.62V238.89H279.07V252.52ZM272.62 251.52H278.07V239.89H272.62V251.52Z" fill="#192548"/>
<path d="M282.35 252.02L288.81 239.39V252.02H282.35Z" fill="white"/>
<path d="M289.31 252.52H281.86V238.89H289.31V252.52ZM282.86 251.52H288.31V239.89H282.86V251.52Z" fill="#192548"/>
<path d="M246.31 252.02L252.76 239.39V252.02H246.31Z" fill="white"/>
<path d="M253.26 252.52H245.81V238.89H253.26V252.52ZM246.81 251.52H252.26V239.89H246.81V251.52Z" fill="#192548"/>
<path d="M215.6 233.21L222.05 225.11V233.21H215.6Z" fill="white"/>
<path d="M222.55 233.71H215.1V224.6H222.55V233.71ZM216.1 232.71H221.55V225.6H216.1V232.71Z" fill="#192548"/>
<path d="M225.83 233.21L232.29 225.11V233.21H225.83Z" fill="white"/>
<path d="M232.79 233.71H225.34V224.6H232.79V233.71ZM226.34 232.71H231.79V225.6H226.34V232.71Z" fill="#192548"/>
<path d="M236.07 233.21L242.52 225.11V233.21H236.07Z" fill="white"/>
<path d="M243.02 233.71H235.57V224.6H243.02V233.71ZM236.57 232.71H242.02V225.6H236.57V232.71Z" fill="#192548"/>
<path d="M179.54 233.21L186 225.11V233.21H179.54Z" fill="white"/>
<path d="M186.5 233.71H179.05V224.6H186.5V233.71ZM180.05 232.71H185.5V225.6H180.05V232.71Z" fill="#192548"/>
<path d="M189.78 233.21L196.23 225.11V233.21H189.78Z" fill="white"/>
<path d="M196.73 233.71H189.28V224.6H196.73V233.71ZM190.28 232.71H195.73V225.6H190.28V232.71Z" fill="#192548"/>
<path d="M200.02 233.21L206.47 225.11V233.21H200.02Z" fill="white"/>
<path d="M206.97 233.71H199.52V224.6H206.97V233.71ZM200.52 232.71H205.97V225.6H200.52V232.71Z" fill="#192548"/>
<path d="M261.88 233.21L268.33 225.11V233.21H261.88Z" fill="white"/>
<path d="M268.83 233.71H261.38V224.6H268.83V233.71ZM262.38 232.71H267.83V225.6H262.38V232.71Z" fill="#192548"/>
<path d="M272.12 233.21L278.57 225.11V233.21H272.12Z" fill="white"/>
<path d="M279.07 233.71H271.62V224.6H279.07V233.71ZM272.62 232.71H278.07V225.6H272.62V232.71Z" fill="#192548"/>
<path d="M282.35 233.21L288.81 225.11V233.21H282.35Z" fill="white"/>
<path d="M289.31 233.71H281.86V224.6H289.31V233.71ZM282.86 232.71H288.31V225.6H282.86V232.71Z" fill="#192548"/>
<path d="M246.31 233.21L252.76 225.11V233.21H246.31Z" fill="white"/>
<path d="M253.26 233.71H245.81V224.6H253.26V233.71ZM246.81 232.71H252.26V225.6H246.81V232.71Z" fill="#192548"/>
<path d="M179.54 276.13L186 268.02V276.13H179.54Z" fill="white"/>
<path d="M186.5 276.63H179.05V267.53H186.5V276.63ZM180.05 275.63H185.5V268.53H180.05V275.63Z" fill="#192548"/>
<path d="M189.78 276.13L196.23 268.02V276.13H189.78Z" fill="white"/>
<path d="M196.73 276.63H189.28V267.53H196.73V276.63ZM190.28 275.63H195.73V268.53H190.28V275.63Z" fill="#192548"/>
<path d="M200.02 276.13L206.47 268.02V276.13H200.02Z" fill="white"/>
<path d="M206.97 276.63H199.52V267.53H206.97V276.63ZM200.52 275.63H205.97V268.53H200.52V275.63Z" fill="#192548"/>
<path d="M261.88 276.13L268.33 268.02V276.13H261.88Z" fill="white"/>
<path d="M268.83 276.63H261.38V267.53H268.83V276.63ZM262.38 275.63H267.83V268.53H262.38V275.63Z" fill="#192548"/>
<path d="M272.12 276.13L278.57 268.02V276.13H272.12Z" fill="white"/>
<path d="M279.07 276.63H271.62V267.53H279.07V276.63ZM272.62 275.63H278.07V268.53H272.62V275.63Z" fill="#192548"/>
<path d="M282.35 276.13L288.81 268.02V276.13H282.35Z" fill="white"/>
<path d="M289.31 276.63H281.86V267.53H289.31V276.63ZM282.86 275.63H288.31V268.53H282.86V275.63Z" fill="#192548"/>
<path d="M261.88 265.29L268.33 260.27V265.29H261.88Z" fill="white"/>
<path d="M268.83 265.79H261.38V259.78H268.83V265.79ZM262.38 264.79H267.83V260.78H262.38V264.79Z" fill="#192548"/>
<path d="M272.12 265.29L278.57 260.27V265.29H272.12Z" fill="white"/>
<path d="M279.07 265.79H271.62V259.78H279.07V265.79ZM272.62 264.79H278.07V260.78H272.62V264.79Z" fill="#192548"/>
<path d="M282.35 265.29L288.81 260.27V265.29H282.35Z" fill="white"/>
<path d="M289.31 265.79H281.86V259.78H289.31V265.79ZM282.86 264.79H288.31V260.78H282.86V264.79Z" fill="#192548"/>
<path d="M200.02 265.29L206.47 260.27V265.29H200.02Z" fill="white"/>
<path d="M206.97 265.79H199.52V259.78H206.97V265.79ZM200.52 264.79H205.97V260.78H200.52V264.79Z" fill="#192548"/>
<path d="M189.78 265.52L196.23 260.51V265.52H189.78Z" fill="white"/>
<path d="M196.73 266.03H189.28V260.02H196.73V266.03ZM190.28 265.03H195.73V261.02H190.28V265.03Z" fill="#192548"/>
<path d="M179.54 265.76L186 260.75V265.76H179.54Z" fill="white"/>
<path d="M186.5 266.26H179.05V260.25H186.5V266.26ZM180.05 265.26H185.5V261.25H180.05V265.26Z" fill="#192548"/>
<path d="M234.18 258.32C238.79 258.32 242.53 262.06 242.53 266.67V278.86H225.84V266.67C225.84 262.06 229.58 258.32 234.19 258.32H234.18Z" fill="#16254C"/>
<path d="M297.01 217.97H171.34V218.97H297.01V217.97Z" fill="#19A3DD"/>
<path d="M297.02 256.07H257.69V257.07H297.02V256.07Z" fill="#19A3DD"/>
<path d="M211.04 256.07H171.34V257.07H211.04V256.07Z" fill="#19A3DD"/>
<path d="M211.54 218.47H210.54V278.85H211.54V218.47Z" fill="#19A3DD"/>
<path d="M258.19 218.47H257.19V278.85H258.19V218.47Z" fill="#19A3DD"/>
<path d="M254.48 278.85H253.48V255.68H214.88V278.85H213.88V254.68H254.48V278.85Z" fill="#19A3DD"/>
<path d="M252.13 278.85H251.13V258.47H245.15V278.85H244.15V257.47H252.13V278.85Z" fill="#19A3DD"/>
<path d="M242.81 278.85H241.81V258.47H226.55V278.85H225.55V257.47H242.81V278.85Z" fill="#19A3DD"/>
<path d="M224.21 278.85H223.21V258.47H217.22V278.85H216.22V257.47H224.21V278.85Z" fill="#19A3DD"/>
<path d="M306.25 209.11H291.64L299.03 216.25H311.06H313.65L306.25 209.11Z" fill="#16254C"/>
<path d="M311.37 217.97H297.02V218.97H311.37V217.97Z" fill="#192548"/>
<path d="M241.3 203.93H227.06V206.32H241.3V203.93Z" fill="#16254C"/>
<path d="M238.42 199.68H229.94V205.3H238.42V199.68Z" fill="#16254C"/>
<path d="M117.1 210.37H103.84V293.41H117.1V210.37Z" fill="#F1F1F1"/>
<path d="M103.84 210.37C103.84 199.12 115.01 185.37 115.01 185.37L126.12 210.37H103.84Z" fill="#3472AF"/>
<path d="M117.11 210.37L115.01 185.37C115.01 185.37 126.12 199.95 126.12 210.37H117.1H117.11Z" fill="#16254C"/>
<path d="M111.47 185.49L114.99 158.15L118.49 185.49H111.47Z" fill="#3472AF"/>
<path d="M115.65 185.49L114.99 158.15L118.49 185.49H115.65Z" fill="#16254C"/>
<path d="M115.65 185.49H111.47V194.48H115.65V185.49Z" fill="#3472AF"/>
<path d="M118.49 185.49H115.65V192.2H118.49V185.49Z" fill="#16254C"/>
<path d="M116.52 158.51V160.38H113.46V158.51C113.46 157.86 113.99 157.33 114.64 157.33H115.33C115.98 157.33 116.51 157.86 116.51 158.51H116.52Z" fill="#EDD772"/>
<path d="M117.81 244.73L126.12 265V293.41H117.11L117.81 244.73Z" fill="#F1F1F1"/>
<path d="M186.65 259.68H167.14V293.41H186.65V259.68Z" fill="#D9D9D9"/>
<path d="M103.84 244.73L94.83 265V293.41H103.84V244.73Z" fill="#F1F1F1"/>
<path d="M117.11 238.11H159.2L170.22 265H126.12L117.47 243.89L117.11 238.11Z" fill="#16254C"/>
<path d="M152.17 242.23H180.8L186.65 259.68H158.03L152.17 242.23Z" fill="#16254C"/>
<path d="M170.22 265H126.12V293.41H170.22V265Z" fill="#D9D9D9"/>
<path d="M112.51 230.17H107.93V224.84C107.93 223.96 108.67 220.4 110.22 220.4C111.77 220.4 112.51 223.96 112.51 224.84V230.17ZM108.93 229.17H111.51V224.84C111.51 223.71 110.66 221.42 110.22 221.4C109.79 221.42 108.93 223.71 108.93 224.84V229.17Z" fill="#192548"/>
<path d="M112.51 260.79H107.93V255.46C107.93 254.58 108.67 251.02 110.22 251.02C111.77 251.02 112.51 254.58 112.51 255.46V260.79ZM108.93 259.79H111.51V255.46C111.51 254.33 110.66 252.04 110.22 252.02C109.79 252.04 108.93 254.33 108.93 255.46V259.79Z" fill="#192548"/>
<path d="M112.51 281.43H107.93V276.1C107.93 275.22 108.67 271.66 110.22 271.66C111.77 271.66 112.51 275.22 112.51 276.1V281.43ZM108.93 280.43H111.51V276.1C111.51 274.97 110.66 272.68 110.22 272.66C109.79 272.68 108.93 274.97 108.93 276.1V280.43Z" fill="#192548"/>
<path d="M136.78 287.59H132.2V273.21C132.2 271.95 133.23 270.92 134.49 270.92C135.75 270.92 136.78 271.95 136.78 273.21V287.59ZM133.2 286.59H135.78V273.21C135.78 272.5 135.2 271.92 134.49 271.92C133.78 271.92 133.2 272.5 133.2 273.21V286.59Z" fill="#192548"/>
<path d="M147.74 287.59H143.16V273.21C143.16 271.95 144.19 270.92 145.45 270.92C146.71 270.92 147.74 271.95 147.74 273.21V287.59ZM144.16 286.59H146.74V273.21C146.74 272.5 146.16 271.92 145.45 271.92C144.74 271.92 144.16 272.5 144.16 273.21V286.59Z" fill="#192548"/>
<path d="M158.7 287.59H154.12V273.21C154.12 271.95 155.15 270.92 156.41 270.92C157.67 270.92 158.7 271.95 158.7 273.21V287.59ZM155.12 286.59H157.7V273.21C157.7 272.5 157.12 271.92 156.41 271.92C155.7 271.92 155.12 272.5 155.12 273.21V286.59Z" fill="#192548"/>
<path d="M169.66 287.59H165.08V273.21C165.08 271.95 166.11 270.92 167.37 270.92C168.63 270.92 169.66 271.95 169.66 273.21V287.59ZM166.08 286.59H168.66V273.21C168.66 272.5 168.08 271.92 167.37 271.92C166.66 271.92 166.08 272.5 166.08 273.21V286.59Z" fill="#192548"/>
<path d="M180.62 287.59H176.04V273.21C176.04 271.95 177.07 270.92 178.33 270.92C179.59 270.92 180.62 271.95 180.62 273.21V287.59ZM177.04 286.59H179.62V273.21C179.62 272.5 179.04 271.92 178.33 271.92C177.62 271.92 177.04 272.5 177.04 273.21V286.59Z" fill="#192548"/>
<path d="M110.22 237.21C108.96 237.21 107.93 236.18 107.93 234.92C107.93 233.66 108.96 232.63 110.22 232.63C111.48 232.63 112.51 233.66 112.51 234.92C112.51 236.18 111.48 237.21 110.22 237.21ZM110.22 233.63C109.51 233.63 108.93 234.21 108.93 234.92C108.93 235.63 109.51 236.21 110.22 236.21C110.93 236.21 111.51 235.63 111.51 234.92C111.51 234.21 110.93 233.63 110.22 233.63Z" fill="#192548"/>
<path d="M112.51 218.11H107.93V213.53H112.51V218.11ZM108.93 217.11H111.51V214.53H108.93V217.11Z" fill="#192548"/>
<path d="M103.84 293.41H102.83V247L103.84 244.73V293.41Z" fill="#16254C"/>
<path d="M117.058 238.69L116.953 293.4L117.953 293.402L118.058 238.692L117.058 238.69Z" fill="#192548"/>
<path d="M126.12 210.37H117.04V244.72H126.12V210.37Z" fill="#D9D9D9"/>
<path d="M65.27 256.09H68.47V220.79H65.27V256.09Z" fill="#3472AF"/>
<path d="M81.39 220.49C82.27 218.68 82.76 216.66 82.76 214.51C82.76 206.95 76.63 200.82 69.07 200.82C61.51 200.82 55.38 206.95 55.38 214.51C55.38 214.54 55.38 214.58 55.38 214.61C50.95 215.27 47.54 219.09 47.54 223.71C47.54 228.79 51.66 232.91 56.74 232.91C56.9 232.91 57.06 232.91 57.23 232.9C58.59 238.06 61.44 241.81 67.43 241.81C73.42 241.81 76.65 237.71 77.8 232.17C78.23 232.27 78.67 232.32 79.13 232.32C82.52 232.32 85.27 229.57 85.27 226.18C85.27 223.58 83.65 221.37 81.37 220.47L81.39 220.49Z" fill="#89C764"/>
<path d="M335.39 287.89L326.16 272.31H330.64L323.66 260.53H327.38L316.93 242.88L306.48 260.53H310.2L303.22 272.31H307.7L298.47 287.89H335.39Z" fill="#89C764"/>
<path d="M315.33 295.26H318.53V287.84H315.33V295.26Z" fill="#3472AF"/>
<path d="M157.47 107.09H131.42C130.376 107.09 129.53 107.936 129.53 108.98V109.03C129.53 110.074 130.376 110.92 131.42 110.92H157.47C158.514 110.92 159.36 110.074 159.36 109.03V108.98C159.36 107.936 158.514 107.09 157.47 107.09Z" fill="#89C764"/>
<path d="M130.03 103.52H129.03V107.09H130.03V103.52Z" fill="#07038B"/>
<path d="M150.25 103.02H108.81V104.02H150.25V103.02Z" fill="#192548"/>
<path d="M157.04 114.73C153.88 114.73 151.31 112.16 151.31 109C151.31 105.84 153.88 103.27 157.04 103.27C160.2 103.27 162.77 105.84 162.77 109C162.77 112.16 160.2 114.73 157.04 114.73ZM157.04 104.28C154.43 104.28 152.31 106.4 152.31 109.01C152.31 111.62 154.43 113.74 157.04 113.74C159.65 113.74 161.77 111.62 161.77 109.01C161.77 106.4 159.65 104.28 157.04 104.28Z" fill="#192548"/>
<path d="M124.25 122.34H123.25V125.23H124.25V122.34Z" fill="#192548"/>
<path d="M134.13 122.34H133.13V125.23H134.13V122.34Z" fill="#192548"/>
<path d="M140.94 125.74H122.86C120.47 125.74 118.55 125.2 117.32 124.18L117.96 123.41C119 124.27 120.74 124.74 122.86 124.74H140.94V125.74Z" fill="#192548"/>
<path d="M126.94 107.09H122.49C118.3 107.09 114.87 110.52 114.87 114.71C114.87 116.02 115.2 117.25 115.79 118.33C121.78 117.88 126.54 113.09 126.95 107.09H126.94Z" fill="#16254C"/>
<path d="M141.28 107.09H126.94C126.54 113.09 121.77 117.88 115.78 118.33C117.07 120.71 119.6 122.34 122.49 122.34H134.57C138.76 122.34 142.19 118.91 142.19 114.72V108C142.19 107.5 141.78 107.09 141.28 107.09Z" fill="#89C764"/>
<path d="M222.59 297.96H219.43V300.91H222.59V297.96Z" fill="#F1F1F1"/>
<path d="M253.42 283.781L246.632 290.57L247.339 291.277L254.127 284.488L253.42 283.781Z" fill="#192548"/>
<path d="M270.34 305.09H222.12L220.57 296.62H270.34V305.09Z" fill="#3472AF"/>
<path d="M264.96 296.62H230.77L236.96 290.04H255.62L264.96 296.62Z" fill="#F1F1F1"/>
<path d="M231.69 309.48C234.059 309.48 235.98 307.559 235.98 305.19C235.98 302.821 234.059 300.9 231.69 300.9C229.321 300.9 227.4 302.821 227.4 305.19C227.4 307.559 229.321 309.48 231.69 309.48Z" fill="#16254C"/>
<path d="M258.5 309.48C260.869 309.48 262.79 307.559 262.79 305.19C262.79 302.821 260.869 300.9 258.5 300.9C256.131 300.9 254.21 302.821 254.21 305.19C254.21 307.559 256.131 309.48 258.5 309.48Z" fill="#16254C"/>
<path d="M242.65 290.04H241.65V296.62H242.65V290.04Z" fill="#192548"/>
<path d="M255.6 290.04H254.6V296.62H255.6V290.04Z" fill="#192548"/>
<path d="M231.69 306.7C232.524 306.7 233.2 306.024 233.2 305.19C233.2 304.356 232.524 303.68 231.69 303.68C230.856 303.68 230.18 304.356 230.18 305.19C230.18 306.024 230.856 306.7 231.69 306.7Z" fill="#F1F1F1"/>
<path d="M258.5 306.7C259.334 306.7 260.01 306.024 260.01 305.19C260.01 304.356 259.334 303.68 258.5 303.68C257.666 303.68 256.99 304.356 256.99 305.19C256.99 306.024 257.666 306.7 258.5 306.7Z" fill="#F1F1F1"/>
<path d="M181.94 294.07H185.06V291.16H181.94V294.07Z" fill="white"/>
<path d="M137.96 298.2H183.51L183.48 289.83H163.69V277.32H137.96V298.2Z" fill="#89C764"/>
<path d="M163.69 289.83H177.04L170.93 283.34H163.69V289.83Z" fill="#F1F1F1"/>
<path d="M176.14 302.53C178.476 302.53 180.37 300.636 180.37 298.3C180.37 295.964 178.476 294.07 176.14 294.07C173.804 294.07 171.91 295.964 171.91 298.3C171.91 300.636 173.804 302.53 176.14 302.53Z" fill="#16254C"/>
<path d="M149.66 302.53C151.996 302.53 153.89 300.636 153.89 298.3C153.89 295.964 151.996 294.07 149.66 294.07C147.324 294.07 145.43 295.964 145.43 298.3C145.43 300.636 147.324 302.53 149.66 302.53Z" fill="#16254C"/>
<path d="M167.52 283.34H166.52V289.83H167.52V283.34Z" fill="#192548"/>
<path d="M176.14 299.79C176.963 299.79 177.63 299.123 177.63 298.3C177.63 297.477 176.963 296.81 176.14 296.81C175.317 296.81 174.65 297.477 174.65 298.3C174.65 299.123 175.317 299.79 176.14 299.79Z" fill="#F1F1F1"/>
<path d="M149.66 299.79C150.483 299.79 151.15 299.123 151.15 298.3C151.15 297.477 150.483 296.81 149.66 296.81C148.837 296.81 148.17 297.477 148.17 298.3C148.17 299.123 148.837 299.79 149.66 299.79Z" fill="#F1F1F1"/>
<path d="M153.17 287.23L149.97 283.26L146.77 287.23L145.99 286.6L149.97 281.67L153.95 286.6L153.17 287.23Z" fill="#192548"/>
<path d="M146.07 291.81C147.727 291.81 149.07 290.467 149.07 288.81C149.07 287.153 147.727 285.81 146.07 285.81C144.413 285.81 143.07 287.153 143.07 288.81C143.07 290.467 144.413 291.81 146.07 291.81Z" fill="#3472AF"/>
<path d="M153.89 291.81C155.547 291.81 156.89 290.467 156.89 288.81C156.89 287.153 155.547 285.81 153.89 285.81C152.233 285.81 150.89 287.153 150.89 288.81C150.89 290.467 152.233 291.81 153.89 291.81Z" fill="#3472AF"/>
</svg>
