<svg width="375" height="375" viewBox="0 0 375 375" fill="none" xmlns="http://www.w3.org/2000/svg">
<g clip-path="url(#clip0_9161_1856)">
<mask id="mask0_9161_1856" style="mask-type:luminance" maskUnits="userSpaceOnUse" x="0" y="0" width="375" height="375">
<path d="M375 0H0V375H375V0Z" fill="white"/>
</mask>
<g mask="url(#mask0_9161_1856)">
<path d="M45.7514 286.115L45.7514 225.579C45.7514 215.497 53.9391 207.32 64.0105 207.32H301.186C311.268 207.32 319.445 215.508 319.445 225.579V286.115C319.445 296.497 311.022 304.92 300.64 304.92H64.5457C54.1639 304.92 45.7407 296.497 45.7407 286.115H45.7514Z" fill="#16254C"/>
<path d="M297.676 192.839H67.5318C55.5029 192.839 45.7515 202.59 45.7515 214.619V269.386C45.7515 281.415 55.5029 291.166 67.5318 291.166H297.676C309.705 291.166 319.456 281.415 319.456 269.386V214.619C319.456 202.59 309.705 192.839 297.676 192.839Z" fill="#3472AF"/>
<path d="M312.092 269.386C312.092 277.328 305.628 283.792 297.686 283.792H67.5318C59.5903 283.792 53.1257 277.328 53.1257 269.386V252.326H53.8642C57.1821 252.326 59.8792 249.629 59.8792 246.311V233.317C59.8792 229.999 57.1821 227.302 53.8642 227.302H53.1257V214.609C53.1257 206.667 59.5903 200.203 67.5318 200.203H297.686C305.628 200.203 312.092 206.667 312.092 214.609V269.386Z" fill="white"/>
<path d="M297.686 284.327H67.5318C59.2906 284.327 52.5906 277.627 52.5906 269.386V251.791H53.8642C56.8824 251.791 59.3441 249.329 59.3441 246.311V233.317C59.3441 230.299 56.8824 227.838 53.8642 227.838H52.5906V214.609C52.5906 206.368 59.2906 199.668 67.5318 199.668H297.686C305.928 199.668 312.628 206.368 312.628 214.609V269.386C312.628 277.627 305.928 284.327 297.686 284.327ZM53.6609 252.861V269.386C53.6609 277.039 59.8792 283.257 67.5318 283.257H297.686C305.339 283.257 311.557 277.039 311.557 269.386V214.609C311.557 206.956 305.339 200.738 297.686 200.738H67.5318C59.8792 200.738 53.6609 206.956 53.6609 214.609V226.767H53.8642C57.4711 226.767 60.4144 229.7 60.4144 233.317V246.311C60.4144 249.918 57.4818 252.861 53.8642 252.861H53.6609Z" fill="#393B56"/>
<path d="M53.6609 235.18H52.5906V243.464H53.6609V235.18Z" fill="#192548"/>
<path d="M317.39 242.532H292.313V243.603H317.39V242.532Z" fill="#A7AEB7"/>
<path d="M282.488 242.532H273.477V243.603H282.488V242.532Z" fill="#A7AEB7"/>
<path d="M270.148 242.532H230.997V243.603H270.148V242.532Z" fill="#A7AEB7"/>
<path d="M219.994 242.532H205.096V243.603H219.994V242.532Z" fill="#A7AEB7"/>
<path d="M238.032 216.205L207.141 229.387L207.561 230.372L238.452 217.189L238.032 216.205Z" fill="#A7AEB7"/>
<path d="M296.913 160.014L247.653 194.532L248.268 195.408L297.528 160.89L296.913 160.014Z" fill="#A7AEB7"/>
<path d="M242.49 198.123L230.683 206.397L231.297 207.273L243.104 199L242.49 198.123Z" fill="#A7AEB7"/>
<path d="M227.263 208.786L211.416 219.891L212.03 220.768L227.877 209.663L227.263 208.786Z" fill="#A7AEB7"/>
<path d="M239.663 310.888L238.854 311.588L251.418 326.093L252.227 325.393L239.663 310.888Z" fill="#A7AEB7"/>
<path d="M209.991 276.634L209.182 277.335L233.057 304.897L233.866 304.196L209.991 276.634Z" fill="#A7AEB7"/>
<path d="M199.398 264.414L198.589 265.115L206.361 274.087L207.17 273.386L199.398 264.414Z" fill="#A7AEB7"/>
<path d="M208.401 316.672L207.405 317.064L210.708 325.449L211.703 325.057L208.401 316.672Z" fill="#A7AEB7"/>
<path d="M198.195 290.773L197.199 291.165L205.397 311.978L206.393 311.586L198.195 290.773Z" fill="#A7AEB7"/>
<path d="M193.059 277.818L192.063 278.21L195.376 286.625L196.372 286.233L193.059 277.818Z" fill="#A7AEB7"/>
<path d="M139.459 326.483L118.738 374.345L119.72 374.77L140.442 326.908L139.459 326.483Z" fill="#A7AEB7"/>
<path d="M155.839 288.693L143.065 318.198L144.047 318.623L156.821 289.118L155.839 288.693Z" fill="#A7AEB7"/>
<path d="M162.736 272.774L158.884 281.672L159.866 282.097L163.719 273.199L162.736 272.774Z" fill="#A7AEB7"/>
<path d="M166.31 264.524L164.392 268.954L165.374 269.379L167.292 264.95L166.31 264.524Z" fill="#A7AEB7"/>
<path d="M92.9227 318.702L71.7019 339.374L72.4487 340.141L93.6696 319.468L92.9227 318.702Z" fill="#A7AEB7"/>
<path d="M121.48 290.857L97.354 314.359L98.1008 315.126L122.227 291.623L121.48 290.857Z" fill="#A7AEB7"/>
<path d="M137.707 275.016L124.904 287.488L125.651 288.255L138.454 275.783L137.707 275.016Z" fill="#A7AEB7"/>
<path d="M124.273 267.427L116.78 270.935L117.234 271.904L124.727 268.396L124.273 267.427Z" fill="#A7AEB7"/>
<path d="M148.694 255.952L127.968 265.701L128.424 266.669L149.15 256.921L148.694 255.952Z" fill="#A7AEB7"/>
<path d="M40.2893 261.138L20.9868 263.416L21.1122 264.479L40.4147 262.201L40.2893 261.138Z" fill="#A7AEB7"/>
<path d="M80.5694 256.395L46.6094 260.402L46.7348 261.465L80.6948 257.458L80.5694 256.395Z" fill="#A7AEB7"/>
<path d="M132.898 250.226L93.6658 254.855L93.7912 255.918L133.023 251.288L132.898 250.226Z" fill="#A7AEB7"/>
<path d="M122.746 228.054L122.472 229.089L137.725 233.119L137.998 232.084L122.746 228.054Z" fill="#A7AEB7"/>
<path d="M142.335 233.244L142.062 234.279L149.636 236.28L149.91 235.245L142.335 233.244Z" fill="#A7AEB7"/>
<path d="M153.6 236.215L153.327 237.249L157.828 238.439L158.102 237.404L153.6 236.215Z" fill="#A7AEB7"/>
<path d="M70.4549 182.111L69.9451 183.052L77.5016 187.146L78.0114 186.205L70.4549 182.111Z" fill="#A7AEB7"/>
<path d="M82.4237 188.589L81.9138 189.53L92.9615 195.516L93.4714 194.575L82.4237 188.589Z" fill="#A7AEB7"/>
<path d="M97.6222 196.837L97.1123 197.778L121.231 210.846L121.741 209.905L97.6222 196.837Z" fill="#A7AEB7"/>
<path d="M128.695 213.658L128.186 214.599L148.672 225.699L149.182 224.758L128.695 213.658Z" fill="#A7AEB7"/>
<path d="M154.974 122.468L153.932 122.712L159.121 144.867L160.163 144.623L154.974 122.468Z" fill="#A7AEB7"/>
<path d="M193.762 184.732L192.873 189.215L193.923 189.423L194.811 184.94L193.762 184.732Z" fill="#A7AEB7"/>
<path d="M192.321 191.962L189.884 204.256L190.934 204.464L193.371 192.17L192.321 191.962Z" fill="#A7AEB7"/>
<path d="M188.953 208.979L187.244 217.599L188.294 217.807L190.003 209.187L188.953 208.979Z" fill="#A7AEB7"/>
<path d="M288.302 301.777L287.766 302.703L301.99 310.945L302.526 310.019L288.302 301.777Z" fill="#A7AEB7"/>
<path d="M271.633 292.124L271.096 293.05L283.682 300.342L284.218 299.416L271.633 292.124Z" fill="#A7AEB7"/>
<path d="M185.643 328.628L184.574 328.68L185.755 352.904L186.824 352.852L185.643 328.628Z" fill="#A7AEB7"/>
<path d="M316.139 192.399L298.936 198.022L299.268 199.039L316.471 193.417L316.139 192.399Z" fill="#A7AEB7"/>
<path d="M74.2227 139.292L73.4849 140.068L91.7129 157.414L92.4507 156.639L74.2227 139.292Z" fill="#A7AEB7"/>
<path d="M37.2191 228.042L37.1472 229.11L56.1019 230.386L56.1738 229.318L37.2191 228.042Z" fill="#A7AEB7"/>
<path d="M238.757 344.702L237.815 345.212L252.802 372.917L253.743 372.407L238.757 344.702Z" fill="#A7AEB7"/>
<path d="M299.849 341.883L299.067 342.613L309.471 353.751L310.253 353.02L299.849 341.883Z" fill="#A7AEB7"/>
<path d="M54.8328 305.044L14.553 325.736L15.042 326.688L55.3218 305.996L54.8328 305.044Z" fill="#A7AEB7"/>
<path d="M8.02832 128.083L7.43262 128.972L47.7038 155.952L48.2995 155.063L8.02832 128.083Z" fill="#A7AEB7"/>
<path d="M37.2339 195.655L36.8994 196.672L65.6817 206.141L66.0162 205.124L37.2339 195.655Z" fill="#A7AEB7"/>
<path d="M345.432 16.4954L310.275 63.8693L311.134 64.5071L346.292 17.1332L345.432 16.4954Z" fill="#A7AEB7"/>
<path d="M288.738 92.9728L272.014 115.508L272.874 116.146L289.598 93.6106L288.738 92.9728Z" fill="#A7AEB7"/>
<path d="M256.288 136.77L236.898 162.897L237.757 163.535L257.147 137.407L256.288 136.77Z" fill="#A7AEB7"/>
<path d="M88.1904 22.3895L87.2002 22.7957L95.1684 42.2242L96.1586 41.818L88.1904 22.3895Z" fill="#A7AEB7"/>
<path d="M68.2982 67.5596L67.4141 68.1627L75.7434 80.373L76.6275 79.7699L68.2982 67.5596Z" fill="#A7AEB7"/>
<path d="M14.9939 64.9586L14.2283 65.7065L25.4543 77.1983L26.2199 76.4504L14.9939 64.9586Z" fill="#A7AEB7"/>
<path d="M274.561 26.0098L267.684 37.5359L268.603 38.0842L275.48 26.5582L274.561 26.0098Z" fill="#A7AEB7"/>
<path d="M204.541 1.89644L203.43 13.1224L204.495 13.2278L205.606 2.00181L204.541 1.89644Z" fill="#A7AEB7"/>
<path d="M351.257 88.9312L302.551 130.222L303.243 131.039L351.949 89.7476L351.257 88.9312Z" fill="#A7AEB7"/>
<path d="M293.891 266.424L293.6 267.454L366.94 288.152L367.23 287.122L293.891 266.424Z" fill="#A7AEB7"/>
<path d="M136.943 175.476L136.03 176.035L145.526 191.543L146.439 190.984L136.943 175.476Z" fill="#A7AEB7"/>
<path d="M302.899 242.532H292.313V243.603H302.899V242.532Z" fill="#A7AEB7"/>
<path d="M282.488 242.532H273.477V243.603H282.488V242.532Z" fill="#A7AEB7"/>
<path d="M270.148 242.532H230.997V243.603H270.148V242.532Z" fill="#A7AEB7"/>
<path d="M219.994 242.532H210.233V243.603H219.994V242.532Z" fill="#A7AEB7"/>
<path d="M238.032 216.205L207.141 229.387L207.561 230.372L238.452 217.189L238.032 216.205Z" fill="#A7AEB7"/>
<path d="M242.219 198.312L230.675 206.401L231.289 207.278L242.833 199.189L242.219 198.312Z" fill="#A7AEB7"/>
<path d="M227.263 208.786L211.416 219.891L212.03 220.768L227.877 209.663L227.263 208.786Z" fill="#A7AEB7"/>
<path d="M199.398 264.414L198.589 265.115L206.361 274.087L207.17 273.386L199.398 264.414Z" fill="#A7AEB7"/>
<path d="M166.31 264.524L164.392 268.954L165.374 269.379L167.292 264.95L166.31 264.524Z" fill="#A7AEB7"/>
<path d="M124.273 267.427L116.78 270.935L117.234 271.904L124.727 268.396L124.273 267.427Z" fill="#A7AEB7"/>
<path d="M148.694 255.952L127.968 265.701L128.424 266.669L149.15 256.921L148.694 255.952Z" fill="#A7AEB7"/>
<path d="M80.5795 256.396L62.2549 258.558L62.3803 259.621L80.7049 257.459L80.5795 256.396Z" fill="#A7AEB7"/>
<path d="M132.898 250.226L93.6658 254.855L93.7912 255.918L133.023 251.288L132.898 250.226Z" fill="#A7AEB7"/>
<path d="M122.746 228.054L122.472 229.089L137.725 233.119L137.998 232.084L122.746 228.054Z" fill="#A7AEB7"/>
<path d="M142.335 233.244L142.062 234.279L149.636 236.28L149.91 235.245L142.335 233.244Z" fill="#A7AEB7"/>
<path d="M100.213 198.232L99.7036 199.173L121.234 210.839L121.744 209.898L100.213 198.232Z" fill="#A7AEB7"/>
<path d="M128.695 213.658L128.186 214.599L148.672 225.699L149.182 224.758L128.695 213.658Z" fill="#A7AEB7"/>
<path d="M293.881 266.406L293.591 267.436L301.234 269.593L301.524 268.563L293.881 266.406Z" fill="#A7AEB7"/>
<path d="M146.445 190.956L145.527 191.506L158.034 212.397L158.953 211.847L146.445 190.956Z" fill="#A7AEB7"/>
<path d="M182.609 245.883C177.129 245.883 172.837 243.432 172.837 240.306C172.837 237.181 177.129 234.73 182.609 234.73C188.089 234.73 192.381 237.181 192.381 240.306C192.381 243.432 188.089 245.883 182.609 245.883ZM182.609 235.811C177.889 235.811 173.908 237.877 173.908 240.317C173.908 242.757 177.889 244.823 182.609 244.823C187.329 244.823 191.311 242.757 191.311 240.317C191.311 237.877 187.329 235.811 182.609 235.811Z" fill="#A7AEB7"/>
<path d="M182.609 251.309C171.735 251.309 162.895 246.375 162.895 240.317C162.895 234.259 171.735 229.325 182.609 229.325C193.483 229.325 202.324 234.259 202.324 240.317C202.324 246.375 193.483 251.309 182.609 251.309ZM182.609 230.395C172.324 230.395 163.965 234.848 163.965 240.317C163.965 245.786 172.334 250.239 182.609 250.239C192.884 250.239 201.254 245.786 201.254 240.317C201.254 234.848 192.884 230.395 182.609 230.395Z" fill="#A7AEB7"/>
<path d="M182.609 51.8823C146.605 51.8823 121.967 88.2293 135.302 121.665L182.609 240.306L229.916 121.665C243.252 88.2186 218.613 51.8823 182.609 51.8823ZM182.598 115.907C174.539 115.907 168 109.367 168 101.308C168 93.2489 174.539 86.7095 182.598 86.7095C190.658 86.7095 197.197 93.2489 197.197 101.308C197.197 109.367 190.658 115.907 182.598 115.907Z" fill="#3472AF"/>
<path d="M131.899 14.3366L131.364 13.4055C146.926 4.48998 164.639 -0.22998 182.609 -0.22998C200.579 -0.22998 218.292 4.48998 233.854 13.4055L233.319 14.3366C217.918 5.50675 200.387 0.840307 182.609 0.840307C164.832 0.840307 147.3 5.50675 131.899 14.3366Z" fill="#3472AF"/>
<path d="M131.931 27.8221L131.332 26.9338C146.53 16.659 164.254 11.2327 182.609 11.2327C200.964 11.2327 218.688 16.659 233.886 26.9338L233.287 27.8221C218.271 17.6758 200.75 12.303 182.609 12.303C164.468 12.303 146.947 17.6651 131.931 27.8221Z" fill="#3472AF"/>
<path d="M233.244 42.0999C219.074 30.2733 201.093 23.7552 182.609 23.7552C164.125 23.7552 146.144 30.2733 131.974 42.0999L131.289 41.2758C145.652 29.2886 163.879 22.6849 182.609 22.6849C201.339 22.6849 219.566 29.2886 233.929 41.2758L233.244 42.0999Z" fill="#3472AF"/>
<path d="M233.18 57.9829C220.369 43.5233 201.938 35.2286 182.609 35.2286C163.28 35.2286 144.838 43.5233 132.038 57.9829L131.235 57.2765C144.25 42.5815 162.969 34.1583 182.609 34.1583C202.249 34.1583 220.979 42.5815 233.983 57.2765L233.18 57.9829Z" fill="#3472AF"/>
<path d="M233.148 67.1659C221.578 50.7584 202.688 40.9653 182.609 40.9653C162.53 40.9653 143.64 50.7584 132.07 67.1659L131.192 66.5451C142.966 49.8487 162.188 39.8843 182.609 39.8843C203.03 39.8843 222.252 49.8487 234.026 66.5451L233.148 67.1659Z" fill="#3472AF"/>
<path d="M233.105 78.3183C231.917 75.8781 230.558 73.5234 229.07 71.3186C218.614 55.8958 201.254 46.6806 182.62 46.6806C163.986 46.6806 146.615 55.8851 136.159 71.3186C134.66 73.5234 133.301 75.8781 132.124 78.3183L131.16 77.8474C132.37 75.3643 133.75 72.9669 135.281 70.7086C145.941 54.9861 163.633 45.6104 182.62 45.6104C201.607 45.6104 219.309 54.9968 229.959 70.7086C231.478 72.9562 232.87 75.3643 234.079 77.8474L233.116 78.3183H233.105Z" fill="#3472AF"/>
</g>
</g>
<defs>
<clipPath id="clip0_9161_1856">
<rect width="375" height="375" fill="white"/>
</clipPath>
</defs>
</svg>
