<svg width="375" height="375" viewBox="0 0 375 375" fill="none" xmlns="http://www.w3.org/2000/svg">
<g clip-path="url(#clip0_9161_1954)">
<mask id="mask0_9161_1954" style="mask-type:luminance" maskUnits="userSpaceOnUse" x="0" y="0" width="375" height="375">
<path d="M375 0H0V375H375V0Z" fill="white"/>
</mask>
<g mask="url(#mask0_9161_1954)">
<path d="M84.9601 346.545C60.2476 346.545 36.2176 337.62 17.2951 321.412C-1.62741 305.205 -14.1374 282.825 -17.9324 258.405L-26.8799 200.865C-31.1474 173.392 -24.4649 145.89 -8.05491 123.435C8.36259 100.972 32.5351 86.25 60.0076 81.9825L160.56 66.3525C165.848 65.535 171.233 65.115 176.55 65.115C201.263 65.115 225.293 74.04 244.215 90.2475C263.138 106.455 275.648 128.835 279.443 153.255L288.39 210.795C297.21 267.525 258.225 320.857 201.495 329.677L100.95 345.307C95.6626 346.125 90.2851 346.545 84.9601 346.545ZM176.55 65.865C171.27 65.865 165.923 66.2775 160.673 67.095L60.1201 82.725C32.8426 86.97 8.84259 101.58 -7.45491 123.877C-23.7449 146.167 -30.3824 173.467 -26.1449 200.752L-17.1974 258.292C-13.4324 282.532 -1.01241 304.747 17.7751 320.842C36.5626 336.937 60.4201 345.795 84.9526 345.795C90.2401 345.795 95.5801 345.382 100.83 344.565L201.375 328.935C257.7 320.175 296.4 267.232 287.64 210.907L278.693 153.367C274.928 129.127 262.508 106.912 243.72 90.8175C224.933 74.7225 201.075 65.865 176.543 65.865H176.55Z" fill="#89C764"/>
<path d="M84.51 295.132C58.9425 295.132 36.6975 276.082 32.775 250.815L23.745 192.705C21.6 178.897 24.96 165.067 33.21 153.772C41.4675 142.477 53.6175 135.075 67.4325 132.93L168.967 117.15C171.622 116.737 174.33 116.527 177.007 116.527C202.575 116.527 224.82 135.577 228.742 160.845L237.772 218.955C242.205 247.477 222.607 274.297 194.085 278.73L92.55 294.51C89.895 294.922 87.1875 295.132 84.51 295.132ZM177 117.277C174.36 117.277 171.697 117.48 169.072 117.892L67.5375 133.672C53.925 135.787 41.9475 143.085 33.81 154.215C25.6725 165.345 22.365 178.972 24.48 192.585L33.51 250.695C37.38 275.595 59.3025 294.375 84.5025 294.375C87.1425 294.375 89.805 294.172 92.43 293.76L193.965 277.98C222.082 273.607 241.402 247.177 237.03 219.06L228 160.95C224.13 136.05 202.207 117.27 177.007 117.27L177 117.277Z" fill="#89C764"/>
<path d="M85.725 267.09C73.3725 267.09 62.6325 257.887 60.7425 245.685L51.945 189.098C50.91 182.43 52.5375 175.755 56.52 170.295C60.51 164.842 66.375 161.265 73.0425 160.23L171.908 144.862C173.19 144.66 174.495 144.562 175.785 144.562C188.138 144.562 198.878 153.765 200.768 165.967L209.565 222.548C211.703 236.325 202.238 249.278 188.468 251.415L89.61 266.782C88.3275 266.977 87.0225 267.082 85.7325 267.082L85.725 267.09ZM175.785 145.32C174.533 145.32 173.265 145.417 172.02 145.612L73.1625 160.98C66.6975 161.985 60.9975 165.458 57.1275 170.745C53.2575 176.04 51.6825 182.52 52.6875 188.985L61.485 245.572C63.3225 257.415 73.7475 266.34 85.7325 266.34C86.985 266.34 88.2525 266.243 89.4975 266.048L188.355 250.68C201.72 248.602 210.908 236.033 208.83 222.668L200.033 166.087C198.195 154.245 187.77 145.32 175.785 145.32Z" fill="#89C764"/>
<path d="M84.9599 255.06C78.7874 255.06 73.4174 250.463 72.4724 244.365L63.5249 186.818C63.0074 183.488 63.8174 180.15 65.8124 177.42C67.8074 174.69 70.7399 172.905 74.0699 172.388L174.615 156.758C175.252 156.66 175.905 156.608 176.557 156.608C182.73 156.608 188.1 161.205 189.045 167.303L197.992 224.85C199.065 231.735 194.332 238.208 187.447 239.28L86.9024 254.91C86.2649 255.008 85.6124 255.06 84.9599 255.06ZM176.55 157.35C175.942 157.35 175.327 157.395 174.727 157.493L74.1824 173.123C71.0474 173.61 68.2949 175.29 66.4124 177.855C64.5374 180.42 63.7724 183.563 64.2599 186.69L73.2074 244.238C74.0999 249.975 79.1474 254.303 84.9599 254.303C85.5674 254.303 86.1824 254.258 86.7824 254.16L187.327 238.53C193.807 237.525 198.255 231.435 197.25 224.955L188.302 167.408C187.41 161.67 182.362 157.343 176.55 157.343V157.35Z" fill="#89C764"/>
<path d="M347.738 375C348.278 348.255 339.368 298.695 329.775 260.625C297.36 263.28 247.538 265.905 247.538 265.905C247.538 265.905 252.075 329.7 250.628 374.992H347.738V375Z" fill="#192548"/>
<path d="M348.105 375.375H250.245L250.26 374.985C251.685 330.233 247.215 266.573 247.17 265.935L247.14 265.553L247.523 265.53C248.018 265.508 297.713 262.868 329.745 260.25L330.06 260.228L330.135 260.535C339.48 297.63 348.668 347.415 348.113 375.008V375.375H348.105ZM251.018 374.625H347.37C347.678 355.283 342.24 311.708 329.49 261.023C298.928 263.52 252.623 266.01 247.943 266.258C248.31 271.613 252.353 331.658 251.025 374.618L251.018 374.625Z" fill="white"/>
<path d="M314.153 292.02C350.07 290.73 360.503 238.417 355.59 207.832C350.685 177.247 343.395 156.405 343.395 156.405H343.35C350.145 106.905 340.268 47.9999 339.825 45.4199C337.973 34.5974 327.705 27.3299 316.883 29.1749C306.083 31.0199 298.785 41.2949 300.622 52.1174C300.727 52.7099 310.62 111.915 303.233 155.782C303.143 156.337 303.173 156.877 303.12 157.425L302.378 157.447C302.25 99.2174 272.497 26.0849 271.162 22.8524C266.985 12.6974 255.352 7.79243 245.22 12.0224C235.065 16.1924 230.212 27.8099 234.375 37.9649C234.675 38.6849 262.972 108.322 262.62 158.46L261.907 158.475C247.372 93.3299 212.198 37.8674 210.855 35.2349C205.875 25.4474 193.92 21.5624 184.118 26.5349C174.33 31.5149 170.43 43.4849 175.41 53.2724C175.575 53.5874 215.498 124.507 229.508 168.967L228.668 169.477C216.45 153.862 190.073 124.74 147.848 137.505L116.558 147.015C106.013 150.082 99.945 161.107 103.005 171.652C106.042 182.115 116.925 188.167 127.395 185.272L127.643 185.205L159.225 175.725L159.39 175.68C175.785 171.142 196.125 180.135 206.64 198C211.417 206.107 215.13 234.292 186.09 235.95C157.815 237.562 136.575 238.852 131.602 238.485C120.66 237.547 111.03 245.647 110.085 256.59C109.147 267.532 117.247 277.162 128.19 278.107C132.682 278.49 156.09 278.28 170.445 276.735C203.235 274.05 246.187 302.79 277.515 295.552" fill="#192548"/>
<path d="M266.64 297.082C252.293 297.082 236.258 291.967 220.643 286.987C203.475 281.512 185.723 275.85 170.513 277.095C156.098 278.64 132.818 278.857 128.198 278.46C117.068 277.5 108.795 267.667 109.748 256.537C110.708 245.407 120.54 237.135 131.67 238.087C136.11 238.41 153.548 237.412 177.675 236.032L186.105 235.552C196.155 234.982 203.115 231.202 206.79 224.325C211.823 214.905 208.988 202.642 206.355 198.165C196.223 180.96 176.093 171.435 159.525 176.017L159.36 176.062L127.53 185.61C116.903 188.55 105.758 182.325 102.683 171.735C99.5701 161.01 105.758 149.745 116.49 146.632L147.773 137.13C166.215 131.557 183.698 133.365 199.733 142.507C213.105 150.127 222.698 161.197 228.795 168.967L229.095 168.78C216.188 128.01 182.018 65.82 175.283 53.7375C175.17 53.5425 175.118 53.4375 175.11 53.4225C170.048 43.4625 174.023 31.245 183.983 26.1825C193.943 21.1275 206.16 25.1025 211.223 35.0475C211.335 35.265 211.718 35.91 212.295 36.8925C235.92 76.74 253.65 119.767 262.238 158.077H262.283C262.5 107.835 234.345 38.7825 234.06 38.085C229.823 27.75 234.78 15.8925 245.108 11.655C250.065 9.58498 255.54 9.57748 260.52 11.64C265.553 13.725 269.468 17.6475 271.538 22.6875C272.805 25.77 302.52 98.745 302.775 157.042H302.79C302.79 156.952 302.79 156.862 302.798 156.772C302.805 156.427 302.82 156.067 302.88 155.7C310.29 111.682 300.375 52.7475 300.27 52.155C298.403 41.145 305.828 30.66 316.838 28.785C327.848 26.91 338.333 34.335 340.215 45.3375C340.643 47.82 350.528 106.687 343.77 156.255C343.845 156.465 351.12 177.48 355.98 207.75C357.75 218.79 357.443 232.162 355.14 244.44C352.493 258.54 347.49 270.382 340.665 278.685C333.51 287.392 324.6 291.997 314.183 292.372L314.153 291.622C324.338 291.255 333.06 286.74 340.08 278.205C351.075 264.825 359.813 236.37 355.238 207.862C350.685 179.475 343.995 159.247 343.148 156.757H342.983L342.998 156.322C349.785 106.83 339.9 47.9325 339.473 45.45C337.665 34.86 327.563 27.705 316.965 29.5125C306.368 31.32 299.213 41.4225 301.013 52.02C301.11 52.6125 311.055 111.675 303.623 155.812C303.57 156.127 303.563 156.45 303.548 156.787C303.548 156.997 303.533 157.215 303.518 157.432L303.488 157.77L302.025 157.807V157.425C301.898 99.21 272.108 26.055 270.84 22.9725C268.845 18.12 265.073 14.34 260.228 12.33C255.435 10.3425 250.163 10.35 245.393 12.345C235.448 16.425 230.67 27.8475 234.75 37.8C235.035 38.4975 263.378 108.022 263.025 158.445V158.805L261.638 158.842L261.57 158.542C253.028 120.232 235.29 77.16 211.643 37.275C211.035 36.2475 210.668 35.6325 210.548 35.3925C205.673 25.815 193.905 21.9825 184.313 26.8575C174.728 31.7325 170.895 43.5075 175.77 53.0925L175.928 53.385C182.678 65.505 217.02 128.01 229.883 168.847L229.973 169.125L228.6 169.965L228.398 169.702C222.345 161.97 212.753 150.81 199.35 143.167C183.495 134.13 166.208 132.345 147.975 137.857L116.685 147.367C106.35 150.367 100.388 161.212 103.388 171.54C106.35 181.74 117.075 187.732 127.32 184.905L127.568 184.837L159.323 175.312C176.198 170.64 196.695 180.315 206.993 197.805C209.7 202.402 212.618 215.017 207.443 224.692C203.64 231.817 196.47 235.725 186.143 236.31L177.713 236.79C153.555 238.177 136.095 239.175 131.603 238.845C120.885 237.922 111.413 245.895 110.49 256.612C109.568 267.33 117.54 276.802 128.258 277.717C132.863 278.115 156.053 277.89 170.438 276.352C185.813 275.092 203.633 280.777 220.868 286.275C240.518 292.537 260.835 299.017 277.463 295.177L277.628 295.905C274.11 296.715 270.428 297.075 266.633 297.075L266.64 297.082Z" fill="white"/>
<path d="M210.503 189.87L209.895 189.427C210.045 189.217 225.465 168.262 254.925 161.452C290.565 153.217 319.688 161.377 319.98 161.452L319.77 162.172C319.485 162.09 290.528 153.982 255.09 162.172C225.9 168.922 210.653 189.645 210.503 189.855V189.87Z" fill="white"/>
<path d="M330.998 212.205C288.473 192.045 243.87 204.96 243.42 205.087L243.203 204.367C243.653 204.232 288.525 191.235 331.313 211.522L330.99 212.197L330.998 212.205Z" fill="white"/>
<path d="M247.77 56.5876L247.725 55.8376C247.808 55.8376 256.103 55.2976 265.935 50.2876L266.273 50.9551C256.29 56.0401 247.845 56.5801 247.763 56.5801L247.77 56.5876Z" fill="white"/>
<path d="M259.77 102.082C259.582 102.082 259.485 102.082 259.47 102.082L259.492 101.332C259.575 101.332 267.885 101.557 278.13 97.4624L278.407 98.1599C269.092 101.88 261.345 102.082 259.762 102.082H259.77Z" fill="white"/>
<path d="M194.183 77.52L194.01 76.7925C194.093 76.77 202.163 74.79 210.968 68.1375L211.418 68.7375C202.478 75.495 194.265 77.505 194.183 77.5275V77.52Z" fill="white"/>
<path d="M213.923 121.852L213.75 121.125C213.832 121.102 221.902 119.122 230.707 112.47L231.157 113.07C222.217 119.827 214.005 121.837 213.923 121.86V121.852Z" fill="white"/>
<path d="M316.395 69.78C311.805 69.78 308.925 69.2025 308.873 69.195L309.023 68.46C309.105 68.475 317.25 70.1025 328.05 67.8L328.208 68.535C323.685 69.5025 319.62 69.7875 316.395 69.7875V69.78Z" fill="white"/>
<path d="M320.37 109.807C314.73 109.807 311.107 108.96 311.055 108.945L311.227 108.217C311.31 108.24 319.402 110.122 330.262 108.18L330.397 108.915C326.67 109.582 323.257 109.807 320.37 109.807Z" fill="white"/>
<path d="M295.252 335.767L294.502 335.737C294.93 324.465 293.437 307.515 293.422 307.342L294.172 307.275C294.187 307.447 295.68 324.45 295.252 335.767Z" fill="white"/>
<path d="M185.543 233.108L84.9975 248.738C82.11 249.188 79.3725 247.193 78.93 244.298L69.9825 186.75C69.7725 185.4 70.2975 183.563 71.7225 181.748C72.615 180.608 72.885 180.923 74.4225 180.683L174.968 165.053C177.855 164.603 180.593 166.598 181.035 169.493L189.983 227.04C190.208 228.488 190.38 228.885 189.69 230.063C189.075 231.113 187.598 232.793 185.55 233.108H185.543Z" fill="#8A9AA7"/>
<path d="M174.4 164.182L76.5683 179.397C72.9174 179.965 70.4181 183.385 70.9859 187.036L79.5137 241.869C80.0815 245.52 83.5014 248.019 87.1523 247.452L184.984 232.237C188.635 231.669 191.134 228.249 190.566 224.598L182.038 169.765C181.471 166.114 178.051 163.614 174.4 164.182Z" fill="#CDCECF"/>
<path d="M183.135 214.177L180.87 214.53L179.333 204.66L178.92 204.72L180.458 214.597L173.28 215.715L171.743 205.837L171.33 205.905L172.86 215.775L165.69 216.892L164.153 207.015L163.74 207.082L165.27 216.96L158.1 218.07L156.563 208.2L156.15 208.26L157.68 218.137L155.415 218.49L155.483 218.91L157.748 218.557L159.285 228.427L159.698 228.367L158.16 218.49L165.338 217.372L166.875 227.25L167.288 227.182L165.758 217.312L172.928 216.195L174.465 226.072L174.878 226.005L173.348 216.127L180.518 215.017L182.055 224.887L182.468 224.827L180.938 214.95L183.203 214.597L183.135 214.177Z" fill="#758089"/>
<path d="M169.935 219.772L168.39 220.012L169.125 224.745L169.545 224.677L169.268 222.9L170.393 222.727C171.203 222.6 171.765 221.835 171.638 221.025C171.51 220.215 170.745 219.652 169.935 219.78V219.772ZM170.333 222.307L169.208 222.48L168.878 220.365L170.003 220.192C170.588 220.102 171.135 220.5 171.225 221.085C171.315 221.67 170.918 222.217 170.333 222.307Z" fill="#758089"/>
<path d="M175.14 210.428L176.265 210.255C177.075 210.128 177.638 209.363 177.51 208.553C177.383 207.743 176.618 207.18 175.808 207.308L174.263 207.548L174.998 212.28L175.418 212.213L175.14 210.435V210.428ZM174.743 207.893L175.868 207.72C176.453 207.63 177 208.028 177.09 208.613C177.18 209.198 176.783 209.745 176.198 209.835L175.073 210.008L174.743 207.893Z" fill="#758089"/>
<path d="M161.07 216.045L161.827 215.925C162.93 215.752 163.53 215.077 163.395 214.17L162.69 209.632C162.517 208.537 161.49 207.78 160.395 207.952L160.027 208.012C158.932 208.185 158.175 209.212 158.347 210.315L159.052 214.852C159.195 215.767 159.967 216.225 161.077 216.052L161.07 216.045ZM158.76 210.247C158.625 209.377 159.217 208.56 160.087 208.425L160.455 208.365C161.325 208.23 162.135 208.83 162.27 209.7L162.975 214.237C163.125 215.197 162.172 215.452 161.76 215.512L161.002 215.632C160.59 215.7 159.607 215.745 159.457 214.785L158.752 210.247H158.76Z" fill="#758089"/>
<path d="M160.597 210.525C161.182 210.435 161.475 210.57 161.475 210.57L161.572 210.382L161.67 210.195C161.632 210.172 161.257 210 160.537 210.112C159.9 210.21 159.517 210.54 159.502 210.555L159.78 210.87C159.78 210.87 160.102 210.607 160.605 210.525H160.597Z" fill="#758089"/>
<path d="M161.855 213.382L160.298 213.624L160.363 214.039L161.919 213.797L161.855 213.382Z" fill="#758089"/>
<path d="M168.855 214.837L169.222 214.777C170.317 214.605 171.075 213.577 170.902 212.475L170.197 207.937C170.055 207.022 169.282 206.565 168.172 206.737L167.415 206.857C166.312 207.03 165.712 207.705 165.847 208.612L166.552 213.15C166.725 214.245 167.752 215.002 168.847 214.83L168.855 214.837ZM166.267 208.552C166.117 207.592 167.07 207.337 167.482 207.277L168.24 207.157C168.652 207.09 169.635 207.045 169.785 208.005L170.49 212.542C170.625 213.412 170.032 214.23 169.162 214.365L168.795 214.425C167.925 214.56 167.115 213.96 166.98 213.09L166.275 208.552H166.267Z" fill="#758089"/>
<path d="M169.748 212.235L169.47 211.92C169.47 211.92 169.148 212.183 168.645 212.265C168.06 212.355 167.768 212.22 167.768 212.22L167.573 212.595C167.61 212.618 167.985 212.79 168.705 212.678C169.343 212.58 169.725 212.25 169.74 212.235H169.748Z" fill="#758089"/>
<path d="M168.899 208.716L167.343 208.958L167.407 209.373L168.964 209.131L168.899 208.716Z" fill="#758089"/>
<path d="M177.353 217.043L176.985 217.103C175.89 217.275 175.133 218.303 175.305 219.405L176.01 223.943C176.153 224.858 176.925 225.315 178.035 225.143L178.793 225.023C179.895 224.85 180.495 224.175 180.36 223.268L179.655 218.73C179.483 217.635 178.455 216.878 177.36 217.05L177.353 217.043ZM179.94 223.335C180.09 224.295 179.138 224.55 178.725 224.61L177.968 224.73C177.555 224.798 176.573 224.843 176.423 223.883L175.718 219.345C175.583 218.475 176.175 217.658 177.045 217.523L177.413 217.463C178.283 217.328 179.093 217.928 179.228 218.798L179.933 223.335H179.94Z" fill="#758089"/>
<path d="M176.46 219.653L176.737 219.968C176.737 219.968 177.06 219.705 177.562 219.623C178.147 219.533 178.44 219.668 178.44 219.668L178.635 219.293C178.597 219.27 178.222 219.098 177.502 219.21C176.865 219.308 176.482 219.638 176.467 219.653H176.46Z" fill="#758089"/>
<path d="M178.816 222.479L177.26 222.721L177.324 223.136L178.881 222.894L178.816 222.479Z" fill="#758089"/>
<path d="M162.36 219.375L161.603 219.495C160.493 219.667 159.893 220.342 160.035 221.25L160.74 225.787C160.913 226.882 161.94 227.64 163.035 227.467L163.403 227.407C164.498 227.235 165.255 226.207 165.083 225.105L164.378 220.567C164.235 219.652 163.463 219.195 162.353 219.367L162.36 219.375ZM164.678 225.18C164.813 226.05 164.22 226.867 163.35 227.002L162.983 227.062C162.113 227.197 161.303 226.597 161.168 225.727L160.463 221.19C160.313 220.23 161.265 219.975 161.678 219.915L162.435 219.795C162.848 219.727 163.83 219.682 163.98 220.642L164.685 225.18H164.678Z" fill="#758089"/>
<path d="M162.833 224.895C162.248 224.985 161.955 224.85 161.955 224.85L161.76 225.225C161.798 225.247 162.173 225.42 162.893 225.307C163.53 225.21 163.913 224.88 163.928 224.865L163.65 224.55C163.65 224.55 163.328 224.812 162.825 224.895H162.833Z" fill="#758089"/>
<path d="M163.102 221.353L161.546 221.595L161.611 222.01L163.167 221.768L163.102 221.353Z" fill="#758089"/>
<g opacity="0.6">
<path d="M125.895 241.44L98.25 245.737L118.493 172.882L146.138 168.585L125.895 241.44Z" fill="#DFDFDF"/>
</g>
<g opacity="0.6">
<path d="M140.91 239.107L130.995 240.645L151.238 167.797L161.153 166.252L140.91 239.107Z" fill="#DFDFDF"/>
</g>
<path d="M83.6025 188.858C84.615 188.738 85.3575 189.203 85.4775 189.975C85.6425 191.063 85.005 191.843 83.8725 192.023L79.95 192.63L78.99 186.435L82.5225 185.888C83.805 185.685 84.63 186.188 84.78 187.17C84.9 187.92 84.4575 188.61 83.595 188.843V188.865L83.6025 188.858ZM80.9625 188.61L82.7475 188.333C83.0925 188.28 83.2425 188.063 83.1825 187.703C83.1375 187.395 82.86 187.268 82.5075 187.328L80.7975 187.59L80.955 188.61H80.9625ZM83.7525 190.02C83.7 189.69 83.4525 189.563 83.0175 189.63L81.1575 189.923L81.3225 190.965L83.2275 190.673C83.6325 190.613 83.8125 190.395 83.7525 190.028V190.02Z" fill="#192548"/>
<path d="M85.725 188.573C85.4175 186.6 86.76 185.13 88.8375 184.808C90.9375 184.478 92.6325 185.498 92.94 187.455C93.2475 189.413 91.8975 190.86 89.8275 191.183C87.7275 191.513 86.025 190.515 85.725 188.573ZM91.2525 187.695C91.0425 186.33 90.4125 186.068 89.0625 186.278C87.72 186.488 87.1875 186.93 87.3975 188.295C87.615 189.713 88.245 189.923 89.595 189.713C90.9375 189.503 91.44 188.91 91.2525 187.695Z" fill="#192548"/>
<path d="M93.405 184.185L95.5725 183.848L98.385 186.825L98.955 187.455H98.9925L98.88 186.765L98.355 183.413L99.9675 183.165L100.928 189.36L98.85 189.683L95.97 186.593L95.355 185.918H95.3175L95.445 186.675L95.985 190.125L94.3725 190.373L93.4125 184.178L93.405 184.185Z" fill="#192548"/>
<path d="M107.655 181.965L108.21 185.528C108.488 187.298 107.438 188.438 105.428 188.753C103.403 189.068 102.06 188.303 101.783 186.525L101.228 182.963L102.848 182.708L103.418 186.39C103.568 187.358 104.093 187.448 105.195 187.275C106.328 187.103 106.763 186.84 106.613 185.895L106.043 182.213L107.655 181.965Z" fill="#192548"/>
<path d="M109.178 186.188L110.723 185.528C110.955 186.263 111.51 186.413 112.365 186.278C113.138 186.158 113.528 185.978 113.468 185.595C113.415 185.303 113.183 185.265 112.41 185.258L111.105 185.243C110.018 185.228 109.103 184.688 108.915 183.63C108.698 182.37 109.868 181.523 111.308 181.298C113.078 181.02 114.098 181.493 114.465 182.693L113.033 183.338C112.838 182.588 112.35 182.558 111.533 182.685C110.813 182.798 110.483 183.015 110.535 183.33C110.595 183.675 110.865 183.698 111.705 183.69H112.845C113.963 183.69 114.87 184.185 115.035 185.123C115.275 186.503 114.128 187.388 112.568 187.628C110.858 187.89 109.62 187.44 109.178 186.165V186.188Z" fill="#192548"/>
<path d="M88.035 204.825C88.2525 206.205 87.63 207.12 86.1975 207.338C85.3425 207.473 84.6075 207.12 84.18 206.37H84.165L84.585 209.04L83.895 209.145L83.01 203.46L83.5875 203.37L83.88 204.503H83.895C84.0675 203.663 84.6825 203.108 85.56 202.973C86.9775 202.755 87.8175 203.43 88.035 204.818V204.825ZM87.345 204.93C87.1875 203.903 86.5725 203.475 85.4325 203.648C84.375 203.813 83.85 204.458 84.0075 205.448C84.165 206.445 84.8775 206.888 85.9125 206.73C87.0525 206.55 87.5025 205.958 87.345 204.93Z" fill="#192548"/>
<path d="M92.7825 203.423L93.21 206.16L92.625 206.25L92.3625 205.14H92.3475C92.205 205.958 91.5675 206.505 90.6975 206.64C89.7225 206.79 89.055 206.453 88.9425 205.748C88.7925 204.795 89.49 204.51 91.35 203.925L92.1375 203.678L92.1075 203.498C91.9875 202.86 91.485 202.628 90.675 202.748C89.805 202.883 89.4825 203.265 89.5125 203.963L88.905 203.91C88.845 202.928 89.5275 202.35 90.6 202.185C91.7325 202.005 92.625 202.388 92.7825 203.415V203.423ZM92.1975 204.083L91.41 204.33C90.285 204.698 89.5125 204.915 89.6175 205.583C89.685 206.025 90.105 206.213 90.8025 206.108C91.695 205.965 92.385 205.14 92.19 204.09L92.1975 204.083Z" fill="#192548"/>
<path d="M97.7475 202.65L98.175 205.387L97.59 205.477L97.3275 204.367H97.3125C97.17 205.185 96.5325 205.732 95.655 205.867C94.68 206.017 94.0125 205.68 93.9 204.975C93.75 204.022 94.455 203.737 96.3075 203.152L97.0951 202.905L97.065 202.725C96.945 202.087 96.4425 201.855 95.6325 201.975C94.7625 202.11 94.4475 202.492 94.47 203.19L93.8625 203.137C93.8025 202.155 94.485 201.577 95.55 201.412C96.6825 201.24 97.5751 201.615 97.7401 202.642L97.7475 202.65ZM97.1625 203.31L96.375 203.557C95.25 203.925 94.4775 204.142 94.5825 204.81C94.65 205.252 95.07 205.44 95.7675 205.335C96.66 205.192 97.35 204.367 97.155 203.317L97.1625 203.31Z" fill="#192548"/>
<path d="M98.8501 204.067L99.4726 203.805C99.6826 204.397 100.178 204.622 101.018 204.487C101.753 204.375 102.128 204.082 102.053 203.625C101.985 203.257 101.655 203.115 100.92 203.092L100.005 203.07C99.2176 203.07 98.7751 202.732 98.6626 202.132C98.5351 201.382 99.1051 200.857 100.23 200.685C101.348 200.512 102.038 200.887 102.375 201.72L101.753 201.96C101.535 201.322 101.04 201.067 100.335 201.172C99.6376 201.277 99.2851 201.57 99.3451 201.997C99.4051 202.312 99.6451 202.485 100.178 202.492L101.205 202.507C102.12 202.522 102.623 202.807 102.735 203.437C102.87 204.262 102.255 204.825 101.055 205.012C99.9826 205.177 99.1276 204.847 98.8501 204.052V204.067Z" fill="#192548"/>
<path d="M108.053 201.713C107.835 200.31 108.608 199.395 110.138 199.155C111.45 198.953 112.2 199.38 112.583 200.415L111.93 200.67C111.698 199.935 111.218 199.635 110.235 199.793C109.058 199.973 108.585 200.595 108.735 201.6C108.893 202.605 109.53 203.055 110.708 202.868C111.728 202.71 112.042 202.26 112.05 201.465L112.748 201.51C112.71 202.65 112.11 203.303 110.813 203.505C109.283 203.745 108.263 203.085 108.045 201.705L108.053 201.713Z" fill="#192548"/>
<path d="M117.42 199.59L117.848 202.328L117.263 202.418L117 201.308H116.985C116.835 202.125 116.205 202.673 115.328 202.808C114.353 202.958 113.685 202.62 113.573 201.915C113.423 200.963 114.12 200.678 115.98 200.093L116.768 199.845L116.738 199.665C116.618 199.028 116.115 198.795 115.305 198.915C114.435 199.05 114.12 199.433 114.143 200.13L113.535 200.078C113.475 199.095 114.158 198.518 115.223 198.353C116.355 198.18 117.248 198.555 117.405 199.583L117.42 199.59ZM116.835 200.258L116.048 200.505C114.923 200.873 114.15 201.09 114.255 201.758C114.323 202.2 114.743 202.388 115.44 202.283C116.333 202.14 117.023 201.315 116.828 200.265L116.835 200.258Z" fill="#192548"/>
<path d="M118.485 197.948L119.062 197.858L119.355 198.975H119.362C119.52 197.933 120.315 197.513 121.342 197.475V198.143C120.277 198.143 119.34 198.9 119.542 200.183L119.827 202.013L119.137 202.118L118.485 197.94V197.948Z" fill="#192548"/>
<path d="M126.023 197.955H126.03L125.535 194.782L126.225 194.677L127.193 200.872L126.615 200.962L126.323 199.837H126.315C126.135 200.677 125.535 201.217 124.68 201.352C123.248 201.577 122.378 200.895 122.16 199.515C121.943 198.127 122.535 197.227 123.953 197.002C124.83 196.867 125.588 197.212 126.015 197.955H126.023ZM126.203 198.892C126.045 197.902 125.34 197.445 124.29 197.61C123.15 197.79 122.7 198.382 122.858 199.41C123.015 200.437 123.63 200.865 124.77 200.692C125.805 200.535 126.36 199.89 126.203 198.892Z" fill="#192548"/>
<path d="M102.669 196.609L81.125 199.96L81.2506 200.768L102.794 197.417L102.669 196.609Z" fill="#192548"/>
<path d="M104.509 208.441L82.9658 211.792L83.0914 212.6L104.635 209.249L104.509 208.441Z" fill="#192548"/>
<path d="M60.675 155.61C60.675 163.477 54.3075 169.837 46.4475 169.837C54.315 169.837 60.675 176.205 60.675 184.065C60.675 176.197 67.0425 169.837 74.9025 169.837C67.035 169.837 60.675 163.47 60.675 155.61Z" fill="#192548"/>
<path d="M61.05 184.065H60.3C60.3 176.422 54.0825 170.212 46.4475 170.212V169.462C54.09 169.462 60.3 163.245 60.3 155.61H61.05C61.05 163.252 67.2675 169.462 74.9025 169.462V170.212C67.26 170.212 61.05 176.43 61.05 184.065ZM49.74 169.837C55.155 171.09 59.4225 175.357 60.675 180.772C61.9275 175.357 66.195 171.09 71.61 169.837C66.2025 168.585 61.9275 164.317 60.675 158.902C59.4225 164.317 55.155 168.585 49.74 169.837Z" fill="#CDCECF"/>
<path d="M165.472 228.427C170.895 234.127 170.67 243.12 164.97 248.542C170.67 243.12 179.662 243.345 185.085 249.045C179.662 243.345 179.887 234.352 185.587 228.93C179.887 234.352 170.895 234.127 165.472 228.427Z" fill="#192548"/>
<path d="M184.815 249.307C179.55 243.772 170.76 243.555 165.225 248.82L164.708 248.28C170.243 243.015 170.46 234.225 165.195 228.69L165.735 228.172C168.285 230.857 171.728 232.387 175.425 232.477C179.108 232.575 182.633 231.217 185.318 228.66L185.835 229.2C183.15 231.75 181.62 235.192 181.53 238.89C181.44 242.587 182.79 246.097 185.348 248.782L184.808 249.3L184.815 249.307ZM174.773 244.26C177.578 244.26 180.383 245.062 182.805 246.66C181.425 244.327 180.72 241.657 180.788 238.882C180.855 236.115 181.688 233.482 183.18 231.225C180.848 232.605 178.178 233.295 175.41 233.235C172.635 233.167 170.003 232.327 167.745 230.835C170.565 235.62 170.408 241.65 167.355 246.285C169.635 244.935 172.208 244.267 174.773 244.267V244.26Z" fill="#CDCECF"/>
<path d="M188.475 187.103C191.588 190.215 191.588 195.24 188.475 198.353C191.588 195.24 196.613 195.24 199.725 198.353C196.613 195.24 196.613 190.215 199.725 187.103C196.613 190.215 191.588 190.215 188.475 187.103Z" fill="#192548"/>
<path d="M188.738 198.615L188.205 198.083C189.638 196.65 190.425 194.745 190.425 192.72C190.425 190.695 189.638 188.79 188.205 187.358L188.738 186.825C190.17 188.258 192.075 189.045 194.1 189.045C196.125 189.045 198.03 188.258 199.463 186.825L199.995 187.358C197.04 190.313 197.04 195.12 199.995 198.075L199.463 198.608C198.03 197.175 196.125 196.388 194.1 196.388C192.075 196.388 190.17 197.175 188.738 198.608V198.615ZM194.1 195.645C195.473 195.645 196.793 195.975 197.97 196.598C196.703 194.183 196.703 191.273 197.97 188.858C195.615 190.103 192.593 190.103 190.23 188.858C190.853 190.035 191.183 191.355 191.183 192.728C191.183 194.1 190.853 195.413 190.23 196.598C191.408 195.975 192.728 195.653 194.1 195.653V195.645Z" fill="#CDCECF"/>
<path d="M43.8 185.295C46.9125 188.408 46.9125 193.433 43.8 196.545C46.9125 193.433 51.9375 193.433 55.05 196.545C51.9375 193.433 51.9375 188.408 55.05 185.295C51.9375 188.408 46.9125 188.408 43.8 185.295Z" fill="#192548"/>
<path d="M54.78 196.807C51.825 193.852 47.0175 193.852 44.0625 196.807L43.53 196.275C46.485 193.32 46.485 188.512 43.53 185.557L44.0625 185.025C47.0175 187.98 51.825 187.98 54.78 185.025L55.3125 185.557C52.3575 188.512 52.3575 193.32 55.3125 196.275L54.78 196.807ZM49.425 193.845C50.76 193.845 52.095 194.16 53.3025 194.797C52.035 192.382 52.035 189.465 53.3025 187.042C50.8875 188.31 47.97 188.31 45.5475 187.042C46.815 189.457 46.815 192.375 45.5475 194.797C46.755 194.16 48.09 193.845 49.425 193.845Z" fill="#CDCECF"/>
<path d="M87.03 258.173C89.745 258.173 91.9425 260.37 91.9425 263.085C91.9425 260.37 94.14 258.173 96.855 258.173C94.14 258.173 91.9425 255.975 91.9425 253.26C91.9425 255.975 89.745 258.173 87.03 258.173Z" fill="#192548"/>
<path d="M92.3175 263.085H91.5675C91.5675 260.58 89.535 258.548 87.03 258.548V257.798C89.535 257.798 91.5675 255.765 91.5675 253.26H92.3175C92.3175 255.765 94.35 257.798 96.855 257.798V258.548C94.35 258.548 92.3175 260.58 92.3175 263.085ZM88.9875 258.173C90.33 258.713 91.41 259.785 91.9425 261.128C92.4825 259.785 93.555 258.705 94.8975 258.173C93.555 257.633 92.475 256.56 91.9425 255.218C91.4025 256.56 90.33 257.64 88.9875 258.173Z" fill="#CDCECF"/>
<path d="M97.3201 127.05C100.035 127.05 102.233 129.247 102.233 131.962C102.233 129.247 104.43 127.05 107.145 127.05C104.43 127.05 102.233 124.852 102.233 122.137C102.233 124.852 100.035 127.05 97.3201 127.05Z" fill="#192548"/>
<path d="M102.608 131.962H101.858C101.858 129.457 99.8251 127.425 97.3201 127.425V126.675C99.8251 126.675 101.858 124.642 101.858 122.137H102.608C102.608 124.642 104.64 126.675 107.145 126.675V127.425C104.64 127.425 102.608 129.457 102.608 131.962ZM99.2776 127.05C100.62 127.59 101.7 128.662 102.233 130.005C102.773 128.662 103.845 127.582 105.188 127.05C103.845 126.51 102.765 125.437 102.233 124.095C101.693 125.437 100.62 126.517 99.2776 127.05Z" fill="#CDCECF"/>
<path d="M153.405 258.173C156.12 258.173 158.318 260.37 158.318 263.085C158.318 260.37 160.515 258.173 163.23 258.173C160.515 258.173 158.318 255.975 158.318 253.26C158.318 255.975 156.12 258.173 153.405 258.173Z" fill="#192548"/>
<path d="M158.693 263.085H157.943C157.943 260.58 155.91 258.548 153.405 258.548V257.798C155.91 257.798 157.943 255.765 157.943 253.26H158.693C158.693 255.765 160.725 257.798 163.23 257.798V258.548C160.725 258.548 158.693 260.58 158.693 263.085ZM155.363 258.173C156.705 258.713 157.785 259.785 158.318 261.128C158.858 259.785 159.93 258.705 161.273 258.173C159.93 257.633 158.85 256.56 158.318 255.218C157.778 256.56 156.705 257.64 155.363 258.173Z" fill="#CDCECF"/>
</g>
</g>
<defs>
<clipPath id="clip0_9161_1954">
<rect width="375" height="375" fill="white"/>
</clipPath>
</defs>
</svg>
