<svg width="375" height="375" viewBox="0 0 375 375" fill="none" xmlns="http://www.w3.org/2000/svg">
<g clip-path="url(#clip0_9161_2314)">
<mask id="mask0_9161_2314" style="mask-type:luminance" maskUnits="userSpaceOnUse" x="0" y="0" width="375" height="375">
<path d="M375 0H0V375H375V0Z" fill="white"/>
</mask>
<g mask="url(#mask0_9161_2314)">
<path d="M220.047 84.8378L219.58 85.4253L307.692 155.337L308.158 154.749L220.047 84.8378Z" fill="#A7AEB7"/>
<path d="M160.714 84.8236L72.5903 154.719L73.0563 155.307L161.18 85.4112L160.714 84.8236Z" fill="#A7AEB7"/>
<path d="M73.0602 245.233L72.5941 245.821L160.705 315.732L161.172 315.145L73.0602 245.233Z" fill="#A7AEB7"/>
<path d="M307.695 245.207L219.572 315.103L220.038 315.69L308.161 245.794L307.695 245.207Z" fill="#A7AEB7"/>
<path d="M78.015 157.41H77.265V250.973H78.015V157.41Z" fill="#A7AEB7"/>
<path d="M308.295 157.41H307.545V250.973H308.295V157.41Z" fill="#A7AEB7"/>
<path d="M190.253 91.2075H189.503V292.725H190.253V91.2075Z" fill="#A7AEB7"/>
<path d="M80.9798 149.911L80.6712 150.595L188.03 199.069L188.339 198.386L80.9798 149.911Z" fill="#A7AEB7"/>
<path d="M296.835 149.847L189.51 198.396L189.819 199.08L297.144 150.531L296.835 149.847Z" fill="#A7AEB7"/>
<path d="M189.805 198.387L189.496 199.071L296.855 247.545L297.163 246.862L189.805 198.387Z" fill="#A7AEB7"/>
<path d="M188.023 198.337L80.6982 246.886L81.0074 247.57L188.332 199.021L188.023 198.337Z" fill="#A7AEB7"/>
<path d="M190.62 361.125C218.571 361.125 241.23 338.466 241.23 310.515C241.23 282.564 218.571 259.905 190.62 259.905C162.669 259.905 140.01 282.564 140.01 310.515C140.01 338.466 162.669 361.125 190.62 361.125Z" fill="#89C764"/>
<path d="M255.293 30.7275H124.515V95.8875H255.293V30.7275Z" fill="#D9D9D9"/>
<path d="M270.225 30.7275H255.293V95.8875H270.225V30.7275Z" fill="#214082"/>
<path d="M251.288 23.3025H189.908H128.528L121.095 30.7275H123.698H189.908H256.11H258.713L251.288 23.3025Z" fill="#214082"/>
<path d="M164.43 31.11H215.378L189.908 19.1625L164.43 31.11Z" fill="#D9D9D9"/>
<path d="M170.565 67.9575L177.285 54.8175V67.9575H170.565Z" fill="white"/>
<path d="M177.66 68.3325H170.198V54.4425H177.66V68.3325ZM170.94 67.5825H176.903V55.1925H170.94V67.5825Z" fill="#192548"/>
<path d="M181.223 67.9575L187.935 54.8175V67.9575H181.223Z" fill="white"/>
<path d="M188.31 68.3325H180.848V54.4425H188.31V68.3325ZM181.598 67.5825H187.56V55.1925H181.598V67.5825Z" fill="#192548"/>
<path d="M191.873 67.9575L198.593 54.8175V67.9575H191.873Z" fill="white"/>
<path d="M198.968 68.3325H191.505V54.4425H198.968V68.3325ZM192.247 67.5825H198.21V55.1925H192.247V67.5825Z" fill="#192548"/>
<path d="M133.05 67.9575L139.763 54.8175V67.9575H133.05Z" fill="white"/>
<path d="M140.138 68.3325H132.675V54.4425H140.138V68.3325ZM133.425 67.5825H139.388V55.1925H133.425V67.5825Z" fill="#192548"/>
<path d="M143.7 67.9575L150.42 54.8175V67.9575H143.7Z" fill="white"/>
<path d="M150.795 68.3325H143.333V54.4425H150.795V68.3325ZM144.075 67.5825H150.038V55.1925H144.075V67.5825Z" fill="#192548"/>
<path d="M154.358 67.9575L161.07 54.8175V67.9575H154.358Z" fill="white"/>
<path d="M161.445 68.3325H153.983V54.4425H161.445V68.3325ZM154.733 67.5825H160.695V55.1925H154.733V67.5825Z" fill="#192548"/>
<path d="M218.73 67.9575L225.443 54.8175V67.9575H218.73Z" fill="white"/>
<path d="M225.818 68.3325H218.355V54.4425H225.818V68.3325ZM219.105 67.5825H225.068V55.1925H219.105V67.5825Z" fill="#192548"/>
<path d="M229.38 67.9575L236.1 54.8175V67.9575H229.38Z" fill="white"/>
<path d="M236.475 68.3325H229.013V54.4425H236.475V68.3325ZM229.755 67.5825H235.718V55.1925H229.755V67.5825Z" fill="#192548"/>
<path d="M240.038 67.9575L246.75 54.8175V67.9575H240.038Z" fill="white"/>
<path d="M247.125 68.3325H239.663V54.4425H247.125V68.3325ZM240.413 67.5825H246.375V55.1925H240.413V67.5825Z" fill="#192548"/>
<path d="M202.53 67.9575L209.243 54.8175V67.9575H202.53Z" fill="white"/>
<path d="M209.618 68.3325H202.155V54.4425H209.618V68.3325ZM202.905 67.5825H208.868V55.1925H202.905V67.5825Z" fill="#192548"/>
<path d="M170.565 48.3825L177.285 39.9525V48.3825H170.565Z" fill="white"/>
<path d="M177.66 48.7574H170.198V39.5699H177.66V48.7574ZM170.94 48.0074H176.903V40.3199H170.94V48.0074Z" fill="#192548"/>
<path d="M181.223 48.3825L187.935 39.9525V48.3825H181.223Z" fill="white"/>
<path d="M188.31 48.7574H180.848V39.5699H188.31V48.7574ZM181.598 48.0074H187.56V40.3199H181.598V48.0074Z" fill="#192548"/>
<path d="M191.873 48.3825L198.593 39.9525V48.3825H191.873Z" fill="white"/>
<path d="M198.968 48.7574H191.505V39.5699H198.968V48.7574ZM192.247 48.0074H198.21V40.3199H192.247V48.0074Z" fill="#192548"/>
<path d="M133.05 48.3825L139.763 39.9525V48.3825H133.05Z" fill="white"/>
<path d="M140.138 48.7574H132.675V39.5699H140.138V48.7574ZM133.425 48.0074H139.388V40.3199H133.425V48.0074Z" fill="#192548"/>
<path d="M143.7 48.3825L150.42 39.9525V48.3825H143.7Z" fill="white"/>
<path d="M150.795 48.7574H143.333V39.5699H150.795V48.7574ZM144.075 48.0074H150.038V40.3199H144.075V48.0074Z" fill="#192548"/>
<path d="M154.358 48.3825L161.07 39.9525V48.3825H154.358Z" fill="white"/>
<path d="M161.445 48.7574H153.983V39.5699H161.445V48.7574ZM154.733 48.0074H160.695V40.3199H154.733V48.0074Z" fill="#192548"/>
<path d="M218.73 48.3825L225.443 39.9525V48.3825H218.73Z" fill="white"/>
<path d="M225.818 48.7574H218.355V39.5699H225.818V48.7574ZM219.105 48.0074H225.068V40.3199H219.105V48.0074Z" fill="#192548"/>
<path d="M229.38 48.3825L236.1 39.9525V48.3825H229.38Z" fill="white"/>
<path d="M236.475 48.7574H229.013V39.5699H236.475V48.7574ZM229.755 48.0074H235.718V40.3199H229.755V48.0074Z" fill="#192548"/>
<path d="M240.038 48.3825L246.75 39.9525V48.3825H240.038Z" fill="white"/>
<path d="M247.125 48.7574H239.663V39.5699H247.125V48.7574ZM240.413 48.0074H246.375V40.3199H240.413V48.0074Z" fill="#192548"/>
<path d="M202.53 48.3825L209.243 39.9525V48.3825H202.53Z" fill="white"/>
<path d="M209.618 48.7574H202.155V39.5699H209.618V48.7574ZM202.905 48.0074H208.868V40.3199H202.905V48.0074Z" fill="#192548"/>
<path d="M133.05 93.045L139.763 84.615V93.045H133.05Z" fill="white"/>
<path d="M140.138 93.4199H132.675V84.2324H140.138V93.4199ZM133.425 92.6699H139.388V84.9824H133.425V92.6699Z" fill="#192548"/>
<path d="M143.7 93.045L150.42 84.615V93.045H143.7Z" fill="white"/>
<path d="M150.795 93.4199H143.333V84.2324H150.795V93.4199ZM144.075 92.6699H150.038V84.9824H144.075V92.6699Z" fill="#192548"/>
<path d="M154.358 93.045L161.07 84.615V93.045H154.358Z" fill="white"/>
<path d="M161.445 93.4199H153.983V84.2324H161.445V93.4199ZM154.733 92.6699H160.695V84.9824H154.733V92.6699Z" fill="#192548"/>
<path d="M218.73 93.045L225.443 84.615V93.045H218.73Z" fill="white"/>
<path d="M225.818 93.4199H218.355V84.2324H225.818V93.4199ZM219.105 92.6699H225.068V84.9824H219.105V92.6699Z" fill="#192548"/>
<path d="M229.38 93.045L236.1 84.615V93.045H229.38Z" fill="white"/>
<path d="M236.475 93.4199H229.013V84.2324H236.475V93.4199ZM229.755 92.6699H235.718V84.9824H229.755V92.6699Z" fill="#192548"/>
<path d="M240.038 93.045L246.75 84.615V93.045H240.038Z" fill="white"/>
<path d="M247.125 93.4199H239.663V84.2324H247.125V93.4199ZM240.413 92.6699H246.375V84.9824H240.413V92.6699Z" fill="#192548"/>
<path d="M218.73 81.765L225.443 76.545V81.765H218.73Z" fill="white"/>
<path d="M225.818 82.14H218.355V76.17H225.818V82.14ZM219.105 81.39H225.068V76.92H219.105V81.39Z" fill="#192548"/>
<path d="M229.38 81.765L236.1 76.545V81.765H229.38Z" fill="white"/>
<path d="M236.475 82.14H229.013V76.17H236.475V82.14ZM229.755 81.39H235.718V76.92H229.755V81.39Z" fill="#192548"/>
<path d="M240.038 81.765L246.75 76.545V81.765H240.038Z" fill="white"/>
<path d="M247.125 82.14H239.663V76.17H247.125V82.14ZM240.413 81.39H246.375V76.92H240.413V81.39Z" fill="#192548"/>
<path d="M154.358 81.765L161.07 76.545V81.765H154.358Z" fill="white"/>
<path d="M161.445 82.14H153.983V76.17H161.445V82.14ZM154.733 81.39H160.695V76.92H154.733V81.39Z" fill="#192548"/>
<path d="M143.7 82.0125L150.42 76.7925V82.0125H143.7Z" fill="white"/>
<path d="M150.795 82.3875H143.333V76.4175H150.795V82.3875ZM144.075 81.6375H150.038V77.1675H144.075V81.6375Z" fill="#192548"/>
<path d="M133.05 82.26L139.763 77.04V82.26H133.05Z" fill="white"/>
<path d="M140.138 82.635H132.675V76.665H140.138V82.635ZM133.425 81.885H139.388V77.415H133.425V81.885Z" fill="#192548"/>
<path d="M189.908 74.505C194.7 74.505 198.593 78.3975 198.593 83.19V95.88H181.223V83.19C181.223 78.3975 185.115 74.505 189.908 74.505Z" fill="#16254C"/>
<path d="M255.293 32.67H124.515V33.42H255.293V32.67Z" fill="#19A3DD"/>
<path d="M255.3 72.3225H214.372V73.0725H255.3V72.3225Z" fill="#19A3DD"/>
<path d="M165.825 72.3225H124.515V73.0725H165.825V72.3225Z" fill="#19A3DD"/>
<path d="M166.2 33.045H165.45V95.88H166.2V33.045Z" fill="#19A3DD"/>
<path d="M214.747 33.045H213.997V95.88H214.747V33.045Z" fill="#19A3DD"/>
<path d="M210.878 95.8799H210.128V71.6174H169.68V95.8799H168.93V70.8674H210.878V95.8799Z" fill="#19A3DD"/>
<path d="M208.44 95.88H207.69V74.52H201.173V95.88H200.423V73.77H208.44V95.88Z" fill="#19A3DD"/>
<path d="M198.735 95.88H197.985V74.52H181.823V95.88H181.073V73.77H198.735V95.88Z" fill="#19A3DD"/>
<path d="M179.385 95.88H178.635V74.52H172.118V95.88H171.368V73.77H179.385V95.88Z" fill="#19A3DD"/>
<path d="M264.908 23.3025H249.698L257.393 30.7275H269.903H272.603L264.908 23.3025Z" fill="#16254C"/>
<path d="M270.225 32.67H255.293V33.42H270.225V32.67Z" fill="#192548"/>
<path d="M197.318 17.91H182.498V20.4H197.318V17.91Z" fill="#16254C"/>
<path d="M194.318 13.485H185.498V19.335H194.318V13.485Z" fill="#16254C"/>
<path d="M281.295 136.485H331.425C333.15 136.485 334.553 137.887 334.553 139.612V170.475C334.553 172.2 333.15 173.602 331.425 173.602H284.423C282.698 173.602 281.295 172.2 281.295 170.475V136.485Z" fill="#89C764"/>
<path d="M285.008 130.59H304.553C308.408 130.59 311.535 133.717 311.535 137.572V138.262C311.535 140.895 309.398 143.032 306.765 143.032H286.073C283.44 143.032 281.303 140.895 281.303 138.262V134.31C281.303 132.262 282.968 130.597 285.015 130.597L285.008 130.59Z" fill="#89C764"/>
<path d="M327.885 134.205H284.588V136.485H327.885V134.205Z" fill="white"/>
<path d="M90.3376 122.302H62.2426V172.86H98.2351V130.207L90.3376 122.302Z" fill="#D9D9D9"/>
<path d="M90.3375 130.207H98.235L90.3375 122.302V130.207Z" fill="#16254C"/>
<path d="M86.73 134.13H66.2325V134.88H86.73V134.13Z" fill="#192548"/>
<path d="M92.6025 138.42H66.2325V139.17H92.6025V138.42Z" fill="#192548"/>
<path d="M92.6025 167.708H80.8275V168.458H92.6025V167.708Z" fill="#192548"/>
<path d="M86.73 154.027H66.2325V154.777H86.73V154.027Z" fill="#192548"/>
<path d="M92.6025 158.318H66.2325V159.068H92.6025V158.318Z" fill="#192548"/>
<path d="M83.6775 162.562H66.2325V163.312H83.6775V162.562Z" fill="#192548"/>
<path d="M69.4725 150.247C71.2619 150.247 72.7125 148.797 72.7125 147.007C72.7125 145.218 71.2619 143.767 69.4725 143.767C67.6831 143.767 66.2325 145.218 66.2325 147.007C66.2325 148.797 67.6831 150.247 69.4725 150.247Z" fill="#89C764"/>
<path d="M71.5875 125.355H66.2325V130.71H71.5875V125.355Z" fill="#3472AF"/>
<path d="M72.21 161.61C77.175 156.645 77.175 148.597 72.21 143.632C67.245 138.667 59.1975 138.667 54.2325 143.632C49.2675 148.597 49.2675 156.645 54.2325 161.61C59.1975 166.575 67.245 166.575 72.21 161.61ZM56.4225 145.822C60.1725 142.072 66.255 142.072 70.0125 145.822C73.7625 149.572 73.7625 155.655 70.0125 159.412C66.2625 163.162 60.18 163.162 56.4225 159.412C52.6725 155.662 52.6725 149.58 56.4225 145.822Z" fill="#16254C"/>
<path d="M68.9325 158.332L68.4 157.8C71.2575 154.942 71.2575 150.292 68.4 147.435L68.9325 146.902C72.0825 150.052 72.0825 155.182 68.9325 158.332Z" fill="white"/>
<path d="M67.44 146.625C66.435 145.92 65.2575 145.47 64.035 145.335L64.1175 144.593C65.4675 144.743 66.765 145.238 67.8675 146.018L67.4325 146.633L67.44 146.625Z" fill="white"/>
<path d="M43.6506 174.834L56.3043 162.181C57.0365 161.448 57.0365 160.261 56.3043 159.529L56.299 159.524C55.5668 158.791 54.3796 158.791 53.6474 159.524L40.9937 172.177C40.2614 172.91 40.2614 174.097 40.9937 174.829L40.999 174.834C41.7312 175.566 42.9184 175.566 43.6506 174.834Z" fill="#16254C"/>
<path d="M78.0225 270.787C68.88 270.787 61.455 263.362 61.455 254.22L61.455 239.812H94.59V254.22C94.59 263.362 87.165 270.787 78.0225 270.787Z" fill="#16254C"/>
<path d="M74.94 270.787C65.7975 270.787 58.3725 263.362 58.3725 254.22L58.3725 239.812H91.5075V254.22C91.5075 263.362 84.0825 270.787 74.94 270.787Z" fill="#89C764"/>
<path d="M91.4925 239.805H94.575V233.602C94.575 224.475 87.15 217.05 78.0225 217.05C68.895 217.05 61.47 224.475 61.47 233.602H64.5525C64.5525 226.17 70.5975 220.132 78.0225 220.132C85.455 220.132 91.4925 226.177 91.4925 233.602V239.805Z" fill="#16254C"/>
<path d="M88.4175 239.805H91.5V233.602C91.5 224.475 84.075 217.05 74.9475 217.05C65.82 217.05 58.395 224.475 58.395 233.602H61.4775C61.4775 226.17 67.5225 220.132 74.9475 220.132C82.38 220.132 88.4175 226.177 88.4175 233.602V239.805Z" fill="#89C764"/>
<path d="M74.9475 250.965C76.4345 250.965 77.64 249.759 77.64 248.272C77.64 246.785 76.4345 245.58 74.9475 245.58C73.4605 245.58 72.255 246.785 72.255 248.272C72.255 249.759 73.4605 250.965 74.9475 250.965Z" fill="#16254C"/>
<path d="M71.7 259.53H78.1875L74.9475 248.272L71.7 259.53Z" fill="#16254C"/>
<path d="M328.845 237.802V223.987H325.988H324.3H314.873H310.328V237.817H313.185V239.932H310.328V253.747H313.185V255.877H310.328V269.692H313.185H314.873H324.3H328.845V255.877H324.968V253.747H328.845V239.932H324.968V237.802H328.845Z" fill="#D9D9D9"/>
<path d="M324.368 227.512H314.805V228.262H324.368V227.512Z" fill="#192548"/>
<path d="M324.368 229.5H314.805V230.25H324.368V229.5Z" fill="#192548"/>
<path d="M324.368 231.495H314.805V232.245H324.368V231.495Z" fill="#192548"/>
<path d="M324.368 233.49H314.805V234.24H324.368V233.49Z" fill="#192548"/>
<path d="M324.368 243.472H314.805V244.222H324.368V243.472Z" fill="#192548"/>
<path d="M324.368 245.468H314.805V246.218H324.368V245.468Z" fill="#192548"/>
<path d="M324.368 247.463H314.805V248.213H324.368V247.463Z" fill="#192548"/>
<path d="M324.368 249.458H314.805V250.208H324.368V249.458Z" fill="#192548"/>
<path d="M324.368 259.44H314.805V260.19H324.368V259.44Z" fill="#192548"/>
<path d="M324.368 261.435H314.805V262.185H324.368V261.435Z" fill="#192548"/>
<path d="M324.368 263.422H314.805V264.172H324.368V263.422Z" fill="#192548"/>
<path d="M324.368 265.417H314.805V266.167H324.368V265.417Z" fill="#192548"/>
<path d="M324.968 239.932V237.802H310.56V223.987H283.313H279.683V237.802H283.313V239.932H279.683V253.747H283.313V255.877H279.683V269.692H310.56V255.877H324.968V253.747H310.56V239.932H324.968Z" fill="#16254C"/>
<path d="M285.975 229.522H283.23V232.267H285.975V229.522Z" fill="#89C764"/>
<path d="M291.195 229.522H288.45V232.267H291.195V229.522Z" fill="#89C764"/>
<path d="M296.423 229.522H293.678V232.267H296.423V229.522Z" fill="#89C764"/>
<path d="M305.993 229.522H303.248V232.267H305.993V229.522Z" fill="#3472AF"/>
<path d="M285.975 245.527H283.23V248.272H285.975V245.527Z" fill="#89C764"/>
<path d="M291.195 245.527H288.45V248.272H291.195V245.527Z" fill="#89C764"/>
<path d="M296.423 245.527H293.678V248.272H296.423V245.527Z" fill="#89C764"/>
<path d="M305.993 245.527H303.248V248.272H305.993V245.527Z" fill="#3472AF"/>
<path d="M285.975 261.525H283.23V264.27H285.975V261.525Z" fill="#89C764"/>
<path d="M291.195 261.525H288.45V264.27H291.195V261.525Z" fill="#89C764"/>
<path d="M296.423 261.525H293.678V264.27H296.423V261.525Z" fill="#89C764"/>
<path d="M305.993 261.525H303.248V264.27H305.993V261.525Z" fill="#3472AF"/>
<path d="M310.56 237.802H283.313V239.925H310.56V237.802Z" fill="#D9D9D9"/>
<path d="M310.56 253.747H283.313V255.87H310.56V253.747Z" fill="#D9D9D9"/>
<path d="M200.153 280.41H176.34C174.654 280.41 173.288 281.777 173.288 283.462V335.812C173.288 337.498 174.654 338.865 176.34 338.865H200.153C201.838 338.865 203.205 337.498 203.205 335.812V283.462C203.205 281.777 201.838 280.41 200.153 280.41Z" fill="#16254C"/>
<path d="M203.52 280.41H179.708C178.022 280.41 176.655 281.777 176.655 283.462V335.812C176.655 337.498 178.022 338.865 179.708 338.865H203.52C205.206 338.865 206.573 337.498 206.573 335.812V283.462C206.573 281.777 205.206 280.41 203.52 280.41Z" fill="#214082"/>
<path d="M179.708 282.255H203.52C204.188 282.255 204.728 282.795 204.728 283.463V335.813C204.728 336.48 204.188 337.02 203.52 337.02H179.708C179.04 337.02 178.5 336.48 178.5 335.813V283.463C178.5 282.795 179.04 282.255 179.708 282.255Z" fill="white"/>
<path d="M196.56 280.972H186.998C186.517 280.972 186.128 281.362 186.128 281.842V282.967C186.128 283.448 186.517 283.837 186.998 283.837H196.56C197.04 283.837 197.43 283.448 197.43 282.967V281.842C197.43 281.362 197.04 280.972 196.56 280.972Z" fill="#214082"/>
<path d="M187.733 307.327C187.733 306.727 187.418 306.352 186.968 306.352C186.518 306.352 186.195 306.735 186.195 307.327C186.195 307.92 186.503 308.302 186.968 308.302C187.433 308.302 187.733 307.927 187.733 307.327ZM185.355 305.7H186.188V305.872L186.135 306.277H186.225C186.398 305.932 186.743 305.662 187.238 305.662C187.995 305.662 188.573 306.285 188.573 307.327C188.573 308.37 187.995 308.992 187.238 308.992C186.743 308.992 186.398 308.707 186.225 308.377H186.135L186.188 308.805V310.507H185.355V305.692V305.7Z" fill="#89C764"/>
<path d="M191.168 307.672V307.582C190.515 307.582 189.818 307.582 189.818 308.04C189.818 308.265 190.005 308.407 190.328 308.407C190.83 308.407 191.175 308.115 191.175 307.68M188.985 308.107C188.985 307.065 190.215 307.102 191.168 307.102V306.847C191.168 306.48 190.965 306.307 190.59 306.307C190.215 306.307 189.975 306.48 189.938 306.922L189.135 306.885C189.188 305.985 189.825 305.64 190.583 305.64C191.393 305.64 191.985 305.985 191.985 306.915V308.955H191.333L191.265 308.407H191.19C191.018 308.812 190.635 309.022 190.08 309.022C189.42 309.022 188.978 308.677 188.978 308.115" fill="#89C764"/>
<path d="M194.648 307.672V307.582C193.995 307.582 193.298 307.582 193.298 308.04C193.298 308.265 193.485 308.407 193.808 308.407C194.31 308.407 194.655 308.115 194.655 307.68M192.473 308.107C192.473 307.065 193.703 307.102 194.655 307.102V306.847C194.655 306.48 194.453 306.307 194.078 306.307C193.703 306.307 193.463 306.48 193.425 306.922L192.623 306.885C192.675 305.985 193.313 305.64 194.07 305.64C194.88 305.64 195.473 305.985 195.473 306.915V308.955H194.82L194.753 308.407H194.678C194.505 308.812 194.123 309.022 193.568 309.022C192.908 309.022 192.465 308.677 192.465 308.115" fill="#89C764"/>
<path d="M195.975 307.995L196.763 307.92C196.838 308.227 197.048 308.377 197.475 308.377C197.865 308.377 198.09 308.242 198.09 307.995C198.09 307.837 198 307.71 197.633 307.665L197.063 307.597C196.538 307.537 196.013 307.32 196.013 306.712C196.013 306.052 196.545 305.64 197.363 305.64C198.18 305.64 198.66 306.03 198.713 306.705L197.985 306.757C197.955 306.45 197.76 306.285 197.363 306.285C196.965 306.285 196.8 306.457 196.8 306.69C196.8 306.862 196.92 306.96 197.22 306.997L197.813 307.065C198.398 307.14 198.893 307.357 198.893 307.972C198.893 308.632 198.413 309.03 197.483 309.03C196.553 309.03 196.08 308.662 195.983 308.01" fill="#89C764"/>
<path d="M201 302.722H183.225V303.412H201V302.722Z" fill="#89C764"/>
<path d="M201 311.76H183.225V312.45H201V311.76Z" fill="#89C764"/>
<path d="M181.26 196.582C180.585 197.13 180.135 197.82 180.008 198.63C179.648 200.91 182.018 203.175 185.31 203.692C187.035 203.962 188.663 203.7 189.878 203.062C192.458 205.657 196.778 207.36 201.675 207.36C209.58 207.36 215.985 202.927 215.985 197.467C215.985 197.392 215.985 197.317 215.978 197.242C221.07 196.38 224.858 193.132 224.858 189.262C224.858 184.725 219.668 181.05 213.27 181.05C212.768 181.05 212.28 181.072 211.793 181.117C210.593 177.48 206.813 174.825 202.335 174.825C198.248 174.825 194.738 177.037 193.245 180.195C191.385 179.527 189.27 179.145 187.02 179.145C179.618 179.145 173.61 183.247 173.61 188.31C173.61 191.962 176.738 195.12 181.268 196.59L181.26 196.582Z" fill="#D9D9D9"/>
<path d="M196.853 190.282C197.963 190.282 198.863 189.383 198.863 188.272C198.863 187.162 197.963 186.262 196.853 186.262C195.742 186.262 194.843 187.162 194.843 188.272C194.843 189.383 195.742 190.282 196.853 190.282Z" fill="#89C764"/>
<path d="M210.038 200.73C211.148 200.73 212.048 199.83 212.048 198.72C212.048 197.61 211.148 196.71 210.038 196.71C208.927 196.71 208.028 197.61 208.028 198.72C208.028 199.83 208.927 200.73 210.038 200.73Z" fill="#89C764"/>
<path d="M218.01 188.745C219.12 188.745 220.02 187.845 220.02 186.735C220.02 185.625 219.12 184.725 218.01 184.725C216.9 184.725 216 185.625 216 186.735C216 187.845 216.9 188.745 218.01 188.745Z" fill="#89C764"/>
<path d="M229.748 203.34C230.858 203.34 231.758 202.44 231.758 201.33C231.758 200.22 230.858 199.32 229.748 199.32C228.637 199.32 227.738 200.22 227.738 201.33C227.738 202.44 228.637 203.34 229.748 203.34Z" fill="#89C764"/>
<path d="M199.238 213.45C199.238 214.56 198.338 215.46 197.228 215.46C196.118 215.46 195.218 214.56 195.218 213.45C195.218 212.34 196.118 211.44 197.228 211.44C198.338 211.44 199.238 212.34 199.238 213.45Z" fill="#89C764"/>
<path d="M186.18 200.73C187.29 200.73 188.19 199.83 188.19 198.72C188.19 197.61 187.29 196.71 186.18 196.71C185.07 196.71 184.17 197.61 184.17 198.72C184.17 199.83 185.07 200.73 186.18 200.73Z" fill="#89C764"/>
<path d="M196.928 213.675L185.685 198.683L196.823 187.77L209.955 198.173L217.98 186.098L230.04 201.09L229.455 201.563L218.04 187.365L210.128 199.268L196.875 188.768L186.675 198.758L197.528 213.225L196.928 213.675Z" fill="#89C764"/>
<path d="M209.763 198.481L196.945 213.206L197.511 213.698L210.329 198.973L209.763 198.481Z" fill="#89C764"/>
<path d="M210.091 198.35L209.992 199.094L229.695 201.705L229.793 200.962L210.091 198.35Z" fill="#89C764"/>
<path d="M174.998 189.503C170.093 189.503 165.96 192.87 164.798 197.415H148.298C146.858 197.415 145.665 198.585 145.665 200.025V205.98H148.268V204.248H150.488V205.98H153.51V204.248H155.73V205.98H157.995V202.635H164.798C165.96 207.18 170.093 210.548 174.998 210.548C180.803 210.548 185.528 205.823 185.528 200.018C185.528 194.213 180.803 189.488 174.998 189.488V189.503ZM174.998 203.063C173.325 203.063 171.96 201.698 171.96 200.025C171.96 198.353 173.325 196.988 174.998 196.988C176.67 196.988 178.035 198.353 178.035 200.025C178.035 201.698 176.67 203.063 174.998 203.063Z" fill="#16254C"/>
<path d="M172.778 189.503C167.873 189.503 163.74 192.87 162.578 197.415H146.078C144.638 197.415 143.468 198.585 143.468 200.025V205.98H145.665V204.248H148.26V205.98H150.9V204.248H153.495V205.98H155.76V202.635H162.563C163.725 207.18 167.858 210.548 172.763 210.548C178.568 210.548 183.293 205.823 183.293 200.018C183.293 194.213 178.568 189.488 172.763 189.488L172.778 189.503ZM172.778 203.063C171.105 203.063 169.74 201.698 169.74 200.025C169.74 198.353 171.105 196.988 172.778 196.988C174.45 196.988 175.815 198.353 175.815 200.025C175.815 201.698 174.45 203.063 172.778 203.063Z" fill="#3472AF"/>
<path d="M210.045 198.345H186.18V199.095H210.045V198.345Z" fill="#89C764"/>
</g>
</g>
<defs>
<clipPath id="clip0_9161_2314">
<rect width="375" height="375" fill="white"/>
</clipPath>
</defs>
</svg>
