<svg width="375" height="375" viewBox="0 0 375 375" fill="none" xmlns="http://www.w3.org/2000/svg">
<g clip-path="url(#clip0_9161_22547)">
<mask id="mask0_9161_22547" style="mask-type:luminance" maskUnits="userSpaceOnUse" x="0" y="0" width="375" height="375">
<path d="M375 0H0V375H375V0Z" fill="white"/>
</mask>
<g mask="url(#mask0_9161_22547)">
<path d="M53.0094 56.7712L149.64 37.7606C160.097 35.7033 170.251 42.5189 172.308 52.9759L220.706 298.978C222.763 309.435 215.947 319.589 205.49 321.646L108.86 340.657C98.0938 342.775 87.6315 335.753 85.5134 324.986L37.3389 80.1178C35.2208 69.3517 42.2433 58.8893 53.0094 56.7712Z" fill="#16254C"/>
<path d="M161.02 35.5217L67.6202 53.8968C55.1471 56.3507 47.0249 68.4514 49.4788 80.9245L96.443 319.641C98.8969 332.114 110.998 340.236 123.471 337.783L216.87 319.407C229.344 316.954 237.466 304.853 235.012 292.38L188.048 53.6631C185.594 41.19 173.493 33.0678 161.02 35.5217Z" fill="#3472AF"/>
<path d="M121.987 330.128C113.752 331.748 105.727 326.37 104.107 318.128L57.1275 79.4101C55.5075 71.1751 60.8925 63.1501 69.1275 61.5301L95.97 56.2501L96.12 57.0151C96.795 60.4501 100.147 62.7001 103.582 62.0251L135.352 55.7701C138.787 55.0951 141.037 51.7426 140.362 48.3076L140.212 47.5426L162.525 43.1551C170.76 41.5351 178.785 46.9201 180.405 55.1551L227.393 293.865C229.013 302.1 223.635 310.125 215.392 311.745L121.995 330.128H121.987Z" fill="white"/>
<path d="M119.025 330.795C115.965 330.795 112.965 329.888 110.355 328.14C106.89 325.815 104.543 322.29 103.74 318.203L56.76 79.485C55.9575 75.405 56.7975 71.25 59.1225 67.785C61.4475 64.32 64.9725 61.9725 69.06 61.17L96.27 55.815L96.495 56.9475C96.8025 58.515 97.7025 59.865 99.03 60.7575C100.358 61.65 101.955 61.9725 103.515 61.665L135.285 55.41C136.853 55.1025 138.203 54.2025 139.095 52.875C139.988 51.5475 140.31 49.95 140.003 48.39L139.778 47.2575L162.458 42.795C170.903 41.1375 179.115 46.65 180.78 55.0875L227.768 293.798C228.57 297.878 227.738 302.033 225.413 305.498C223.088 308.963 219.563 311.31 215.475 312.113L122.078 330.495C121.065 330.698 120.053 330.795 119.04 330.795H119.025ZM95.6775 56.6925L69.2025 61.905C65.3175 62.67 61.9575 64.905 59.745 68.205C57.5325 71.505 56.7375 75.4575 57.5025 79.3425L104.49 318.06C105.255 321.945 107.49 325.305 110.79 327.518C114.09 329.73 118.043 330.525 121.928 329.76L215.325 311.378C219.21 310.613 222.57 308.378 224.783 305.078C226.995 301.778 227.79 297.825 227.025 293.94L180.038 55.23C178.455 47.1975 170.633 41.94 162.6 43.5225L140.655 47.8425L140.73 48.24C141.45 51.8775 139.065 55.425 135.428 56.145L103.658 62.4C101.895 62.745 100.103 62.385 98.61 61.38C97.1175 60.375 96.105 58.8525 95.7525 57.0975L95.6775 56.7V56.6925Z" fill="#393B56"/>
<path d="M131.969 48.7681L105.088 54.0662L105.233 54.802L132.114 49.5039L131.969 48.7681Z" fill="#393B56"/>
<path d="M115.432 87.6901C115.17 86.3476 114.3 85.6351 113.272 85.8376C112.207 86.0476 111.705 87.0451 111.96 88.3726C112.215 89.7001 113.077 90.4351 114.135 90.2251C115.162 90.0226 115.695 89.0401 115.432 87.6901ZM109.357 85.0801L111.232 84.7126L111.307 85.0951L111.367 86.0251L111.57 85.9876C111.81 85.1326 112.47 84.3826 113.58 84.1651C115.275 83.8276 116.857 84.9826 117.315 87.3226C117.765 89.6026 116.752 91.3276 115.05 91.6576C113.94 91.8751 113.032 91.3876 112.5 90.7351L112.297 90.7726L112.605 91.7176L113.362 95.5501L111.487 95.9176L109.357 85.0951V85.0801Z" fill="#89C764"/>
<path d="M123.293 86.9475L123.255 86.745C121.793 87.03 120.218 87.36 120.413 88.365C120.51 88.875 120.998 89.1 121.718 88.9575C122.843 88.7325 123.488 87.9225 123.3 86.9475M118.59 88.89C118.133 86.55 120.908 86.0775 123.045 85.6575L122.933 85.0875C122.768 84.27 122.243 83.9625 121.395 84.1275C120.548 84.2925 120.098 84.78 120.203 85.7925L118.388 86.055C118.11 84.015 119.385 82.9575 121.103 82.62C122.918 82.26 124.418 82.77 124.83 84.8625L125.738 89.4525L124.275 89.7375L123.885 88.5375L123.728 88.5675C123.525 89.55 122.753 90.1875 121.5 90.435C120.023 90.7275 118.86 90.15 118.613 88.875" fill="#89C764"/>
<path d="M131.138 85.4026L131.1 85.2001C129.638 85.4851 128.063 85.8151 128.258 86.8201C128.355 87.3301 128.843 87.5551 129.563 87.4126C130.688 87.1876 131.333 86.3776 131.145 85.4026M126.428 87.3451C125.97 85.0051 128.745 84.5326 130.883 84.1126L130.77 83.5426C130.605 82.7251 130.08 82.4176 129.233 82.5826C128.385 82.7476 127.935 83.2351 128.04 84.2476L126.225 84.5101C125.948 82.4701 127.223 81.4126 128.94 81.0751C130.755 80.7151 132.255 81.2251 132.668 83.3176L133.575 87.9076L132.113 88.1926L131.723 86.9926L131.565 87.0226C131.363 88.0051 130.59 88.6426 129.338 88.8901C127.86 89.1826 126.698 88.6051 126.45 87.3301" fill="#89C764"/>
<path d="M134.25 85.5451L135.982 85.0201C136.275 85.6726 136.83 85.9201 137.775 85.7326C138.652 85.5601 139.102 85.1551 138.997 84.5926C138.93 84.2401 138.667 83.9926 137.827 84.0451L136.515 84.1501C135.307 84.2551 134.032 83.9851 133.77 82.6276C133.477 81.1351 134.497 79.9801 136.335 79.6126C138.172 79.2451 139.432 79.9126 139.837 81.4126L138.225 81.8551C138.015 81.1801 137.505 80.8876 136.612 81.0601C135.765 81.2251 135.412 81.6901 135.517 82.2151C135.592 82.5976 135.915 82.7626 136.59 82.7176L137.947 82.6051C139.297 82.5226 140.505 82.7851 140.782 84.1726C141.075 85.6501 140.167 86.7526 138.075 87.1651C136.027 87.5701 134.752 86.9551 134.257 85.5301" fill="#89C764"/>
<path d="M143.231 71.4726L103.257 79.3369L103.563 80.8897L143.537 73.0254L143.231 71.4726Z" fill="#89C764"/>
<path d="M147.231 91.8047L107.257 99.6689L107.562 101.222L147.536 93.3574L147.231 91.8047Z" fill="#89C764"/>
<path d="M164.145 304.538C172.09 304.538 178.53 298.097 178.53 290.153C178.53 282.208 172.09 275.768 164.145 275.768C156.2 275.768 149.76 282.208 149.76 290.153C149.76 298.097 156.2 304.538 164.145 304.538Z" fill="#89C764"/>
<path d="M163.215 295.957L157.47 291.562L158.415 290.317L162.683 293.58L168.09 283.125L169.485 283.845L163.215 295.957Z" fill="white"/>
<path d="M257.253 109.426L119.427 136.541C115.448 137.324 112.857 141.184 113.64 145.163L129.16 224.051C129.943 228.03 133.803 230.621 137.782 229.838L275.607 202.723C279.586 201.94 282.177 198.08 281.395 194.101L265.874 115.213C265.092 111.234 261.232 108.643 257.253 109.426Z" fill="#393B56"/>
<path d="M258.27 107.916L120.445 135.032C116.466 135.814 113.875 139.674 114.658 143.653L130.178 222.541C130.96 226.52 134.821 229.111 138.799 228.328L276.625 201.213C280.604 200.43 283.195 196.57 282.412 192.591L266.892 113.703C266.109 109.725 262.249 107.134 258.27 107.916Z" fill="#3472AF"/>
<path d="M126.15 144.383L129.128 143.798L133.17 147.758L133.988 148.59H134.04L133.845 147.645L132.938 143.048L135.15 142.613L136.823 151.11L133.973 151.673L129.825 147.57L128.94 146.67H128.895L129.113 147.713L130.043 152.445L127.83 152.88L126.158 144.383H126.15Z" fill="white"/>
<path d="M139.568 141.743L142.635 141.135L147.683 148.965L145.365 149.423L144.405 147.87L140.475 148.643L140.16 150.443L137.843 150.9L139.568 141.735V141.743ZM141.345 140.708L140.28 140.918L140.43 138.555L143.34 137.985L141.345 140.708ZM143.288 146.078L142.388 144.63L141.473 143.13L141.398 143.145L141.12 144.878L140.835 146.558L143.288 146.078Z" fill="white"/>
<path d="M154.755 138.75L153.015 147.915L150.21 148.47L145.088 140.655L147.638 140.153L150.188 144.263L151.073 145.763L151.148 145.748L151.403 144.03L152.198 139.245L154.748 138.743L154.755 138.75Z" fill="white"/>
<path d="M156.225 144.653L158.325 143.663C158.685 144.66 159.465 144.84 160.627 144.608C161.685 144.398 162.21 144.135 162.105 143.61C162.015 143.213 161.692 143.175 160.627 143.205L158.82 143.258C157.312 143.303 156.03 142.605 155.708 141.158C155.34 139.425 156.9 138.195 158.88 137.813C161.31 137.333 162.735 137.925 163.312 139.56L161.377 140.535C161.062 139.515 160.387 139.493 159.277 139.71C158.295 139.905 157.853 140.22 157.935 140.655C158.04 141.128 158.407 141.143 159.57 141.09L161.145 141.023C162.683 140.963 163.972 141.6 164.25 142.883C164.655 144.765 163.125 146.055 160.987 146.475C158.647 146.933 156.908 146.385 156.225 144.653ZM161.047 134.498L159.862 137.063L158.002 137.43L155.933 135.503L157.192 135.255L158.49 135.818L158.663 135.908H158.7L158.82 135.75L159.78 134.745L161.04 134.498H161.047Z" fill="white"/>
<path d="M172.095 137.378L170.505 137.693L169.29 137.91L170.58 144.465L168.36 144.9L167.07 138.345L165.863 138.608L164.273 138.923L163.883 136.958L171.713 135.42L172.103 137.385L172.095 137.378Z" fill="white"/>
<path d="M175.673 136.74L175.898 137.88L179.963 137.078L180.353 139.043L176.288 139.845L176.55 141.18L181.02 140.303L181.418 142.328L174.765 143.64L173.093 135.143L179.745 133.83L180.143 135.855L175.673 136.733V136.74Z" fill="white"/>
<path d="M190.073 131.798L188.333 140.963L185.528 141.518L180.405 133.703L182.955 133.2L185.505 137.31L186.39 138.81L186.465 138.795L186.72 137.078L187.515 132.293L190.065 131.79L190.073 131.798Z" fill="white"/>
<path d="M190.95 131.625L193.92 131.04L197.963 135L198.78 135.832H198.825L198.63 134.887L197.723 130.29L199.935 129.855L201.608 138.352L198.758 138.915L194.61 134.812L193.725 133.912H193.68L193.898 134.955L194.827 139.687L192.615 140.122L190.943 131.625H190.95Z" fill="white"/>
<path d="M201.795 129.495L204.075 129.045L205.748 137.543L203.468 137.993L201.795 129.495ZM203.145 128.543L202.08 128.753L202.23 126.39L205.14 125.82L203.145 128.543Z" fill="white"/>
<path d="M206.213 133.057C205.68 130.35 207.263 128.287 210.323 127.687C212.82 127.192 214.748 128.077 215.573 130.41L213.435 131.272H213.405C212.82 129.712 212.423 129.367 210.713 129.705C208.673 130.11 208.14 130.725 208.508 132.585C208.883 134.475 209.64 134.805 211.643 134.415C213.375 134.07 213.593 133.567 213.54 131.962L213.563 131.947L215.865 131.932C215.978 134.422 214.5 135.945 212.033 136.432C209.153 136.995 206.723 135.735 206.198 133.065L206.213 133.057Z" fill="white"/>
<path d="M220.853 131.31L219.638 131.55L220.253 134.685L218.07 135.113L216.398 126.615L218.58 126.188L219.255 129.623L220.47 129.383L222.255 125.46L224.88 124.943L222.443 129.99L226.71 133.41L223.943 133.958L220.853 131.31Z" fill="white"/>
<path d="M228.525 124.23L231.593 123.623L236.64 131.453L234.323 131.91L233.363 130.358L229.433 131.13L229.118 132.93L226.8 133.388L228.525 124.223V124.23ZM232.245 128.565L231.345 127.118L230.43 125.618L230.355 125.633L230.078 127.365L229.793 129.045L232.245 128.565Z" fill="white"/>
<path d="M139.658 169.26C140.033 171.15 139.223 172.448 137.258 172.838C136.08 173.07 135.045 172.628 134.423 171.615H134.4L135.135 175.275L134.19 175.463L132.66 167.67L133.448 167.513L133.913 169.058H133.935C134.123 167.895 134.948 167.085 136.148 166.853C138.09 166.47 139.283 167.355 139.658 169.26ZM138.713 169.448C138.435 168.038 137.565 167.483 136.005 167.79C134.558 168.075 133.868 168.99 134.138 170.355C134.408 171.728 135.413 172.298 136.838 172.02C138.405 171.713 138.99 170.865 138.713 169.455V169.448Z" fill="white"/>
<path d="M146.13 167.07L146.865 170.82L146.063 170.978L145.635 169.463H145.612C145.455 170.595 144.615 171.39 143.415 171.63C142.08 171.893 141.135 171.458 140.947 170.498C140.692 169.185 141.637 168.758 144.172 167.843L145.245 167.453L145.2 167.213C145.005 166.343 144.293 166.043 143.183 166.26C141.99 166.493 141.57 167.04 141.645 168L140.805 167.963C140.663 166.613 141.57 165.78 143.04 165.495C144.593 165.188 145.845 165.66 146.123 167.07H146.13ZM145.357 168.015L144.285 168.405C142.755 168.968 141.705 169.32 141.885 170.228C142.005 170.835 142.59 171.068 143.55 170.88C144.772 170.64 145.68 169.455 145.357 168.015Z" fill="white"/>
<path d="M152.94 165.727L153.675 169.477L152.872 169.635L152.445 168.12H152.422C152.265 169.252 151.425 170.047 150.225 170.287C148.89 170.55 147.945 170.115 147.757 169.155C147.502 167.842 148.447 167.415 150.982 166.5L152.055 166.11L152.01 165.87C151.815 165 151.103 164.7 149.993 164.917C148.8 165.15 148.38 165.698 148.455 166.658L147.615 166.62C147.473 165.27 148.38 164.437 149.85 164.152C151.402 163.845 152.655 164.317 152.932 165.727H152.94ZM152.167 166.672L151.095 167.062C149.565 167.625 148.515 167.97 148.695 168.885C148.815 169.492 149.4 169.725 150.36 169.537C151.582 169.297 152.49 168.112 152.167 166.672Z" fill="white"/>
<path d="M154.538 167.618L155.377 167.228C155.7 168.03 156.398 168.315 157.553 168.083C158.558 167.888 159.053 167.46 158.933 166.838C158.82 166.328 158.355 166.155 157.335 166.17L156.067 166.193C154.98 166.23 154.35 165.803 154.163 164.978C153.945 163.95 154.71 163.193 156.247 162.893C157.777 162.593 158.752 163.065 159.27 164.205L158.422 164.573C158.085 163.703 157.395 163.373 156.42 163.568C155.46 163.755 154.988 164.175 155.1 164.76C155.198 165.195 155.542 165.42 156.27 165.398L157.687 165.36C158.955 165.323 159.66 165.69 159.855 166.56C160.087 167.685 159.27 168.503 157.627 168.825C156.157 169.118 154.957 168.705 154.53 167.618H154.538Z" fill="white"/>
<path d="M169.493 163.388L168.51 163.583L169.073 166.448L168.15 166.628L166.478 158.13L167.4 157.95L168.345 162.743L169.328 162.548L171.21 160.073L172.463 159.825L170.16 162.878L173.76 165.525L172.68 165.735L169.493 163.388Z" fill="white"/>
<path d="M179.393 160.523L180.128 164.273L179.325 164.43L178.898 162.915H178.875C178.718 164.048 177.878 164.843 176.678 165.083C175.343 165.345 174.398 164.91 174.21 163.95C173.955 162.638 174.9 162.21 177.435 161.295L178.508 160.905L178.463 160.665C178.268 159.795 177.555 159.495 176.445 159.713C175.253 159.945 174.833 160.493 174.908 161.453L174.068 161.415C173.925 160.065 174.833 159.233 176.303 158.948C177.855 158.64 179.108 159.113 179.385 160.523H179.393ZM178.62 161.468L177.548 161.858C176.018 162.42 174.968 162.773 175.148 163.68C175.268 164.288 175.853 164.52 176.813 164.333C178.035 164.093 178.943 162.908 178.62 161.468Z" fill="white"/>
<path d="M180.765 158.198L181.553 158.04L182.018 159.563H182.033C182.19 158.115 183.263 157.493 184.68 157.388L184.725 158.31C183.248 158.37 182.003 159.465 182.348 161.228L182.843 163.74L181.898 163.928L180.773 158.198H180.765Z" fill="white"/>
<path d="M188.812 157.492L188.085 157.62L188.873 161.64L188.91 161.655L190.8 161.28L190.965 162.127L189.232 162.472C188.49 162.615 188.01 162.27 187.868 161.557L187.132 157.807L186.405 157.965L185.603 158.122L185.438 157.275L186.24 157.117L186.967 156.982L186.817 155.07L187.545 154.927L187.913 156.795L188.64 156.637L190.013 156.367L190.178 157.215L188.805 157.485L188.812 157.492Z" fill="white"/>
<path d="M196.935 157.065L197.67 160.815L196.867 160.973L196.44 159.458H196.418C196.26 160.59 195.42 161.385 194.22 161.625C192.885 161.888 191.94 161.453 191.752 160.493C191.497 159.18 192.443 158.753 194.978 157.838L196.05 157.448L196.005 157.208C195.81 156.338 195.097 156.038 193.987 156.255C192.795 156.488 192.375 157.035 192.45 157.995L191.61 157.958C191.467 156.608 192.375 155.775 193.845 155.49C195.397 155.183 196.65 155.655 196.928 157.065H196.935ZM196.162 158.01L195.09 158.4C193.56 158.963 192.51 159.308 192.69 160.223C192.81 160.83 193.395 161.063 194.355 160.875C195.578 160.635 196.485 159.45 196.162 158.01Z" fill="white"/>
<path d="M159.255 156.973L129.723 162.783L129.942 163.894L159.473 158.085L159.255 156.973Z" fill="white"/>
<path d="M162.452 173.189L132.921 178.999L133.14 180.11L162.671 174.3L162.452 173.189Z" fill="white"/>
<path d="M271.26 176.715L268.155 177.33L265.485 163.792L264.915 163.905L267.577 177.442L257.745 179.377L255.082 165.84L254.513 165.952L257.175 179.49L247.343 181.425L244.68 167.887L244.11 168L246.772 181.537L236.94 183.472L234.27 169.935L233.7 170.047L236.362 183.585L233.258 184.2L233.37 184.77L236.475 184.155L239.145 197.692L239.715 197.58L237.053 184.042L246.885 182.107L249.548 195.645L250.117 195.532L247.455 181.995L257.287 180.06L259.95 193.597L260.52 193.485L257.857 179.947L267.69 178.012L270.36 191.55L270.93 191.437L268.268 177.9L271.372 177.292L271.26 176.715Z" fill="#CDCECF"/>
<path d="M253.357 185.16L251.242 185.58L252.518 192.06L253.088 191.948L252.607 189.51L254.152 189.203C255.262 188.985 255.99 187.898 255.772 186.788C255.555 185.67 254.467 184.943 253.357 185.16ZM254.04 188.633L252.495 188.94L251.925 186.038L253.47 185.73C254.265 185.573 255.045 186.098 255.202 186.893C255.36 187.688 254.835 188.468 254.04 188.625V188.633Z" fill="#CDCECF"/>
<path d="M260.017 171.99L261.562 171.683C262.672 171.465 263.4 170.378 263.182 169.268C262.965 168.158 261.877 167.423 260.767 167.64L258.652 168.06L259.927 174.54L260.497 174.428L260.017 171.99ZM259.335 168.518L260.88 168.21C261.675 168.053 262.455 168.578 262.612 169.373C262.77 170.168 262.245 170.948 261.45 171.105L259.905 171.413L259.335 168.51V168.518Z" fill="#CDCECF"/>
<path d="M240.923 180.518L241.958 180.315C243.473 180.015 244.268 179.055 244.02 177.803L242.798 171.578C242.498 170.07 241.035 169.088 239.535 169.38L239.033 169.478C237.533 169.77 236.55 171.24 236.843 172.748L238.065 178.973C238.313 180.225 239.408 180.81 240.923 180.518ZM237.413 172.635C237.18 171.443 237.953 170.288 239.145 170.048L239.648 169.95C240.84 169.718 241.995 170.498 242.228 171.683L243.45 177.908C243.705 179.22 242.415 179.625 241.845 179.738L240.81 179.94C240.24 180.053 238.89 180.173 238.635 178.853L237.413 172.628V172.635Z" fill="#CDCECF"/>
<path d="M239.97 172.928C240.773 172.77 241.178 172.942 241.185 172.942L241.425 172.417C241.373 172.387 240.848 172.17 239.858 172.365C238.988 172.538 238.47 173.01 238.448 173.033L238.845 173.46C238.845 173.46 239.273 173.077 239.97 172.935V172.928Z" fill="#CDCECF"/>
<path d="M241.834 176.839L239.7 177.259L239.813 177.833L241.947 177.413L241.834 176.839Z" fill="#CDCECF"/>
<path d="M251.595 178.417L252.098 178.32C253.598 178.027 254.58 176.557 254.288 175.05L253.065 168.825C252.818 167.572 251.723 166.987 250.208 167.28L249.173 167.482C247.658 167.782 246.863 168.742 247.11 169.995L248.333 176.22C248.633 177.727 250.095 178.71 251.595 178.417ZM247.68 169.882C247.425 168.57 248.715 168.165 249.285 168.052L250.32 167.85C250.89 167.737 252.24 167.617 252.495 168.937L253.718 175.162C253.95 176.355 253.178 177.51 251.985 177.75L251.483 177.847C250.29 178.08 249.135 177.3 248.903 176.115L247.68 169.89V169.882Z" fill="#CDCECF"/>
<path d="M252.683 174.773L252.285 174.345C252.285 174.345 251.858 174.728 251.16 174.87C250.358 175.028 249.953 174.855 249.945 174.855L249.705 175.38C249.758 175.41 250.283 175.628 251.273 175.433C252.143 175.26 252.66 174.788 252.683 174.765V174.773Z" fill="#CDCECF"/>
<path d="M251.296 170.018L249.162 170.438L249.275 171.012L251.409 170.592L251.296 170.018Z" fill="#CDCECF"/>
<path d="M263.438 180.99L262.935 181.087C261.435 181.38 260.453 182.85 260.745 184.357L261.968 190.582C262.215 191.835 263.31 192.42 264.825 192.128L265.86 191.925C267.375 191.625 268.17 190.665 267.923 189.412L266.7 183.187C266.4 181.68 264.938 180.697 263.438 180.99ZM267.353 189.525C267.608 190.837 266.318 191.242 265.748 191.355L264.713 191.557C264.143 191.67 262.793 191.79 262.538 190.47L261.315 184.245C261.083 183.052 261.855 181.897 263.048 181.657L263.55 181.56C264.735 181.327 265.898 182.107 266.13 183.292L267.353 189.517V189.525Z" fill="#CDCECF"/>
<path d="M262.35 184.635L262.747 185.063C262.747 185.063 263.175 184.68 263.872 184.538C264.675 184.38 265.08 184.553 265.087 184.553L265.327 184.028C265.275 183.998 264.75 183.78 263.76 183.975C262.89 184.148 262.372 184.62 262.35 184.643V184.635Z" fill="#CDCECF"/>
<path d="M265.728 188.455L263.594 188.875L263.707 189.449L265.841 189.029L265.728 188.455Z" fill="#CDCECF"/>
<path d="M242.887 185.033L241.852 185.235C240.337 185.535 239.542 186.495 239.79 187.747L241.012 193.973C241.312 195.48 242.775 196.462 244.275 196.17L244.777 196.072C246.277 195.78 247.26 194.31 246.967 192.803L245.745 186.577C245.497 185.325 244.402 184.74 242.887 185.033ZM246.405 192.915C246.637 194.107 245.865 195.263 244.672 195.503L244.17 195.6C242.985 195.832 241.822 195.052 241.59 193.867L240.367 187.642C240.112 186.33 241.402 185.925 241.972 185.812L243.007 185.61C243.577 185.497 244.927 185.377 245.182 186.697L246.405 192.923V192.915Z" fill="#CDCECF"/>
<path d="M243.848 192.623C243.045 192.78 242.64 192.608 242.633 192.608L242.513 192.87L242.393 193.133C242.445 193.155 242.97 193.38 243.96 193.185C244.83 193.013 245.348 192.54 245.37 192.518L244.973 192.09C244.973 192.09 244.545 192.473 243.848 192.615V192.623Z" fill="#CDCECF"/>
<path d="M243.978 187.769L241.844 188.189L241.957 188.763L244.091 188.343L243.978 187.769Z" fill="#CDCECF"/>
<g opacity="0.15">
<path d="M195.247 217.2L157.357 224.663L181.245 123.053L219.142 115.59L195.247 217.2Z" fill="#DFDFDF"/>
</g>
<g opacity="0.15">
<path d="M215.835 213.15L202.238 215.828L226.125 114.218L239.723 111.54L215.835 213.15Z" fill="#DFDFDF"/>
</g>
<path d="M285.297 141.407L145.546 155.578C141.511 155.987 138.573 159.589 138.982 163.624L147.093 243.613C147.502 247.648 151.104 250.587 155.138 250.178L294.889 236.007C298.924 235.598 301.863 231.996 301.454 227.961L293.343 147.971C292.934 143.937 289.331 140.998 285.297 141.407Z" fill="#8A9AA7"/>
<path d="M286.446 140.001L146.695 154.172C142.661 154.581 139.722 158.183 140.131 162.218L148.242 242.207C148.651 246.242 152.253 249.181 156.288 248.772L296.039 234.601C300.073 234.192 303.012 230.59 302.603 226.555L294.492 146.565C294.083 142.531 290.481 139.592 286.446 140.001Z" fill="#CDCECF"/>
<path d="M292.965 209.738L289.815 210.053L288.42 196.328L287.842 196.388L289.237 210.113L279.262 211.125L277.875 197.4L277.297 197.46L278.685 211.185L268.717 212.198L267.322 198.465L266.745 198.525L268.132 212.258L258.165 213.263L256.77 199.538L256.192 199.598L257.587 213.323L254.43 213.645L254.49 214.223L257.64 213.9L259.035 227.633L259.612 227.573L258.225 213.848L268.192 212.835L269.587 226.56L270.165 226.5L268.77 212.775L278.745 211.763L280.14 225.488L280.717 225.435L279.322 211.703L289.297 210.69L290.685 224.423L291.262 224.363L289.875 210.638L293.025 210.315L292.965 209.738Z" fill="#758089"/>
<path d="M274.358 216.48L272.213 216.697L272.88 223.275L273.458 223.215L273.21 220.74L274.778 220.582C275.903 220.47 276.728 219.457 276.615 218.325C276.503 217.192 275.49 216.367 274.358 216.48ZM274.718 219.997L273.15 220.155L272.85 217.215L274.418 217.057C275.228 216.975 275.955 217.567 276.038 218.377C276.12 219.187 275.528 219.915 274.718 219.997Z" fill="#758089"/>
<path d="M282.21 203.978L283.778 203.82C284.903 203.708 285.728 202.695 285.615 201.563C285.503 200.43 284.49 199.605 283.358 199.718L281.213 199.935L281.88 206.505L282.458 206.445L282.21 203.97V203.978ZM281.858 200.46L283.425 200.303C284.235 200.22 284.963 200.813 285.045 201.623C285.128 202.433 284.535 203.16 283.725 203.243L282.158 203.4L281.858 200.46Z" fill="#758089"/>
<path d="M262.41 210.69L263.46 210.585C264.998 210.427 265.875 209.542 265.748 208.275L265.11 201.967C264.953 200.437 263.588 199.327 262.065 199.477L261.555 199.53C260.033 199.687 258.915 201.052 259.073 202.582L259.71 208.89C259.838 210.157 260.873 210.847 262.41 210.69ZM259.65 202.522C259.53 201.315 260.408 200.235 261.615 200.107L262.125 200.055C263.333 199.935 264.413 200.812 264.533 202.027L265.17 208.335C265.305 209.67 263.978 209.947 263.4 210.007L262.35 210.112C261.773 210.172 260.423 210.165 260.288 208.83L259.65 202.522Z" fill="#758089"/>
<path d="M262.162 203.048C262.98 202.965 263.362 203.175 263.37 203.175L263.662 202.673C263.61 202.643 263.115 202.373 262.11 202.47C261.232 202.56 260.67 202.988 260.647 203.003L261.007 203.46C261.007 203.46 261.465 203.115 262.17 203.048H262.162Z" fill="#758089"/>
<path d="M263.668 207.09L261.504 207.31L261.563 207.892L263.727 207.672L263.668 207.09Z" fill="#758089"/>
<path d="M273.233 209.595L273.743 209.542C275.265 209.385 276.383 208.02 276.225 206.49L275.588 200.175C275.46 198.907 274.425 198.217 272.888 198.375L271.838 198.48C270.3 198.637 269.423 199.522 269.55 200.79L270.188 207.105C270.345 208.635 271.71 209.745 273.233 209.595ZM270.12 200.737C269.985 199.402 271.313 199.125 271.89 199.065L272.94 198.96C273.518 198.9 274.868 198.907 275.003 200.242L275.64 206.557C275.76 207.765 274.883 208.845 273.675 208.972L273.165 209.025C271.958 209.145 270.878 208.267 270.758 207.052L270.12 200.745V200.737Z" fill="#758089"/>
<path d="M274.65 206.07L274.298 205.613C274.298 205.613 273.84 205.958 273.128 206.025C272.31 206.108 271.928 205.898 271.92 205.898L271.628 206.4C271.68 206.43 272.175 206.7 273.18 206.603C274.058 206.513 274.62 206.085 274.643 206.07H274.65Z" fill="#758089"/>
<path d="M273.723 201.186L271.559 201.405L271.618 201.987L273.782 201.768L273.723 201.186Z" fill="#758089"/>
<path d="M284.775 213.263L284.265 213.315C282.743 213.473 281.625 214.838 281.783 216.368L282.42 222.683C282.548 223.95 283.583 224.64 285.12 224.483L286.17 224.378C287.708 224.22 288.585 223.335 288.457 222.068L287.82 215.753C287.663 214.223 286.298 213.113 284.775 213.263ZM287.88 222.12C288.015 223.455 286.688 223.733 286.11 223.793L285.06 223.898C284.483 223.958 283.133 223.95 282.998 222.615L282.36 216.3C282.24 215.093 283.118 214.013 284.325 213.885L284.835 213.833C286.043 213.713 287.123 214.59 287.243 215.805L287.88 222.113V222.12Z" fill="#758089"/>
<path d="M283.358 216.788L283.718 217.245C283.718 217.245 284.175 216.9 284.88 216.833C285.698 216.75 286.08 216.96 286.088 216.96L286.38 216.458C286.328 216.428 285.833 216.158 284.828 216.255C283.95 216.345 283.388 216.773 283.365 216.788H283.358Z" fill="#758089"/>
<path d="M286.385 220.876L284.221 221.095L284.28 221.677L286.444 221.458L286.385 220.876Z" fill="#758089"/>
<path d="M263.947 215.378L262.897 215.483C261.36 215.64 260.482 216.525 260.61 217.793L261.247 224.108C261.405 225.638 262.77 226.748 264.293 226.598L264.802 226.545C266.325 226.388 267.442 225.023 267.285 223.493L266.647 217.178C266.52 215.91 265.485 215.22 263.947 215.378ZM266.707 223.545C266.827 224.753 265.95 225.833 264.742 225.96L264.232 226.013C263.025 226.133 261.945 225.255 261.825 224.04L261.187 217.733C261.052 216.398 262.38 216.12 262.957 216.06L264.007 215.955C264.585 215.895 265.935 215.903 266.07 217.238L266.707 223.553V223.545Z" fill="#758089"/>
<path d="M264.188 223.02C263.37 223.103 262.988 222.893 262.98 222.893L262.688 223.395C262.74 223.425 263.235 223.695 264.24 223.598C265.118 223.508 265.68 223.08 265.702 223.065L265.343 222.608C265.343 222.608 264.885 222.953 264.18 223.02H264.188Z" fill="#758089"/>
<path d="M264.795 218.17L262.631 218.39L262.69 218.972L264.854 218.752L264.795 218.17Z" fill="#758089"/>
<g opacity="0.6">
<path d="M213.518 242.962L175.095 246.862L208.343 147.915L246.765 144.022L213.518 242.962Z" fill="#DFDFDF"/>
</g>
<g opacity="0.6">
<path d="M234.39 240.848L220.605 242.243L253.852 143.303L267.645 141.908L234.39 240.848Z" fill="#DFDFDF"/>
</g>
<path d="M157.605 167.663C159.015 167.573 160.005 168.263 160.11 169.335C160.26 170.85 159.323 171.878 157.748 172.035L152.295 172.59L151.425 163.973L156.338 163.478C158.123 163.298 159.218 164.04 159.353 165.413C159.458 166.455 158.805 167.37 157.598 167.633V167.67L157.605 167.663ZM153.983 167.13L156.465 166.875C156.945 166.83 157.163 166.545 157.118 166.043C157.073 165.615 156.705 165.428 156.218 165.473L153.84 165.713L153.983 167.13ZM157.733 169.275C157.688 168.818 157.358 168.615 156.75 168.675L154.163 168.938L154.313 170.393L156.96 170.123C157.523 170.063 157.785 169.778 157.733 169.275Z" fill="#16254C"/>
<path d="M160.56 167.423C160.283 164.678 162.24 162.75 165.128 162.458C168.045 162.165 170.31 163.688 170.588 166.403C170.865 169.118 168.908 171.023 166.028 171.315C163.11 171.608 160.83 170.115 160.56 167.415V167.423ZM168.248 166.62C168.053 164.723 167.205 164.31 165.338 164.505C163.47 164.7 162.705 165.27 162.9 167.168C163.103 169.14 163.958 169.47 165.825 169.283C167.693 169.095 168.428 168.308 168.255 166.628L168.248 166.62Z" fill="#16254C"/>
<path d="M171.465 161.94L174.48 161.633L178.14 165.953L178.882 166.86H178.935L178.83 165.908L178.357 161.243L180.6 161.018L181.47 169.635L178.575 169.928L174.825 165.458L174.03 164.483H173.977L174.097 165.533L174.585 170.333L172.342 170.558L171.465 161.94Z" fill="#16254C"/>
<path d="M191.273 159.938L191.775 164.888C192.023 167.348 190.5 168.847 187.703 169.132C184.883 169.417 183.09 168.27 182.835 165.795L182.333 160.845L184.583 160.62L185.1 165.743C185.235 167.085 185.948 167.25 187.485 167.092C189.06 166.935 189.675 166.612 189.54 165.292L189.023 160.17L191.265 159.945L191.273 159.938Z" fill="#16254C"/>
<path d="M193.058 165.855L195.24 165.06C195.503 166.087 196.268 166.335 197.445 166.215C198.518 166.11 199.065 165.885 199.013 165.36C198.96 164.955 198.638 164.887 197.58 164.82L195.78 164.707C194.28 164.61 193.065 163.8 192.878 162.33C192.675 160.575 194.34 159.495 196.35 159.292C198.81 159.045 200.175 159.765 200.595 161.445L198.57 162.232C198.353 161.182 197.685 161.1 196.553 161.22C195.555 161.318 195.083 161.595 195.128 162.037C195.188 162.517 195.555 162.57 196.718 162.622L198.293 162.697C199.83 162.78 201.053 163.537 201.21 164.842C201.443 166.755 199.793 167.895 197.625 168.112C195.248 168.352 193.575 167.64 193.058 165.855Z" fill="#16254C"/>
<path d="M201.75 163.253C201.473 160.508 203.43 158.58 206.318 158.288C209.235 157.995 211.5 159.518 211.778 162.233C212.055 164.955 210.098 166.853 207.218 167.145C204.3 167.438 202.02 165.945 201.75 163.245V163.253ZM209.438 162.443C209.243 160.545 208.395 160.133 206.528 160.328C204.66 160.515 203.895 161.093 204.09 162.99C204.293 164.963 205.148 165.293 207.015 165.105C208.883 164.918 209.618 164.13 209.445 162.45L209.438 162.443Z" fill="#16254C"/>
<path d="M220.98 156.923L218.393 165.885L215.55 166.17L211.178 157.913L213.765 157.65L215.918 161.985L216.66 163.56H216.735L217.148 161.873L218.385 157.185L220.973 156.923H220.98Z" fill="#16254C"/>
<path d="M223.493 156.668L226.605 156.353L230.903 164.618L228.555 164.858L227.745 163.223L223.755 163.628L223.275 165.39L220.928 165.63L223.5 156.668H223.493ZM225.36 155.805L224.28 155.918L224.655 153.578L227.61 153.278L225.368 155.805H225.36ZM226.793 161.333L226.028 159.803L225.263 158.228H225.188L224.753 159.938L224.31 161.588L226.793 161.333Z" fill="#16254C"/>
<path d="M162.555 190.005C162.75 191.925 161.827 193.14 159.832 193.343C158.64 193.463 157.65 192.93 157.125 191.865H157.102L157.492 195.57L156.532 195.668L155.73 187.763L156.532 187.68L156.855 189.263H156.877C157.17 188.123 158.07 187.403 159.285 187.275C161.257 187.073 162.36 188.07 162.555 190.005ZM161.595 190.103C161.452 188.678 160.642 188.033 159.052 188.198C157.59 188.348 156.817 189.195 156.952 190.575C157.095 191.963 158.047 192.63 159.487 192.48C161.077 192.323 161.745 191.528 161.595 190.103Z" fill="#16254C"/>
<path d="M169.2 188.423L169.583 192.225L168.773 192.308L168.488 190.755H168.465C168.203 191.865 167.295 192.578 166.073 192.705C164.715 192.84 163.823 192.323 163.725 191.355C163.59 190.028 164.573 189.69 167.183 189.015L168.285 188.73L168.263 188.483C168.15 187.598 167.468 187.23 166.343 187.35C165.135 187.47 164.663 187.98 164.655 188.94L163.823 188.828C163.808 187.478 164.79 186.728 166.283 186.578C167.858 186.42 169.065 187.005 169.208 188.43L169.2 188.423ZM168.345 189.293L167.243 189.578C165.668 189.998 164.588 190.245 164.678 191.168C164.738 191.783 165.308 192.075 166.275 191.978C167.52 191.85 168.525 190.755 168.338 189.293H168.345Z" fill="#16254C"/>
<path d="M176.107 187.725L176.49 191.528L175.68 191.61L175.395 190.058H175.372C175.11 191.168 174.202 191.88 172.98 192.008C171.622 192.143 170.73 191.625 170.632 190.658C170.497 189.33 171.48 188.993 174.09 188.318L175.192 188.033L175.17 187.785C175.057 186.9 174.375 186.533 173.25 186.653C172.042 186.773 171.57 187.283 171.555 188.243L170.722 188.13C170.707 186.78 171.69 186.03 173.182 185.88C174.757 185.723 175.965 186.308 176.107 187.733V187.725ZM175.245 188.595L174.142 188.88C172.567 189.3 171.487 189.548 171.577 190.47C171.637 191.085 172.207 191.378 173.175 191.28C174.42 191.153 175.425 190.058 175.237 188.595H175.245Z" fill="#16254C"/>
<path d="M177.518 189.758L178.395 189.443C178.643 190.275 179.31 190.62 180.48 190.5C181.5 190.395 182.033 190.02 181.973 189.39C181.905 188.873 181.463 188.655 180.45 188.573L179.183 188.475C178.095 188.415 177.51 187.928 177.398 187.088C177.278 186.045 178.103 185.363 179.67 185.205C181.223 185.048 182.145 185.61 182.558 186.788L181.68 187.073C181.425 186.18 180.765 185.783 179.783 185.888C178.808 185.985 178.298 186.36 178.358 186.953C178.418 187.395 178.74 187.65 179.468 187.703L180.885 187.793C182.153 187.875 182.813 188.303 182.925 189.188C183.053 190.328 182.16 191.07 180.495 191.235C179.003 191.385 177.848 190.868 177.525 189.743L177.518 189.758Z" fill="#16254C"/>
<path d="M192.803 186.938L191.805 187.035L192.098 189.938L191.16 190.035L190.283 181.418L191.22 181.32L191.715 186.18L192.713 186.083L194.82 183.795L196.088 183.668L193.515 186.488L196.853 189.458L195.758 189.57L192.803 186.938Z" fill="#16254C"/>
<path d="M202.935 185.003L203.317 188.805L202.508 188.888L202.223 187.335H202.2C201.938 188.445 201.03 189.158 199.808 189.285C198.458 189.42 197.557 188.903 197.46 187.935C197.325 186.608 198.308 186.27 200.918 185.595L202.02 185.31L201.997 185.063C201.885 184.178 201.202 183.81 200.077 183.93C198.87 184.05 198.398 184.56 198.383 185.52L197.55 185.408C197.535 184.058 198.517 183.308 200.01 183.158C201.585 183 202.792 183.585 202.935 185.01V185.003ZM202.072 185.873L200.97 186.158C199.395 186.578 198.315 186.825 198.405 187.748C198.465 188.363 199.035 188.655 200.003 188.558C201.248 188.43 202.253 187.335 202.065 185.873H202.072Z" fill="#16254C"/>
<path d="M204.518 182.813L205.32 182.73L205.643 184.29H205.658C205.95 182.865 207.075 182.34 208.5 182.37L208.455 183.293C206.978 183.218 205.635 184.185 205.815 185.97L206.07 188.52L205.11 188.618L204.518 182.805V182.813Z" fill="#16254C"/>
<path d="M212.588 182.865L211.845 182.925L212.258 186.998L212.295 187.02L214.215 186.825L214.305 187.688L212.543 187.868C211.793 187.943 211.343 187.553 211.268 186.825L210.885 183.023L210.15 183.113L209.34 183.195L209.25 182.333L210.06 182.25L210.803 182.19L210.832 180.27L211.567 180.195L211.763 182.093L212.497 182.003L213.885 181.86L213.975 182.723L212.588 182.865Z" fill="#16254C"/>
<path d="M220.718 183.195L221.1 186.998L220.29 187.08L220.013 185.528H219.99C219.728 186.638 218.82 187.35 217.598 187.478C216.248 187.613 215.348 187.095 215.25 186.128C215.115 184.8 216.098 184.463 218.708 183.788L219.81 183.503L219.788 183.255C219.675 182.37 218.993 182.003 217.868 182.123C216.66 182.243 216.188 182.753 216.173 183.713L215.34 183.6C215.325 182.25 216.308 181.5 217.8 181.35C219.375 181.193 220.583 181.778 220.725 183.203L220.718 183.195ZM219.863 184.073L218.76 184.358C217.185 184.778 216.105 185.025 216.195 185.948C216.255 186.563 216.825 186.855 217.793 186.758C219.038 186.63 220.043 185.535 219.855 184.073H219.863Z" fill="#16254C"/>
<path d="M183.306 179.628L153.362 182.664L153.477 183.791L183.421 180.755L183.306 179.628Z" fill="#16254C"/>
<path d="M184.971 196.071L155.027 199.107L155.142 200.234L185.086 197.198L184.971 196.071Z" fill="#16254C"/>
<path d="M269.628 46.1863L253.552 54.5797L253.899 55.2445L269.975 46.8511L269.628 46.1863Z" fill="#A7AEB7"/>
<path d="M248.485 57.2267L234.863 64.3392L235.21 65.0041L248.832 57.8915L248.485 57.2267Z" fill="#A7AEB7"/>
<path d="M224.357 69.8146L180.89 92.5095L181.237 93.1744L224.704 70.4794L224.357 69.8146Z" fill="#A7AEB7"/>
<path d="M175.549 95.2857L168.316 99.0624L168.663 99.7272L175.896 95.9505L175.549 95.2857Z" fill="#A7AEB7"/>
<path d="M153.745 106.664L129.559 119.292L129.906 119.957L154.093 107.329L153.745 106.664Z" fill="#A7AEB7"/>
<path d="M218.202 50.7743L209.592 56.8367L210.024 57.4499L218.634 51.3876L218.202 50.7743Z" fill="#A7AEB7"/>
<path d="M200.192 63.4724L162.283 90.1152L162.715 90.7288L200.624 64.086L200.192 63.4724Z" fill="#A7AEB7"/>
<path d="M259.771 295.106L259.55 295.822L284.131 303.431L284.353 302.715L259.771 295.106Z" fill="#A7AEB7"/>
<path d="M246.976 291.135L246.754 291.851L255.509 294.561L255.731 293.845L246.976 291.135Z" fill="#A7AEB7"/>
<path d="M210.675 279.912L210.453 280.628L241.87 290.354L242.091 289.637L210.675 279.912Z" fill="#A7AEB7"/>
<path d="M199.828 276.547L199.606 277.263L207.029 279.561L207.251 278.844L199.828 276.547Z" fill="#A7AEB7"/>
<path d="M273.673 325.101L273.37 325.787L278.089 327.873L278.392 327.187L273.673 325.101Z" fill="#A7AEB7"/>
<path d="M246.757 313.172L246.454 313.858L269.523 324.056L269.826 323.37L246.757 313.172Z" fill="#A7AEB7"/>
<path d="M352.506 190.91L335.968 190.942L335.97 191.692L352.507 191.66L352.506 190.91Z" fill="#A7AEB7"/>
<path d="M323.294 190.952L301.101 190.994L301.103 191.744L323.295 191.702L323.294 190.952Z" fill="#A7AEB7"/>
<path d="M295.064 190.998L283.094 191.021L283.095 191.771L295.065 191.748L295.064 190.998Z" fill="#A7AEB7"/>
<path d="M287.502 94.1977L280.602 96.6423L280.853 97.3493L287.752 94.9046L287.502 94.1977Z" fill="#A7AEB7"/>
<path d="M276.765 97.9885L263.404 102.723L263.654 103.429L277.016 98.6954L276.765 97.9885Z" fill="#A7AEB7"/>
<path d="M255.58 105.471L235.432 112.609L235.683 113.316L255.831 106.178L255.58 105.471Z" fill="#A7AEB7"/>
<path d="M320.456 95.8668L297.921 101.829L298.113 102.554L320.648 96.5918L320.456 95.8668Z" fill="#A7AEB7"/>
<path d="M291.639 103.49L266.211 110.218L266.403 110.943L291.831 104.215L291.639 103.49Z" fill="#A7AEB7"/>
<path d="M129.074 255.412L128.813 256.115L134.177 258.107L134.438 257.404L129.074 255.412Z" fill="#A7AEB7"/>
<path d="M114.992 250.174L114.731 250.877L125.516 254.883L125.777 254.18L114.992 250.174Z" fill="#A7AEB7"/>
<path d="M104.215 246.209L103.954 246.912L110.372 249.298L110.634 248.595L104.215 246.209Z" fill="#A7AEB7"/>
<path d="M124.427 186.739L117.312 187.423L117.384 188.169L124.498 187.486L124.427 186.739Z" fill="#A7AEB7"/>
<path d="M108.334 188.28L85.265 190.497L85.3368 191.243L108.405 189.026L108.334 188.28Z" fill="#A7AEB7"/>
<path d="M119.905 172.421L102.726 176.327L102.892 177.058L120.071 173.152L119.905 172.421Z" fill="#A7AEB7"/>
<path d="M97.6576 177.477L88.8158 179.487L88.9821 180.218L97.8239 178.208L97.6576 177.477Z" fill="#A7AEB7"/>
<path d="M109.116 113.038L104.97 116.672L105.465 117.236L109.61 113.602L109.116 113.038Z" fill="#A7AEB7"/>
<path d="M103.005 118.39L93.7113 126.538L94.2057 127.102L103.5 118.954L103.005 118.39Z" fill="#A7AEB7"/>
<path d="M91.4538 128.524L87.5286 131.965L88.023 132.529L91.9482 129.088L91.4538 128.524Z" fill="#A7AEB7"/>
<path d="M357.06 144.587L329.073 146.672L329.128 147.42L357.116 145.335L357.06 144.587Z" fill="#A7AEB7"/>
<path d="M342.466 275.174L342.277 275.9L352.003 278.432L352.192 277.706L342.466 275.174Z" fill="#A7AEB7"/>
<path d="M319.162 269.071L318.973 269.797L335.958 274.215L336.147 273.489L319.162 269.071Z" fill="#A7AEB7"/>
<path d="M177.995 330.111L177.555 330.718L186.716 337.363L187.157 336.755L177.995 330.111Z" fill="#A7AEB7"/>
<path d="M156.678 314.645L156.238 315.252L169.85 325.124L170.291 324.517L156.678 314.645Z" fill="#A7AEB7"/>
<path d="M177.858 27.4931L156.185 48.1172L156.702 48.6605L178.375 28.0364L177.858 27.4931Z" fill="#A7AEB7"/>
<path d="M286.002 13.2508L274.867 20.6292L275.282 21.2543L286.416 13.876L286.002 13.2508Z" fill="#A7AEB7"/>
<path d="M129.608 56.7525L128.85 51.0525L131.055 50.76C135.053 50.2275 139.02 51.915 141.398 55.17C142.485 56.655 144.3 57.4725 146.138 57.3L148.995 57.0375L149.528 62.76L146.67 63.0225C142.838 63.375 139.043 61.665 136.763 58.5675C135.623 57.015 133.725 56.205 131.813 56.46L129.608 56.7525Z" fill="#89C764"/>
<path d="M122.528 360.315L121.77 354.615L123.975 354.323C127.973 353.79 131.94 355.478 134.318 358.733C135.405 360.218 137.22 361.035 139.058 360.863L141.915 360.6L142.448 366.323L139.59 366.585C135.758 366.938 131.963 365.228 129.683 362.13C128.543 360.578 126.645 359.768 124.733 360.023L122.528 360.315Z" fill="#D9D9D9"/>
<path d="M338.46 197.738L337.703 192.038L339.908 191.745C343.905 191.213 347.873 192.9 350.25 196.155C351.338 197.64 353.153 198.458 354.99 198.285L357.848 198.023L358.38 203.745L355.523 204.008C351.69 204.36 347.895 202.65 345.615 199.553C344.475 198 342.578 197.19 340.665 197.445L338.46 197.738Z" fill="#89C764"/>
<path d="M295.545 301.83L294.787 296.13L296.992 295.838C300.99 295.305 304.957 296.993 307.335 300.248C308.422 301.733 310.237 302.55 312.075 302.378L314.932 302.115L315.465 307.838L312.607 308.1C308.775 308.453 304.98 306.743 302.7 303.645C301.56 302.093 299.662 301.283 297.75 301.538L295.545 301.83Z" fill="#D9D9D9"/>
<path d="M-3.495 230.28L-4.2525 224.58L-2.0475 224.288C1.95 223.755 5.9175 225.443 8.295 228.698C9.3825 230.183 11.1975 231 13.035 230.828L15.8925 230.565L16.425 236.288L13.5675 236.55C9.735 236.903 5.94 235.193 3.66 232.095C2.52 230.543 0.622498 229.733 -1.29 229.988L-3.495 230.28Z" fill="#89C764"/>
<path d="M342.87 30.8551L342.113 25.1551L344.318 24.8626C348.315 24.3301 352.283 26.0176 354.66 29.2726C355.748 30.7576 357.563 31.5751 359.4 31.4026L362.258 31.1401L362.79 36.8626L359.933 37.1251C356.1 37.4776 352.305 35.7676 350.025 32.6701C348.885 31.1176 346.988 30.3076 345.075 30.5626L342.87 30.8551Z" fill="#89C764"/>
<path d="M198.72 19.5375L202.5 15.2025L204.18 16.665C207.218 19.3125 208.568 23.4075 207.698 27.345C207.3 29.145 207.885 31.05 209.228 32.31L211.313 34.2825L207.368 38.46L205.283 36.4875C202.485 33.84 201.263 29.865 202.095 26.1075C202.508 24.225 201.863 22.26 200.408 21L198.728 19.5375H198.72Z" fill="#89C764"/>
<path d="M26.1825 339.968L29.9625 335.633L31.6425 337.095C34.68 339.743 36.03 343.838 35.16 347.775C34.7625 349.575 35.3475 351.48 36.69 352.74L38.775 354.713L34.83 358.89L32.745 356.918C29.9475 354.27 28.725 350.295 29.5575 346.538C29.97 344.655 29.325 342.69 27.87 341.43L26.19 339.968H26.1825Z" fill="#89C764"/>
<path d="M298.11 19.9576L301.89 15.6226L303.57 17.0851C306.608 19.7326 307.958 23.8276 307.088 27.7651C306.69 29.5651 307.275 31.4701 308.618 32.7301L310.703 34.7026L306.758 38.8801L304.673 36.9076C301.875 34.2601 300.653 30.2851 301.485 26.5276C301.898 24.6451 301.253 22.6801 299.798 21.4201L298.118 19.9576H298.11Z" fill="#D9D9D9"/>
<path d="M95.5125 10.755L99.2925 6.42004L100.973 7.88254C104.01 10.53 105.36 14.625 104.49 18.5625C104.093 20.3625 104.678 22.2675 106.02 23.5275L108.105 25.5L104.16 29.6775L102.075 27.705C99.2775 25.0575 98.055 21.0825 98.8875 17.325C99.3 15.4425 98.655 13.4775 97.2 12.2175L95.52 10.755H95.5125Z" fill="#D9D9D9"/>
<path d="M224.235 335.295L228.015 330.96L229.695 332.422C232.733 335.07 234.083 339.165 233.213 343.102C232.815 344.902 233.4 346.807 234.743 348.067L236.828 350.04L232.883 354.217L230.798 352.245C228 349.597 226.778 345.622 227.61 341.865C228.023 339.982 227.378 338.017 225.923 336.757L224.243 335.295H224.235Z" fill="#89C764"/>
<path d="M33.3075 27.5851L39.045 27.2551L39.1725 29.4751C39.405 33.5026 37.4175 37.3276 33.9975 39.4576C32.4375 40.4326 31.485 42.1801 31.515 44.0251L31.5675 46.8976L25.8225 46.9951L25.7775 44.1226C25.71 40.2751 27.705 36.6151 30.9675 34.5826C32.6025 33.5626 33.555 31.7326 33.4425 29.8051L33.315 27.5851H33.3075Z" fill="#89C764"/>
<path d="M348.045 337.725L353.782 337.395L353.91 339.615C354.142 343.643 352.155 347.468 348.735 349.598C347.175 350.573 346.222 352.32 346.252 354.165L346.305 357.038L340.56 357.135L340.515 354.263C340.447 350.415 342.442 346.755 345.705 344.723C347.34 343.703 348.292 341.873 348.18 339.945L348.052 337.725H348.045Z" fill="#89C764"/>
<path d="M299.355 73.6501L305.093 73.3201L305.22 75.5401C305.453 79.5676 303.465 83.3926 300.045 85.5226C298.485 86.4976 297.533 88.2451 297.563 90.0901L297.615 92.9626L291.87 93.0601L291.825 90.1876C291.758 86.3401 293.753 82.6801 297.015 80.6476C298.65 79.6276 299.603 77.7976 299.49 75.8701L299.363 73.6501H299.355Z" fill="#D9D9D9"/>
<path d="M49.365 132.555L55.095 133.043L54.9075 135.263C54.5625 139.283 52.0575 142.785 48.3675 144.413C46.68 145.155 45.4875 146.753 45.2625 148.583L44.9025 151.433L39.2025 150.713L39.5625 147.863C40.0425 144.045 42.5325 140.708 46.0575 139.155C47.82 138.375 49.0275 136.703 49.185 134.775L49.3725 132.555H49.365Z" fill="#D9D9D9"/>
<path d="M88.5225 286.088L83.295 283.702L84.2175 281.678C85.89 278.01 89.43 275.55 93.45 275.258C95.2875 275.123 96.945 274.02 97.7775 272.378L99.075 269.812L104.205 272.407L102.907 274.973C101.167 278.408 97.7025 280.718 93.87 280.995C91.9425 281.138 90.255 282.315 89.4525 284.07L88.53 286.095L88.5225 286.088Z" fill="#89C764"/>
</g>
</g>
<defs>
<clipPath id="clip0_9161_22547">
<rect width="375" height="375" fill="white"/>
</clipPath>
</defs>
</svg>
