<svg width="375" height="375" viewBox="0 0 375 375" fill="none" xmlns="http://www.w3.org/2000/svg">
<g clip-path="url(#clip0_9161_2620)">
<mask id="mask0_9161_2620" style="mask-type:luminance" maskUnits="userSpaceOnUse" x="0" y="0" width="375" height="375">
<path d="M375 0H0V375H375V0Z" fill="white"/>
</mask>
<g mask="url(#mask0_9161_2620)">
<path d="M379.005 341.85H-0.75V342.6H379.005V341.85Z" fill="#19A3DD"/>
<path d="M379.005 337.845H-0.75V338.595H379.005V337.845Z" fill="#19A3DD"/>
<path d="M130.035 327.405H-0.75V326.655H130.035C135.488 326.655 140.955 326.033 146.265 324.81L154.875 322.823L155.04 323.55L146.43 325.538C141.06 326.775 135.54 327.405 130.028 327.405H130.035Z" fill="#19A3DD"/>
<path d="M379.005 322.815H-0.75V323.565H379.005V322.815Z" fill="#19A3DD"/>
<path d="M379.005 182.445H-0.75V183.195H379.005V182.445Z" fill="#19A3DD"/>
<path d="M379.005 27.8776H-0.75V28.6276H379.005V27.8776Z" fill="#19A3DD"/>
<path d="M241.448 217.673H161.88V323.19H241.448V217.673Z" fill="#192548"/>
<path d="M241.823 323.565H161.505V217.298H241.823V323.565ZM162.255 322.815H241.073V218.048H162.255V322.815Z" fill="#19A3DD"/>
<path d="M236.595 222.195H166.733V323.19H236.595V222.195Z" fill="#192548"/>
<path d="M236.963 323.565H166.35V221.82H236.963V323.565ZM167.108 322.815H236.22V222.57H167.108V322.815Z" fill="#19A3DD"/>
<path d="M202.035 222.195H201.285V323.19H202.035V222.195Z" fill="#19A3DD"/>
<path d="M197.34 275.273H170.685V226.455H197.34V275.273ZM171.435 274.523H196.59V227.205H171.435V274.523Z" fill="#19A3DD"/>
<path d="M232.635 275.273H205.98V226.455H232.635V275.273ZM206.737 274.523H231.892V227.205H206.737V274.523Z" fill="#19A3DD"/>
<path d="M201.66 283.073L194.64 282.083V271.425L201.66 270.428V283.073Z" fill="#192548"/>
<path d="M202.035 283.508L194.265 282.405V271.095L202.035 269.993V283.5V283.508ZM195.015 281.753L201.285 282.638V270.855L195.015 271.74V281.745V281.753Z" fill="#19A3DD"/>
<path d="M156.938 249.188H144.645V274.897H156.938V249.188Z" fill="#192548"/>
<path d="M157.313 275.272H144.27V248.812H157.313V275.272ZM145.02 274.522H156.563V249.562H145.02V274.522Z" fill="#19A3DD"/>
<path d="M149.753 252.668H146.775V253.418H149.753V252.668Z" fill="#19A3DD"/>
<path d="M149.753 257.168H146.775V257.918H149.753V257.168Z" fill="#19A3DD"/>
<path d="M149.753 261.668H146.775V262.418H149.753V261.668Z" fill="#19A3DD"/>
<path d="M149.753 266.168H146.775V266.918H149.753V266.168Z" fill="#19A3DD"/>
<path d="M149.753 270.668H146.775V271.418H149.753V270.668Z" fill="#19A3DD"/>
<path d="M154.815 252.668H151.838V253.418H154.815V252.668Z" fill="#19A3DD"/>
<path d="M154.815 257.168H151.838V257.918H154.815V257.168Z" fill="#19A3DD"/>
<path d="M154.815 261.668H151.838V262.418H154.815V261.668Z" fill="#19A3DD"/>
<path d="M154.815 266.168H151.838V266.918H154.815V266.168Z" fill="#19A3DD"/>
<path d="M154.815 270.668H151.838V271.418H154.815V270.668Z" fill="#19A3DD"/>
<path d="M262.335 203.693H86.9775V193.11H262.335V203.693ZM87.735 202.943H261.593V193.86H87.735V202.943Z" fill="#19A3DD"/>
<path d="M303.525 203.693H261.585V193.11H303.525V203.693ZM262.335 202.943H302.775V193.86H262.335V202.943Z" fill="#19A3DD"/>
<path d="M137.085 282.458H117.12L116.828 312.36L102.802 342.578L106.35 344.708L122.917 314.573L125.055 288.098C125.145 287.025 126.037 286.2 127.11 286.2C128.175 286.2 129.067 287.018 129.165 288.083L135.15 354.578H139.29L137.085 282.458Z" fill="#D9D9D9"/>
<path d="M127.867 248.1C123.442 248.1 119.752 251.49 119.377 255.9L117.12 282.458H137.085L136.335 255.69C135.855 251.37 132.21 248.1 127.867 248.1Z" fill="#89C764"/>
<path d="M132.495 253.253C132.098 253.253 131.708 253.095 131.415 252.787C130.853 252.187 130.875 251.25 131.475 250.68L144.21 238.657L144.315 216.668C144.315 215.85 144.983 215.182 145.8 215.182C146.625 215.182 147.285 215.857 147.285 216.675L147.18 239.302C147.18 239.707 147.008 240.097 146.715 240.375L133.515 252.84C133.23 253.11 132.863 253.245 132.495 253.245V253.253Z" fill="#3472AF"/>
<path d="M105.51 295.253C104.685 295.253 104.025 294.585 104.025 293.768V273.24C104.025 272.903 104.138 272.573 104.348 272.31L118.215 254.97C118.733 254.325 119.663 254.228 120.308 254.738C120.953 255.248 121.05 256.185 120.54 256.83L106.995 273.765V293.775C106.995 294.6 106.328 295.26 105.51 295.26V295.253Z" fill="#3472AF"/>
<path d="M129.562 251.415L132.075 254.805L138.622 249.405L135.06 245.64L129.562 251.415Z" fill="#89C764"/>
<path d="M112.838 257.873L117.12 262.658L121.448 258.368L117.465 254.333L112.838 257.873Z" fill="#89C764"/>
<path d="M131.04 240.96L131.49 243.585C131.685 244.703 130.868 245.738 129.735 245.85C125.985 246.225 123.113 245.588 122.573 242.415C121.935 238.68 123.308 235.328 125.648 234.93C127.988 234.533 130.403 237.233 131.04 240.968V240.96Z" fill="#3472AF"/>
<path d="M129.18 245.355L129.795 247.98C129.907 248.46 129.615 248.948 129.135 249.068C128.632 249.195 128.122 248.873 128.025 248.363L127.485 245.558L129.18 245.363V245.355Z" fill="#3472AF"/>
<path d="M128.362 234.007C127.297 232.582 125.355 231.847 123.067 231.832C119.707 231.81 116.992 233.632 115.267 236.085C109.522 244.23 121.192 254.602 115.26 263.505C119.82 263.595 124.38 263.692 128.94 263.782C134.655 255.195 124.35 246.292 128.91 237.682C129.623 236.55 129.27 235.215 128.362 234.007Z" fill="#214082"/>
<path d="M144.308 217.118L142.628 213.113L143.34 209.07C143.438 208.5 143.895 208.065 144.473 207.998C145.163 207.908 145.8 208.38 145.928 209.07L147.293 216.69L144.315 217.125L144.308 217.118Z" fill="#3472AF"/>
<path d="M107.655 301.155L105.833 294.548C105.765 294.3 105.555 294.285 105.488 294.285C105.42 294.285 105.21 294.3 105.143 294.548L103.32 301.155L102.6 300.953L104.423 294.345C104.558 293.858 104.985 293.535 105.488 293.535C105.99 293.535 106.418 293.865 106.553 294.345L108.375 300.953L107.655 301.155Z" fill="#19A3DD"/>
<path d="M112.838 315.323H98.1226L99.1201 300.248H111.848L112.838 315.323Z" fill="#D9D9D9"/>
<path d="M135.15 354.578V358.163H144.54V357.008L139.29 354.578H135.15Z" fill="#214082"/>
<path d="M102.803 342.578L100.958 345.653L109.005 350.483L109.598 349.493L106.35 344.708L102.803 342.578Z" fill="#214082"/>
<path d="M178.088 211.538H169.088C165.615 211.538 162.788 208.71 162.788 205.238V202.95H184.388V205.238C184.388 208.71 181.56 211.538 178.088 211.538ZM163.538 203.693V205.23C163.538 208.29 166.028 210.78 169.088 210.78H178.088C181.148 210.78 183.638 208.29 183.638 205.23V203.693H163.538Z" fill="#19A3DD"/>
<path d="M388.875 135.308H303.12V62.385H388.875V135.308ZM303.878 134.558H388.133V63.135H303.878V134.558Z" fill="#19A3DD"/>
<path d="M388.53 288.323H302.775V215.4H388.53V288.323ZM303.525 287.573H387.78V216.15H303.525V287.573Z" fill="#19A3DD"/>
<path d="M100.905 135.308H15.15V62.385H100.905V135.308ZM15.9 134.558H100.155V63.135H15.9V134.558Z" fill="#19A3DD"/>
<path d="M100.905 289.875H15.15V216.953H100.905V289.875ZM15.9 289.125H100.155V217.703H15.9V289.125Z" fill="#19A3DD"/>
<path d="M201.66 67.7775H164.273V129.915H201.66V67.7775Z" fill="#3472AF"/>
<path d="M159.713 72.87H158.963V124.83H159.713V72.87Z" fill="#19A3DD"/>
<path d="M244.718 135.308H158.963V129.915H159.713V134.558H243.968V63.135H159.713V67.7775H158.963V62.385H244.718V135.308Z" fill="#19A3DD"/>
<path d="M239.783 130.29H163.905V67.4025H239.783V130.29ZM164.648 129.54H239.025V68.1525H164.648V129.54Z" fill="#19A3DD"/>
<path d="M164.647 130.29H137.152V67.4025H164.647V130.29ZM137.902 129.54H163.897V68.1525H137.902V129.54Z" fill="#19A3DD"/>
<path d="M202.035 67.7775H201.285V129.915H202.035V67.7775Z" fill="#19A3DD"/>
<path d="M159.713 125.205H141.585V72.495H159.713V125.205ZM142.335 124.455H158.963V73.245H142.335V124.455Z" fill="#19A3DD"/>
<path d="M234.518 72.87H206.325V124.83H234.518V72.87Z" fill="#3472AF"/>
<path d="M234.893 125.205H205.95V72.495H234.893V125.205ZM206.7 124.455H234.143V73.245H206.7V124.455Z" fill="#19A3DD"/>
<path d="M383.94 130.29H308.062V67.4025H383.94V130.29ZM308.813 129.54H383.19V68.1525H308.813V129.54Z" fill="#19A3DD"/>
<path d="M341.535 125.205H312.593V72.495H341.535V125.205ZM313.343 124.455H340.785V73.245H313.343V124.455Z" fill="#19A3DD"/>
<path d="M379.38 125.205H350.438V72.495H379.38V125.205ZM351.188 124.455H378.63V73.245H351.188V124.455Z" fill="#19A3DD"/>
<path d="M137.903 130.29H133.733V67.4025H137.903V130.29ZM134.483 129.54H137.153V68.1525H134.483V129.54Z" fill="#19A3DD"/>
<path d="M212.738 77.2926L212.023 77.5187L219.925 102.52L220.64 102.294L212.738 77.2926Z" fill="#19A3DD"/>
<path d="M149.397 99.6971L148.682 99.9231L156.584 124.924L157.299 124.698L149.397 99.6971Z" fill="#19A3DD"/>
<path d="M220.785 84.8509L220.069 85.0769L227.971 110.078L228.687 109.852L220.785 84.8509Z" fill="#19A3DD"/>
<path d="M151.791 83.5706L151.076 83.7966L158.978 108.798L159.693 108.572L151.791 83.5706Z" fill="#19A3DD"/>
<path d="M25.4588 81.0313L24.7437 81.2573L32.6456 106.258L33.3607 106.032L25.4588 81.0313Z" fill="#19A3DD"/>
<path d="M75.8046 95.6791L75.0895 95.9052L82.9914 120.906L83.7066 120.68L75.8046 95.6791Z" fill="#19A3DD"/>
<path d="M35.5998 92.4352L34.8846 92.6613L45.0876 124.942L45.8027 124.716L35.5998 92.4352Z" fill="#19A3DD"/>
<path d="M74.6531 72.7459L73.938 72.9719L84.1409 105.253L84.8561 105.027L74.6531 72.7459Z" fill="#19A3DD"/>
<path d="M213.703 227.089L212.988 227.315L223.191 259.596L223.906 259.37L213.703 227.089Z" fill="#19A3DD"/>
<path d="M187.124 232.921L186.409 233.147L196.612 265.428L197.327 265.202L187.124 232.921Z" fill="#19A3DD"/>
<path d="M178.526 226.705L177.811 226.931L188.013 259.212L188.729 258.986L178.526 226.705Z" fill="#19A3DD"/>
<path d="M212.241 242.481L211.526 242.707L221.729 274.988L222.444 274.762L212.241 242.481Z" fill="#19A3DD"/>
<path d="M346.38 67.9426H345.63V130.08H346.38V67.9426Z" fill="#19A3DD"/>
<path d="M96.0676 130.29H20.1901V67.4025H96.0676V130.29ZM20.9326 129.54H95.3101V68.1525H20.9326V129.54Z" fill="#19A3DD"/>
<path d="M53.6626 125.205H24.7201V72.495H53.6626V125.205ZM25.4701 124.455H52.9126V73.245H25.4701V124.455Z" fill="#19A3DD"/>
<path d="M91.5 125.205H62.5575V72.495H91.5V125.205ZM63.3075 124.455H90.75V73.245H63.3075V124.455Z" fill="#19A3DD"/>
<path d="M313.313 81.0166L312.598 81.2427L320.5 106.244L321.215 106.018L313.313 81.0166Z" fill="#19A3DD"/>
<path d="M363.007 95.6736L362.291 95.8997L370.193 120.901L370.908 120.675L363.007 95.6736Z" fill="#19A3DD"/>
<path d="M323.131 92.4205L322.416 92.6465L332.619 124.927L333.334 124.701L323.131 92.4205Z" fill="#19A3DD"/>
<path d="M361.855 72.733L361.14 72.959L371.343 105.24L372.058 105.014L361.855 72.733Z" fill="#19A3DD"/>
<path d="M95.97 284.775H20.0925V221.888H95.97V284.775ZM20.835 284.025H95.2125V222.638H20.835V284.025Z" fill="#19A3DD"/>
<path d="M53.5575 279.683H24.615V226.973H53.5575V279.683ZM25.365 278.933H52.8075V227.723H25.365V278.933Z" fill="#19A3DD"/>
<path d="M91.4025 279.683H62.46V226.973H91.4025V279.683ZM63.21 278.933H90.6525V227.723H63.21V278.933Z" fill="#19A3DD"/>
<path d="M58.4025 222.428H57.6525V284.565H58.4025V222.428Z" fill="#19A3DD"/>
<path d="M25.3489 235.508L24.6338 235.734L32.5358 260.735L33.2509 260.509L25.3489 235.508Z" fill="#19A3DD"/>
<path d="M75.0429 250.159L74.3278 250.385L82.2297 275.386L82.9448 275.16L75.0429 250.159Z" fill="#19A3DD"/>
<path d="M35.1678 246.914L34.4526 247.14L44.6556 279.421L45.3707 279.195L35.1678 246.914Z" fill="#19A3DD"/>
<path d="M73.8838 227.234L73.1687 227.46L83.3716 259.741L84.0868 259.515L73.8838 227.234Z" fill="#19A3DD"/>
<path d="M58.5 67.9426H57.75V130.08H58.5V67.9426Z" fill="#19A3DD"/>
<path d="M313.336 233.95L312.621 234.176L320.523 259.177L321.238 258.951L313.336 233.95Z" fill="#19A3DD"/>
<path d="M363.69 248.59L362.974 248.816L370.876 273.817L371.592 273.591L363.69 248.59Z" fill="#19A3DD"/>
<path d="M323.485 245.354L322.77 245.58L332.973 277.861L333.688 277.635L323.485 245.354Z" fill="#19A3DD"/>
<path d="M362.538 225.672L361.823 225.898L372.026 258.179L372.741 257.953L362.538 225.672Z" fill="#19A3DD"/>
<path d="M383.94 283.223H308.062V220.335H383.94V283.223ZM308.813 282.473H383.19V221.085H308.813V282.473Z" fill="#19A3DD"/>
<path d="M341.543 278.138H312.6V225.428H341.543V278.138ZM313.35 277.388H340.793V226.178H313.35V277.388Z" fill="#19A3DD"/>
<path d="M379.38 278.138H350.438V225.428H379.38V278.138ZM351.188 277.388H378.63V226.178H351.188V277.388Z" fill="#19A3DD"/>
<path d="M346.38 220.883H345.63V283.02H346.38V220.883Z" fill="#19A3DD"/>
<path d="M63.555 289.425C66.765 284.355 67.125 278.468 63.93 274.508C59.6175 269.153 50.475 269.363 43.5 274.973C43.0425 275.34 42.6075 275.73 42.1875 276.12C38.2425 267.36 26.9475 261.03 13.6125 261.03C-3.00755 261.03 -16.4776 270.848 -16.4776 282.96C-16.4776 283.47 -16.4176 283.973 -16.3726 284.468C-19.5901 283.53 -23.07 282.998 -26.73 282.998C-42.6151 282.998 -55.4926 292.718 -55.4926 304.71C-55.4926 316.703 -42.6151 326.423 -26.73 326.423C-22.0575 326.423 -17.655 325.56 -13.755 324.068C-7.68005 327.128 1.29745 326.79 10.7324 326.79C21.3749 326.79 46.575 326.423 52.56 326.423C67.8675 326.423 80.28 317.79 80.28 307.133C80.28 299.198 73.38 292.38 63.54 289.425H63.555Z" fill="#192548"/>
<path d="M5.72996 327.173C-1.75504 327.173 -8.70754 326.948 -13.755 324.473C-17.835 326.01 -22.1925 326.79 -26.715 326.79C-42.78 326.79 -55.8525 316.883 -55.8525 304.703C-55.8525 292.523 -42.78 282.615 -26.715 282.615C-23.3475 282.615 -20.01 283.065 -16.785 283.95C-16.815 283.62 -16.8375 283.29 -16.8375 282.953C-16.8375 270.653 -3.17254 260.648 13.6275 260.648C26.5725 260.648 38.0175 266.588 42.3225 275.49C42.6375 275.205 42.96 274.928 43.275 274.673C46.71 271.905 50.7675 270.338 54.7125 270.248C58.71 270.158 62.07 271.583 64.23 274.268C67.335 278.123 67.2825 283.943 64.1325 289.208C74.1975 292.38 80.6775 299.378 80.6775 307.133C80.6775 317.978 68.0775 326.798 52.5825 326.798C50.0175 326.798 43.965 326.865 36.96 326.94C27.525 327.045 16.8375 327.165 10.755 327.165C9.89996 327.165 9.04496 327.165 8.20496 327.165C7.37246 327.165 6.54746 327.165 5.72996 327.165V327.173ZM-13.7175 323.655L-13.5675 323.73C-8.12254 326.468 -0.195038 326.445 8.19746 326.415C9.04496 326.415 9.89996 326.415 10.755 326.415C16.8375 326.415 27.525 326.295 36.9525 326.19C43.9575 326.115 50.01 326.048 52.5825 326.048C67.6575 326.048 79.9275 317.565 79.9275 307.133C79.9275 299.603 73.4625 292.793 63.45 289.785L62.9775 289.643L63.24 289.223C66.465 284.13 66.6225 278.445 63.645 274.74C61.635 272.243 58.47 270.915 54.7275 270.998C50.9475 271.08 47.0475 272.595 43.7475 275.258C43.32 275.603 42.885 275.985 42.465 276.39L42.0825 276.758L41.865 276.278C37.86 267.383 26.5125 261.405 13.635 261.405C-2.74504 261.405 -16.08 271.073 -16.08 282.96C-16.08 283.373 -16.0425 283.77 -15.9975 284.198L-15.9225 284.985L-16.455 284.828C-19.77 283.86 -23.22 283.373 -26.7075 283.373C-42.36 283.373 -55.095 292.943 -55.095 304.71C-55.095 316.478 -42.36 326.048 -26.7075 326.048C-22.2225 326.048 -17.9025 325.268 -13.8675 323.723L-13.71 323.663L-13.7175 323.655Z" fill="#19A3DD"/>
<path d="M422.34 285.098L390.188 249.563C388.793 247.583 386.52 246.405 384.098 246.405H313.088C307.613 246.405 302.288 248.25 297.99 251.648L255.69 285.09H422.348L422.34 285.098Z" fill="#D9D9D9"/>
<path d="M449.543 299.73V334.913H208.605V312.218C208.605 297.24 220.747 285.098 235.725 285.098H434.918C442.995 285.098 449.55 291.645 449.55 299.73H449.543Z" fill="#3472AF"/>
<path d="M322.733 246.405H321.983V285.098H322.733V246.405Z" fill="#19A3DD"/>
<path d="M322.733 285.098H321.983V334.913H322.733V285.098Z" fill="#214082"/>
<path d="M256.898 313.043C252.555 313.043 248.31 314.318 244.703 316.718C241.088 319.118 238.275 322.53 236.618 326.528C234.953 330.525 234.518 334.92 235.365 339.165C236.213 343.41 238.298 347.31 241.373 350.37C244.44 353.43 248.355 355.515 252.608 356.355C256.868 357.195 261.278 356.76 265.283 355.103C269.295 353.445 272.723 350.64 275.13 347.04C277.538 343.44 278.82 339.21 278.813 334.883C278.813 329.093 276.503 323.535 272.393 319.44C268.283 315.345 262.71 313.043 256.898 313.043Z" fill="#214082"/>
<path d="M256.875 343.95C251.888 343.95 247.838 339.892 247.838 334.912C247.838 329.932 251.895 325.875 256.875 325.875C261.855 325.875 265.913 329.932 265.913 334.912C265.913 339.892 261.855 343.95 256.875 343.95ZM256.875 326.617C252.308 326.617 248.588 330.338 248.588 334.905C248.588 339.473 252.308 343.192 256.875 343.192C261.443 343.192 265.163 339.473 265.163 334.905C265.163 330.338 261.443 326.617 256.875 326.617Z" fill="#19A3DD"/>
<path d="M301.253 302.062H311.663C312.607 302.062 313.373 301.297 313.373 300.353V299.243C313.373 298.298 312.607 297.533 311.663 297.533H301.253C300.308 297.533 299.543 298.298 299.543 299.243V300.353C299.543 301.297 300.308 302.062 301.253 302.062Z" fill="#214082"/>
<path d="M311.655 302.437H301.245C300.098 302.437 299.16 301.5 299.16 300.352V299.242C299.16 298.087 300.098 297.157 301.245 297.157H311.655C312.803 297.157 313.74 298.095 313.74 299.242V300.352C313.74 301.5 312.803 302.437 311.655 302.437ZM301.245 297.9C300.51 297.9 299.91 298.5 299.91 299.235V300.345C299.91 301.08 300.51 301.68 301.245 301.68H311.655C312.39 301.68 312.99 301.08 312.99 300.345V299.235C312.99 298.5 312.39 297.9 311.655 297.9H301.245Z" fill="#214082"/>
<path d="M351.278 302.062H361.688C362.632 302.062 363.398 301.297 363.398 300.353V299.243C363.398 298.298 362.632 297.533 361.688 297.533H351.278C350.333 297.533 349.568 298.298 349.568 299.243V300.353C349.568 301.297 350.333 302.062 351.278 302.062Z" fill="#214082"/>
<path d="M361.688 302.437H351.278C350.13 302.437 349.193 301.5 349.193 300.352V299.242C349.193 298.087 350.13 297.157 351.278 297.157H361.688C362.843 297.157 363.773 298.095 363.773 299.242V300.352C363.773 301.5 362.835 302.437 361.688 302.437ZM351.278 297.9C350.543 297.9 349.943 298.5 349.943 299.235V300.345C349.943 301.08 350.543 301.68 351.278 301.68H361.688C362.423 301.68 363.023 301.08 363.023 300.345V299.235C363.023 298.5 362.423 297.9 361.688 297.9H351.278Z" fill="#214082"/>
<path d="M220.538 298.388H213.473V297.638H220.538C227.453 297.638 233.078 292.013 233.078 285.098H233.828C233.828 292.425 227.865 298.388 220.538 298.388Z" fill="#214082"/>
<path d="M216.78 325.568H208.605V324.818H216.78C220.53 324.818 223.582 321.765 223.582 318.015C223.582 314.265 220.53 311.213 216.78 311.213H208.605V310.463H216.78C220.943 310.463 224.332 313.853 224.332 318.015C224.332 322.178 220.943 325.568 216.78 325.568Z" fill="#214082"/>
<path d="M223.957 315.188H208.605V315.938H223.957V315.188Z" fill="#214082"/>
<path d="M223.957 320.108H208.605V320.858H223.957V320.108Z" fill="#214082"/>
<path d="M167.145 130.912C166.762 130.912 166.388 130.77 166.095 130.477C165.51 129.9 165.51 128.955 166.095 128.37L173.985 120.457L180.503 106.935C180.863 106.192 181.748 105.885 182.49 106.237C183.233 106.597 183.54 107.482 183.188 108.225L176.565 121.972C176.49 122.122 176.393 122.257 176.28 122.377L168.21 130.47C167.918 130.762 167.535 130.905 167.153 130.905L167.145 130.912Z" fill="#214082"/>
<path d="M179.603 110.205L179.303 129.42H196.395L193.328 109.275C192.81 105.885 189.878 103.388 186.45 103.418C182.708 103.448 179.67 106.463 179.61 110.213L179.603 110.205Z" fill="#D9D9D9"/>
<path d="M184.38 101.197C190.606 101.197 195.653 96.1506 195.653 89.925C195.653 83.6993 190.606 78.6525 184.38 78.6525C178.154 78.6525 173.108 83.6993 173.108 89.925C173.108 96.1506 178.154 101.197 184.38 101.197Z" fill="#16254C"/>
<path d="M187.335 103.05L186.12 100.043C186.12 97.6875 186.727 95.5725 186.037 93.6825C184.56 89.595 182.317 88.665 179.76 89.5875C177.202 90.51 175.282 90.2325 176.752 94.32L179.452 101.91C179.895 103.14 180.66 103.328 181.852 102.803C182.632 102.458 183.352 102.09 184.005 101.7L184.942 104.018C185.212 104.678 185.962 105 186.622 104.73C187.282 104.46 187.605 103.71 187.335 103.05Z" fill="#214082"/>
<path d="M178.208 91.305C178.208 91.305 178.148 93.8775 176.978 94.9425C175.32 95.5275 174.833 90.7125 174.833 90.7125L176.888 87.2175L186.803 87.3825V92.3175C186.803 92.3175 180.323 94.8075 178.2 91.3125L178.208 91.305Z" fill="#16254C"/>
<path d="M190.845 107.183C190.523 107.183 190.193 107.078 189.923 106.86C189.278 106.35 189.173 105.413 189.683 104.768L200.738 90.8326L194.265 73.3801C193.98 72.6076 194.37 71.7526 195.143 71.4676C195.915 71.1826 196.77 71.5726 197.055 72.3451L203.82 90.5776C204 91.0651 203.918 91.6126 203.588 92.0176L192.008 106.605C191.715 106.973 191.28 107.168 190.838 107.168L190.845 107.183Z" fill="#214082"/>
<path d="M197.123 72.6151L197.415 68.2801L195.435 64.6876C195.158 64.1851 194.58 63.9226 194.018 64.0351C193.335 64.1776 192.885 64.8301 192.99 65.5201L194.168 73.1701L197.123 72.6151Z" fill="#214082"/>
<path d="M162.06 375.593H151.823L210.465 342.225H220.703L162.06 375.593Z" fill="#192548"/>
<path d="M162.158 375.968H150.405L210.368 341.843H222.12L162.158 375.968ZM153.24 375.218H161.963L219.285 342.593H210.563L153.24 375.218Z" fill="#19A3DD"/>
</g>
</g>
<defs>
<clipPath id="clip0_9161_2620">
<rect width="375" height="375" fill="white"/>
</clipPath>
</defs>
</svg>
