<svg width="375" height="375" viewBox="0 0 375 375" fill="none" xmlns="http://www.w3.org/2000/svg">
<g clip-path="url(#clip0_9161_3367)">
<mask id="mask0_9161_3367" style="mask-type:luminance" maskUnits="userSpaceOnUse" x="0" y="0" width="375" height="375">
<path d="M375 0H0V375H375V0Z" fill="white"/>
</mask>
<g mask="url(#mask0_9161_3367)">
<path d="M294.608 316.575C289.958 318.652 282.795 320.242 276.54 321.337C268.875 322.68 261.052 322.822 253.342 321.787L250.823 321.45L263.7 169.695L303.945 188.355" fill="#192548"/>
<path d="M411.097 257.321L293.274 218.97L263.681 309.885L381.504 348.236L411.097 257.321Z" fill="#192548"/>
<path d="M381.765 348.697L381.412 348.585L263.227 310.125L263.34 309.765L293.047 218.49L293.4 218.602L411.585 257.062L411.472 257.422L381.765 348.697ZM264.172 309.637L381.285 347.752L410.64 257.55L293.527 219.435L264.172 309.637Z" fill="white"/>
<path d="M106.327 162.593C113.344 162.593 119.032 157.468 119.032 151.148C119.032 144.827 113.344 139.703 106.327 139.703C99.3107 139.703 93.6224 144.827 93.6224 151.148C93.6224 157.468 99.3107 162.593 106.327 162.593Z" fill="#192548"/>
<path d="M106.327 162.968C99.1124 162.968 93.2474 157.665 93.2474 151.148C93.2474 144.63 99.1124 139.328 106.327 139.328C113.542 139.328 119.407 144.63 119.407 151.148C119.407 157.665 113.542 162.968 106.327 162.968ZM106.327 140.078C99.5249 140.078 93.9974 145.043 93.9974 151.148C93.9974 157.253 99.5324 162.218 106.327 162.218C113.122 162.218 118.657 157.253 118.657 151.148C118.657 145.043 113.122 140.078 106.327 140.078Z" fill="#89C764"/>
<path d="M128.265 34.485H228.645C239.505 34.485 248.325 43.305 248.325 54.165V309.712C248.325 320.572 239.505 329.392 228.645 329.392H128.265C117.083 329.392 108 320.31 108 309.127V54.75C108 43.5675 117.083 34.485 128.265 34.485Z" fill="#16254C"/>
<path d="M240.472 34.485H143.445C130.488 34.485 119.985 44.9884 119.985 57.945V305.932C119.985 318.889 130.488 329.392 143.445 329.392H240.472C253.429 329.392 263.932 318.889 263.932 305.932V57.945C263.932 44.9884 253.429 34.485 240.472 34.485Z" fill="#3472AF"/>
<path d="M143.445 321.45C134.887 321.45 127.927 314.49 127.927 305.932V57.945C127.927 49.3875 134.887 42.4275 143.445 42.4275H171.33V43.2225C171.33 46.7925 174.232 49.7025 177.81 49.7025H210.81C214.38 49.7025 217.29 46.8 217.29 43.2225V42.4275H240.465C249.022 42.4275 255.982 49.3875 255.982 57.945V305.932C255.982 314.49 249.022 321.45 240.465 321.45H143.445Z" fill="white"/>
<path d="M240.465 321.825H143.445C134.677 321.825 127.552 314.692 127.552 305.932V57.945C127.552 49.1775 134.685 42.0525 143.445 42.0525H171.705V43.2225C171.705 46.59 174.442 49.3275 177.81 49.3275H210.81C214.177 49.3275 216.915 46.59 216.915 43.2225V42.0525H240.465C249.232 42.0525 256.365 49.185 256.365 57.945V305.932C256.365 314.7 249.232 321.825 240.472 321.825H240.465ZM143.445 42.8025C135.097 42.8025 128.302 49.5975 128.302 57.945V305.932C128.302 314.28 135.097 321.075 143.445 321.075H240.465C248.812 321.075 255.607 314.28 255.607 305.932V57.945C255.607 49.59 248.812 42.8025 240.457 42.8025H217.657V43.2225C217.657 47.0025 214.582 50.0775 210.802 50.0775H177.802C174.022 50.0775 170.947 47.0025 170.947 43.2225V42.8025H143.437H143.445Z" fill="#393B56"/>
<path d="M208.807 42.0525H180.877V42.8025H208.807V42.0525Z" fill="#393B56"/>
<mask id="mask1_9161_3367" style="mask-type:luminance" maskUnits="userSpaceOnUse" x="180" y="262" width="23" height="13">
<path d="M189.945 271.905H186.87V274.98H189.945V271.905ZM202.245 274.98V262.68H199.17V265.755H196.095V262.68H193.02V265.755H183.795V262.68H180.72V274.98H183.795V268.83H193.02V274.98H196.095V268.83H199.17V274.98H202.245Z" fill="white"/>
</mask>
<g mask="url(#mask1_9161_3367)">
<path d="M196.83 175.47H79.35V279.787H196.83V175.47Z" fill="#E36054"/>
<path d="M314.31 175.47H196.83V279.787H314.31V175.47Z" fill="#E36054"/>
<path d="M196.83 175.47H79.35V279.787H196.83V175.47Z" fill="#E36054"/>
</g>
<mask id="mask2_9161_3367" style="mask-type:luminance" maskUnits="userSpaceOnUse" x="180" y="278" width="23" height="4">
<path d="M180.72 281.13H183.795V278.055H180.72V281.13ZM186.87 281.13H189.945V278.055H186.87V281.13ZM193.02 281.13H196.095V278.055H193.02V281.13ZM202.245 278.055H199.17V281.13H202.245V278.055Z" fill="white"/>
</mask>
<g mask="url(#mask2_9161_3367)">
<path d="M210.892 239.017H136.597V304.987H210.892V239.017Z" fill="#E36054"/>
<path d="M210.892 239.017H136.597V304.987H210.892V239.017Z" fill="#E36054"/>
<path d="M210.892 239.017H136.597V304.987H210.892V239.017Z" fill="#E36054"/>
<path d="M210.892 239.017H136.597V304.987H210.892V239.017Z" fill="#E36054"/>
</g>
<path d="M175.462 94.7925C175.462 92.5425 174.285 91.1175 172.575 91.1175C170.865 91.1175 169.658 92.565 169.658 94.7925C169.658 97.02 170.805 98.4675 172.575 98.4675C174.345 98.4675 175.462 97.05 175.462 94.7925ZM166.5 88.665H169.635V89.3025L169.44 90.8175H169.785C170.445 89.52 171.743 88.515 173.603 88.515C176.445 88.515 178.62 90.8625 178.62 94.785C178.62 98.7075 176.438 101.055 173.603 101.055C171.743 101.055 170.445 99.975 169.785 98.7525H169.44L169.635 100.373V106.793H166.5V88.6725V88.665Z" fill="#89C764"/>
<path d="M188.37 96.0899V95.7449C185.917 95.7449 183.277 95.7674 183.277 97.4624C183.277 98.3174 183.99 98.8349 185.19 98.8349C187.072 98.8349 188.377 97.7324 188.377 96.0899M180.165 97.7324C180.165 93.8174 184.792 93.9374 188.37 93.9374V92.9849C188.37 91.6124 187.612 90.9524 186.187 90.9524C184.762 90.9524 183.885 91.5899 183.735 93.2549L180.72 93.1049C180.915 89.7224 183.315 88.4249 186.18 88.4249C189.217 88.4249 191.467 89.7224 191.467 93.2249V100.912H189.015L188.767 98.8574H188.497C187.86 100.372 186.412 101.16 184.312 101.16C181.837 101.16 180.15 99.8624 180.15 97.7324" fill="#89C764"/>
<path d="M201.495 96.0899V95.7449C199.042 95.7449 196.402 95.7674 196.402 97.4624C196.402 98.3174 197.115 98.8349 198.315 98.8349C200.197 98.8349 201.502 97.7324 201.502 96.0899M193.29 97.7324C193.29 93.8174 197.917 93.9374 201.495 93.9374V92.9849C201.495 91.6124 200.737 90.9524 199.312 90.9524C197.887 90.9524 197.01 91.5899 196.86 93.2549L193.845 93.1049C194.04 89.7224 196.44 88.4249 199.305 88.4249C202.342 88.4249 204.592 89.7224 204.592 93.2249V100.912H202.14L201.892 98.8574H201.622C200.985 100.372 199.537 101.16 197.437 101.16C194.962 101.16 193.275 99.8624 193.275 97.7324" fill="#89C764"/>
<path d="M206.467 97.3125L209.43 97.02C209.7 98.1675 210.51 98.7375 212.1 98.7375C213.57 98.7375 214.425 98.22 214.425 97.29C214.425 96.705 214.08 96.21 212.707 96.0375L210.555 95.79C208.567 95.5725 206.61 94.74 206.61 92.46C206.61 89.9625 208.62 88.4175 211.702 88.4175C214.785 88.4175 216.6 89.8875 216.772 92.43L214.027 92.625C213.907 91.4775 213.172 90.84 211.68 90.84C210.187 90.84 209.55 91.4775 209.55 92.355C209.55 92.9925 210.015 93.36 211.117 93.5025L213.345 93.75C215.55 94.0425 217.41 94.8525 217.41 97.1775C217.41 99.6525 215.595 101.145 212.092 101.145C208.59 101.145 206.805 99.75 206.46 97.2975" fill="#89C764"/>
<path d="M225.412 77.4449H158.497V80.0399H225.412V77.4449Z" fill="#89C764"/>
<path d="M225.412 111.487H158.497V114.082H225.412V111.487Z" fill="#89C764"/>
<path d="M191.955 210.795C206.278 210.795 217.89 199.183 217.89 184.86C217.89 170.536 206.278 158.925 191.955 158.925C177.631 158.925 166.02 170.536 166.02 184.86C166.02 199.183 177.631 210.795 191.955 210.795Z" fill="#89C764"/>
<path d="M177.585 183.412L191.955 199.012L206.332 183.412L203.542 180.84L193.86 191.347V170.992H190.057V191.347L180.375 180.84L177.585 183.412Z" fill="white"/>
<path d="M103.609 107.769L107.522 109.434C117.501 113.68 122.156 125.23 117.909 135.209C113.663 145.188 102.114 149.843 92.1346 145.597L88.2216 143.932C79.2638 140.12 75.085 129.751 78.8966 120.793L80.4705 117.094C84.2821 108.136 94.6511 103.958 103.609 107.769Z" fill="#192548"/>
<path d="M99.7724 147.54C97.1249 147.54 94.4849 147.007 91.9799 145.942L88.0649 144.277C78.9224 140.385 74.6549 129.788 78.5399 120.645L80.1149 116.947C81.9899 112.537 85.4924 109.118 89.9624 107.31C94.4399 105.51 99.3299 105.547 103.74 107.422L107.655 109.087C117.817 113.415 122.565 125.198 118.237 135.353C116.152 140.258 112.26 144.06 107.287 146.063C104.85 147.045 102.307 147.533 99.7649 147.533L99.7724 147.54ZM92.2724 145.252C96.9899 147.263 102.225 147.3 107.017 145.373C111.81 143.445 115.552 139.785 117.555 135.067C121.717 125.287 117.15 113.948 107.37 109.785L103.455 108.12C99.2249 106.32 94.5374 106.283 90.2474 108.015C85.9574 109.74 82.6049 113.025 80.8049 117.248L79.2299 120.945C75.5024 129.705 79.5974 139.868 88.3574 143.595L92.2724 145.26V145.252Z" fill="white"/>
<path d="M94.3814 146.182L117.57 156.049C127.549 160.295 132.203 171.845 127.957 181.824C123.711 191.803 112.161 196.458 102.182 192.211L78.9941 182.345C70.2986 178.645 66.2358 168.578 69.9387 159.875L71.912 155.238C75.612 146.542 85.679 142.479 94.3814 146.182Z" fill="#192548"/>
<path d="M109.822 194.16C107.175 194.16 104.535 193.627 102.03 192.562L78.8399 182.692C74.5574 180.87 71.2349 177.472 69.4799 173.122C67.7249 168.772 67.7699 164.017 69.5924 159.735L71.5649 155.092C73.3874 150.81 76.7849 147.48 81.1349 145.732C85.4849 143.985 90.2399 144.022 94.5224 145.845L117.712 155.715C127.875 160.042 132.622 171.825 128.295 181.98C126.21 186.885 122.317 190.687 117.345 192.69C114.907 193.672 112.365 194.16 109.822 194.16ZM102.322 191.872C112.102 196.035 123.442 191.467 127.605 181.687C131.767 171.907 127.2 160.567 117.42 156.405L94.2299 146.535C90.1274 144.787 85.5824 144.75 81.4199 146.43C77.2574 148.11 74.0024 151.29 72.2549 155.392L70.2824 160.035C68.5349 164.137 68.4974 168.682 70.1774 172.852C71.8574 177.022 75.0374 180.27 79.1399 182.017L102.33 191.887L102.322 191.872Z" fill="white"/>
<path d="M95.5428 189.208L115.667 197.771C125.646 202.017 130.301 213.566 126.054 223.545C121.808 233.525 110.259 238.179 100.28 233.933L80.1555 225.37C70.8182 221.397 66.4649 210.595 70.438 201.258L71.4305 198.925C75.4036 189.588 86.2055 185.235 95.5428 189.208Z" fill="#192548"/>
<path d="M107.903 235.875C105.255 235.875 102.615 235.342 100.11 234.277L79.9875 225.712C70.47 221.662 66.0225 210.622 70.0725 201.105L71.0625 198.772C73.0125 194.182 76.6575 190.62 81.3225 188.737C85.98 186.862 91.08 186.9 95.67 188.857L115.793 197.422C120.698 199.507 124.5 203.4 126.503 208.372C128.505 213.345 128.46 218.79 126.375 223.687C124.29 228.585 120.397 232.395 115.425 234.397C112.987 235.38 110.445 235.867 107.903 235.867V235.875ZM88.3725 188.115C86.085 188.115 83.7975 188.557 81.6075 189.442C77.13 191.242 73.635 194.662 71.76 199.072L70.77 201.405C66.885 210.54 71.1525 221.137 80.2875 225.022L100.41 233.587C105.128 235.597 110.362 235.635 115.155 233.707C119.947 231.78 123.69 228.12 125.693 223.402C127.695 218.685 127.74 213.45 125.813 208.657C123.885 203.865 120.225 200.122 115.507 198.12L95.385 189.555C93.135 188.595 90.7575 188.115 88.38 188.115H88.3725Z" fill="white"/>
<path d="M114.115 239.637L96.71 232.231C86.724 227.982 75.1842 232.633 70.9351 242.619C66.686 252.605 71.3367 264.144 81.3227 268.394L98.7276 275.799C108.714 280.049 120.253 275.398 124.502 265.412C128.752 255.426 124.101 243.886 114.115 239.637Z" fill="#192548"/>
<path d="M106.357 277.74C103.71 277.74 101.07 277.207 98.5649 276.142L81.1574 268.732C76.2524 266.647 72.4499 262.755 70.4474 257.782C68.4449 252.81 68.4899 247.365 70.5749 242.467C72.6599 237.562 76.5524 233.76 81.5249 231.757C86.4974 229.755 91.9424 229.8 96.8399 231.885L114.247 239.295C124.402 243.622 129.157 255.405 124.83 265.56C122.745 270.465 118.852 274.267 113.88 276.27C111.442 277.252 108.9 277.74 106.357 277.74ZM98.8574 275.452C103.575 277.462 108.81 277.5 113.602 275.572C118.395 273.645 122.137 269.985 124.14 265.267C128.302 255.487 123.735 244.147 113.955 239.985L96.5474 232.575C86.7674 228.412 75.4274 232.987 71.2649 242.76C69.2549 247.477 69.2174 252.712 71.1449 257.505C73.0724 262.297 76.7324 266.04 81.4499 268.042L98.8574 275.452Z" fill="white"/>
<path d="M285.585 202.897V175.117L272.437 167.047C259.875 159.33 256.2 142.74 264.33 130.44C267.93 124.995 275.19 123.36 280.77 126.742L313.387 146.497C321.105 151.17 325.815 159.532 325.815 168.547V214.485C325.815 214.485 325.852 220.32 325.815 229.687C325.777 239.535 322.65 273.825 301.012 282.592" fill="#192548"/>
<path d="M301.162 282.937L300.877 282.24C310.035 278.527 316.86 269.842 321.157 256.425C325.185 243.855 325.432 231.945 325.44 229.68C325.477 220.417 325.44 214.537 325.44 214.477V168.54C325.44 159.712 320.745 151.38 313.192 146.805L280.575 127.05C275.145 123.757 268.14 125.332 264.637 130.635C260.76 136.5 259.462 143.505 260.985 150.367C262.507 157.23 266.64 163.035 272.632 166.717L285.952 174.9V202.89H285.202V175.32L272.235 167.355C266.07 163.567 261.81 157.597 260.25 150.532C258.682 143.467 260.025 136.252 264.007 130.222C267.735 124.59 275.175 122.91 280.957 126.412L313.575 146.167C321.352 150.877 326.182 159.45 326.182 168.54V214.477C326.182 214.53 326.22 220.417 326.182 229.687C326.182 231.45 325.725 272.977 301.147 282.937H301.162Z" fill="white"/>
<path d="M305.492 304.036L305.26 304.749L320.991 309.873L321.224 309.16L305.492 304.036Z" fill="#89C764"/>
<path d="M102.518 186.315C101.37 186.315 100.208 186.09 99.0825 185.61L99.375 184.92C103.463 186.66 108.195 184.747 109.928 180.667L114.555 169.785C116.295 165.705 114.383 160.965 110.303 159.232L110.595 158.542C115.058 160.44 117.143 165.615 115.245 170.085L110.618 180.967C109.193 184.312 105.93 186.322 102.51 186.322L102.518 186.315Z" fill="white"/>
<path d="M101.535 112.47C104.617 113.782 106.072 117.382 104.76 120.465L98.3099 135.63C96.9974 138.712 93.3974 140.167 90.3149 138.855" fill="#192548"/>
<path d="M92.6775 139.71C91.8225 139.71 90.9675 139.537 90.1575 139.192L90.45 138.502C91.8525 139.095 93.405 139.11 94.8225 138.54C96.2475 137.97 97.3575 136.882 97.95 135.48L104.4 120.315C104.992 118.912 105.007 117.36 104.437 115.942C103.867 114.525 102.78 113.407 101.377 112.815L101.67 112.125C103.252 112.8 104.482 114.053 105.127 115.665C105.772 117.27 105.757 119.033 105.09 120.615L98.64 135.78C97.965 137.362 96.7125 138.592 95.1 139.237C94.3125 139.552 93.4875 139.71 92.67 139.71H92.6775Z" fill="white"/>
<path d="M102.502 228.9C101.34 228.9 100.177 228.667 99.075 228.195L99.3675 227.505C101.332 228.345 103.522 228.36 105.525 227.557C107.527 226.755 109.087 225.225 109.927 223.252L114.555 212.37C116.295 208.29 114.382 203.55 110.302 201.817L110.595 201.127C115.057 203.025 117.142 208.2 115.245 212.67L110.617 223.552C109.702 225.705 107.992 227.377 105.81 228.255C104.737 228.682 103.62 228.9 102.502 228.9Z" fill="white"/>
<path d="M102.502 271.485C101.34 271.485 100.177 271.253 99.075 270.78L99.3675 270.09C101.332 270.93 103.522 270.945 105.525 270.143C107.527 269.34 109.087 267.81 109.927 265.838L114.555 254.955C116.295 250.875 114.382 246.135 110.302 244.403L110.595 243.713C115.057 245.61 117.142 250.785 115.245 255.255L110.617 266.138C109.702 268.29 107.992 269.963 105.81 270.84C104.737 271.268 103.62 271.485 102.502 271.485Z" fill="white"/>
<path d="M289.747 145.875C287.287 145.875 284.91 144.683 283.47 142.583L280.222 137.865C277.897 134.483 277.807 130.05 279.99 126.578L280.627 126.975C278.602 130.2 278.685 134.303 280.845 137.445L284.092 142.163C285.825 144.683 289.065 145.755 291.96 144.765L292.2 145.478C291.397 145.755 290.572 145.883 289.755 145.883L289.747 145.875Z" fill="white"/>
<path d="M294.607 316.575C289.957 318.652 282.795 320.242 276.54 321.337C268.875 322.68 262.897 314.572 263.257 311.49C263.257 311.49 263.932 308.782 263.932 305.925C263.932 271.867 263.707 169.695 263.707 169.695L303.952 188.355" fill="#192548"/>
<path d="M343.02 272.175H322.657V272.925H343.02V272.175Z" fill="#A7AEB7"/>
<path d="M311.25 272.175H300.802V272.925H311.25V272.175Z" fill="#A7AEB7"/>
<path d="M296.94 272.175H251.535V272.925H296.94V272.175Z" fill="#A7AEB7"/>
<path d="M238.777 272.175H221.497V272.925H238.777V272.175Z" fill="#A7AEB7"/>
<path d="M259.799 241.63L223.977 256.917L224.272 257.607L260.094 242.32L259.799 241.63Z" fill="#A7AEB7"/>
<path d="M328.131 176.407L270.997 216.442L271.428 217.057L328.562 177.021L328.131 176.407Z" fill="#A7AEB7"/>
<path d="M265.01 220.63L251.32 230.223L251.75 230.837L265.441 221.244L265.01 220.63Z" fill="#A7AEB7"/>
<path d="M247.355 232.987L228.971 245.869L229.402 246.483L247.785 233.601L247.355 232.987Z" fill="#A7AEB7"/>
<path d="M261.409 351.353L260.843 351.844L275.412 368.664L275.979 368.173L261.409 351.353Z" fill="#A7AEB7"/>
<path d="M226.993 311.637L226.426 312.128L254.117 344.095L254.684 343.604L226.993 311.637Z" fill="#A7AEB7"/>
<path d="M214.712 297.462L214.145 297.953L223.156 308.356L223.723 307.865L214.712 297.462Z" fill="#A7AEB7"/>
<path d="M225.094 358.016L224.397 358.29L228.228 368.018L228.926 367.743L225.094 358.016Z" fill="#A7AEB7"/>
<path d="M213.268 327.971L212.571 328.246L222.079 352.384L222.776 352.109L213.268 327.971Z" fill="#A7AEB7"/>
<path d="M207.347 312.891L206.649 313.166L210.492 322.921L211.189 322.646L207.347 312.891Z" fill="#A7AEB7"/>
<path d="M145.61 369.39L121.578 424.898L122.266 425.196L146.299 369.688L145.61 369.39Z" fill="#A7AEB7"/>
<path d="M164.598 325.557L149.782 359.778L150.47 360.076L165.286 325.855L164.598 325.557Z" fill="#A7AEB7"/>
<path d="M172.608 307.1L168.138 317.424L168.826 317.722L173.296 307.398L172.608 307.1Z" fill="#A7AEB7"/>
<path d="M176.745 297.535L174.522 302.67L175.21 302.968L177.433 297.833L176.745 297.535Z" fill="#A7AEB7"/>
<path d="M91.5676 360.449L66.9573 384.423L67.4806 384.96L92.091 360.986L91.5676 360.449Z" fill="#A7AEB7"/>
<path d="M124.69 328.155L96.7117 355.411L97.235 355.948L125.214 328.693L124.69 328.155Z" fill="#A7AEB7"/>
<path d="M143.515 309.789L128.666 324.254L129.189 324.792L144.038 310.326L143.515 309.789Z" fill="#A7AEB7"/>
<path d="M127.861 301.025L119.18 305.108L119.5 305.787L128.18 301.704L127.861 301.025Z" fill="#A7AEB7"/>
<path d="M156.2 287.727L132.161 299.034L132.48 299.712L156.519 288.406L156.2 287.727Z" fill="#A7AEB7"/>
<path d="M30.3895 293.751L7.99988 296.393L8.08777 297.138L30.4774 294.496L30.3895 293.751Z" fill="#A7AEB7"/>
<path d="M77.1199 288.247L37.7257 292.895L37.8136 293.64L77.2078 288.991L77.1199 288.247Z" fill="#A7AEB7"/>
<path d="M137.804 281.104L92.3019 286.474L92.3898 287.219L137.892 281.849L137.804 281.104Z" fill="#A7AEB7"/>
<path d="M125.946 255.383L125.755 256.108L143.447 260.783L143.639 260.058L125.946 255.383Z" fill="#A7AEB7"/>
<path d="M148.638 261.382L148.446 262.107L157.227 264.427L157.419 263.702L148.638 261.382Z" fill="#A7AEB7"/>
<path d="M161.72 264.85L161.529 265.575L166.749 266.955L166.941 266.229L161.72 264.85Z" fill="#A7AEB7"/>
<path d="M65.2257 202.077L64.8684 202.736L73.6256 207.481L73.9829 206.822L65.2257 202.077Z" fill="#A7AEB7"/>
<path d="M79.1164 209.598L78.7592 210.258L91.5718 217.2L91.9291 216.54L79.1164 209.598Z" fill="#A7AEB7"/>
<path d="M96.7386 219.149L96.3813 219.808L124.354 234.965L124.711 234.305L96.7386 219.149Z" fill="#A7AEB7"/>
<path d="M132.776 238.676L132.419 239.335L156.178 252.208L156.536 251.549L132.776 238.676Z" fill="#A7AEB7"/>
<path d="M156.694 195.417L156.017 195.74L166.751 218.315L167.429 217.993L156.694 195.417Z" fill="#A7AEB7"/>
<path d="M169.843 223.06L169.166 223.382L173.662 232.838L174.339 232.516L169.843 223.06Z" fill="#A7AEB7"/>
<path d="M176.138 236.305L175.461 236.627L180.098 246.381L180.776 246.059L176.138 236.305Z" fill="#A7AEB7"/>
<path d="M163.127 132.729L162.396 132.9L168.414 158.597L169.145 158.426L163.127 132.729Z" fill="#A7AEB7"/>
<path d="M208.597 204.929L207.565 210.138L208.3 210.283L209.333 205.075L208.597 204.929Z" fill="#A7AEB7"/>
<path d="M206.933 213.339L204.108 227.597L204.843 227.743L207.669 213.485L206.933 213.339Z" fill="#A7AEB7"/>
<path d="M203.022 233.078L201.042 243.069L201.777 243.215L203.757 233.224L203.022 233.078Z" fill="#A7AEB7"/>
<path d="M247.146 176.535L244.289 181.58L244.942 181.95L247.799 176.905L247.146 176.535Z" fill="#A7AEB7"/>
<path d="M242.319 185.049L235.003 197.971L235.655 198.341L242.972 185.419L242.319 185.049Z" fill="#A7AEB7"/>
<path d="M232.123 203.044L214.1 234.874L214.752 235.243L232.775 203.414L232.123 203.044Z" fill="#A7AEB7"/>
<path d="M317.895 340.939L317.518 341.588L334.013 351.149L334.389 350.501L317.895 340.939Z" fill="#A7AEB7"/>
<path d="M298.542 329.676L298.166 330.325L312.76 338.782L313.136 338.133L298.542 329.676Z" fill="#A7AEB7"/>
<path d="M198.7 371.78L197.951 371.816L199.32 399.915L200.07 399.879L198.7 371.78Z" fill="#A7AEB7"/>
<path d="M350.363 214.018L330.409 220.54L330.642 221.253L350.596 214.731L350.363 214.018Z" fill="#A7AEB7"/>
<path d="M69.5523 152.392L69.0353 152.935L90.1754 173.053L90.6925 172.51L69.5523 152.392Z" fill="#A7AEB7"/>
<path d="M26.7938 255.385L26.7434 256.133L48.7287 257.613L48.779 256.865L26.7938 255.385Z" fill="#A7AEB7"/>
<path d="M47.3469 344.637L0.628296 368.637L0.971003 369.304L47.6896 345.304L47.3469 344.637Z" fill="#A7AEB7"/>
<path d="M-7.18876 139.4L-7.6062 140.024L39.1008 171.315L39.5183 170.692L-7.18876 139.4Z" fill="#A7AEB7"/>
<path d="M26.7502 217.797L26.5159 218.51L59.9007 229.493L60.1351 228.78L26.7502 217.797Z" fill="#A7AEB7"/>
<path d="M342.724 66.201L324.403 90.8881L325.005 91.335L343.326 66.648L342.724 66.201Z" fill="#A7AEB7"/>
<path d="M318.709 98.6177L299.311 124.756L299.913 125.203L319.311 99.0647L318.709 98.6177Z" fill="#A7AEB7"/>
<path d="M281.076 149.412L258.585 179.718L259.187 180.165L281.678 149.859L281.076 149.412Z" fill="#A7AEB7"/>
<path d="M85.6913 16.7072L84.9974 16.9918L94.2381 39.523L94.9321 39.2384L85.6913 16.7072Z" fill="#A7AEB7"/>
<path d="M62.6386 69.1302L62.019 69.5529L71.6807 83.7163L72.3003 83.2937L62.6386 69.1302Z" fill="#A7AEB7"/>
<path d="M0.853268 66.1552L0.316772 66.6793L13.3405 80.0112L13.877 79.4871L0.853268 66.1552Z" fill="#A7AEB7"/>
<path d="M302.274 20.9222L294.296 34.2935L294.94 34.6777L302.918 21.3065L302.274 20.9222Z" fill="#A7AEB7"/>
<path d="M221.107 -7.13062L219.819 5.89331L220.565 5.96715L221.854 -7.05678L221.107 -7.13062Z" fill="#A7AEB7"/>
<path d="M255.99 272.175H251.535V272.925H255.99V272.175Z" fill="#A7AEB7"/>
<path d="M238.777 272.175H221.497V272.925H238.777V272.175Z" fill="#A7AEB7"/>
<path d="M255.841 243.313L223.978 256.91L224.273 257.599L256.135 244.002L255.841 243.313Z" fill="#A7AEB7"/>
<path d="M255.777 227.09L251.324 230.211L251.754 230.825L256.207 227.705L255.777 227.09Z" fill="#A7AEB7"/>
<path d="M247.355 232.987L228.971 245.869L229.402 246.483L247.785 233.601L247.355 232.987Z" fill="#A7AEB7"/>
<path d="M226.995 311.637L226.428 312.128L234.717 321.697L235.284 321.206L226.995 311.637Z" fill="#A7AEB7"/>
<path d="M214.712 297.462L214.145 297.953L223.156 308.356L223.723 307.865L214.712 297.462Z" fill="#A7AEB7"/>
<path d="M207.313 312.934L206.615 313.209L209.924 321.611L210.621 321.337L207.313 312.934Z" fill="#A7AEB7"/>
<path d="M172.608 307.1L168.138 317.424L168.826 317.722L173.296 307.398L172.608 307.1Z" fill="#A7AEB7"/>
<path d="M176.745 297.535L174.522 302.67L175.21 302.968L177.433 297.833L176.745 297.535Z" fill="#A7AEB7"/>
<path d="M143.511 309.786L134.539 318.525L135.062 319.063L144.034 310.323L143.511 309.786Z" fill="#A7AEB7"/>
<path d="M156.2 287.727L132.161 299.034L132.48 299.712L156.519 288.406L156.2 287.727Z" fill="#A7AEB7"/>
<path d="M137.807 281.11L127.885 282.281L127.973 283.026L137.895 281.855L137.807 281.11Z" fill="#A7AEB7"/>
<path d="M128.018 255.935L127.827 256.66L143.446 260.787L143.637 260.062L128.018 255.935Z" fill="#A7AEB7"/>
<path d="M148.638 261.389L148.446 262.114L157.227 264.434L157.419 263.709L148.638 261.389Z" fill="#A7AEB7"/>
<path d="M161.72 264.85L161.529 265.575L166.749 266.955L166.941 266.229L161.72 264.85Z" fill="#A7AEB7"/>
<path d="M132.776 238.676L132.419 239.335L156.178 252.208L156.536 251.549L132.776 238.676Z" fill="#A7AEB7"/>
<path d="M156.694 195.425L156.017 195.747L166.751 218.322L167.429 218L156.694 195.425Z" fill="#A7AEB7"/>
<path d="M169.843 223.06L169.166 223.382L173.662 232.838L174.339 232.516L169.843 223.06Z" fill="#A7AEB7"/>
<path d="M176.138 236.305L175.461 236.627L180.098 246.381L180.776 246.059L176.138 236.305Z" fill="#A7AEB7"/>
<path d="M206.933 213.339L204.108 227.597L204.843 227.743L207.669 213.485L206.933 213.339Z" fill="#A7AEB7"/>
<path d="M203.022 233.078L201.042 243.069L201.777 243.215L203.757 233.224L203.022 233.078Z" fill="#A7AEB7"/>
<path d="M247.146 176.535L244.289 181.58L244.942 181.95L247.799 176.905L247.146 176.535Z" fill="#A7AEB7"/>
<path d="M242.319 185.049L235.003 197.971L235.655 198.341L242.972 185.419L242.319 185.049Z" fill="#A7AEB7"/>
<path d="M232.123 203.044L214.1 234.874L214.752 235.243L232.775 203.414L232.123 203.044Z" fill="#A7AEB7"/>
<path d="M166.865 124.936L166.123 125.045L167.771 136.197L168.513 136.087L166.865 124.936Z" fill="#A7AEB7"/>
<path d="M214.365 136.073L211.411 154.87L212.152 154.986L215.106 136.189L214.365 136.073Z" fill="#A7AEB7"/>
</g>
</g>
<defs>
<clipPath id="clip0_9161_3367">
<rect width="375" height="375" fill="white"/>
</clipPath>
</defs>
</svg>
