<svg width="375" height="375" viewBox="0 0 375 375" fill="none" xmlns="http://www.w3.org/2000/svg">
<g clip-path="url(#clip0_9161_22398)">
<mask id="mask0_9161_22398" style="mask-type:luminance" maskUnits="userSpaceOnUse" x="0" y="0" width="375" height="375">
<path d="M375 0H0V375H375V0Z" fill="white"/>
</mask>
<g mask="url(#mask0_9161_22398)">
<path d="M53.0093 56.7712L149.64 37.7606C160.097 35.7033 170.251 42.5189 172.308 52.9759L220.705 298.978C222.763 309.435 215.947 319.589 205.49 321.646L108.86 340.657C98.0938 342.775 87.6314 335.753 85.5133 324.986L37.3388 80.1178C35.2207 69.3517 42.2432 58.8893 53.0093 56.7712Z" fill="#16254C"/>
<path d="M161.02 35.5217L67.6202 53.8968C55.147 56.3507 47.0249 68.4514 49.4788 80.9245L96.4429 319.641C98.8968 332.114 110.998 340.236 123.471 337.783L216.87 319.407C229.343 316.954 237.466 304.853 235.012 292.38L188.048 53.6631C185.594 41.19 173.493 33.0678 161.02 35.5217Z" fill="#3472AF"/>
<path d="M121.987 330.127C113.752 331.747 105.727 326.37 104.107 318.127L57.1275 79.41C55.5075 71.175 60.8925 63.15 69.1275 61.53L95.97 56.25L96.12 57.0149C96.795 60.45 100.147 62.7 103.582 62.025L135.352 55.77C138.787 55.095 141.037 51.7425 140.362 48.3075L140.212 47.5425L162.525 43.155C170.76 41.535 178.785 46.92 180.405 55.155L227.393 293.865C229.013 302.1 223.635 310.125 215.392 311.745L121.995 330.127H121.987Z" fill="white"/>
<path d="M119.025 330.795C115.965 330.795 112.965 329.888 110.355 328.14C106.89 325.815 104.543 322.29 103.74 318.203L56.76 79.485C55.9575 75.405 56.7975 71.25 59.1225 67.785C61.4475 64.32 64.9725 61.9725 69.06 61.17L96.27 55.815L96.495 56.9475C96.8025 58.515 97.7025 59.865 99.03 60.7575C100.358 61.65 101.955 61.9725 103.515 61.665L135.285 55.41C136.853 55.1025 138.203 54.2025 139.095 52.875C139.988 51.5475 140.31 49.95 140.003 48.39L139.778 47.2575L162.458 42.795C170.895 41.1375 179.115 46.65 180.78 55.0875L227.768 293.798C228.57 297.878 227.738 302.033 225.413 305.498C223.088 308.963 219.563 311.31 215.475 312.113L122.078 330.495C121.065 330.698 120.053 330.795 119.04 330.795H119.025ZM95.6775 56.6925L69.2025 61.905C65.3175 62.67 61.9575 64.905 59.745 68.205C57.5325 71.505 56.7375 75.4575 57.5025 79.3425L104.49 318.06C105.255 321.945 107.49 325.305 110.79 327.518C114.09 329.73 118.043 330.525 121.928 329.76L215.325 311.378C219.21 310.613 222.57 308.378 224.783 305.078C226.995 301.778 227.79 297.825 227.025 293.94L180.038 55.23C178.455 47.1975 170.633 41.94 162.6 43.5225L140.655 47.8425L140.73 48.24C141.45 51.8775 139.065 55.425 135.428 56.145L103.658 62.4C101.895 62.745 100.103 62.385 98.61 61.38C97.1175 60.375 96.105 58.8525 95.7525 57.0975L95.6775 56.7V56.6925Z" fill="#393B56"/>
<path d="M131.969 48.768L105.088 54.066L105.233 54.8019L132.114 49.5038L131.969 48.768Z" fill="#393B56"/>
<path d="M115.432 87.69C115.17 86.3475 114.3 85.635 113.272 85.8375C112.207 86.0475 111.705 87.045 111.96 88.3725C112.215 89.7 113.077 90.435 114.135 90.225C115.162 90.0225 115.695 89.04 115.432 87.69ZM109.357 85.08L111.232 84.7125L111.307 85.095L111.367 86.025L111.57 85.9875C111.81 85.1325 112.47 84.3825 113.58 84.165C115.275 83.8275 116.857 84.9825 117.315 87.3225C117.765 89.6025 116.752 91.3275 115.05 91.6575C113.94 91.875 113.032 91.3875 112.5 90.735L112.297 90.7725L112.605 91.7175L113.362 95.55L111.487 95.9175L109.357 85.095V85.08Z" fill="#89C764"/>
<path d="M123.293 86.9475L123.255 86.745C121.793 87.03 120.218 87.36 120.413 88.365C120.51 88.875 120.998 89.1 121.718 88.9575C122.843 88.7325 123.488 87.9225 123.3 86.9475M118.59 88.89C118.133 86.55 120.908 86.0775 123.045 85.6575L122.933 85.0875C122.768 84.27 122.243 83.9625 121.395 84.1275C120.548 84.2925 120.098 84.78 120.203 85.7925L118.388 86.055C118.11 84.015 119.385 82.9575 121.103 82.62C122.918 82.26 124.418 82.77 124.83 84.8625L125.738 89.4525L124.275 89.7375L123.885 88.5375L123.728 88.5675C123.525 89.55 122.753 90.1875 121.5 90.435C120.023 90.7275 118.86 90.15 118.613 88.875" fill="#89C764"/>
<path d="M131.137 85.4025L131.1 85.2C129.637 85.485 128.062 85.815 128.257 86.82C128.355 87.33 128.842 87.555 129.562 87.4125C130.687 87.1875 131.332 86.3775 131.145 85.4025M126.427 87.345C125.97 85.005 128.745 84.5325 130.882 84.1125L130.77 83.5425C130.605 82.725 130.08 82.4175 129.232 82.5825C128.385 82.7475 127.935 83.235 128.04 84.2475L126.225 84.51C125.947 82.47 127.222 81.4125 128.94 81.075C130.755 80.715 132.255 81.225 132.667 83.3175L133.575 87.9075L132.112 88.1925L131.722 86.9925L131.565 87.0225C131.362 88.005 130.59 88.6425 129.337 88.89C127.86 89.1825 126.697 88.605 126.45 87.33" fill="#89C764"/>
<path d="M134.25 85.545L135.982 85.02C136.275 85.6725 136.83 85.92 137.775 85.7325C138.652 85.56 139.102 85.155 138.997 84.5925C138.93 84.24 138.667 83.9925 137.827 84.045L136.515 84.15C135.307 84.255 134.032 83.985 133.77 82.6275C133.477 81.135 134.497 79.98 136.335 79.6125C138.172 79.245 139.432 79.9125 139.837 81.4125L138.225 81.855C138.015 81.18 137.505 80.8875 136.612 81.06C135.765 81.225 135.412 81.69 135.517 82.215C135.592 82.5975 135.915 82.7625 136.59 82.7175L137.947 82.605C139.297 82.5225 140.505 82.785 140.782 84.1725C141.075 85.65 140.167 86.7525 138.075 87.165C136.027 87.57 134.752 86.955 134.257 85.53" fill="#89C764"/>
<path d="M143.231 71.4725L103.257 79.3368L103.563 80.8895L143.537 73.0253L143.231 71.4725Z" fill="#89C764"/>
<path d="M147.231 91.8045L107.257 99.6688L107.562 101.222L147.536 93.3573L147.231 91.8045Z" fill="#89C764"/>
<path d="M164.145 304.538C172.09 304.538 178.53 298.097 178.53 290.153C178.53 282.208 172.09 275.768 164.145 275.768C156.2 275.768 149.76 282.208 149.76 290.153C149.76 298.097 156.2 304.538 164.145 304.538Z" fill="#89C764"/>
<path d="M163.215 295.957L157.47 291.562L158.415 290.317L162.682 293.58L168.09 283.125L169.485 283.845L163.215 295.957Z" fill="white"/>
<path d="M257.253 109.426L119.427 136.541C115.448 137.324 112.857 141.184 113.64 145.163L129.16 224.051C129.943 228.03 133.803 230.621 137.782 229.838L275.607 202.723C279.586 201.94 282.177 198.08 281.395 194.101L265.874 115.213C265.092 111.234 261.232 108.643 257.253 109.426Z" fill="#393B56"/>
<path d="M258.27 107.916L120.445 135.031C116.466 135.814 113.875 139.674 114.658 143.653L130.178 222.541C130.96 226.52 134.821 229.111 138.799 228.328L276.625 201.213C280.604 200.43 283.195 196.57 282.412 192.591L266.892 113.703C266.109 109.724 262.249 107.133 258.27 107.916Z" fill="#3472AF"/>
<path d="M134.842 142.673L133.102 151.838L130.297 152.393L125.175 144.578L127.725 144.075L130.275 148.185L131.16 149.685L131.235 149.67L131.49 147.953L132.285 143.168L134.835 142.665L134.842 142.673Z" fill="white"/>
<path d="M135.72 142.5L138 142.05L139.672 150.547L137.392 150.997L135.72 142.5Z" fill="white"/>
<path d="M140.438 147.757L142.538 146.767C142.898 147.765 143.678 147.945 144.84 147.712C145.898 147.502 146.423 147.24 146.318 146.715C146.228 146.317 145.905 146.28 144.84 146.31L143.033 146.362C141.525 146.407 140.243 145.71 139.92 144.262C139.553 142.53 141.113 141.3 143.093 140.917C145.523 140.437 146.948 141.03 147.525 142.665L145.583 143.64C145.268 142.62 144.593 142.597 143.483 142.815C142.5 143.01 142.058 143.325 142.14 143.76C142.245 144.232 142.613 144.247 143.775 144.195L145.35 144.127C146.888 144.067 148.178 144.705 148.455 145.987C148.86 147.87 147.33 149.16 145.193 149.58C142.853 150.037 141.113 149.49 140.43 147.757H140.438Z" fill="white"/>
<path d="M148.552 139.972L150.832 139.522L152.505 148.02L150.225 148.47L148.552 139.972Z" fill="white"/>
<path d="M160.44 139.672L158.85 139.987L157.635 140.205L158.925 146.76L156.705 147.195L155.415 140.64L154.207 140.902L152.617 141.217L152.227 139.252L160.057 137.715L160.447 139.68L160.44 139.672Z" fill="white"/>
<path d="M161.49 141.862C160.957 139.155 162.727 137.055 165.577 136.492C168.457 135.93 170.857 137.227 171.382 139.912C171.907 142.597 170.137 144.675 167.295 145.23C164.415 145.792 162.007 144.517 161.49 141.862ZM169.072 140.347C168.705 138.48 167.82 138.15 165.975 138.51C164.13 138.87 163.425 139.515 163.792 141.382C164.175 143.325 165.06 143.58 166.905 143.22C168.75 142.86 169.402 142.012 169.072 140.347Z" fill="white"/>
<path d="M176.97 140.04L175.14 140.4L175.74 143.445L173.52 143.88L171.848 135.382L176.573 134.452C178.515 134.07 179.903 134.842 180.24 136.552C180.488 137.805 180.053 139.057 178.86 139.297V139.342L181.748 142.252L179.528 142.687L176.97 140.025V140.04ZM174.773 138.555L176.993 138.12C177.803 137.962 178.08 137.752 177.938 137.04C177.803 136.335 177.443 136.267 176.655 136.425L174.435 136.86L174.773 138.562V138.555Z" fill="white"/>
<path d="M139.658 169.26C140.033 171.15 139.223 172.447 137.258 172.837C136.08 173.07 135.045 172.627 134.423 171.615H134.4L135.135 175.275L134.19 175.462L132.66 167.67L133.448 167.512L133.913 169.057H133.935C134.123 167.895 134.948 167.085 136.148 166.852C138.09 166.47 139.283 167.355 139.658 169.26ZM138.713 169.447C138.435 168.037 137.565 167.482 136.005 167.79C134.558 168.075 133.868 168.99 134.138 170.355C134.408 171.727 135.413 172.297 136.838 172.02C138.405 171.712 138.99 170.865 138.713 169.455V169.447Z" fill="white"/>
<path d="M146.13 167.07L146.865 170.82L146.063 170.978L145.635 169.463H145.612C145.455 170.595 144.615 171.39 143.415 171.63C142.08 171.893 141.135 171.458 140.947 170.498C140.692 169.185 141.637 168.758 144.172 167.843L145.245 167.453L145.2 167.213C145.005 166.343 144.293 166.043 143.183 166.26C141.99 166.493 141.57 167.04 141.645 168L140.805 167.963C140.663 166.613 141.57 165.78 143.04 165.495C144.593 165.188 145.845 165.66 146.123 167.07H146.13ZM145.357 168.015L144.285 168.405C142.755 168.968 141.705 169.32 141.885 170.228C142.005 170.835 142.59 171.068 143.55 170.88C144.772 170.64 145.68 169.455 145.357 168.015Z" fill="white"/>
<path d="M152.94 165.727L153.675 169.477L152.872 169.635L152.445 168.12H152.422C152.265 169.252 151.425 170.047 150.225 170.287C148.89 170.55 147.945 170.115 147.757 169.155C147.502 167.842 148.447 167.415 150.982 166.5L152.055 166.11L152.01 165.87C151.815 165 151.103 164.7 149.993 164.917C148.8 165.15 148.38 165.698 148.455 166.658L147.615 166.62C147.473 165.27 148.38 164.437 149.85 164.152C151.402 163.845 152.655 164.317 152.932 165.727H152.94ZM152.167 166.672L151.095 167.062C149.565 167.625 148.515 167.97 148.695 168.885C148.815 169.492 149.4 169.725 150.36 169.537C151.582 169.297 152.49 168.112 152.167 166.672Z" fill="white"/>
<path d="M154.538 167.617L155.377 167.227C155.7 168.03 156.398 168.315 157.553 168.082C158.558 167.887 159.053 167.46 158.933 166.837C158.82 166.327 158.355 166.155 157.335 166.17L156.067 166.192C154.98 166.23 154.35 165.802 154.163 164.977C153.945 163.95 154.71 163.192 156.247 162.892C157.777 162.592 158.752 163.065 159.27 164.205L158.422 164.572C158.085 163.702 157.395 163.372 156.42 163.567C155.46 163.755 154.988 164.175 155.1 164.76C155.198 165.195 155.542 165.42 156.27 165.397L157.687 165.36C158.955 165.322 159.66 165.69 159.855 166.56C160.087 167.685 159.27 168.502 157.627 168.825C156.157 169.117 154.957 168.705 154.53 167.617H154.538Z" fill="white"/>
<path d="M169.492 163.387L168.51 163.582L169.072 166.447L168.15 166.627L166.477 158.13L167.4 157.95L168.345 162.742L169.327 162.547L171.21 160.072L172.462 159.825L170.16 162.877L173.76 165.525L172.68 165.735L169.492 163.387Z" fill="white"/>
<path d="M179.393 160.522L180.128 164.272L179.325 164.43L178.898 162.915H178.875C178.718 164.047 177.878 164.842 176.678 165.082C175.343 165.345 174.398 164.91 174.21 163.95C173.955 162.637 174.9 162.21 177.435 161.295L178.508 160.905L178.463 160.665C178.268 159.795 177.555 159.495 176.445 159.712C175.253 159.945 174.833 160.492 174.908 161.452L174.068 161.415C173.925 160.065 174.833 159.232 176.303 158.947C177.855 158.64 179.108 159.112 179.385 160.522H179.393ZM178.62 161.467L177.548 161.857C176.018 162.42 174.968 162.772 175.148 163.68C175.268 164.287 175.853 164.52 176.813 164.332C178.035 164.092 178.943 162.907 178.62 161.467Z" fill="white"/>
<path d="M180.765 158.197L181.553 158.04L182.018 159.562H182.033C182.19 158.115 183.263 157.492 184.68 157.387L184.725 158.31C183.248 158.37 182.003 159.465 182.348 161.227L182.843 163.74L181.898 163.927L180.773 158.197H180.765Z" fill="white"/>
<path d="M188.812 157.492L188.085 157.62L188.873 161.64L188.91 161.655L190.8 161.28L190.965 162.127L189.232 162.472C188.49 162.615 188.01 162.27 187.868 161.557L187.132 157.807L186.405 157.965L185.603 158.122L185.438 157.275L186.24 157.117L186.967 156.982L186.817 155.07L187.545 154.927L187.913 156.795L188.64 156.637L190.013 156.367L190.178 157.215L188.805 157.485L188.812 157.492Z" fill="white"/>
<path d="M196.935 157.065L197.67 160.815L196.867 160.973L196.44 159.458H196.418C196.26 160.59 195.42 161.385 194.22 161.625C192.885 161.888 191.94 161.453 191.752 160.493C191.497 159.18 192.443 158.753 194.978 157.838L196.05 157.448L196.005 157.208C195.81 156.338 195.097 156.038 193.987 156.255C192.795 156.488 192.375 157.035 192.45 157.995L191.61 157.958C191.467 156.608 192.375 155.775 193.845 155.49C195.397 155.183 196.65 155.655 196.928 157.065H196.935ZM196.162 158.01L195.09 158.4C193.56 158.963 192.51 159.308 192.69 160.223C192.81 160.83 193.395 161.063 194.355 160.875C195.578 160.635 196.485 159.45 196.162 158.01Z" fill="white"/>
<path d="M159.255 156.973L129.723 162.783L129.942 163.894L159.473 158.085L159.255 156.973Z" fill="white"/>
<path d="M162.452 173.189L132.921 178.999L133.139 180.11L162.671 174.3L162.452 173.189Z" fill="white"/>
<path d="M271.26 176.715L268.155 177.33L265.485 163.792L264.915 163.905L267.577 177.442L257.745 179.377L255.082 165.84L254.513 165.952L257.175 179.49L247.343 181.425L244.68 167.887L244.11 168L246.772 181.537L236.94 183.472L234.27 169.935L233.7 170.047L236.362 183.585L233.258 184.2L233.37 184.77L236.475 184.155L239.145 197.692L239.715 197.58L237.053 184.042L246.885 182.107L249.548 195.645L250.117 195.532L247.455 181.995L257.287 180.06L259.95 193.597L260.52 193.485L257.857 179.947L267.69 178.012L270.36 191.55L270.93 191.437L268.268 177.9L271.372 177.292L271.26 176.715Z" fill="#CDCECF"/>
<path d="M253.357 185.16L251.242 185.58L252.518 192.06L253.088 191.948L252.607 189.51L254.152 189.203C255.262 188.985 255.99 187.898 255.772 186.788C255.555 185.67 254.467 184.943 253.357 185.16ZM254.04 188.633L252.495 188.94L251.925 186.038L253.47 185.73C254.265 185.573 255.045 186.098 255.202 186.893C255.36 187.688 254.835 188.468 254.04 188.625V188.633Z" fill="#CDCECF"/>
<path d="M260.017 171.99L261.562 171.682C262.672 171.465 263.4 170.377 263.182 169.267C262.965 168.157 261.877 167.422 260.767 167.64L258.652 168.06L259.927 174.54L260.497 174.427L260.017 171.99ZM259.335 168.517L260.88 168.21C261.675 168.052 262.455 168.577 262.612 169.372C262.77 170.167 262.245 170.947 261.45 171.105L259.905 171.412L259.335 168.51V168.517Z" fill="#CDCECF"/>
<path d="M240.922 180.518L241.957 180.315C243.472 180.015 244.267 179.055 244.02 177.803L242.797 171.578C242.497 170.07 241.035 169.088 239.535 169.38L239.032 169.478C237.532 169.77 236.55 171.24 236.842 172.748L238.065 178.973C238.312 180.225 239.407 180.81 240.922 180.518ZM237.412 172.635C237.18 171.443 237.952 170.288 239.145 170.048L239.647 169.95C240.84 169.718 241.995 170.498 242.227 171.683L243.45 177.908C243.705 179.22 242.415 179.625 241.845 179.738L240.81 179.94C240.24 180.053 238.89 180.173 238.635 178.853L237.412 172.628V172.635Z" fill="#CDCECF"/>
<path d="M239.97 172.928C240.773 172.77 241.178 172.942 241.185 172.942L241.425 172.417C241.373 172.387 240.848 172.17 239.858 172.365C238.988 172.538 238.47 173.01 238.448 173.033L238.845 173.46C238.845 173.46 239.273 173.077 239.97 172.935V172.928Z" fill="#CDCECF"/>
<path d="M241.834 176.839L239.7 177.259L239.813 177.833L241.947 177.413L241.834 176.839Z" fill="#CDCECF"/>
<path d="M251.595 178.417L252.097 178.32C253.597 178.027 254.58 176.557 254.287 175.05L253.065 168.825C252.817 167.572 251.722 166.987 250.207 167.28L249.172 167.482C247.657 167.782 246.862 168.742 247.11 169.995L248.332 176.22C248.632 177.727 250.095 178.71 251.595 178.417ZM247.68 169.882C247.425 168.57 248.715 168.165 249.285 168.052L250.32 167.85C250.89 167.737 252.24 167.617 252.495 168.937L253.717 175.162C253.95 176.355 253.177 177.51 251.985 177.75L251.482 177.847C250.29 178.08 249.135 177.3 248.902 176.115L247.68 169.89V169.882Z" fill="#CDCECF"/>
<path d="M252.683 174.772L252.285 174.345C252.285 174.345 251.858 174.727 251.16 174.87C250.358 175.027 249.953 174.855 249.945 174.855L249.705 175.38C249.758 175.41 250.283 175.627 251.273 175.432C252.143 175.26 252.66 174.787 252.683 174.765V174.772Z" fill="#CDCECF"/>
<path d="M251.296 170.018L249.162 170.437L249.275 171.011L251.409 170.592L251.296 170.018Z" fill="#CDCECF"/>
<path d="M263.438 180.99L262.935 181.087C261.435 181.38 260.453 182.85 260.745 184.357L261.968 190.582C262.215 191.835 263.31 192.42 264.825 192.128L265.86 191.925C267.375 191.625 268.17 190.665 267.923 189.412L266.7 183.187C266.4 181.68 264.938 180.697 263.438 180.99ZM267.353 189.525C267.608 190.837 266.318 191.242 265.748 191.355L264.713 191.557C264.143 191.67 262.793 191.79 262.538 190.47L261.315 184.245C261.083 183.052 261.855 181.897 263.048 181.657L263.55 181.56C264.735 181.327 265.898 182.107 266.13 183.292L267.353 189.517V189.525Z" fill="#CDCECF"/>
<path d="M262.35 184.635L262.747 185.062C262.747 185.062 263.175 184.68 263.872 184.537C264.675 184.38 265.08 184.552 265.087 184.552L265.327 184.027C265.275 183.997 264.75 183.78 263.76 183.975C262.89 184.147 262.372 184.62 262.35 184.642V184.635Z" fill="#CDCECF"/>
<path d="M265.728 188.455L263.594 188.875L263.707 189.449L265.841 189.029L265.728 188.455Z" fill="#CDCECF"/>
<path d="M242.887 185.033L241.852 185.235C240.337 185.535 239.542 186.495 239.79 187.747L241.012 193.973C241.312 195.48 242.775 196.462 244.275 196.17L244.777 196.072C246.277 195.78 247.26 194.31 246.967 192.803L245.745 186.577C245.497 185.325 244.402 184.74 242.887 185.033ZM246.405 192.915C246.637 194.107 245.865 195.263 244.672 195.503L244.17 195.6C242.985 195.832 241.822 195.052 241.59 193.867L240.367 187.642C240.112 186.33 241.402 185.925 241.972 185.812L243.007 185.61C243.577 185.497 244.927 185.377 245.182 186.697L246.405 192.923V192.915Z" fill="#CDCECF"/>
<path d="M243.848 192.622C243.045 192.78 242.64 192.607 242.633 192.607L242.513 192.87L242.393 193.132C242.445 193.155 242.97 193.38 243.96 193.185C244.83 193.012 245.348 192.54 245.37 192.517L244.973 192.09C244.973 192.09 244.545 192.472 243.848 192.615V192.622Z" fill="#CDCECF"/>
<path d="M243.978 187.769L241.844 188.189L241.957 188.763L244.091 188.343L243.978 187.769Z" fill="#CDCECF"/>
<g opacity="0.15">
<path d="M195.247 217.2L157.357 224.662L181.245 123.052L219.142 115.59L195.247 217.2Z" fill="#DFDFDF"/>
</g>
<g opacity="0.15">
<path d="M215.835 213.15L202.237 215.827L226.125 114.217L239.722 111.54L215.835 213.15Z" fill="#DFDFDF"/>
</g>
<path d="M285.297 141.407L145.546 155.578C141.511 155.987 138.573 159.589 138.982 163.624L147.093 243.613C147.502 247.648 151.104 250.587 155.138 250.178L294.889 236.007C298.924 235.598 301.863 231.996 301.454 227.961L293.343 147.971C292.934 143.937 289.331 140.998 285.297 141.407Z" fill="#8A9AA7"/>
<path d="M286.446 140.001L146.695 154.172C142.661 154.581 139.722 158.183 140.131 162.217L148.242 242.207C148.651 246.242 152.253 249.181 156.288 248.772L296.039 234.601C300.073 234.192 303.012 230.589 302.603 226.555L294.492 146.565C294.083 142.531 290.481 139.592 286.446 140.001Z" fill="#CDCECF"/>
<path d="M292.965 209.738L289.815 210.053L288.42 196.328L287.843 196.388L289.237 210.113L279.263 211.125L277.875 197.4L277.298 197.46L278.685 211.185L268.718 212.198L267.322 198.465L266.745 198.525L268.133 212.258L258.165 213.263L256.77 199.538L256.192 199.598L257.588 213.323L254.43 213.645L254.49 214.223L257.64 213.9L259.035 227.633L259.612 227.573L258.225 213.848L268.192 212.835L269.588 226.56L270.165 226.5L268.77 212.775L278.745 211.763L280.14 225.488L280.718 225.435L279.322 211.703L289.298 210.69L290.685 224.423L291.263 224.363L289.875 210.638L293.025 210.315L292.965 209.738Z" fill="#758089"/>
<path d="M274.358 216.48L272.213 216.697L272.88 223.275L273.458 223.215L273.21 220.74L274.778 220.582C275.903 220.47 276.728 219.457 276.615 218.325C276.503 217.192 275.49 216.367 274.358 216.48ZM274.718 219.997L273.15 220.155L272.85 217.215L274.418 217.057C275.228 216.975 275.955 217.567 276.038 218.377C276.12 219.187 275.528 219.915 274.718 219.997Z" fill="#758089"/>
<path d="M282.21 203.977L283.778 203.82C284.903 203.707 285.728 202.695 285.615 201.562C285.503 200.43 284.49 199.605 283.358 199.717L281.213 199.935L281.88 206.505L282.458 206.445L282.21 203.97V203.977ZM281.858 200.46L283.425 200.302C284.235 200.22 284.963 200.812 285.045 201.622C285.128 202.432 284.535 203.16 283.725 203.242L282.158 203.4L281.858 200.46Z" fill="#758089"/>
<path d="M262.41 210.69L263.46 210.585C264.997 210.427 265.875 209.542 265.747 208.275L265.11 201.967C264.952 200.437 263.587 199.327 262.065 199.477L261.555 199.53C260.032 199.687 258.915 201.052 259.072 202.582L259.71 208.89C259.837 210.157 260.872 210.847 262.41 210.69ZM259.65 202.522C259.53 201.315 260.407 200.235 261.615 200.107L262.125 200.055C263.332 199.935 264.412 200.812 264.532 202.027L265.17 208.335C265.305 209.67 263.977 209.947 263.4 210.007L262.35 210.112C261.772 210.172 260.422 210.165 260.287 208.83L259.65 202.522Z" fill="#758089"/>
<path d="M262.163 203.047C262.98 202.965 263.363 203.175 263.37 203.175L263.663 202.672C263.61 202.642 263.115 202.372 262.11 202.47C261.233 202.56 260.67 202.987 260.648 203.002L261.008 203.46C261.008 203.46 261.465 203.115 262.17 203.047H262.163Z" fill="#758089"/>
<path d="M263.668 207.09L261.504 207.31L261.563 207.892L263.727 207.672L263.668 207.09Z" fill="#758089"/>
<path d="M273.233 209.595L273.742 209.542C275.265 209.385 276.382 208.02 276.225 206.49L275.588 200.175C275.46 198.907 274.425 198.217 272.888 198.375L271.838 198.48C270.3 198.637 269.423 199.522 269.55 200.79L270.188 207.105C270.345 208.635 271.71 209.745 273.233 209.595ZM270.12 200.737C269.985 199.402 271.312 199.125 271.89 199.065L272.94 198.96C273.518 198.9 274.868 198.907 275.003 200.242L275.64 206.557C275.76 207.765 274.883 208.845 273.675 208.972L273.165 209.025C271.958 209.145 270.878 208.267 270.758 207.052L270.12 200.745V200.737Z" fill="#758089"/>
<path d="M274.65 206.07L274.298 205.612C274.298 205.612 273.84 205.957 273.128 206.025C272.31 206.107 271.927 205.897 271.92 205.897L271.628 206.4C271.68 206.43 272.175 206.7 273.18 206.602C274.057 206.512 274.62 206.085 274.642 206.07H274.65Z" fill="#758089"/>
<path d="M273.723 201.186L271.559 201.405L271.618 201.987L273.782 201.768L273.723 201.186Z" fill="#758089"/>
<path d="M284.775 213.262L284.265 213.315C282.743 213.472 281.625 214.837 281.783 216.367L282.42 222.682C282.548 223.95 283.583 224.64 285.12 224.482L286.17 224.377C287.708 224.22 288.585 223.335 288.457 222.067L287.82 215.752C287.663 214.222 286.298 213.112 284.775 213.262ZM287.88 222.12C288.015 223.455 286.688 223.732 286.11 223.792L285.06 223.897C284.483 223.957 283.133 223.95 282.998 222.615L282.36 216.3C282.24 215.092 283.118 214.012 284.325 213.885L284.835 213.832C286.043 213.712 287.123 214.59 287.243 215.805L287.88 222.112V222.12Z" fill="#758089"/>
<path d="M283.358 216.788L283.718 217.245C283.718 217.245 284.175 216.9 284.88 216.833C285.698 216.75 286.08 216.96 286.088 216.96L286.38 216.458C286.328 216.428 285.833 216.158 284.828 216.255C283.95 216.345 283.388 216.773 283.365 216.788H283.358Z" fill="#758089"/>
<path d="M286.385 220.876L284.221 221.095L284.28 221.677L286.444 221.458L286.385 220.876Z" fill="#758089"/>
<path d="M263.947 215.378L262.897 215.483C261.36 215.64 260.482 216.525 260.61 217.793L261.247 224.108C261.405 225.638 262.77 226.748 264.293 226.598L264.802 226.545C266.325 226.388 267.442 225.023 267.285 223.493L266.647 217.178C266.52 215.91 265.485 215.22 263.947 215.378ZM266.707 223.545C266.827 224.753 265.95 225.833 264.742 225.96L264.232 226.013C263.025 226.133 261.945 225.255 261.825 224.04L261.187 217.733C261.052 216.398 262.38 216.12 262.957 216.06L264.007 215.955C264.585 215.895 265.935 215.903 266.07 217.238L266.707 223.553V223.545Z" fill="#758089"/>
<path d="M264.188 223.02C263.37 223.102 262.988 222.892 262.98 222.892L262.688 223.395C262.74 223.425 263.235 223.695 264.24 223.597C265.118 223.507 265.68 223.08 265.702 223.065L265.343 222.607C265.343 222.607 264.885 222.952 264.18 223.02H264.188Z" fill="#758089"/>
<path d="M264.795 218.17L262.631 218.39L262.69 218.972L264.854 218.752L264.795 218.17Z" fill="#758089"/>
<g opacity="0.6">
<path d="M213.517 242.962L175.095 246.862L208.342 147.915L246.765 144.022L213.517 242.962Z" fill="#DFDFDF"/>
</g>
<g opacity="0.6">
<path d="M234.39 240.847L220.605 242.242L253.852 143.302L267.645 141.907L234.39 240.847Z" fill="#DFDFDF"/>
</g>
<path d="M157.605 167.662C159.015 167.572 160.005 168.262 160.11 169.335C160.26 170.85 159.322 171.877 157.747 172.035L152.295 172.59L151.425 163.972L156.337 163.477C158.122 163.297 159.217 164.04 159.352 165.412C159.457 166.455 158.805 167.37 157.597 167.632V167.67L157.605 167.662ZM153.982 167.13L156.465 166.875C156.945 166.83 157.162 166.545 157.117 166.042C157.072 165.615 156.705 165.427 156.217 165.472L153.84 165.712L153.982 167.13ZM157.732 169.275C157.687 168.817 157.357 168.615 156.75 168.675L154.162 168.937L154.312 170.392L156.96 170.122C157.522 170.062 157.785 169.777 157.732 169.275Z" fill="#16254C"/>
<path d="M160.56 167.422C160.282 164.677 162.24 162.75 165.127 162.457C168.045 162.165 170.31 163.687 170.587 166.402C170.865 169.117 168.907 171.022 166.027 171.315C163.11 171.607 160.83 170.115 160.56 167.415V167.422ZM168.247 166.62C168.052 164.722 167.205 164.31 165.337 164.505C163.47 164.7 162.705 165.27 162.9 167.167C163.102 169.14 163.957 169.47 165.825 169.282C167.692 169.095 168.427 168.307 168.255 166.627L168.247 166.62Z" fill="#16254C"/>
<path d="M171.465 161.94L174.48 161.632L178.14 165.952L178.882 166.86H178.935L178.83 165.907L178.357 161.242L180.6 161.017L181.47 169.635L178.575 169.927L174.825 165.457L174.03 164.482H173.977L174.097 165.532L174.585 170.332L172.342 170.557L171.465 161.94Z" fill="#16254C"/>
<path d="M191.273 159.938L191.775 164.888C192.023 167.348 190.5 168.847 187.703 169.132C184.883 169.417 183.09 168.27 182.835 165.795L182.333 160.845L184.583 160.62L185.1 165.743C185.235 167.085 185.948 167.25 187.485 167.092C189.06 166.935 189.675 166.612 189.54 165.292L189.023 160.17L191.265 159.945L191.273 159.938Z" fill="#16254C"/>
<path d="M193.058 165.855L195.24 165.06C195.503 166.087 196.268 166.335 197.445 166.215C198.518 166.11 199.065 165.885 199.013 165.36C198.96 164.955 198.638 164.887 197.58 164.82L195.78 164.707C194.28 164.61 193.065 163.8 192.878 162.33C192.675 160.575 194.34 159.495 196.35 159.292C198.81 159.045 200.175 159.765 200.595 161.445L198.57 162.232C198.353 161.182 197.685 161.1 196.553 161.22C195.555 161.318 195.083 161.595 195.128 162.037C195.188 162.517 195.555 162.57 196.718 162.622L198.293 162.697C199.83 162.78 201.053 163.537 201.21 164.842C201.443 166.755 199.793 167.895 197.625 168.112C195.248 168.352 193.575 167.64 193.058 165.855Z" fill="#16254C"/>
<path d="M162.555 190.005C162.75 191.925 161.827 193.14 159.832 193.342C158.64 193.462 157.65 192.93 157.125 191.865H157.102L157.492 195.57L156.532 195.667L155.73 187.762L156.532 187.68L156.855 189.262H156.877C157.17 188.122 158.07 187.402 159.285 187.275C161.257 187.072 162.36 188.07 162.555 190.005ZM161.595 190.102C161.452 188.677 160.642 188.032 159.052 188.197C157.59 188.347 156.817 189.195 156.952 190.575C157.095 191.962 158.047 192.63 159.487 192.48C161.077 192.322 161.745 191.527 161.595 190.102Z" fill="#16254C"/>
<path d="M169.2 188.422L169.583 192.225L168.773 192.307L168.488 190.755H168.465C168.203 191.865 167.295 192.577 166.073 192.705C164.715 192.84 163.823 192.322 163.725 191.355C163.59 190.027 164.573 189.69 167.183 189.015L168.285 188.73L168.263 188.482C168.15 187.597 167.468 187.23 166.343 187.35C165.135 187.47 164.663 187.98 164.655 188.94L163.823 188.827C163.808 187.477 164.79 186.727 166.283 186.577C167.858 186.42 169.065 187.005 169.208 188.43L169.2 188.422ZM168.345 189.292L167.243 189.577C165.668 189.997 164.588 190.245 164.678 191.167C164.738 191.782 165.308 192.075 166.275 191.977C167.52 191.85 168.525 190.755 168.338 189.292H168.345Z" fill="#16254C"/>
<path d="M176.107 187.725L176.49 191.527L175.68 191.61L175.395 190.057H175.372C175.11 191.167 174.202 191.88 172.98 192.007C171.622 192.142 170.73 191.625 170.632 190.657C170.497 189.33 171.48 188.992 174.09 188.317L175.192 188.032L175.17 187.785C175.057 186.9 174.375 186.532 173.25 186.652C172.042 186.772 171.57 187.282 171.555 188.242L170.722 188.13C170.707 186.78 171.69 186.03 173.182 185.88C174.757 185.722 175.965 186.307 176.107 187.732V187.725ZM175.245 188.595L174.142 188.88C172.567 189.3 171.487 189.547 171.577 190.47C171.637 191.085 172.207 191.377 173.175 191.28C174.42 191.152 175.425 190.057 175.237 188.595H175.245Z" fill="#16254C"/>
<path d="M177.517 189.757L178.395 189.442C178.642 190.275 179.31 190.62 180.48 190.5C181.5 190.395 182.032 190.02 181.972 189.39C181.905 188.872 181.462 188.655 180.45 188.572L179.182 188.475C178.095 188.415 177.51 187.927 177.397 187.087C177.277 186.045 178.102 185.362 179.67 185.205C181.222 185.047 182.145 185.61 182.557 186.787L181.68 187.072C181.425 186.18 180.765 185.782 179.782 185.887C178.807 185.985 178.297 186.36 178.357 186.952C178.417 187.395 178.74 187.65 179.467 187.702L180.885 187.792C182.152 187.875 182.812 188.302 182.925 189.187C183.052 190.327 182.16 191.07 180.495 191.235C179.002 191.385 177.847 190.867 177.525 189.742L177.517 189.757Z" fill="#16254C"/>
<path d="M190.38 187.185C190.185 185.242 191.318 184.027 193.448 183.817C195.27 183.63 196.283 184.275 196.725 185.737L195.81 186.037C195.54 185.01 194.903 184.56 193.538 184.702C191.903 184.867 191.198 185.685 191.34 187.087C191.483 188.49 192.33 189.15 193.973 188.985C195.39 188.842 195.863 188.25 195.923 187.147L196.883 187.26C196.74 188.827 195.87 189.69 194.063 189.87C191.933 190.087 190.575 189.105 190.38 187.185Z" fill="#16254C"/>
<path d="M203.445 184.95L203.828 188.753L203.018 188.835L202.733 187.283H202.71C202.448 188.393 201.54 189.105 200.318 189.233C198.968 189.368 198.068 188.85 197.97 187.883C197.835 186.555 198.818 186.218 201.428 185.543L202.53 185.258L202.508 185.01C202.395 184.125 201.713 183.758 200.588 183.878C199.38 183.998 198.908 184.508 198.893 185.468L198.06 185.355C198.045 184.005 199.028 183.255 200.52 183.105C202.095 182.948 203.303 183.533 203.445 184.958V184.95ZM202.59 185.82L201.488 186.105C199.913 186.525 198.833 186.773 198.923 187.695C198.983 188.31 199.545 188.603 200.52 188.505C201.765 188.378 202.77 187.283 202.583 185.82H202.59Z" fill="#16254C"/>
<path d="M205.027 182.76L205.83 182.678L206.152 184.237H206.167C206.46 182.812 207.585 182.287 209.01 182.317L208.965 183.24C207.487 183.165 206.145 184.132 206.325 185.917L206.58 188.467L205.62 188.565L205.027 182.752V182.76Z" fill="#16254C"/>
<path d="M215.423 183.322H215.438L214.988 178.912L215.948 178.815L216.818 187.432L216.015 187.515L215.693 185.94H215.678C215.37 187.08 214.5 187.792 213.315 187.912C211.32 188.115 210.173 187.11 209.978 185.19C209.783 183.255 210.668 182.062 212.64 181.86C213.855 181.732 214.883 182.265 215.415 183.322H215.423ZM215.603 184.627C215.46 183.247 214.523 182.572 213.06 182.722C211.47 182.88 210.81 183.675 210.953 185.1C211.095 186.525 211.905 187.17 213.495 187.005C214.935 186.862 215.745 186.015 215.603 184.627Z" fill="#16254C"/>
<path d="M183.306 179.628L153.362 182.664L153.477 183.791L183.421 180.755L183.306 179.628Z" fill="#16254C"/>
<path d="M184.971 196.071L155.027 199.107L155.142 200.234L185.086 197.198L184.971 196.071Z" fill="#16254C"/>
<path d="M269.628 46.1861L253.552 54.5796L253.899 55.2444L269.975 46.851L269.628 46.1861Z" fill="#A7AEB7"/>
<path d="M248.485 57.2267L234.863 64.3392L235.21 65.0041L248.832 57.8915L248.485 57.2267Z" fill="#A7AEB7"/>
<path d="M224.357 69.8144L180.89 92.5094L181.237 93.1742L224.704 70.4793L224.357 69.8144Z" fill="#A7AEB7"/>
<path d="M175.549 95.2855L168.316 99.0623L168.663 99.7271L175.896 95.9504L175.549 95.2855Z" fill="#A7AEB7"/>
<path d="M153.745 106.664L129.559 119.292L129.906 119.957L154.093 107.329L153.745 106.664Z" fill="#A7AEB7"/>
<path d="M218.202 50.7742L209.592 56.8365L210.024 57.4498L218.634 51.3875L218.202 50.7742Z" fill="#A7AEB7"/>
<path d="M200.192 63.4724L162.283 90.1152L162.715 90.7288L200.624 64.086L200.192 63.4724Z" fill="#A7AEB7"/>
<path d="M259.771 295.106L259.549 295.822L284.131 303.431L284.353 302.715L259.771 295.106Z" fill="#A7AEB7"/>
<path d="M246.976 291.135L246.754 291.851L255.509 294.561L255.731 293.845L246.976 291.135Z" fill="#A7AEB7"/>
<path d="M210.675 279.912L210.453 280.628L241.869 290.354L242.091 289.637L210.675 279.912Z" fill="#A7AEB7"/>
<path d="M199.828 276.546L199.607 277.263L207.029 279.561L207.251 278.844L199.828 276.546Z" fill="#A7AEB7"/>
<path d="M273.673 325.101L273.37 325.787L278.089 327.873L278.392 327.187L273.673 325.101Z" fill="#A7AEB7"/>
<path d="M246.757 313.172L246.454 313.858L269.523 324.056L269.826 323.37L246.757 313.172Z" fill="#A7AEB7"/>
<path d="M352.506 190.91L335.968 190.942L335.97 191.692L352.507 191.66L352.506 190.91Z" fill="#A7AEB7"/>
<path d="M323.294 190.951L301.101 190.994L301.103 191.744L323.295 191.701L323.294 190.951Z" fill="#A7AEB7"/>
<path d="M295.064 190.998L283.094 191.021L283.095 191.771L295.065 191.748L295.064 190.998Z" fill="#A7AEB7"/>
<path d="M287.502 94.1975L280.602 96.6422L280.853 97.3491L287.752 94.9045L287.502 94.1975Z" fill="#A7AEB7"/>
<path d="M276.765 97.9885L263.404 102.723L263.654 103.429L277.015 98.6954L276.765 97.9885Z" fill="#A7AEB7"/>
<path d="M255.58 105.471L235.432 112.609L235.683 113.316L255.83 106.178L255.58 105.471Z" fill="#A7AEB7"/>
<path d="M320.456 95.8668L297.921 101.829L298.113 102.554L320.648 96.5918L320.456 95.8668Z" fill="#A7AEB7"/>
<path d="M291.639 103.49L266.211 110.218L266.403 110.943L291.831 104.215L291.639 103.49Z" fill="#A7AEB7"/>
<path d="M129.074 255.411L128.813 256.115L134.177 258.107L134.438 257.404L129.074 255.411Z" fill="#A7AEB7"/>
<path d="M114.992 250.174L114.731 250.877L125.516 254.883L125.777 254.18L114.992 250.174Z" fill="#A7AEB7"/>
<path d="M104.215 246.209L103.954 246.912L110.372 249.298L110.634 248.595L104.215 246.209Z" fill="#A7AEB7"/>
<path d="M124.427 186.739L117.312 187.423L117.384 188.169L124.498 187.485L124.427 186.739Z" fill="#A7AEB7"/>
<path d="M108.334 188.28L85.265 190.497L85.3368 191.243L108.405 189.026L108.334 188.28Z" fill="#A7AEB7"/>
<path d="M119.905 172.421L102.726 176.327L102.892 177.058L120.071 173.152L119.905 172.421Z" fill="#A7AEB7"/>
<path d="M97.6576 177.477L88.8158 179.487L88.9821 180.218L97.8239 178.208L97.6576 177.477Z" fill="#A7AEB7"/>
<path d="M109.115 113.038L104.97 116.672L105.465 117.236L109.61 113.602L109.115 113.038Z" fill="#A7AEB7"/>
<path d="M103.005 118.39L93.7113 126.538L94.2057 127.102L103.5 118.954L103.005 118.39Z" fill="#A7AEB7"/>
<path d="M91.4537 128.524L87.5285 131.965L88.0229 132.529L91.9481 129.088L91.4537 128.524Z" fill="#A7AEB7"/>
<path d="M357.06 144.587L329.073 146.672L329.128 147.42L357.116 145.335L357.06 144.587Z" fill="#A7AEB7"/>
<path d="M342.466 275.174L342.277 275.9L352.003 278.432L352.192 277.706L342.466 275.174Z" fill="#A7AEB7"/>
<path d="M319.162 269.071L318.973 269.797L335.958 274.215L336.147 273.489L319.162 269.071Z" fill="#A7AEB7"/>
<path d="M177.995 330.111L177.555 330.718L186.716 337.363L187.157 336.755L177.995 330.111Z" fill="#A7AEB7"/>
<path d="M156.678 314.645L156.238 315.252L169.85 325.124L170.291 324.517L156.678 314.645Z" fill="#A7AEB7"/>
<path d="M177.858 27.4929L156.185 48.1171L156.702 48.6604L178.375 28.0362L177.858 27.4929Z" fill="#A7AEB7"/>
<path d="M286.002 13.2507L274.867 20.629L275.282 21.2542L286.416 13.8759L286.002 13.2507Z" fill="#A7AEB7"/>
<path d="M129.607 56.7525L128.85 51.0525L131.055 50.76C135.052 50.2275 139.02 51.915 141.397 55.17C142.485 56.655 144.3 57.4725 146.137 57.3L148.995 57.0375L149.527 62.76L146.67 63.0225C142.837 63.375 139.042 61.665 136.762 58.5675C135.622 57.015 133.725 56.205 131.812 56.46L129.607 56.7525Z" fill="#89C764"/>
<path d="M122.528 360.315L121.77 354.615L123.975 354.323C127.973 353.79 131.94 355.478 134.318 358.733C135.405 360.218 137.22 361.035 139.058 360.863L141.915 360.6L142.448 366.323L139.59 366.585C135.758 366.938 131.963 365.228 129.683 362.13C128.543 360.578 126.645 359.768 124.733 360.023L122.528 360.315Z" fill="#D9D9D9"/>
<path d="M338.46 197.738L337.703 192.038L339.908 191.745C343.905 191.213 347.873 192.9 350.25 196.155C351.338 197.64 353.153 198.458 354.99 198.285L357.848 198.023L358.38 203.745L355.523 204.008C351.69 204.36 347.895 202.65 345.615 199.553C344.475 198 342.578 197.19 340.665 197.445L338.46 197.738Z" fill="#89C764"/>
<path d="M295.545 301.83L294.787 296.13L296.992 295.837C300.99 295.305 304.957 296.992 307.335 300.247C308.422 301.732 310.237 302.55 312.075 302.377L314.932 302.115L315.465 307.837L312.607 308.1C308.775 308.452 304.98 306.742 302.7 303.645C301.56 302.092 299.662 301.282 297.75 301.537L295.545 301.83Z" fill="#D9D9D9"/>
<path d="M-3.495 230.28L-4.2525 224.58L-2.0475 224.287C1.95 223.755 5.9175 225.442 8.295 228.697C9.3825 230.182 11.1975 231 13.035 230.827L15.8925 230.565L16.425 236.287L13.5675 236.55C9.735 236.902 5.94 235.192 3.66 232.095C2.52 230.542 0.622498 229.732 -1.29 229.987L-3.495 230.28Z" fill="#89C764"/>
<path d="M342.87 30.855L342.112 25.155L344.317 24.8625C348.315 24.33 352.282 26.0175 354.66 29.2725C355.747 30.7575 357.563 31.575 359.4 31.4025L362.257 31.14L362.79 36.8625L359.932 37.125C356.1 37.4775 352.305 35.7675 350.025 32.67C348.885 31.1175 346.987 30.3075 345.075 30.5625L342.87 30.855Z" fill="#89C764"/>
<path d="M198.72 19.5375L202.5 15.2025L204.18 16.665C207.217 19.3125 208.567 23.4075 207.697 27.345C207.3 29.145 207.885 31.05 209.227 32.31L211.312 34.2825L207.367 38.46L205.282 36.4875C202.485 33.84 201.262 29.865 202.095 26.1075C202.507 24.225 201.862 22.26 200.407 21L198.727 19.5375H198.72Z" fill="#89C764"/>
<path d="M26.1825 339.968L29.9625 335.633L31.6425 337.095C34.68 339.743 36.03 343.838 35.16 347.775C34.7625 349.575 35.3475 351.48 36.69 352.74L38.775 354.713L34.83 358.89L32.745 356.918C29.9475 354.27 28.725 350.295 29.5575 346.538C29.97 344.655 29.325 342.69 27.87 341.43L26.19 339.968H26.1825Z" fill="#89C764"/>
<path d="M224.235 335.295L228.015 330.96L229.695 332.422C232.732 335.07 234.082 339.165 233.212 343.102C232.815 344.902 233.4 346.807 234.742 348.067L236.827 350.04L232.882 354.217L230.797 352.245C228 349.597 226.777 345.622 227.61 341.865C228.022 339.982 227.377 338.017 225.922 336.757L224.242 335.295H224.235Z" fill="#89C764"/>
<path d="M30.825 32.1525L36.5625 31.8225L36.69 34.0425C36.9225 38.07 34.935 41.895 31.515 44.025C29.955 45 29.0025 46.7475 29.0325 48.5925L29.085 51.465L23.34 51.5625L23.295 48.69C23.2275 44.8425 25.2225 41.1825 28.485 39.15C30.12 38.13 31.0725 36.3 30.96 34.3725L30.8325 32.1525H30.825Z" fill="#89C764"/>
<path d="M299.355 73.6499L305.093 73.3199L305.22 75.5399C305.453 79.5674 303.465 83.3924 300.045 85.5224C298.485 86.4974 297.533 88.2449 297.563 90.0899L297.615 92.9624L291.87 93.0599L291.825 90.1874C291.758 86.3399 293.753 82.6799 297.015 80.6474C298.65 79.6274 299.603 77.7974 299.49 75.8699L299.363 73.6499H299.355Z" fill="#D9D9D9"/>
<path d="M49.365 132.555L55.095 133.042L54.9075 135.262C54.5625 139.282 52.0575 142.785 48.3675 144.412C46.68 145.155 45.4875 146.752 45.2625 148.582L44.9025 151.432L39.2025 150.712L39.5625 147.862C40.0425 144.045 42.5325 140.707 46.0575 139.155C47.82 138.375 49.0275 136.702 49.185 134.775L49.3725 132.555H49.365Z" fill="#D9D9D9"/>
<path d="M88.5225 286.088L83.295 283.702L84.2175 281.678C85.89 278.01 89.43 275.55 93.45 275.258C95.2875 275.123 96.945 274.02 97.7775 272.378L99.075 269.812L104.205 272.407L102.907 274.973C101.167 278.408 97.7025 280.718 93.87 280.995C91.9425 281.138 90.255 282.315 89.4525 284.07L88.53 286.095L88.5225 286.088Z" fill="#89C764"/>
<path d="M298.11 19.9574L301.89 15.6224L303.57 17.0849C306.607 19.7324 307.957 23.8274 307.087 27.7649C306.69 29.5649 307.275 31.4699 308.617 32.7299L310.702 34.7024L306.757 38.8799L304.672 36.9074C301.875 34.2599 300.652 30.2849 301.485 26.5274C301.897 24.6449 301.252 22.6799 299.797 21.4199L298.117 19.9574H298.11Z" fill="#D9D9D9"/>
<path d="M96.2625 18.2625L100.043 13.9275L101.723 15.39C104.76 18.0375 106.11 22.1325 105.24 26.07C104.843 27.87 105.428 29.775 106.77 31.035L108.855 33.0075L104.91 37.185L102.825 35.2125C100.028 32.565 98.805 28.59 99.6375 24.8325C100.05 22.95 99.405 20.985 97.95 19.725L96.27 18.2625H96.2625Z" fill="#D9D9D9"/>
<path d="M348.045 337.725L353.782 337.395L353.91 339.615C354.142 343.643 352.155 347.468 348.735 349.598C347.175 350.573 346.222 352.32 346.252 354.165L346.305 357.038L340.56 357.135L340.515 354.263C340.447 350.415 342.442 346.755 345.705 344.723C347.34 343.703 348.292 341.873 348.18 339.945L348.052 337.725H348.045Z" fill="#89C764"/>
</g>
</g>
<defs>
<clipPath id="clip0_9161_22398">
<rect width="375" height="375" fill="white"/>
</clipPath>
</defs>
</svg>
