<svg width="375" height="375" viewBox="0 0 375 375" fill="none" xmlns="http://www.w3.org/2000/svg">
<g clip-path="url(#clip0_9161_2489)">
<mask id="mask0_9161_2489" style="mask-type:luminance" maskUnits="userSpaceOnUse" x="0" y="0" width="375" height="375">
<path d="M375 0H0V375H375V0Z" fill="white"/>
</mask>
<g mask="url(#mask0_9161_2489)">
<path d="M50.2767 58.3139L145.431 39.5936C155.731 37.5672 165.734 44.2811 167.76 54.581L215.42 296.836C217.446 307.135 210.733 317.138 200.433 319.164L105.278 337.885C94.6772 339.97 84.3808 333.059 82.2951 322.458L34.8523 81.3083C32.7666 70.707 39.6777 60.4107 50.2789 58.325L50.2767 58.3139Z" fill="#16254C"/>
<path d="M156.655 37.3928L64.681 55.4873C52.3981 57.9038 44.3998 69.8201 46.8163 82.103L93.067 317.193C95.4835 329.476 107.4 337.475 119.683 335.058L211.657 316.964C223.94 314.547 231.938 302.631 229.521 290.348L183.271 55.2575C180.854 42.9746 168.938 34.9763 156.655 37.3928Z" fill="#3472AF"/>
<path d="M118.223 327.506C110.114 329.098 102.21 323.798 100.617 315.689L54.3516 80.6073C52.7594 72.4983 58.0593 64.594 66.1683 63.0017L92.5993 57.7929L92.7472 58.5435C93.4182 61.9327 96.705 64.139 100.094 63.4794L131.382 57.3266C134.771 56.6555 136.977 53.3687 136.317 49.9795L136.17 49.2289L158.142 44.9072C166.251 43.3149 174.156 48.6148 175.748 56.7238L222.014 291.805C223.606 299.914 218.306 307.819 210.197 309.411L118.223 327.517V327.506Z" fill="white"/>
<path d="M115.3 328.359C112.241 328.359 109.249 327.449 106.656 325.709C103.199 323.389 100.856 319.874 100.06 315.791L53.7943 80.7096C52.9868 76.6381 53.8284 72.4869 56.1486 69.0408C58.4687 65.5834 61.983 63.2406 66.0659 62.4331L93.0656 57.1218L93.3272 58.4298C93.6229 59.9196 94.4759 61.2048 95.7383 62.0578C97.0007 62.9108 98.5133 63.2064 100.003 62.9221L131.291 56.7693C134.373 56.1665 136.386 53.164 135.772 50.0819L135.51 48.774L158.04 44.3385C162.112 43.5424 166.263 44.3726 169.72 46.6927C173.178 49.0128 175.52 52.5271 176.317 56.6101L222.582 291.692C224.243 300.108 218.738 308.308 210.322 309.968L118.348 328.074C117.336 328.268 116.324 328.37 115.323 328.37L115.3 328.359ZM92.1444 58.4525L66.2706 63.5476C62.4947 64.2869 59.2307 66.4592 57.0812 69.6664C54.9316 72.8736 54.1583 76.7177 54.8975 80.4822L101.163 315.564C101.902 319.34 104.075 322.604 107.282 324.753C110.489 326.903 114.333 327.676 118.098 326.937L210.072 308.831C217.874 307.296 222.98 299.698 221.445 291.885L175.179 56.8034C174.44 53.0275 172.268 49.7635 169.061 47.6139C165.853 45.4644 162.009 44.6911 158.245 45.4303L136.829 49.6497L136.863 49.8431C137.591 53.5393 135.18 57.1332 131.484 57.8611L100.197 64.0139C98.4109 64.3665 96.5913 64.0026 95.0786 62.979C93.566 61.9554 92.5311 60.42 92.1785 58.6345L92.1444 58.4411V58.4525Z" fill="#393B56"/>
<path d="M128.021 50.2123L101.542 55.4313L101.762 56.5471L128.241 51.3282L128.021 50.2123Z" fill="#393B56"/>
<path d="M111.763 88.7503C111.501 87.4197 110.648 86.7259 109.636 86.9193C108.59 87.124 108.09 88.1021 108.351 89.4213C108.613 90.7406 109.454 91.4457 110.489 91.241C111.524 91.0363 112.025 90.0696 111.763 88.7503ZM105.781 86.18L107.623 85.8161L107.691 86.1914L107.748 87.1126L107.953 87.0785C108.192 86.2369 108.84 85.4976 109.932 85.2815C111.604 84.9517 113.162 86.0777 113.617 88.3864C114.072 90.6951 113.06 92.3215 111.388 92.6513C110.296 92.8674 109.409 92.3783 108.874 91.7414L108.67 91.7756L108.977 92.7082L109.716 96.484L107.873 96.848L105.769 86.1914L105.781 86.18Z" fill="#89C764"/>
<path d="M119.508 88.0225L119.474 87.8177C118.029 88.1021 116.483 88.4205 116.676 89.4214C116.778 89.9218 117.256 90.1492 117.961 90.0014C119.076 89.7853 119.701 88.9892 119.519 88.0225M114.868 89.9331C114.413 87.6244 117.154 87.1695 119.258 86.7487L119.144 86.1914C118.985 85.3839 118.462 85.0882 117.631 85.2474C116.801 85.4067 116.346 85.8843 116.46 86.8852L114.674 87.1467C114.401 85.1337 115.664 84.0988 117.347 83.7576C119.133 83.405 120.611 83.9054 121.009 85.9639L121.896 90.4904L120.452 90.7748L120.065 89.5919L119.906 89.6261C119.713 90.5928 118.951 91.2183 117.711 91.4685C116.255 91.7528 115.107 91.1842 114.868 89.9331Z" fill="#89C764"/>
<path d="M127.23 86.4985L127.196 86.2938C125.752 86.5782 124.205 86.8966 124.399 87.8974C124.501 88.3979 124.979 88.6253 125.684 88.4775C126.798 88.2614 127.424 87.4653 127.242 86.4985M122.59 88.4092C122.135 86.1005 124.876 85.6456 126.98 85.2248L126.866 84.6675C126.707 83.86 126.184 83.5643 125.354 83.7235C124.524 83.8827 124.069 84.3604 124.182 85.3612L122.397 85.6228C122.124 83.6098 123.386 82.5748 125.07 82.2336C126.855 81.8811 128.334 82.3815 128.732 84.44L129.619 88.9665L128.174 89.2508L127.788 88.068L127.628 88.1022C127.435 89.0689 126.673 89.6944 125.433 89.9446C123.978 90.2289 122.829 89.6603 122.59 88.4092Z" fill="#89C764"/>
<path d="M130.301 86.6463L132.007 86.1345C132.303 86.7827 132.837 87.0216 133.781 86.8282C134.646 86.6576 135.089 86.2596 134.987 85.7137C134.919 85.3725 134.657 85.1223 133.838 85.1791L132.542 85.2815C131.347 85.3838 130.096 85.1223 129.835 83.7802C129.551 82.3131 130.551 81.1758 132.36 80.8119C134.236 80.4479 135.408 81.1076 135.806 82.5861L134.213 83.0182C134.009 82.3586 133.497 82.0629 132.621 82.2335C131.791 82.3927 131.438 82.859 131.541 83.3708C131.609 83.7461 131.927 83.9053 132.598 83.8712L133.941 83.7575C135.271 83.6779 136.465 83.9395 136.727 85.3042C137.011 86.76 136.124 87.8518 134.054 88.2499C131.984 88.6479 130.779 88.0451 130.301 86.6349" fill="#89C764"/>
<path d="M139.13 72.7727L99.7607 80.5181L100.062 82.0469L139.431 74.3015L139.13 72.7727Z" fill="#89C764"/>
<path d="M143.081 92.8107L103.712 100.556L104.013 102.085L143.382 94.3396L143.081 92.8107Z" fill="#89C764"/>
<path d="M159.735 302.303C167.561 302.303 173.905 295.958 173.905 288.132C173.905 280.306 167.561 273.961 159.735 273.961C151.908 273.961 145.564 280.306 145.564 288.132C145.564 295.958 151.908 302.303 159.735 302.303Z" fill="#89C764"/>
<path d="M158.813 293.853L153.161 289.519L154.093 288.291L158.29 291.51L163.624 281.217L164.989 281.922L158.813 293.853Z" fill="white"/>
<path d="M43.2856 309.741C7.23294 278.738 -6.98342 236.146 3.25236 189.812C7.64237 169.92 16.9342 151.348 30.127 136.074L32.8906 123.552C39.7145 92.6855 52.2704 65.6972 70.2285 43.3605L71.1156 44.077C53.2712 66.2772 40.7835 93.1063 33.9938 123.802L31.1733 136.608L31.0823 136.722C17.9578 151.871 8.72281 170.318 4.35555 190.062C-5.77787 235.975 8.30201 278.169 44.0249 308.888L43.2856 309.752V309.741Z" fill="#A7AEB7"/>
<path d="M346.265 320.352L345.366 319.658C356.125 305.669 363.688 289.065 367.828 270.31C372.332 249.941 371.74 229.811 366.099 210.499L366.054 210.363L368.84 197.75C377.995 156.261 374.572 115.978 358.923 81.2442C353.145 68.4154 346.048 56.6101 337.826 46.1583L338.724 45.4531C347.004 55.9846 354.146 67.8695 359.969 80.7779C375.721 115.739 379.167 156.272 369.955 198L367.225 210.329C372.889 229.788 373.458 250.055 368.931 270.561C364.757 289.474 357.126 306.238 346.265 320.363V320.352Z" fill="#A7AEB7"/>
<path d="M64.0415 301.575C27.5908 274.655 12.6807 236.43 22.0635 193.951C26.1236 175.55 35.0401 158.695 47.8462 145.195L51.7131 127.692C58.2753 98.0081 70.5697 72.4641 88.2548 51.7765L89.1192 52.5158C71.5477 73.0555 59.333 98.4289 52.8163 127.931L48.8812 145.741L48.7675 145.855C36.0523 159.218 27.2041 175.936 23.1666 194.19C13.8862 236.202 28.6371 274.018 64.7125 300.654L64.0415 301.564V301.575Z" fill="#A7AEB7"/>
<path d="M328.09 311.856L327.226 311.117C337.848 298.652 345.173 283.526 349.017 266.159C353.168 247.382 352.213 228.958 346.185 211.421L346.128 211.273L350.029 193.599C358.286 156.193 355.295 120.072 341.363 89.1485C335.403 75.9102 327.863 63.9685 318.946 53.6304L319.811 52.8911C328.796 63.3089 336.393 75.353 342.398 88.6936C356.432 119.844 359.446 156.204 351.132 193.849L347.3 211.216C353.35 228.912 354.294 247.485 350.12 266.421C346.242 283.969 338.827 299.266 328.09 311.868V311.856Z" fill="#A7AEB7"/>
<path d="M85.8892 293C48.8584 270.845 32.4471 236.259 40.8631 198.114C44.5594 181.361 53.0551 166.417 65.4176 154.885L70.5014 131.866C76.7225 103.717 88.5619 79.9134 105.69 61.1251C105.838 60.9659 105.985 60.8067 106.133 60.6474L106.44 60.3176L107.271 61.091L106.952 61.4208C106.804 61.58 106.656 61.7279 106.52 61.8871C89.5286 80.5276 77.7802 104.149 71.6046 132.105L66.4412 155.465L66.3161 155.59C54.0445 166.986 45.6285 181.771 41.9663 198.353C33.6526 235.998 49.8706 270.128 86.4578 292.021L85.8778 293H85.8892Z" fill="#A7AEB7"/>
<path d="M309.575 303.201L308.767 302.405C319.458 291.589 326.669 277.998 330.206 261.997C333.959 244.982 332.594 228.457 326.146 212.876L326.077 212.706L331.218 189.425C338.576 156.102 336.006 124.155 323.803 97.0413C317.65 83.3823 309.541 71.3382 299.703 61.2389L300.522 60.4427C310.451 70.633 318.628 82.7795 324.838 96.5637C337.155 123.905 339.736 156.09 332.333 189.652L327.271 212.581C333.754 228.332 335.119 245.039 331.32 262.213C327.738 278.419 320.425 292.203 309.575 303.167V303.201Z" fill="#A7AEB7"/>
<path d="M109.227 283.822C104.973 281.683 101.084 279.523 98.1835 277.874C66.9985 260.234 52.9755 232.677 59.6856 202.265C62.9724 187.389 70.9905 174.606 82.864 165.303L89.3352 136.017C94.8171 111.201 105.121 90.3655 119.94 74.102C121.498 72.396 123.182 70.6559 124.944 68.95L125.74 69.7688C124 71.4634 122.329 73.1694 120.793 74.864C106.099 90.9796 95.8975 111.633 90.4612 136.256L83.9103 165.94L83.7511 166.065C72.0027 175.22 64.0642 187.821 60.8229 202.504C54.2265 232.393 68.0562 259.495 98.7635 276.873C101.664 278.51 105.531 280.66 109.761 282.798L109.25 283.81L109.227 283.822Z" fill="#A7AEB7"/>
<path d="M290.389 294.273L289.684 293.386C300.852 284.481 308.153 272.517 311.395 257.857C314.704 242.878 312.873 228.491 305.958 215.105L305.867 214.923L312.407 185.285C318.867 156.045 316.729 128.272 306.231 104.968C299.851 90.8089 290.98 78.7534 279.857 69.1432L280.596 68.2788C291.844 78.0028 300.818 90.1834 307.266 104.502C317.866 128.033 320.016 156.045 313.51 185.524L307.05 214.764C314.011 228.344 315.842 242.913 312.498 258.096C309.2 273.028 301.762 285.198 290.377 294.273H290.389Z" fill="#A7AEB7"/>
<path d="M125.843 277.293C117.791 273.961 111.49 270.651 104.507 266.694C78.5763 252.022 66.8166 229.549 72.2301 205.029C75.1985 191.597 82.8412 180.463 94.3508 172.832L101.868 138.781C106.861 116.182 116.13 97.3371 129.425 82.7454C131.973 79.9476 134.691 77.2863 137.512 74.8184L138.262 75.6713C135.476 78.1052 132.78 80.7437 130.267 83.5074C117.108 97.9398 107.93 116.614 102.983 139.019L95.363 173.525L95.1697 173.65C83.808 181.123 76.2562 192.052 73.3447 205.268C68.0449 229.265 79.6113 251.283 105.076 265.693C112.013 269.628 118.28 272.915 126.286 276.224L125.854 277.271L125.843 277.293Z" fill="#A7AEB7"/>
<path d="M276.786 287.961L276.195 286.995C288 279.761 295.836 268.729 298.85 255.082C301.807 241.684 299.635 228.924 292.379 217.175L292.254 216.982L299.862 182.522C305.72 155.999 303.866 131.013 294.517 110.246C287.966 95.7108 278.39 83.7235 266.039 74.6364L266.71 73.7152C279.22 82.916 288.921 95.0511 295.552 109.768C305.003 130.751 306.88 155.988 300.966 182.749L293.459 216.754C300.784 228.719 302.967 241.684 299.953 255.309C296.871 269.253 288.865 280.535 276.786 287.939V287.961Z" fill="#A7AEB7"/>
<path d="M261.763 281.001L261.364 279.932C274.978 274.86 283.371 265.568 286.306 252.307C288.523 242.242 286.874 232.654 281.381 223.806C280.539 222.452 279.652 221.179 278.663 219.916L278.492 219.7L287.318 179.735C292.572 155.931 291.014 133.731 282.814 115.511C276.058 100.522 265.516 88.7163 251.458 80.4367L252.039 79.4586C266.3 87.8633 277.002 99.8278 283.86 115.045C292.163 133.492 293.755 155.943 288.444 179.985L279.732 219.427C280.687 220.655 281.54 221.895 282.359 223.214C288.012 232.324 289.718 242.196 287.432 252.557C284.418 266.216 275.786 275.781 261.785 281.001H261.763Z" fill="#A7AEB7"/>
<path d="M143.846 270.208C128.447 265.181 119.087 260.2 110.83 255.514C98.6839 248.633 79.1336 233.291 84.7633 207.793C87.3563 196.055 94.5896 186.809 105.69 181.032L114.413 141.544C118.917 121.164 127.162 104.297 138.922 91.4004C142.47 87.5108 146.36 83.9624 150.488 80.8689L151.171 81.7787C147.099 84.8381 143.255 88.3296 139.752 92.1737C128.129 104.923 119.974 121.619 115.516 141.806L106.679 181.816L106.44 181.941C95.5222 187.548 88.4027 196.579 85.8665 208.054C80.396 232.836 99.5028 247.814 111.388 254.536C119.599 259.187 128.902 264.146 144.199 269.139L143.846 270.219V270.208Z" fill="#A7AEB7"/>
<path d="M242.656 272.062L242.406 270.936H242.565C260.455 269.48 270.952 262.292 273.773 249.543C275.251 242.856 274.137 236.487 270.474 230.584C268.985 228.196 267.119 225.932 264.754 223.681L264.526 223.465L274.796 176.983C279.448 155.897 278.174 136.472 271.123 120.8C264.128 105.264 252.118 93.8455 235.445 86.8397L235.889 85.7933C252.835 92.9015 265.038 104.525 272.158 120.333C279.323 136.233 280.619 155.908 275.911 177.233L265.777 223.089C268.109 225.341 269.963 227.604 271.453 229.993C275.274 236.157 276.434 242.81 274.887 249.793C271.953 263.088 261.103 270.572 242.667 272.062H242.656Z" fill="#A7AEB7"/>
<path d="M163.408 262.508C139.263 256.242 127.753 250.339 117.154 244.346C101.049 235.236 94.3621 223.874 97.2964 210.579C99.4118 200.991 106.156 193.951 116.813 190.198L126.946 144.331C130.961 126.179 138.171 111.281 148.407 100.067C153.104 94.9033 158.404 90.5929 164.136 87.2264L164.716 88.2045C159.075 91.5141 153.877 95.7563 149.249 100.829C139.161 111.895 132.03 126.611 128.061 144.57L117.791 191.063L117.484 191.165C106.907 194.804 100.492 201.412 98.4109 210.818C95.5904 223.567 102.084 234.508 117.711 243.356C128.243 249.316 139.684 255.184 163.692 261.417L163.408 262.52V262.508Z" fill="#A7AEB7"/>
<path d="M230.1 266.273V265.136C234.729 265.079 238.732 264.794 242.053 264.533C247.558 264.089 264.287 262.736 267.506 248.167C270.076 236.532 261.467 229.208 257.782 226.08L257.52 225.864V225.455L268.518 175.607C272.874 155.886 271.748 137.848 265.254 123.438C258.1 107.55 245.078 96.4272 226.552 90.3881L226.904 89.3076C245.749 95.4491 258.999 106.777 266.289 122.972C272.874 137.609 274.034 155.886 269.621 175.845L258.68 225.364C262.604 228.708 271.282 236.293 268.598 248.417C265.197 263.816 247.831 265.215 242.133 265.67C238.8 265.943 234.763 266.216 230.089 266.284L230.1 266.273Z" fill="#A7AEB7"/>
<path d="M173.735 258.437C144.324 251.545 132.144 245.449 120.327 238.75C115.346 235.929 100.185 227.354 103.586 211.955C106.258 199.831 117.324 196.601 122.294 195.225L133.235 145.707C137 128.659 143.71 114.761 153.172 104.388C158.529 98.5199 164.682 93.8797 171.472 90.6156L171.961 91.6392C165.307 94.8464 159.257 99.3956 154.003 105.162C144.677 115.386 138.058 129.113 134.339 145.968L123.25 196.158L122.92 196.249L122.658 195.726L122.806 196.272C118.155 197.557 107.259 200.582 104.689 212.217C101.47 226.797 116.085 235.065 120.884 237.783C132.633 244.437 144.734 250.498 173.997 257.356L173.735 258.46V258.437Z" fill="#A7AEB7"/>
<path d="M228.348 259.858C224.095 259.858 219.728 259.642 214.985 259.199L215.087 258.062C219.796 258.494 224.129 258.71 228.348 258.71C233.421 258.71 237.856 258.403 241.53 258.107C246.762 257.686 259.033 256.697 261.228 246.757C262.968 238.898 257.111 233.916 253.619 230.948C252.755 230.209 251.959 229.617 251.265 229.094L250.287 228.355L262.252 174.196C266.3 155.84 265.322 139.19 259.408 126.054C252.061 109.756 237.686 99.0658 216.668 94.3005L216.919 93.1859C238.3 98.0422 252.948 108.938 260.443 125.576C266.46 138.94 267.472 155.829 263.366 174.435L251.561 227.889L251.959 228.184C252.641 228.696 253.483 229.322 254.37 230.084C258.066 233.223 264.242 238.477 262.354 247.007C259.977 257.766 247.125 258.801 241.632 259.244C237.936 259.54 233.466 259.847 228.36 259.847L228.348 259.858Z" fill="#A7AEB7"/>
<path d="M184.38 254.24C183.254 254.001 182.105 253.751 180.934 253.489C148.271 246.279 135.59 240.012 123.477 233.154C118.689 230.448 107.464 224.09 109.841 213.331C111.729 204.801 119.542 202.64 124.205 201.344C125.331 201.037 126.321 200.821 127.196 200.639L127.674 200.536L139.479 147.083C142.993 131.149 149.192 118.241 157.881 108.699C163.988 102.011 171.21 97.1436 179.365 94.2662L179.74 95.3353C171.767 98.1558 164.693 102.91 158.722 109.461C150.158 118.843 144.063 131.593 140.582 147.322L128.618 201.48L127.458 201.731C126.559 201.924 125.593 202.129 124.501 202.424C120.077 203.653 112.673 205.7 110.944 213.559C108.749 223.499 119.463 229.56 124.035 232.142C136.067 238.955 148.669 245.176 181.173 252.352C182.333 252.614 183.482 252.853 184.608 253.091L184.369 254.206L184.38 254.24Z" fill="#A7AEB7"/>
<path d="M249.821 235.418C246.568 232.654 243.577 231.573 244.362 228.025L256.531 172.945C263.275 142.409 257.088 109.222 214.871 99.9073C172.643 90.5814 153.07 118.07 146.326 148.607L134.157 203.687C133.372 207.246 130.21 206.951 126.093 208.099C121.794 209.294 117.643 210.511 116.687 214.855C115.721 219.211 119.44 222.85 126.946 227.092C138.535 233.655 150.818 239.694 182.469 246.677C214.121 253.671 227.802 253.364 241.075 252.295C249.662 251.601 254.563 249.873 255.53 245.517C256.485 241.161 253.233 238.306 249.844 235.429L249.821 235.418Z" fill="#89C764"/>
<path d="M243.625 194.644L238.681 217.021L239.791 217.266L244.736 194.889L243.625 194.644Z" fill="white"/>
<path d="M245.819 184.688L244.751 189.519L245.862 189.764L246.929 184.934L245.819 184.688Z" fill="white"/>
<path d="M248.706 176.971L247.592 176.721L248.809 171.228C249.207 169.454 249.548 167.668 249.832 165.917L250.958 166.099C250.674 167.862 250.321 169.67 249.923 171.467L248.706 176.96V176.971Z" fill="white"/>
<path d="M251.982 156.523L250.844 156.466C251.322 146.992 249.969 138.655 246.841 131.718C244.475 126.452 240.984 121.903 236.492 118.195L237.219 117.32C241.848 121.141 245.431 125.827 247.876 131.252C251.083 138.36 252.459 146.867 251.97 156.523H251.982Z" fill="white"/>
<path d="M251.788 242.549C251.527 239.978 248.377 236.885 242.679 233.587L243.247 232.597C249.366 236.134 252.619 239.444 252.914 242.435L251.788 242.549Z" fill="white"/>
<path d="M235.411 229.891C232.795 228.696 229.85 227.457 226.665 226.228L227.075 225.171C230.282 226.41 233.25 227.65 235.889 228.856L235.411 229.891Z" fill="white"/>
<path d="M223.412 225C217.521 222.839 210.822 220.655 203.487 218.517L203.805 217.425C211.164 219.575 217.885 221.77 223.799 223.931L223.412 225Z" fill="white"/>
<path d="M231.089 248.861C229.827 248.861 228.576 248.838 227.359 248.792C215.326 248.394 199.688 246.177 183.357 242.571C153.081 235.884 122.738 224.511 124.387 217.062C125.331 212.797 135.908 212.239 144.62 212.535C156.653 212.933 172.291 215.151 188.622 218.756C204.965 222.361 220.069 226.945 231.158 231.642C239.176 235.042 248.536 240.001 247.603 244.266C246.796 247.939 238.857 248.861 231.112 248.861H231.089ZM140.946 213.616C131.7 213.616 126.013 214.946 125.49 217.312C124.342 222.532 147.418 233.484 183.595 241.468C199.87 245.062 215.429 247.257 227.393 247.667C238.743 248.042 245.886 246.688 246.477 244.027C247.069 241.377 241.166 237.135 230.703 232.7C219.682 228.025 204.647 223.465 188.372 219.871C172.097 216.277 156.539 214.082 144.574 213.672C143.312 213.627 142.106 213.604 140.958 213.604L140.946 213.616Z" fill="#192548"/>
<path d="M165.398 215.083C163.044 214.741 160.758 214.446 158.552 214.196L152.74 224.704C150.773 224.829 148.896 225.921 147.872 227.775C146.269 230.664 147.327 234.303 150.215 235.907C153.104 237.51 156.743 236.453 158.347 233.564C159.371 231.71 159.302 229.549 158.358 227.809L165.398 215.071V215.083Z" fill="#89C764"/>
<path d="M153.093 237.237C152.001 237.237 150.92 236.964 149.931 236.419C148.396 235.577 147.292 234.178 146.803 232.495C146.314 230.812 146.519 229.049 147.372 227.513C148.407 225.637 150.261 224.409 152.388 224.181L158.233 213.604L158.609 213.65C160.815 213.9 163.124 214.196 165.467 214.537L165.956 214.605V215.094C165.956 215.193 163.636 219.442 158.995 227.843C159.928 229.765 159.871 231.994 158.836 233.86C157.983 235.395 156.596 236.498 154.912 236.987C154.31 237.158 153.696 237.249 153.093 237.249V237.237ZM158.859 214.81L153.081 225.262L152.774 225.284C150.909 225.398 149.271 226.444 148.373 228.059C147.668 229.322 147.509 230.789 147.907 232.176C148.305 233.564 149.226 234.713 150.488 235.418C151.751 236.123 153.218 236.282 154.605 235.884C155.993 235.486 157.142 234.565 157.847 233.302C158.745 231.676 158.745 229.731 157.847 228.093L157.699 227.82L157.847 227.548C157.847 227.548 162.999 218.233 164.489 215.538C162.567 215.265 160.679 215.026 158.848 214.81H158.859Z" fill="#192548"/>
<path d="M241.53 229.288C228.872 222.725 211.812 216.789 192.205 212.114C172.165 207.349 152.274 205.097 136.17 205.757L136.124 204.619C152.319 203.948 172.325 206.212 192.466 211.011C212.164 215.697 229.315 221.668 242.053 228.275L241.53 229.288Z" fill="#192548"/>
<path d="M152.968 235.452V234.315C154.981 234.315 156.607 232.677 156.607 230.675H157.744C157.744 233.314 155.606 235.452 152.968 235.452Z" fill="white"/>
<path d="M214.86 90.2175C209.515 90.2175 205.181 94.5507 205.181 99.896C205.181 105.241 209.515 109.575 214.86 109.575C220.205 109.575 224.538 105.241 224.538 99.896C224.538 94.5507 220.205 90.2175 214.86 90.2175ZM214.86 104.661C212.233 104.661 210.106 102.535 210.106 99.9074C210.106 97.2802 212.233 95.1534 214.86 95.1534C217.487 95.1534 219.614 97.2802 219.614 99.9074C219.614 102.535 217.487 104.661 214.86 104.661Z" fill="#89C764"/>
<path d="M210.151 99.2478C207.365 98.7474 205.352 98.6223 205.329 98.6223L205.397 97.485C205.477 97.485 207.49 97.6101 210.356 98.1333L210.151 99.2478Z" fill="#192548"/>
<path d="M224.049 102.751C221.24 101.693 219.443 101.295 219.432 101.295L219.671 100.18C219.75 100.192 221.559 100.59 224.459 101.682L224.061 102.751H224.049Z" fill="#192548"/>
</g>
</g>
<defs>
<clipPath id="clip0_9161_2489">
<rect width="375" height="375" fill="white"/>
</clipPath>
</defs>
</svg>
