<svg width="375" height="375" viewBox="0 0 375 375" fill="none" xmlns="http://www.w3.org/2000/svg">
<g clip-path="url(#clip0_9161_2753)">
<mask id="mask0_9161_2753" style="mask-type:luminance" maskUnits="userSpaceOnUse" x="0" y="0" width="375" height="375">
<path d="M375 0H0V375H375V0Z" fill="white"/>
</mask>
<g mask="url(#mask0_9161_2753)">
<path d="M84.9526 346.545C60.2401 346.545 36.2101 337.62 17.2876 321.412C-1.63491 305.205 -14.1449 282.825 -17.9399 258.405L-26.8799 200.865C-31.1474 173.392 -24.4649 145.89 -8.05491 123.435C8.36259 100.972 32.5351 86.25 60.0076 81.9825L160.56 66.3525C165.848 65.535 171.233 65.115 176.55 65.115C201.263 65.115 225.293 74.04 244.215 90.2475C263.138 106.455 275.648 128.835 279.443 153.255L288.39 210.795C297.21 267.525 258.225 320.857 201.495 329.677L100.95 345.307C95.6626 346.125 90.2851 346.545 84.9601 346.545H84.9526ZM176.55 65.865C171.27 65.865 165.923 66.2775 160.673 67.095L60.1201 82.725C32.8426 86.97 8.84259 101.58 -7.45491 123.877C-23.7449 146.167 -30.3824 173.467 -26.1449 200.752L-17.1974 258.292C-13.4324 282.532 -1.01241 304.747 17.7751 320.842C36.5626 336.937 60.4201 345.795 84.9526 345.795C90.2401 345.795 95.5801 345.382 100.83 344.565L201.375 328.935C257.7 320.175 296.4 267.232 287.64 210.907L278.693 153.367C274.928 129.127 262.508 106.912 243.72 90.8175C224.933 74.7225 201.075 65.865 176.543 65.865H176.55Z" fill="#89C764"/>
<path d="M84.5026 295.132C58.9351 295.132 36.69 276.082 32.7675 250.815L23.7375 192.705C21.5925 178.897 24.9525 165.067 33.2025 153.772C41.46 142.477 53.61 135.075 67.425 132.93L168.96 117.15C171.615 116.737 174.323 116.527 177 116.527C202.568 116.527 224.813 135.577 228.735 160.845L237.765 218.955C242.198 247.477 222.6 274.297 194.078 278.73L92.5426 294.51C89.8876 294.922 87.1801 295.132 84.5026 295.132ZM177 117.277C174.36 117.277 171.698 117.48 169.073 117.892L67.5375 133.672C53.925 135.787 41.9475 143.085 33.81 154.215C25.6725 165.345 22.365 178.972 24.48 192.585L33.51 250.695C37.38 275.595 59.3026 294.375 84.5026 294.375C87.1426 294.375 89.805 294.172 92.43 293.76L193.965 277.98C222.083 273.607 241.403 247.177 237.03 219.06L228 160.95C224.13 136.05 202.208 117.27 177.008 117.27L177 117.277Z" fill="#89C764"/>
<path d="M85.725 267.09C73.3725 267.09 62.6325 257.887 60.7425 245.685L51.945 189.098C50.91 182.43 52.5375 175.755 56.52 170.295C60.51 164.842 66.375 161.265 73.0425 160.23L171.908 144.862C173.19 144.66 174.495 144.562 175.785 144.562C188.138 144.562 198.878 153.765 200.768 165.967L209.565 222.548C211.703 236.325 202.238 249.278 188.468 251.415L89.61 266.782C88.3275 266.977 87.0225 267.082 85.7325 267.082L85.725 267.09ZM175.785 145.32C174.533 145.32 173.265 145.417 172.02 145.612L73.1625 160.98C66.6975 161.985 60.9975 165.458 57.1275 170.745C53.2575 176.04 51.6825 182.52 52.6875 188.985L61.485 245.572C63.3225 257.415 73.7475 266.34 85.7325 266.34C86.985 266.34 88.2525 266.243 89.4975 266.048L188.355 250.68C201.72 248.602 210.908 236.033 208.83 222.668L200.033 166.087C198.195 154.245 187.77 145.32 175.785 145.32Z" fill="#89C764"/>
<path d="M84.9525 255.06C78.78 255.06 73.41 250.463 72.465 244.365L63.5175 186.818C63 183.488 63.81 180.15 65.805 177.42C67.8 174.69 70.7325 172.905 74.0625 172.388L174.607 156.758C175.245 156.66 175.897 156.608 176.55 156.608C182.722 156.608 188.092 161.205 189.037 167.303L197.985 224.85C199.057 231.735 194.325 238.208 187.44 239.28L86.895 254.91C86.2575 255.008 85.605 255.06 84.9525 255.06ZM176.55 157.35C175.942 157.35 175.327 157.395 174.727 157.493L74.1825 173.123C71.0475 173.61 68.295 175.29 66.4125 177.855C64.5375 180.42 63.7725 183.563 64.26 186.69L73.2075 244.238C74.1 249.975 79.1475 254.303 84.96 254.303C85.5675 254.303 86.1825 254.258 86.7825 254.16L187.327 238.53C193.807 237.525 198.255 231.435 197.25 224.955L188.302 167.408C187.41 161.67 182.362 157.343 176.55 157.343V157.35Z" fill="#89C764"/>
<path d="M347.73 375C348.27 348.255 339.36 298.695 329.768 260.625C297.353 263.28 247.53 265.905 247.53 265.905C247.53 265.905 252.068 329.7 250.62 374.992H347.73V375Z" fill="#192548"/>
<path d="M348.098 375.375H250.238L250.253 374.985C251.678 330.232 247.208 266.572 247.163 265.935L247.133 265.552L247.515 265.53C248.01 265.507 297.705 262.867 329.738 260.25L330.053 260.227L330.128 260.535C339.473 297.63 348.66 347.415 348.105 375.007V375.375H348.098ZM251.01 374.625H347.363C347.67 355.282 342.233 311.707 329.483 261.022C298.92 263.52 252.615 266.01 247.935 266.257C248.303 271.612 252.345 331.657 251.018 374.617L251.01 374.625Z" fill="white"/>
<path d="M314.145 292.02C350.063 290.73 360.495 238.417 355.583 207.832C350.678 177.247 343.388 156.405 343.388 156.405H343.343C350.138 106.905 340.26 47.9999 339.818 45.4199C337.965 34.5974 327.698 27.3299 316.875 29.1749C306.075 31.0199 298.778 41.2949 300.615 52.1174C300.72 52.7099 310.613 111.915 303.225 155.782C303.135 156.337 303.165 156.877 303.113 157.425L302.37 157.447C302.243 99.2174 272.49 26.0849 271.155 22.8524C266.978 12.6974 255.345 7.79243 245.213 12.0224C235.058 16.1924 230.205 27.8099 234.368 37.9649C234.668 38.6849 262.965 108.322 262.613 158.46L261.9 158.475C247.365 93.3299 212.19 37.8674 210.848 35.2349C205.868 25.4474 193.913 21.5624 184.11 26.5349C174.323 31.5149 170.423 43.4849 175.403 53.2724C175.568 53.5874 215.49 124.507 229.5 168.967L228.66 169.477C216.443 153.862 190.065 124.74 147.84 137.505L116.55 147.015C106.005 150.082 99.9376 161.107 102.998 171.652C106.035 182.115 116.918 188.167 127.388 185.272L127.635 185.205L159.218 175.725L159.383 175.68C175.778 171.142 196.118 180.135 206.633 198C211.41 206.107 215.123 234.292 186.083 235.95C157.808 237.562 136.568 238.852 131.595 238.485C120.653 237.547 111.023 245.647 110.078 256.59C109.14 267.532 117.24 277.162 128.183 278.107C132.675 278.49 156.083 278.28 170.438 276.735C203.228 274.05 246.18 302.79 277.508 295.552" fill="#192548"/>
<path d="M266.64 297.082C252.293 297.082 236.258 291.967 220.643 286.987C203.475 281.512 185.723 275.85 170.513 277.095C156.098 278.64 132.818 278.857 128.198 278.46C117.068 277.5 108.795 267.667 109.748 256.537C110.708 245.407 120.54 237.127 131.67 238.087C136.11 238.41 153.548 237.412 177.675 236.032L186.105 235.552C196.155 234.982 203.115 231.202 206.79 224.325C211.823 214.905 208.988 202.642 206.355 198.165C196.223 180.96 176.093 171.435 159.525 176.017L159.36 176.062L127.53 185.61C116.903 188.55 105.758 182.325 102.683 171.735C99.5701 161.01 105.758 149.745 116.49 146.632L147.773 137.13C166.215 131.557 183.698 133.365 199.733 142.507C213.105 150.127 222.698 161.197 228.795 168.967L229.095 168.78C216.188 128.01 182.018 65.82 175.283 53.7375C175.17 53.5425 175.118 53.4375 175.11 53.4225C170.048 43.4625 174.023 31.245 183.983 26.1825C193.943 21.1275 206.16 25.1025 211.223 35.0475C211.335 35.265 211.718 35.91 212.295 36.8925C235.92 76.74 253.65 119.767 262.238 158.077H262.283C262.5 107.835 234.345 38.7825 234.06 38.085C229.823 27.75 234.78 15.8925 245.108 11.655C250.065 9.58498 255.54 9.57748 260.52 11.64C265.553 13.725 269.468 17.6475 271.538 22.6875C272.805 25.77 302.52 98.745 302.775 157.042H302.79C302.79 156.952 302.79 156.862 302.798 156.772C302.805 156.427 302.82 156.067 302.88 155.7C310.29 111.682 300.375 52.7475 300.27 52.155C298.403 41.145 305.828 30.66 316.838 28.785C327.848 26.91 338.333 34.335 340.215 45.3375C340.643 47.82 350.528 106.687 343.77 156.255C343.845 156.465 351.12 177.48 355.98 207.75C357.75 218.79 357.443 232.162 355.14 244.44C352.493 258.54 347.49 270.382 340.665 278.685C333.51 287.392 324.6 291.997 314.183 292.372L314.153 291.622C324.338 291.255 333.06 286.74 340.08 278.205C351.075 264.825 359.813 236.37 355.238 207.862C350.685 179.475 343.995 159.247 343.148 156.757H342.983L342.998 156.322C349.785 106.83 339.9 47.9325 339.473 45.45C337.665 34.86 327.563 27.705 316.965 29.5125C306.368 31.32 299.213 41.4225 301.013 52.02C301.11 52.6125 311.055 111.675 303.623 155.812C303.57 156.127 303.563 156.45 303.548 156.787C303.548 156.997 303.533 157.215 303.518 157.432L303.488 157.77L302.025 157.807V157.425C301.898 99.21 272.108 26.055 270.84 22.9725C268.845 18.12 265.073 14.34 260.228 12.33C255.435 10.3425 250.163 10.35 245.393 12.345C235.448 16.425 230.67 27.8475 234.75 37.8C235.035 38.4975 263.378 108.022 263.025 158.445V158.805L261.638 158.842L261.57 158.542C253.028 120.232 235.29 77.16 211.643 37.275C211.035 36.2475 210.668 35.6325 210.548 35.3925C205.673 25.815 193.905 21.9825 184.313 26.8575C174.728 31.7325 170.895 43.5075 175.77 53.0925L175.928 53.385C182.678 65.505 217.02 128.01 229.883 168.847L229.973 169.125L228.6 169.965L228.398 169.702C222.345 161.97 212.753 150.81 199.35 143.167C183.495 134.13 166.208 132.345 147.975 137.857L116.685 147.367C106.35 150.367 100.388 161.212 103.388 171.54C106.35 181.74 117.075 187.732 127.32 184.905L127.568 184.837L159.323 175.312C176.198 170.64 196.695 180.315 206.993 197.805C209.7 202.402 212.618 215.017 207.443 224.692C203.64 231.817 196.47 235.725 186.143 236.31L177.713 236.79C153.555 238.177 136.095 239.175 131.603 238.845C120.885 237.922 111.413 245.895 110.49 256.612C109.568 267.33 117.54 276.802 128.258 277.717C132.863 278.115 156.053 277.89 170.438 276.352C185.813 275.092 203.633 280.777 220.868 286.275C240.518 292.537 260.835 299.017 277.463 295.177L277.628 295.905C274.11 296.715 270.428 297.075 266.633 297.075L266.64 297.082Z" fill="white"/>
<path d="M210.495 189.87L209.887 189.427C210.037 189.217 225.457 168.262 254.917 161.452C290.557 153.217 319.68 161.377 319.972 161.452L319.762 162.172C319.477 162.09 290.52 153.982 255.082 162.172C225.892 168.922 210.645 189.645 210.495 189.855V189.87Z" fill="white"/>
<path d="M330.99 212.205C288.465 192.045 243.863 204.96 243.413 205.087L243.195 204.367C243.645 204.232 288.518 191.235 331.305 211.522L330.983 212.197L330.99 212.205Z" fill="white"/>
<path d="M247.77 56.5875L247.725 55.8375C247.808 55.8375 256.103 55.2975 265.935 50.2875L266.273 50.955C256.29 56.04 247.845 56.58 247.763 56.58L247.77 56.5875Z" fill="white"/>
<path d="M259.77 102.082C259.582 102.082 259.485 102.082 259.47 102.082L259.492 101.332C259.575 101.332 267.885 101.557 278.13 97.4624L278.407 98.1599C269.092 101.88 261.345 102.082 259.762 102.082H259.77Z" fill="white"/>
<path d="M194.182 77.52L194.01 76.7925C194.093 76.77 202.162 74.79 210.967 68.1375L211.418 68.7375C202.478 75.495 194.265 77.505 194.182 77.5275V77.52Z" fill="white"/>
<path d="M213.923 121.852L213.75 121.125C213.832 121.102 221.903 119.122 230.708 112.47L231.158 113.07C222.218 119.827 214.005 121.837 213.923 121.86V121.852Z" fill="white"/>
<path d="M316.395 69.78C311.805 69.78 308.925 69.2025 308.873 69.195L309.023 68.46C309.105 68.475 317.25 70.1025 328.05 67.8L328.208 68.535C323.685 69.5025 319.62 69.7875 316.395 69.7875V69.78Z" fill="white"/>
<path d="M320.37 109.807C314.73 109.807 311.107 108.96 311.055 108.945L311.227 108.217C311.31 108.24 319.402 110.13 330.262 108.18L330.397 108.915C326.67 109.582 323.257 109.807 320.37 109.807Z" fill="white"/>
<path d="M295.252 335.767L294.502 335.737C294.93 324.465 293.437 307.515 293.422 307.342L294.172 307.275C294.187 307.447 295.68 324.45 295.252 335.767Z" fill="white"/>
<path d="M185.535 233.108L84.9901 248.737C82.1026 249.187 79.3651 247.193 78.9226 244.298L69.9751 186.75C69.7651 185.4 70.2901 183.563 71.7151 181.748C72.6076 180.608 72.8776 180.923 74.4151 180.683L174.96 165.053C177.848 164.603 180.585 166.598 181.028 169.493L189.975 227.04C190.2 228.488 190.373 228.885 189.683 230.063C189.068 231.113 187.59 232.793 185.543 233.108H185.535Z" fill="#8A9AA7"/>
<path d="M174.388 164.179L76.5566 179.394C72.9057 179.962 70.4063 183.382 70.9741 187.033L79.502 241.866C80.0698 245.517 83.4897 248.016 87.1406 247.448L184.972 232.233C188.623 231.665 191.122 228.246 190.554 224.595L182.027 169.761C181.459 166.11 178.039 163.611 174.388 164.179Z" fill="#CDCECF"/>
<path d="M183.135 214.178L180.87 214.53L179.333 204.66L178.92 204.72L180.45 214.598L173.28 215.715L171.743 205.838L171.323 205.905L172.86 215.775L165.69 216.893L164.153 207.015L163.733 207.083L165.27 216.96L158.1 218.07L156.563 208.2L156.143 208.26L157.68 218.138L155.415 218.49L155.475 218.91L157.748 218.558L159.278 228.428L159.698 228.368L158.16 218.49L165.338 217.373L166.868 227.25L167.288 227.183L165.75 217.313L172.928 216.195L174.458 226.073L174.878 226.005L173.34 216.128L180.518 215.018L182.055 224.888L182.468 224.828L180.93 214.95L183.203 214.598L183.135 214.178Z" fill="#758089"/>
<path d="M169.935 219.772L168.39 220.012L169.125 224.745L169.545 224.677L169.267 222.9L170.392 222.727C171.202 222.6 171.765 221.835 171.637 221.025C171.51 220.215 170.745 219.652 169.935 219.78V219.772ZM170.325 222.307L169.2 222.48L168.87 220.365L169.995 220.192C170.58 220.102 171.127 220.5 171.217 221.085C171.307 221.67 170.91 222.217 170.325 222.307Z" fill="#758089"/>
<path d="M175.133 210.427L176.258 210.255C177.068 210.127 177.63 209.362 177.503 208.552C177.375 207.742 176.61 207.18 175.8 207.307L174.255 207.547L174.99 212.28L175.41 212.212L175.133 210.435V210.427ZM174.743 207.892L175.868 207.72C176.453 207.63 177 208.027 177.09 208.612C177.18 209.197 176.783 209.745 176.198 209.835L175.073 210.007L174.743 207.892Z" fill="#758089"/>
<path d="M161.07 216.045L161.827 215.925C162.93 215.752 163.53 215.077 163.395 214.17L162.69 209.632C162.517 208.537 161.49 207.78 160.395 207.952L160.027 208.012C158.932 208.185 158.175 209.212 158.347 210.315L159.052 214.852C159.195 215.767 159.967 216.225 161.077 216.052L161.07 216.045ZM158.752 210.247C158.617 209.377 159.21 208.56 160.08 208.425L160.447 208.365C161.317 208.23 162.127 208.83 162.262 209.7L162.967 214.237C163.117 215.197 162.165 215.452 161.752 215.512L160.995 215.632C160.582 215.7 159.6 215.745 159.45 214.785L158.745 210.247H158.752Z" fill="#758089"/>
<path d="M160.597 210.525C161.182 210.435 161.475 210.57 161.475 210.57L161.572 210.382L161.67 210.195C161.632 210.172 161.257 210 160.537 210.112C159.9 210.21 159.517 210.54 159.502 210.555L159.78 210.87C159.78 210.87 160.102 210.607 160.605 210.525H160.597Z" fill="#758089"/>
<path d="M161.85 213.385L160.294 213.627L160.358 214.042L161.915 213.8L161.85 213.385Z" fill="#758089"/>
<path d="M168.855 214.838L169.222 214.778C170.317 214.605 171.075 213.578 170.902 212.475L170.197 207.938C170.055 207.023 169.282 206.565 168.172 206.738L167.415 206.858C166.312 207.03 165.712 207.705 165.847 208.613L166.552 213.15C166.725 214.245 167.752 215.003 168.847 214.83L168.855 214.838ZM166.267 208.553C166.117 207.593 167.07 207.338 167.482 207.278L168.24 207.158C168.652 207.09 169.635 207.045 169.785 208.005L170.49 212.543C170.625 213.413 170.032 214.23 169.162 214.365L168.795 214.425C167.925 214.56 167.115 213.96 166.98 213.09L166.275 208.553H166.267Z" fill="#758089"/>
<path d="M169.748 212.235L169.47 211.92C169.47 211.92 169.148 212.183 168.645 212.265C168.06 212.355 167.767 212.22 167.767 212.22L167.573 212.595C167.61 212.618 167.985 212.79 168.705 212.678C169.342 212.58 169.725 212.25 169.74 212.235H169.748Z" fill="#758089"/>
<path d="M168.902 208.719L167.346 208.961L167.41 209.376L168.967 209.134L168.902 208.719Z" fill="#758089"/>
<path d="M177.345 217.043L176.977 217.103C175.882 217.275 175.125 218.303 175.297 219.405L176.002 223.943C176.145 224.858 176.917 225.315 178.027 225.143L178.785 225.023C179.887 224.85 180.487 224.175 180.352 223.268L179.647 218.73C179.475 217.635 178.447 216.878 177.352 217.05L177.345 217.043ZM179.932 223.335C180.082 224.295 179.13 224.55 178.717 224.61L177.96 224.73C177.547 224.798 176.565 224.843 176.415 223.883L175.71 219.345C175.575 218.475 176.167 217.658 177.037 217.523L177.405 217.463C178.275 217.328 179.085 217.928 179.22 218.798L179.925 223.335H179.932Z" fill="#758089"/>
<path d="M176.46 219.653L176.737 219.968C176.737 219.968 177.06 219.705 177.562 219.622C178.147 219.532 178.44 219.668 178.44 219.668L178.635 219.293C178.597 219.27 178.222 219.098 177.502 219.21C176.865 219.308 176.482 219.638 176.467 219.653H176.46Z" fill="#758089"/>
<path d="M178.819 222.475L177.263 222.717L177.328 223.132L178.884 222.89L178.819 222.475Z" fill="#758089"/>
<path d="M162.36 219.375L161.602 219.495C160.492 219.667 159.892 220.342 160.035 221.25L160.74 225.787C160.912 226.882 161.94 227.64 163.035 227.467L163.402 227.407C164.497 227.235 165.255 226.207 165.082 225.105L164.377 220.567C164.235 219.652 163.462 219.195 162.352 219.367L162.36 219.375ZM164.67 225.18C164.805 226.05 164.212 226.867 163.342 227.002L162.975 227.062C162.105 227.197 161.295 226.597 161.16 225.727L160.455 221.19C160.305 220.23 161.257 219.975 161.67 219.915L162.427 219.795C162.84 219.727 163.822 219.682 163.972 220.642L164.677 225.18H164.67Z" fill="#758089"/>
<path d="M162.833 224.895C162.248 224.985 161.955 224.85 161.955 224.85L161.76 225.225C161.798 225.248 162.173 225.42 162.893 225.308C163.53 225.21 163.913 224.88 163.928 224.865L163.65 224.55C163.65 224.55 163.328 224.813 162.825 224.895H162.833Z" fill="#758089"/>
<path d="M163.091 221.357L161.534 221.599L161.599 222.014L163.155 221.772L163.091 221.357Z" fill="#758089"/>
<g opacity="0.6">
<path d="M125.887 241.44L98.2424 245.737L118.485 172.882L146.13 168.585L125.887 241.44Z" fill="#DFDFDF"/>
</g>
<g opacity="0.6">
<path d="M140.91 239.108L130.988 240.645L151.23 167.798L161.153 166.253L140.91 239.108Z" fill="#DFDFDF"/>
</g>
<path d="M83.595 188.857C84.6075 188.737 85.35 189.202 85.47 189.975C85.635 191.062 84.9975 191.842 83.865 192.022L79.9425 192.63L78.9825 186.435L82.515 185.887C83.7975 185.685 84.6225 186.187 84.7725 187.17C84.8925 187.92 84.45 188.61 83.5875 188.842V188.865L83.595 188.857ZM80.955 188.61L82.74 188.332C83.085 188.28 83.235 188.062 83.175 187.702C83.13 187.395 82.8525 187.267 82.5 187.327L80.79 187.59L80.9475 188.61H80.955ZM83.7525 190.02C83.7 189.69 83.4525 189.562 83.0175 189.63L81.1575 189.922L81.3225 190.965L83.2275 190.672C83.6325 190.612 83.8125 190.395 83.7525 190.027V190.02Z" fill="#192548"/>
<path d="M85.725 188.572C85.4175 186.6 86.76 185.13 88.8375 184.807C90.9375 184.477 92.6325 185.497 92.94 187.455C93.2475 189.412 91.8975 190.86 89.8275 191.182C87.7275 191.512 86.025 190.515 85.725 188.572ZM91.2525 187.695C91.0425 186.33 90.4125 186.067 89.0625 186.277C87.72 186.487 87.1875 186.93 87.3975 188.295C87.615 189.712 88.245 189.922 89.595 189.712C90.9375 189.502 91.44 188.91 91.2525 187.695Z" fill="#192548"/>
<path d="M93.405 184.185L95.5725 183.847L98.385 186.825L98.955 187.455H98.9925L98.88 186.765L98.355 183.412L99.9675 183.165L100.928 189.36L98.85 189.682L95.97 186.592L95.355 185.917H95.3175L95.445 186.675L95.985 190.125L94.3725 190.372L93.4125 184.177L93.405 184.185Z" fill="#192548"/>
<path d="M107.655 181.965L108.21 185.527C108.488 187.297 107.438 188.437 105.428 188.752C103.403 189.067 102.06 188.302 101.783 186.525L101.228 182.962L102.848 182.707L103.418 186.39C103.568 187.357 104.093 187.447 105.195 187.275C106.328 187.102 106.763 186.84 106.613 185.895L106.043 182.212L107.655 181.965Z" fill="#192548"/>
<path d="M109.17 186.187L110.715 185.527C110.947 186.262 111.502 186.412 112.357 186.277C113.13 186.157 113.52 185.977 113.46 185.595C113.407 185.302 113.175 185.265 112.402 185.257L111.097 185.242C110.01 185.227 109.095 184.687 108.907 183.63C108.69 182.37 109.86 181.522 111.3 181.297C113.07 181.02 114.09 181.492 114.457 182.692L113.025 183.337C112.83 182.587 112.342 182.557 111.525 182.685C110.805 182.797 110.475 183.015 110.527 183.33C110.587 183.675 110.857 183.697 111.697 183.69H112.837C113.955 183.69 114.862 184.185 115.027 185.122C115.267 186.502 114.12 187.387 112.56 187.627C110.85 187.89 109.612 187.44 109.17 186.165V186.187Z" fill="#192548"/>
<path d="M115.357 183.96C115.05 181.988 116.392 180.518 118.47 180.195C120.57 179.865 122.265 180.885 122.572 182.843C122.88 184.8 121.53 186.248 119.46 186.57C117.36 186.893 115.657 185.903 115.357 183.96ZM120.892 183.083C120.682 181.718 120.052 181.455 118.702 181.665C117.36 181.875 116.827 182.318 117.037 183.683C117.255 185.1 117.892 185.31 119.235 185.1C120.577 184.89 121.08 184.298 120.892 183.083Z" fill="#192548"/>
<path d="M129.023 178.65L127.5 185.235L125.453 185.55L121.973 179.745L123.833 179.453L125.558 182.505L126.158 183.615H126.21L126.443 182.37L127.163 178.928L129.023 178.635V178.65Z" fill="#192548"/>
<path d="M130.83 178.365L133.072 178.02L136.5 183.833L134.812 184.095L134.16 182.948L131.287 183.39L131.01 184.688L129.315 184.95L130.83 178.365ZM132.15 177.668L131.37 177.788L131.55 176.085L133.672 175.755L132.15 177.668ZM133.395 181.613L132.78 180.54L132.165 179.43H132.112L131.865 180.683L131.61 181.89L133.395 181.613Z" fill="#192548"/>
<path d="M88.035 204.825C88.2525 206.205 87.63 207.12 86.1975 207.337C85.3425 207.472 84.6075 207.12 84.18 206.37H84.165L84.585 209.04L83.895 209.145L83.01 203.46L83.5875 203.37L83.88 204.502H83.895C84.0675 203.662 84.6825 203.107 85.56 202.972C86.9775 202.755 87.8175 203.43 88.035 204.817V204.825ZM87.345 204.93C87.1875 203.902 86.5725 203.475 85.4325 203.647C84.375 203.812 83.85 204.457 84.0075 205.447C84.165 206.445 84.8775 206.887 85.9125 206.73C87.0525 206.55 87.5025 205.957 87.345 204.93Z" fill="#192548"/>
<path d="M92.7825 203.422L93.21 206.16L92.625 206.25L92.3625 205.14H92.3475C92.205 205.957 91.5675 206.505 90.6975 206.64C89.7225 206.79 89.055 206.452 88.9425 205.747C88.7925 204.795 89.49 204.51 91.35 203.925L92.1375 203.677L92.1075 203.497C91.9875 202.86 91.485 202.627 90.675 202.747C89.805 202.882 89.4825 203.265 89.5125 203.962L88.905 203.91C88.845 202.927 89.5275 202.35 90.6 202.185C91.7325 202.005 92.625 202.387 92.7825 203.415V203.422ZM92.19 204.082L91.4025 204.33C90.2775 204.697 89.505 204.915 89.61 205.582C89.6775 206.025 90.0975 206.212 90.795 206.107C91.6875 205.965 92.3775 205.14 92.1825 204.09L92.19 204.082Z" fill="#192548"/>
<path d="M97.7476 202.65L98.175 205.388L97.59 205.478L97.3275 204.368H97.3126C97.1701 205.185 96.5325 205.733 95.655 205.868C94.68 206.018 94.0125 205.68 93.9 204.975C93.75 204.023 94.455 203.738 96.3075 203.153L97.095 202.905L97.0651 202.725C96.9451 202.088 96.4425 201.855 95.6325 201.975C94.7625 202.11 94.4475 202.493 94.47 203.19L93.8625 203.138C93.8025 202.155 94.485 201.578 95.55 201.413C96.6825 201.24 97.575 201.615 97.74 202.643L97.7476 202.65ZM97.1626 203.31L96.3751 203.558C95.2501 203.925 94.4776 204.143 94.5826 204.81C94.6501 205.253 95.0701 205.44 95.7676 205.335C96.6601 205.193 97.35 204.368 97.155 203.318L97.1626 203.31Z" fill="#192548"/>
<path d="M98.85 204.067L99.4725 203.805C99.6825 204.397 100.177 204.622 101.017 204.487C101.752 204.375 102.127 204.082 102.052 203.625C101.985 203.257 101.655 203.115 100.92 203.092L100.005 203.07C99.2175 203.07 98.775 202.732 98.6625 202.132C98.535 201.382 99.105 200.857 100.23 200.685C101.347 200.512 102.037 200.887 102.375 201.72L101.752 201.96C101.535 201.322 101.04 201.067 100.335 201.172C99.6375 201.277 99.285 201.57 99.345 201.997C99.405 202.312 99.645 202.485 100.177 202.492L101.205 202.507C102.12 202.522 102.622 202.807 102.735 203.437C102.87 204.262 102.255 204.825 101.055 205.012C99.9825 205.177 99.1275 204.847 98.85 204.052V204.067Z" fill="#192548"/>
<path d="M109.8 201.443L109.08 201.555L109.403 203.648L108.728 203.753L107.768 197.558L108.443 197.453L108.983 200.948L109.703 200.835L111.135 199.095L112.05 198.953L110.295 201.09L112.823 203.108L112.035 203.228L109.8 201.435V201.443Z" fill="#192548"/>
<path d="M117.045 199.65L117.472 202.388L116.887 202.478L116.625 201.368H116.61C116.467 202.185 115.83 202.733 114.96 202.868C113.985 203.018 113.317 202.68 113.205 201.975C113.055 201.023 113.76 200.738 115.612 200.153L116.4 199.905L116.37 199.725C116.25 199.088 115.747 198.855 114.937 198.975C114.067 199.11 113.745 199.493 113.775 200.19L113.167 200.138C113.107 199.155 113.79 198.578 114.855 198.413C115.987 198.24 116.88 198.615 117.045 199.643V199.65ZM116.46 200.31L115.672 200.558C114.547 200.925 113.775 201.143 113.88 201.81C113.947 202.253 114.367 202.44 115.065 202.335C115.957 202.193 116.647 201.368 116.452 200.318L116.46 200.31Z" fill="#192548"/>
<path d="M118.11 198.008L118.687 197.918L118.98 199.035H118.987C119.145 197.993 119.94 197.573 120.967 197.535V198.203C119.902 198.203 118.965 198.96 119.167 200.243L119.452 202.073L118.762 202.178L118.11 198V198.008Z" fill="#192548"/>
<path d="M123.953 197.737L123.42 197.812L123.878 200.745L123.908 200.76L125.288 200.542L125.385 201.165L124.118 201.36C123.578 201.442 123.24 201.18 123.158 200.655L122.73 197.917L122.198 198.007L121.613 198.097L121.515 197.475L122.1 197.385L122.633 197.31L122.58 195.922L123.113 195.84L123.323 197.205L123.855 197.115L124.853 196.957L124.95 197.58L123.953 197.737Z" fill="#192548"/>
<path d="M129.847 197.662L130.275 200.4L129.69 200.49L129.427 199.38H129.412C129.262 200.198 128.632 200.745 127.755 200.88C126.78 201.03 126.112 200.693 126 199.988C125.85 199.035 126.555 198.75 128.407 198.165L129.195 197.918L129.165 197.738C129.045 197.1 128.542 196.868 127.732 196.988C126.862 197.123 126.547 197.505 126.57 198.202L125.962 198.15C125.902 197.168 126.585 196.59 127.65 196.425C128.782 196.253 129.675 196.628 129.84 197.655L129.847 197.662ZM129.262 198.323L128.475 198.57C127.35 198.938 126.577 199.155 126.682 199.823C126.75 200.265 127.17 200.453 127.867 200.348C128.76 200.205 129.45 199.38 129.255 198.33L129.262 198.323Z" fill="#192548"/>
<path d="M102.672 196.612L81.1283 199.963L81.2539 200.771L102.797 197.42L102.672 196.612Z" fill="#192548"/>
<path d="M104.505 208.437L82.9615 211.788L83.0872 212.595L104.631 209.245L104.505 208.437Z" fill="#192548"/>
<path d="M60.675 155.61C60.675 163.477 54.3075 169.837 46.4475 169.837C54.315 169.837 60.675 176.205 60.675 184.065C60.675 176.197 67.0425 169.837 74.9025 169.837C67.035 169.837 60.675 163.47 60.675 155.61Z" fill="#192548"/>
<path d="M61.05 184.065H60.3C60.3 176.422 54.0825 170.212 46.4475 170.212V169.462C54.09 169.462 60.3 163.245 60.3 155.61H61.05C61.05 163.252 67.2675 169.462 74.9025 169.462V170.212C67.26 170.212 61.05 176.43 61.05 184.065ZM49.74 169.837C55.155 171.09 59.4225 175.357 60.675 180.772C61.9275 175.357 66.195 171.09 71.61 169.837C66.2025 168.585 61.9275 164.317 60.675 158.902C59.4225 164.317 55.155 168.585 49.74 169.837Z" fill="#CDCECF"/>
<path d="M165.472 228.427C170.895 234.127 170.67 243.12 164.97 248.542C170.67 243.12 179.662 243.345 185.085 249.045C179.662 243.345 179.887 234.352 185.587 228.93C179.887 234.352 170.895 234.127 165.472 228.427Z" fill="#192548"/>
<path d="M184.815 249.307C179.55 243.772 170.76 243.555 165.225 248.82L164.708 248.28C170.243 243.015 170.46 234.225 165.195 228.69L165.735 228.172C168.285 230.857 171.728 232.387 175.425 232.477C179.108 232.575 182.633 231.217 185.318 228.66L185.835 229.2C183.15 231.75 181.62 235.192 181.53 238.89C181.44 242.587 182.79 246.097 185.348 248.782L184.808 249.3L184.815 249.307ZM174.773 244.26C177.578 244.26 180.383 245.062 182.805 246.66C181.425 244.327 180.72 241.657 180.788 238.882C180.855 236.115 181.688 233.482 183.18 231.225C180.848 232.597 178.178 233.295 175.41 233.235C172.635 233.167 170.003 232.327 167.745 230.835C170.565 235.62 170.408 241.65 167.355 246.285C169.635 244.935 172.208 244.267 174.773 244.267V244.26Z" fill="#CDCECF"/>
<path d="M188.468 187.102C191.58 190.215 191.58 195.24 188.468 198.352C191.58 195.24 196.605 195.24 199.718 198.352C196.605 195.24 196.605 190.215 199.718 187.102C196.605 190.215 191.58 190.215 188.468 187.102Z" fill="#192548"/>
<path d="M188.737 198.615L188.205 198.082C189.637 196.65 190.425 194.745 190.425 192.72C190.425 190.695 189.637 188.79 188.205 187.357L188.737 186.825C190.17 188.257 192.075 189.045 194.1 189.045C196.125 189.045 198.03 188.257 199.462 186.825L199.995 187.357C197.04 190.312 197.04 195.12 199.995 198.075L199.462 198.607C198.03 197.175 196.125 196.387 194.1 196.387C192.075 196.387 190.17 197.175 188.737 198.607V198.615ZM194.092 195.645C195.465 195.645 196.785 195.975 197.962 196.597C196.695 194.182 196.695 191.272 197.962 188.857C195.607 190.102 192.585 190.102 190.222 188.857C190.845 190.035 191.175 191.355 191.175 192.727C191.175 194.1 190.845 195.412 190.222 196.597C191.4 195.975 192.72 195.652 194.092 195.652V195.645Z" fill="#CDCECF"/>
<path d="M43.7925 185.295C46.905 188.408 46.905 193.433 43.7925 196.545C46.905 193.433 51.93 193.433 55.0425 196.545C51.93 193.433 51.93 188.408 55.0425 185.295C51.93 188.408 46.905 188.408 43.7925 185.295Z" fill="#192548"/>
<path d="M54.78 196.807C53.3475 195.375 51.4425 194.587 49.4175 194.587C47.3925 194.587 45.4875 195.375 44.055 196.807L43.5225 196.275C46.4775 193.32 46.4775 188.512 43.5225 185.557L44.055 185.025C47.01 187.98 51.8175 187.98 54.7725 185.025L55.305 185.557C52.35 188.512 52.35 193.32 55.305 196.275L54.7725 196.807H54.78ZM49.425 193.837C50.7975 193.837 52.1175 194.167 53.295 194.79C52.0275 192.375 52.0275 189.457 53.295 187.042C50.88 188.31 47.9625 188.31 45.54 187.042C46.8075 189.457 46.8075 192.367 45.54 194.79C46.7175 194.167 48.0375 193.837 49.41 193.837H49.425Z" fill="#CDCECF"/>
<path d="M87.03 258.172C89.745 258.172 91.9425 260.37 91.9425 263.085C91.9425 260.37 94.14 258.172 96.855 258.172C94.14 258.172 91.9425 255.975 91.9425 253.26C91.9425 255.975 89.745 258.172 87.03 258.172Z" fill="#192548"/>
<path d="M92.3175 263.085H91.5675C91.5675 260.58 89.535 258.547 87.03 258.547V257.797C89.535 257.797 91.5675 255.765 91.5675 253.26H92.3175C92.3175 255.765 94.35 257.797 96.855 257.797V258.547C94.35 258.547 92.3175 260.58 92.3175 263.085ZM88.9875 258.172C90.33 258.712 91.41 259.785 91.9425 261.127C92.4825 259.785 93.555 258.705 94.8975 258.172C93.555 257.632 92.475 256.56 91.9425 255.217C91.4025 256.56 90.33 257.64 88.9875 258.172Z" fill="#CDCECF"/>
<path d="M97.3199 127.05C100.035 127.05 102.232 129.247 102.232 131.962C102.232 129.247 104.43 127.05 107.145 127.05C104.43 127.05 102.232 124.852 102.232 122.137C102.232 124.852 100.035 127.05 97.3199 127.05Z" fill="#192548"/>
<path d="M102.607 131.962H101.857C101.857 129.457 99.8249 127.425 97.3199 127.425V126.675C99.8249 126.675 101.857 124.642 101.857 122.137H102.607C102.607 124.642 104.64 126.675 107.145 126.675V127.425C104.64 127.425 102.607 129.457 102.607 131.962ZM99.2774 127.05C100.62 127.59 101.7 128.662 102.232 130.005C102.772 128.662 103.845 127.582 105.187 127.05C103.845 126.51 102.765 125.437 102.232 124.095C101.692 125.437 100.62 126.517 99.2774 127.05Z" fill="#CDCECF"/>
<path d="M153.405 258.172C156.12 258.172 158.318 260.37 158.318 263.085C158.318 260.37 160.515 258.172 163.23 258.172C160.515 258.172 158.318 255.975 158.318 253.26C158.318 255.975 156.12 258.172 153.405 258.172Z" fill="#192548"/>
<path d="M158.693 263.085H157.943C157.943 260.58 155.91 258.547 153.405 258.547V257.797C155.91 257.797 157.943 255.765 157.943 253.26H158.693C158.693 255.765 160.725 257.797 163.23 257.797V258.547C160.725 258.547 158.693 260.58 158.693 263.085ZM155.355 258.172C156.698 258.712 157.778 259.785 158.31 261.127C158.85 259.785 159.923 258.705 161.265 258.172C159.923 257.632 158.843 256.56 158.31 255.217C157.77 256.56 156.698 257.64 155.355 258.172Z" fill="#CDCECF"/>
</g>
</g>
<defs>
<clipPath id="clip0_9161_2753">
<rect width="375" height="375" fill="white"/>
</clipPath>
</defs>
</svg>
