<svg width="80" height="80" viewBox="0 0 80 80" fill="none" xmlns="http://www.w3.org/2000/svg">
  <g clip-path="url(#clip0_4252_14538)">
    <path
      d="M71.33 41.5401V16.8001C71.33 16.8001 71.33 16.7701 71.33 16.7601C71.33 16.7101 71.33 16.6501 71.31 16.6001C71.31 16.5501 71.3 16.5101 71.29 16.4601C71.28 16.4101 71.26 16.3701 71.25 16.3201C71.23 16.2701 71.22 16.2201 71.2 16.1801C71.18 16.1401 71.16 16.1101 71.14 16.0701C71.11 16.0201 71.08 15.9701 71.05 15.9201C71.05 15.9101 71.04 15.9001 71.03 15.8901C71.01 15.8701 70.99 15.8501 70.97 15.8301C70.93 15.7901 70.9 15.7501 70.85 15.7101C70.82 15.6801 70.78 15.6501 70.75 15.6201C70.71 15.5901 70.67 15.5601 70.62 15.5301C70.58 15.5101 70.54 15.4901 70.5 15.4601C70.45 15.4401 70.41 15.4201 70.36 15.4001C70.32 15.3801 70.27 15.3701 70.23 15.3601C70.18 15.3501 70.13 15.3301 70.08 15.3301C70.03 15.3301 69.98 15.3201 69.94 15.3201C69.91 15.3201 69.87 15.3101 69.84 15.3101H9.15C9.15 15.3101 9.09 15.3101 9.06 15.3101C9.01 15.3101 8.96 15.3101 8.9 15.3301C8.85 15.3301 8.8 15.3501 8.76 15.3601C8.71 15.3701 8.67 15.3901 8.62 15.4001C8.57 15.4201 8.53 15.4401 8.48 15.4601C8.44 15.4801 8.4 15.5001 8.35 15.5301C8.31 15.5601 8.27 15.5901 8.23 15.6201C8.19 15.6501 8.16 15.6801 8.12 15.7101C8.08 15.7501 8.04 15.7901 8.01 15.8301C7.99 15.8501 7.97 15.8701 7.95 15.8901C7.95 15.9001 7.94 15.9101 7.93 15.9201C7.9 15.9701 7.87 16.0201 7.84 16.0701C7.82 16.1101 7.8 16.1401 7.78 16.1801C7.76 16.2301 7.74 16.2801 7.73 16.3201C7.71 16.3701 7.7 16.4101 7.69 16.4601C7.68 16.5001 7.67 16.5501 7.67 16.6001C7.67 16.6501 7.66 16.7101 7.65 16.7601C7.65 16.7701 7.65 16.7901 7.65 16.8001V56.2801C7.65 57.1101 8.32 57.7801 9.15 57.7801H48.26C50.02 64.1001 55.82 68.7601 62.69 68.7601C70.96 68.7601 77.68 62.0301 77.68 53.7701C77.68 48.7201 75.17 44.2601 71.33 41.5401ZM65.41 18.3001L39.48 38.2101L13.56 18.3001H65.41ZM10.65 54.7901V19.8501L38.58 41.3001C38.85 41.5101 39.17 41.6101 39.49 41.6101C39.81 41.6101 40.13 41.5101 40.4 41.3001L68.33 19.8501V39.8901C66.59 39.1801 64.68 38.7801 62.68 38.7801C54.41 38.7801 47.69 45.5101 47.69 53.7701C47.69 54.1101 47.72 54.4501 47.74 54.7901H10.65ZM62.69 65.7701C56.08 65.7701 50.7 60.3901 50.7 53.7801C50.7 47.1701 56.08 41.7901 62.69 41.7901C69.3 41.7901 74.68 47.1701 74.68 53.7801C74.68 60.3901 69.3 65.7701 62.69 65.7701Z"
      fill="#579636"/>
    <path
      d="M67.13 48.4498L60.76 56.1498L57.66 53.3298C57.05 52.7698 56.1 52.8198 55.54 53.4298C54.98 54.0398 55.03 54.9898 55.64 55.5498L59.9 59.4198C60.18 59.6698 60.54 59.8098 60.91 59.8098C60.95 59.8098 60.98 59.8098 61.02 59.8098C61.43 59.7798 61.81 59.5898 62.07 59.2698L69.45 50.3598C69.98 49.7198 69.89 48.7798 69.25 48.2498C68.61 47.7198 67.67 47.8098 67.14 48.4498H67.13Z"
      fill="#579636"/>
  </g>
  <defs>
    <clipPath id="clip0_4252_14538">
      <rect width="80" height="80" fill="white"/>
    </clipPath>
  </defs>
</svg>
