<svg width="89" height="88" viewBox="0 0 89 88" fill="none" xmlns="http://www.w3.org/2000/svg">
  <path
    d="M44.3021 79.9918C24.4581 79.9918 8.31006 63.8438 8.31006 43.9998C8.31006 24.1558 24.4581 8.00781 44.3021 8.00781C64.1461 8.00781 80.2941 24.1558 80.2941 43.9998C80.2941 63.8438 64.1461 79.9918 44.3021 79.9918ZM44.3021 11.3078C26.2731 11.3078 11.6101 25.9708 11.6101 43.9998C11.6101 62.0288 26.2731 76.6918 44.3021 76.6918C62.3311 76.6918 76.9941 62.0288 76.9941 43.9998C76.9941 25.9708 62.3311 11.3078 44.3021 11.3078Z"
    fill="#C8CFD9"/>
  <path
    d="M33.5549 59.3666C33.2029 59.3666 32.8509 59.2565 32.5429 59.0255C31.8169 58.4645 31.6849 57.4306 32.2459 56.7156C34.7979 53.4046 39.3079 51.4355 44.2909 51.4355C49.2739 51.4355 53.7839 53.4046 56.3359 56.7156C56.8969 57.4416 56.7649 58.4755 56.0389 59.0255C55.3129 59.5865 54.2789 59.4545 53.7289 58.7285C51.8259 56.2645 48.2069 54.7245 44.2909 54.7245C40.3749 54.7245 36.7669 56.2535 34.8529 58.7285C34.5339 59.1465 34.0389 59.3666 33.5439 59.3666H33.5549Z"
    fill="#C8CFD9"/>
  <path
    d="M31.2448 45.0115C27.8238 45.0115 25.0298 42.2285 25.0298 38.7965C25.0298 37.8835 25.7668 37.1465 26.6798 37.1465C27.5928 37.1465 28.3298 37.8835 28.3298 38.7965C28.3298 40.4025 29.6388 41.7115 31.2448 41.7115C32.8508 41.7115 34.1598 40.4025 34.1598 38.7965C34.1598 37.8835 34.8968 37.1465 35.8098 37.1465C36.7228 37.1465 37.4598 37.8835 37.4598 38.7965C37.4598 42.2175 34.6768 45.0115 31.2448 45.0115Z"
    fill="#C8CFD9"/>
  <path
    d="M57.799 45.0115C54.378 45.0115 51.584 42.2285 51.584 38.7965C51.584 37.8835 52.321 37.1465 53.234 37.1465C54.147 37.1465 54.884 37.8835 54.884 38.7965C54.884 40.4025 56.193 41.7115 57.799 41.7115C59.405 41.7115 60.714 40.4025 60.714 38.7965C60.714 37.8835 61.451 37.1465 62.364 37.1465C63.277 37.1465 64.014 37.8835 64.014 38.7965C64.014 42.2175 61.231 45.0115 57.799 45.0115Z"
    fill="#C8CFD9"/>
</svg>

