<svg width="25" height="24" viewBox="0 0 25 24" fill="none" xmlns="http://www.w3.org/2000/svg">
<path d="M21.44 11.085C20.98 6.91496 17.67 3.60496 13.5 3.14496V1.08496H11.5V3.14496C10.37 3.26996 9.31 3.60996 8.345 4.11496L9.845 5.61496C10.665 5.27996 11.56 5.08996 12.5 5.08996C16.365 5.08996 19.5 8.22496 19.5 12.09C19.5 13.03 19.31 13.925 18.975 14.745L20.475 16.245C20.98 15.28 21.315 14.22 21.44 13.09H23.5V11.09H21.44V11.085ZM3.5 4.35996L5.535 6.39496C4.465 7.70496 3.75 9.31496 3.555 11.085H1.5V13.085H3.56C4.02 17.255 7.33 20.565 11.5 21.025V23.085H13.5V21.025C15.27 20.83 16.88 20.115 18.19 19.045L20.23 21.085L21.5 19.815L4.775 3.08496L3.5 4.35996ZM16.765 17.625C15.585 18.535 14.105 19.085 12.5 19.085C8.635 19.085 5.5 15.95 5.5 12.085C5.5 10.475 6.05 8.99996 6.96 7.81996L16.765 17.625Z" fill="#16254C"/>
</svg>
