<svg width="88" height="88" viewBox="0 0 88 88" fill="none" xmlns="http://www.w3.org/2000/svg">
<path d="M74.3474 38.3521L62.7414 17.8184C61.8022 16.157 60.0334 15.125 58.125 15.125C56.2166 15.125 54.4478 16.157 53.5085 17.8185L51.651 21.1049C50.7533 20.6706 49.8252 20.3061 48.875 20.0126V17.875C48.875 14.6272 46.2482 12 43 12C39.7605 12 37.125 14.6355 37.125 17.875V20.0115C29.0249 22.5229 23.125 30.0853 23.125 39V52.1838C23.125 55.1543 21.6504 57.9804 19.1211 59.6655C17.8968 60.4804 17.125 61.8703 17.125 63.395C17.125 65.8652 19.1347 67.875 21.605 67.875H33.2834C34.1122 72.4878 38.1523 76 43 76C47.8477 76 51.8877 72.4878 52.7166 67.875H64.395C66.8652 67.875 68.875 65.8652 68.875 63.395C68.875 61.898 68.1264 60.4959 66.8797 59.6659C64.3721 57.9949 62.875 55.1978 62.875 52.1838V45.875H69.9581C72.7383 45.875 75 43.6132 75 40.8331C75 39.9655 74.7743 39.1075 74.3474 38.3521ZM40.875 17.875C40.875 16.7032 41.8283 15.75 43 15.75C44.1753 15.75 45.125 16.6996 45.125 17.875V19.2395C43.7248 19.0896 42.3206 19.0844 40.875 19.2387V17.875ZM43 72.25C40.2308 72.25 37.886 70.4021 37.1311 67.875H48.8689C48.114 70.4021 45.7692 72.25 43 72.25ZM64.801 62.787C65.0079 62.925 65.125 63.1541 65.125 63.395C65.125 63.7975 64.7975 64.125 64.395 64.125H21.605C21.0489 64.125 20.7051 63.5288 20.9596 63.0518C21.0171 62.9445 21.1 62.853 21.1995 62.7868C24.7323 60.4336 26.875 56.456 26.875 52.1838V39C26.875 30.1086 34.1086 22.875 43 22.875C45.3628 22.875 47.6819 23.3919 49.801 24.378L41.9026 38.3521C41.4757 39.1075 41.25 39.9654 41.25 40.8331C41.25 43.6132 43.5117 45.875 46.2919 45.875H59.125V52.1838C59.125 56.4549 61.2466 60.4185 64.801 62.787ZM69.9581 42.125H46.2919C45.3034 42.125 44.6828 41.0549 45.1673 40.1974L56.7731 19.6638C57.3666 18.6143 58.883 18.6132 59.4769 19.6636L71.0829 40.1974C71.5671 41.0547 70.9468 42.125 69.9581 42.125Z" fill="#214082"/>
<path d="M58.125 32.875C59.1605 32.875 60 32.0355 60 31V26C60 24.9645 59.1605 24.125 58.125 24.125C57.0895 24.125 56.25 24.9645 56.25 26V31C56.25 32.0355 57.0895 32.875 58.125 32.875Z" fill="#214082"/>
<path d="M58.1249 38.8756C59.1608 38.8756 60.0005 38.0359 60.0005 37C60.0005 35.9641 59.1608 35.1244 58.1249 35.1244C57.089 35.1244 56.2493 35.9641 56.2493 37C56.2493 38.0359 57.089 38.8756 58.1249 38.8756Z" fill="#214082"/>
<path d="M24.875 20.125C22.1869 20.125 20 22.3119 20 25C20 26.0355 20.8395 26.875 21.875 26.875C22.9105 26.875 23.75 26.0355 23.75 25C23.75 24.3796 24.2546 23.875 24.875 23.875C25.9105 23.875 26.75 23.0355 26.75 22C26.75 20.9645 25.9105 20.125 24.875 20.125Z" fill="#214082"/>
<path d="M24.875 16.875C25.9105 16.875 26.75 16.0355 26.75 15C26.75 13.9645 25.9105 13.125 24.875 13.125C18.3271 13.125 13 18.4521 13 25C13 26.0355 13.8395 26.875 14.875 26.875C15.9105 26.875 16.75 26.0355 16.75 25C16.75 20.5199 20.3949 16.875 24.875 16.875Z" fill="#214082"/>
</svg>
