<svg width="80" height="80" viewBox="0 0 80 80" fill="none" xmlns="http://www.w3.org/2000/svg">
  <g clip-path="url(#clip0_4252_14536)">
    <path
      d="M68.32 16.9902H11.68C8 16.9902 5.01 19.9802 5.01 23.6602V56.9002C5.01 60.5802 8 63.5702 11.68 63.5702H68.32C72 63.5702 74.99 60.5802 74.99 56.9002V23.6602C74.99 19.9802 72 16.9902 68.32 16.9902ZM71.99 56.9002C71.99 58.9202 70.34 60.5702 68.32 60.5702H11.68C9.66 60.5702 8.01 58.9202 8.01 56.9002V23.6602C8.01 21.6402 9.66 19.9902 11.68 19.9902H68.32C70.35 19.9902 71.99 21.6402 71.99 23.6602V56.9002Z"
      fill="#3171AF"/>
    <path
      d="M54.8 28.2798H47.88C47.05 28.2798 46.38 28.9498 46.38 29.7798V50.0898C46.38 50.9198 47.05 51.5898 47.88 51.5898C48.71 51.5898 49.38 50.9198 49.38 50.0898V42.1098H54.8C58.53 42.1098 61.56 39.0798 61.56 35.3498V35.0498C61.56 31.3198 58.53 28.2898 54.8 28.2898V28.2798ZM58.56 35.3498C58.56 37.4298 56.87 39.1098 54.8 39.1098H49.38V31.2798H54.8C56.88 31.2798 58.56 32.9698 58.56 35.0398V35.3398V35.3498Z"
      fill="#3171AF"/>
    <path
      d="M36.39 28.2798H14.83C14 28.2798 13.33 28.9498 13.33 29.7798C13.33 30.6098 14 31.2798 14.83 31.2798H36.39C37.22 31.2798 37.89 30.6098 37.89 29.7798C37.89 28.9498 37.22 28.2798 36.39 28.2798Z"
      fill="#3171AF"/>
    <path
      d="M14.83 41.4399H29.87C30.7 41.4399 31.37 40.7699 31.37 39.9399C31.37 39.1099 30.7 38.4399 29.87 38.4399H14.83C14 38.4399 13.33 39.1099 13.33 39.9399C13.33 40.7699 14 41.4399 14.83 41.4399Z"
      fill="#3171AF"/>
    <path
      d="M36.39 48.5898H14.83C14 48.5898 13.33 49.2598 13.33 50.0898C13.33 50.9198 14 51.5898 14.83 51.5898H36.39C37.22 51.5898 37.89 50.9198 37.89 50.0898C37.89 49.2598 37.22 48.5898 36.39 48.5898Z"
      fill="#3171AF"/>
  </g>
  <defs>
    <clipPath id="clip0_4252_14536">
      <rect width="80" height="80" fill="white"/>
    </clipPath>
  </defs>
</svg>
